<svg width="223" height="137" viewBox="0 0 223 137" fill="none" xmlns="http://www.w3.org/2000/svg">
<path d="M5.5 2.13919C6.32843 2.13919 7 1.42083 7 0.534684C7 -0.351461 6.32843 -1.06982 5.5 -1.06982C4.67157 -1.06982 4 -0.351461 4 0.534684C4 1.42083 4.67157 2.13919 5.5 2.13919Z" fill="#E5CBB2"/>
<path d="M23.5 2.13919C24.3284 2.13919 25 1.42083 25 0.534684C25 -0.351461 24.3284 -1.06982 23.5 -1.06982C22.6716 -1.06982 22 -0.351461 22 0.534684C22 1.42083 22.6716 2.13919 23.5 2.13919Z" fill="#E5CBB2"/>
<path d="M41.5 2.13919C42.3284 2.13919 43 1.42083 43 0.534684C43 -0.351461 42.3284 -1.06982 41.5 -1.06982C40.6716 -1.06982 40 -0.351461 40 0.534684C40 1.42083 40.6716 2.13919 41.5 2.13919Z" fill="#E5CBB2"/>
<path d="M59.5 2.13919C60.3284 2.13919 61 1.42083 61 0.534684C61 -0.351461 60.3284 -1.06982 59.5 -1.06982C58.6716 -1.06982 58 -0.351461 58 0.534684C58 1.42083 58.6716 2.13919 59.5 2.13919Z" fill="#E5CBB2"/>
<path d="M77.5 2.13919C78.3284 2.13919 79 1.42083 79 0.534684C79 -0.351461 78.3284 -1.06982 77.5 -1.06982C76.6716 -1.06982 76 -0.351461 76 0.534684C76 1.42083 76.6716 2.13919 77.5 2.13919Z" fill="#E5CBB2"/>
<path d="M95.5 2.13919C96.3284 2.13919 97 1.42083 97 0.534684C97 -0.351461 96.3284 -1.06982 95.5 -1.06982C94.6716 -1.06982 94 -0.351461 94 0.534684C94 1.42083 94.6716 2.13919 95.5 2.13919Z" fill="#E5CBB2"/>
<path d="M113.5 2.13919C114.328 2.13919 115 1.42083 115 0.534684C115 -0.351461 114.328 -1.06982 113.5 -1.06982C112.672 -1.06982 112 -0.351461 112 0.534684C112 1.42083 112.672 2.13919 113.5 2.13919Z" fill="#E5CBB2"/>
<path d="M131.5 2.13919C132.328 2.13919 133 1.42083 133 0.534684C133 -0.351461 132.328 -1.06982 131.5 -1.06982C130.672 -1.06982 130 -0.351461 130 0.534684C130 1.42083 130.672 2.13919 131.5 2.13919Z" fill="#E5CBB2"/>
<path d="M149.5 2.13919C150.328 2.13919 151 1.42083 151 0.534684C151 -0.351461 150.328 -1.06982 149.5 -1.06982C148.672 -1.06982 148 -0.351461 148 0.534684C148 1.42083 148.672 2.13919 149.5 2.13919Z" fill="#E5CBB2"/>
<path d="M167.5 2.13919C168.328 2.13919 169 1.42083 169 0.534684C169 -0.351461 168.328 -1.06982 167.5 -1.06982C166.672 -1.06982 166 -0.351461 166 0.534684C166 1.42083 166.672 2.13919 167.5 2.13919Z" fill="#E5CBB2"/>
<path d="M185.5 2.13919C186.328 2.13919 187 1.42083 187 0.534684C187 -0.351461 186.328 -1.06982 185.5 -1.06982C184.672 -1.06982 184 -0.351461 184 0.534684C184 1.42083 184.672 2.13919 185.5 2.13919Z" fill="#E5CBB2"/>
<path d="M203.5 2.13919C204.328 2.13919 205 1.42083 205 0.534684C205 -0.351461 204.328 -1.06982 203.5 -1.06982C202.672 -1.06982 202 -0.351461 202 0.534684C202 1.42083 202.672 2.13919 203.5 2.13919Z" fill="#E5CBB2"/>
<path d="M221.5 2.13919C222.328 2.13919 223 1.42083 223 0.534684C223 -0.351461 222.328 -1.06982 221.5 -1.06982C220.672 -1.06982 220 -0.351461 220 0.534684C220 1.42083 220.672 2.13919 221.5 2.13919Z" fill="#E5CBB2"/>
<path d="M5.5 21.3936C6.32843 21.3936 7 20.6752 7 19.7891C7 18.9029 6.32843 18.1846 5.5 18.1846C4.67157 18.1846 4 18.9029 4 19.7891C4 20.6752 4.67157 21.3936 5.5 21.3936Z" fill="#E5CBB2"/>
<path d="M23.5 21.3936C24.3284 21.3936 25 20.6752 25 19.7891C25 18.9029 24.3284 18.1846 23.5 18.1846C22.6716 18.1846 22 18.9029 22 19.7891C22 20.6752 22.6716 21.3936 23.5 21.3936Z" fill="#E5CBB2"/>
<path d="M41.5 21.3936C42.3284 21.3936 43 20.6752 43 19.7891C43 18.9029 42.3284 18.1846 41.5 18.1846C40.6716 18.1846 40 18.9029 40 19.7891C40 20.6752 40.6716 21.3936 41.5 21.3936Z" fill="#E5CBB2"/>
<path d="M59.5 21.3936C60.3284 21.3936 61 20.6752 61 19.7891C61 18.9029 60.3284 18.1846 59.5 18.1846C58.6716 18.1846 58 18.9029 58 19.7891C58 20.6752 58.6716 21.3936 59.5 21.3936Z" fill="#E5CBB2"/>
<path d="M77.5 21.3936C78.3284 21.3936 79 20.6752 79 19.7891C79 18.9029 78.3284 18.1846 77.5 18.1846C76.6716 18.1846 76 18.9029 76 19.7891C76 20.6752 76.6716 21.3936 77.5 21.3936Z" fill="#E5CBB2"/>
<path d="M95.5 21.3936C96.3284 21.3936 97 20.6752 97 19.7891C97 18.9029 96.3284 18.1846 95.5 18.1846C94.6716 18.1846 94 18.9029 94 19.7891C94 20.6752 94.6716 21.3936 95.5 21.3936Z" fill="#E5CBB2"/>
<path d="M113.5 21.3936C114.328 21.3936 115 20.6752 115 19.7891C115 18.9029 114.328 18.1846 113.5 18.1846C112.672 18.1846 112 18.9029 112 19.7891C112 20.6752 112.672 21.3936 113.5 21.3936Z" fill="#E5CBB2"/>
<path d="M131.5 21.3936C132.328 21.3936 133 20.6752 133 19.7891C133 18.9029 132.328 18.1846 131.5 18.1846C130.672 18.1846 130 18.9029 130 19.7891C130 20.6752 130.672 21.3936 131.5 21.3936Z" fill="#E5CBB2"/>
<path d="M149.5 21.3936C150.328 21.3936 151 20.6752 151 19.7891C151 18.9029 150.328 18.1846 149.5 18.1846C148.672 18.1846 148 18.9029 148 19.7891C148 20.6752 148.672 21.3936 149.5 21.3936Z" fill="#E5CBB2"/>
<path d="M167.5 21.3936C168.328 21.3936 169 20.6752 169 19.7891C169 18.9029 168.328 18.1846 167.5 18.1846C166.672 18.1846 166 18.9029 166 19.7891C166 20.6752 166.672 21.3936 167.5 21.3936Z" fill="#E5CBB2"/>
<path d="M185.5 21.3936C186.328 21.3936 187 20.6752 187 19.7891C187 18.9029 186.328 18.1846 185.5 18.1846C184.672 18.1846 184 18.9029 184 19.7891C184 20.6752 184.672 21.3936 185.5 21.3936Z" fill="#E5CBB2"/>
<path d="M203.5 21.3936C204.328 21.3936 205 20.6752 205 19.7891C205 18.9029 204.328 18.1846 203.5 18.1846C202.672 18.1846 202 18.9029 202 19.7891C202 20.6752 202.672 21.3936 203.5 21.3936Z" fill="#E5CBB2"/>
<path d="M221.5 21.3936C222.328 21.3936 223 20.6752 223 19.7891C223 18.9029 222.328 18.1846 221.5 18.1846C220.672 18.1846 220 18.9029 220 19.7891C220 20.6752 220.672 21.3936 221.5 21.3936Z" fill="#E5CBB2"/>
<path d="M5.5 40.6475C6.32843 40.6475 7 39.9291 7 39.043C7 38.1568 6.32843 37.4385 5.5 37.4385C4.67157 37.4385 4 38.1568 4 39.043C4 39.9291 4.67157 40.6475 5.5 40.6475Z" fill="#E5CBB2"/>
<path d="M23.5 40.6475C24.3284 40.6475 25 39.9291 25 39.043C25 38.1568 24.3284 37.4385 23.5 37.4385C22.6716 37.4385 22 38.1568 22 39.043C22 39.9291 22.6716 40.6475 23.5 40.6475Z" fill="#E5CBB2"/>
<path d="M41.5 40.6475C42.3284 40.6475 43 39.9291 43 39.043C43 38.1568 42.3284 37.4385 41.5 37.4385C40.6716 37.4385 40 38.1568 40 39.043C40 39.9291 40.6716 40.6475 41.5 40.6475Z" fill="#E5CBB2"/>
<path d="M59.5 40.6475C60.3284 40.6475 61 39.9291 61 39.043C61 38.1568 60.3284 37.4385 59.5 37.4385C58.6716 37.4385 58 38.1568 58 39.043C58 39.9291 58.6716 40.6475 59.5 40.6475Z" fill="#E5CBB2"/>
<path d="M77.5 40.6475C78.3284 40.6475 79 39.9291 79 39.043C79 38.1568 78.3284 37.4385 77.5 37.4385C76.6716 37.4385 76 38.1568 76 39.043C76 39.9291 76.6716 40.6475 77.5 40.6475Z" fill="#E5CBB2"/>
<path d="M95.5 40.6475C96.3284 40.6475 97 39.9291 97 39.043C97 38.1568 96.3284 37.4385 95.5 37.4385C94.6716 37.4385 94 38.1568 94 39.043C94 39.9291 94.6716 40.6475 95.5 40.6475Z" fill="#E5CBB2"/>
<path d="M113.5 40.6475C114.328 40.6475 115 39.9291 115 39.043C115 38.1568 114.328 37.4385 113.5 37.4385C112.672 37.4385 112 38.1568 112 39.043C112 39.9291 112.672 40.6475 113.5 40.6475Z" fill="#E5CBB2"/>
<path d="M131.5 40.6475C132.328 40.6475 133 39.9291 133 39.043C133 38.1568 132.328 37.4385 131.5 37.4385C130.672 37.4385 130 38.1568 130 39.043C130 39.9291 130.672 40.6475 131.5 40.6475Z" fill="#E5CBB2"/>
<path d="M149.5 40.6475C150.328 40.6475 151 39.9291 151 39.043C151 38.1568 150.328 37.4385 149.5 37.4385C148.672 37.4385 148 38.1568 148 39.043C148 39.9291 148.672 40.6475 149.5 40.6475Z" fill="#E5CBB2"/>
<path d="M167.5 40.6475C168.328 40.6475 169 39.9291 169 39.043C169 38.1568 168.328 37.4385 167.5 37.4385C166.672 37.4385 166 38.1568 166 39.043C166 39.9291 166.672 40.6475 167.5 40.6475Z" fill="#E5CBB2"/>
<path d="M185.5 40.6475C186.328 40.6475 187 39.9291 187 39.043C187 38.1568 186.328 37.4385 185.5 37.4385C184.672 37.4385 184 38.1568 184 39.043C184 39.9291 184.672 40.6475 185.5 40.6475Z" fill="#E5CBB2"/>
<path d="M203.5 40.6475C204.328 40.6475 205 39.9291 205 39.043C205 38.1568 204.328 37.4385 203.5 37.4385C202.672 37.4385 202 38.1568 202 39.043C202 39.9291 202.672 40.6475 203.5 40.6475Z" fill="#E5CBB2"/>
<path d="M221.5 40.6475C222.328 40.6475 223 39.9291 223 39.043C223 38.1568 222.328 37.4385 221.5 37.4385C220.672 37.4385 220 38.1568 220 39.043C220 39.9291 220.672 40.6475 221.5 40.6475Z" fill="#E5CBB2"/>
<path d="M5.5 59.9019C6.32843 59.9019 7 59.1835 7 58.2974C7 57.4112 6.32843 56.6929 5.5 56.6929C4.67157 56.6929 4 57.4112 4 58.2974C4 59.1835 4.67157 59.9019 5.5 59.9019Z" fill="#E5CBB2"/>
<path d="M23.5 59.9019C24.3284 59.9019 25 59.1835 25 58.2974C25 57.4112 24.3284 56.6929 23.5 56.6929C22.6716 56.6929 22 57.4112 22 58.2974C22 59.1835 22.6716 59.9019 23.5 59.9019Z" fill="#E5CBB2"/>
<path d="M41.5 59.9019C42.3284 59.9019 43 59.1835 43 58.2974C43 57.4112 42.3284 56.6929 41.5 56.6929C40.6716 56.6929 40 57.4112 40 58.2974C40 59.1835 40.6716 59.9019 41.5 59.9019Z" fill="#E5CBB2"/>
<path d="M59.5 59.9019C60.3284 59.9019 61 59.1835 61 58.2974C61 57.4112 60.3284 56.6929 59.5 56.6929C58.6716 56.6929 58 57.4112 58 58.2974C58 59.1835 58.6716 59.9019 59.5 59.9019Z" fill="#E5CBB2"/>
<path d="M77.5 59.9019C78.3284 59.9019 79 59.1835 79 58.2974C79 57.4112 78.3284 56.6929 77.5 56.6929C76.6716 56.6929 76 57.4112 76 58.2974C76 59.1835 76.6716 59.9019 77.5 59.9019Z" fill="#E5CBB2"/>
<path d="M95.5 59.9019C96.3284 59.9019 97 59.1835 97 58.2974C97 57.4112 96.3284 56.6929 95.5 56.6929C94.6716 56.6929 94 57.4112 94 58.2974C94 59.1835 94.6716 59.9019 95.5 59.9019Z" fill="#E5CBB2"/>
<path d="M113.5 59.9019C114.328 59.9019 115 59.1835 115 58.2974C115 57.4112 114.328 56.6929 113.5 56.6929C112.672 56.6929 112 57.4112 112 58.2974C112 59.1835 112.672 59.9019 113.5 59.9019Z" fill="#E5CBB2"/>
<path d="M131.5 59.9019C132.328 59.9019 133 59.1835 133 58.2974C133 57.4112 132.328 56.6929 131.5 56.6929C130.672 56.6929 130 57.4112 130 58.2974C130 59.1835 130.672 59.9019 131.5 59.9019Z" fill="#E5CBB2"/>
<path d="M149.5 59.9019C150.328 59.9019 151 59.1835 151 58.2974C151 57.4112 150.328 56.6929 149.5 56.6929C148.672 56.6929 148 57.4112 148 58.2974C148 59.1835 148.672 59.9019 149.5 59.9019Z" fill="#E5CBB2"/>
<path d="M167.5 59.9019C168.328 59.9019 169 59.1835 169 58.2974C169 57.4112 168.328 56.6929 167.5 56.6929C166.672 56.6929 166 57.4112 166 58.2974C166 59.1835 166.672 59.9019 167.5 59.9019Z" fill="#E5CBB2"/>
<path d="M185.5 59.9019C186.328 59.9019 187 59.1835 187 58.2974C187 57.4112 186.328 56.6929 185.5 56.6929C184.672 56.6929 184 57.4112 184 58.2974C184 59.1835 184.672 59.9019 185.5 59.9019Z" fill="#E5CBB2"/>
<path d="M203.5 59.9019C204.328 59.9019 205 59.1835 205 58.2974C205 57.4112 204.328 56.6929 203.5 56.6929C202.672 56.6929 202 57.4112 202 58.2974C202 59.1835 202.672 59.9019 203.5 59.9019Z" fill="#E5CBB2"/>
<path d="M221.5 59.9019C222.328 59.9019 223 59.1835 223 58.2974C223 57.4112 222.328 56.6929 221.5 56.6929C220.672 56.6929 220 57.4112 220 58.2974C220 59.1835 220.672 59.9019 221.5 59.9019Z" fill="#E5CBB2"/>
<path d="M5.5 79.1558C6.32843 79.1558 7 78.4374 7 77.5513C7 76.6651 6.32843 75.9468 5.5 75.9468C4.67157 75.9468 4 76.6651 4 77.5513C4 78.4374 4.67157 79.1558 5.5 79.1558Z" fill="#E5CBB2"/>
<path d="M23.5 79.1558C24.3284 79.1558 25 78.4374 25 77.5513C25 76.6651 24.3284 75.9468 23.5 75.9468C22.6716 75.9468 22 76.6651 22 77.5513C22 78.4374 22.6716 79.1558 23.5 79.1558Z" fill="#E5CBB2"/>
<path d="M41.5 79.1558C42.3284 79.1558 43 78.4374 43 77.5513C43 76.6651 42.3284 75.9468 41.5 75.9468C40.6716 75.9468 40 76.6651 40 77.5513C40 78.4374 40.6716 79.1558 41.5 79.1558Z" fill="#E5CBB2"/>
<path d="M59.5 79.1558C60.3284 79.1558 61 78.4374 61 77.5513C61 76.6651 60.3284 75.9468 59.5 75.9468C58.6716 75.9468 58 76.6651 58 77.5513C58 78.4374 58.6716 79.1558 59.5 79.1558Z" fill="#E5CBB2"/>
<path d="M77.5 79.1558C78.3284 79.1558 79 78.4374 79 77.5513C79 76.6651 78.3284 75.9468 77.5 75.9468C76.6716 75.9468 76 76.6651 76 77.5513C76 78.4374 76.6716 79.1558 77.5 79.1558Z" fill="#E5CBB2"/>
<path d="M95.5 79.1558C96.3284 79.1558 97 78.4374 97 77.5513C97 76.6651 96.3284 75.9468 95.5 75.9468C94.6716 75.9468 94 76.6651 94 77.5513C94 78.4374 94.6716 79.1558 95.5 79.1558Z" fill="#E5CBB2"/>
<path d="M113.5 79.1558C114.328 79.1558 115 78.4374 115 77.5513C115 76.6651 114.328 75.9468 113.5 75.9468C112.672 75.9468 112 76.6651 112 77.5513C112 78.4374 112.672 79.1558 113.5 79.1558Z" fill="#E5CBB2"/>
<path d="M131.5 79.1558C132.328 79.1558 133 78.4374 133 77.5513C133 76.6651 132.328 75.9468 131.5 75.9468C130.672 75.9468 130 76.6651 130 77.5513C130 78.4374 130.672 79.1558 131.5 79.1558Z" fill="#E5CBB2"/>
<path d="M149.5 79.1558C150.328 79.1558 151 78.4374 151 77.5513C151 76.6651 150.328 75.9468 149.5 75.9468C148.672 75.9468 148 76.6651 148 77.5513C148 78.4374 148.672 79.1558 149.5 79.1558Z" fill="#E5CBB2"/>
<path d="M167.5 79.1558C168.328 79.1558 169 78.4374 169 77.5513C169 76.6651 168.328 75.9468 167.5 75.9468C166.672 75.9468 166 76.6651 166 77.5513C166 78.4374 166.672 79.1558 167.5 79.1558Z" fill="#E5CBB2"/>
<path d="M185.5 79.1558C186.328 79.1558 187 78.4374 187 77.5513C187 76.6651 186.328 75.9468 185.5 75.9468C184.672 75.9468 184 76.6651 184 77.5513C184 78.4374 184.672 79.1558 185.5 79.1558Z" fill="#E5CBB2"/>
<path d="M203.5 79.1558C204.328 79.1558 205 78.4374 205 77.5513C205 76.6651 204.328 75.9468 203.5 75.9468C202.672 75.9468 202 76.6651 202 77.5513C202 78.4374 202.672 79.1558 203.5 79.1558Z" fill="#E5CBB2"/>
<path d="M221.5 79.1558C222.328 79.1558 223 78.4374 223 77.5513C223 76.6651 222.328 75.9468 221.5 75.9468C220.672 75.9468 220 76.6651 220 77.5513C220 78.4374 220.672 79.1558 221.5 79.1558Z" fill="#E5CBB2"/>
<path d="M5.5 98.4097C6.32843 98.4097 7 97.6913 7 96.8052C7 95.919 6.32843 95.2007 5.5 95.2007C4.67157 95.2007 4 95.919 4 96.8052C4 97.6913 4.67157 98.4097 5.5 98.4097Z" fill="#E5CBB2"/>
<path d="M23.5 98.4097C24.3284 98.4097 25 97.6913 25 96.8052C25 95.919 24.3284 95.2007 23.5 95.2007C22.6716 95.2007 22 95.919 22 96.8052C22 97.6913 22.6716 98.4097 23.5 98.4097Z" fill="#E5CBB2"/>
<path d="M41.5 98.4097C42.3284 98.4097 43 97.6913 43 96.8052C43 95.919 42.3284 95.2007 41.5 95.2007C40.6716 95.2007 40 95.919 40 96.8052C40 97.6913 40.6716 98.4097 41.5 98.4097Z" fill="#E5CBB2"/>
<path d="M59.5 98.4097C60.3284 98.4097 61 97.6913 61 96.8052C61 95.919 60.3284 95.2007 59.5 95.2007C58.6716 95.2007 58 95.919 58 96.8052C58 97.6913 58.6716 98.4097 59.5 98.4097Z" fill="#E5CBB2"/>
<path d="M77.5 98.4097C78.3284 98.4097 79 97.6913 79 96.8052C79 95.919 78.3284 95.2007 77.5 95.2007C76.6716 95.2007 76 95.919 76 96.8052C76 97.6913 76.6716 98.4097 77.5 98.4097Z" fill="#E5CBB2"/>
<path d="M95.5 98.4097C96.3284 98.4097 97 97.6913 97 96.8052C97 95.919 96.3284 95.2007 95.5 95.2007C94.6716 95.2007 94 95.919 94 96.8052C94 97.6913 94.6716 98.4097 95.5 98.4097Z" fill="#E5CBB2"/>
<path d="M113.5 98.4097C114.328 98.4097 115 97.6913 115 96.8052C115 95.919 114.328 95.2007 113.5 95.2007C112.672 95.2007 112 95.919 112 96.8052C112 97.6913 112.672 98.4097 113.5 98.4097Z" fill="#E5CBB2"/>
<path d="M131.5 98.4097C132.328 98.4097 133 97.6913 133 96.8052C133 95.919 132.328 95.2007 131.5 95.2007C130.672 95.2007 130 95.919 130 96.8052C130 97.6913 130.672 98.4097 131.5 98.4097Z" fill="#E5CBB2"/>
<path d="M149.5 98.4097C150.328 98.4097 151 97.6913 151 96.8052C151 95.919 150.328 95.2007 149.5 95.2007C148.672 95.2007 148 95.919 148 96.8052C148 97.6913 148.672 98.4097 149.5 98.4097Z" fill="#E5CBB2"/>
<path d="M167.5 98.4097C168.328 98.4097 169 97.6913 169 96.8052C169 95.919 168.328 95.2007 167.5 95.2007C166.672 95.2007 166 95.919 166 96.8052C166 97.6913 166.672 98.4097 167.5 98.4097Z" fill="#E5CBB2"/>
<path d="M185.5 98.4097C186.328 98.4097 187 97.6913 187 96.8052C187 95.919 186.328 95.2007 185.5 95.2007C184.672 95.2007 184 95.919 184 96.8052C184 97.6913 184.672 98.4097 185.5 98.4097Z" fill="#E5CBB2"/>
<path d="M203.5 98.4097C204.328 98.4097 205 97.6913 205 96.8052C205 95.919 204.328 95.2007 203.5 95.2007C202.672 95.2007 202 95.919 202 96.8052C202 97.6913 202.672 98.4097 203.5 98.4097Z" fill="#E5CBB2"/>
<path d="M221.5 98.4097C222.328 98.4097 223 97.6913 223 96.8052C223 95.919 222.328 95.2007 221.5 95.2007C220.672 95.2007 220 95.919 220 96.8052C220 97.6913 220.672 98.4097 221.5 98.4097Z" fill="#E5CBB2"/>
<path d="M5.5 117.664C6.32843 117.664 7 116.946 7 116.06C7 115.173 6.32843 114.455 5.5 114.455C4.67157 114.455 4 115.173 4 116.06C4 116.946 4.67157 117.664 5.5 117.664Z" fill="#E5CBB2"/>
<path d="M23.5 117.664C24.3284 117.664 25 116.946 25 116.06C25 115.173 24.3284 114.455 23.5 114.455C22.6716 114.455 22 115.173 22 116.06C22 116.946 22.6716 117.664 23.5 117.664Z" fill="#E5CBB2"/>
<path d="M41.5 117.664C42.3284 117.664 43 116.946 43 116.06C43 115.173 42.3284 114.455 41.5 114.455C40.6716 114.455 40 115.173 40 116.06C40 116.946 40.6716 117.664 41.5 117.664Z" fill="#E5CBB2"/>
<path d="M59.5 117.664C60.3284 117.664 61 116.946 61 116.06C61 115.173 60.3284 114.455 59.5 114.455C58.6716 114.455 58 115.173 58 116.06C58 116.946 58.6716 117.664 59.5 117.664Z" fill="#E5CBB2"/>
<path d="M77.5 117.664C78.3284 117.664 79 116.946 79 116.06C79 115.173 78.3284 114.455 77.5 114.455C76.6716 114.455 76 115.173 76 116.06C76 116.946 76.6716 117.664 77.5 117.664Z" fill="#E5CBB2"/>
<path d="M95.5 117.664C96.3284 117.664 97 116.946 97 116.06C97 115.173 96.3284 114.455 95.5 114.455C94.6716 114.455 94 115.173 94 116.06C94 116.946 94.6716 117.664 95.5 117.664Z" fill="#E5CBB2"/>
<path d="M113.5 117.664C114.328 117.664 115 116.946 115 116.06C115 115.173 114.328 114.455 113.5 114.455C112.672 114.455 112 115.173 112 116.06C112 116.946 112.672 117.664 113.5 117.664Z" fill="#E5CBB2"/>
<path d="M131.5 117.664C132.328 117.664 133 116.946 133 116.06C133 115.173 132.328 114.455 131.5 114.455C130.672 114.455 130 115.173 130 116.06C130 116.946 130.672 117.664 131.5 117.664Z" fill="#E5CBB2"/>
<path d="M149.5 117.664C150.328 117.664 151 116.946 151 116.06C151 115.173 150.328 114.455 149.5 114.455C148.672 114.455 148 115.173 148 116.06C148 116.946 148.672 117.664 149.5 117.664Z" fill="#E5CBB2"/>
<path d="M167.5 117.664C168.328 117.664 169 116.946 169 116.06C169 115.173 168.328 114.455 167.5 114.455C166.672 114.455 166 115.173 166 116.06C166 116.946 166.672 117.664 167.5 117.664Z" fill="#E5CBB2"/>
<path d="M185.5 117.664C186.328 117.664 187 116.946 187 116.06C187 115.173 186.328 114.455 185.5 114.455C184.672 114.455 184 115.173 184 116.06C184 116.946 184.672 117.664 185.5 117.664Z" fill="#E5CBB2"/>
<path d="M203.5 117.664C204.328 117.664 205 116.946 205 116.06C205 115.173 204.328 114.455 203.5 114.455C202.672 114.455 202 115.173 202 116.06C202 116.946 202.672 117.664 203.5 117.664Z" fill="#E5CBB2"/>
<path d="M221.5 117.664C222.328 117.664 223 116.946 223 116.06C223 115.173 222.328 114.455 221.5 114.455C220.672 114.455 220 115.173 220 116.06C220 116.946 220.672 117.664 221.5 117.664Z" fill="#E5CBB2"/>
<path d="M5.5 136.918C6.32843 136.918 7 136.2 7 135.313C7 134.427 6.32843 133.709 5.5 133.709C4.67157 133.709 4 134.427 4 135.313C4 136.2 4.67157 136.918 5.5 136.918Z" fill="#E5CBB2"/>
<path d="M23.5 136.918C24.3284 136.918 25 136.2 25 135.313C25 134.427 24.3284 133.709 23.5 133.709C22.6716 133.709 22 134.427 22 135.313C22 136.2 22.6716 136.918 23.5 136.918Z" fill="#E5CBB2"/>
<path d="M41.5 136.918C42.3284 136.918 43 136.2 43 135.313C43 134.427 42.3284 133.709 41.5 133.709C40.6716 133.709 40 134.427 40 135.313C40 136.2 40.6716 136.918 41.5 136.918Z" fill="#E5CBB2"/>
<path d="M59.5 136.918C60.3284 136.918 61 136.2 61 135.313C61 134.427 60.3284 133.709 59.5 133.709C58.6716 133.709 58 134.427 58 135.313C58 136.2 58.6716 136.918 59.5 136.918Z" fill="#E5CBB2"/>
<path d="M77.5 136.918C78.3284 136.918 79 136.2 79 135.313C79 134.427 78.3284 133.709 77.5 133.709C76.6716 133.709 76 134.427 76 135.313C76 136.2 76.6716 136.918 77.5 136.918Z" fill="#E5CBB2"/>
<path d="M95.5 136.918C96.3284 136.918 97 136.2 97 135.313C97 134.427 96.3284 133.709 95.5 133.709C94.6716 133.709 94 134.427 94 135.313C94 136.2 94.6716 136.918 95.5 136.918Z" fill="#E5CBB2"/>
<path d="M113.5 136.918C114.328 136.918 115 136.2 115 135.313C115 134.427 114.328 133.709 113.5 133.709C112.672 133.709 112 134.427 112 135.313C112 136.2 112.672 136.918 113.5 136.918Z" fill="#E5CBB2"/>
<path d="M131.5 136.918C132.328 136.918 133 136.2 133 135.313C133 134.427 132.328 133.709 131.5 133.709C130.672 133.709 130 134.427 130 135.313C130 136.2 130.672 136.918 131.5 136.918Z" fill="#E5CBB2"/>
<path d="M149.5 136.918C150.328 136.918 151 136.2 151 135.313C151 134.427 150.328 133.709 149.5 133.709C148.672 133.709 148 134.427 148 135.313C148 136.2 148.672 136.918 149.5 136.918Z" fill="#E5CBB2"/>
<path d="M167.5 136.918C168.328 136.918 169 136.2 169 135.313C169 134.427 168.328 133.709 167.5 133.709C166.672 133.709 166 134.427 166 135.313C166 136.2 166.672 136.918 167.5 136.918Z" fill="#E5CBB2"/>
<path d="M185.5 136.918C186.328 136.918 187 136.2 187 135.313C187 134.427 186.328 133.709 185.5 133.709C184.672 133.709 184 134.427 184 135.313C184 136.2 184.672 136.918 185.5 136.918Z" fill="#E5CBB2"/>
<path d="M203.5 136.918C204.328 136.918 205 136.2 205 135.313C205 134.427 204.328 133.709 203.5 133.709C202.672 133.709 202 134.427 202 135.313C202 136.2 202.672 136.918 203.5 136.918Z" fill="#E5CBB2"/>
<path d="M221.5 136.918C222.328 136.918 223 136.2 223 135.313C223 134.427 222.328 133.709 221.5 133.709C220.672 133.709 220 134.427 220 135.313C220 136.2 220.672 136.918 221.5 136.918Z" fill="#E5CBB2"/>
</svg>
