<svg width="211" height="234" viewBox="0 0 211 234" fill="none" xmlns="http://www.w3.org/2000/svg">
<g clip-path="url(#clip0_70_3914)">
<path d="M183.463 7.42274C184.636 8.37974 186.448 8.09911 187.512 6.79594C188.576 5.49276 188.488 3.66052 187.316 2.70351C186.144 1.74651 184.331 2.02714 183.267 3.33031C182.203 4.63349 182.291 6.46573 183.463 7.42274Z" fill="#E5CBB2"/>
<path d="M201.86 22.4403C203.032 23.3973 204.845 23.1167 205.909 21.8135C206.973 20.5103 206.885 18.6781 205.712 17.7211C204.54 16.7641 202.727 17.0447 201.664 18.3479C200.6 19.6511 200.688 21.4833 201.86 22.4403Z" fill="#E5CBB2"/>
<path d="M148.373 12.8549C149.546 13.8119 151.359 13.5312 152.422 12.2281C153.486 10.9249 153.398 9.09265 152.226 8.13564C151.054 7.17864 149.241 7.45927 148.177 8.76244C147.113 10.0656 147.201 11.8979 148.373 12.8549Z" fill="#E5CBB2"/>
<path d="M166.77 27.8727C167.942 28.8297 169.755 28.5491 170.819 27.2459C171.883 25.9427 171.795 24.1105 170.623 23.1535C169.45 22.1965 167.638 22.4771 166.574 23.7803C165.51 25.0834 165.598 26.9157 166.77 27.8727Z" fill="#E5CBB2"/>
<path d="M185.165 42.8903C186.337 43.8473 188.15 43.5666 189.213 42.2635C190.277 40.9603 190.189 39.128 189.017 38.171C187.845 37.214 186.032 37.4947 184.968 38.7978C183.904 40.101 183.992 41.9333 185.165 42.8903Z" fill="#E5CBB2"/>
<path d="M203.561 57.9081C204.733 58.8651 206.546 58.5845 207.61 57.2813C208.674 55.9781 208.586 54.1459 207.414 53.1889C206.241 52.2319 204.429 52.5125 203.365 53.8157C202.301 55.1188 202.389 56.9511 203.561 57.9081Z" fill="#E5CBB2"/>
<path d="M94.8872 3.26942C96.0594 4.22642 97.8722 3.94579 98.9361 2.64261C99.9999 1.33944 99.912 -0.492803 98.7398 -1.44981C97.5675 -2.40681 95.7547 -2.12618 94.6909 -0.823005C93.627 0.480172 93.7149 2.31241 94.8872 3.26942Z" fill="#E5CBB2"/>
<path d="M113.284 18.2872C114.456 19.2442 116.269 18.9636 117.333 17.6604C118.396 16.3573 118.309 14.525 117.136 13.568C115.964 12.611 114.151 12.8916 113.087 14.1948C112.023 15.498 112.111 17.3302 113.284 18.2872Z" fill="#E5CBB2"/>
<path d="M131.678 33.3051C132.85 34.2621 134.663 33.9814 135.727 32.6783C136.791 31.3751 136.703 29.5428 135.531 28.5858C134.359 27.6288 132.546 27.9095 131.482 29.2126C130.418 30.5158 130.506 32.3481 131.678 33.3051Z" fill="#E5CBB2"/>
<path d="M150.075 48.3224C151.247 49.2794 153.06 48.9988 154.124 47.6956C155.187 46.3924 155.1 44.5602 153.927 43.6032C152.755 42.6462 150.942 42.9268 149.878 44.23C148.815 45.5332 148.902 47.3654 150.075 48.3224Z" fill="#E5CBB2"/>
<path d="M168.469 63.3402C169.641 64.2972 171.454 64.0166 172.518 62.7134C173.582 61.4102 173.494 59.578 172.322 58.621C171.15 57.664 169.337 57.9446 168.273 59.2478C167.209 60.551 167.297 62.3832 168.469 63.3402Z" fill="#E5CBB2"/>
<path d="M186.866 78.358C188.038 79.315 189.851 79.0344 190.915 77.7312C191.978 76.4281 191.891 74.5958 190.718 73.6388C189.546 72.6818 187.733 72.9624 186.669 74.2656C185.606 75.5688 185.693 77.401 186.866 78.358Z" fill="#E5CBB2"/>
<path d="M205.262 93.3756C206.434 94.3326 208.247 94.052 209.311 92.7488C210.375 91.4456 210.287 89.6134 209.115 88.6564C207.943 87.6994 206.13 87.98 205.066 89.2832C204.002 90.5864 204.09 92.4186 205.262 93.3756Z" fill="#E5CBB2"/>
<path d="M59.7973 8.70181C60.9696 9.65881 62.7823 9.37818 63.8462 8.075C64.9101 6.77181 64.8222 4.93957 63.6499 3.98257C62.4777 3.02556 60.6649 3.30619 59.601 4.60938C58.5372 5.91256 58.625 7.7448 59.7973 8.70181Z" fill="#E5CBB2"/>
<path d="M78.1918 23.7196C79.3641 24.6766 81.1769 24.396 82.2407 23.0928C83.3046 21.7896 83.2167 19.9574 82.0445 19.0004C80.8722 18.0434 79.0594 18.324 77.9956 19.6272C76.9317 20.9304 77.0196 22.7626 78.1918 23.7196Z" fill="#E5CBB2"/>
<path d="M96.5883 38.7372C97.7606 39.6942 99.5733 39.4136 100.637 38.1104C101.701 36.8072 101.613 34.975 100.441 34.018C99.2687 33.061 97.4559 33.3416 96.392 34.6448C95.3282 35.948 95.416 37.7802 96.5883 38.7372Z" fill="#E5CBB2"/>
<path d="M114.985 53.7548C116.157 54.7118 117.97 54.4312 119.034 53.128C120.098 51.8248 120.01 49.9925 118.837 49.0355C117.665 48.0785 115.852 48.3592 114.789 49.6624C113.725 50.9655 113.813 52.7978 114.985 53.7548Z" fill="#E5CBB2"/>
<path d="M133.379 68.7726C134.552 69.7296 136.364 69.449 137.428 68.1458C138.492 66.8426 138.404 65.0104 137.232 64.0534C136.06 63.0964 134.247 63.377 133.183 64.6802C132.119 65.9834 132.207 67.8156 133.379 68.7726Z" fill="#E5CBB2"/>
<path d="M151.776 83.7904C152.948 84.7474 154.761 84.4668 155.825 83.1636C156.889 81.8604 156.801 80.0282 155.628 79.0712C154.456 78.1142 152.643 78.3948 151.58 79.698C150.516 81.0012 150.604 82.8334 151.776 83.7904Z" fill="#E5CBB2"/>
<path d="M170.17 98.8078C171.343 99.7648 173.155 99.4841 174.219 98.181C175.283 96.8778 175.195 95.0455 174.023 94.0885C172.851 93.1315 171.038 93.4122 169.974 94.7153C168.91 96.0185 168.998 97.8508 170.17 98.8078Z" fill="#E5CBB2"/>
<path d="M188.567 113.826C189.739 114.783 191.552 114.502 192.616 113.199C193.68 111.896 193.592 110.063 192.419 109.106C191.247 108.149 189.434 108.43 188.371 109.733C187.307 111.036 187.395 112.869 188.567 113.826Z" fill="#E5CBB2"/>
<path d="M43.102 29.1517C44.2743 30.1088 46.087 29.8281 47.1509 28.5249C48.2148 27.2218 48.1269 25.3895 46.9546 24.4325C45.7823 23.4755 43.9696 23.7561 42.9057 25.0593C41.8418 26.3625 41.9297 28.1947 43.102 29.1517Z" fill="#E5CBB2"/>
<path d="M61.4985 44.1696C62.6708 45.1266 64.4835 44.8459 65.5474 43.5428C66.6113 42.2396 66.5234 40.4073 65.3511 39.4503C64.1788 38.4933 62.3661 38.774 61.3022 40.0771C60.2383 41.3803 60.3262 43.2126 61.4985 44.1696Z" fill="#E5CBB2"/>
<path d="M79.893 59.1871C81.0653 60.1442 82.878 59.8635 83.9419 58.5603C85.0058 57.2572 84.9179 55.4249 83.7456 54.4679C82.5734 53.5109 80.7606 53.7915 79.6967 55.0947C78.6329 56.3979 78.7207 58.2301 79.893 59.1871Z" fill="#E5CBB2"/>
<path d="M98.2895 74.2047C99.4618 75.1617 101.275 74.8811 102.338 73.5779C103.402 72.2747 103.314 70.4425 102.142 69.4855C100.97 68.5285 99.1571 68.8091 98.0932 70.1123C97.0293 71.4155 97.1172 73.2477 98.2895 74.2047Z" fill="#E5CBB2"/>
<path d="M116.684 89.2225C117.856 90.1796 119.669 89.8989 120.733 88.5957C121.797 87.2926 121.709 85.4603 120.537 84.5033C119.364 83.5463 117.552 83.8269 116.488 85.1301C115.424 86.4333 115.512 88.2655 116.684 89.2225Z" fill="#E5CBB2"/>
<path d="M135.081 104.24C136.253 105.197 138.066 104.917 139.129 103.613C140.193 102.31 140.105 100.478 138.933 99.5209C137.761 98.5639 135.948 98.8445 134.884 100.148C133.82 101.451 133.908 103.283 135.081 104.24Z" fill="#E5CBB2"/>
<path d="M153.477 119.258C154.649 120.215 156.462 119.934 157.526 118.631C158.59 117.328 158.502 115.496 157.33 114.539C156.157 113.582 154.345 113.862 153.281 115.166C152.217 116.469 152.305 118.301 153.477 119.258Z" fill="#E5CBB2"/>
<path d="M171.872 134.276C173.044 135.233 174.857 134.952 175.92 133.649C176.984 132.346 176.896 130.513 175.724 129.556C174.552 128.599 172.739 128.88 171.675 130.183C170.611 131.486 170.699 133.319 171.872 134.276Z" fill="#E5CBB2"/>
<path d="M26.4067 49.6017C27.579 50.5587 29.3917 50.2781 30.4556 48.9749C31.5195 47.6717 31.4316 45.8395 30.2593 44.8825C29.087 43.9255 27.2743 44.2061 26.2104 45.5093C25.1465 46.8124 25.2344 48.6447 26.4067 49.6017Z" fill="#E5CBB2"/>
<path d="M44.8032 64.6193C45.9755 65.5763 47.7882 65.2956 48.8521 63.9925C49.9159 62.6893 49.8281 60.8571 48.6558 59.9C47.4835 58.943 45.6708 59.2237 44.6069 60.5268C43.543 61.83 43.6309 63.6623 44.8032 64.6193Z" fill="#E5CBB2"/>
<path d="M63.1997 79.6371C64.3719 80.5941 66.1847 80.3135 67.2486 79.0103C68.3124 77.7071 68.2245 75.8749 67.0523 74.9179C65.88 73.9609 64.0673 74.2415 63.0034 75.5447C61.9395 76.8478 62.0274 78.6801 63.1997 79.6371Z" fill="#E5CBB2"/>
<path d="M81.5942 94.6549C82.7665 95.6119 84.5792 95.3313 85.6431 94.0281C86.707 92.7249 86.6191 90.8927 85.4468 89.9357C84.2745 88.9787 82.4618 89.2593 81.3979 90.5625C80.334 91.8657 80.4219 93.6979 81.5942 94.6549Z" fill="#E5CBB2"/>
<path d="M99.9907 109.672C101.163 110.629 102.976 110.349 104.04 109.046C105.103 107.743 105.016 105.91 103.843 104.953C102.671 103.996 100.858 104.277 99.7944 105.58C98.7305 106.883 98.8184 108.715 99.9907 109.672Z" fill="#E5CBB2"/>
<path d="M118.385 124.69C119.557 125.647 121.37 125.366 122.434 124.063C123.498 122.76 123.41 120.928 122.238 119.971C121.066 119.014 119.253 119.294 118.189 120.598C117.125 121.901 117.213 123.733 118.385 124.69Z" fill="#E5CBB2"/>
<path d="M136.782 139.708C137.954 140.665 139.767 140.384 140.831 139.081C141.894 137.778 141.807 135.946 140.634 134.989C139.462 134.032 137.649 134.312 136.585 135.615C135.522 136.919 135.609 138.751 136.782 139.708Z" fill="#E5CBB2"/>
<path d="M155.178 154.725C156.35 155.682 158.163 155.402 159.227 154.099C160.291 152.795 160.203 150.963 159.031 150.006C157.859 149.049 156.046 149.33 154.982 150.633C153.918 151.936 154.006 153.768 155.178 154.725Z" fill="#E5CBB2"/>
</g>
<defs>
<clipPath id="clip0_70_3914">
<rect width="194.049" height="219.875" fill="white" transform="translate(139.047 -60) rotate(39.2271)"/>
</clipPath>
</defs>
</svg>
