<svg width="159" height="241" viewBox="0 0 159 241" fill="none" xmlns="http://www.w3.org/2000/svg">
<g clip-path="url(#clip0_70_3553)">
<path d="M11.1524 24.3892C12.0516 23.5759 11.9174 21.9622 10.8525 20.7848C9.78769 19.6074 8.19547 19.3122 7.29621 20.1255C6.39696 20.9388 6.53119 22.5526 7.59604 23.73C8.66088 24.9074 10.2531 25.2025 11.1524 24.3892Z" fill="#6D3D67" fill-opacity="0.8"/>
<path d="M25.2637 11.6265C26.1629 10.8133 26.0287 9.19949 24.9638 8.0221C23.899 6.84471 22.3068 6.54956 21.4075 7.36285C20.5083 8.17614 20.6425 9.78991 21.7074 10.9673C22.7722 12.1447 24.3644 12.4398 25.2637 11.6265Z" fill="#6D3D67" fill-opacity="0.8"/>
<path d="M-0.359369 68.3902C0.539885 67.5769 0.405647 65.9632 -0.659196 64.7858C-1.72404 63.6084 -3.31625 63.3132 -4.21551 64.1265C-5.11476 64.9398 -4.98052 66.5536 -3.91568 67.731C-2.85084 68.9084 -1.25862 69.2035 -0.359369 68.3902Z" fill="#6D3D67" fill-opacity="0.8"/>
<path d="M13.752 55.628C14.6512 54.8147 14.517 53.2009 13.4521 52.0236C12.3873 50.8462 10.7951 50.551 9.89582 51.3643C8.99657 52.1776 9.1308 53.7914 10.1956 54.9688C11.2605 56.1461 12.8527 56.4413 13.752 55.628Z" fill="#6D3D67" fill-opacity="0.8"/>
<path d="M27.8633 42.8653C28.7625 42.052 28.6283 40.4382 27.5635 39.2609C26.4986 38.0835 24.9064 37.7883 24.0072 38.6016C23.1079 39.4149 23.2421 41.0287 24.307 42.2061C25.3718 43.3835 26.964 43.6786 27.8633 42.8653Z" fill="#6D3D67" fill-opacity="0.8"/>
<path d="M41.9746 30.1026C42.8739 29.2893 42.7396 27.6756 41.6748 26.4982C40.6099 25.3208 39.0177 25.0256 38.1185 25.8389C37.2192 26.6522 37.3535 28.266 38.4183 29.4434C39.4831 30.6208 41.0754 30.9159 41.9746 30.1026Z" fill="#6D3D67" fill-opacity="0.8"/>
<path d="M2.23828 99.629C3.13754 98.8157 3.0033 97.2019 1.93845 96.0245C0.873611 94.8472 -0.718602 94.552 -1.61785 95.3653C-2.51711 96.1786 -2.38287 97.7924 -1.31802 98.9697C-0.253181 100.147 1.33903 100.442 2.23828 99.629Z" fill="#6D3D67" fill-opacity="0.8"/>
<path d="M16.3496 86.8663C17.2489 86.053 17.1146 84.4392 16.0498 83.2618C14.9849 82.0845 13.3927 81.7893 12.4935 82.6026C11.5942 83.4159 11.7285 85.0297 12.7933 86.207C13.8581 87.3844 15.4504 87.6796 16.3496 86.8663Z" fill="#6D3D67" fill-opacity="0.8"/>
<path d="M30.4609 74.1036C31.3602 73.2903 31.226 71.6765 30.1611 70.4991C29.0963 69.3218 27.5041 69.0266 26.6048 69.8399C25.7056 70.6532 25.8398 72.267 26.9046 73.4443C27.9695 74.6217 29.5617 74.9169 30.4609 74.1036Z" fill="#6D3D67" fill-opacity="0.8"/>
<path d="M44.5723 61.3414C45.4715 60.5281 45.3373 58.9143 44.2725 57.7369C43.2076 56.5595 41.6154 56.2644 40.7161 57.0777C39.8169 57.891 39.9511 59.5048 41.016 60.6821C42.0808 61.8595 43.673 62.1547 44.5723 61.3414Z" fill="#6D3D67" fill-opacity="0.8"/>
<path d="M58.6836 48.5787C59.5828 47.7654 59.4486 46.1516 58.3838 44.9743C57.3189 43.7969 55.7267 43.5017 54.8275 44.315C53.9282 45.1283 54.0624 46.7421 55.1273 47.9194C56.1921 49.0968 57.7843 49.392 58.6836 48.5787Z" fill="#6D3D67" fill-opacity="0.8"/>
<path d="M4.83789 130.867C5.73715 130.054 5.60291 128.44 4.53806 127.263C3.47322 126.085 1.88101 125.79 0.981755 126.604C0.0825033 127.417 0.216742 129.031 1.28158 130.208C2.34643 131.385 3.93864 131.681 4.83789 130.867Z" fill="#6D3D67" fill-opacity="0.8"/>
<path d="M18.9492 118.105C19.8485 117.292 19.7142 115.678 18.6494 114.501C17.5845 113.323 15.9923 113.028 15.0931 113.841C14.1938 114.655 14.3281 116.268 15.3929 117.446C16.4578 118.623 18.05 118.918 18.9492 118.105Z" fill="#6D3D67" fill-opacity="0.8"/>
<path d="M33.0606 105.342C33.9598 104.529 33.8256 102.915 32.7607 101.738C31.6959 100.561 30.1037 100.265 29.2044 101.079C28.3052 101.892 28.4394 103.506 29.5042 104.683C30.5691 105.861 32.1613 106.156 33.0606 105.342Z" fill="#6D3D67" fill-opacity="0.8"/>
<path d="M47.1719 92.5797C48.0711 91.7664 47.9369 90.1526 46.8721 88.9752C45.8072 87.7978 44.215 87.5027 43.3157 88.316C42.4165 89.1293 42.5507 90.743 43.6156 91.9204C44.6804 93.0978 46.2726 93.393 47.1719 92.5797Z" fill="#6D3D67" fill-opacity="0.8"/>
<path d="M61.2832 79.8175C62.1825 79.0042 62.0482 77.3904 60.9834 76.213C59.9185 75.0356 58.3263 74.7405 57.4271 75.5538C56.5278 76.3671 56.6621 77.9808 57.7269 79.1582C58.7917 80.3356 60.384 80.6308 61.2832 79.8175Z" fill="#6D3D67" fill-opacity="0.8"/>
<path d="M75.3945 67.0548C76.2938 66.2415 76.1595 64.6277 75.0947 63.4503C74.0299 62.2729 72.4376 61.9778 71.5384 62.7911C70.6391 63.6044 70.7734 65.2181 71.8382 66.3955C72.9031 67.5729 74.4953 67.8681 75.3945 67.0548Z" fill="#6D3D67" fill-opacity="0.8"/>
<path d="M7.43556 162.106C8.33481 161.293 8.20057 159.679 7.13572 158.502C6.07088 157.324 4.47866 157.029 3.57941 157.842C2.68016 158.656 2.8144 160.269 3.87924 161.447C4.94409 162.624 6.5363 162.919 7.43556 162.106Z" fill="#6D3D67" fill-opacity="0.8"/>
<path d="M21.5469 149.343C22.4461 148.53 22.3119 146.916 21.2471 145.739C20.1822 144.562 18.59 144.266 17.6907 145.08C16.7915 145.893 16.9257 147.507 17.9906 148.684C19.0554 149.861 20.6476 150.157 21.5469 149.343Z" fill="#6D3D67" fill-opacity="0.8"/>
<path d="M35.6582 136.581C36.5575 135.767 36.4232 134.154 35.3584 132.976C34.2935 131.799 32.7013 131.504 31.8021 132.317C30.9028 133.13 31.0371 134.744 32.1019 135.921C33.1667 137.099 34.759 137.394 35.6582 136.581Z" fill="#6D3D67" fill-opacity="0.8"/>
<path d="M49.7695 123.818C50.6688 123.005 50.5346 121.391 49.4697 120.214C48.4049 119.037 46.8127 118.741 45.9134 119.555C45.0141 120.368 45.1484 121.982 46.2132 123.159C47.2781 124.337 48.8703 124.632 49.7695 123.818Z" fill="#6D3D67" fill-opacity="0.8"/>
<path d="M63.8809 111.056C64.7801 110.242 64.6459 108.629 63.581 107.451C62.5162 106.274 60.924 105.979 60.0247 106.792C59.1255 107.605 59.2597 109.219 60.3246 110.396C61.3894 111.574 62.9816 111.869 63.8809 111.056Z" fill="#6D3D67" fill-opacity="0.8"/>
<path d="M77.9922 98.293C78.8915 97.4798 78.7572 95.866 77.6924 94.6886C76.6275 93.5112 75.0353 93.2161 74.1361 94.0293C73.2368 94.8426 73.371 96.4564 74.4359 97.6338C75.5007 98.8112 77.0929 99.1063 77.9922 98.293Z" fill="#6D3D67" fill-opacity="0.8"/>
<path d="M92.1035 85.5308C93.0028 84.7176 92.8685 83.1038 91.8037 81.9264C90.7388 80.749 89.1466 80.4539 88.2474 81.2671C87.3481 82.0804 87.4824 83.6942 88.5472 84.8716C89.6121 86.049 91.2043 86.3441 92.1035 85.5308Z" fill="#6D3D67" fill-opacity="0.8"/>
<path d="M10.0332 193.344C10.9325 192.531 10.7982 190.917 9.73338 189.74C8.66854 188.562 7.07632 188.267 6.17707 189.081C5.27782 189.894 5.41206 191.508 6.4769 192.685C7.54175 193.862 9.13396 194.158 10.0332 193.344Z" fill="#6D3D67" fill-opacity="0.8"/>
<path d="M24.1445 180.582C25.0438 179.769 24.9096 178.155 23.8447 176.978C22.7799 175.8 21.1876 175.505 20.2884 176.318C19.3891 177.132 19.5234 178.745 20.5882 179.923C21.6531 181.1 23.2453 181.395 24.1445 180.582Z" fill="#6D3D67" fill-opacity="0.8"/>
<path d="M38.2578 167.819C39.1571 167.006 39.0228 165.392 37.958 164.215C36.8931 163.038 35.3009 162.742 34.4017 163.556C33.5024 164.369 33.6367 165.983 34.7015 167.16C35.7664 168.338 37.3586 168.633 38.2578 167.819Z" fill="#6D3D67" fill-opacity="0.8"/>
<path d="M52.3692 155.057C53.2684 154.243 53.1342 152.63 52.0693 151.452C51.0045 150.275 49.4123 149.98 48.513 150.793C47.6138 151.606 47.748 153.22 48.8128 154.397C49.8777 155.575 51.4699 155.87 52.3692 155.057Z" fill="#6D3D67" fill-opacity="0.8"/>
<path d="M66.4805 142.295C67.3797 141.481 67.2455 139.867 66.1807 138.69C65.1158 137.513 63.5236 137.218 62.6243 138.031C61.7251 138.844 61.8593 140.458 62.9242 141.635C63.989 142.813 65.5812 143.108 66.4805 142.295Z" fill="#6D3D67" fill-opacity="0.8"/>
<path d="M80.5918 129.532C81.4911 128.719 81.3568 127.105 80.292 125.927C79.2271 124.75 77.6349 124.455 76.7357 125.268C75.8364 126.081 75.9707 127.695 77.0355 128.873C78.1003 130.05 79.6926 130.345 80.5918 129.532Z" fill="#6D3D67" fill-opacity="0.8"/>
<path d="M94.7031 116.769C95.6024 115.956 95.4682 114.342 94.4033 113.165C93.3385 111.987 91.7463 111.692 90.847 112.505C89.9477 113.319 90.082 114.932 91.1468 116.11C92.2117 117.287 93.8039 117.582 94.7031 116.769Z" fill="#6D3D67" fill-opacity="0.8"/>
<path d="M108.814 104.007C109.714 103.194 109.579 101.58 108.515 100.402C107.45 99.2251 105.858 98.9299 104.958 99.7432C104.059 100.557 104.193 102.17 105.258 103.348C106.323 104.525 107.915 104.82 108.814 104.007Z" fill="#6D3D67" fill-opacity="0.8"/>
<path d="M26.7441 211.82C27.6434 211.007 27.5092 209.393 26.4443 208.216C25.3795 207.039 23.7873 206.743 22.888 207.557C21.9888 208.37 22.123 209.984 23.1878 211.161C24.2527 212.339 25.8449 212.634 26.7441 211.82Z" fill="#6D3D67" fill-opacity="0.8"/>
<path d="M40.8555 199.058C41.7547 198.245 41.6205 196.631 40.5556 195.454C39.4908 194.276 37.8986 193.981 36.9993 194.794C36.1001 195.608 36.2343 197.222 37.2992 198.399C38.364 199.576 39.9562 199.871 40.8555 199.058Z" fill="#6D3D67" fill-opacity="0.8"/>
<path d="M54.9668 186.295C55.8661 185.482 55.7318 183.868 54.667 182.691C53.6021 181.514 52.0099 181.218 51.1107 182.032C50.2114 182.845 50.3456 184.459 51.4105 185.636C52.4753 186.814 54.0676 187.109 54.9668 186.295Z" fill="#6D3D67" fill-opacity="0.8"/>
<path d="M69.0781 173.533C69.9774 172.72 69.8431 171.106 68.7783 169.928C67.7135 168.751 66.1212 168.456 65.222 169.269C64.3227 170.082 64.457 171.696 65.5218 172.874C66.5867 174.051 68.1789 174.346 69.0781 173.533Z" fill="#6D3D67" fill-opacity="0.8"/>
<path d="M83.1895 160.771C84.0887 159.957 83.9545 158.344 82.8896 157.166C81.8248 155.989 80.2326 155.694 79.3333 156.507C78.4341 157.32 78.5683 158.934 79.6332 160.111C80.698 161.289 82.2902 161.584 83.1895 160.771Z" fill="#6D3D67" fill-opacity="0.8"/>
<path d="M97.3008 148.008C98.2 147.195 98.0658 145.581 97.001 144.403C95.9361 143.226 94.3439 142.931 93.4446 143.744C92.5454 144.557 92.6796 146.171 93.7445 147.349C94.8093 148.526 96.4015 148.821 97.3008 148.008Z" fill="#6D3D67" fill-opacity="0.8"/>
<path d="M111.412 135.245C112.311 134.432 112.177 132.818 111.112 131.641C110.047 130.463 108.455 130.168 107.556 130.981C106.657 131.795 106.791 133.409 107.856 134.586C108.921 135.763 110.513 136.058 111.412 135.245Z" fill="#6D3D67" fill-opacity="0.8"/>
<path d="M125.523 122.483C126.423 121.67 126.288 120.056 125.224 118.879C124.159 117.701 122.567 117.406 121.667 118.219C120.768 119.033 120.902 120.646 121.967 121.824C123.032 123.001 124.624 123.296 125.523 122.483Z" fill="#6D3D67" fill-opacity="0.8"/>
<path d="M43.4531 230.296C44.3524 229.483 44.2181 227.869 43.1533 226.692C42.0885 225.515 40.4962 225.219 39.597 226.033C38.6977 226.846 38.832 228.46 39.8968 229.637C40.9617 230.815 42.5539 231.11 43.4531 230.296Z" fill="#6D3D67" fill-opacity="0.8"/>
<path d="M57.5645 217.534C58.4637 216.72 58.3295 215.107 57.2646 213.929C56.1998 212.752 54.6076 212.457 53.7083 213.27C52.8091 214.083 52.9433 215.697 54.0081 216.875C55.073 218.052 56.6652 218.347 57.5645 217.534Z" fill="#6D3D67" fill-opacity="0.8"/>
<path d="M71.6758 204.772C72.575 203.958 72.4408 202.344 71.376 201.167C70.3111 199.99 68.7189 199.695 67.8196 200.508C66.9204 201.321 67.0546 202.935 68.1195 204.112C69.1843 205.29 70.7765 205.585 71.6758 204.772Z" fill="#6D3D67" fill-opacity="0.8"/>
<path d="M85.7891 192.009C86.6883 191.196 86.5541 189.582 85.4892 188.404C84.4244 187.227 82.8322 186.932 81.9329 187.745C81.0337 188.558 81.1679 190.172 82.2328 191.35C83.2976 192.527 84.8898 192.822 85.7891 192.009Z" fill="#6D3D67" fill-opacity="0.8"/>
<path d="M99.9004 179.246C100.8 178.433 100.665 176.819 99.6006 175.642C98.5357 174.464 96.9435 174.169 96.0443 174.982C95.145 175.796 95.2792 177.41 96.3441 178.587C97.4089 179.764 99.0011 180.059 99.9004 179.246Z" fill="#6D3D67" fill-opacity="0.8"/>
<path d="M114.012 166.484C114.911 165.671 114.777 164.057 113.712 162.88C112.647 161.702 111.055 161.407 110.156 162.22C109.256 163.034 109.391 164.647 110.455 165.825C111.52 167.002 113.112 167.297 114.012 166.484Z" fill="#6D3D67" fill-opacity="0.8"/>
<path d="M128.123 153.721C129.022 152.908 128.888 151.294 127.823 150.117C126.758 148.939 125.166 148.644 124.267 149.458C123.368 150.271 123.502 151.885 124.567 153.062C125.632 154.239 127.224 154.535 128.123 153.721Z" fill="#6D3D67" fill-opacity="0.8"/>
<path d="M142.234 140.959C143.134 140.145 142.999 138.532 141.935 137.354C140.87 136.177 139.277 135.882 138.378 136.695C137.479 137.508 137.613 139.122 138.678 140.299C139.743 141.477 141.335 141.772 142.234 140.959Z" fill="#6D3D67" fill-opacity="0.8"/>
</g>
<defs>
<clipPath id="clip0_70_3553">
<rect width="146.359" height="191.627" fill="white" transform="translate(-79 98.1733) rotate(-42.1266)"/>
</clipPath>
</defs>
</svg>
