<svg width="239" height="294" viewBox="0 0 239 294" fill="none" xmlns="http://www.w3.org/2000/svg">
<g clip-path="url(#clip0_70_3163)">
<path d="M137.13 6.95049C138.376 7.9671 140.319 7.64737 141.471 6.23635C142.623 4.82533 142.547 2.85735 141.302 1.84074C140.056 0.824126 138.113 1.14386 136.961 2.55488C135.809 3.96589 135.885 5.93388 137.13 6.95049Z" fill="#E5CBB2"/>
<path d="M156.671 22.9036C157.917 23.9202 159.86 23.6005 161.012 22.1895C162.164 20.7785 162.088 18.8105 160.843 17.7939C159.597 16.7773 157.654 17.097 156.502 18.508C155.35 19.919 155.426 21.887 156.671 22.9036Z" fill="#E5CBB2"/>
<path d="M176.214 38.8565C177.46 39.8731 179.403 39.5534 180.555 38.1424C181.707 36.7313 181.631 34.7634 180.386 33.7467C179.14 32.7301 177.197 33.0499 176.045 34.4609C174.893 35.8719 174.969 37.8399 176.214 38.8565Z" fill="#E5CBB2"/>
<path d="M195.755 54.8096C197.001 55.8262 198.944 55.5065 200.096 54.0955C201.248 52.6845 201.172 50.7165 199.927 49.6999C198.681 48.6833 196.738 49.003 195.586 50.414C194.434 51.825 194.51 53.793 195.755 54.8096Z" fill="#E5CBB2"/>
<path d="M215.296 70.7627C216.542 71.7794 218.485 71.4596 219.637 70.0486C220.789 68.6376 220.713 66.6696 219.468 65.653C218.222 64.6364 216.279 64.9561 215.127 66.3671C213.975 67.7781 214.051 69.7461 215.296 70.7627Z" fill="#E5CBB2"/>
<path d="M234.837 86.7156C236.083 87.7322 238.026 87.4125 239.178 86.0015C240.33 84.5905 240.254 82.6225 239.009 81.6059C237.763 80.5893 235.82 80.909 234.668 82.32C233.516 83.731 233.592 85.699 234.837 86.7156Z" fill="#E5CBB2"/>
<path d="M119.054 29.0928C120.299 30.1094 122.243 29.7897 123.395 28.3787C124.546 26.9677 124.471 24.9997 123.225 23.9831C121.98 22.9665 120.037 23.2862 118.885 24.6972C117.733 26.1082 117.809 28.0762 119.054 29.0928Z" fill="#E5CBB2"/>
<path d="M138.595 45.0457C139.84 46.0623 141.784 45.7426 142.936 44.3316C144.087 42.9205 144.012 40.9526 142.767 39.936C141.521 38.9193 139.578 39.2391 138.426 40.6501C137.274 42.0611 137.35 44.0291 138.595 45.0457Z" fill="#E5CBB2"/>
<path d="M158.138 60.9988C159.383 62.0154 161.327 61.6957 162.479 60.2847C163.63 58.8737 163.555 56.9057 162.309 55.8891C161.064 54.8725 159.121 55.1922 157.969 56.6032C156.817 58.0142 156.893 59.9822 158.138 60.9988Z" fill="#E5CBB2"/>
<path d="M177.679 76.952C178.924 77.9686 180.868 77.6488 182.02 76.2378C183.171 74.8268 183.096 72.8588 181.85 71.8422C180.605 70.8256 178.662 71.1453 177.51 72.5563C176.358 73.9674 176.434 75.9353 177.679 76.952Z" fill="#E5CBB2"/>
<path d="M197.22 92.9048C198.465 93.9214 200.409 93.6017 201.561 92.1907C202.712 90.7797 202.637 88.8117 201.392 87.7951C200.146 86.7785 198.203 87.0982 197.051 88.5092C195.899 89.9202 195.975 91.8882 197.22 92.9048Z" fill="#E5CBB2"/>
<path d="M216.761 108.858C218.006 109.875 219.95 109.555 221.102 108.144C222.254 106.733 222.178 104.765 220.933 103.748C219.687 102.732 217.744 103.051 216.592 104.462C215.44 105.873 215.516 107.841 216.761 108.858Z" fill="#E5CBB2"/>
<path d="M236.304 124.811C237.549 125.828 239.493 125.508 240.645 124.097C241.796 122.686 241.721 120.718 240.475 119.701C239.23 118.685 237.287 119.004 236.135 120.415C234.983 121.826 235.059 123.794 236.304 124.811Z" fill="#E5CBB2"/>
<path d="M100.978 51.2349C102.223 52.2515 104.166 51.9318 105.318 50.5208C106.47 49.1098 106.395 47.1418 105.149 46.1252C103.904 45.1085 101.961 45.4283 100.809 46.8393C99.6569 48.2503 99.7326 50.2183 100.978 51.2349Z" fill="#E5CBB2"/>
<path d="M120.519 67.188C121.764 68.2046 123.708 67.8849 124.859 66.4739C126.011 65.0629 125.936 63.0949 124.69 62.0783C123.445 61.0617 121.502 61.3814 120.35 62.7924C119.198 64.2034 119.274 66.1714 120.519 67.188Z" fill="#E5CBB2"/>
<path d="M140.06 83.1412C141.305 84.1578 143.249 83.838 144.4 82.427C145.552 81.016 145.477 79.048 144.231 78.0314C142.986 77.0148 141.043 77.3345 139.891 78.7455C138.739 80.1566 138.815 82.1246 140.06 83.1412Z" fill="#E5CBB2"/>
<path d="M159.603 99.094C160.848 100.111 162.791 99.7909 163.943 98.3799C165.095 96.9689 165.02 95.0009 163.774 93.9843C162.529 92.9677 160.586 93.2874 159.434 94.6984C158.282 96.1094 158.358 98.0774 159.603 99.094Z" fill="#E5CBB2"/>
<path d="M179.144 115.047C180.389 116.064 182.333 115.744 183.484 114.333C184.636 112.922 184.561 110.954 183.315 109.937C182.07 108.921 180.127 109.241 178.975 110.652C177.823 112.063 177.899 114.031 179.144 115.047Z" fill="#E5CBB2"/>
<path d="M198.685 131C199.93 132.017 201.874 131.697 203.025 130.286C204.177 128.875 204.102 126.907 202.856 125.891C201.611 124.874 199.668 125.194 198.516 126.605C197.364 128.016 197.44 129.984 198.685 131Z" fill="#E5CBB2"/>
<path d="M218.228 146.953C219.473 147.97 221.416 147.65 222.568 146.239C223.72 144.828 223.645 142.86 222.399 141.843C221.154 140.827 219.211 141.147 218.059 142.558C216.907 143.969 216.983 145.937 218.228 146.953Z" fill="#E5CBB2"/>
<path d="M237.769 162.906C239.014 163.923 240.958 163.603 242.109 162.192C243.261 160.781 243.186 158.813 241.94 157.797C240.695 156.78 238.752 157.1 237.6 158.511C236.448 159.922 236.524 161.89 237.769 162.906Z" fill="#E5CBB2"/>
<path d="M82.9017 73.3772C84.147 74.3939 86.0903 74.0741 87.2422 72.6631C88.3941 71.2521 88.3184 69.2841 87.0731 68.2675C85.8279 67.2509 83.8846 67.5706 82.7326 68.9816C81.5807 70.3927 81.6564 72.3606 82.9017 73.3772Z" fill="#E5CBB2"/>
<path d="M102.443 89.3304C103.688 90.347 105.631 90.0273 106.783 88.6162C107.935 87.2052 107.859 85.2372 106.614 84.2206C105.369 83.204 103.426 83.5237 102.274 84.9348C101.122 86.3458 101.197 88.3138 102.443 89.3304Z" fill="#E5CBB2"/>
<path d="M121.984 105.283C123.229 106.3 125.172 105.98 126.324 104.569C127.476 103.158 127.4 101.19 126.155 100.173C124.91 99.1569 122.967 99.4766 121.815 100.888C120.663 102.299 120.738 104.267 121.984 105.283Z" fill="#E5CBB2"/>
<path d="M141.527 121.236C142.772 122.253 144.715 121.933 145.867 120.522C147.019 119.111 146.943 117.143 145.698 116.127C144.453 115.11 142.51 115.43 141.358 116.841C140.206 118.252 140.281 120.22 141.527 121.236Z" fill="#E5CBB2"/>
<path d="M161.068 137.19C162.313 138.206 164.256 137.886 165.408 136.475C166.56 135.064 166.484 133.096 165.239 132.08C163.994 131.063 162.051 131.383 160.899 132.794C159.747 134.205 159.822 136.173 161.068 137.19Z" fill="#E5CBB2"/>
<path d="M180.609 153.142C181.854 154.159 183.797 153.839 184.949 152.428C186.101 151.017 186.025 149.049 184.78 148.033C183.535 147.016 181.592 147.336 180.44 148.747C179.288 150.158 179.363 152.126 180.609 153.142Z" fill="#E5CBB2"/>
<path d="M200.152 169.096C201.397 170.112 203.34 169.792 204.492 168.381C205.644 166.97 205.568 165.002 204.323 163.986C203.078 162.969 201.135 163.289 199.983 164.7C198.831 166.111 198.906 168.079 200.152 169.096Z" fill="#E5CBB2"/>
<path d="M219.693 185.049C220.938 186.065 222.881 185.746 224.033 184.334C225.185 182.923 225.109 180.955 223.864 179.939C222.619 178.922 220.676 179.242 219.524 180.653C218.372 182.064 218.447 184.032 219.693 185.049Z" fill="#E5CBB2"/>
<path d="M64.8255 95.5196C66.0708 96.5362 68.0141 96.2165 69.1661 94.8054C70.318 93.3944 70.2423 91.4264 68.997 90.4098C67.7517 89.3932 65.8084 89.7129 64.6565 91.124C63.5046 92.535 63.5803 94.503 64.8255 95.5196Z" fill="#E5CBB2"/>
<path d="M84.3666 111.472C85.6118 112.489 87.5552 112.169 88.7071 110.758C89.859 109.347 89.7833 107.379 88.538 106.363C87.2927 105.346 85.3494 105.666 84.1975 107.077C83.0456 108.488 83.1213 110.456 84.3666 111.472Z" fill="#E5CBB2"/>
<path d="M103.908 127.426C105.153 128.442 107.096 128.122 108.248 126.711C109.4 125.3 109.324 123.332 108.079 122.316C106.834 121.299 104.89 121.619 103.739 123.03C102.587 124.441 102.662 126.409 103.908 127.426Z" fill="#E5CBB2"/>
<path d="M123.451 143.379C124.696 144.395 126.639 144.076 127.791 142.665C128.943 141.254 128.867 139.286 127.622 138.269C126.377 137.252 124.433 137.572 123.281 138.983C122.13 140.394 122.205 142.362 123.451 143.379Z" fill="#E5CBB2"/>
<path d="M142.992 159.332C144.237 160.348 146.18 160.028 147.332 158.617C148.484 157.206 148.408 155.238 147.163 154.222C145.918 153.205 143.974 153.525 142.822 154.936C141.671 156.347 141.746 158.315 142.992 159.332Z" fill="#E5CBB2"/>
<path d="M162.533 175.285C163.778 176.301 165.721 175.982 166.873 174.571C168.025 173.16 167.949 171.192 166.704 170.175C165.459 169.158 163.515 169.478 162.364 170.889C161.212 172.3 161.287 174.268 162.533 175.285Z" fill="#E5CBB2"/>
<path d="M182.074 191.238C183.319 192.254 185.262 191.935 186.414 190.524C187.566 189.113 187.49 187.145 186.245 186.128C185 185.111 183.056 185.431 181.905 186.842C180.753 188.253 180.828 190.221 182.074 191.238Z" fill="#E5CBB2"/>
<path d="M201.617 207.191C202.862 208.207 204.805 207.888 205.957 206.477C207.109 205.066 207.033 203.098 205.788 202.081C204.543 201.064 202.599 201.384 201.447 202.795C200.296 204.206 200.371 206.174 201.617 207.191Z" fill="#E5CBB2"/>
<path d="M46.7494 117.662C47.9946 118.678 49.938 118.359 51.0899 116.948C52.2418 115.537 52.1661 113.569 50.9208 112.552C49.6755 111.535 47.7322 111.855 46.5803 113.266C45.4284 114.677 45.5041 116.645 46.7494 117.662Z" fill="#E5CBB2"/>
<path d="M66.2904 133.615C67.5357 134.631 69.479 134.312 70.6309 132.901C71.7828 131.49 71.7071 129.522 70.4618 128.505C69.2165 127.488 67.2732 127.808 66.1213 129.219C64.9694 130.63 65.0451 132.598 66.2904 133.615Z" fill="#E5CBB2"/>
<path d="M85.8314 149.568C87.0767 150.585 89.02 150.265 90.1719 148.854C91.3238 147.443 91.2481 145.475 90.0028 144.458C88.7576 143.442 86.8142 143.761 85.6623 145.172C84.5104 146.583 84.5861 148.551 85.8314 149.568Z" fill="#E5CBB2"/>
<path d="M105.374 165.521C106.62 166.537 108.563 166.218 109.715 164.807C110.867 163.396 110.791 161.428 109.546 160.411C108.301 159.394 106.357 159.714 105.205 161.125C104.053 162.536 104.129 164.504 105.374 165.521Z" fill="#E5CBB2"/>
<path d="M124.915 181.474C126.161 182.491 128.104 182.171 129.256 180.76C130.408 179.349 130.332 177.381 129.087 176.364C127.842 175.348 125.898 175.667 124.746 177.078C123.594 178.489 123.67 180.457 124.915 181.474Z" fill="#E5CBB2"/>
<path d="M144.456 197.427C145.702 198.444 147.645 198.124 148.797 196.713C149.949 195.302 149.873 193.334 148.628 192.317C147.383 191.301 145.439 191.62 144.287 193.031C143.135 194.442 143.211 196.41 144.456 197.427Z" fill="#E5CBB2"/>
<path d="M163.997 213.38C165.243 214.397 167.186 214.077 168.338 212.666C169.49 211.255 169.414 209.287 168.169 208.27C166.924 207.254 164.98 207.573 163.828 208.984C162.676 210.395 162.752 212.363 163.997 213.38Z" fill="#E5CBB2"/>
<path d="M183.54 229.333C184.786 230.35 186.729 230.03 187.881 228.619C189.033 227.208 188.957 225.24 187.712 224.223C186.467 223.207 184.523 223.526 183.371 224.937C182.219 226.348 182.295 228.316 183.54 229.333Z" fill="#E5CBB2"/>
<path d="M28.6732 139.804C29.9185 140.821 31.8618 140.501 33.0137 139.09C34.1656 137.679 34.0899 135.711 32.8446 134.694C31.5993 133.678 29.656 133.997 28.5041 135.408C27.3522 136.819 27.4279 138.787 28.6732 139.804Z" fill="#E5CBB2"/>
<path d="M48.2142 155.757C49.4595 156.774 51.4028 156.454 52.5547 155.043C53.7066 153.632 53.6309 151.664 52.3856 150.647C51.1404 149.631 49.1971 149.95 48.0451 151.362C46.8932 152.773 46.9689 154.741 48.2142 155.757Z" fill="#E5CBB2"/>
<path d="M67.7552 171.71C69.0005 172.727 70.9438 172.407 72.0957 170.996C73.2476 169.585 73.172 167.617 71.9267 166.6C70.6814 165.584 68.7381 165.903 67.5862 167.314C66.4342 168.725 66.5099 170.693 67.7552 171.71Z" fill="#E5CBB2"/>
<path d="M87.2982 187.663C88.5435 188.68 90.4868 188.36 91.6387 186.949C92.7906 185.538 92.7149 183.57 91.4696 182.553C90.2243 181.537 88.281 181.857 87.1291 183.268C85.9772 184.679 86.0529 186.647 87.2982 187.663Z" fill="#E5CBB2"/>
<path d="M106.839 203.616C108.085 204.633 110.028 204.313 111.18 202.902C112.332 201.491 112.256 199.523 111.011 198.507C109.765 197.49 107.822 197.81 106.67 199.221C105.518 200.632 105.594 202.6 106.839 203.616Z" fill="#E5CBB2"/>
<path d="M126.38 219.569C127.626 220.586 129.569 220.266 130.721 218.855C131.873 217.444 131.797 215.476 130.552 214.459C129.306 213.443 127.363 213.763 126.211 215.174C125.059 216.585 125.135 218.553 126.38 219.569Z" fill="#E5CBB2"/>
<path d="M145.921 235.522C147.167 236.539 149.11 236.219 150.262 234.808C151.414 233.397 151.338 231.429 150.093 230.413C148.847 229.396 146.904 229.716 145.752 231.127C144.6 232.538 144.676 234.506 145.921 235.522Z" fill="#E5CBB2"/>
<path d="M165.464 251.475C166.709 252.492 168.653 252.172 169.805 250.761C170.957 249.35 170.881 247.382 169.636 246.366C168.39 245.349 166.447 245.669 165.295 247.08C164.143 248.491 164.219 250.459 165.464 251.475Z" fill="#E5CBB2"/>
<path d="M10.597 161.946C11.8423 162.963 13.7856 162.643 14.9375 161.232C16.0894 159.821 16.0137 157.853 14.7685 156.837C13.5232 155.82 11.5799 156.14 10.428 157.551C9.27605 158.962 9.35175 160.93 10.597 161.946Z" fill="#E5CBB2"/>
<path d="M30.138 177.899C31.3833 178.916 33.3266 178.596 34.4786 177.185C35.6305 175.774 35.5548 173.806 34.3095 172.789C33.0642 171.773 31.1209 172.093 29.969 173.504C28.8171 174.915 28.8928 176.883 30.138 177.899Z" fill="#E5CBB2"/>
<path d="M49.6791 193.852C50.9244 194.869 52.8677 194.549 54.0196 193.138C55.1715 191.727 55.0958 189.759 53.8505 188.743C52.6052 187.726 50.6619 188.046 49.51 189.457C48.3581 190.868 48.4338 192.836 49.6791 193.852Z" fill="#E5CBB2"/>
<path d="M69.222 209.805C70.4673 210.822 72.4106 210.502 73.5625 209.091C74.7144 207.68 74.6387 205.712 73.3935 204.696C72.1482 203.679 70.2049 203.999 69.053 205.41C67.901 206.821 67.9767 208.789 69.222 209.805Z" fill="#E5CBB2"/>
<path d="M88.7631 225.758C90.0083 226.775 91.9517 226.455 93.1036 225.044C94.2555 223.633 94.1798 221.665 92.9345 220.649C91.6892 219.632 89.7459 219.952 88.594 221.363C87.4421 222.774 87.5178 224.742 88.7631 225.758Z" fill="#E5CBB2"/>
<path d="M108.304 241.711C109.549 242.728 111.493 242.408 112.645 240.997C113.796 239.586 113.721 237.618 112.475 236.602C111.23 235.585 109.287 235.905 108.135 237.316C106.983 238.727 107.059 240.695 108.304 241.711Z" fill="#E5CBB2"/>
<path d="M127.845 257.665C129.09 258.681 131.034 258.361 132.186 256.95C133.338 255.539 133.262 253.571 132.017 252.555C130.771 251.538 128.828 251.858 127.676 253.269C126.524 254.68 126.6 256.648 127.845 257.665Z" fill="#E5CBB2"/>
<path d="M147.388 273.617C148.633 274.634 150.577 274.314 151.729 272.903C152.88 271.492 152.805 269.524 151.559 268.508C150.314 267.491 148.371 267.811 147.219 269.222C146.067 270.633 146.143 272.601 147.388 273.617Z" fill="#E5CBB2"/>
</g>
<defs>
<clipPath id="clip0_70_3163">
<rect width="194.049" height="219.875" fill="white" transform="translate(139.047) rotate(39.2271)"/>
</clipPath>
</defs>
</svg>
