<svg width="258" height="266" viewBox="0 0 258 266" fill="none" xmlns="http://www.w3.org/2000/svg">
<g clip-path="url(#clip0_70_3487)">
<path d="M5.41083 96.7838C6.68768 96.0184 7.02905 94.2406 6.17332 92.8131C5.31758 91.3855 3.58878 90.8487 2.31194 91.6141C1.03509 92.3795 0.693711 94.1573 1.54945 95.5848C2.40518 97.0124 4.13398 97.5492 5.41083 96.7838Z" fill="#9E848D"/>
<path d="M25.4479 84.773C26.7248 84.0076 27.0662 82.2299 26.2104 80.8023C25.3547 79.3748 23.6259 78.838 22.349 79.6034C21.0722 80.3688 20.7308 82.1465 21.5866 83.5741C22.4423 85.0016 24.1711 85.5384 25.4479 84.773Z" fill="#9E848D"/>
<path d="M45.485 72.7618C46.7619 71.9964 47.1033 70.2187 46.2475 68.7911C45.3918 67.3635 43.663 66.8268 42.3862 67.5922C41.1093 68.3576 40.7679 70.1353 41.6237 71.5628C42.4794 72.9904 44.2082 73.5272 45.485 72.7618Z" fill="#9E848D"/>
<path d="M65.5202 60.751C66.7971 59.9856 67.1384 58.2079 66.2827 56.7804C65.427 55.3528 63.6982 54.816 62.4213 55.5814C61.1445 56.3468 60.8031 58.1245 61.6588 59.5521C62.5146 60.9797 64.2434 61.5164 65.5202 60.751Z" fill="#9E848D"/>
<path d="M85.5573 48.7403C86.8342 47.9749 87.1755 46.1972 86.3198 44.7696C85.4641 43.3421 83.7353 42.8053 82.4584 43.5707C81.1816 44.3361 80.8402 46.1138 81.6959 47.5414C82.5517 48.9689 84.2805 49.5057 85.5573 48.7403Z" fill="#9E848D"/>
<path d="M105.594 36.7296C106.871 35.9642 107.213 34.1864 106.357 32.7589C105.501 31.3313 103.772 30.7945 102.496 31.5599C101.219 32.3253 100.877 34.1031 101.733 35.5306C102.589 36.9582 104.318 37.495 105.594 36.7296Z" fill="#9E848D"/>
<path d="M125.632 24.7183C126.908 23.9529 127.25 22.1752 126.394 20.7476C125.538 19.3201 123.809 18.7833 122.533 19.5487C121.256 20.3141 120.914 22.0918 121.77 23.5194C122.626 24.9469 124.355 25.4837 125.632 24.7183Z" fill="#9E848D"/>
<path d="M145.669 12.7076C146.945 11.9422 147.287 10.1645 146.431 8.73691C145.575 7.30935 143.847 6.77257 142.57 7.53796C141.293 8.30335 140.952 10.0811 141.807 11.5086C142.663 12.9362 144.392 13.473 145.669 12.7076Z" fill="#9E848D"/>
<path d="M18.8386 119.186C20.1154 118.42 20.4568 116.642 19.6011 115.215C18.7453 113.787 17.0165 113.251 15.7397 114.016C14.4628 114.781 14.1214 116.559 14.9772 117.987C15.8329 119.414 17.5617 119.951 18.8386 119.186Z" fill="#9E848D"/>
<path d="M38.8757 107.174C40.1525 106.409 40.4939 104.631 39.6382 103.204C38.7824 101.776 37.0536 101.239 35.7768 102.005C34.4999 102.77 34.1586 104.548 35.0143 105.975C35.87 107.403 37.5988 107.94 38.8757 107.174Z" fill="#9E848D"/>
<path d="M58.9128 95.1636C60.1896 94.3982 60.531 92.6205 59.6753 91.193C58.8195 89.7654 57.0907 89.2286 55.8139 89.994C54.537 90.7594 54.1957 92.5371 55.0514 93.9647C55.9071 95.3923 57.6359 95.929 58.9128 95.1636Z" fill="#9E848D"/>
<path d="M78.9499 83.1529C80.2267 82.3875 80.5681 80.6098 79.7124 79.1822C78.8566 77.7547 77.1278 77.2179 75.851 77.9833C74.5742 78.7487 74.2328 80.5264 75.0885 81.954C75.9442 83.3815 77.673 83.9183 78.9499 83.1529Z" fill="#9E848D"/>
<path d="M98.987 71.1422C100.264 70.3768 100.605 68.599 99.7495 67.1715C98.8938 65.7439 97.165 65.2071 95.8881 65.9725C94.6113 66.7379 94.2699 68.5157 95.1256 69.9432C95.9814 71.3708 97.7102 71.9076 98.987 71.1422Z" fill="#9E848D"/>
<path d="M119.024 59.1309C120.301 58.3655 120.642 56.5878 119.787 55.1602C118.931 53.7327 117.202 53.1959 115.925 53.9613C114.648 54.7267 114.307 56.5044 115.163 57.932C116.018 59.3595 117.747 59.8963 119.024 59.1309Z" fill="#9E848D"/>
<path d="M139.059 47.1202C140.336 46.3548 140.678 44.577 139.822 43.1495C138.966 41.7219 137.237 41.1852 135.96 41.9505C134.684 42.7159 134.342 44.4937 135.198 45.9212C136.054 47.3488 137.782 47.8856 139.059 47.1202Z" fill="#9E848D"/>
<path d="M159.096 35.1094C160.373 34.3441 160.715 32.5663 159.859 31.1388C159.003 29.7112 157.274 29.1744 155.997 29.9398C154.721 30.7052 154.379 32.4829 155.235 33.9105C156.091 35.3381 157.82 35.8748 159.096 35.1094Z" fill="#9E848D"/>
<path d="M32.2683 141.587C33.5451 140.822 33.8865 139.044 33.0307 137.617C32.175 136.189 30.4462 135.652 29.1694 136.418C27.8925 137.183 27.5511 138.961 28.4069 140.388C29.2626 141.816 30.9914 142.353 32.2683 141.587Z" fill="#9E848D"/>
<path d="M52.3054 129.576C53.5822 128.811 53.9236 127.033 53.0679 125.606C52.2121 124.178 50.4833 123.641 49.2065 124.407C47.9296 125.172 47.5882 126.95 48.444 128.377C49.2997 129.805 51.0285 130.342 52.3054 129.576Z" fill="#9E848D"/>
<path d="M72.3405 117.565C73.6174 116.8 73.9587 115.022 73.103 113.595C72.2473 112.167 70.5185 111.63 69.2416 112.396C67.9648 113.161 67.6234 114.939 68.4791 116.367C69.3349 117.794 71.0637 118.331 72.3405 117.565Z" fill="#9E848D"/>
<path d="M92.3776 105.555C93.6545 104.789 93.9959 103.012 93.1401 101.584C92.2844 100.157 90.5556 99.6197 89.2787 100.385C88.0019 101.151 87.6605 102.928 88.5162 104.356C89.372 105.783 91.1008 106.32 92.3776 105.555Z" fill="#9E848D"/>
<path d="M112.415 93.5435C113.692 92.7781 114.033 91.0004 113.177 89.5728C112.321 88.1453 110.593 87.6085 109.316 88.3739C108.039 89.1393 107.698 90.917 108.553 92.3446C109.409 93.7721 111.138 94.3089 112.415 93.5435Z" fill="#9E848D"/>
<path d="M132.452 81.5328C133.729 80.7674 134.07 78.9896 133.214 77.5621C132.359 76.1345 130.63 75.5978 129.353 76.3631C128.076 77.1285 127.735 78.9063 128.59 80.3338C129.446 81.7614 131.175 82.2982 132.452 81.5328Z" fill="#9E848D"/>
<path d="M152.489 69.522C153.766 68.7566 154.107 66.9789 153.251 65.5513C152.396 64.1238 150.667 63.587 149.39 64.3524C148.113 65.1178 147.772 66.8955 148.628 68.3231C149.483 69.7507 151.212 70.2874 152.489 69.522Z" fill="#9E848D"/>
<path d="M172.526 57.5108C173.803 56.7454 174.144 54.9677 173.289 53.5401C172.433 52.1126 170.704 51.5758 169.427 52.3412C168.15 53.1066 167.809 54.8843 168.665 56.3119C169.52 57.7394 171.249 58.2762 172.526 57.5108Z" fill="#9E848D"/>
<path d="M45.696 163.989C46.9728 163.223 47.3142 161.446 46.4585 160.018C45.6027 158.591 43.8739 158.054 42.5971 158.819C41.3202 159.585 40.9789 161.362 41.8346 162.79C42.6903 164.217 44.4191 164.754 45.696 163.989Z" fill="#9E848D"/>
<path d="M65.7331 151.978C67.0099 151.213 67.3513 149.435 66.4956 148.007C65.6398 146.58 63.911 146.043 62.6342 146.808C61.3574 147.574 61.016 149.352 61.8717 150.779C62.7274 152.207 64.4562 152.743 65.7331 151.978Z" fill="#9E848D"/>
<path d="M85.7702 139.967C87.0471 139.202 87.3884 137.424 86.5327 135.996C85.677 134.569 83.9482 134.032 82.6713 134.797C81.3945 135.563 81.0531 137.341 81.9088 138.768C82.7646 140.196 84.4934 140.733 85.7702 139.967Z" fill="#9E848D"/>
<path d="M105.807 127.956C107.084 127.191 107.426 125.413 106.57 123.985C105.714 122.558 103.985 122.021 102.708 122.786C101.432 123.552 101.09 125.33 101.946 126.757C102.802 128.185 104.53 128.722 105.807 127.956Z" fill="#9E848D"/>
<path d="M125.844 115.945C127.121 115.18 127.463 113.402 126.607 111.975C125.751 110.547 124.022 110.01 122.746 110.776C121.469 111.541 121.127 113.319 121.983 114.746C122.839 116.174 124.568 116.711 125.844 115.945Z" fill="#9E848D"/>
<path d="M145.88 103.935C147.156 103.169 147.498 101.392 146.642 99.9639C145.786 98.5364 144.058 97.9996 142.781 98.765C141.504 99.5304 141.162 101.308 142.018 102.736C142.874 104.163 144.603 104.7 145.88 103.935Z" fill="#9E848D"/>
<path d="M165.917 91.9234C167.194 91.158 167.535 89.3803 166.679 87.9527C165.823 86.5252 164.095 85.9884 162.818 86.7538C161.541 87.5192 161.2 89.2969 162.055 90.7245C162.911 92.152 164.64 92.6888 165.917 91.9234Z" fill="#9E848D"/>
<path d="M185.954 79.9127C187.231 79.1473 187.572 77.3695 186.716 75.942C185.861 74.5144 184.132 73.9776 182.855 74.743C181.578 75.5084 181.237 77.2862 182.092 78.7137C182.948 80.1413 184.677 80.6781 185.954 79.9127Z" fill="#9E848D"/>
<path d="M59.1257 186.391C60.4025 185.625 60.7439 183.848 59.8882 182.42C59.0324 180.992 57.3036 180.456 56.0268 181.221C54.7499 181.986 54.4086 183.764 55.2643 185.192C56.12 186.619 57.8488 187.156 59.1257 186.391Z" fill="#9E848D"/>
<path d="M79.1608 174.38C80.4377 173.614 80.7791 171.837 79.9233 170.409C79.0676 168.981 77.3388 168.445 76.0619 169.21C74.7851 169.975 74.4437 171.753 75.2994 173.181C76.1552 174.608 77.884 175.145 79.1608 174.38Z" fill="#9E848D"/>
<path d="M99.1979 162.369C100.475 161.604 100.816 159.826 99.9604 158.398C99.1047 156.971 97.3759 156.434 96.099 157.199C94.8222 157.965 94.4808 159.742 95.3366 161.17C96.1923 162.598 97.9211 163.134 99.1979 162.369Z" fill="#9E848D"/>
<path d="M119.235 150.358C120.512 149.593 120.853 147.815 119.998 146.387C119.142 144.96 117.413 144.423 116.136 145.188C114.859 145.954 114.518 147.731 115.374 149.159C116.229 150.587 117.958 151.123 119.235 150.358Z" fill="#9E848D"/>
<path d="M139.272 138.347C140.549 137.582 140.89 135.804 140.035 134.377C139.179 132.949 137.45 132.412 136.173 133.178C134.896 133.943 134.555 135.721 135.411 137.148C136.267 138.576 137.995 139.113 139.272 138.347Z" fill="#9E848D"/>
<path d="M159.309 126.336C160.586 125.571 160.928 123.793 160.072 122.366C159.216 120.938 157.487 120.401 156.21 121.167C154.934 121.932 154.592 123.71 155.448 125.138C156.304 126.565 158.032 127.102 159.309 126.336Z" fill="#9E848D"/>
<path d="M179.346 114.325C180.623 113.56 180.965 111.782 180.109 110.355C179.253 108.927 177.524 108.39 176.247 109.156C174.971 109.921 174.629 111.699 175.485 113.126C176.341 114.554 178.07 115.091 179.346 114.325Z" fill="#9E848D"/>
<path d="M199.382 102.315C200.658 101.549 201 99.7714 200.144 98.3438C199.288 96.9163 197.559 96.3795 196.283 97.1449C195.006 97.9103 194.664 99.688 195.52 101.116C196.376 102.543 198.105 103.08 199.382 102.315Z" fill="#9E848D"/>
<path d="M72.5534 208.792C73.8303 208.027 74.1716 206.249 73.3159 204.822C72.4602 203.394 70.7314 202.857 69.4545 203.623C68.1777 204.388 67.8363 206.166 68.692 207.593C69.5478 209.021 71.2766 209.558 72.5534 208.792Z" fill="#9E848D"/>
<path d="M92.5905 196.782C93.8674 196.016 94.2087 194.238 93.353 192.811C92.4973 191.383 90.7685 190.847 89.4916 191.612C88.2148 192.377 87.8734 194.155 88.7291 195.583C89.5849 197.01 91.3137 197.547 92.5905 196.782Z" fill="#9E848D"/>
<path d="M112.628 184.771C113.904 184.005 114.246 182.227 113.39 180.8C112.534 179.372 110.806 178.836 109.529 179.601C108.252 180.366 107.911 182.144 108.766 183.572C109.622 184.999 111.351 185.536 112.628 184.771Z" fill="#9E848D"/>
<path d="M132.665 172.76C133.942 171.994 134.283 170.217 133.427 168.789C132.571 167.362 130.843 166.825 129.566 167.59C128.289 168.356 127.948 170.133 128.803 171.561C129.659 172.988 131.388 173.525 132.665 172.76Z" fill="#9E848D"/>
<path d="M152.7 160.749C153.977 159.983 154.318 158.206 153.462 156.778C152.607 155.351 150.878 154.814 149.601 155.579C148.324 156.345 147.983 158.122 148.839 159.55C149.694 160.977 151.423 161.514 152.7 160.749Z" fill="#9E848D"/>
<path d="M172.737 148.738C174.014 147.973 174.355 146.195 173.5 144.767C172.644 143.34 170.915 142.803 169.638 143.568C168.361 144.334 168.02 146.112 168.876 147.539C169.731 148.967 171.46 149.504 172.737 148.738Z" fill="#9E848D"/>
<path d="M192.774 136.727C194.051 135.962 194.392 134.184 193.537 132.756C192.681 131.329 190.952 130.792 189.675 131.557C188.398 132.323 188.057 134.101 188.913 135.528C189.768 136.956 191.497 137.493 192.774 136.727Z" fill="#9E848D"/>
<path d="M212.811 124.716C214.088 123.951 214.429 122.173 213.574 120.746C212.718 119.318 210.989 118.781 209.712 119.547C208.435 120.312 208.094 122.09 208.95 123.517C209.806 124.945 211.534 125.482 212.811 124.716Z" fill="#9E848D"/>
<path d="M85.9811 231.194C87.258 230.429 87.5994 228.651 86.7436 227.223C85.8879 225.796 84.1591 225.259 82.8822 226.025C81.6054 226.79 81.264 228.568 82.1198 229.995C82.9755 231.423 84.7043 231.96 85.9811 231.194Z" fill="#9E848D"/>
<path d="M106.018 219.183C107.295 218.418 107.636 216.64 106.781 215.212C105.925 213.785 104.196 213.248 102.919 214.014C101.643 214.779 101.301 216.557 102.157 217.984C103.013 219.412 104.741 219.949 106.018 219.183Z" fill="#9E848D"/>
<path d="M126.055 207.172C127.332 206.407 127.674 204.629 126.818 203.202C125.962 201.774 124.233 201.237 122.956 202.003C121.68 202.768 121.338 204.546 122.194 205.973C123.05 207.401 124.779 207.938 126.055 207.172Z" fill="#9E848D"/>
<path d="M146.092 195.161C147.369 194.396 147.711 192.618 146.855 191.191C145.999 189.763 144.27 189.226 142.994 189.992C141.717 190.757 141.375 192.535 142.231 193.962C143.087 195.39 144.816 195.927 146.092 195.161Z" fill="#9E848D"/>
<path d="M166.13 183.151C167.406 182.385 167.748 180.608 166.892 179.18C166.036 177.752 164.308 177.216 163.031 177.981C161.754 178.746 161.412 180.524 162.268 181.952C163.124 183.379 164.853 183.916 166.13 183.151Z" fill="#9E848D"/>
<path d="M186.167 171.14C187.444 170.374 187.785 168.597 186.929 167.169C186.073 165.741 184.345 165.205 183.068 165.97C181.791 166.735 181.45 168.513 182.305 169.941C183.161 171.368 184.89 171.905 186.167 171.14Z" fill="#9E848D"/>
<path d="M206.202 159.129C207.479 158.363 207.82 156.586 206.964 155.158C206.109 153.73 204.38 153.194 203.103 153.959C201.826 154.724 201.485 156.502 202.34 157.93C203.196 159.357 204.925 159.894 206.202 159.129Z" fill="#9E848D"/>
<path d="M226.239 147.118C227.516 146.353 227.857 144.575 227.001 143.147C226.146 141.72 224.417 141.183 223.14 141.948C221.863 142.714 221.522 144.491 222.378 145.919C223.233 147.347 224.962 147.883 226.239 147.118Z" fill="#9E848D"/>
<path d="M99.4108 253.596C100.688 252.83 101.029 251.053 100.173 249.625C99.3176 248.198 97.5888 247.661 96.3119 248.426C95.0351 249.192 94.6937 250.969 95.5494 252.397C96.4052 253.824 98.134 254.361 99.4108 253.596Z" fill="#9E848D"/>
<path d="M119.448 241.585C120.725 240.82 121.066 239.042 120.21 237.614C119.355 236.187 117.626 235.65 116.349 236.415C115.072 237.181 114.731 238.959 115.587 240.386C116.442 241.814 118.171 242.35 119.448 241.585Z" fill="#9E848D"/>
<path d="M139.485 229.574C140.762 228.809 141.103 227.031 140.248 225.603C139.392 224.176 137.663 223.639 136.386 224.404C135.109 225.17 134.768 226.948 135.624 228.375C136.479 229.803 138.208 230.339 139.485 229.574Z" fill="#9E848D"/>
<path d="M159.52 217.563C160.797 216.798 161.138 215.02 160.283 213.593C159.427 212.165 157.698 211.628 156.421 212.394C155.144 213.159 154.803 214.937 155.659 216.364C156.515 217.792 158.243 218.329 159.52 217.563Z" fill="#9E848D"/>
<path d="M179.557 205.552C180.834 204.787 181.176 203.009 180.32 201.582C179.464 200.154 177.735 199.617 176.458 200.383C175.182 201.148 174.84 202.926 175.696 204.353C176.552 205.781 178.28 206.318 179.557 205.552Z" fill="#9E848D"/>
<path d="M199.594 193.542C200.871 192.776 201.213 190.998 200.357 189.571C199.501 188.143 197.772 187.607 196.496 188.372C195.219 189.137 194.877 190.915 195.733 192.343C196.589 193.77 198.318 194.307 199.594 193.542Z" fill="#9E848D"/>
<path d="M219.632 181.531C220.908 180.765 221.25 178.987 220.394 177.56C219.538 176.132 217.809 175.596 216.533 176.361C215.256 177.126 214.914 178.904 215.77 180.332C216.626 181.759 218.355 182.296 219.632 181.531Z" fill="#9E848D"/>
<path d="M239.669 169.52C240.945 168.754 241.287 166.976 240.431 165.549C239.575 164.121 237.847 163.585 236.57 164.35C235.293 165.115 234.952 166.893 235.807 168.321C236.663 169.748 238.392 170.285 239.669 169.52Z" fill="#9E848D"/>
</g>
<defs>
<clipPath id="clip0_70_3487">
<rect width="179.7" height="200.91" fill="white" transform="translate(0 93) rotate(-30.9402)"/>
</clipPath>
</defs>
</svg>
