<svg width="381" height="95" viewBox="0 0 381 95" fill="none" xmlns="http://www.w3.org/2000/svg">
<path d="M1.5 0.980263C2.32843 0.980263 3 0.479144 3 -0.139019C3 -0.757181 2.32843 -1.2583 1.5 -1.2583C0.671573 -1.2583 0 -0.757181 0 -0.139019C0 0.479144 0.671573 0.980263 1.5 0.980263Z" fill="#6D3D67"/>
<path d="M19.5 0.980263C20.3284 0.980263 21 0.479144 21 -0.139019C21 -0.757181 20.3284 -1.2583 19.5 -1.2583C18.6716 -1.2583 18 -0.757181 18 -0.139019C18 0.479144 18.6716 0.980263 19.5 0.980263Z" fill="#6D3D67"/>
<path d="M37.5 0.980263C38.3284 0.980263 39 0.479144 39 -0.139019C39 -0.757181 38.3284 -1.2583 37.5 -1.2583C36.6716 -1.2583 36 -0.757181 36 -0.139019C36 0.479144 36.6716 0.980263 37.5 0.980263Z" fill="#6D3D67"/>
<path d="M55.5 0.980263C56.3284 0.980263 57 0.479144 57 -0.139019C57 -0.757181 56.3284 -1.2583 55.5 -1.2583C54.6716 -1.2583 54 -0.757181 54 -0.139019C54 0.479144 54.6716 0.980263 55.5 0.980263Z" fill="#6D3D67"/>
<path d="M73.5 0.980263C74.3284 0.980263 75 0.479144 75 -0.139019C75 -0.757181 74.3284 -1.2583 73.5 -1.2583C72.6716 -1.2583 72 -0.757181 72 -0.139019C72 0.479144 72.6716 0.980263 73.5 0.980263Z" fill="#6D3D67"/>
<path d="M91.5 0.980263C92.3284 0.980263 93 0.479144 93 -0.139019C93 -0.757181 92.3284 -1.2583 91.5 -1.2583C90.6716 -1.2583 90 -0.757181 90 -0.139019C90 0.479144 90.6716 0.980263 91.5 0.980263Z" fill="#6D3D67"/>
<path d="M109.5 0.980263C110.328 0.980263 111 0.479144 111 -0.139019C111 -0.757181 110.328 -1.2583 109.5 -1.2583C108.672 -1.2583 108 -0.757181 108 -0.139019C108 0.479144 108.672 0.980263 109.5 0.980263Z" fill="#6D3D67"/>
<path d="M127.5 0.980263C128.328 0.980263 129 0.479144 129 -0.139019C129 -0.757181 128.328 -1.2583 127.5 -1.2583C126.672 -1.2583 126 -0.757181 126 -0.139019C126 0.479144 126.672 0.980263 127.5 0.980263Z" fill="#6D3D67"/>
<path d="M145.5 0.980263C146.328 0.980263 147 0.479144 147 -0.139019C147 -0.757181 146.328 -1.2583 145.5 -1.2583C144.672 -1.2583 144 -0.757181 144 -0.139019C144 0.479144 144.672 0.980263 145.5 0.980263Z" fill="#6D3D67"/>
<path d="M163.5 0.980263C164.328 0.980263 165 0.479144 165 -0.139019C165 -0.757181 164.328 -1.2583 163.5 -1.2583C162.672 -1.2583 162 -0.757181 162 -0.139019C162 0.479144 162.672 0.980263 163.5 0.980263Z" fill="#6D3D67"/>
<path d="M181.5 0.980263C182.328 0.980263 183 0.479144 183 -0.139019C183 -0.757181 182.328 -1.2583 181.5 -1.2583C180.672 -1.2583 180 -0.757181 180 -0.139019C180 0.479144 180.672 0.980263 181.5 0.980263Z" fill="#6D3D67"/>
<path d="M199.5 0.980263C200.328 0.980263 201 0.479144 201 -0.139019C201 -0.757181 200.328 -1.2583 199.5 -1.2583C198.672 -1.2583 198 -0.757181 198 -0.139019C198 0.479144 198.672 0.980263 199.5 0.980263Z" fill="#6D3D67"/>
<path d="M217.5 0.980263C218.328 0.980263 219 0.479144 219 -0.139019C219 -0.757181 218.328 -1.2583 217.5 -1.2583C216.672 -1.2583 216 -0.757181 216 -0.139019C216 0.479144 216.672 0.980263 217.5 0.980263Z" fill="#6D3D67"/>
<path d="M235.5 0.980263C236.328 0.980263 237 0.479144 237 -0.139019C237 -0.757181 236.328 -1.2583 235.5 -1.2583C234.672 -1.2583 234 -0.757181 234 -0.139019C234 0.479144 234.672 0.980263 235.5 0.980263Z" fill="#6D3D67"/>
<path d="M253.5 0.980263C254.328 0.980263 255 0.479144 255 -0.139019C255 -0.757181 254.328 -1.2583 253.5 -1.2583C252.672 -1.2583 252 -0.757181 252 -0.139019C252 0.479144 252.672 0.980263 253.5 0.980263Z" fill="#6D3D67"/>
<path d="M271.5 0.980263C272.328 0.980263 273 0.479144 273 -0.139019C273 -0.757181 272.328 -1.2583 271.5 -1.2583C270.672 -1.2583 270 -0.757181 270 -0.139019C270 0.479144 270.672 0.980263 271.5 0.980263Z" fill="#6D3D67"/>
<path d="M289.5 0.980263C290.328 0.980263 291 0.479144 291 -0.139019C291 -0.757181 290.328 -1.2583 289.5 -1.2583C288.672 -1.2583 288 -0.757181 288 -0.139019C288 0.479144 288.672 0.980263 289.5 0.980263Z" fill="#6D3D67"/>
<path d="M307.5 0.980263C308.328 0.980263 309 0.479144 309 -0.139019C309 -0.757181 308.328 -1.2583 307.5 -1.2583C306.672 -1.2583 306 -0.757181 306 -0.139019C306 0.479144 306.672 0.980263 307.5 0.980263Z" fill="#6D3D67"/>
<path d="M325.5 0.980263C326.328 0.980263 327 0.479144 327 -0.139019C327 -0.757181 326.328 -1.2583 325.5 -1.2583C324.672 -1.2583 324 -0.757181 324 -0.139019C324 0.479144 324.672 0.980263 325.5 0.980263Z" fill="#6D3D67"/>
<path d="M343.5 0.980263C344.328 0.980263 345 0.479144 345 -0.139019C345 -0.757181 344.328 -1.2583 343.5 -1.2583C342.672 -1.2583 342 -0.757181 342 -0.139019C342 0.479144 342.672 0.980263 343.5 0.980263Z" fill="#6D3D67"/>
<path d="M361.5 0.980263C362.328 0.980263 363 0.479144 363 -0.139019C363 -0.757181 362.328 -1.2583 361.5 -1.2583C360.672 -1.2583 360 -0.757181 360 -0.139019C360 0.479144 360.672 0.980263 361.5 0.980263Z" fill="#6D3D67"/>
<path d="M379.5 0.980263C380.328 0.980263 381 0.479144 381 -0.139019C381 -0.757181 380.328 -1.2583 379.5 -1.2583C378.672 -1.2583 378 -0.757181 378 -0.139019C378 0.479144 378.672 0.980263 379.5 0.980263Z" fill="#6D3D67"/>
<path d="M1.5 14.4117C2.32843 14.4117 3 13.9105 3 13.2924C3 12.6742 2.32843 12.1731 1.5 12.1731C0.671573 12.1731 0 12.6742 0 13.2924C0 13.9105 0.671573 14.4117 1.5 14.4117Z" fill="#6D3D67"/>
<path d="M19.5 14.4117C20.3284 14.4117 21 13.9105 21 13.2924C21 12.6742 20.3284 12.1731 19.5 12.1731C18.6716 12.1731 18 12.6742 18 13.2924C18 13.9105 18.6716 14.4117 19.5 14.4117Z" fill="#6D3D67"/>
<path d="M37.5 14.4117C38.3284 14.4117 39 13.9105 39 13.2924C39 12.6742 38.3284 12.1731 37.5 12.1731C36.6716 12.1731 36 12.6742 36 13.2924C36 13.9105 36.6716 14.4117 37.5 14.4117Z" fill="#6D3D67"/>
<path d="M55.5 14.4117C56.3284 14.4117 57 13.9105 57 13.2924C57 12.6742 56.3284 12.1731 55.5 12.1731C54.6716 12.1731 54 12.6742 54 13.2924C54 13.9105 54.6716 14.4117 55.5 14.4117Z" fill="#6D3D67"/>
<path d="M73.5 14.4117C74.3284 14.4117 75 13.9105 75 13.2924C75 12.6742 74.3284 12.1731 73.5 12.1731C72.6716 12.1731 72 12.6742 72 13.2924C72 13.9105 72.6716 14.4117 73.5 14.4117Z" fill="#6D3D67"/>
<path d="M91.5 14.4117C92.3284 14.4117 93 13.9105 93 13.2924C93 12.6742 92.3284 12.1731 91.5 12.1731C90.6716 12.1731 90 12.6742 90 13.2924C90 13.9105 90.6716 14.4117 91.5 14.4117Z" fill="#6D3D67"/>
<path d="M109.5 14.4117C110.328 14.4117 111 13.9105 111 13.2924C111 12.6742 110.328 12.1731 109.5 12.1731C108.672 12.1731 108 12.6742 108 13.2924C108 13.9105 108.672 14.4117 109.5 14.4117Z" fill="#6D3D67"/>
<path d="M127.5 14.4117C128.328 14.4117 129 13.9105 129 13.2924C129 12.6742 128.328 12.1731 127.5 12.1731C126.672 12.1731 126 12.6742 126 13.2924C126 13.9105 126.672 14.4117 127.5 14.4117Z" fill="#6D3D67"/>
<path d="M145.5 14.4117C146.328 14.4117 147 13.9105 147 13.2924C147 12.6742 146.328 12.1731 145.5 12.1731C144.672 12.1731 144 12.6742 144 13.2924C144 13.9105 144.672 14.4117 145.5 14.4117Z" fill="#6D3D67"/>
<path d="M163.5 14.4117C164.328 14.4117 165 13.9105 165 13.2924C165 12.6742 164.328 12.1731 163.5 12.1731C162.672 12.1731 162 12.6742 162 13.2924C162 13.9105 162.672 14.4117 163.5 14.4117Z" fill="#6D3D67"/>
<path d="M181.5 14.4117C182.328 14.4117 183 13.9105 183 13.2924C183 12.6742 182.328 12.1731 181.5 12.1731C180.672 12.1731 180 12.6742 180 13.2924C180 13.9105 180.672 14.4117 181.5 14.4117Z" fill="#6D3D67"/>
<path d="M199.5 14.4117C200.328 14.4117 201 13.9105 201 13.2924C201 12.6742 200.328 12.1731 199.5 12.1731C198.672 12.1731 198 12.6742 198 13.2924C198 13.9105 198.672 14.4117 199.5 14.4117Z" fill="#6D3D67"/>
<path d="M217.5 14.4117C218.328 14.4117 219 13.9105 219 13.2924C219 12.6742 218.328 12.1731 217.5 12.1731C216.672 12.1731 216 12.6742 216 13.2924C216 13.9105 216.672 14.4117 217.5 14.4117Z" fill="#6D3D67"/>
<path d="M235.5 14.4117C236.328 14.4117 237 13.9105 237 13.2924C237 12.6742 236.328 12.1731 235.5 12.1731C234.672 12.1731 234 12.6742 234 13.2924C234 13.9105 234.672 14.4117 235.5 14.4117Z" fill="#6D3D67"/>
<path d="M253.5 14.4117C254.328 14.4117 255 13.9105 255 13.2924C255 12.6742 254.328 12.1731 253.5 12.1731C252.672 12.1731 252 12.6742 252 13.2924C252 13.9105 252.672 14.4117 253.5 14.4117Z" fill="#6D3D67"/>
<path d="M271.5 14.4117C272.328 14.4117 273 13.9105 273 13.2924C273 12.6742 272.328 12.1731 271.5 12.1731C270.672 12.1731 270 12.6742 270 13.2924C270 13.9105 270.672 14.4117 271.5 14.4117Z" fill="#6D3D67"/>
<path d="M289.5 14.4117C290.328 14.4117 291 13.9105 291 13.2924C291 12.6742 290.328 12.1731 289.5 12.1731C288.672 12.1731 288 12.6742 288 13.2924C288 13.9105 288.672 14.4117 289.5 14.4117Z" fill="#6D3D67"/>
<path d="M307.5 14.4117C308.328 14.4117 309 13.9105 309 13.2924C309 12.6742 308.328 12.1731 307.5 12.1731C306.672 12.1731 306 12.6742 306 13.2924C306 13.9105 306.672 14.4117 307.5 14.4117Z" fill="#6D3D67"/>
<path d="M325.5 14.4117C326.328 14.4117 327 13.9105 327 13.2924C327 12.6742 326.328 12.1731 325.5 12.1731C324.672 12.1731 324 12.6742 324 13.2924C324 13.9105 324.672 14.4117 325.5 14.4117Z" fill="#6D3D67"/>
<path d="M343.5 14.4117C344.328 14.4117 345 13.9105 345 13.2924C345 12.6742 344.328 12.1731 343.5 12.1731C342.672 12.1731 342 12.6742 342 13.2924C342 13.9105 342.672 14.4117 343.5 14.4117Z" fill="#6D3D67"/>
<path d="M361.5 14.4117C362.328 14.4117 363 13.9105 363 13.2924C363 12.6742 362.328 12.1731 361.5 12.1731C360.672 12.1731 360 12.6742 360 13.2924C360 13.9105 360.672 14.4117 361.5 14.4117Z" fill="#6D3D67"/>
<path d="M379.5 14.4117C380.328 14.4117 381 13.9105 381 13.2924C381 12.6742 380.328 12.1731 379.5 12.1731C378.672 12.1731 378 12.6742 378 13.2924C378 13.9105 378.672 14.4117 379.5 14.4117Z" fill="#6D3D67"/>
<path d="M1.5 27.8431C2.32843 27.8431 3 27.3419 3 26.7238C3 26.1056 2.32843 25.6045 1.5 25.6045C0.671573 25.6045 0 26.1056 0 26.7238C0 27.3419 0.671573 27.8431 1.5 27.8431Z" fill="#6D3D67"/>
<path d="M19.5 27.8431C20.3284 27.8431 21 27.3419 21 26.7238C21 26.1056 20.3284 25.6045 19.5 25.6045C18.6716 25.6045 18 26.1056 18 26.7238C18 27.3419 18.6716 27.8431 19.5 27.8431Z" fill="#6D3D67"/>
<path d="M37.5 27.8431C38.3284 27.8431 39 27.3419 39 26.7238C39 26.1056 38.3284 25.6045 37.5 25.6045C36.6716 25.6045 36 26.1056 36 26.7238C36 27.3419 36.6716 27.8431 37.5 27.8431Z" fill="#6D3D67"/>
<path d="M55.5 27.8431C56.3284 27.8431 57 27.3419 57 26.7238C57 26.1056 56.3284 25.6045 55.5 25.6045C54.6716 25.6045 54 26.1056 54 26.7238C54 27.3419 54.6716 27.8431 55.5 27.8431Z" fill="#6D3D67"/>
<path d="M73.5 27.8431C74.3284 27.8431 75 27.3419 75 26.7238C75 26.1056 74.3284 25.6045 73.5 25.6045C72.6716 25.6045 72 26.1056 72 26.7238C72 27.3419 72.6716 27.8431 73.5 27.8431Z" fill="#6D3D67"/>
<path d="M91.5 27.8431C92.3284 27.8431 93 27.3419 93 26.7238C93 26.1056 92.3284 25.6045 91.5 25.6045C90.6716 25.6045 90 26.1056 90 26.7238C90 27.3419 90.6716 27.8431 91.5 27.8431Z" fill="#6D3D67"/>
<path d="M109.5 27.8431C110.328 27.8431 111 27.3419 111 26.7238C111 26.1056 110.328 25.6045 109.5 25.6045C108.672 25.6045 108 26.1056 108 26.7238C108 27.3419 108.672 27.8431 109.5 27.8431Z" fill="#6D3D67"/>
<path d="M127.5 27.8431C128.328 27.8431 129 27.3419 129 26.7238C129 26.1056 128.328 25.6045 127.5 25.6045C126.672 25.6045 126 26.1056 126 26.7238C126 27.3419 126.672 27.8431 127.5 27.8431Z" fill="#6D3D67"/>
<path d="M145.5 27.8431C146.328 27.8431 147 27.3419 147 26.7238C147 26.1056 146.328 25.6045 145.5 25.6045C144.672 25.6045 144 26.1056 144 26.7238C144 27.3419 144.672 27.8431 145.5 27.8431Z" fill="#6D3D67"/>
<path d="M163.5 27.8431C164.328 27.8431 165 27.3419 165 26.7238C165 26.1056 164.328 25.6045 163.5 25.6045C162.672 25.6045 162 26.1056 162 26.7238C162 27.3419 162.672 27.8431 163.5 27.8431Z" fill="#6D3D67"/>
<path d="M181.5 27.8431C182.328 27.8431 183 27.3419 183 26.7238C183 26.1056 182.328 25.6045 181.5 25.6045C180.672 25.6045 180 26.1056 180 26.7238C180 27.3419 180.672 27.8431 181.5 27.8431Z" fill="#6D3D67"/>
<path d="M199.5 27.8431C200.328 27.8431 201 27.3419 201 26.7238C201 26.1056 200.328 25.6045 199.5 25.6045C198.672 25.6045 198 26.1056 198 26.7238C198 27.3419 198.672 27.8431 199.5 27.8431Z" fill="#6D3D67"/>
<path d="M217.5 27.8431C218.328 27.8431 219 27.3419 219 26.7238C219 26.1056 218.328 25.6045 217.5 25.6045C216.672 25.6045 216 26.1056 216 26.7238C216 27.3419 216.672 27.8431 217.5 27.8431Z" fill="#6D3D67"/>
<path d="M235.5 27.8431C236.328 27.8431 237 27.3419 237 26.7238C237 26.1056 236.328 25.6045 235.5 25.6045C234.672 25.6045 234 26.1056 234 26.7238C234 27.3419 234.672 27.8431 235.5 27.8431Z" fill="#6D3D67"/>
<path d="M253.5 27.8431C254.328 27.8431 255 27.3419 255 26.7238C255 26.1056 254.328 25.6045 253.5 25.6045C252.672 25.6045 252 26.1056 252 26.7238C252 27.3419 252.672 27.8431 253.5 27.8431Z" fill="#6D3D67"/>
<path d="M271.5 27.8431C272.328 27.8431 273 27.3419 273 26.7238C273 26.1056 272.328 25.6045 271.5 25.6045C270.672 25.6045 270 26.1056 270 26.7238C270 27.3419 270.672 27.8431 271.5 27.8431Z" fill="#6D3D67"/>
<path d="M289.5 27.8431C290.328 27.8431 291 27.3419 291 26.7238C291 26.1056 290.328 25.6045 289.5 25.6045C288.672 25.6045 288 26.1056 288 26.7238C288 27.3419 288.672 27.8431 289.5 27.8431Z" fill="#6D3D67"/>
<path d="M307.5 27.8431C308.328 27.8431 309 27.3419 309 26.7238C309 26.1056 308.328 25.6045 307.5 25.6045C306.672 25.6045 306 26.1056 306 26.7238C306 27.3419 306.672 27.8431 307.5 27.8431Z" fill="#6D3D67"/>
<path d="M325.5 27.8431C326.328 27.8431 327 27.3419 327 26.7238C327 26.1056 326.328 25.6045 325.5 25.6045C324.672 25.6045 324 26.1056 324 26.7238C324 27.3419 324.672 27.8431 325.5 27.8431Z" fill="#6D3D67"/>
<path d="M343.5 27.8431C344.328 27.8431 345 27.3419 345 26.7238C345 26.1056 344.328 25.6045 343.5 25.6045C342.672 25.6045 342 26.1056 342 26.7238C342 27.3419 342.672 27.8431 343.5 27.8431Z" fill="#6D3D67"/>
<path d="M361.5 27.8431C362.328 27.8431 363 27.3419 363 26.7238C363 26.1056 362.328 25.6045 361.5 25.6045C360.672 25.6045 360 26.1056 360 26.7238C360 27.3419 360.672 27.8431 361.5 27.8431Z" fill="#6D3D67"/>
<path d="M379.5 27.8431C380.328 27.8431 381 27.3419 381 26.7238C381 26.1056 380.328 25.6045 379.5 25.6045C378.672 25.6045 378 26.1056 378 26.7238C378 27.3419 378.672 27.8431 379.5 27.8431Z" fill="#6D3D67"/>
<path d="M1.5 41.2743C2.32843 41.2743 3 40.7732 3 40.155C3 39.5369 2.32843 39.0358 1.5 39.0358C0.671573 39.0358 0 39.5369 0 40.155C0 40.7732 0.671573 41.2743 1.5 41.2743Z" fill="#6D3D67"/>
<path d="M19.5 41.2743C20.3284 41.2743 21 40.7732 21 40.155C21 39.5369 20.3284 39.0358 19.5 39.0358C18.6716 39.0358 18 39.5369 18 40.155C18 40.7732 18.6716 41.2743 19.5 41.2743Z" fill="#6D3D67"/>
<path d="M37.5 41.2743C38.3284 41.2743 39 40.7732 39 40.155C39 39.5369 38.3284 39.0358 37.5 39.0358C36.6716 39.0358 36 39.5369 36 40.155C36 40.7732 36.6716 41.2743 37.5 41.2743Z" fill="#6D3D67"/>
<path d="M55.5 41.2743C56.3284 41.2743 57 40.7732 57 40.155C57 39.5369 56.3284 39.0358 55.5 39.0358C54.6716 39.0358 54 39.5369 54 40.155C54 40.7732 54.6716 41.2743 55.5 41.2743Z" fill="#6D3D67"/>
<path d="M73.5 41.2743C74.3284 41.2743 75 40.7732 75 40.155C75 39.5369 74.3284 39.0358 73.5 39.0358C72.6716 39.0358 72 39.5369 72 40.155C72 40.7732 72.6716 41.2743 73.5 41.2743Z" fill="#6D3D67"/>
<path d="M91.5 41.2743C92.3284 41.2743 93 40.7732 93 40.155C93 39.5369 92.3284 39.0358 91.5 39.0358C90.6716 39.0358 90 39.5369 90 40.155C90 40.7732 90.6716 41.2743 91.5 41.2743Z" fill="#6D3D67"/>
<path d="M109.5 41.2743C110.328 41.2743 111 40.7732 111 40.155C111 39.5369 110.328 39.0358 109.5 39.0358C108.672 39.0358 108 39.5369 108 40.155C108 40.7732 108.672 41.2743 109.5 41.2743Z" fill="#6D3D67"/>
<path d="M127.5 41.2743C128.328 41.2743 129 40.7732 129 40.155C129 39.5369 128.328 39.0358 127.5 39.0358C126.672 39.0358 126 39.5369 126 40.155C126 40.7732 126.672 41.2743 127.5 41.2743Z" fill="#6D3D67"/>
<path d="M145.5 41.2743C146.328 41.2743 147 40.7732 147 40.155C147 39.5369 146.328 39.0358 145.5 39.0358C144.672 39.0358 144 39.5369 144 40.155C144 40.7732 144.672 41.2743 145.5 41.2743Z" fill="#6D3D67"/>
<path d="M163.5 41.2743C164.328 41.2743 165 40.7732 165 40.155C165 39.5369 164.328 39.0358 163.5 39.0358C162.672 39.0358 162 39.5369 162 40.155C162 40.7732 162.672 41.2743 163.5 41.2743Z" fill="#6D3D67"/>
<path d="M181.5 41.2743C182.328 41.2743 183 40.7732 183 40.155C183 39.5369 182.328 39.0358 181.5 39.0358C180.672 39.0358 180 39.5369 180 40.155C180 40.7732 180.672 41.2743 181.5 41.2743Z" fill="#6D3D67"/>
<path d="M199.5 41.2743C200.328 41.2743 201 40.7732 201 40.155C201 39.5369 200.328 39.0358 199.5 39.0358C198.672 39.0358 198 39.5369 198 40.155C198 40.7732 198.672 41.2743 199.5 41.2743Z" fill="#6D3D67"/>
<path d="M217.5 41.2743C218.328 41.2743 219 40.7732 219 40.155C219 39.5369 218.328 39.0358 217.5 39.0358C216.672 39.0358 216 39.5369 216 40.155C216 40.7732 216.672 41.2743 217.5 41.2743Z" fill="#6D3D67"/>
<path d="M235.5 41.2743C236.328 41.2743 237 40.7732 237 40.155C237 39.5369 236.328 39.0358 235.5 39.0358C234.672 39.0358 234 39.5369 234 40.155C234 40.7732 234.672 41.2743 235.5 41.2743Z" fill="#6D3D67"/>
<path d="M253.5 41.2743C254.328 41.2743 255 40.7732 255 40.155C255 39.5369 254.328 39.0358 253.5 39.0358C252.672 39.0358 252 39.5369 252 40.155C252 40.7732 252.672 41.2743 253.5 41.2743Z" fill="#6D3D67"/>
<path d="M271.5 41.2743C272.328 41.2743 273 40.7732 273 40.155C273 39.5369 272.328 39.0358 271.5 39.0358C270.672 39.0358 270 39.5369 270 40.155C270 40.7732 270.672 41.2743 271.5 41.2743Z" fill="#6D3D67"/>
<path d="M289.5 41.2743C290.328 41.2743 291 40.7732 291 40.155C291 39.5369 290.328 39.0358 289.5 39.0358C288.672 39.0358 288 39.5369 288 40.155C288 40.7732 288.672 41.2743 289.5 41.2743Z" fill="#6D3D67"/>
<path d="M307.5 41.2743C308.328 41.2743 309 40.7732 309 40.155C309 39.5369 308.328 39.0358 307.5 39.0358C306.672 39.0358 306 39.5369 306 40.155C306 40.7732 306.672 41.2743 307.5 41.2743Z" fill="#6D3D67"/>
<path d="M325.5 41.2743C326.328 41.2743 327 40.7732 327 40.155C327 39.5369 326.328 39.0358 325.5 39.0358C324.672 39.0358 324 39.5369 324 40.155C324 40.7732 324.672 41.2743 325.5 41.2743Z" fill="#6D3D67"/>
<path d="M343.5 41.2743C344.328 41.2743 345 40.7732 345 40.155C345 39.5369 344.328 39.0358 343.5 39.0358C342.672 39.0358 342 39.5369 342 40.155C342 40.7732 342.672 41.2743 343.5 41.2743Z" fill="#6D3D67"/>
<path d="M361.5 41.2743C362.328 41.2743 363 40.7732 363 40.155C363 39.5369 362.328 39.0358 361.5 39.0358C360.672 39.0358 360 39.5369 360 40.155C360 40.7732 360.672 41.2743 361.5 41.2743Z" fill="#6D3D67"/>
<path d="M379.5 41.2743C380.328 41.2743 381 40.7732 381 40.155C381 39.5369 380.328 39.0358 379.5 39.0358C378.672 39.0358 378 39.5369 378 40.155C378 40.7732 378.672 41.2743 379.5 41.2743Z" fill="#6D3D67"/>
<path d="M1.5 54.7057C2.32843 54.7057 3 54.2046 3 53.5864C3 52.9683 2.32843 52.4672 1.5 52.4672C0.671573 52.4672 0 52.9683 0 53.5864C0 54.2046 0.671573 54.7057 1.5 54.7057Z" fill="#6D3D67"/>
<path d="M19.5 54.7057C20.3284 54.7057 21 54.2046 21 53.5864C21 52.9683 20.3284 52.4672 19.5 52.4672C18.6716 52.4672 18 52.9683 18 53.5864C18 54.2046 18.6716 54.7057 19.5 54.7057Z" fill="#6D3D67"/>
<path d="M37.5 54.7057C38.3284 54.7057 39 54.2046 39 53.5864C39 52.9683 38.3284 52.4672 37.5 52.4672C36.6716 52.4672 36 52.9683 36 53.5864C36 54.2046 36.6716 54.7057 37.5 54.7057Z" fill="#6D3D67"/>
<path d="M55.5 54.7057C56.3284 54.7057 57 54.2046 57 53.5864C57 52.9683 56.3284 52.4672 55.5 52.4672C54.6716 52.4672 54 52.9683 54 53.5864C54 54.2046 54.6716 54.7057 55.5 54.7057Z" fill="#6D3D67"/>
<path d="M73.5 54.7057C74.3284 54.7057 75 54.2046 75 53.5864C75 52.9683 74.3284 52.4672 73.5 52.4672C72.6716 52.4672 72 52.9683 72 53.5864C72 54.2046 72.6716 54.7057 73.5 54.7057Z" fill="#6D3D67"/>
<path d="M91.5 54.7057C92.3284 54.7057 93 54.2046 93 53.5864C93 52.9683 92.3284 52.4672 91.5 52.4672C90.6716 52.4672 90 52.9683 90 53.5864C90 54.2046 90.6716 54.7057 91.5 54.7057Z" fill="#6D3D67"/>
<path d="M109.5 54.7057C110.328 54.7057 111 54.2046 111 53.5864C111 52.9683 110.328 52.4672 109.5 52.4672C108.672 52.4672 108 52.9683 108 53.5864C108 54.2046 108.672 54.7057 109.5 54.7057Z" fill="#6D3D67"/>
<path d="M127.5 54.7057C128.328 54.7057 129 54.2046 129 53.5864C129 52.9683 128.328 52.4672 127.5 52.4672C126.672 52.4672 126 52.9683 126 53.5864C126 54.2046 126.672 54.7057 127.5 54.7057Z" fill="#6D3D67"/>
<path d="M145.5 54.7057C146.328 54.7057 147 54.2046 147 53.5864C147 52.9683 146.328 52.4672 145.5 52.4672C144.672 52.4672 144 52.9683 144 53.5864C144 54.2046 144.672 54.7057 145.5 54.7057Z" fill="#6D3D67"/>
<path d="M163.5 54.7057C164.328 54.7057 165 54.2046 165 53.5864C165 52.9683 164.328 52.4672 163.5 52.4672C162.672 52.4672 162 52.9683 162 53.5864C162 54.2046 162.672 54.7057 163.5 54.7057Z" fill="#6D3D67"/>
<path d="M181.5 54.7057C182.328 54.7057 183 54.2046 183 53.5864C183 52.9683 182.328 52.4672 181.5 52.4672C180.672 52.4672 180 52.9683 180 53.5864C180 54.2046 180.672 54.7057 181.5 54.7057Z" fill="#6D3D67"/>
<path d="M199.5 54.7057C200.328 54.7057 201 54.2046 201 53.5864C201 52.9683 200.328 52.4672 199.5 52.4672C198.672 52.4672 198 52.9683 198 53.5864C198 54.2046 198.672 54.7057 199.5 54.7057Z" fill="#6D3D67"/>
<path d="M217.5 54.7057C218.328 54.7057 219 54.2046 219 53.5864C219 52.9683 218.328 52.4672 217.5 52.4672C216.672 52.4672 216 52.9683 216 53.5864C216 54.2046 216.672 54.7057 217.5 54.7057Z" fill="#6D3D67"/>
<path d="M235.5 54.7057C236.328 54.7057 237 54.2046 237 53.5864C237 52.9683 236.328 52.4672 235.5 52.4672C234.672 52.4672 234 52.9683 234 53.5864C234 54.2046 234.672 54.7057 235.5 54.7057Z" fill="#6D3D67"/>
<path d="M253.5 54.7057C254.328 54.7057 255 54.2046 255 53.5864C255 52.9683 254.328 52.4672 253.5 52.4672C252.672 52.4672 252 52.9683 252 53.5864C252 54.2046 252.672 54.7057 253.5 54.7057Z" fill="#6D3D67"/>
<path d="M271.5 54.7057C272.328 54.7057 273 54.2046 273 53.5864C273 52.9683 272.328 52.4672 271.5 52.4672C270.672 52.4672 270 52.9683 270 53.5864C270 54.2046 270.672 54.7057 271.5 54.7057Z" fill="#6D3D67"/>
<path d="M289.5 54.7057C290.328 54.7057 291 54.2046 291 53.5864C291 52.9683 290.328 52.4672 289.5 52.4672C288.672 52.4672 288 52.9683 288 53.5864C288 54.2046 288.672 54.7057 289.5 54.7057Z" fill="#6D3D67"/>
<path d="M307.5 54.7057C308.328 54.7057 309 54.2046 309 53.5864C309 52.9683 308.328 52.4672 307.5 52.4672C306.672 52.4672 306 52.9683 306 53.5864C306 54.2046 306.672 54.7057 307.5 54.7057Z" fill="#6D3D67"/>
<path d="M325.5 54.7057C326.328 54.7057 327 54.2046 327 53.5864C327 52.9683 326.328 52.4672 325.5 52.4672C324.672 52.4672 324 52.9683 324 53.5864C324 54.2046 324.672 54.7057 325.5 54.7057Z" fill="#6D3D67"/>
<path d="M343.5 54.7057C344.328 54.7057 345 54.2046 345 53.5864C345 52.9683 344.328 52.4672 343.5 52.4672C342.672 52.4672 342 52.9683 342 53.5864C342 54.2046 342.672 54.7057 343.5 54.7057Z" fill="#6D3D67"/>
<path d="M361.5 54.7057C362.328 54.7057 363 54.2046 363 53.5864C363 52.9683 362.328 52.4672 361.5 52.4672C360.672 52.4672 360 52.9683 360 53.5864C360 54.2046 360.672 54.7057 361.5 54.7057Z" fill="#6D3D67"/>
<path d="M379.5 54.7057C380.328 54.7057 381 54.2046 381 53.5864C381 52.9683 380.328 52.4672 379.5 52.4672C378.672 52.4672 378 52.9683 378 53.5864C378 54.2046 378.672 54.7057 379.5 54.7057Z" fill="#6D3D67"/>
<path d="M1.5 68.1371C2.32843 68.1371 3 67.636 3 67.0178C3 66.3997 2.32843 65.8986 1.5 65.8986C0.671573 65.8986 0 66.3997 0 67.0178C0 67.636 0.671573 68.1371 1.5 68.1371Z" fill="#6D3D67"/>
<path d="M19.5 68.1371C20.3284 68.1371 21 67.636 21 67.0178C21 66.3997 20.3284 65.8986 19.5 65.8986C18.6716 65.8986 18 66.3997 18 67.0178C18 67.636 18.6716 68.1371 19.5 68.1371Z" fill="#6D3D67"/>
<path d="M37.5 68.1371C38.3284 68.1371 39 67.636 39 67.0178C39 66.3997 38.3284 65.8986 37.5 65.8986C36.6716 65.8986 36 66.3997 36 67.0178C36 67.636 36.6716 68.1371 37.5 68.1371Z" fill="#6D3D67"/>
<path d="M55.5 68.1371C56.3284 68.1371 57 67.636 57 67.0178C57 66.3997 56.3284 65.8986 55.5 65.8986C54.6716 65.8986 54 66.3997 54 67.0178C54 67.636 54.6716 68.1371 55.5 68.1371Z" fill="#6D3D67"/>
<path d="M73.5 68.1371C74.3284 68.1371 75 67.636 75 67.0178C75 66.3997 74.3284 65.8986 73.5 65.8986C72.6716 65.8986 72 66.3997 72 67.0178C72 67.636 72.6716 68.1371 73.5 68.1371Z" fill="#6D3D67"/>
<path d="M91.5 68.1371C92.3284 68.1371 93 67.636 93 67.0178C93 66.3997 92.3284 65.8986 91.5 65.8986C90.6716 65.8986 90 66.3997 90 67.0178C90 67.636 90.6716 68.1371 91.5 68.1371Z" fill="#6D3D67"/>
<path d="M109.5 68.1371C110.328 68.1371 111 67.636 111 67.0178C111 66.3997 110.328 65.8986 109.5 65.8986C108.672 65.8986 108 66.3997 108 67.0178C108 67.636 108.672 68.1371 109.5 68.1371Z" fill="#6D3D67"/>
<path d="M127.5 68.1371C128.328 68.1371 129 67.636 129 67.0178C129 66.3997 128.328 65.8986 127.5 65.8986C126.672 65.8986 126 66.3997 126 67.0178C126 67.636 126.672 68.1371 127.5 68.1371Z" fill="#6D3D67"/>
<path d="M145.5 68.1371C146.328 68.1371 147 67.636 147 67.0178C147 66.3997 146.328 65.8986 145.5 65.8986C144.672 65.8986 144 66.3997 144 67.0178C144 67.636 144.672 68.1371 145.5 68.1371Z" fill="#6D3D67"/>
<path d="M163.5 68.1371C164.328 68.1371 165 67.636 165 67.0178C165 66.3997 164.328 65.8986 163.5 65.8986C162.672 65.8986 162 66.3997 162 67.0178C162 67.636 162.672 68.1371 163.5 68.1371Z" fill="#6D3D67"/>
<path d="M181.5 68.1371C182.328 68.1371 183 67.636 183 67.0178C183 66.3997 182.328 65.8986 181.5 65.8986C180.672 65.8986 180 66.3997 180 67.0178C180 67.636 180.672 68.1371 181.5 68.1371Z" fill="#6D3D67"/>
<path d="M199.5 68.1371C200.328 68.1371 201 67.636 201 67.0178C201 66.3997 200.328 65.8986 199.5 65.8986C198.672 65.8986 198 66.3997 198 67.0178C198 67.636 198.672 68.1371 199.5 68.1371Z" fill="#6D3D67"/>
<path d="M217.5 68.1371C218.328 68.1371 219 67.636 219 67.0178C219 66.3997 218.328 65.8986 217.5 65.8986C216.672 65.8986 216 66.3997 216 67.0178C216 67.636 216.672 68.1371 217.5 68.1371Z" fill="#6D3D67"/>
<path d="M235.5 68.1371C236.328 68.1371 237 67.636 237 67.0178C237 66.3997 236.328 65.8986 235.5 65.8986C234.672 65.8986 234 66.3997 234 67.0178C234 67.636 234.672 68.1371 235.5 68.1371Z" fill="#6D3D67"/>
<path d="M253.5 68.1371C254.328 68.1371 255 67.636 255 67.0178C255 66.3997 254.328 65.8986 253.5 65.8986C252.672 65.8986 252 66.3997 252 67.0178C252 67.636 252.672 68.1371 253.5 68.1371Z" fill="#6D3D67"/>
<path d="M271.5 68.1371C272.328 68.1371 273 67.636 273 67.0178C273 66.3997 272.328 65.8986 271.5 65.8986C270.672 65.8986 270 66.3997 270 67.0178C270 67.636 270.672 68.1371 271.5 68.1371Z" fill="#6D3D67"/>
<path d="M289.5 68.1371C290.328 68.1371 291 67.636 291 67.0178C291 66.3997 290.328 65.8986 289.5 65.8986C288.672 65.8986 288 66.3997 288 67.0178C288 67.636 288.672 68.1371 289.5 68.1371Z" fill="#6D3D67"/>
<path d="M307.5 68.1371C308.328 68.1371 309 67.636 309 67.0178C309 66.3997 308.328 65.8986 307.5 65.8986C306.672 65.8986 306 66.3997 306 67.0178C306 67.636 306.672 68.1371 307.5 68.1371Z" fill="#6D3D67"/>
<path d="M325.5 68.1371C326.328 68.1371 327 67.636 327 67.0178C327 66.3997 326.328 65.8986 325.5 65.8986C324.672 65.8986 324 66.3997 324 67.0178C324 67.636 324.672 68.1371 325.5 68.1371Z" fill="#6D3D67"/>
<path d="M343.5 68.1371C344.328 68.1371 345 67.636 345 67.0178C345 66.3997 344.328 65.8986 343.5 65.8986C342.672 65.8986 342 66.3997 342 67.0178C342 67.636 342.672 68.1371 343.5 68.1371Z" fill="#6D3D67"/>
<path d="M361.5 68.1371C362.328 68.1371 363 67.636 363 67.0178C363 66.3997 362.328 65.8986 361.5 65.8986C360.672 65.8986 360 66.3997 360 67.0178C360 67.636 360.672 68.1371 361.5 68.1371Z" fill="#6D3D67"/>
<path d="M379.5 68.1371C380.328 68.1371 381 67.636 381 67.0178C381 66.3997 380.328 65.8986 379.5 65.8986C378.672 65.8986 378 66.3997 378 67.0178C378 67.636 378.672 68.1371 379.5 68.1371Z" fill="#6D3D67"/>
<path d="M1.5 81.5685C2.32843 81.5685 3 81.0674 3 80.4492C3 79.8311 2.32843 79.33 1.5 79.33C0.671573 79.33 0 79.8311 0 80.4492C0 81.0674 0.671573 81.5685 1.5 81.5685Z" fill="#6D3D67"/>
<path d="M19.5 81.5685C20.3284 81.5685 21 81.0674 21 80.4492C21 79.8311 20.3284 79.33 19.5 79.33C18.6716 79.33 18 79.8311 18 80.4492C18 81.0674 18.6716 81.5685 19.5 81.5685Z" fill="#6D3D67"/>
<path d="M37.5 81.5685C38.3284 81.5685 39 81.0674 39 80.4492C39 79.8311 38.3284 79.33 37.5 79.33C36.6716 79.33 36 79.8311 36 80.4492C36 81.0674 36.6716 81.5685 37.5 81.5685Z" fill="#6D3D67"/>
<path d="M55.5 81.5685C56.3284 81.5685 57 81.0674 57 80.4492C57 79.8311 56.3284 79.33 55.5 79.33C54.6716 79.33 54 79.8311 54 80.4492C54 81.0674 54.6716 81.5685 55.5 81.5685Z" fill="#6D3D67"/>
<path d="M73.5 81.5685C74.3284 81.5685 75 81.0674 75 80.4492C75 79.8311 74.3284 79.33 73.5 79.33C72.6716 79.33 72 79.8311 72 80.4492C72 81.0674 72.6716 81.5685 73.5 81.5685Z" fill="#6D3D67"/>
<path d="M91.5 81.5685C92.3284 81.5685 93 81.0674 93 80.4492C93 79.8311 92.3284 79.33 91.5 79.33C90.6716 79.33 90 79.8311 90 80.4492C90 81.0674 90.6716 81.5685 91.5 81.5685Z" fill="#6D3D67"/>
<path d="M109.5 81.5685C110.328 81.5685 111 81.0674 111 80.4492C111 79.8311 110.328 79.33 109.5 79.33C108.672 79.33 108 79.8311 108 80.4492C108 81.0674 108.672 81.5685 109.5 81.5685Z" fill="#6D3D67"/>
<path d="M127.5 81.5685C128.328 81.5685 129 81.0674 129 80.4492C129 79.8311 128.328 79.33 127.5 79.33C126.672 79.33 126 79.8311 126 80.4492C126 81.0674 126.672 81.5685 127.5 81.5685Z" fill="#6D3D67"/>
<path d="M145.5 81.5685C146.328 81.5685 147 81.0674 147 80.4492C147 79.8311 146.328 79.33 145.5 79.33C144.672 79.33 144 79.8311 144 80.4492C144 81.0674 144.672 81.5685 145.5 81.5685Z" fill="#6D3D67"/>
<path d="M163.5 81.5685C164.328 81.5685 165 81.0674 165 80.4492C165 79.8311 164.328 79.33 163.5 79.33C162.672 79.33 162 79.8311 162 80.4492C162 81.0674 162.672 81.5685 163.5 81.5685Z" fill="#6D3D67"/>
<path d="M181.5 81.5685C182.328 81.5685 183 81.0674 183 80.4492C183 79.8311 182.328 79.33 181.5 79.33C180.672 79.33 180 79.8311 180 80.4492C180 81.0674 180.672 81.5685 181.5 81.5685Z" fill="#6D3D67"/>
<path d="M199.5 81.5685C200.328 81.5685 201 81.0674 201 80.4492C201 79.8311 200.328 79.33 199.5 79.33C198.672 79.33 198 79.8311 198 80.4492C198 81.0674 198.672 81.5685 199.5 81.5685Z" fill="#6D3D67"/>
<path d="M217.5 81.5685C218.328 81.5685 219 81.0674 219 80.4492C219 79.8311 218.328 79.33 217.5 79.33C216.672 79.33 216 79.8311 216 80.4492C216 81.0674 216.672 81.5685 217.5 81.5685Z" fill="#6D3D67"/>
<path d="M235.5 81.5685C236.328 81.5685 237 81.0674 237 80.4492C237 79.8311 236.328 79.33 235.5 79.33C234.672 79.33 234 79.8311 234 80.4492C234 81.0674 234.672 81.5685 235.5 81.5685Z" fill="#6D3D67"/>
<path d="M253.5 81.5685C254.328 81.5685 255 81.0674 255 80.4492C255 79.8311 254.328 79.33 253.5 79.33C252.672 79.33 252 79.8311 252 80.4492C252 81.0674 252.672 81.5685 253.5 81.5685Z" fill="#6D3D67"/>
<path d="M271.5 81.5685C272.328 81.5685 273 81.0674 273 80.4492C273 79.8311 272.328 79.33 271.5 79.33C270.672 79.33 270 79.8311 270 80.4492C270 81.0674 270.672 81.5685 271.5 81.5685Z" fill="#6D3D67"/>
<path d="M289.5 81.5685C290.328 81.5685 291 81.0674 291 80.4492C291 79.8311 290.328 79.33 289.5 79.33C288.672 79.33 288 79.8311 288 80.4492C288 81.0674 288.672 81.5685 289.5 81.5685Z" fill="#6D3D67"/>
<path d="M307.5 81.5685C308.328 81.5685 309 81.0674 309 80.4492C309 79.8311 308.328 79.33 307.5 79.33C306.672 79.33 306 79.8311 306 80.4492C306 81.0674 306.672 81.5685 307.5 81.5685Z" fill="#6D3D67"/>
<path d="M325.5 81.5685C326.328 81.5685 327 81.0674 327 80.4492C327 79.8311 326.328 79.33 325.5 79.33C324.672 79.33 324 79.8311 324 80.4492C324 81.0674 324.672 81.5685 325.5 81.5685Z" fill="#6D3D67"/>
<path d="M343.5 81.5685C344.328 81.5685 345 81.0674 345 80.4492C345 79.8311 344.328 79.33 343.5 79.33C342.672 79.33 342 79.8311 342 80.4492C342 81.0674 342.672 81.5685 343.5 81.5685Z" fill="#6D3D67"/>
<path d="M361.5 81.5685C362.328 81.5685 363 81.0674 363 80.4492C363 79.8311 362.328 79.33 361.5 79.33C360.672 79.33 360 79.8311 360 80.4492C360 81.0674 360.672 81.5685 361.5 81.5685Z" fill="#6D3D67"/>
<path d="M379.5 81.5685C380.328 81.5685 381 81.0674 381 80.4492C381 79.8311 380.328 79.33 379.5 79.33C378.672 79.33 378 79.8311 378 80.4492C378 81.0674 378.672 81.5685 379.5 81.5685Z" fill="#6D3D67"/>
<path d="M1.5 94.9999C2.32843 94.9999 3 94.4988 3 93.8806C3 93.2625 2.32843 92.7614 1.5 92.7614C0.671573 92.7614 0 93.2625 0 93.8806C0 94.4988 0.671573 94.9999 1.5 94.9999Z" fill="#6D3D67"/>
<path d="M19.5 94.9999C20.3284 94.9999 21 94.4988 21 93.8806C21 93.2625 20.3284 92.7614 19.5 92.7614C18.6716 92.7614 18 93.2625 18 93.8806C18 94.4988 18.6716 94.9999 19.5 94.9999Z" fill="#6D3D67"/>
<path d="M37.5 94.9999C38.3284 94.9999 39 94.4988 39 93.8806C39 93.2625 38.3284 92.7614 37.5 92.7614C36.6716 92.7614 36 93.2625 36 93.8806C36 94.4988 36.6716 94.9999 37.5 94.9999Z" fill="#6D3D67"/>
<path d="M55.5 94.9999C56.3284 94.9999 57 94.4988 57 93.8806C57 93.2625 56.3284 92.7614 55.5 92.7614C54.6716 92.7614 54 93.2625 54 93.8806C54 94.4988 54.6716 94.9999 55.5 94.9999Z" fill="#6D3D67"/>
<path d="M73.5 94.9999C74.3284 94.9999 75 94.4988 75 93.8806C75 93.2625 74.3284 92.7614 73.5 92.7614C72.6716 92.7614 72 93.2625 72 93.8806C72 94.4988 72.6716 94.9999 73.5 94.9999Z" fill="#6D3D67"/>
<path d="M91.5 94.9999C92.3284 94.9999 93 94.4988 93 93.8806C93 93.2625 92.3284 92.7614 91.5 92.7614C90.6716 92.7614 90 93.2625 90 93.8806C90 94.4988 90.6716 94.9999 91.5 94.9999Z" fill="#6D3D67"/>
<path d="M109.5 94.9999C110.328 94.9999 111 94.4988 111 93.8806C111 93.2625 110.328 92.7614 109.5 92.7614C108.672 92.7614 108 93.2625 108 93.8806C108 94.4988 108.672 94.9999 109.5 94.9999Z" fill="#6D3D67"/>
<path d="M127.5 94.9999C128.328 94.9999 129 94.4988 129 93.8806C129 93.2625 128.328 92.7614 127.5 92.7614C126.672 92.7614 126 93.2625 126 93.8806C126 94.4988 126.672 94.9999 127.5 94.9999Z" fill="#6D3D67"/>
<path d="M145.5 94.9999C146.328 94.9999 147 94.4988 147 93.8806C147 93.2625 146.328 92.7614 145.5 92.7614C144.672 92.7614 144 93.2625 144 93.8806C144 94.4988 144.672 94.9999 145.5 94.9999Z" fill="#6D3D67"/>
<path d="M163.5 94.9999C164.328 94.9999 165 94.4988 165 93.8806C165 93.2625 164.328 92.7614 163.5 92.7614C162.672 92.7614 162 93.2625 162 93.8806C162 94.4988 162.672 94.9999 163.5 94.9999Z" fill="#6D3D67"/>
<path d="M181.5 94.9999C182.328 94.9999 183 94.4988 183 93.8806C183 93.2625 182.328 92.7614 181.5 92.7614C180.672 92.7614 180 93.2625 180 93.8806C180 94.4988 180.672 94.9999 181.5 94.9999Z" fill="#6D3D67"/>
<path d="M199.5 94.9999C200.328 94.9999 201 94.4988 201 93.8806C201 93.2625 200.328 92.7614 199.5 92.7614C198.672 92.7614 198 93.2625 198 93.8806C198 94.4988 198.672 94.9999 199.5 94.9999Z" fill="#6D3D67"/>
<path d="M217.5 94.9999C218.328 94.9999 219 94.4988 219 93.8806C219 93.2625 218.328 92.7614 217.5 92.7614C216.672 92.7614 216 93.2625 216 93.8806C216 94.4988 216.672 94.9999 217.5 94.9999Z" fill="#6D3D67"/>
<path d="M235.5 94.9999C236.328 94.9999 237 94.4988 237 93.8806C237 93.2625 236.328 92.7614 235.5 92.7614C234.672 92.7614 234 93.2625 234 93.8806C234 94.4988 234.672 94.9999 235.5 94.9999Z" fill="#6D3D67"/>
<path d="M253.5 94.9999C254.328 94.9999 255 94.4988 255 93.8806C255 93.2625 254.328 92.7614 253.5 92.7614C252.672 92.7614 252 93.2625 252 93.8806C252 94.4988 252.672 94.9999 253.5 94.9999Z" fill="#6D3D67"/>
<path d="M271.5 94.9999C272.328 94.9999 273 94.4988 273 93.8806C273 93.2625 272.328 92.7614 271.5 92.7614C270.672 92.7614 270 93.2625 270 93.8806C270 94.4988 270.672 94.9999 271.5 94.9999Z" fill="#6D3D67"/>
<path d="M289.5 94.9999C290.328 94.9999 291 94.4988 291 93.8806C291 93.2625 290.328 92.7614 289.5 92.7614C288.672 92.7614 288 93.2625 288 93.8806C288 94.4988 288.672 94.9999 289.5 94.9999Z" fill="#6D3D67"/>
<path d="M307.5 94.9999C308.328 94.9999 309 94.4988 309 93.8806C309 93.2625 308.328 92.7614 307.5 92.7614C306.672 92.7614 306 93.2625 306 93.8806C306 94.4988 306.672 94.9999 307.5 94.9999Z" fill="#6D3D67"/>
<path d="M325.5 94.9999C326.328 94.9999 327 94.4988 327 93.8806C327 93.2625 326.328 92.7614 325.5 92.7614C324.672 92.7614 324 93.2625 324 93.8806C324 94.4988 324.672 94.9999 325.5 94.9999Z" fill="#6D3D67"/>
<path d="M343.5 94.9999C344.328 94.9999 345 94.4988 345 93.8806C345 93.2625 344.328 92.7614 343.5 92.7614C342.672 92.7614 342 93.2625 342 93.8806C342 94.4988 342.672 94.9999 343.5 94.9999Z" fill="#6D3D67"/>
<path d="M361.5 94.9999C362.328 94.9999 363 94.4988 363 93.8806C363 93.2625 362.328 92.7614 361.5 92.7614C360.672 92.7614 360 93.2625 360 93.8806C360 94.4988 360.672 94.9999 361.5 94.9999Z" fill="#6D3D67"/>
<path d="M379.5 94.9999C380.328 94.9999 381 94.4988 381 93.8806C381 93.2625 380.328 92.7614 379.5 92.7614C378.672 92.7614 378 93.2625 378 93.8806C378 94.4988 378.672 94.9999 379.5 94.9999Z" fill="#6D3D67"/>
</svg>
