<svg width="20" height="20" viewBox="0 0 20 20" fill="none" xmlns="http://www.w3.org/2000/svg">
<g clip-path="url(#clip0_300_394)">
<path d="M20.0005 10.0615C20.0005 4.50402 15.523 -0.000976562 10.0005 -0.000976562C4.47555 0.000273438 -0.00195312 4.50402 -0.00195312 10.0628C-0.00195312 15.084 3.65555 19.2465 8.43555 20.0015V12.9703H5.89805V10.0628H8.43805V7.84402C8.43805 5.32277 9.9318 3.93027 12.2155 3.93027C13.3105 3.93027 14.4543 4.12652 14.4543 4.12652V6.60152H13.193C11.9518 6.60152 11.5643 7.37777 11.5643 8.17402V10.0615H14.3368L13.8943 12.969H11.563V20.0003C16.343 19.2453 20.0005 15.0828 20.0005 10.0615Z" fill="#6D3D67"/>
</g>
<defs>
<clipPath id="clip0_300_394">
<rect width="20" height="20" fill="white"/>
</clipPath>
</defs>
</svg>
