<svg width="30" height="36" viewBox="0 0 30 36" fill="none" xmlns="http://www.w3.org/2000/svg">
<path d="M26.1918 16H8.3335V18H26.1918C26.4128 18 26.6248 17.8946 26.7811 17.7071C26.9374 17.5196 27.0252 17.2652 27.0252 17C27.0252 16.7348 26.9374 16.4804 26.7811 16.2929C26.6248 16.1054 26.4128 16 26.1918 16Z" fill="#6D3D67"/>
<path d="M26.1918 24H8.3335V26H26.1918C26.4128 26 26.6248 25.8946 26.7811 25.7071C26.9374 25.5196 27.0252 25.2652 27.0252 25C27.0252 24.7348 26.9374 24.4804 26.7811 24.2929C26.6248 24.1054 26.4128 24 26.1918 24Z" fill="#6D3D67"/>
<path d="M12.875 10H26.2083C26.4293 10 26.6413 9.89464 26.7976 9.70711C26.9539 9.51957 27.0417 9.26522 27.0417 9C27.0417 8.73478 26.9539 8.48043 26.7976 8.29289C26.6413 8.10536 26.4293 8 26.2083 8H14.5417L12.875 10Z" fill="#6D3D67"/>
<path d="M14.5831 3.42C14.4986 3.3175 14.3981 3.23613 14.2872 3.1806C14.1763 3.12506 14.0574 3.09647 13.9373 3.09647C13.8171 3.09647 13.6982 3.12506 13.5874 3.1806C13.4765 3.23613 13.3759 3.3175 13.2914 3.42L6.57478 11.48L3.75811 7.84C3.59235 7.6265 3.3627 7.50076 3.11969 7.49045C2.87667 7.48013 2.64019 7.58608 2.46228 7.785C2.28436 7.98391 2.17958 8.25949 2.17098 8.55111C2.16239 8.84273 2.25068 9.1265 2.41644 9.34L6.53311 14.64L14.5831 5C14.6713 4.89744 14.7414 4.77467 14.7893 4.63896C14.8372 4.50325 14.8619 4.35737 14.8619 4.21C14.8619 4.06262 14.8372 3.91675 14.7893 3.78104C14.7414 3.64533 14.6713 3.52255 14.5831 3.42Z" fill="#6D3D67"/>
</svg>
