<svg width="19" height="19" viewBox="0 0 19 19" fill="none" xmlns="http://www.w3.org/2000/svg">
<g clip-path="url(#clip0_1533_999)">
<path d="M5.54167 4.75002H18.2083C18.4183 4.75002 18.6197 4.66661 18.7681 4.51815C18.9166 4.36968 19 4.16832 19 3.95835C19 3.74839 18.9166 3.54703 18.7681 3.39856C18.6197 3.25009 18.4183 3.16669 18.2083 3.16669H5.54167C5.3317 3.16669 5.13034 3.25009 4.98187 3.39856C4.83341 3.54703 4.75 3.74839 4.75 3.95835C4.75 4.16832 4.83341 4.36968 4.98187 4.51815C5.13034 4.66661 5.3317 4.75002 5.54167 4.75002Z" fill="black"/>
<path d="M18.2083 8.70831H5.54167C5.3317 8.70831 5.13034 8.79172 4.98187 8.94019C4.83341 9.08865 4.75 9.29002 4.75 9.49998C4.75 9.70994 4.83341 9.91131 4.98187 10.0598C5.13034 10.2082 5.3317 10.2916 5.54167 10.2916H18.2083C18.4183 10.2916 18.6197 10.2082 18.7681 10.0598C18.9166 9.91131 19 9.70994 19 9.49998C19 9.29002 18.9166 9.08865 18.7681 8.94019C18.6197 8.79172 18.4183 8.70831 18.2083 8.70831Z" fill="black"/>
<path d="M18.2083 14.25H5.54167C5.3317 14.25 5.13034 14.3334 4.98187 14.4819C4.83341 14.6303 4.75 14.8317 4.75 15.0417C4.75 15.2516 4.83341 15.453 4.98187 15.6015C5.13034 15.7499 5.3317 15.8333 5.54167 15.8333H18.2083C18.4183 15.8333 18.6197 15.7499 18.7681 15.6015C18.9166 15.453 19 15.2516 19 15.0417C19 14.8317 18.9166 14.6303 18.7681 14.4819C18.6197 14.3334 18.4183 14.25 18.2083 14.25Z" fill="black"/>
<path d="M1.58333 5.54167C2.45778 5.54167 3.16667 4.83278 3.16667 3.95833C3.16667 3.08388 2.45778 2.375 1.58333 2.375C0.708882 2.375 0 3.08388 0 3.95833C0 4.83278 0.708882 5.54167 1.58333 5.54167Z" fill="black"/>
<path d="M1.58333 11.0834C2.45778 11.0834 3.16667 10.3745 3.16667 9.50002C3.16667 8.62557 2.45778 7.91669 1.58333 7.91669C0.708882 7.91669 0 8.62557 0 9.50002C0 10.3745 0.708882 11.0834 1.58333 11.0834Z" fill="black"/>
<path d="M1.58333 16.625C2.45778 16.625 3.16667 15.9161 3.16667 15.0416C3.16667 14.1672 2.45778 13.4583 1.58333 13.4583C0.708882 13.4583 0 14.1672 0 15.0416C0 15.9161 0.708882 16.625 1.58333 16.625Z" fill="black"/>
</g>
<defs>
<clipPath id="clip0_1533_999">
<rect width="19" height="19" fill="white"/>
</clipPath>
</defs>
</svg>
