<svg width="208" height="187" viewBox="0 0 208 187" fill="none" xmlns="http://www.w3.org/2000/svg">
<g clip-path="url(#clip0_416_1040)">
<path d="M15.5212 60.1426C16.798 59.3772 17.1394 57.5995 16.2837 56.1719C15.4279 54.7443 13.6991 54.2076 12.4223 54.973C11.1454 55.7383 10.8041 57.5161 11.6598 58.9436C12.5155 60.3712 14.2443 60.908 15.5212 60.1426Z" fill="#9E848D" fill-opacity="0.4"/>
<path d="M35.5581 48.1317C36.8349 47.3663 37.1763 45.5886 36.3205 44.161C35.4648 42.7335 33.736 42.1967 32.4592 42.9621C31.1823 43.7275 30.8409 45.5052 31.6967 46.9328C32.5524 48.3603 34.2812 48.8971 35.5581 48.1317Z" fill="#9E848D" fill-opacity="0.4"/>
<path d="M55.5947 36.1208C56.8715 35.3554 57.2129 33.5777 56.3572 32.1501C55.5014 30.7225 53.7726 30.1858 52.4958 30.9512C51.2189 31.7166 50.8775 33.4943 51.7333 34.9219C52.589 36.3494 54.3178 36.8862 55.5947 36.1208Z" fill="#9E848D" fill-opacity="0.4"/>
<path d="M75.6315 24.1099C76.9084 23.3445 77.2498 21.5668 76.394 20.1392C75.5383 18.7117 73.8095 18.1749 72.5326 18.9403C71.2558 19.7057 70.9144 21.4834 71.7701 22.911C72.6259 24.3385 74.3547 24.8753 75.6315 24.1099Z" fill="#9E848D" fill-opacity="0.4"/>
<path d="M95.6684 12.099C96.9452 11.3336 97.2866 9.55588 96.4309 8.12833C95.5751 6.70077 93.8463 6.16398 92.5695 6.92938C91.2927 7.69477 90.9513 9.47251 91.807 10.9001C92.6628 12.3276 94.3915 12.8644 95.6684 12.099Z" fill="#9E848D" fill-opacity="0.4"/>
<path d="M8.91303 94.5552C10.1899 93.7898 10.5313 92.0121 9.67552 90.5845C8.81978 89.1569 7.09098 88.6202 5.81413 89.3856C4.53729 90.1509 4.19591 91.9287 5.05164 93.3562C5.90738 94.7838 7.63618 95.3206 8.91303 94.5552Z" fill="#9E848D" fill-opacity="0.4"/>
<path d="M28.9496 82.5443C30.2265 81.7789 30.5679 80.0012 29.7121 78.5736C28.8564 77.1461 27.1276 76.6093 25.8508 77.3747C24.5739 78.1401 24.2325 79.9178 25.0883 81.3454C25.944 82.7729 27.6728 83.3097 28.9496 82.5443Z" fill="#9E848D" fill-opacity="0.4"/>
<path d="M48.9865 70.5335C50.2634 69.7681 50.6047 67.9903 49.749 66.5628C48.8933 65.1352 47.1645 64.5984 45.8876 65.3638C44.6108 66.1292 44.2694 67.907 45.1251 69.3345C45.9809 70.7621 47.7097 71.2988 48.9865 70.5335Z" fill="#9E848D" fill-opacity="0.4"/>
<path d="M69.0234 58.5225C70.3002 57.7571 70.6416 55.9794 69.7859 54.5518C68.9301 53.1243 67.2013 52.5875 65.9245 53.3529C64.6476 54.1183 64.3063 55.896 65.162 57.3236C66.0177 58.7511 67.7465 59.2879 69.0234 58.5225Z" fill="#9E848D" fill-opacity="0.4"/>
<path d="M89.06 46.5117C90.3369 45.7463 90.6782 43.9685 89.8225 42.541C88.9668 41.1134 87.238 40.5766 85.9611 41.342C84.6843 42.1074 84.3429 43.8852 85.1986 45.3127C86.0544 46.7403 87.7832 47.2771 89.06 46.5117Z" fill="#9E848D" fill-opacity="0.4"/>
<path d="M109.097 34.5007C110.374 33.7353 110.715 31.9576 109.859 30.5301C109.004 29.1025 107.275 28.5657 105.998 29.3311C104.721 30.0965 104.38 31.8742 105.235 33.3018C106.091 34.7294 107.82 35.2661 109.097 34.5007Z" fill="#9E848D" fill-opacity="0.4"/>
<path d="M2.30463 128.968C3.58148 128.202 3.92286 126.425 3.06712 124.997C2.21138 123.57 0.482583 123.033 -0.794265 123.798C-2.07111 124.564 -2.41249 126.341 -1.55675 127.769C-0.701018 129.196 1.02778 129.733 2.30463 128.968Z" fill="#9E848D" fill-opacity="0.4"/>
<path d="M22.3415 116.957C23.6183 116.192 23.9597 114.414 23.104 112.986C22.2482 111.559 20.5194 111.022 19.2426 111.787C17.9658 112.553 17.6244 114.33 18.4801 115.758C19.3358 117.186 21.0646 117.722 22.3415 116.957Z" fill="#9E848D" fill-opacity="0.4"/>
<path d="M42.3784 104.946C43.6552 104.181 43.9966 102.403 43.1409 100.975C42.2851 99.5478 40.5563 99.011 39.2795 99.7764C38.0026 100.542 37.6612 102.32 38.517 103.747C39.3727 105.175 41.1015 105.711 42.3784 104.946Z" fill="#9E848D" fill-opacity="0.4"/>
<path d="M62.415 92.9352C63.6918 92.1698 64.0332 90.392 63.1775 88.9645C62.3217 87.5369 60.5929 87.0002 59.3161 87.7656C58.0392 88.531 57.6979 90.3087 58.5536 91.7362C59.4093 93.1638 61.1381 93.7006 62.415 92.9352Z" fill="#9E848D" fill-opacity="0.4"/>
<path d="M82.4519 80.9243C83.7287 80.1589 84.0701 78.3811 83.2143 76.9536C82.3586 75.526 80.6298 74.9892 79.353 75.7546C78.0761 76.52 77.7347 78.2978 78.5905 79.7253C79.4462 81.1529 81.175 81.6897 82.4519 80.9243Z" fill="#9E848D" fill-opacity="0.4"/>
<path d="M102.488 68.9134C103.765 68.148 104.107 66.3703 103.251 64.9427C102.395 63.5151 100.666 62.9784 99.3896 63.7438C98.1127 64.5092 97.7713 66.2869 98.6271 67.7145C99.4828 69.142 101.212 69.6788 102.488 68.9134Z" fill="#9E848D" fill-opacity="0.4"/>
<path d="M122.525 56.9025C123.802 56.1371 124.144 54.3593 123.288 52.9318C122.432 51.5042 120.703 50.9675 119.426 51.7328C118.15 52.4982 117.808 54.276 118.664 55.7035C119.52 57.1311 121.248 57.6679 122.525 56.9025Z" fill="#9E848D" fill-opacity="0.4"/>
<path d="M15.7333 151.37C17.0102 150.604 17.3516 148.826 16.4958 147.399C15.6401 145.971 13.9113 145.435 12.6344 146.2C11.3576 146.965 11.0162 148.743 11.872 150.171C12.7277 151.598 14.4565 152.135 15.7333 151.37Z" fill="#9E848D" fill-opacity="0.4"/>
<path d="M35.77 139.359C37.0468 138.593 37.3882 136.816 36.5324 135.388C35.6767 133.96 33.9479 133.424 32.6711 134.189C31.3942 134.954 31.0528 136.732 31.9086 138.16C32.7643 139.587 34.4931 140.124 35.77 139.359Z" fill="#9E848D" fill-opacity="0.4"/>
<path d="M55.8068 127.348C57.0837 126.582 57.4251 124.805 56.5693 123.377C55.7136 121.95 53.9848 121.413 52.7079 122.178C51.4311 122.944 51.0897 124.721 51.9454 126.149C52.8012 127.576 54.53 128.113 55.8068 127.348Z" fill="#9E848D" fill-opacity="0.4"/>
<path d="M75.8435 115.337C77.1203 114.572 77.4617 112.794 76.6059 111.366C75.7502 109.939 74.0214 109.402 72.7446 110.167C71.4677 110.933 71.1263 112.71 71.9821 114.138C72.8378 115.566 74.5666 116.102 75.8435 115.337Z" fill="#9E848D" fill-opacity="0.4"/>
<path d="M95.8803 103.326C97.1572 102.561 97.4985 100.783 96.6428 99.3553C95.7871 97.9277 94.0583 97.391 92.7814 98.1564C91.5046 98.9218 91.1632 100.699 92.0189 102.127C92.8747 103.555 94.6035 104.091 95.8803 103.326Z" fill="#9E848D" fill-opacity="0.4"/>
<path d="M115.917 91.3151C117.194 90.5497 117.535 88.772 116.68 87.3444C115.824 85.9169 114.095 85.3801 112.818 86.1455C111.541 86.9109 111.2 88.6886 112.056 90.1162C112.912 91.5437 114.64 92.0805 115.917 91.3151Z" fill="#9E848D" fill-opacity="0.4"/>
<path d="M135.954 79.3042C137.231 78.5388 137.572 76.7611 136.716 75.3335C135.861 73.906 134.132 73.3692 132.855 74.1346C131.578 74.9 131.237 76.6777 132.092 78.1053C132.948 79.5328 134.677 80.0696 135.954 79.3042Z" fill="#9E848D" fill-opacity="0.4"/>
<path d="M9.12495 185.782C10.4018 185.017 10.7432 183.239 9.88743 181.811C9.0317 180.384 7.30289 179.847 6.02605 180.613C4.7492 181.378 4.40782 183.156 5.26356 184.583C6.1193 186.011 7.8481 186.548 9.12495 185.782Z" fill="#9E848D" fill-opacity="0.4"/>
<path d="M29.1618 173.771C30.4387 173.006 30.78 171.228 29.9243 169.801C29.0686 168.373 27.3398 167.836 26.0629 168.602C24.7861 169.367 24.4447 171.145 25.3004 172.572C26.1562 174 27.885 174.537 29.1618 173.771Z" fill="#9E848D" fill-opacity="0.4"/>
<path d="M49.1984 161.76C50.4753 160.995 50.8167 159.217 49.9609 157.79C49.1052 156.362 47.3764 155.825 46.0995 156.591C44.8227 157.356 44.4813 159.134 45.337 160.561C46.1928 161.989 47.9216 162.526 49.1984 161.76Z" fill="#9E848D" fill-opacity="0.4"/>
<path d="M69.2353 149.75C70.5121 148.984 70.8535 147.206 69.9978 145.779C69.142 144.351 67.4132 143.814 66.1364 144.58C64.8596 145.345 64.5182 147.123 65.3739 148.551C66.2296 149.978 67.9585 150.515 69.2353 149.75Z" fill="#9E848D" fill-opacity="0.4"/>
<path d="M89.2722 137.739C90.549 136.973 90.8904 135.195 90.0347 133.768C89.1789 132.34 87.4501 131.804 86.1733 132.569C84.8964 133.334 84.555 135.112 85.4108 136.54C86.2665 137.967 87.9953 138.504 89.2722 137.739Z" fill="#9E848D" fill-opacity="0.4"/>
<path d="M109.309 125.728C110.586 124.962 110.927 123.185 110.071 121.757C109.216 120.329 107.487 119.793 106.21 120.558C104.933 121.323 104.592 123.101 105.447 124.529C106.303 125.956 108.032 126.493 109.309 125.728Z" fill="#9E848D" fill-opacity="0.4"/>
<path d="M129.346 113.717C130.623 112.951 130.964 111.174 130.108 109.746C129.252 108.319 127.524 107.782 126.247 108.547C124.97 109.313 124.629 111.09 125.484 112.518C126.34 113.945 128.069 114.482 129.346 113.717Z" fill="#9E848D" fill-opacity="0.4"/>
<path d="M149.383 101.706C150.659 100.941 151.001 99.1628 150.145 97.7353C149.289 96.3077 147.56 95.7709 146.284 96.5363C145.007 97.3017 144.665 99.0794 145.521 100.507C146.377 101.935 148.106 102.471 149.383 101.706Z" fill="#9E848D" fill-opacity="0.4"/>
<path d="M62.6271 184.162C63.904 183.397 64.2454 181.619 63.3896 180.191C62.5339 178.764 60.8051 178.227 59.5282 178.993C58.2514 179.758 57.91 181.536 58.7658 182.963C59.6215 184.391 61.3503 184.928 62.6271 184.162Z" fill="#9E848D" fill-opacity="0.4"/>
<path d="M82.6638 172.151C83.9406 171.386 84.282 169.608 83.4263 168.181C82.5705 166.753 80.8417 166.216 79.5649 166.982C78.288 167.747 77.9466 169.525 78.8024 170.952C79.6581 172.38 81.3869 172.917 82.6638 172.151Z" fill="#9E848D" fill-opacity="0.4"/>
<path d="M102.701 160.14C103.977 159.375 104.319 157.597 103.463 156.17C102.607 154.742 100.879 154.205 99.6017 154.971C98.3249 155.736 97.9835 157.514 98.8392 158.941C99.695 160.369 101.424 160.906 102.701 160.14Z" fill="#9E848D" fill-opacity="0.4"/>
<path d="M122.737 148.129C124.014 147.364 124.356 145.586 123.5 144.159C122.644 142.731 120.915 142.194 119.639 142.96C118.362 143.725 118.02 145.503 118.876 146.931C119.732 148.358 121.461 148.895 122.737 148.129Z" fill="#9E848D" fill-opacity="0.4"/>
<path d="M142.774 136.119C144.051 135.353 144.392 133.575 143.537 132.148C142.681 130.72 140.952 130.184 139.675 130.949C138.398 131.714 138.057 133.492 138.913 134.92C139.768 136.347 141.497 136.884 142.774 136.119Z" fill="#9E848D" fill-opacity="0.4"/>
<path d="M162.811 124.108C164.088 123.342 164.429 121.565 163.573 120.137C162.718 118.709 160.989 118.173 159.712 118.938C158.435 119.703 158.094 121.481 158.95 122.909C159.805 124.336 161.534 124.873 162.811 124.108Z" fill="#9E848D" fill-opacity="0.4"/>
<path d="M116.129 182.542C117.406 181.777 117.747 179.999 116.892 178.571C116.036 177.144 114.307 176.607 113.03 177.372C111.753 178.138 111.412 179.916 112.268 181.343C113.123 182.771 114.852 183.307 116.129 182.542Z" fill="#9E848D" fill-opacity="0.4"/>
<path d="M136.166 170.531C137.443 169.766 137.784 167.988 136.928 166.561C136.073 165.133 134.344 164.596 133.067 165.362C131.79 166.127 131.449 167.905 132.305 169.332C133.16 170.76 134.889 171.297 136.166 170.531Z" fill="#9E848D" fill-opacity="0.4"/>
<path d="M156.203 158.52C157.48 157.755 157.821 155.977 156.965 154.55C156.11 153.122 154.381 152.585 153.104 153.351C151.827 154.116 151.486 155.894 152.341 157.321C153.197 158.749 154.926 159.286 156.203 158.52Z" fill="#9E848D" fill-opacity="0.4"/>
<path d="M176.239 146.509C177.516 145.744 177.858 143.966 177.002 142.539C176.146 141.111 174.417 140.574 173.141 141.34C171.864 142.105 171.522 143.883 172.378 145.31C173.234 146.738 174.963 147.275 176.239 146.509Z" fill="#9E848D" fill-opacity="0.4"/>
<path d="M149.594 192.933C150.871 192.168 151.213 190.39 150.357 188.962C149.501 187.535 147.772 186.998 146.496 187.763C145.219 188.529 144.877 190.306 145.733 191.734C146.589 193.162 148.318 193.698 149.594 192.933Z" fill="#9E848D" fill-opacity="0.4"/>
<path d="M169.631 180.922C170.908 180.157 171.25 178.379 170.394 176.951C169.538 175.524 167.809 174.987 166.532 175.752C165.256 176.518 164.914 178.296 165.77 179.723C166.626 181.151 168.354 181.687 169.631 180.922Z" fill="#9E848D" fill-opacity="0.4"/>
<path d="M189.668 168.911C190.945 168.146 191.286 166.368 190.431 164.941C189.575 163.513 187.846 162.976 186.569 163.742C185.292 164.507 184.951 166.285 185.807 167.712C186.663 169.14 188.391 169.677 189.668 168.911Z" fill="#9E848D" fill-opacity="0.4"/>
</g>
<defs>
<clipPath id="clip0_416_1040">
<rect width="179.7" height="200.91" fill="white" transform="translate(-50 92.3915) rotate(-30.9402)"/>
</clipPath>
</defs>
</svg>
