<svg width="290" height="294" viewBox="0 0 290 294" fill="none" xmlns="http://www.w3.org/2000/svg">
<g clip-path="url(#clip0_376_406)">
<path d="M137.131 6.95049C138.376 7.9671 140.32 7.64737 141.472 6.23635C142.623 4.82533 142.548 2.85735 141.302 1.84074C140.057 0.824126 138.114 1.14386 136.962 2.55488C135.81 3.96589 135.886 5.93388 137.131 6.95049Z" fill="#B6AA94"/>
<path d="M156.673 22.9035C157.918 23.9201 159.861 23.6004 161.013 22.1894C162.165 20.7783 162.089 18.8103 160.844 17.7937C159.599 16.7771 157.655 17.0969 156.504 18.5079C155.352 19.9189 155.427 21.8869 156.673 22.9035Z" fill="#B6AA94"/>
<path d="M176.214 38.8566C177.459 39.8732 179.403 39.5535 180.555 38.1425C181.707 36.7315 181.631 34.7635 180.386 33.7469C179.14 32.7303 177.197 33.05 176.045 34.461C174.893 35.872 174.969 37.84 176.214 38.8566Z" fill="#B6AA94"/>
<path d="M195.756 54.8096C197.001 55.8262 198.944 55.5065 200.096 54.0955C201.248 52.6845 201.172 50.7165 199.927 49.6999C198.682 48.6833 196.738 49.003 195.587 50.414C194.435 51.825 194.51 53.793 195.756 54.8096Z" fill="#B6AA94"/>
<path d="M215.297 70.7626C216.542 71.7792 218.486 71.4595 219.638 70.0485C220.79 68.6375 220.714 66.6695 219.469 65.6529C218.223 64.6363 216.28 64.956 215.128 66.367C213.976 67.778 214.052 69.746 215.297 70.7626Z" fill="#B6AA94"/>
<path d="M234.839 86.7156C236.084 87.7322 238.027 87.4125 239.179 86.0015C240.331 84.5905 240.255 82.6225 239.01 81.6059C237.765 80.5893 235.821 80.909 234.67 82.32C233.518 83.731 233.593 85.699 234.839 86.7156Z" fill="#B6AA94"/>
<path d="M254.38 102.669C255.625 103.685 257.569 103.366 258.721 101.955C259.873 100.544 259.797 98.5756 258.552 97.559C257.306 96.5424 255.363 96.8621 254.211 98.2731C253.059 99.6842 253.135 101.652 254.38 102.669Z" fill="#B6AA94"/>
<path d="M273.922 118.622C275.167 119.638 277.11 119.319 278.262 117.908C279.414 116.497 279.338 114.529 278.093 113.512C276.848 112.496 274.905 112.815 273.753 114.226C272.601 115.637 272.676 117.605 273.922 118.622Z" fill="#B6AA94"/>
<path d="M119.055 29.0927C120.3 30.1093 122.243 29.7896 123.395 28.3786C124.547 26.9675 124.472 24.9996 123.226 23.9829C121.981 22.9663 120.038 23.2861 118.886 24.6971C117.734 26.1081 117.81 28.0761 119.055 29.0927Z" fill="#B6AA94"/>
<path d="M138.596 45.0458C139.842 46.0624 141.785 45.7427 142.937 44.3317C144.089 42.9207 144.013 40.9527 142.768 39.9361C141.523 38.9195 139.579 39.2392 138.427 40.6502C137.275 42.0612 137.351 44.0292 138.596 45.0458Z" fill="#B6AA94"/>
<path d="M158.138 60.9988C159.383 62.0154 161.326 61.6957 162.478 60.2847C163.63 58.8737 163.555 56.9057 162.309 55.8891C161.064 54.8725 159.121 55.1922 157.969 56.6032C156.817 58.0142 156.893 59.9822 158.138 60.9988Z" fill="#B6AA94"/>
<path d="M177.679 76.9518C178.925 77.9684 180.868 77.6487 182.02 76.2377C183.172 74.8267 183.096 72.8587 181.851 71.8421C180.606 70.8255 178.662 71.1452 177.51 72.5562C176.358 73.9672 176.434 75.9352 177.679 76.9518Z" fill="#B6AA94"/>
<path d="M197.221 92.9048C198.466 93.9214 200.41 93.6017 201.561 92.1907C202.713 90.7797 202.638 88.8117 201.392 87.7951C200.147 86.7785 198.204 87.0982 197.052 88.5092C195.9 89.9202 195.976 91.8882 197.221 92.9048Z" fill="#B6AA94"/>
<path d="M216.762 108.858C218.008 109.875 219.951 109.555 221.103 108.144C222.255 106.733 222.179 104.765 220.934 103.748C219.689 102.732 217.745 103.051 216.593 104.462C215.441 105.873 215.517 107.841 216.762 108.858Z" fill="#B6AA94"/>
<path d="M236.304 124.811C237.549 125.828 239.493 125.508 240.644 124.097C241.796 122.686 241.721 120.718 240.475 119.701C239.23 118.685 237.287 119.004 236.135 120.415C234.983 121.826 235.059 123.794 236.304 124.811Z" fill="#B6AA94"/>
<path d="M255.845 140.764C257.091 141.781 259.034 141.461 260.186 140.05C261.338 138.639 261.262 136.671 260.017 135.654C258.772 134.638 256.828 134.957 255.676 136.368C254.525 137.779 254.6 139.747 255.845 140.764Z" fill="#B6AA94"/>
<path d="M100.979 51.235C102.224 52.2516 104.167 51.9319 105.319 50.5209C106.471 49.1099 106.395 47.1419 105.15 46.1253C103.905 45.1087 101.961 45.4284 100.81 46.8394C99.6577 48.2504 99.7334 50.2184 100.979 51.235Z" fill="#B6AA94"/>
<path d="M120.52 67.188C121.765 68.2046 123.709 67.8849 124.861 66.4739C126.013 65.0629 125.937 63.0949 124.692 62.0783C123.446 61.0617 121.503 61.3814 120.351 62.7924C119.199 64.2034 119.275 66.1714 120.52 67.188Z" fill="#B6AA94"/>
<path d="M140.062 83.141C141.307 84.1576 143.25 83.8379 144.402 82.4269C145.554 81.0159 145.478 79.0479 144.233 78.0313C142.988 77.0147 141.045 77.3344 139.893 78.7454C138.741 80.1564 138.816 82.1244 140.062 83.141Z" fill="#B6AA94"/>
<path d="M159.603 99.094C160.848 100.111 162.792 99.7909 163.944 98.3799C165.096 96.9689 165.02 95.0009 163.775 93.9843C162.529 92.9677 160.586 93.2874 159.434 94.6984C158.282 96.1094 158.358 98.0774 159.603 99.094Z" fill="#B6AA94"/>
<path d="M179.145 115.047C180.39 116.064 182.333 115.744 183.485 114.333C184.637 112.922 184.561 110.954 183.316 109.937C182.071 108.921 180.128 109.241 178.976 110.652C177.824 112.063 177.899 114.031 179.145 115.047Z" fill="#B6AA94"/>
<path d="M198.686 131C199.932 132.017 201.875 131.697 203.027 130.286C204.179 128.875 204.103 126.907 202.858 125.891C201.612 124.874 199.669 125.194 198.517 126.605C197.365 128.016 197.441 129.984 198.686 131Z" fill="#B6AA94"/>
<path d="M218.228 146.953C219.473 147.97 221.416 147.65 222.568 146.239C223.72 144.828 223.644 142.86 222.399 141.843C221.154 140.827 219.211 141.147 218.059 142.558C216.907 143.969 216.982 145.937 218.228 146.953Z" fill="#B6AA94"/>
<path d="M237.769 162.906C239.015 163.923 240.958 163.603 242.11 162.192C243.262 160.781 243.186 158.813 241.941 157.797C240.695 156.78 238.752 157.1 237.6 158.511C236.448 159.922 236.524 161.89 237.769 162.906Z" fill="#B6AA94"/>
<path d="M82.9025 73.3772C84.1478 74.3939 86.0911 74.0741 87.243 72.6631C88.3949 71.2521 88.3192 69.2841 87.0739 68.2675C85.8286 67.2509 83.8853 67.5706 82.7334 68.9816C81.5815 70.3927 81.6572 72.3606 82.9025 73.3772Z" fill="#B6AA94"/>
<path d="M102.444 89.3304C103.689 90.347 105.633 90.0273 106.784 88.6162C107.936 87.2052 107.861 85.2372 106.615 84.2206C105.37 83.204 103.427 83.5237 102.275 84.9348C101.123 86.3458 101.199 88.3138 102.444 89.3304Z" fill="#B6AA94"/>
<path d="M121.985 105.283C123.231 106.3 125.174 105.98 126.326 104.569C127.478 103.158 127.402 101.19 126.157 100.173C124.912 99.1569 122.968 99.4766 121.816 100.888C120.665 102.299 120.74 104.267 121.985 105.283Z" fill="#B6AA94"/>
<path d="M141.527 121.236C142.772 122.253 144.716 121.933 145.868 120.522C147.019 119.111 146.944 117.143 145.698 116.127C144.453 115.11 142.51 115.43 141.358 116.841C140.206 118.252 140.282 120.22 141.527 121.236Z" fill="#B6AA94"/>
<path d="M161.069 137.19C162.314 138.206 164.257 137.886 165.409 136.475C166.561 135.064 166.485 133.096 165.24 132.08C163.995 131.063 162.051 131.383 160.899 132.794C159.748 134.205 159.823 136.173 161.069 137.19Z" fill="#B6AA94"/>
<path d="M180.61 153.142C181.855 154.159 183.799 153.839 184.951 152.428C186.102 151.017 186.027 149.049 184.781 148.033C183.536 147.016 181.593 147.336 180.441 148.747C179.289 150.158 179.365 152.126 180.61 153.142Z" fill="#B6AA94"/>
<path d="M200.152 169.096C201.397 170.112 203.34 169.792 204.492 168.381C205.644 166.97 205.568 165.002 204.323 163.986C203.078 162.969 201.134 163.289 199.982 164.7C198.831 166.111 198.906 168.079 200.152 169.096Z" fill="#B6AA94"/>
<path d="M219.693 185.049C220.938 186.065 222.882 185.746 224.034 184.334C225.186 182.923 225.11 180.955 223.865 179.939C222.619 178.922 220.676 179.242 219.524 180.653C218.372 182.064 218.448 184.032 219.693 185.049Z" fill="#B6AA94"/>
<path d="M64.8262 95.5196C66.0715 96.5362 68.0148 96.2165 69.1668 94.8054C70.3187 93.3944 70.243 91.4264 68.9977 90.4098C67.7524 89.3932 65.8091 89.7129 64.6572 91.124C63.5053 92.535 63.581 94.503 64.8262 95.5196Z" fill="#B6AA94"/>
<path d="M84.3678 111.472C85.6131 112.489 87.5564 112.169 88.7083 110.758C89.8602 109.347 89.7845 107.379 88.5392 106.363C87.2939 105.346 85.3506 105.666 84.1987 107.077C83.0468 108.488 83.1225 110.456 84.3678 111.472Z" fill="#B6AA94"/>
<path d="M103.909 127.426C105.155 128.442 107.098 128.122 108.25 126.711C109.402 125.3 109.326 123.332 108.081 122.316C106.835 121.299 104.892 121.619 103.74 123.03C102.588 124.441 102.664 126.409 103.909 127.426Z" fill="#B6AA94"/>
<path d="M123.451 143.379C124.696 144.395 126.639 144.076 127.791 142.665C128.943 141.254 128.868 139.286 127.622 138.269C126.377 137.252 124.434 137.572 123.282 138.983C122.13 140.394 122.206 142.362 123.451 143.379Z" fill="#B6AA94"/>
<path d="M142.992 159.332C144.238 160.348 146.181 160.028 147.333 158.617C148.485 157.206 148.409 155.238 147.164 154.222C145.918 153.205 143.975 153.525 142.823 154.936C141.671 156.347 141.747 158.315 142.992 159.332Z" fill="#B6AA94"/>
<path d="M162.534 175.285C163.779 176.301 165.722 175.982 166.874 174.571C168.026 173.16 167.951 171.192 166.705 170.175C165.46 169.158 163.517 169.478 162.365 170.889C161.213 172.3 161.289 174.268 162.534 175.285Z" fill="#B6AA94"/>
<path d="M182.075 191.238C183.321 192.254 185.264 191.935 186.416 190.524C187.568 189.113 187.492 187.145 186.247 186.128C185.002 185.111 183.058 185.431 181.906 186.842C180.754 188.253 180.83 190.221 182.075 191.238Z" fill="#B6AA94"/>
<path d="M201.617 207.191C202.862 208.207 204.805 207.888 205.957 206.477C207.109 205.066 207.034 203.098 205.788 202.081C204.543 201.064 202.6 201.384 201.448 202.795C200.296 204.206 200.372 206.174 201.617 207.191Z" fill="#B6AA94"/>
<path d="M46.7501 117.662C47.9953 118.678 49.9387 118.359 51.0906 116.948C52.2425 115.537 52.1668 113.569 50.9215 112.552C49.6762 111.535 47.7329 111.855 46.581 113.266C45.4291 114.677 45.5048 116.645 46.7501 117.662Z" fill="#B6AA94"/>
<path d="M66.2916 133.615C67.5369 134.631 69.4802 134.312 70.6321 132.901C71.784 131.49 71.7083 129.522 70.463 128.505C69.2177 127.488 67.2744 127.808 66.1225 129.219C64.9706 130.63 65.0463 132.598 66.2916 133.615Z" fill="#B6AA94"/>
<path d="M85.8331 149.568C87.0784 150.585 89.0217 150.265 90.1736 148.854C91.3255 147.443 91.2498 145.475 90.0045 144.458C88.7592 143.442 86.8159 143.761 85.664 145.172C84.5121 146.583 84.5878 148.551 85.8331 149.568Z" fill="#B6AA94"/>
<path d="M105.375 165.521C106.62 166.537 108.563 166.218 109.715 164.807C110.867 163.396 110.791 161.428 109.546 160.411C108.301 159.394 106.357 159.714 105.206 161.125C104.054 162.536 104.129 164.504 105.375 165.521Z" fill="#B6AA94"/>
<path d="M124.916 181.474C126.161 182.491 128.105 182.171 129.257 180.76C130.409 179.349 130.333 177.381 129.088 176.364C127.842 175.348 125.899 175.667 124.747 177.078C123.595 178.489 123.671 180.457 124.916 181.474Z" fill="#B6AA94"/>
<path d="M144.458 197.427C145.703 198.444 147.646 198.124 148.798 196.713C149.95 195.302 149.874 193.334 148.629 192.317C147.384 191.301 145.44 191.62 144.289 193.031C143.137 194.442 143.212 196.41 144.458 197.427Z" fill="#B6AA94"/>
<path d="M163.999 213.38C165.244 214.397 167.188 214.077 168.34 212.666C169.492 211.255 169.416 209.287 168.171 208.27C166.925 207.254 164.982 207.573 163.83 208.984C162.678 210.395 162.754 212.363 163.999 213.38Z" fill="#B6AA94"/>
<path d="M183.541 229.333C184.786 230.35 186.729 230.03 187.881 228.619C189.033 227.208 188.957 225.24 187.712 224.223C186.467 223.207 184.524 223.526 183.372 224.937C182.22 226.348 182.295 228.316 183.541 229.333Z" fill="#B6AA94"/>
<path d="M28.6739 139.804C29.9192 140.821 31.8625 140.501 33.0144 139.09C34.1663 137.679 34.0906 135.711 32.8453 134.694C31.6 133.678 29.6567 133.997 28.5048 135.408C27.3529 136.819 27.4286 138.787 28.6739 139.804Z" fill="#B6AA94"/>
<path d="M48.2154 155.757C49.4607 156.774 51.404 156.454 52.5559 155.043C53.7078 153.632 53.6321 151.664 52.3868 150.647C51.1415 149.631 49.1982 149.95 48.0463 151.362C46.8944 152.773 46.9701 154.741 48.2154 155.757Z" fill="#B6AA94"/>
<path d="M67.7569 171.71C69.0022 172.727 70.9455 172.407 72.0974 170.996C73.2493 169.585 73.1736 167.617 71.9283 166.6C70.683 165.584 68.7397 165.903 67.5878 167.314C66.4359 168.725 66.5116 170.693 67.7569 171.71Z" fill="#B6AA94"/>
<path d="M87.2984 187.663C88.5437 188.68 90.487 188.36 91.6389 186.949C92.7908 185.538 92.7151 183.57 91.4698 182.553C90.2246 181.537 88.2812 181.857 87.1293 183.268C85.9774 184.679 86.0531 186.647 87.2984 187.663Z" fill="#B6AA94"/>
<path d="M106.84 203.616C108.085 204.633 110.029 204.313 111.18 202.902C112.332 201.491 112.257 199.523 111.011 198.507C109.766 197.49 107.823 197.81 106.671 199.221C105.519 200.632 105.595 202.6 106.84 203.616Z" fill="#B6AA94"/>
<path d="M126.381 219.569C127.627 220.586 129.57 220.266 130.722 218.855C131.874 217.444 131.798 215.476 130.553 214.459C129.308 213.443 127.364 213.763 126.212 215.174C125.06 216.585 125.136 218.553 126.381 219.569Z" fill="#B6AA94"/>
<path d="M145.923 235.522C147.168 236.539 149.112 236.219 150.263 234.808C151.415 233.397 151.34 231.429 150.094 230.413C148.849 229.396 146.906 229.716 145.754 231.127C144.602 232.538 144.678 234.506 145.923 235.522Z" fill="#B6AA94"/>
<path d="M165.464 251.475C166.71 252.492 168.653 252.172 169.805 250.761C170.957 249.35 170.881 247.382 169.636 246.366C168.391 245.349 166.447 245.669 165.295 247.08C164.144 248.491 164.219 250.459 165.464 251.475Z" fill="#B6AA94"/>
<path d="M10.5976 161.946C11.8429 162.963 13.7862 162.643 14.9381 161.232C16.0901 159.821 16.0144 157.853 14.7691 156.837C13.5238 155.82 11.5805 156.14 10.4286 157.551C9.27666 158.962 9.35236 160.93 10.5976 161.946Z" fill="#B6AA94"/>
<path d="M30.1392 177.899C31.3845 178.916 33.3278 178.596 34.4797 177.185C35.6316 175.774 35.5559 173.806 34.3106 172.789C33.0653 171.773 31.122 172.093 29.9701 173.504C28.8182 174.915 28.8939 176.883 30.1392 177.899Z" fill="#B6AA94"/>
<path d="M49.6807 193.852C50.926 194.869 52.8693 194.549 54.0212 193.138C55.1731 191.727 55.0974 189.759 53.8521 188.743C52.6068 187.726 50.6635 188.046 49.5116 189.457C48.3597 190.868 48.4354 192.836 49.6807 193.852Z" fill="#B6AA94"/>
<path d="M69.2222 209.805C70.4675 210.822 72.4108 210.502 73.5627 209.091C74.7146 207.68 74.6389 205.712 73.3936 204.696C72.1483 203.679 70.205 203.999 69.0531 205.41C67.9012 206.821 67.9769 208.789 69.2222 209.805Z" fill="#B6AA94"/>
<path d="M88.7637 225.758C90.009 226.775 91.9523 226.455 93.1042 225.044C94.2561 223.633 94.1804 221.665 92.9352 220.649C91.6899 219.632 89.7466 219.952 88.5946 221.363C87.4427 222.774 87.5184 224.742 88.7637 225.758Z" fill="#B6AA94"/>
<path d="M108.305 241.711C109.551 242.728 111.494 242.408 112.646 240.997C113.798 239.586 113.722 237.618 112.477 236.602C111.231 235.585 109.288 235.905 108.136 237.316C106.984 238.727 107.06 240.695 108.305 241.711Z" fill="#B6AA94"/>
<path d="M127.847 257.665C129.092 258.681 131.035 258.361 132.187 256.95C133.339 255.539 133.263 253.571 132.018 252.555C130.773 251.538 128.83 251.858 127.678 253.269C126.526 254.68 126.601 256.648 127.847 257.665Z" fill="#B6AA94"/>
<path d="M147.388 273.617C148.634 274.634 150.577 274.314 151.729 272.903C152.881 271.492 152.805 269.524 151.56 268.508C150.314 267.491 148.371 267.811 147.219 269.222C146.067 270.633 146.143 272.601 147.388 273.617Z" fill="#B6AA94"/>
</g>
<defs>
<clipPath id="clip0_376_406">
<rect width="194.049" height="219.875" fill="white" transform="translate(139.048) rotate(39.2271)"/>
</clipPath>
</defs>
</svg>
