<svg width="22" height="24" viewBox="0 0 22 24" fill="none" xmlns="http://www.w3.org/2000/svg">
<rect y="0.591797" width="10.9078" height="2.2818" rx="1.1409" fill="#5C5366"/>
<rect y="6.29565" width="8.48389" height="2.28186" rx="1.14093" fill="#5C5366"/>
<rect y="11.9996" width="6.05991" height="2.2818" rx="1.1409" fill="#5C5366"/>
<rect y="17.7035" width="4.84793" height="2.2818" rx="1.1409" fill="#5C5366"/>
<path fill-rule="evenodd" clip-rule="evenodd" d="M14.636 0.591797C14.9149 0.591797 15.1825 0.742033 15.3797 1.00945C15.577 1.27688 15.6878 1.63958 15.6878 2.01777V18.5391L20.2022 12.416C20.3 12.2834 20.4161 12.1782 20.5438 12.1065C20.6716 12.0347 20.8086 11.9978 20.9469 11.9978C21.0852 11.9978 21.2221 12.0347 21.3499 12.1065C21.4777 12.1782 21.5938 12.2834 21.6915 12.416C21.7893 12.5485 21.8669 12.7059 21.9198 12.8792C21.9728 13.0524 22 13.2381 22 13.4256C22 13.6131 21.9728 13.7987 21.9198 13.9719C21.8669 14.1452 21.7893 14.3026 21.6915 14.4351L15.3807 22.991C15.283 23.1238 15.1669 23.2291 15.0391 23.301C14.9113 23.3729 14.7743 23.4099 14.636 23.4099C14.4976 23.4099 14.3606 23.3729 14.2329 23.301C14.1051 23.2291 13.989 23.1238 13.8913 22.991L7.58043 14.4351C7.48264 14.3026 7.40506 14.1452 7.35214 13.9719C7.29921 13.7987 7.27197 13.6131 7.27197 13.4256C7.27197 13.2381 7.29921 13.0524 7.35214 12.8792C7.40506 12.7059 7.48264 12.5485 7.58043 12.416C7.77793 12.1482 8.0458 11.9978 8.32511 11.9978C8.46341 11.9978 8.60036 12.0347 8.72813 12.1065C8.85591 12.1782 8.972 12.2834 9.0698 12.416L13.5842 18.5391V2.01777C13.5842 1.63958 13.695 1.27688 13.8922 1.00945C14.0895 0.742033 14.357 0.591797 14.636 0.591797Z" fill="#5C5366"/>
</svg>
