<svg width="8" height="4" viewBox="0 0 8 4" fill="none" xmlns="http://www.w3.org/2000/svg">
<path d="M0.0010066 0.50088C0.000778198 0.384054 0.0414658 0.270836 0.116006 0.18088C0.157981 0.130251 0.209532 0.0883998 0.267705 0.0577238C0.325879 0.0270478 0.389532 0.00814964 0.45502 0.00211171C0.520509 -0.00392622 0.586545 0.00301479 0.649347 0.022537C0.712149 0.0420593 0.770482 0.0737788 0.821006 0.11588L3.50101 2.35588L6.18601 0.19588C6.23715 0.154347 6.296 0.123331 6.35917 0.104615C6.42234 0.0858996 6.48858 0.0798527 6.5541 0.0868223C6.61961 0.0937919 6.6831 0.11364 6.74092 0.145227C6.79874 0.176814 6.84974 0.219517 6.89101 0.27088C6.93652 0.322613 6.97086 0.383196 6.99185 0.448827C7.01285 0.514458 7.02005 0.583721 7.01301 0.652267C7.00596 0.720814 6.98483 0.787165 6.95093 0.847156C6.91703 0.907147 6.87109 0.959483 6.81601 1.00088L3.81601 3.41588C3.72654 3.48942 3.61432 3.52962 3.49851 3.52962C3.38269 3.52962 3.27047 3.48942 3.18101 3.41588L0.181007 0.91588C0.120498 0.865721 0.0726662 0.802004 0.0413918 0.7299C0.0101175 0.657795 -0.00371885 0.579333 0.0010066 0.50088Z" fill="#6D3D67"/>
</svg>
