<svg width="57" height="65" viewBox="0 0 57 65" fill="none" xmlns="http://www.w3.org/2000/svg">
<path fill-rule="evenodd" clip-rule="evenodd" d="M14.2307 0.0969324C12.121 0.355466 10.4541 1.00479 8.05604 2.50232C4.67266 4.61522 2.21373 7.71902 0.833055 11.6198C0.162563 13.5142 -0.0055333 14.498 0.000137397 16.4935C0.00621314 18.6048 0.26396 20.321 1.0796 23.6828C2.27584 28.6135 2.33714 29.1793 2.02444 32.3896C1.84095 34.2733 1.97381 35.1078 2.59921 35.9969C3.18005 36.823 3.79842 37.1472 4.80524 37.1534C5.25377 37.1561 5.75171 37.1133 5.91157 37.0584C6.4168 36.8844 6.54007 38.0915 6.46068 42.4359C6.37076 47.3564 5.99906 49.9457 4.66807 54.9218C4.02458 57.3278 3.89793 57.9924 3.8365 59.2883C3.77047 60.6813 3.79113 60.8764 4.06954 61.4858C4.44583 62.3097 5.33775 63.0913 6.51199 63.6258C7.79464 64.2096 8.52171 64.3985 10.684 64.7089C12.4616 64.9642 13.1698 64.9909 18.3799 64.9991C23.1453 65.0067 24.45 64.9693 26.0759 64.7783C28.3362 64.5129 30.3675 64.0748 31.3976 63.6308C33.6951 62.64 34.854 60.2158 34.8626 56.3822C34.8667 54.6056 34.6902 53.4886 34.0969 51.5344C33.5557 49.7515 31.9109 45.6072 31.5269 45.0587C31.3793 44.848 31.4354 44.7642 32.0088 44.3373C32.6848 43.8338 33.1485 43.0981 33.3049 42.2799C33.3849 41.8623 33.4778 41.7706 34.0901 41.5052C34.472 41.3398 35.8446 40.6231 37.1402 39.9126C38.436 39.2021 39.5427 38.6208 39.5995 38.6208C39.6564 38.6208 39.5825 38.8856 39.4352 39.2091C39.0299 40.0996 38.8135 41.9941 39.0001 43.0196C39.2835 44.5784 40.3398 46.0389 41.8208 46.9194C42.716 47.4516 44.2925 48.0304 45.2832 48.1904L46.2125 48.3404L46.1306 48.7514C46.0174 49.3196 46.352 50.0058 46.8941 50.317C47.729 50.7965 49.1366 50.5988 49.8133 49.9069C50.0972 49.6167 50.201 49.5931 50.9609 49.6466C51.7009 49.6986 51.86 49.6658 52.3509 49.3603C53.0145 48.9475 54.1429 47.4186 54.6455 46.2509C54.8872 45.6898 55.0238 45.0913 55.0712 44.3873C55.1314 43.4912 55.1 43.2705 54.8399 42.7646C54.5143 42.1309 53.8591 41.5751 52.6432 40.9009C52.2178 40.665 51.914 40.4375 51.9681 40.3952C52.0223 40.3528 52.3358 40.2385 52.6647 40.141C53.459 39.9057 54.5459 38.8928 55.0197 37.9464C55.5703 36.8469 55.9194 35.4159 56.0091 33.8914C56.1064 32.2389 55.9314 31.5237 55.2793 30.9096C54.8435 30.4989 54.8305 30.4595 54.9704 29.9699C55.1278 29.4192 54.9932 28.0979 54.6208 26.5398C54.2969 25.1846 53.3669 22.6752 52.9688 22.0818L52.5973 21.5284L53.4121 21.0138C54.5764 20.2786 55.2794 19.2546 55.3515 18.1889C55.381 17.7524 55.3386 17.2151 55.257 16.9949C55.1224 16.6311 55.1493 16.5468 55.5536 16.0672C57.127 14.2013 57.4162 12.4911 56.4238 10.9221C56.1196 10.4412 55.8677 9.82989 55.7748 9.34767C55.5658 8.26216 55.2442 7.72945 54.3392 6.96975C53.3707 6.15663 52.3289 5.75859 51.4263 5.85664L50.7861 5.92633L50.3556 5.30715C49.6183 4.24618 48.4365 3.86608 46.7651 4.15233L45.9193 4.2973L45.2797 3.78927C44.4716 3.14757 43.8275 2.89413 42.7741 2.80333C40.9557 2.64679 38.9083 3.35817 38.2152 4.38747C37.7663 5.05421 37.6854 5.95621 38.02 6.56561C38.2144 6.91977 38.8795 7.52089 39.1818 7.61589C39.2667 7.64247 38.9804 8.0082 38.5455 8.42849C37.3847 9.55037 37.1541 10.08 36.6604 12.7577C36.6318 12.9131 36.4377 13.0952 36.2032 13.1868C35.7012 13.3826 35.0219 14.0927 34.9003 14.5489C34.8399 14.7757 34.8953 15.0391 35.0672 15.3414C35.2804 15.7165 35.4659 15.8377 36.1491 16.0484L36.9736 16.3028L37.1285 17.2565C37.3317 18.5084 37.9483 19.6543 38.8121 20.3859C39.5889 21.0436 40.9567 21.7955 41.5955 21.9158C42.0281 21.9974 42.037 22.0124 41.9588 22.521C41.7834 23.6629 41.6293 23.9593 41.1622 24.0533C40.9219 24.1016 39.5719 24.1704 38.1624 24.2061C36.1299 24.2577 35.5227 24.314 35.228 24.4779C34.6286 24.8113 34.1426 26.023 34.4204 26.4907C34.5268 26.6698 34.4849 26.8025 34.2321 27.0854C33.7685 27.6043 33.7537 28.2034 34.1938 28.6511C34.3982 28.8591 34.4387 29.0284 34.3764 29.4141C34.3189 29.7708 34.3694 30.0419 34.5567 30.3811C34.6997 30.6402 34.7885 30.9915 34.7541 31.1616C34.7195 31.3316 34.7546 31.5823 34.832 31.7186C34.9561 31.9371 34.8186 32.0777 33.6692 32.9092C32.9523 33.4278 32.327 33.868 32.2799 33.8877C32.2328 33.9073 32.0301 33.7004 31.8296 33.4279C31.629 33.1554 31.2647 32.8308 31.0198 32.7066C30.3101 32.3467 29.7911 32.5194 28.5033 33.544C26.9828 34.7535 26.9565 34.7643 26.7372 34.2657C26.6388 34.042 26.1431 33.2095 25.6356 32.4158L24.7129 30.9726L24.5337 29.3603C24.4353 28.4734 24.3695 27.7315 24.3878 27.7113C24.406 27.6912 24.9906 27.5311 25.6869 27.3556C29.348 26.4329 30.9673 24.702 31.336 21.3174C31.4678 20.1073 31.3309 16.6921 31.1306 16.201C31.0743 16.0627 31.2137 15.9035 31.5836 15.6836C32.2492 15.2878 32.647 14.8195 32.8443 14.1995C33.2954 12.7812 31.9152 11.4068 30.04 11.4068C29.4728 11.4068 29.4589 11.3963 29.314 10.8663C28.8526 9.17739 28.5706 8.57665 27.7822 7.6033C27.2538 6.9508 27.2274 6.87679 27.2708 6.16668C27.3082 5.55665 27.2497 5.28934 26.9551 4.7223C26.2106 3.28886 22.9871 1.26205 20.4052 0.603953C18.2073 0.0436488 16.0867 -0.130445 14.2307 0.0969324ZM19.0739 2.11662C20.8787 2.47002 22.97 3.20874 22.9708 3.49309C22.9709 3.54421 23.2798 3.78418 23.6572 4.02643C24.7676 4.73921 25.1308 5.20592 25.1308 5.9201C25.1308 6.43564 25.0561 6.61088 24.6415 7.06703C23.9618 7.81491 21.8927 8.7646 18.785 9.75486C15.9336 10.6635 15.3853 10.8945 14.7568 11.4523C13.8468 12.2597 13.5599 13.2617 13.7884 14.8338C14.0617 16.714 15.1345 20.3053 16.8431 25.0592C18.9315 30.8707 19.0302 31.3114 18.5694 32.7731C18.327 33.5414 17.6321 34.2971 17.1678 34.2971C17.0037 34.2971 16.637 34.0721 16.3389 33.7884C15.5164 33.0059 15.3035 33.0803 14.1554 34.5508C13.4845 35.4101 13.1462 35.3784 12.4866 34.3944C11.9869 33.6487 11.5623 33.7197 10.758 34.6839C10.041 35.5435 9.60535 35.8644 9.30359 35.7554C9.02586 35.655 8.79377 35.1369 8.79377 34.6173C8.79377 33.3108 8.13057 33.1621 7.12415 34.2428C5.58496 35.8957 4.34943 36.0074 3.9275 34.5318C3.8099 34.1201 3.81274 33.587 3.93979 32.3094C4.1866 29.8261 4.05941 28.1827 3.39958 25.3317C2.02444 19.3893 1.89564 18.6107 1.89861 16.2576C1.9009 14.5386 2.02323 13.8292 2.60366 12.1698C3.64302 9.19863 5.67461 6.40626 7.95572 4.81348C10.0659 3.34011 11.9695 2.45883 13.9244 2.05037C15.1216 1.80023 17.6225 1.8324 19.0739 2.11662ZM43.7864 3.86519C44.059 3.9673 44.5644 4.33927 44.9093 4.69191L45.5365 5.33322L46.2362 5.22385C47.3811 5.04505 48.5414 5.09554 48.9403 5.34161C49.1355 5.46217 49.4201 5.79115 49.5727 6.07283C50.0217 6.90197 50.288 7.08305 51.0583 7.08305C52.7557 7.08305 54.0852 8.20887 54.3624 9.88076C54.4227 10.2455 54.6808 10.7637 55.0734 11.3096C55.5716 12.0022 55.6895 12.2722 55.6895 12.7206C55.6895 13.3204 55.0974 14.6596 54.5136 15.3807C53.9456 16.082 53.8782 16.3903 54.1191 17.1875C54.2972 17.7771 54.3062 17.9893 54.1715 18.4131C53.7212 19.8288 51.3878 21.0619 50.1059 20.5618C49.7313 20.4156 49.7 20.3612 49.7853 20.0045C49.8373 19.787 49.8701 19.2086 49.8584 18.719L49.8369 17.8288L50.4792 17.5805C51.1905 17.3055 52.2455 16.3859 52.616 15.718C52.9224 15.1655 52.9365 13.9032 52.642 13.3779C52.1506 12.5009 51.0657 11.9155 49.9324 11.9155C49.6313 11.9155 48.704 12.0405 47.8717 12.1932C46.5418 12.4373 46.2682 12.452 45.6121 12.3136C45.1664 12.2196 44.7313 12.0298 44.5321 11.8421C44.1485 11.4809 43.8986 10.6747 43.8967 9.79263C43.8954 9.12995 43.4378 8.055 43.0059 7.69944C42.4354 7.22981 41.6367 6.95538 40.6003 6.87284C39.3245 6.77124 38.9222 6.51766 38.815 5.74753C38.5945 4.16403 41.5717 3.03668 43.7864 3.86519ZM41.9351 8.47694L42.5949 9.10783L42.6883 10.3527C42.7922 11.7351 42.9964 12.3116 43.5736 12.8503C44.3199 13.5466 44.9312 13.7568 46.1934 13.751C47.1842 13.7464 47.4736 13.6902 48.3124 13.3392C49.3695 12.8969 49.636 12.8635 50.4357 13.0727C51.2319 13.2809 51.729 13.8123 51.729 14.4554C51.729 14.7439 51.6418 15.1389 51.5353 15.3331C51.2446 15.8625 50.296 16.6144 49.5505 16.9062C48.8167 17.1934 48.8128 17.2013 48.7059 18.6423C48.6234 19.7527 48.3451 20.1153 47.2238 20.5729C46.6116 20.8228 46.3027 20.8554 44.5732 20.8531C43.1098 20.8511 42.3994 20.7929 41.7599 20.6232C40.926 20.4018 39.3075 19.5363 39.3075 19.3117C39.3075 19.2499 39.6613 19.1691 40.0936 19.1323C40.526 19.0952 41.1395 18.9402 41.4572 18.7876C42.2019 18.4298 43.223 17.5429 43.223 17.254C43.223 16.8997 42.8057 16.8318 42.4195 17.1232C41.4261 17.873 39.8514 18.3577 38.9347 18.1957C38.4088 18.1027 38.3012 17.9085 38.032 16.5673C37.8559 15.6903 37.611 15.3499 37.1552 15.3482C37.0394 15.3479 36.7132 15.2871 36.4302 15.2131C35.6661 15.0131 35.7817 14.6224 36.7342 14.1853C37.6726 13.7547 37.8223 13.5494 37.8223 12.6941C37.8223 11.0148 38.6407 9.28396 39.8707 8.36148C40.7963 7.66726 41.1066 7.68469 41.9351 8.47694ZM27.2008 9.27836C27.3973 9.64461 27.6911 10.4578 27.8536 11.0854C28.2438 12.5921 28.4921 12.8393 29.5027 12.7274C30.8578 12.5774 31.7466 12.9319 31.7466 13.6224C31.7466 14.0558 31.1259 14.7002 30.4431 14.9759C29.769 15.248 29.6225 15.5834 29.8557 16.3198C29.9413 16.5902 30.0452 17.6164 30.0867 18.6003L30.1619 20.3892L29.1277 20.6032C27.3188 20.9776 25.9752 20.8149 24.5301 20.0469C23.7196 19.616 23.2991 19.6006 23.0248 19.9918C22.7503 20.3833 23.0494 20.7947 23.9156 21.2172C24.9336 21.7136 25.8613 21.9626 26.6743 21.9573C27.3175 21.9531 28.9862 21.7033 29.7088 21.5031C30.0159 21.4179 30.0288 21.4358 29.9451 21.8304C29.3679 24.5484 26.4319 26.231 22.0254 26.3697C21.0229 26.4012 19.9356 26.3802 19.6093 26.3232L19.0159 26.2195L17.9576 23.2322C16.3108 18.5838 15.3784 15.2605 15.3584 13.9679L15.3421 12.9049L15.8451 12.4947C16.357 12.0773 17.1683 11.806 20.0676 11.0826C21.5874 10.7034 23.7799 9.95299 24.7932 9.46543C25.1645 9.28663 25.677 8.93577 25.9321 8.6855C26.3504 8.27513 26.4176 8.24931 26.6197 8.4215C26.7429 8.52641 27.0044 8.91212 27.2008 9.27836ZM23.8935 11.53C22.5908 11.7606 21.7689 12.9173 21.7586 14.5345C21.7548 15.1382 22.0593 15.4762 22.6068 15.4762C23.0722 15.4762 23.3215 15.0919 23.4228 14.2189C23.5095 13.4706 23.7509 13.1265 24.276 13.0024C24.721 12.8972 24.9582 13.0972 25.1535 13.7427C25.4417 14.6956 26.0307 14.9978 26.5488 14.4583C26.7687 14.2297 26.7769 14.1328 26.6295 13.5124C26.2804 12.0434 25.2424 11.2912 23.8935 11.53ZM39.7801 11.6336C38.6338 11.8578 38.6049 13.5133 39.7429 13.7669C40.0378 13.8326 40.1919 13.7726 40.5193 13.4642C41.358 12.6743 40.853 11.4238 39.7801 11.6336ZM49.0287 21.6438C49.1525 21.7844 49.4818 21.8346 50.2792 21.8346C51.149 21.8346 51.3985 21.8783 51.5486 22.0571C52.3238 22.98 53.2929 25.824 53.516 27.8303C53.6499 29.035 53.6402 29.2491 53.4286 29.771C53.2978 30.0938 53.0681 30.4196 52.9184 30.495C52.5543 30.6786 50.1955 30.6701 48.7072 30.4799C48.0477 30.3956 47.2238 30.3621 46.8763 30.4055C46.2667 30.4816 46.2366 30.47 46.0173 30.0699C45.8923 29.842 45.7193 29.5632 45.6329 29.4506C45.5067 29.2859 45.543 29.1614 45.8187 28.8147C46.6546 27.7638 46.8101 27.062 46.3912 26.2305C46.1438 25.7395 45.6037 25.3944 45.0862 25.3966C44.4354 25.3991 43.308 26.0731 39.6981 28.6177C37.648 30.0628 35.9249 31.245 35.8692 31.245C35.8134 31.245 35.8059 31.1025 35.8523 30.9281C35.9164 30.6874 35.8551 30.5445 35.5968 30.333C35.1829 29.994 35.1545 29.4877 35.527 29.0832C35.8736 28.7069 35.8671 28.6302 35.4617 28.2982C35.2146 28.0958 35.1637 27.9809 35.2685 27.8621C35.4598 27.6449 35.8373 27.5822 37.8426 27.4341C39.7296 27.2947 40.8039 26.9999 42.0799 26.2715C42.8864 25.8111 44.5113 24.41 44.9065 23.8342C45.1391 23.4953 45.1393 23.4712 44.9076 23.2301C44.5398 22.8474 44.332 22.9184 43.5916 23.6797C43.2169 24.065 42.8853 24.3567 42.8548 24.3278C42.8242 24.299 42.9018 23.8264 43.0273 23.2776L43.2555 22.2797L45.1796 22.2764C47.0728 22.2731 47.1167 22.2666 47.8975 21.8753C48.8482 21.3989 48.8182 21.405 49.0287 21.6438ZM41.3309 24.8548C41.3299 24.9072 41.2937 25.0743 41.2505 25.2259C41.0823 25.8165 39.1525 26.2731 36.7886 26.2815C35.759 26.2852 35.6919 26.2692 35.7568 26.0353C35.875 25.6097 36.0979 25.5349 38.0359 25.2703C39.0695 25.1291 40.1885 24.9627 40.5227 24.9005C41.35 24.7464 41.333 24.7474 41.3309 24.8548ZM45.3833 27.0901C45.3833 27.3781 44.9057 28.1363 44.3683 28.7017C43.6503 29.4571 43.6653 30.013 44.4083 30.1801C45.2608 30.3719 45.2631 30.6905 44.4187 31.6337C44.1323 31.9535 43.8981 32.3075 43.8981 32.4203C43.8981 32.5331 44.0955 32.7717 44.3369 32.9504L44.7757 33.2753L44.5056 33.7508C44.1318 34.409 42.5794 35.4967 40.2526 36.7307C39.1759 37.3018 37.2399 38.3357 35.9503 39.0281C34.6609 39.7207 33.5931 40.2699 33.5773 40.2488C33.5616 40.2277 33.4798 39.352 33.3955 38.3029C33.3113 37.2537 33.1378 36.0577 33.0101 35.6452L32.7776 34.895L33.1734 34.5919C35.7331 32.6321 43.0354 27.7416 44.4946 27.01C45.2173 26.6475 45.3833 26.6625 45.3833 27.0901ZM23.0241 28.4791C23.0642 28.8463 23.135 29.4845 23.1811 29.8974L23.2651 30.6481L22.409 30.5704C21.1399 30.4551 20.1352 30.1417 20.1352 29.8612C20.1352 29.7349 20.0136 29.299 19.8651 28.8924C19.5187 27.9439 19.5229 27.9056 19.9664 27.9848C20.2575 28.037 22.4122 27.9218 22.8595 27.8302C22.9099 27.8199 22.9839 28.112 23.0241 28.4791ZM54.3536 32.1849C54.603 32.5001 54.6318 32.7173 54.6309 34.2752C54.6301 35.7225 54.579 36.1672 54.3255 36.929C53.8406 38.3862 52.7541 39.3838 51.6521 39.3838C51.2391 39.3838 50.5729 39.0762 50.4772 38.8412C50.4389 38.7475 50.4998 38.2343 50.6126 37.7009C50.8607 36.5262 50.7689 35.9607 50.2372 35.3905C49.2218 34.301 47.2497 34.6065 45.9491 36.0548C44.563 37.5984 44.2403 37.8578 43.7066 37.8578C43.1925 37.8578 42.5726 37.62 42.3101 37.3222C42.1912 37.1871 42.3867 36.9932 43.2408 36.3988C44.2844 35.6725 45.158 34.8205 45.5152 34.1807C45.7305 33.795 45.718 32.8652 45.4929 32.5258C45.3642 32.3317 45.3606 32.2329 45.4782 32.1221C45.7527 31.8636 47.4174 31.8402 49.1038 32.071C50.8417 32.3088 52.4021 32.2667 53.3141 31.9572C53.9511 31.7411 54.0131 31.7547 54.3536 32.1849ZM22.3763 32.0921L23.6049 32.1679L24.5028 33.7312C24.9967 34.5911 25.4008 35.3502 25.4008 35.4182C25.4008 35.6048 23.9213 36.124 21.9579 36.6264C19.5056 37.2539 18.8096 37.3705 16.9764 37.4608C15.6523 37.526 15.3444 37.5789 15.2219 37.7624C15.1139 37.9243 15.1139 38.0456 15.2222 38.2075C15.3476 38.3952 15.6221 38.436 16.9767 38.4683C18.8056 38.512 20.2285 38.3241 23.0458 37.6676C25.3745 37.1247 27.6386 36.1122 29.2821 34.8785C29.8946 34.4188 30.4484 34.0427 30.5131 34.0427C30.7445 34.0427 31.3306 35.0474 31.5256 35.7782C31.8399 36.9567 31.905 38.1673 31.756 40.0733C31.5801 42.3266 31.3558 42.8167 30.2614 43.34C29.4258 43.7396 27.9726 44.1538 25.3573 44.7377C23.5863 45.1332 23.5655 45.1348 20.8777 45.0586C19.3926 45.0165 17.7432 44.9455 17.2125 44.9009C16.3207 44.8259 16.2359 44.8402 16.0938 45.0902C15.9156 45.4038 16.0778 45.7889 16.4715 45.9873C16.8985 46.2027 20.1295 46.5162 22.0929 46.5328C23.6406 46.5459 24.349 46.4845 26.0024 46.1938C27.1131 45.9985 28.4053 45.7385 28.8742 45.6161C29.3432 45.4936 29.7486 45.429 29.7751 45.4725C29.8017 45.5159 30.0447 46.2826 30.3151 47.1761C30.5856 48.0695 30.981 49.2141 31.194 49.7194C31.8003 51.159 32.6405 53.7294 32.8244 54.7076C33.0881 56.1101 32.9516 58.7074 32.5605 59.7308C31.9393 61.3561 31.3055 61.9893 29.8839 62.4051C27.0161 63.2438 24.339 63.448 17.0214 63.3863C10.4508 63.3309 9.4887 63.2364 7.78114 62.4792C5.09026 61.286 5.00291 60.6278 6.68089 54.1937C7.15412 52.3794 7.59522 49.5828 7.84352 46.8232C8.11652 43.7897 7.9514 38.7035 7.52407 36.9778C7.26889 35.9477 7.44995 35.8197 8.16675 36.5232C9.11335 37.4521 10.0253 37.4547 11.063 36.5312L11.6833 35.9793L12.1875 36.3609C13.2023 37.1291 14.5187 36.9351 15.2906 35.9037L15.7176 35.3333L16.0729 35.5807C16.2684 35.7169 16.7308 35.861 17.1004 35.9011C17.6693 35.9626 17.8858 35.9176 18.5129 35.6067C19.4984 35.1182 19.951 34.4274 20.2441 32.9644C20.4601 31.8869 20.4728 31.8637 20.8065 31.9393C20.9941 31.9816 21.7007 32.0505 22.3763 32.0921ZM49.3714 36.0369C49.6182 36.2693 49.6 36.6711 49.2821 38.0128C49.1289 38.6592 49.136 38.7865 49.3463 39.1573C50.5888 41.3491 50.6076 41.3694 52.0984 42.1523C52.7101 42.4735 53.3784 42.9014 53.5836 43.1034C53.9326 43.4468 53.9568 43.5418 53.9563 44.5746C53.9559 45.5879 53.915 45.7571 53.4598 46.6324C52.7976 47.9063 52.1245 48.6334 51.5067 48.7426C51.0896 48.8163 50.9724 48.7762 50.6119 48.4366C50.2362 48.0828 50.1893 47.9478 50.1161 47.0088C50.0564 46.2444 49.975 45.9304 49.8065 45.8143C49.6808 45.7277 49.0003 45.59 48.2943 45.5084C46.613 45.3137 45.5955 44.9497 44.8906 44.2905C44.1747 43.6212 43.9864 42.9834 44.0612 41.4821C44.1348 40.0039 44.2256 39.8284 46.143 37.4641C46.8085 36.6435 47.2023 36.2894 47.746 36.0231C48.2821 35.7605 49.0853 35.7674 49.3714 36.0369ZM42.1657 38.4598C42.2896 38.5598 42.6542 38.7169 42.9758 38.809C43.2974 38.9011 43.5482 39.0252 43.5333 39.0848C43.5183 39.1444 43.3724 39.5364 43.2094 39.9561C42.9697 40.5725 42.9102 41.0122 42.8991 42.2451C42.8869 43.6097 42.9193 43.836 43.2062 44.385C43.8743 45.6629 45.5273 46.4895 47.6374 46.6009L48.8787 46.6664L48.9665 47.3805C49.0148 47.7735 49.1661 48.3042 49.3029 48.56L49.5515 49.0253L49.0465 49.3548C48.4705 49.7309 48.0068 49.7723 47.5736 49.4865C47.3188 49.3185 47.2732 49.1694 47.2715 48.5009C47.2702 48.0678 47.2238 47.6458 47.168 47.5633C47.1123 47.4808 46.6424 47.3448 46.1237 47.2613C44.3849 46.9809 42.4754 46.1587 41.6541 45.3371C41.4225 45.1052 41.0584 44.6295 40.8451 44.2798C40.4969 43.7089 40.4522 43.5038 40.4074 42.2733C40.349 40.668 40.4936 40.0096 41.1475 38.9043C41.6225 38.1011 41.6865 38.0732 42.1657 38.4598Z" fill="white"/>
</svg>
