<svg width="108" height="122" viewBox="0 0 108 122" fill="none" xmlns="http://www.w3.org/2000/svg">
<path fill-rule="evenodd" clip-rule="evenodd" d="M26.9635 0.181935C22.9661 0.667182 19.8077 1.88591 15.2641 4.69667C8.85345 8.66242 4.19444 14.488 1.57842 21.8094C0.308013 25.3651 -0.0104841 27.2116 0.000260332 30.9571C0.0117723 34.9197 0.500135 38.141 2.04555 44.4509C4.31212 53.7054 4.42826 54.7673 3.83578 60.7927C3.48812 64.3284 3.73985 65.8946 4.92481 67.5635C6.02535 69.114 7.19701 69.7224 9.10467 69.7341C9.95451 69.7391 10.898 69.6589 11.2009 69.5558C12.1581 69.2293 12.3917 71.4949 12.2413 79.6488C12.0709 88.8843 11.3666 93.7442 8.84476 103.084C7.62551 107.6 7.38555 108.847 7.26915 111.28C7.14406 113.894 7.1832 114.26 7.7107 115.404C8.42367 116.951 10.1136 118.418 12.3385 119.421C14.7688 120.517 16.1464 120.871 20.2434 121.454C23.6115 121.933 24.9533 121.983 34.8251 121.998C43.8543 122.013 46.3263 121.942 49.4069 121.584C53.6896 121.086 57.5385 120.264 59.4901 119.43C63.8434 117.57 66.0391 113.02 66.0555 105.825C66.0632 102.491 65.7288 100.394 64.6047 96.7261C63.5792 93.3797 60.4627 85.6012 59.7352 84.5717C59.4556 84.1762 59.5617 84.0189 60.6482 83.2177C61.9291 82.2727 62.8076 80.8919 63.1041 79.3562C63.2555 78.5724 63.4315 78.4003 64.5917 77.9021C65.3154 77.5916 67.9161 76.2464 70.3709 74.9128C72.8261 73.5793 74.923 72.4883 75.0307 72.4883C75.1384 72.4883 74.9985 72.9852 74.7194 73.5924C73.9514 75.264 73.5413 78.8196 73.8949 80.7444C74.4318 83.6702 76.4334 86.4115 79.2395 88.0642C80.9356 89.0631 83.9225 90.1493 85.7998 90.4496L87.5606 90.7312L87.4053 91.5027C87.1909 92.5691 87.8248 93.8571 88.852 94.4411C90.434 95.3412 93.1009 94.97 94.3831 93.6714C94.9211 93.1267 95.1178 93.0825 96.5575 93.1828C97.9597 93.2804 98.261 93.2188 99.1912 92.6455C100.449 91.8707 102.586 89.001 103.539 86.8094C103.997 85.7563 104.256 84.6328 104.345 83.3115C104.46 81.6297 104.4 81.2153 103.907 80.2658C103.29 79.0765 102.049 78.0332 99.7451 76.7679C98.939 76.3251 98.3634 75.8981 98.466 75.8187C98.5685 75.7392 99.1626 75.5246 99.7857 75.3415C101.291 74.9 103.35 72.9988 104.248 71.2225C105.291 69.1589 105.953 66.4729 106.122 63.6116C106.307 60.5099 105.975 59.1675 104.74 58.0149C103.914 57.2442 103.889 57.1702 104.154 56.2512C104.453 55.2175 104.198 52.7376 103.492 49.8132C102.878 47.2695 101.116 42.5595 100.362 41.4458L99.6581 40.4071L101.202 39.4414C103.408 38.0613 104.74 36.1394 104.877 34.1392C104.932 33.3198 104.852 32.3114 104.697 31.8982C104.442 31.2153 104.493 31.0571 105.26 30.157C108.241 26.6548 108.789 23.4449 106.908 20.5C106.332 19.5973 105.855 18.4499 105.679 17.5449C105.283 15.5074 104.673 14.5076 102.958 13.0817C101.123 11.5555 99.1495 10.8084 97.4393 10.9925L96.2262 11.1233L95.4107 9.96111C94.0136 7.96976 91.7744 7.25633 88.6076 7.79361L87.0049 8.06571L85.7931 7.11216C84.262 5.90775 83.0415 5.43205 81.0456 5.26163C77.6002 4.96781 73.7209 6.30302 72.4078 8.23494C71.5572 9.48636 71.4039 11.1794 72.0379 12.3231C72.4062 12.9879 73.6664 14.1161 74.2392 14.2944C74.4001 14.3443 73.8575 15.0308 73.0335 15.8196C70.8342 17.9253 70.3973 18.9194 69.4618 23.9452C69.4075 24.2369 69.0399 24.5787 68.5955 24.7505C67.6444 25.1181 66.3574 26.4509 66.1269 27.3071C66.0125 27.7329 66.1174 28.2272 66.4431 28.7946C66.847 29.4987 67.1985 29.7262 68.493 30.1217L70.0553 30.599L70.3487 32.3892C70.7337 34.7388 71.902 36.8896 73.5388 38.2627C75.0105 39.4972 77.6022 40.9086 78.8125 41.1344C79.6322 41.2874 79.6491 41.3155 79.5009 42.2703C79.1686 44.4134 78.8765 44.9698 77.9916 45.1462C77.5362 45.2369 74.9783 45.366 72.3078 45.4331C68.4566 45.5297 67.3062 45.6355 66.7478 45.9431C65.6122 46.569 64.6912 48.8432 65.2177 49.7211C65.4193 50.0571 65.3397 50.3063 64.8608 50.8371C63.9823 51.8112 63.9544 52.9357 64.7882 53.7758C65.1755 54.1663 65.2522 54.484 65.1343 55.208C65.0253 55.8775 65.121 56.3863 65.4758 57.0229C65.7467 57.5094 65.9151 58.1686 65.8498 58.488C65.7843 58.8071 65.8508 59.2775 65.9974 59.5334C66.2325 59.9435 65.9721 60.2075 63.7943 61.768C62.4359 62.7413 61.2512 63.5677 61.1619 63.6047C61.0726 63.6414 60.6886 63.2531 60.3087 62.7416C59.9286 62.2301 59.2384 61.6209 58.7743 61.3878C57.4297 60.7123 56.4464 61.0364 54.0063 62.9595C51.1253 65.2296 51.0754 65.2499 50.6599 64.314C50.4735 63.8942 49.5343 62.3317 48.5727 60.8419L46.8244 58.1333L46.485 55.107C46.2985 53.4424 46.1739 52.0499 46.2084 52.012C46.2429 51.9742 47.3507 51.6737 48.6699 51.3444C55.6068 49.6125 58.6748 46.3637 59.3735 40.0111C59.6231 37.7398 59.3637 31.3299 58.9844 30.4081C58.8777 30.1484 59.1417 29.8496 59.8426 29.4369C61.1038 28.6941 61.8575 27.815 62.2312 26.6514C63.0859 23.9894 60.4709 21.4096 56.9178 21.4096C55.8431 21.4096 55.8168 21.3901 55.5423 20.3952C54.6681 17.2253 54.1337 16.0977 52.64 14.2708C51.6387 13.0461 51.5888 12.9072 51.671 11.5744C51.7418 10.4294 51.631 9.92769 51.0728 8.86339C49.6622 6.17293 43.5545 2.36877 38.6625 1.13357C34.498 0.0819255 30.48 -0.244835 26.9635 0.181935ZM36.1401 3.97273C39.5596 4.63604 43.522 6.02256 43.5236 6.55626C43.5238 6.65221 44.1091 7.10261 44.8242 7.55731C46.928 8.89514 47.6162 9.77111 47.6162 11.1116C47.6162 12.0792 47.4747 12.4081 46.6891 13.2643C45.4013 14.668 41.4808 16.4505 35.5926 18.3091C30.1899 20.0145 29.151 20.4482 27.9602 21.4951C26.236 23.0105 25.6923 24.8911 26.1255 27.842C26.6432 31.3709 28.676 38.1114 31.9131 47.0342C35.8702 57.9419 36.0572 58.7691 35.1841 61.5126C34.7249 62.9547 33.4082 64.373 32.5284 64.373C32.2176 64.373 31.5228 63.9508 30.9579 63.4182C29.3994 61.9496 28.996 62.0892 26.8208 64.8492C25.5496 66.462 24.9085 66.4025 23.6588 64.5556C22.712 63.1559 21.9075 63.2894 20.3836 65.0991C19.0251 66.7123 18.1996 67.3148 17.6279 67.1102C17.1016 66.9217 16.6619 65.9493 16.6619 64.974C16.6619 62.5217 15.4053 62.2427 13.4984 64.2711C10.582 67.3735 8.24102 67.5831 7.44158 64.8136C7.21876 64.0407 7.22413 63.0402 7.46486 60.6423C7.9325 55.9813 7.69151 52.8968 6.44132 47.5457C3.83578 36.3922 3.59173 34.9309 3.59736 30.5143C3.60171 27.2877 3.83348 25.9564 4.93325 22.8418C6.90256 17.2651 10.7519 12.0241 15.074 9.03453C19.0722 6.26912 22.679 4.61504 26.3831 3.84838C28.6514 3.37888 33.39 3.43927 36.1401 3.97273ZM82.9637 7.25466C83.4802 7.44632 84.4378 8.14447 85.0914 8.80635L86.2797 10.01L87.6053 9.80477C89.7747 9.46918 91.9732 9.56394 92.7289 10.0258C93.0988 10.2521 93.6381 10.8695 93.9272 11.3982C94.778 12.9545 95.2825 13.2943 96.742 13.2943C99.9582 13.2943 102.477 15.4074 103.002 18.5454C103.117 19.23 103.606 20.2026 104.35 21.2273C105.294 22.5272 105.517 23.0339 105.517 23.8755C105.517 25.0014 104.395 27.515 103.289 28.8683C102.213 30.1847 102.085 30.7632 102.541 32.2596C102.879 33.3663 102.896 33.7645 102.641 34.56C101.788 37.2171 97.3664 39.5316 94.9374 38.5928C94.2278 38.3186 94.1684 38.2164 94.3301 37.5469C94.4286 37.1388 94.4908 36.053 94.4685 35.134L94.4278 33.4632L95.6448 32.9973C96.9924 32.4811 98.9914 30.7551 99.6934 29.5016C100.274 28.4645 100.301 26.0953 99.7428 25.1093C98.8116 23.4633 96.7561 22.3644 94.6087 22.3644C94.0382 22.3644 92.2812 22.599 90.7044 22.8857C88.1845 23.3439 87.666 23.3714 86.4229 23.1117C85.5785 22.9353 84.754 22.579 84.3766 22.2267C83.6498 21.5488 83.1763 20.0355 83.1727 18.38C83.1702 17.1362 82.3032 15.1186 81.4848 14.4513C80.404 13.5698 78.8905 13.0547 76.9269 12.8998C74.5096 12.7091 73.7473 12.2332 73.5441 10.7877C73.1264 7.81557 78.7675 5.69962 82.9637 7.25466ZM79.4559 15.9106L80.7061 17.0947L80.8831 19.4312C81.0799 22.0259 81.4669 23.1079 82.5605 24.119C83.9745 25.426 85.1328 25.8205 87.5242 25.8096C89.4017 25.801 89.9499 25.6955 91.5394 25.0367C93.5422 24.2066 94.0472 24.1438 95.5624 24.5364C97.071 24.9271 98.0129 25.9246 98.0129 27.1316C98.0129 27.6732 97.8476 28.4146 97.6458 28.7791C97.095 29.7727 95.2976 31.184 93.8852 31.7316C92.4948 32.2708 92.4874 32.2856 92.2848 34.9901C92.1285 37.0743 91.6013 37.7548 89.4767 38.6138C88.3168 39.0829 87.7315 39.144 84.4544 39.1397C81.6818 39.1358 80.3357 39.0268 79.1241 38.7081C77.5439 38.2926 74.4774 36.6681 74.4774 36.2466C74.4774 36.1306 75.1476 35.979 75.9668 35.9098C76.7862 35.8403 77.9486 35.5494 78.5506 35.2629C79.9614 34.5913 81.8962 32.9267 81.8962 32.3844C81.8962 31.7194 81.1054 31.592 80.3738 32.139C78.4915 33.5463 75.5078 34.4559 73.7711 34.1519C72.7746 33.9774 72.5707 33.6129 72.0606 31.0955C71.7271 29.4495 71.263 28.8106 70.3993 28.8075C70.1798 28.8067 69.5618 28.6926 69.0256 28.5537C67.5779 28.1785 67.7969 27.445 69.6017 26.6247C71.3796 25.8165 71.6634 25.4313 71.6634 23.8259C71.6634 20.674 73.2139 17.4253 75.5444 15.6938C77.2983 14.3909 77.8862 14.4236 79.4559 15.9106ZM51.5384 17.4148C51.9107 18.1022 52.4673 19.6286 52.7753 20.8065C53.5147 23.6344 53.9851 24.0984 55.8999 23.8884C58.4673 23.6067 60.1514 24.2722 60.1514 25.5683C60.1514 26.3817 58.9754 27.5911 57.6817 28.1086C56.4044 28.6194 56.1268 29.2488 56.5686 30.631C56.7308 31.1385 56.9278 33.0646 57.0064 34.9114L57.1488 38.2689L55.1893 38.6706C51.762 39.3733 49.2161 39.0681 46.478 37.6264C44.9424 36.8177 44.1457 36.7889 43.6259 37.523C43.1058 38.258 43.6725 39.0301 45.3138 39.823C47.2427 40.7548 49.0004 41.2222 50.5407 41.2122C51.7595 41.2043 54.9212 40.7355 56.2903 40.3596C56.8723 40.1997 56.8966 40.2333 56.738 40.974C55.6444 46.0754 50.0815 49.2337 41.7323 49.4938C39.8328 49.553 37.7727 49.5136 37.1544 49.4067L36.0301 49.2119L34.0249 43.605C30.9047 34.8803 29.138 28.6428 29.1001 26.2168L29.0692 24.2216L30.0224 23.4516C30.9922 22.6682 32.5294 22.1589 38.0229 20.8012C40.9024 20.0895 45.0567 18.681 46.9766 17.7659C47.6801 17.4303 48.6512 16.7718 49.1345 16.302C49.927 15.5318 50.0544 15.4833 50.4374 15.8065C50.6707 16.0034 51.1662 16.7274 51.5384 17.4148ZM45.2719 21.6409C42.8037 22.0737 41.2463 24.2447 41.2268 27.2801C41.2196 28.4131 41.7965 29.0476 42.8339 29.0476C43.7157 29.0476 44.1882 28.3263 44.3801 26.6877C44.5443 25.2833 45.0017 24.6374 45.9966 24.4044C46.8398 24.207 47.2893 24.5825 47.6592 25.7941C48.2053 27.5825 49.3212 28.1496 50.3031 27.1371C50.7196 26.708 50.7352 26.5261 50.4558 25.3618C49.7945 22.6045 47.8278 21.1927 45.2719 21.6409ZM75.3728 21.8355C73.2008 22.2563 73.1461 25.3635 75.3024 25.8394C75.8611 25.9628 76.153 25.8501 76.7734 25.2713C78.3625 23.7886 77.4058 21.4416 75.3728 21.8355ZM92.8965 40.6238C93.1311 40.8876 93.755 40.9818 95.2659 40.9818C96.9139 40.9818 97.3867 41.0639 97.6711 41.3995C99.1398 43.1317 100.976 48.4696 101.399 52.2354C101.652 54.4964 101.634 54.8984 101.233 55.8779C100.985 56.4837 100.55 57.0952 100.266 57.2368C99.5765 57.5814 95.1073 57.5654 92.2874 57.2084C91.0377 57.0501 89.4767 56.9874 88.8182 57.0687C87.6632 57.2117 87.6061 57.1898 87.1907 56.4389C86.9538 56.0111 86.6261 55.4879 86.4623 55.2765C86.2231 54.9674 86.292 54.7337 86.8143 54.083C88.3981 52.1105 88.6928 50.7932 87.899 49.2327C87.4304 48.3111 86.4071 47.6633 85.4265 47.6674C84.1935 47.6722 82.0574 48.9372 75.2175 53.7133C71.3331 56.4255 68.0683 58.6445 67.9626 58.6445C67.857 58.6445 67.8427 58.377 67.9307 58.0497C68.0522 57.5979 67.936 57.3296 67.4467 56.9327C66.6623 56.2964 66.6086 55.3462 67.3144 54.5869C67.9711 53.8806 67.9588 53.7367 67.1906 53.1135C66.7224 52.7337 66.626 52.518 66.8245 52.295C67.187 51.8874 67.9023 51.7697 71.7017 51.4916C75.2771 51.23 77.3126 50.6768 79.7304 49.3096C81.2584 48.4455 84.3372 45.8157 85.086 44.7349C85.5268 44.0988 85.527 44.0537 85.0881 43.6012C84.3912 42.8827 83.9975 43.0162 82.5946 44.4449C81.8847 45.1681 81.2564 45.7157 81.1986 45.6615C81.1405 45.6073 81.2876 44.7204 81.5255 43.6902L81.9578 41.8172L85.6035 41.811C89.1907 41.8048 89.2738 41.7927 90.7532 41.0582C92.5545 40.1641 92.4977 40.1756 92.8965 40.6238ZM78.3111 46.6506C78.3093 46.7489 78.2408 47.0626 78.1589 47.3471C77.8401 48.4555 74.1837 49.3127 69.7048 49.3284C67.7539 49.3353 67.6268 49.3053 67.7498 48.8663C67.9736 48.0674 68.396 47.9271 72.0681 47.4304C74.0264 47.1655 76.1466 46.853 76.7798 46.7363C78.3474 46.447 78.3152 46.4489 78.3111 46.6506ZM85.9893 50.846C85.9893 51.3866 85.0845 52.8096 84.0663 53.8708C82.7059 55.2886 82.7343 56.3322 84.142 56.6458C85.7573 57.0057 85.7616 57.6036 84.1617 59.374C83.6191 59.9743 83.1753 60.6388 83.1753 60.8505C83.1753 61.0622 83.5493 61.51 84.0067 61.8453L84.8381 62.4552L84.3265 63.3476C83.6181 64.583 80.6767 66.6245 76.2681 68.9407C74.228 70.0126 70.5597 71.9532 68.1164 73.2528C65.6733 74.5527 63.65 75.5836 63.6201 75.5439C63.5904 75.5043 63.4354 73.8607 63.2758 71.8916C63.1161 69.9224 62.7874 67.6776 62.5454 66.9033L62.1049 65.4953L62.8549 64.9263C67.7048 61.2479 81.5408 52.0688 84.3055 50.6956C85.6749 50.0154 85.9893 50.0435 85.9893 50.846ZM43.6246 53.4531C43.7006 54.1422 43.8346 55.3402 43.9221 56.1152L44.0813 57.5242L42.4591 57.3783C40.0546 57.1618 38.1508 56.5737 38.1508 56.0472C38.1508 55.8102 37.9206 54.9919 37.6392 54.2289C36.9827 52.4485 36.9907 52.3767 37.831 52.5254C38.3826 52.6232 42.4652 52.407 43.3128 52.2351C43.4082 52.2158 43.5484 52.7641 43.6246 53.4531ZM102.986 60.4087C103.458 61.0001 103.513 61.4078 103.511 64.3319C103.51 67.0484 103.413 67.8831 102.933 69.3128C102.014 72.0479 99.9551 73.9204 97.8671 73.9204C97.0845 73.9204 95.8223 73.343 95.6409 72.9019C95.5685 72.726 95.6839 71.7629 95.8975 70.7616C96.3677 68.5569 96.1938 67.4955 95.1863 66.4252C93.2623 64.3804 89.5258 64.9537 87.0615 67.6721C84.4352 70.5693 83.8238 71.0562 82.8125 71.0562C81.8384 71.0562 80.6639 70.6098 80.1666 70.0508C79.9412 69.7973 80.3116 69.4334 81.9299 68.3177C83.9072 66.9546 85.5626 65.3554 86.2393 64.1546C86.6473 63.4307 86.6235 61.6854 86.197 61.0483C85.9532 60.6841 85.9463 60.4986 86.1692 60.2908C86.6892 59.8055 89.8435 59.7616 93.0387 60.1948C96.3316 60.6411 99.2882 60.5621 101.016 59.9812C102.223 59.5757 102.341 59.6012 102.986 60.4087ZM42.3972 60.2344L44.7252 60.3767L46.4264 63.3108C47.3622 64.9248 48.1278 66.3495 48.1278 66.4772C48.1278 66.8274 45.3246 67.8019 41.6044 68.745C36.9579 69.9227 35.6392 70.1415 32.1659 70.311C29.6571 70.4334 29.0735 70.5327 28.8415 70.8772C28.6368 71.181 28.6368 71.4087 28.842 71.7126C29.0797 72.0649 29.5998 72.1415 32.1664 72.2021C35.6318 72.284 38.3276 71.9314 43.6658 70.6991C48.0779 69.6802 52.3678 67.7797 55.4819 65.4643C56.6423 64.6014 57.6917 63.8956 57.8142 63.8956C58.2527 63.8956 59.3632 65.7812 59.7326 67.153C60.3282 69.3649 60.4515 71.6371 60.1693 75.2145C59.836 79.4438 59.4111 80.3637 57.3374 81.3459C55.7541 82.0958 53.0007 82.8732 48.0455 83.9693C44.6899 84.7116 44.6505 84.7145 39.5578 84.5715C36.7438 84.4925 33.6187 84.3593 32.6131 84.2755C30.9234 84.1347 30.7627 84.1617 30.4936 84.6309C30.1559 85.2195 30.4632 85.9423 31.2091 86.3146C32.0183 86.7189 38.1401 87.3073 41.8602 87.3386C44.7927 87.3632 46.135 87.2479 49.2678 86.7022C51.3722 86.3356 53.8206 85.8477 54.7091 85.6179C55.5975 85.388 56.3658 85.2668 56.4159 85.3484C56.4663 85.4298 56.9268 86.8688 57.4392 88.5458C57.9516 90.2228 58.7009 92.371 59.1043 93.3195C60.2532 96.0215 61.8452 100.846 62.1936 102.682C62.6932 105.314 62.4346 110.189 61.6935 112.11C60.5165 115.161 59.3157 116.349 56.6221 117.13C51.1885 118.704 46.1161 119.087 32.2511 118.971C19.8016 118.867 17.9786 118.69 14.7432 117.269C9.64471 115.029 9.47919 113.794 12.6585 101.717C13.5552 98.3121 14.391 93.0632 14.8614 87.8835C15.3787 82.1899 15.0658 72.6434 14.2561 69.4045C13.7726 67.4711 14.1157 67.2308 15.4738 68.5512C17.2674 70.2948 18.9952 70.2995 20.9615 68.5662L22.1367 67.5303L23.0922 68.2466C25.0149 69.6885 27.5092 69.3243 28.9717 67.3885L29.7806 66.3178L30.4539 66.7823C30.8244 67.0379 31.7006 67.3083 32.4007 67.3835C33.4788 67.4991 33.8888 67.4146 35.0771 66.831C36.9444 65.9142 37.8019 64.6176 38.3573 61.8716C38.7666 59.8492 38.7906 59.8057 39.4228 59.9475C39.7784 60.027 41.1171 60.1564 42.3972 60.2344ZM93.5458 67.6384C94.0134 68.0748 93.9789 68.8288 93.3767 71.3471C93.0863 72.5604 93.0999 72.7993 93.4982 73.4953C95.8525 77.609 95.888 77.6472 98.7128 79.1166C99.8717 79.7195 101.138 80.5227 101.527 80.9017C102.188 81.5464 102.234 81.7247 102.233 83.663C102.232 85.5649 102.155 85.8826 101.292 87.5255C100.037 89.9164 98.7622 91.2812 97.5916 91.4862C96.8013 91.6244 96.5793 91.5492 95.8962 90.9117C95.1843 90.2477 95.0955 89.9944 94.9569 88.232C94.8438 86.7972 94.6895 86.2079 94.3703 85.99C94.1321 85.8274 92.8428 85.569 91.5051 85.4157C88.3193 85.0503 86.3915 84.3672 85.0558 83.1298C83.6995 81.8736 83.3426 80.6766 83.4843 77.8587C83.6237 75.0842 83.7959 74.7548 87.4288 70.3172C88.6898 68.777 89.436 68.1125 90.4662 67.6127C91.4818 67.1198 93.0037 67.1327 93.5458 67.6384ZM79.8929 72.1861C80.1277 72.3737 80.8184 72.6687 81.4278 72.8415C82.0371 73.0144 82.5125 73.2473 82.4841 73.3592C82.4557 73.4709 82.1794 74.2068 81.8703 74.9945C81.4163 76.1514 81.3035 76.9768 81.2825 79.2908C81.2595 81.8521 81.3208 82.2768 81.8645 83.3072C83.1303 85.7057 86.2623 87.2572 90.2602 87.4663L92.6123 87.5892L92.7785 88.9296C92.8701 89.6672 93.1569 90.6632 93.4161 91.1434L93.887 92.0168L92.9302 92.6352C91.8389 93.341 90.9602 93.4188 90.1395 92.8823C89.6568 92.567 89.5703 92.2872 89.567 91.0325C89.5647 90.2195 89.4767 89.4275 89.371 89.2726C89.2654 89.1177 88.3751 88.8626 87.3922 88.7058C84.0978 88.1795 80.4797 86.6364 78.9235 85.0942C78.4848 84.6591 77.7949 83.7662 77.3907 83.1098C76.7309 82.0383 76.6462 81.6533 76.5613 79.3438C76.4508 76.3306 76.7248 75.095 77.9637 73.0203C78.8637 71.5128 78.9849 71.4605 79.8929 72.1861Z" fill="#6D3D67"/>
</svg>
