<svg width="130" height="126" viewBox="0 0 130 126" fill="none" xmlns="http://www.w3.org/2000/svg">
<path fill-rule="evenodd" clip-rule="evenodd" d="M79.0528 0.269976C76.6557 0.879844 74.383 2.76588 73.0147 5.281C71.5932 7.89394 71.1982 10.4004 71.0146 17.9754C70.7579 28.5533 71.6052 37.692 74.0154 50.3486C74.4766 52.7716 74.8181 54.7858 74.774 54.8244C74.73 54.8631 73.6903 54.4654 72.4639 53.9408C69.8838 52.8374 67.8594 52.3317 64.5798 51.9713C60.899 51.5669 58.6298 51.8798 51.9774 53.7092C45.5723 55.4703 43.68 55.4728 36.3514 53.7296C29.7757 52.1657 29.3503 52.1095 24.1047 52.1137C19.9539 52.1171 18.8738 52.1999 16.8577 52.6696C9.05281 54.4874 3.05208 59.2591 0.767902 65.4642C-0.400804 68.6387 -0.287641 70.9158 1.46807 79.5782C4.85768 96.2989 6.10024 100.413 8.97337 104.427C12.7451 109.697 19.5687 112.662 27.0263 112.273C30.3209 112.101 31.6392 111.784 36.6137 109.965C40.7227 108.463 42.7047 108.147 44.9231 108.64C45.6604 108.804 48.2077 109.756 50.5838 110.756C52.96 111.755 55.2804 112.644 55.7403 112.731C57.6362 113.09 57.5587 113.016 57.0851 114.018C56.1882 115.916 57.2493 118.223 59.7724 119.86C63.0491 121.987 67.0513 123.61 71.6127 124.662C76.4102 125.769 79.1085 126.03 85.4248 125.997C91.9707 125.964 94.8043 125.614 99.3612 124.276C103.247 123.136 106.003 121.716 108.008 119.822L109.623 118.295L111.045 118.773C114.728 120.01 118.658 118.793 120.154 115.953C120.519 115.259 120.816 114.304 120.814 113.829C120.81 112.849 120.023 111.161 119.334 110.658C118.674 110.174 118.746 109.969 119.891 109.081C124.019 105.877 121.432 100.876 115.557 100.699C113.857 100.647 113.825 100.634 113.994 100.03C114.322 98.8579 114.477 96.5939 114.29 95.712C114.186 95.2201 113.667 94.4008 113.125 93.8698C110.297 91.1028 105.604 91.213 102.024 94.1302C100.493 95.3781 100.542 95.6748 101.312 89.8043C101.941 85.0118 101.99 83.4476 101.574 81.4563C100.683 77.1979 97.3828 73.9408 92.0228 72.0301L89.7902 71.2342L89.8543 69.6685C89.9681 66.8966 88.5189 64.2985 86.1082 62.9513C85.4256 62.5699 84.8673 62.1643 84.8673 62.0497C84.8673 61.9354 85.1776 58.9851 85.5566 55.4939C87.0392 41.841 87.6928 26.3984 87.3798 12.4311C87.2112 4.90349 87.1738 4.48731 86.5575 3.25057C85.2247 0.576019 82.3451 -0.567576 79.0528 0.269976ZM82.7972 2.31987C83.5278 2.58969 83.93 2.97976 84.3854 3.85994C84.9454 4.94243 85.0072 5.54244 85.1419 11.1991C85.3899 21.6227 84.854 40.8177 84.1502 46.7155L83.9991 47.9809L82.691 47.6218C81.3972 47.2668 77.6767 47.2921 76.3416 47.6652C75.7805 47.8219 75.7331 47.6524 75.0235 42.9427C73.8147 34.9186 73.4088 30.5234 73.2416 23.6428C72.896 9.41479 74.1578 4.63737 78.8025 2.59117C80.4403 1.86968 81.4016 1.80438 82.7972 2.31987ZM82.7398 48.6804L84.0562 49.0771L83.9049 50.0973C83.8218 50.6586 83.5632 53.0027 83.3299 55.3067C83.0969 57.6106 82.8376 59.9946 82.7537 60.6045L82.6013 61.7134H80.602H78.6024L77.4317 56.0459C76.7881 52.9288 76.1861 50.0224 76.0941 49.587C75.9397 48.8566 75.9974 48.7778 76.8433 48.5621C78.3086 48.1886 81.3063 48.2487 82.7398 48.6804ZM64.5275 53.9595C68.0302 54.3373 71.8914 55.5511 73.6929 56.8406L74.359 57.3174L73.1468 57.3595C72.2872 57.3893 71.6464 57.2343 70.9449 56.8273C69.6441 56.0723 68.4873 55.7349 66.5382 55.5415C64.4639 55.336 62.1914 55.7115 57.552 57.0269C52.1857 58.5485 51.1296 58.7249 47.3511 58.7323C43.7656 58.7392 42.8943 58.5117 42.2156 57.3908C41.9235 56.9079 41.9655 56.8941 43.2616 57.0461C45.1606 57.2686 48.4382 56.7743 52.3718 55.6716C56.9224 54.3962 57.9668 54.1581 59.9212 53.9502C60.841 53.8524 61.7223 53.7572 61.8795 53.7388C62.037 53.7203 63.2286 53.8196 64.5275 53.9595ZM32.4665 54.8905C36.4512 55.8037 37.9218 56.519 40.4624 58.7801C42.0444 60.1881 42.7281 61.0466 43.7154 62.8631C45.7883 66.6773 46.7184 71.1107 46.142 74.4279C45.5227 77.993 43.0453 81.2112 40.4596 81.8102C39.8193 81.9585 36.9749 82.7389 34.1389 83.5449C27.678 85.3804 26.4641 85.5854 22.1536 85.5675C18.1162 85.5505 15.5954 85.0584 12.3248 83.6487C5.36217 80.6471 1.16676 74.1039 2.34857 68.09C3.54487 62.0027 8.94271 56.8812 16.2055 54.9425C19.3833 54.0941 20.6387 53.9701 25.0802 54.0657C28.6014 54.1416 29.767 54.2717 32.4665 54.8905ZM67.7822 56.744C68.5698 56.9246 69.5356 57.2587 69.9286 57.4862L70.6433 57.9002L69.6722 59.0248C69.1382 59.6433 68.6992 60.2795 68.6969 60.4387C68.6852 61.2208 68.2599 61.3615 67.1486 60.951C66.3721 60.6641 65.5847 60.5848 64.433 60.6772C61.8076 60.8876 59.9304 62.2838 59.2291 64.5471L58.9618 65.4095H56.6004H54.239L53.9547 64.4121C53.5408 62.9607 52.5658 61.8294 51.1672 61.1772C49.6041 60.4485 48.48 60.4532 46.9007 61.1957L45.6431 61.7868L45.1244 60.8876C44.8392 60.3931 44.5675 59.9237 44.5209 59.8443C44.4741 59.765 45.9134 59.6938 47.719 59.6859C51.4102 59.6696 53.2328 59.3582 58.2658 57.8834C63.4248 56.3719 65.2218 56.1568 67.7822 56.744ZM20.3987 57.275C14.5747 58.3378 9.85192 61.227 7.68621 65.052C6.35333 67.4067 5.86918 69.3225 6.07042 71.4469C6.61199 77.1646 11.9187 81.6025 19.7844 82.9158C23.0848 83.467 29.0947 83.2943 32.2831 82.5566C37.2107 81.4164 40.8111 79.0218 42.5679 75.7157C43.3492 74.2454 43.4751 73.7202 43.5688 71.5402C43.6934 68.6464 43.2703 67.0014 41.7991 64.6577C40.0766 61.9139 36.5237 59.2643 32.6059 57.8018C30.781 57.1205 30.3844 57.0688 26.4739 57.0015C23.6715 56.9532 21.6683 57.0434 20.3987 57.275ZM28.7377 59.5573C28.3806 61.174 27.4544 66.8439 27.1779 69.1057C26.7211 72.8423 26.8387 72.6299 25.221 72.641C24.4536 72.6461 23.8259 72.6193 23.8259 72.5816C23.8259 72.5436 23.5179 71.0252 23.1419 69.2075C22.4908 66.0628 21.5961 60.4924 21.5961 59.5846C21.5961 59.042 22.1539 58.9545 25.8687 58.9131L28.8874 58.8796L28.7377 59.5573ZM32.1844 59.7835C34.0056 60.4429 35.8631 61.6397 35.7167 62.0591C35.6412 62.2757 34.9533 63.6723 34.1879 65.1631C33.4225 66.6539 32.3255 69.0934 31.7499 70.5842C31.174 72.075 30.6879 73.3171 30.6693 73.3442C30.6506 73.3716 30.0126 73.2533 29.2514 73.0816C27.9012 72.7767 27.8697 72.7486 27.9539 71.9232C28.2597 68.9275 29.3651 61.841 29.8456 59.7941C30.0207 59.0484 30.1525 59.0477 32.1844 59.7835ZM20.879 62.7606C21.1502 64.6242 21.6625 67.5903 22.0176 69.3521C22.3727 71.114 22.5797 72.6222 22.478 72.704C22.223 72.9086 19.6512 73.5086 19.5358 73.3903C19.4845 73.3378 18.8604 71.7423 18.1491 69.8449C17.4375 67.9476 16.3597 65.2863 15.7537 63.9311L14.6516 61.467L15.267 61.0446C15.9452 60.5791 19.2498 59.4077 19.9458 59.386C20.3034 59.3749 20.4784 60.0082 20.879 62.7606ZM75.3889 59.6181C75.7206 59.7751 76.0239 60.3559 76.2282 61.2267L76.5484 62.5896L75.1776 63.6792C74.2854 64.3884 73.5239 65.3105 72.996 66.3213C72.2989 67.6558 72.1852 68.1716 72.1858 69.9985L72.1866 72.123L70.7445 72.7905C67.3551 74.3594 64.1682 78.338 62.8269 82.6751C62.4947 83.7502 62.0811 84.7112 61.908 84.8107C61.7352 84.9103 60.805 84.9933 59.8412 84.9955C58.4523 84.9985 57.0364 84.6969 53.0124 83.5407C50.2203 82.7387 47.4342 82.0093 46.821 81.9198C44.9591 81.6488 44.9641 81.6581 45.9737 80.3322C48.7874 76.6355 49.2933 71.5245 47.4133 65.7861L46.7605 63.7931L47.5786 63.1844C49.2105 61.9704 51.0128 62.6983 51.823 64.899C51.9195 65.1604 51.7888 65.963 51.5326 66.6825C51.1563 67.7401 51.1343 68.0621 51.4172 68.3633C51.9178 68.8967 52.3445 68.8319 53.8341 67.9969C54.7775 67.4678 55.4969 67.2576 56.3635 67.2576C57.5213 67.2576 59.5499 67.9587 59.9187 68.4862C60.1765 68.8549 61.0567 68.7898 61.4478 68.3734C61.7162 68.0873 61.7154 67.7586 61.4439 66.8217C61.1367 65.7624 61.1599 65.5118 61.6571 64.518C62.5329 62.7675 64.4979 62.149 66.6536 62.9454C68.2156 63.5223 69.3985 63.4257 70.0744 62.6657C70.3922 62.3087 70.6522 61.7986 70.6522 61.5323C70.6522 61.2659 71.0787 60.671 71.5999 60.2103C72.3742 59.5257 72.76 59.3725 73.7087 59.3725C74.3473 59.3725 75.1035 59.4831 75.3889 59.6181ZM122.47 61.7146C121.766 61.9127 120.617 62.5216 119.915 63.0674C115.889 66.2005 116.963 70.7268 121.958 71.6738C124.431 72.1425 126.775 71.4249 128.461 69.6828C130.481 67.5967 130.516 64.7304 128.545 62.8639C127.173 61.5648 124.678 61.0927 122.47 61.7146ZM15.0396 65.0515C15.7618 66.684 16.8265 69.3415 17.4052 70.957L18.4576 73.8942L17.1699 74.6371L15.8822 75.3803L15.4039 74.4607C15.1411 73.9548 13.8662 71.5755 12.5709 69.173L10.2159 64.8051L11.7308 63.4439C12.5642 62.6953 13.3541 62.083 13.4863 62.083C13.6184 62.083 14.3174 63.4188 15.0396 65.0515ZM38.1158 63.5306C39.2739 64.6639 40.3601 66.2853 40.8194 67.5669L41.1511 68.4919L38.4115 71.4685C36.9047 73.1054 35.4784 74.663 35.2418 74.9299C34.8192 75.4059 34.7844 75.4 33.2701 74.594L31.7287 73.7732L32.1318 72.6715C33.5806 68.7119 36.4994 62.5758 36.9342 62.5758C37.0474 62.5758 37.5792 63.0055 38.1158 63.5306ZM126.465 63.8475C127.868 64.488 128.13 66.7852 126.964 68.2322C125.489 70.0637 122.103 70.3829 120.373 68.8534C118.712 67.3845 120.45 64.3955 123.471 63.526C124.107 63.3429 125.744 63.5188 126.465 63.8475ZM84.2474 64.2726C86.4661 65.2733 87.7895 67.4244 87.6039 69.7291C87.537 70.5595 87.4124 70.8087 87.0972 70.7416C86.8672 70.6926 85.0485 70.5962 83.0556 70.5273C80.3801 70.4346 78.8067 70.5063 77.0412 70.801C75.7262 71.0206 74.548 71.2002 74.4226 71.2002C74.2974 71.2002 74.2718 70.4733 74.3657 69.585C74.5667 67.6812 75.6189 65.7799 76.9782 64.8632C78.9781 63.5146 82.019 63.2675 84.2474 64.2726ZM10.5724 67.6888C11.0117 68.4682 12.167 70.6443 13.1395 72.5249L14.908 75.9441L13.8793 76.9603C13.3132 77.5192 12.7646 78.0088 12.6601 78.048C12.3897 78.1497 9.93582 75.6901 9.40819 74.7887C8.78216 73.719 8.22415 71.7406 8.22192 70.5842C8.21941 69.1698 9.13643 66.272 9.58657 66.272C9.68942 66.272 10.1329 66.9094 10.5724 67.6888ZM64.0341 69.1414C63.1268 69.5367 62.0117 70.8298 62.0117 71.4863C62.0117 71.6933 61.5041 71.9572 60.7738 72.1299C58.7519 72.6079 57.4263 74.3673 57.9623 75.8606C58.1217 76.3041 58.0317 76.3748 57.3101 76.3748C56.8499 76.3748 56.1645 76.4786 55.7871 76.6055C55.1435 76.8218 55.0816 76.7691 54.7946 75.762C54.4132 74.4228 53.3948 73.6643 51.978 73.6643C50.7508 73.6643 49.4689 74.6258 49.4689 75.5459C49.4689 76.3472 50.188 76.2888 50.6401 75.4508C50.9016 74.9663 51.2477 74.7522 51.8543 74.6995C53.4017 74.5654 54.2385 76.174 53.3689 77.6108C53.1933 77.9009 53.1163 78.2924 53.1983 78.4809C53.3148 78.7497 53.6964 78.661 54.9618 78.0714C56.4374 77.3836 56.7267 77.3329 58.3185 77.4825C59.7431 77.6163 60.0606 77.5808 60.0606 77.287C60.0606 77.0897 59.8805 76.796 59.6603 76.6343C59.0903 76.2161 58.8737 75.096 59.211 74.3111C59.524 73.584 61.2189 72.7925 61.94 73.0372C62.5571 73.2464 63.1266 72.7176 63.1266 71.9352C63.1266 71.5218 63.4454 70.9503 63.9352 70.4871C64.5893 69.8679 64.9656 69.7217 65.9046 69.7217C66.5429 69.7217 67.3214 69.843 67.6344 69.9911C68.0525 70.1887 68.288 70.184 68.5219 69.9736C68.7619 69.7577 68.678 69.5692 68.1824 69.2114C67.3629 68.6193 65.3115 68.5848 64.0341 69.1414ZM41.3284 71.8778C41.1857 73.9908 40.5987 75.2709 38.9469 77.0712L37.9689 78.1374L36.8899 77.206C36.2968 76.6939 35.8112 76.1841 35.8112 76.0732C35.8112 75.8598 41.1511 69.9681 41.3445 69.9681C41.4067 69.9681 41.3995 70.8276 41.3284 71.8778ZM81.0042 74.2264C81.5806 75.3532 81.6583 75.863 81.633 78.3461C81.6084 80.7634 81.4485 81.7229 80.5434 84.876C79.6546 87.9729 79.4812 88.9916 79.4737 91.1595C79.4628 94.3589 79.9768 95.9611 82.6517 101.061C86.6986 108.775 88.5457 114.618 89.1949 121.757L89.3894 123.894L88.0501 124.071C85.7618 124.375 76.2438 123.787 75.7095 123.309C75.6108 123.221 75.5467 122.133 75.567 120.891C75.5982 118.989 75.8064 118.026 76.8929 114.763C79.2156 107.787 79.2195 105.738 76.9208 99.9569C76.2633 98.3032 75.0879 95.3423 74.3088 93.3772C73.5301 91.4121 72.7496 88.9448 72.5746 87.8946C71.8371 83.4626 73.8135 78.5704 78.2436 73.8644C79.8182 72.192 79.9743 72.2125 81.0042 74.2264ZM83.8355 73.7259C85.6023 75.5676 86.7309 77.4719 87.3748 79.6972C88.1293 82.3057 88.0755 83.8135 87.0938 87.5715C85.4485 93.8695 85.7071 94.8579 91.4815 104.343C94.1972 108.803 95.3508 111.163 96.4398 114.486C97.2632 116.997 97.7752 120.42 97.5377 121.821L97.3624 122.854L95.0869 123.255C93.8351 123.475 92.2979 123.725 91.6708 123.809L90.5302 123.962L90.203 120.818C89.5338 114.386 87.7134 108.45 84.5465 102.371C79.9012 93.4548 79.7167 92.326 81.6962 84.9332C83.2253 79.2214 83.2538 75.7492 81.7907 73.3361L81.2428 72.4323H81.9187C82.3906 72.4323 82.9689 72.8226 83.8355 73.7259ZM87.5153 73.3573C91.1766 75.028 93.1826 76.6104 94.5537 78.9097C95.2614 80.0964 95.3194 80.4103 95.3166 83.0279C95.3141 85.4398 95.1541 86.4671 94.2418 89.9275C93.2844 93.5591 93.1843 94.2433 93.3041 96.3341C93.5015 99.7731 94.7415 102.235 98.5222 106.694C102.147 110.968 103.492 113.063 104.267 115.638C104.668 116.966 104.765 118.748 104.486 119.664C104.335 120.162 101.877 121.424 99.5702 122.188L98.8037 122.441L98.802 121.277C98.799 119.134 97.9871 115.312 96.9429 112.525C95.947 109.867 94.9654 108.037 90.3725 100.277C87.0091 94.594 86.7847 93.2515 88.2422 87.5346C88.9632 84.7058 89.0825 83.8068 88.9554 82.1655C88.7141 79.0484 87.2017 75.6487 85.1279 73.5603C84.6781 73.1074 84.3099 72.671 84.3099 72.5907C84.3099 72.2962 86.1592 72.7388 87.5153 73.3573ZM76.2647 74.4824C72.3628 79.04 70.7495 83.591 71.4772 87.9897C71.89 90.4858 72.4731 92.1715 74.7099 97.3321C75.7769 99.794 76.7204 102.478 77.0908 104.105C77.8453 107.419 77.6561 109.117 75.9893 113.998C74.7208 117.711 74.1664 120.386 74.3175 122.063L74.422 123.226L73.4431 123.069C72.1133 122.855 68.0787 121.647 66.1446 120.883L64.5634 120.259L64.9464 118.831C65.1571 118.045 66.0156 116.002 66.8545 114.29C70.7484 106.343 71.2125 101.889 69.146 92.2977C68.04 87.1642 67.8978 84.7055 68.5737 82.4107C69.6092 78.8969 72.3622 75.5873 75.6961 73.8491C76.6708 73.341 77.4975 72.9251 77.5332 72.9251C77.5688 72.9251 76.998 73.6259 76.2647 74.4824ZM29.1407 74.0573C29.9736 74.2737 31.3552 74.7783 32.2117 75.179C33.7623 75.9047 36.6474 78.1155 36.6474 78.5782C36.6474 78.712 36.379 78.9486 36.0512 79.1036C35.5331 79.3488 35.3692 79.2887 34.7992 78.6448C33.8161 77.5344 31.3354 76.1826 29.5095 75.7623C27.5977 75.3219 24.9919 75.282 22.9337 75.6615C21.197 75.9818 17.4247 77.4847 15.6536 78.562C14.529 79.246 14.3704 79.2817 14.0365 78.9259C13.2178 78.0541 18.5638 74.6026 21.7592 73.94C23.5676 73.565 27.4848 73.6273 29.1407 74.0573ZM94.4899 75.3976C96.0819 76.3596 97.9263 78.2007 98.5537 79.455C99.6497 81.6453 99.7695 83.9005 99.085 89.4398C98.3611 95.2948 98.4495 97.7086 99.4763 100.12C100.288 102.027 100.916 102.923 104.048 106.639C108.019 111.351 109.015 114.077 107.73 116.717C107.395 117.406 106.817 118.222 106.446 118.53L105.772 119.09V117.99C105.772 116.626 105.123 114.365 104.24 112.657C103.584 111.387 101.626 108.761 98.4082 104.835C94.0726 99.5464 93.5115 96.5894 95.486 89.4346C96.255 86.6487 96.4067 85.6276 96.4192 83.1511C96.4337 80.331 96.3941 80.1203 95.5627 78.5925C94.6657 76.9448 93.6395 75.8485 91.6962 74.4624L90.5813 73.6673L91.9749 74.1936C92.7414 74.4831 93.873 75.025 94.4899 75.3976ZM72.3449 74.7862C70.7077 76.0939 68.7825 78.7392 67.9566 80.8159C66.728 83.9054 66.7392 86.5558 68.0046 92.3916C69.2934 98.3343 69.5493 102.272 68.8608 105.575C68.2677 108.422 67.8733 109.505 65.8949 113.718C65.001 115.622 64.1119 117.701 63.919 118.338C63.7261 118.975 63.4569 119.497 63.3208 119.497C62.9496 119.497 61.4478 118.545 60.2819 117.571C58.6691 116.223 58.6719 115.694 60.3083 112.774C63.0527 107.877 63.3674 106.341 63.6751 96.3341C63.9179 88.4386 64.1319 86.3082 64.9759 83.3976C66.1655 79.2943 68.5088 76.246 71.7671 74.5632C73.4763 73.6806 73.6469 73.7464 72.3449 74.7862ZM30.6899 77.2094C31.6289 77.5854 32.8746 78.3252 33.4577 78.853L34.5177 79.8128L33.5619 80.1617C31.5531 80.895 29.2085 81.169 24.9409 81.169C20.7098 81.1693 19.0421 80.9541 16.4397 80.0725L15.6035 79.7891L16.7184 79.1783C20.6735 77.0108 23.0207 76.3554 26.4739 76.4542C28.5066 76.5123 29.3063 76.6555 30.6899 77.2094ZM112.534 77.7545C110.933 78.2754 108.965 80.0094 108.535 81.2765C108.269 82.0613 108.266 82.506 108.52 83.2561C108.851 84.2336 110.219 85.4921 110.95 85.4921C111.196 85.4921 111.347 85.7486 111.348 86.1697C111.357 89.9883 115.955 92.2982 120.128 90.5802C125.014 88.5687 126.12 82.4659 122.145 79.4577C119.827 77.7037 115.206 76.8849 112.534 77.7545ZM117.437 79.5935C119.366 79.9589 121.172 81.0347 121.803 82.1938C122.779 83.986 122.226 86.7354 120.634 88.0084C119.857 88.6291 118.188 89.1882 117.111 89.1882C116.015 89.1882 114.44 88.3332 113.921 87.4559C113.579 86.8798 113.594 86.3698 114.005 84.6156C114.244 83.5967 113.588 83.0782 112.576 83.4858C111.098 84.0811 110.158 82.8956 110.946 81.4287C111.901 79.6496 114.242 78.9878 117.437 79.5935ZM8.77993 84.14C12.739 86.4669 17.0375 87.5294 22.5717 87.5488C26.8833 87.5644 28.003 87.3709 34.557 85.4807C40.1705 83.8618 42.7532 83.4089 45.0093 83.6477C45.8524 83.7371 48.8627 84.4825 51.6987 85.3043C55.9555 86.5378 57.2808 86.819 59.2941 86.9148L61.7329 87.0309V87.8583C61.7329 88.8844 61.1643 89.0547 58.2982 88.8878C56.7501 88.7977 55.476 88.4842 52.6642 87.5028C50.666 86.8049 48.3002 86.1147 47.4069 85.9686C45.1291 85.5965 42.5057 86.029 38.7379 87.398C33.1419 89.4314 32.462 89.6483 30.2963 90.0908C27.307 90.7019 21.6655 90.7002 18.6695 90.0874C14.3626 89.2065 10.3745 87.4444 6.74299 84.8176C4.58313 83.2556 4.45714 83.0913 4.19402 81.4864L4.0017 80.3145L5.46697 81.6843C6.27278 82.4375 7.76369 83.5427 8.77993 84.14ZM116.782 81.3418C116.475 81.4896 116.068 81.7845 115.876 81.9967C115.404 82.5191 115.435 83.8852 115.925 84.245C116.195 84.4428 116.272 84.8117 116.167 85.3898C115.954 86.5482 116.646 87.2169 118.059 87.2169C118.863 87.2169 119.246 87.0642 119.688 86.5676C120.337 85.8388 120.42 85.3592 119.945 85.0995C119.76 84.9982 119.396 85.2005 119.085 85.5778C118.789 85.9371 118.303 86.2313 118.004 86.2313C117.27 86.2313 116.986 85.5004 117.573 85.1212C118.22 84.7028 118.15 84.1747 117.409 83.8872C116.478 83.5264 116.435 82.6081 117.331 82.2471C117.731 82.0862 118.021 81.7892 117.977 81.5877C117.87 81.0985 117.46 81.0143 116.782 81.3418ZM8.77464 87.3882C14.5005 90.8067 22.0995 92.2915 28.7987 91.3012C31.889 90.8444 34.1068 90.2305 37.7623 88.8201C41.1243 87.523 42.057 87.2497 44.1092 86.9599C46.4857 86.6243 48.0789 86.9212 52.5349 88.5303C55.8311 89.7205 56.1692 89.7917 58.8063 89.8496L61.5936 89.9107L61.5779 90.6583C61.5696 91.0696 61.5381 92.5567 61.5083 93.9629L61.4542 96.5197L56.9249 98.0558C51.7835 99.7997 50.5264 100.025 49.2364 99.4355C48.1054 98.9185 48.061 97.9449 49.0787 95.9798C49.9444 94.3084 49.8318 93.1724 48.7241 92.4022C47.7717 91.7398 47.3634 91.7625 44.3952 92.6417C37.2562 94.7561 30.053 98.9082 21.2276 105.996C19.407 107.458 17.7664 108.655 17.5816 108.655C16.9826 108.655 14.6235 107.196 13.2287 105.963C10.8177 103.831 9.15343 101.086 7.76453 96.9502C7.18617 95.2275 4.87245 85.6335 4.87245 84.9571C4.87245 84.8196 5.46837 85.1417 6.1964 85.6732C6.92444 86.2047 8.08479 86.9764 8.77464 87.3882ZM48.1948 93.2715C48.7958 93.803 48.7442 94.2653 47.9091 95.8413C46.7254 98.075 47.0668 99.5567 48.9655 100.425C50.2028 100.99 52.0859 100.764 55.3222 99.6605C56.7785 99.1637 58.7734 98.488 59.7553 98.1586L61.5406 97.5595L61.3611 100.828C61.1615 104.461 60.7094 106.669 59.6199 109.332C59.0203 110.798 58.7815 111.118 58.2904 111.116C56.9873 111.109 54.5189 110.335 51.641 109.031C46.1715 106.552 43.1404 105.975 39.8528 106.787C39.0863 106.977 36.7812 107.744 34.7306 108.492C30.3705 110.083 28.0205 110.5 24.5233 110.303C22.0594 110.165 19.0876 109.555 19.0876 109.189C19.0876 108.958 24.4821 104.694 27.8675 102.249C33.1513 98.4314 39.7667 95.0353 44.7305 93.5921C47.5276 92.7789 47.6271 92.7696 48.1948 93.2715ZM110.127 94.271C112.337 95.1977 112.791 97.1424 111.471 100.016C111.079 100.868 110.797 101.802 110.843 102.091C110.924 102.589 111.085 102.618 113.855 102.634C117.054 102.651 118.071 102.939 119.126 104.124C120.323 105.47 119.631 106.912 117 108.55C114.94 109.834 114.816 110.377 116.403 111.154C118.695 112.276 119.153 114.143 117.55 115.827C116.178 117.269 113.663 117.694 111.545 116.841L110.49 116.417L110.414 114.294C110.346 112.392 110.221 111.957 109.211 110.105C108.592 108.969 106.891 106.638 105.431 104.926C102.772 101.807 101.312 99.5432 101.312 98.5385C101.312 97.4272 103.561 95.283 105.911 94.1529C106.746 93.752 109.044 93.8163 110.127 94.271ZM103.151 98.3803C102.469 98.8214 102.828 99.3793 103.673 99.1918C104.746 98.9535 105.288 99.762 105.173 101.433C105.075 102.863 105.076 102.864 105.911 102.946C107.493 103.102 108.172 104.249 107.418 105.494C107.195 105.864 107.2 106.072 107.438 106.279C107.682 106.491 107.896 106.417 108.3 105.978C109.349 104.844 108.842 102.97 107.311 102.324C106.391 101.936 106.329 101.837 106.329 100.738C106.329 99.8697 106.166 99.4037 105.702 98.9444C104.914 98.165 103.848 97.9292 103.151 98.3803ZM109.947 107.059C109.486 107.551 109.794 107.792 110.883 107.792C111.678 107.792 111.773 107.873 111.853 108.609C111.916 109.191 111.736 109.665 111.226 110.256C110.369 111.25 110.324 111.612 111.056 111.612C111.801 111.612 113.019 109.731 113.019 108.581C113.019 107.06 110.922 106.021 109.947 107.059Z" fill="#6D3D67"/>
</svg>
