<svg width="99" height="126" viewBox="0 0 99 126" fill="none" xmlns="http://www.w3.org/2000/svg">
<path fill-rule="evenodd" clip-rule="evenodd" d="M18.6867 0.143296C7.49547 1.55537 -0.546793 8.92027 0.0290662 17.2297C0.216683 19.9394 1.2023 21.9243 3.41418 24.0476C6.34325 26.8594 10.2897 28.4621 15.644 29.015C17.1297 29.1684 18.5904 29.34 18.8906 29.3965C19.2233 29.4594 19.9277 30.1973 20.6957 31.287C22.4178 33.7309 25.232 36.8408 25.8942 37.0312C27.4589 37.4813 28.3144 35.7681 28.3527 32.1075C28.373 30.1704 28.434 29.8838 28.8638 29.7092C29.1322 29.6 31.547 29.1117 34.2299 28.6241C41.8434 27.2402 44.8002 26.0474 47.6132 23.2242C51.4386 19.3848 52.2178 13.9658 49.6895 8.78365C47.3395 3.96693 43.1672 1.5381 35.4807 0.512466C32.1598 0.0693138 21.1855 -0.171868 18.6867 0.143296ZM32.6039 2.52502C37.3511 3.19875 41.3148 4.35016 43.4396 5.67246C45.0801 6.69317 46.6944 8.52644 47.6878 10.4966C48.5503 12.207 48.6138 12.4857 48.6138 14.5656C48.6138 16.4768 48.5165 17.0033 47.9377 18.2208C46.6506 20.9285 43.5729 23.2254 39.4831 24.5312C38.5888 24.8168 35.7298 25.5546 33.1294 26.1707C30.5293 26.7867 28.011 27.4737 27.5335 27.6972C26.38 28.2367 26.0057 29.1731 26.1646 31.1228C26.2339 31.9753 26.2111 32.8742 26.1136 33.1203C25.955 33.52 25.8697 33.489 25.3123 32.8278C24.9691 32.4209 23.9077 30.9529 22.9531 29.5657C21.931 28.0796 20.9186 26.8907 20.4896 26.672C20.0891 26.4678 18.2044 26.1312 16.3015 25.9238C9.65731 25.1998 5.99378 23.6567 3.94375 20.7194C1.20655 16.7976 2.40955 11.3602 6.92261 7.25297C10.4486 4.04437 14.9384 2.56399 22.7227 2.04414C24.9176 1.89741 29.8864 2.13933 32.6039 2.52502ZM14.8458 8.77379C10.9596 8.88871 10.3355 8.96146 10.2682 9.30745C10.2254 9.52767 10.3512 9.76885 10.5479 9.84332C11.0947 10.05 39.0571 10.3602 39.8339 10.1681C40.3957 10.029 40.5015 9.88179 40.437 9.32989L40.3587 8.66035L29.8521 8.65049C24.0735 8.64481 17.3208 8.7003 14.8458 8.77379ZM11.8875 13.6514C10.4433 13.7256 10.1951 13.8033 10.2642 14.1589C10.382 14.7661 15.512 14.9629 29.2268 14.8872L40.3587 14.8255V14.209V13.5925L26.9754 13.5782C19.6145 13.57 12.825 13.6031 11.8875 13.6514ZM15.4714 18.3922C10.8933 18.5106 10.3375 18.5697 10.2639 18.9473C10.2104 19.2223 10.3843 19.4176 10.7613 19.5061C11.0799 19.5808 17.8697 19.6681 25.8497 19.6999L40.3587 19.7577V19.0178V18.278L30.4775 18.2689C25.0429 18.264 18.2902 18.3194 15.4714 18.3922ZM67.2504 20.7571C65.6682 20.933 62.3156 21.0851 59.8003 21.0955C55.8724 21.1113 55.0106 21.186 53.6922 21.6237C50.6091 22.6476 48.9153 24.3063 47.1357 28.0441C45.8911 30.6577 45.2365 31.4051 42.7172 33.0865C39.5227 35.2184 37.7321 37.7607 37.7321 40.1636C37.7321 41.0785 37.3913 41.7032 36.1766 43.0151C34.0335 45.3298 33.6363 47.891 35.0081 50.5529C35.4361 51.3835 36.0007 52.3603 36.2629 52.7233C36.9571 53.6851 37.7203 55.43 37.7266 56.0705C37.7308 56.5109 37.5902 56.6268 37.0441 56.6323C35.9632 56.6431 34.1796 57.6756 33.3148 58.791C32.4142 59.9528 31.8894 61.9348 32.1328 63.2564C32.89 67.368 37.7801 70.4657 40.9571 68.8462C41.4103 68.6151 41.8131 68.462 41.8521 68.5059C41.8911 68.5498 42.1551 69.0297 42.4382 69.5722C44.0052 72.5727 48.3129 76.1746 52.6568 78.1161C53.8641 78.6557 54.2481 78.9425 54.1393 79.2224C54.0585 79.43 53.9922 79.7556 53.9922 79.9455C53.9922 80.1353 52.4445 81.3097 50.5525 82.555C45.234 86.0561 37.5347 91.6141 35.8396 93.1759C34.9984 93.951 34.0092 95.0134 33.6413 95.5369C32.8735 96.6289 32.053 98.7934 31.7143 100.62C31.2708 103.013 28.7264 122.288 28.7264 123.256C28.7264 124.502 29.0459 125.072 30.0473 125.611C30.8067 126.02 32.7184 126.041 63.4981 125.966C100.333 125.877 97.3725 126.048 98.4801 123.949C99.059 122.852 99.0643 122.773 98.9242 117.044C98.7646 110.514 98.1795 103.136 97.6384 100.831C97.1433 98.7211 96.7256 97.8126 95.7369 96.6947C94.1204 94.8669 76.4074 81.213 74.9252 80.6525C74.7213 80.5753 74.4972 80.2971 74.4277 80.0345C74.3244 79.6458 74.627 79.3958 76.0564 78.6885C77.022 78.2108 78.3343 77.47 78.9727 77.0422C80.8196 75.8047 83.8383 72.6925 85.1418 70.6819C85.8015 69.6647 86.3674 68.7983 86.3991 68.7569C86.4311 68.7152 87.0363 68.8679 87.7442 69.0962C90.0216 69.8306 92.4316 69.1483 94.5079 67.1816C96.1102 65.664 96.632 64.4642 96.633 62.2973C96.634 60.2608 96.3045 59.4115 95.0252 58.1504C94.3141 57.4493 93.5914 57.1237 91.9533 56.7662C90.7583 56.5052 90.9922 55.2076 92.8914 51.5605C94.3123 48.8323 94.5174 48.2671 94.5174 47.0807C94.5174 45.3478 93.6747 43.6272 92.0031 41.9478C90.9642 40.9037 90.6978 40.4336 90.3006 38.9414C89.4898 35.8978 87.9666 33.922 84.992 32.0572C83.5448 31.1499 83.4053 30.9726 82.232 28.5524C80.3539 24.6782 77.7888 22.2716 74.3516 21.1581C72.2771 20.4861 70.561 20.3895 67.2504 20.7571ZM73.4456 23.7897C76.7256 24.7961 79.4335 27.2609 80.2583 29.9913C80.5337 30.9025 80.7589 31.7494 80.7589 31.8734C80.7589 32.431 82.4392 34.0216 83.7242 34.6806C86.6035 36.1567 87.1208 36.9106 88.266 41.2973C88.4607 42.0425 88.9925 42.842 90.0146 43.9251C92.3763 46.4277 92.4544 47.457 90.5772 51.3509C89.6419 53.2907 89.6394 53.3053 89.6206 56.6253C89.5974 60.7331 89.6014 60.6966 89.1213 61.1701C88.5239 61.7587 87.5859 61.6497 87.1121 60.9365C86.8041 60.4734 86.7393 60.0191 86.8564 59.1484C87.1043 57.3057 86.7201 56.4991 84.5502 54.3058C82.2628 51.9936 82.0967 51.545 82.517 48.8121C83.1001 45.0198 81.9939 41.8679 79.6597 40.6711C78.4449 40.0482 77.4598 40.2388 73.9741 41.7707C65.8153 45.3569 62.5408 45.4437 56.869 42.2243C53.737 40.4462 53.3038 40.2805 51.8644 40.3091C49.8749 40.3483 48.2559 41.4216 47.1534 43.4319C46.6621 44.3281 46.6126 44.7863 46.6126 48.4375V52.4567L44.8615 54.1095C42.3324 56.4966 42.2384 56.6683 42.2366 58.9065C42.2351 60.4875 42.1483 60.903 41.7345 61.3109C41.0871 61.9491 40.8415 61.9326 40.0988 61.2004C39.5119 60.6219 39.4881 60.4736 39.5279 57.6567L39.5692 54.7164L38.1503 51.7822C36.6749 48.731 36.3965 47.3544 37.0196 46.1899C37.1782 45.8938 38.059 44.8097 38.9768 43.7811C40.6289 41.9293 40.7077 41.7703 41.4794 38.717C41.8536 37.2364 42.4535 36.6285 44.7339 35.4184C46.9936 34.2197 47.7473 33.4855 48.3342 31.9126C48.5513 31.3309 48.9601 30.2283 49.2427 29.4624C50.7332 25.4205 54.5931 23.656 61.2467 23.9749C62.6241 24.041 64.6223 23.9443 65.9997 23.745C69.4723 23.2429 71.707 23.2563 73.4456 23.7897ZM53.1519 43.3148C54.9903 44.8158 55.6425 45.0883 61.1216 46.6462C64.6781 47.6575 71.3795 46.4097 75.0623 44.0506C77.0368 42.7858 78.142 42.4139 78.6618 42.8393C79.2279 43.3027 80.2763 45.4518 80.3103 46.2198C80.3266 46.5852 80.2508 48.1093 80.142 49.6062C79.9601 52.1055 79.9869 52.4111 80.4692 53.3433C80.7581 53.9016 81.8303 55.0986 82.8517 56.0032L84.7086 57.6483L84.8016 59.4643C84.8727 60.8507 85.025 61.4542 85.4455 62.0149L85.9964 62.7496L85.3915 64.503C84.121 68.1853 82.6163 70.5374 79.8443 73.1734C77.1929 75.6947 74.6165 77.164 71.0028 78.2155C69.6877 78.5983 68.5878 78.6888 65.2492 78.6883C61.5181 78.6878 60.8845 78.6229 58.6526 78.0121C52.7349 76.3923 47.4871 73.02 44.7247 69.0622C43.7466 67.6605 42.2424 64.3772 42.2379 63.6337C42.2361 63.3321 42.5015 62.9797 42.8815 62.7792C43.8426 62.2721 44.2361 61.2998 44.2361 59.4312C44.2361 57.7879 44.2454 57.7659 45.2885 56.8912C48.9043 53.8594 49.4909 52.7117 49.0201 49.5919C48.6153 46.9088 48.6699 46.0546 49.3353 44.6454C49.9139 43.4208 50.9953 42.3222 51.6222 42.3222C51.7951 42.3222 52.4835 42.7688 53.1519 43.3148ZM37.7331 59.6463C37.7341 61.52 38.3407 62.6541 39.6245 63.1831C40.5806 63.5769 40.6206 63.643 40.84 65.1878C40.9771 66.1547 40.9351 66.2553 40.2479 66.6058C39.8409 66.8132 39.0486 66.9828 38.487 66.9828C33.9647 66.9828 32.2511 61.1927 36.054 58.7619C37.583 57.7844 37.7318 57.8628 37.7331 59.6463ZM93.3942 59.1679C95.2156 60.9634 95.0663 63.3395 93.0082 65.3047C91.6757 66.5774 90.2303 67.1219 88.7944 66.8921C87.5689 66.696 87.4628 66.4958 87.806 65.0292C88.0484 63.9942 88.2415 63.6818 88.7501 63.501C90.1059 63.0186 90.5279 62.6734 91.0433 61.6236C91.435 60.826 91.5436 60.2468 91.4518 59.4446C91.3339 58.4128 91.3615 58.3516 91.9466 58.3516C92.3146 58.3516 92.9027 58.6833 93.3942 59.1679ZM61.6062 80.775C64.8802 81.2239 68.6446 81.084 71.3327 80.4135C72.0337 80.2387 72.0369 80.2431 71.8718 81.1933C71.3122 84.4162 70.5705 85.3242 67.7743 86.2107C64.4079 87.2778 60.5973 86.6033 58.1825 84.5131C57.1469 83.6167 55.7433 81.049 55.7433 80.0505V79.3871L57.7105 79.9489C58.7927 80.2579 60.5458 80.6295 61.6062 80.775ZM53.8286 88.8596C54.135 97.4084 55.3725 109.296 56.9683 119.015L57.6765 123.328L56.3001 121.851C53.0836 118.398 43.4784 105.979 43.4886 105.286C43.4901 105.175 44.1938 104.711 45.0521 104.256C45.9104 103.801 47.8839 102.691 49.4376 101.79C53.1792 99.6197 53.3575 98.9978 50.6308 97.6264C49.9342 97.276 48.7452 96.8015 47.9884 96.5722C47.1039 96.3039 46.6409 96.0365 46.6916 95.823C46.8367 95.2144 53.3553 84.0386 53.5101 84.1331C53.5939 84.1841 53.7373 86.3111 53.8286 88.8596ZM57.5121 86.8085C58.3241 87.4102 59.5526 88.0872 60.2426 88.3131C60.9325 88.539 61.4969 88.8087 61.4969 88.9123C61.4969 89.0161 61.2565 89.3123 60.9628 89.5708C60.6691 89.8292 59.4321 91.119 58.2138 92.4371C55.6515 95.2092 55.8991 95.3941 55.5001 90.4105C55.3533 88.5794 55.1709 86.4154 55.0946 85.6016L54.9555 84.122L55.4959 84.9183C55.7928 85.3563 56.7001 86.2068 57.5121 86.8085ZM75.9894 87.6897C76.554 88.9737 77.802 91.4225 78.7624 93.1318C79.723 94.8408 80.5087 96.3071 80.5087 96.3902C80.5087 96.4733 79.6066 97.0148 78.5042 97.5941C76.174 98.818 75.3905 99.5287 75.6122 100.217C75.7057 100.508 76.9615 101.327 78.8251 102.313C80.631 103.269 81.8733 104.075 81.8568 104.281C81.8418 104.473 79.8083 107.229 77.338 110.405C74.8679 113.582 72.2431 117.04 71.5053 118.09C70.7676 119.139 70.1417 119.972 70.1145 119.939C69.8448 119.617 74.6173 85.012 74.8935 85.2862C74.9315 85.3242 75.4245 86.4056 75.9894 87.6897ZM50.0835 85.7866C49.9814 85.9563 48.5153 88.28 46.8252 90.9508C45.1354 93.6218 43.6835 96.0782 43.5992 96.4099C43.3876 97.2405 44.2068 97.9416 45.8271 98.3169C47.0126 98.5914 48.4888 99.1845 48.4888 99.3862C48.4888 99.4331 47.1462 100.263 45.5051 101.23C41.7923 103.419 40.9841 104.073 40.9841 104.893C40.9841 105.285 41.8169 106.692 43.1975 108.632C44.4147 110.342 46.3467 113.129 47.4904 114.825C49.8093 118.261 51.2525 120.194 53.0383 122.256C53.7005 123.02 54.2423 123.714 54.2423 123.798C54.2423 124.245 33.4777 123.779 31.8787 123.296C31.4296 123.16 31.4131 122.95 31.5742 119.428C31.8629 113.125 33.221 103.991 34.3792 100.564C35.5867 96.9904 36.8503 95.6107 43.4856 90.6188C45.7558 88.9108 48.1761 87.0596 48.864 86.5047C50.2296 85.4034 50.3614 85.3257 50.0835 85.7866ZM84.3861 90.7503C93.4275 97.529 94.2535 98.3418 94.7568 100.958C95.4895 104.768 96.1907 122.171 95.6319 122.687C95.441 122.864 76.9105 123.466 71.9231 123.458L70.7169 123.456L72.6456 120.681C74.4392 118.101 76.2538 115.685 82.1845 107.979C85.459 103.725 85.3735 103.153 81.1519 101.077L79.1684 100.101L80.9865 99.1596C84.1817 97.5043 84.2048 96.9263 81.2594 92.2908C78.8894 88.5609 77.2567 85.828 77.2567 85.591C77.2567 85.4006 77.0808 85.2734 84.3861 90.7503ZM72.1337 89.701C71.7815 91.6511 71.4296 93.5549 71.3515 93.932C71.2139 94.5983 71.1329 94.5399 68.4792 91.8568C66.9775 90.3384 65.777 89.0785 65.8118 89.0576C65.8463 89.0364 66.471 88.8889 67.1999 88.7301C69.0108 88.3348 70.996 87.3725 71.8831 86.4598C72.2888 86.0426 72.6553 85.8034 72.6976 85.9284C72.7399 86.0534 72.4862 87.7511 72.1337 89.701ZM65.1666 91.3352C65.9869 92.2506 66.7479 93.1485 66.8577 93.33C66.9783 93.5295 66.6766 94.6237 66.0957 96.0933L65.1339 98.526L64.0032 98.599L62.8727 98.6718L61.3055 95.8435L59.738 93.0154L61.5556 91.3547C62.5553 90.4415 63.4411 89.6889 63.5241 89.6825C63.6074 89.6761 64.3464 90.4198 65.1666 91.3352ZM59.3635 96.4523C59.753 97.4018 60.2819 98.5278 60.5388 98.9546L61.0056 99.7307L59.6132 104.38C58.8475 106.937 58.1323 109.247 58.0242 109.513C57.8368 109.974 57.2882 106.515 56.4019 99.2883L56.0842 96.6989L57.2162 95.529C57.8386 94.8856 58.4172 94.4417 58.5017 94.5426C58.586 94.6435 58.974 95.5029 59.3635 96.4523ZM70.6233 98.4242C70.5502 98.8306 70.208 101.106 69.8631 103.48C69.5179 105.854 69.2094 107.885 69.1774 107.993C69.1451 108.1 68.5322 106.333 67.8153 104.065C67.0553 101.662 66.5993 99.8311 66.7221 99.6767C66.9042 99.4476 67.817 97.236 68.3576 95.714C68.5137 95.2748 68.6506 95.3534 69.6444 96.4538C70.5748 97.4841 70.7346 97.8059 70.6233 98.4242ZM65.8641 101.076C65.9324 101.382 66.1683 102.741 66.3879 104.097C66.6078 105.453 67.1892 108.061 67.6797 109.892L68.5715 113.222L68.1578 116.797C67.9304 118.764 67.6722 121.039 67.5844 121.853C67.4966 122.667 67.3012 123.414 67.1501 123.514C66.907 123.674 60.2618 123.796 60.2356 123.641C60.2298 123.607 59.8596 121.583 59.4126 119.143L58.6001 114.706L60.4142 107.675C61.4121 103.809 62.2328 100.617 62.2378 100.583C62.2431 100.549 63.0331 100.521 63.9937 100.521C65.6012 100.521 65.7498 100.565 65.8641 101.076Z" fill="#6D3D67"/>
</svg>
