<svg width="72" height="90" viewBox="0 0 72 90" fill="none" xmlns="http://www.w3.org/2000/svg">
<path d="M45.1311 62.6627C44.5746 64.1254 43.985 65.5735 43.4691 67.0509C41.5492 72.5792 39.6845 78.1295 37.713 83.6395C37.5067 84.2151 36.7365 84.9263 36.2022 84.9519C35.701 84.9739 34.9455 84.2664 34.6802 83.7018C32.6239 79.3503 30.6635 74.9511 28.6625 70.5702C27.3838 67.7731 26.0793 64.9832 24.6495 61.8965C22.6779 64.2097 22.1547 66.6293 21.8525 69.0892C21.8083 69.4594 22.5748 70.1523 23.0944 70.3283C25.836 71.2778 25.9171 71.582 24.6089 74.1446C24.2994 74.7531 24.4615 76.0216 24.9185 76.5311C27.8592 79.7975 30.9509 82.932 33.9727 86.1287C34.9529 87.1662 35.8705 88.2623 36.8139 89.3328C36.6812 89.5564 36.5485 89.7801 36.4159 90.0037C35.7821 89.7691 34.9713 89.7104 34.5476 89.2741C30.4534 85.0729 26.4072 80.8277 22.3979 76.5495C21.624 75.7246 21.1265 74.7458 22.1178 73.6057C22.2689 73.4334 21.8562 72.3885 21.4766 72.2053C19.2766 71.1421 19.0666 70.7022 19.8478 68.3816C20.3932 66.7649 20.8907 65.1299 21.3513 63.4875C21.6867 62.2887 21.1781 61.7682 20.0136 62.2961C16.7818 63.7588 13.5058 65.1555 10.3882 66.8309C5.5092 69.4484 3.05863 73.822 1.96417 79.0937C1.74306 80.1568 1.23452 81.1576 0.538043 82.1291C-0.361114 80.2118 0.0479288 78.3495 0.493822 76.5055C2.17053 69.6024 7.23381 65.8484 13.2773 63.0732C17.4488 61.1596 21.6682 59.3486 25.8766 57.5266C27.0742 57.0097 27.8481 56.2728 28.2277 54.9494C29.1452 51.7636 28.2866 48.6989 25.8103 46.5799C24.701 45.6304 23.6324 44.6113 22.7185 43.4822C22.3205 42.9909 22.3684 42.1477 22.2136 41.4659C22.5379 41.2459 22.8659 41.0259 23.1902 40.806C24.034 41.9021 24.819 43.0496 25.7255 44.0907C30.2729 49.2928 36.7107 49.0325 41.3465 44.9449C45.9971 40.8426 46.513 37.3196 42.9864 31.9123C42.312 30.8785 41.704 29.8703 40.2041 29.819C39.8393 29.808 39.106 28.7045 39.2202 28.5176C40.0862 27.1061 39.246 26.6369 38.1405 26.2593C37.1382 25.9147 36.2832 25.5701 36.8544 24.1917C36.9908 23.8617 36.7033 23.2275 36.4269 22.8792C35.2109 21.3505 33.9358 19.8658 32.6682 18.3774C31.9164 17.4939 31.1683 17.4022 30.424 18.4251C29.8122 19.2646 29.1158 20.0381 28.5262 20.8923C26.6689 23.5758 26.6836 23.5831 28.493 25.834C28.4451 25.944 28.4082 26.1347 28.3382 26.1457C24.7305 26.7689 24.1004 29.8336 23.2454 32.5392C21.613 37.7009 20.1831 42.9286 18.6723 48.1306C17.9905 50.4842 18.7349 52.5738 19.8699 54.6011C20.3306 55.426 20.7359 56.2802 21.1671 57.116C17.7326 58.5237 14.7698 58.2048 11.9912 55.9832C9.0395 53.626 7.40701 50.7152 7.30383 46.8842C7.19696 42.8699 8.58624 39.2113 9.71755 35.483C11.409 29.8886 13.0968 24.287 14.9061 18.7293C16.0338 15.265 17.0287 11.687 18.7165 8.49021C20.887 4.37696 24.351 1.39283 29.1452 0.512993C31.0025 0.172055 32.9814 0.205049 34.4812 1.71911C34.765 2.00505 34.776 2.56229 34.9124 2.99121C34.4186 3.10852 33.7811 3.48612 33.4531 3.30648C30.1034 1.45882 27.4133 3.05353 24.8005 4.88286C20.6733 7.76434 19.0445 12.1709 17.681 16.724C15.6026 23.6674 13.4948 30.6072 11.4606 37.5652C10.742 40.0215 10.075 42.507 9.61437 45.0219C8.76312 49.6924 11.5896 53.3987 15.3483 55.5616C15.8716 55.8622 16.5828 55.8439 17.5925 56.0492C17.1467 54.6011 16.7081 53.5527 16.5202 52.4602C16.2917 51.1551 16.1038 49.8023 16.2033 48.4899C16.7118 41.7701 19.2324 35.6259 21.7272 29.4524C23.3597 25.4088 25.1285 21.4642 27.9365 18.1134C28.8725 16.9953 30.2802 16.2145 31.5921 15.4923C31.9864 15.276 32.9519 15.5876 33.3646 15.9688C37.3887 19.6715 40.9485 23.7664 43.4912 28.6385C45.2085 31.9269 47.0289 35.186 48.4329 38.61C50.4191 43.4455 51.6094 48.4899 50.8171 53.8019C50.7803 54.0439 50.854 54.3482 50.7324 54.5205C50.4118 54.9714 50.0064 55.3637 49.6379 55.7779C49.3652 55.3233 48.9046 54.8871 48.853 54.4068C48.5361 51.4484 48.3739 48.4753 48.0165 45.5205C47.8912 44.4683 47.3679 43.4638 47.1763 42.8956C45.1348 44.6443 42.71 46.1363 41.1401 48.259C39.8283 50.0296 41.2802 52.2586 42.113 54.1209C43.3475 56.8777 46.1408 57.5193 48.654 58.4248C53.8426 60.2908 59.0017 62.1274 63.4164 65.6358C67.8532 69.1588 70.3259 73.7853 71.7594 79.079C71.9031 79.6142 71.5199 80.2888 71.3798 80.8973C70.7976 80.5527 69.9463 80.3438 69.681 79.8342C68.9293 78.3788 68.4723 76.7768 67.8016 75.2774C65.1631 69.3604 60.2657 65.8081 54.6717 63.0256C53.4704 62.428 52.2101 61.9185 50.9351 61.4969C50.1796 61.2439 49.3394 61.2403 48.0607 61.0606C49.1736 63.8394 50.0838 66.1344 51.0124 68.4219C52.2064 71.3694 52.2101 71.3657 49.4831 72.9568C49.3284 73.0484 49.1957 73.1804 48.9156 73.4004C50.3602 75.1674 49.2805 76.5458 48.245 77.9389C45.6249 81.4729 43.0158 85.0143 40.3884 88.5409C40.1341 88.8819 39.843 89.2705 39.4782 89.4208C39.1428 89.5601 38.6269 89.5161 38.31 89.3401C38.1442 89.2485 38.0926 88.6143 38.2363 88.3686C38.767 87.4815 39.3824 86.6383 39.9978 85.8024C42.1019 82.9503 44.1803 80.0835 46.3471 77.279C47.1136 76.2855 47.0068 75.644 46.1297 74.7934C44.3425 73.0668 44.5857 71.967 46.9662 71.1421C48.595 70.5776 49.0999 69.8517 48.2302 68.191C47.3384 66.479 46.7304 64.6203 45.9971 62.824C45.7023 62.7653 45.4185 62.714 45.1311 62.6627ZM35.4062 68.7226C36.2832 68.6492 37.5693 68.7555 38.7006 68.3853C39.714 68.0553 40.9006 67.3991 41.3907 66.5376C42.2494 65.0309 42.7653 63.2859 43.1632 61.5812C43.3586 60.7527 43.2922 59.4769 42.78 58.938C40.5321 56.5918 39.1244 53.9302 38.8628 50.7005C38.767 49.5091 38.1995 49.4027 37.1345 49.5824C35.5241 49.8537 33.8621 50.0919 32.2481 49.9746C30.505 49.8463 30.1181 50.3999 29.9744 52.0789C29.7864 54.2602 29.6906 56.9437 28.4045 58.4174C26.5731 60.5107 26.5252 62.0688 27.7965 64.1511C28.0803 64.6166 28.3493 65.1152 28.5004 65.6321C29.0752 67.6521 30.5529 68.3889 32.4913 68.5209C33.3462 68.5796 34.2012 68.6419 35.4062 68.7226ZM31.0983 71.1311C32.6534 74.5662 33.9837 77.5283 35.3877 80.4538C35.4135 80.5087 36.6554 80.2704 36.7733 79.9552C37.7278 77.4623 38.5864 74.9328 39.3676 72.3812C39.4634 72.0623 38.9402 71.1971 38.6822 71.1861C36.379 71.0908 34.0722 71.1311 31.0983 71.1311Z" fill="#323232"/>
<path d="M59.1638 41.3266C59.3812 46.5983 58.2536 51.4227 54.3253 55.228C53.6694 55.8622 52.6007 56.0785 51.7236 56.4891C52.0369 55.6056 52.1253 54.5242 52.7039 53.8716C56.2378 49.8793 57.4318 45.2895 56.5953 40.1021C55.943 36.0695 55.6556 31.9343 54.5648 28.0226C52.0921 19.1583 48.8124 10.6385 40.8858 4.93418C39.8061 4.15699 38.4906 3.72073 37.3482 3.01686C36.8507 2.71258 36.5227 2.13335 36.1174 1.67877C36.8065 1.49914 37.5951 1.01156 38.17 1.19119C41.2286 2.15902 44.0661 3.56676 46.314 5.94966C50.2754 10.1509 52.9802 15.034 54.8523 20.4853C57.1923 27.2711 58.9243 34.1375 59.1638 41.3266Z" fill="#323232"/>
<path d="M31.5 40.1424C33.1951 39.8968 34.647 39.6622 36.1063 39.4936C36.4085 39.4606 36.8212 39.6035 37.0313 39.8162C37.1639 39.9518 37.1087 40.4211 36.9723 40.6374C36.0916 42.0341 32.8598 42.32 31.839 41.0773C31.5884 40.7803 31.5553 40.3074 31.5 40.1424Z" fill="#323232"/>
<path d="M35.1777 34.6141C34.5476 35.0467 34.1754 35.483 33.9506 35.417C33.4973 35.2887 33.1251 34.8854 32.7234 34.5921C32.9814 34.3245 33.2652 33.8113 33.4899 33.8369C33.9543 33.8919 34.3891 34.2292 35.1777 34.6141Z" fill="#323232"/>
</svg>
