<svg width="255" height="77" viewBox="0 0 255 77" fill="none" xmlns="http://www.w3.org/2000/svg">
<path d="M244.947 77H9.42105C4.24183 77 0 72.6663 0 67.375V9.62502C0 4.33367 4.24183 2.0604e-05 9.42105 2.0604e-05H244.947C250.127 2.0604e-05 254.368 4.33367 254.368 9.62502V67.375C254.368 72.6663 250.127 77 244.947 77Z" fill="black"/>
<path d="M244.947 1.54242C249.309 1.54242 252.859 5.16864 252.859 9.62502V67.375C252.859 71.8314 249.309 75.4576 244.947 75.4576H9.42105C5.05911 75.4576 1.50972 71.8314 1.50972 67.375V9.62502C1.50972 5.16864 5.05911 1.54242 9.42105 1.54242H244.947ZM244.947 2.0604e-05H9.42105C4.24183 2.0604e-05 0 4.33367 0 9.62502V67.375C0 72.6663 4.24183 77 9.42105 77H244.947C250.127 77 254.368 72.6663 254.368 67.375V9.62502C254.368 4.33367 250.127 2.0604e-05 244.947 2.0604e-05Z" fill="white"/>
<path d="M89.3445 19.7189C89.3445 21.3263 88.8734 22.6137 87.9455 23.5737C86.8785 24.7119 85.4889 25.2846 83.7861 25.2846C82.1586 25.2846 80.769 24.7023 79.629 23.5545C78.4867 22.3899 77.9167 20.9606 77.9167 19.2497C77.9167 17.5389 78.4867 16.1096 79.629 14.9546C80.769 13.7972 82.1586 13.2148 83.7861 13.2148C84.5963 13.2148 85.3688 13.3857 86.106 13.7033C86.8408 14.0233 87.4391 14.4565 87.8724 14.9907L86.8879 16.0061C86.1319 15.0941 85.1027 14.6442 83.7861 14.6442C82.599 14.6442 81.5698 15.0677 80.696 15.9219C79.8316 16.7785 79.3982 17.8878 79.3982 19.2497C79.3982 20.6117 79.8316 21.7306 80.696 22.5872C81.5698 23.4318 82.599 23.8649 83.7861 23.8649C85.0461 23.8649 86.106 23.4318 86.9421 22.5776C87.4933 22.0121 87.8065 21.2325 87.8889 20.2363H83.7861V18.8455H89.2597C89.3256 19.1462 89.3445 19.4374 89.3445 19.7189Z" fill="white" stroke="white" stroke-width="0.16" stroke-miterlimit="10"/>
<path d="M98.028 14.8975H92.8865V18.555H97.5216V19.9458H92.8865V23.6033H98.028V25.0206H91.4309V13.4802H98.028V14.8975Z" fill="white" stroke="white" stroke-width="0.16" stroke-miterlimit="10"/>
<path d="M104.156 25.0206H102.701V14.8975H99.5472V13.4802H107.313V14.8975H104.156V25.0206Z" fill="white" stroke="white" stroke-width="0.16" stroke-miterlimit="10"/>
<path d="M112.933 25.0206V13.4802H114.386V25.0206H112.933Z" fill="white" stroke="white" stroke-width="0.16" stroke-miterlimit="10"/>
<path d="M120.828 25.0206H119.384V14.8975H116.218V13.4802H123.993V14.8975H120.828V25.0206Z" fill="white" stroke="white" stroke-width="0.16" stroke-miterlimit="10"/>
<path d="M138.694 23.5352C137.58 24.7023 136.2 25.2846 134.554 25.2846C132.898 25.2846 131.518 24.7023 130.404 23.5352C129.292 22.3706 128.739 20.9413 128.739 19.2497C128.739 17.5581 129.292 16.1288 130.404 14.9642C131.518 13.7972 132.898 13.2148 134.554 13.2148C136.191 13.2148 137.571 13.7972 138.685 14.9738C139.806 16.1481 140.36 17.5677 140.36 19.2497C140.36 20.9413 139.806 22.3706 138.694 23.5352ZM131.48 22.5679C132.319 23.4318 133.339 23.8649 134.554 23.8649C135.76 23.8649 136.789 23.4318 137.618 22.5679C138.454 21.7041 138.878 20.5948 138.878 19.2497C138.878 17.9046 138.454 16.7953 137.618 15.9315C136.789 15.0677 135.76 14.6345 134.554 14.6345C133.339 14.6345 132.319 15.0677 131.48 15.9315C130.644 16.7953 130.22 17.9046 130.22 19.2497C130.22 20.5948 130.644 21.7041 131.48 22.5679Z" fill="white" stroke="white" stroke-width="0.16" stroke-miterlimit="10"/>
<path d="M142.401 25.0206V13.4802H144.168L149.66 22.4555H149.724L149.66 20.237V13.4802H151.113V25.0206H149.596L143.845 15.6025H143.781L143.845 17.8307V25.0206H142.401Z" fill="white" stroke="white" stroke-width="0.16" stroke-miterlimit="10"/>
<path d="M128.38 41.8738C123.955 41.8738 120.339 45.3147 120.339 50.0622C120.339 54.7712 123.955 58.2483 128.38 58.2483C132.815 58.2483 136.431 54.7712 136.431 50.0622C136.431 45.3147 132.815 41.8738 128.38 41.8738ZM128.38 55.0239C125.952 55.0239 123.863 52.9762 123.863 50.0622C123.863 47.1097 125.952 45.0981 128.38 45.0981C130.809 45.0981 132.907 47.1097 132.907 50.0622C132.907 52.9762 130.809 55.0239 128.38 55.0239ZM110.836 41.8738C106.401 41.8738 102.795 45.3147 102.795 50.0622C102.795 54.7712 106.401 58.2483 110.836 58.2483C115.269 58.2483 118.877 54.7712 118.877 50.0622C118.877 45.3147 115.269 41.8738 110.836 41.8738ZM110.836 55.0239C108.405 55.0239 106.309 52.9762 106.309 50.0622C106.309 47.1097 108.405 45.0981 110.836 45.0981C113.264 45.0981 115.353 47.1097 115.353 50.0622C115.353 52.9762 113.264 55.0239 110.836 55.0239ZM89.9589 44.3835V47.8629H98.0916C97.8537 49.8072 97.2178 51.2365 96.2427 52.2327C95.0557 53.4358 93.2068 54.7712 89.9589 54.7712C84.954 54.7712 81.0348 50.6445 81.0348 45.5313C81.0348 40.418 84.954 36.2913 89.9589 36.2913C92.6651 36.2913 94.6341 37.3717 96.0873 38.7721L98.4873 36.3201C96.4547 34.3374 93.7509 32.8142 89.9589 32.8142C83.0957 32.8142 77.3276 38.5194 77.3276 45.5313C77.3276 52.5431 83.0957 58.2483 89.9589 58.2483C93.6684 58.2483 96.4547 57.0066 98.6451 54.6774C100.89 52.3842 101.589 49.1599 101.589 46.5563C101.589 45.7478 101.523 45.0043 101.405 44.3835H89.9589ZM175.328 47.0809C174.666 45.2497 172.624 41.8738 168.465 41.8738C164.343 41.8738 160.911 45.192 160.911 50.0622C160.911 54.6485 164.307 58.2483 168.86 58.2483C172.541 58.2483 174.666 55.9551 175.54 54.6197L172.808 52.7596C171.896 54.1216 170.655 55.0239 168.86 55.0239C167.077 55.0239 165.798 54.1889 164.979 52.5431L175.698 48.0121L175.328 47.0809ZM164.399 49.8072C164.307 46.6502 166.799 45.0332 168.585 45.0332C169.984 45.0332 171.171 45.7478 171.566 46.7705L164.399 49.8072ZM155.687 57.7502H159.211V33.6877H155.687V57.7502ZM149.917 43.6977H149.799C149.008 42.74 147.498 41.8738 145.585 41.8738C141.572 41.8738 137.903 45.4735 137.903 50.0887C137.903 54.6774 141.572 58.2483 145.585 58.2483C147.498 58.2483 149.008 57.3748 149.799 56.3882H149.917V57.5625C149.917 60.693 148.28 62.375 145.64 62.375C143.487 62.375 142.152 60.7869 141.6 59.4514L138.536 60.758C139.419 62.9284 141.758 65.5994 145.64 65.5994C149.771 65.5994 153.257 63.1161 153.257 57.074V42.3718H149.917V43.6977ZM145.887 55.0239C143.459 55.0239 141.426 52.9473 141.426 50.0887C141.426 47.2036 143.459 45.0981 145.887 45.0981C148.28 45.0981 150.166 47.2036 150.166 50.0887C150.166 52.9473 148.28 55.0239 145.887 55.0239ZM191.824 33.6877H183.397V57.7502H186.911V48.6329H191.824C195.727 48.6329 199.554 45.7478 199.554 41.1591C199.554 36.5728 195.717 33.6877 191.824 33.6877ZM191.916 45.2858H186.911V37.0348H191.916C194.54 37.0348 196.038 39.2606 196.038 41.1591C196.038 43.0215 194.54 45.2858 191.916 45.2858ZM213.638 41.828C211.099 41.828 208.459 42.9734 207.373 45.512L210.492 46.8475C211.163 45.512 212.397 45.0789 213.702 45.0789C215.525 45.0789 217.374 46.1978 217.402 48.1733V48.426C216.766 48.0506 215.405 47.4948 213.73 47.4948C210.372 47.4948 206.949 49.3837 206.949 52.9088C206.949 56.1332 209.7 58.2098 212.793 58.2098C215.158 58.2098 216.462 57.1197 217.282 55.8517H217.402V57.7117H220.796V48.4813C220.796 44.215 217.678 41.828 213.638 41.828ZM213.214 55.0143C212.065 55.0143 210.464 54.432 210.464 52.9762C210.464 51.1137 212.461 50.3991 214.19 50.3991C215.737 50.3991 216.462 50.748 217.402 51.2076C217.127 53.4358 215.249 55.0143 213.214 55.0143ZM233.161 42.355L229.122 52.7861H229.002L224.826 42.355H221.036L227.311 56.9321L223.731 65.0435H227.403L237.071 42.355H233.161ZM201.485 57.7502H205.009V33.6877H201.485V57.7502Z" fill="white"/>
<path d="M19.662 14.5121C19.1085 15.104 18.7882 16.0256 18.7882 17.2191V59.7905C18.7882 60.984 19.1085 61.9056 19.662 62.4975L19.7986 62.6274L43.1487 38.7815V38.2184L19.7986 14.3725L19.662 14.5121Z" fill="url(#paint0_linear_300_422)"/>
<path d="M50.9232 46.7339L43.1484 38.7812V38.2182L50.9326 30.2655L51.1069 30.369L60.3254 35.7277C62.9562 37.2485 62.9562 39.751 60.3254 41.2813L51.1069 46.6304L50.9232 46.7339Z" fill="url(#paint1_linear_300_422)"/>
<path d="M51.1066 46.6305L43.1482 38.4998L19.6615 62.4973C20.5353 63.4358 21.9602 63.5489 23.5807 62.6104L51.1066 46.6305Z" fill="url(#paint2_linear_300_422)"/>
<path d="M51.1066 30.3693L23.5807 14.3894C21.9602 13.4606 20.5353 13.5737 19.6615 14.5121L43.1482 38.5L51.1066 30.3693Z" fill="url(#paint3_linear_300_422)"/>
<defs>
<linearGradient id="paint0_linear_300_422" x1="41.0755" y1="60.2338" x2="8.77678" y2="28.6195" gradientUnits="userSpaceOnUse">
<stop stop-color="#00A0FF"/>
<stop offset="0.0066" stop-color="#00A1FF"/>
<stop offset="0.2601" stop-color="#00BEFF"/>
<stop offset="0.5122" stop-color="#00D2FF"/>
<stop offset="0.7604" stop-color="#00DFFF"/>
<stop offset="1" stop-color="#00E3FF"/>
</linearGradient>
<linearGradient id="paint1_linear_300_422" x1="63.7511" y1="38.497" x2="18.1591" y2="38.497" gradientUnits="userSpaceOnUse">
<stop stop-color="#FFE000"/>
<stop offset="0.4087" stop-color="#FFBD00"/>
<stop offset="0.7754" stop-color="#FFA500"/>
<stop offset="1" stop-color="#FF9C00"/>
</linearGradient>
<linearGradient id="paint2_linear_300_422" x1="46.7791" y1="34.0798" x2="2.97938" y2="-8.79178" gradientUnits="userSpaceOnUse">
<stop stop-color="#FF3A44"/>
<stop offset="1" stop-color="#C31162"/>
</linearGradient>
<linearGradient id="paint3_linear_300_422" x1="13.7494" y1="76.6608" x2="33.3079" y2="57.5169" gradientUnits="userSpaceOnUse">
<stop stop-color="#32A071"/>
<stop offset="0.0685" stop-color="#2DA771"/>
<stop offset="0.4762" stop-color="#15CF74"/>
<stop offset="0.8009" stop-color="#06E775"/>
<stop offset="1" stop-color="#00F076"/>
</linearGradient>
</defs>
</svg>
