<svg width="20" height="20" viewBox="0 0 20 20" fill="none" xmlns="http://www.w3.org/2000/svg">
<path d="M9.99913 6.87576C8.27882 6.87576 6.87492 8.27967 6.87492 9.99998C6.87492 11.7203 8.27882 13.1242 9.99913 13.1242C11.7194 13.1242 13.1234 11.7203 13.1234 9.99998C13.1234 8.27967 11.7194 6.87576 9.99913 6.87576ZM19.3694 9.99998C19.3694 8.70623 19.3812 7.4242 19.3085 6.1328C19.2359 4.6328 18.8937 3.30155 17.7968 2.20467C16.6976 1.10545 15.3687 0.765608 13.8687 0.692952C12.5749 0.620295 11.2929 0.632014 10.0015 0.632014C8.70773 0.632014 7.4257 0.620295 6.13429 0.692952C4.63429 0.765608 3.30304 1.1078 2.20617 2.20467C1.10695 3.30389 0.767103 4.6328 0.694447 6.1328C0.621791 7.42655 0.63351 8.70858 0.63351 9.99998C0.63351 11.2914 0.621791 12.5758 0.694447 13.8672C0.767103 15.3672 1.10929 16.6984 2.20617 17.7953C3.30538 18.8945 4.63429 19.2344 6.13429 19.307C7.42804 19.3797 8.71007 19.368 10.0015 19.368C11.2952 19.368 12.5773 19.3797 13.8687 19.307C15.3687 19.2344 16.6999 18.8922 17.7968 17.7953C18.896 16.6961 19.2359 15.3672 19.3085 13.8672C19.3835 12.5758 19.3694 11.2937 19.3694 9.99998ZM9.99913 14.807C7.33898 14.807 5.1921 12.6601 5.1921 9.99998C5.1921 7.33983 7.33898 5.19295 9.99913 5.19295C12.6593 5.19295 14.8062 7.33983 14.8062 9.99998C14.8062 12.6601 12.6593 14.807 9.99913 14.807ZM15.003 6.11873C14.3819 6.11873 13.8804 5.61717 13.8804 4.99608C13.8804 4.37498 14.3819 3.87342 15.003 3.87342C15.6241 3.87342 16.1257 4.37498 16.1257 4.99608C16.1259 5.14356 16.097 5.28963 16.0406 5.42592C15.9843 5.56221 15.9016 5.68604 15.7973 5.79033C15.693 5.89461 15.5692 5.9773 15.4329 6.03365C15.2966 6.09001 15.1505 6.11892 15.003 6.11873Z" fill="#5C5366"/>
</svg>
