<svg width="20" height="20" viewBox="0 0 20 20" fill="none" xmlns="http://www.w3.org/2000/svg">
<path d="M15 0C12.5 0 11.2422 1.17597 10 2.72689C8.75781 1.17597 7.5 0 5 0C2.5 0 0 1.81934 0 7.27311C0 10 2.5 15.4538 10 20C17.5 15.4538 20 10 20 7.27311C20 1.81934 17.5 0 15 0ZM10 17.9037C3.19141 13.4981 1.66797 8.7729 1.66797 7.27311C1.66797 4.78483 2.24609 1.81934 5 1.81934C6.75 1.81934 7.60156 2.4968 8.74609 3.92416L10 5.45377L11.2539 3.92416C12.3984 2.4968 13.25 1.81934 15 1.81934C17.7539 1.81934 18.332 4.78483 18.332 7.27311C18.332 8.7729 16.8086 13.4981 10 17.9037Z" fill="white"/>
</svg>
