<svg width="30" height="30" viewBox="0 0 30 30" fill="none" xmlns="http://www.w3.org/2000/svg">
<path d="M22.5 1.74609C18.75 1.74609 16.8633 3.36328 15 5.4961C13.1367 3.36328 11.25 1.74609 7.5 1.74609C3.75 1.74609 0 4.24805 0 11.7481C0 15.4981 3.75 22.9981 15 29.25C26.25 22.9981 30 15.4981 30 11.7481C30 4.24805 26.25 1.74609 22.5 1.74609ZM15 26.3672C4.78711 20.3086 2.50195 13.8106 2.50195 11.7481C2.50195 8.32618 3.36914 4.24805 7.5 4.24805C10.125 4.24805 11.4023 5.17969 13.1191 7.14258L15 9.2461L16.8809 7.14258C18.5977 5.17969 19.875 4.24805 22.5 4.24805C26.6309 4.24805 27.498 8.32618 27.498 11.7481C27.498 13.8106 25.2129 20.3086 15 26.3672Z" fill="#6D3D67"/>
</svg>
