<svg width="51" height="66" viewBox="0 0 51 66" fill="none" xmlns="http://www.w3.org/2000/svg">
<path fill-rule="evenodd" clip-rule="evenodd" d="M9.62647 0.0750597C3.8613 0.814715 -0.281681 4.67252 0.0149735 9.02507C0.111625 10.4444 0.619365 11.4842 1.75882 12.5964C3.26773 14.0692 5.30076 14.9087 8.05905 15.1983C8.8244 15.2787 9.57686 15.3686 9.7315 15.3982C9.9029 15.4311 10.2658 15.8176 10.6614 16.3884C11.5485 17.6686 12.9983 19.2976 13.3394 19.3973C14.1455 19.633 14.5862 18.7357 14.6059 16.8182C14.6164 15.8035 14.6478 15.6534 14.8692 15.562C15.0075 15.5047 16.2515 15.249 17.6336 14.9936C21.5557 14.2687 23.0789 13.6439 24.528 12.1651C26.4987 10.1539 26.9001 7.31544 25.5976 4.60096C24.387 2.07792 22.2376 0.805673 18.2779 0.268435C16.5672 0.0363072 10.9137 -0.0900259 9.62647 0.0750597ZM16.7959 1.32263C19.2415 1.67554 21.2834 2.27865 22.378 2.97129C23.2231 3.50595 24.0547 4.46623 24.5664 5.49821C25.0108 6.39417 25.0435 6.54013 25.0435 7.6296C25.0435 8.6307 24.9934 8.90649 24.6952 9.54423C24.0321 10.9626 22.4467 12.1657 20.3398 12.8497C19.8791 12.9993 18.4063 13.3858 17.0667 13.7084C15.7272 14.0311 14.4299 14.391 14.1839 14.508C13.5897 14.7907 13.3969 15.2811 13.4787 16.3024C13.5144 16.749 13.5027 17.2198 13.4524 17.3487C13.3707 17.5581 13.3268 17.5418 13.0397 17.1955C12.8629 16.9824 12.3161 16.2134 11.8243 15.4868C11.2978 14.7084 10.7762 14.0856 10.5552 13.9711C10.3489 13.8641 9.37802 13.6878 8.39772 13.5791C4.97498 13.1999 3.08771 12.3916 2.03163 10.853C0.621556 8.79876 1.24128 5.95058 3.56619 3.79917C5.38259 2.11848 7.69551 1.34304 11.7056 1.07074C12.8363 0.993881 15.396 1.1206 16.7959 1.32263ZM7.64783 4.59579C5.64587 4.65599 5.32434 4.6941 5.28968 4.87533C5.26764 4.99068 5.33246 5.11701 5.43375 5.15603C5.71546 5.26427 20.1203 5.42678 20.5205 5.32615C20.8099 5.25329 20.8644 5.17618 20.8312 4.88708L20.7908 4.53637L15.3784 4.53121C12.4015 4.52824 8.92286 4.5573 7.64783 4.59579ZM6.12384 7.15074C5.37988 7.18963 5.25205 7.23032 5.28761 7.41659C5.34831 7.73462 7.99101 7.8377 15.0562 7.79804L20.7908 7.76575V7.44281V7.11987L13.8964 7.11238C10.1044 7.10812 6.60684 7.12543 6.12384 7.15074ZM7.97013 9.634C5.61172 9.69601 5.32537 9.72701 5.28748 9.92478C5.25991 10.0688 5.34947 10.1711 5.54367 10.2175C5.70785 10.2566 9.20559 10.3024 13.3165 10.319L20.7908 10.3492V9.96172V9.5742L15.7005 9.56942C12.9009 9.56683 9.42222 9.5959 7.97013 9.634ZM34.6442 10.8728C33.8291 10.9649 32.102 11.0446 30.8062 11.05C28.7827 11.0583 28.3388 11.0974 27.6596 11.3267C26.0713 11.863 25.1988 12.7319 24.282 14.6898C23.6409 16.0588 23.3036 16.4503 22.0058 17.331C20.3602 18.4477 19.4377 19.7794 19.4377 21.0381C19.4377 21.5173 19.2622 21.8445 18.6364 22.5317C17.5324 23.7442 17.3278 25.0858 18.0345 26.4801C18.255 26.9152 18.5458 27.4268 18.6809 27.617C19.0385 28.1207 19.4317 29.0348 19.4349 29.3703C19.4371 29.601 19.3647 29.6617 19.0833 29.6645C18.5265 29.6702 17.6077 30.2111 17.1622 30.7953C16.6982 31.4039 16.4279 32.442 16.5533 33.1343C16.9434 35.288 19.4625 36.9106 21.0991 36.0623C21.3326 35.9412 21.5401 35.861 21.5602 35.884C21.5803 35.907 21.7162 36.1584 21.8621 36.4426C22.6694 38.0143 24.8885 39.901 27.1263 40.918C27.7482 41.2006 27.946 41.3508 27.8899 41.4975C27.8483 41.6062 27.8142 41.7767 27.8142 41.8762C27.8142 41.9757 27.0168 42.5908 26.0422 43.2431C23.3024 45.077 19.336 47.9884 18.4628 48.8064C18.0295 49.2124 17.5199 49.7689 17.3303 50.0431C16.9348 50.6151 16.5122 51.7489 16.3377 52.7058C16.1092 53.959 14.7985 64.0558 14.7985 64.5628C14.7985 65.2153 14.963 65.5136 15.4789 65.7963C15.8701 66.0106 16.8549 66.0213 32.7111 65.9823C51.6866 65.9357 50.1616 66.0251 50.7322 64.9257C51.0304 64.3511 51.0331 64.3095 50.9609 61.3088C50.8787 57.8881 50.5773 54.0238 50.2986 52.8161C50.0435 51.7111 49.8283 51.2352 49.319 50.6496C48.4863 49.6922 39.3614 42.5402 38.5978 42.2465C38.4928 42.2061 38.3773 42.0604 38.3415 41.9228C38.2883 41.7192 38.4442 41.5883 39.1806 41.2178C39.678 40.9676 40.3541 40.5795 40.6829 40.3554C41.6344 39.7072 43.1894 38.077 43.8609 37.0239C44.2008 36.491 44.4923 36.0372 44.5086 36.0155C44.5251 35.9937 44.8369 36.0737 45.2016 36.1933C46.3748 36.578 47.6163 36.2205 48.6859 35.1904C49.5113 34.3954 49.7801 33.767 49.7806 32.6319C49.7811 31.5652 49.6114 31.1203 48.9524 30.4597C48.586 30.0925 48.2137 29.922 47.3699 29.7347C46.7543 29.598 46.8748 28.9183 47.8531 27.0079C48.5851 25.5788 48.6908 25.2828 48.6908 24.6613C48.6908 23.7536 48.2566 22.8523 47.3955 21.9727C46.8604 21.4257 46.7231 21.1795 46.5185 20.3979C46.1008 18.8036 45.3161 17.7687 43.7838 16.7918C43.0382 16.3166 42.9663 16.2237 42.3619 14.956C41.3944 12.9267 40.073 11.6661 38.3023 11.0828C37.2336 10.7308 36.3496 10.6802 34.6442 10.8728ZM37.8356 12.4613C39.5253 12.9884 40.9203 14.2795 41.3452 15.7097C41.4871 16.187 41.603 16.6306 41.603 16.6956C41.603 16.9877 42.4687 17.8209 43.1306 18.166C44.6139 18.9392 44.8804 19.3341 45.4704 21.6319C45.5706 22.0223 45.8446 22.4411 46.3712 23.0084C47.5878 24.3193 47.628 24.8584 46.661 26.8981C46.1792 27.9142 46.1779 27.9218 46.1682 29.6609C46.1562 31.8126 46.1583 31.7934 45.911 32.0415C45.6032 32.3498 45.12 32.2927 44.8759 31.9191C44.7173 31.6765 44.6839 31.4386 44.7442 30.9825C44.8719 30.0173 44.674 29.5948 43.5562 28.4459C42.3778 27.2347 42.2922 26.9998 42.5087 25.5682C42.8091 23.5818 42.2393 21.9308 41.0368 21.3039C40.411 20.9776 39.9035 21.0775 38.1079 21.8799C33.9048 23.7584 32.218 23.8038 29.2961 22.1175C27.6827 21.1861 27.4595 21.0993 26.718 21.1143C25.6931 21.1348 24.8591 21.697 24.2912 22.75C24.0381 23.2195 24.0125 23.4595 24.0125 25.372V27.4773L23.1105 28.3431C21.8076 29.5935 21.7592 29.6834 21.7583 30.8558C21.7575 31.6839 21.7128 31.9016 21.4996 32.1152C21.1661 32.4495 21.0396 32.4409 20.6569 32.0574C20.3546 31.7543 20.3424 31.6767 20.3629 30.2011L20.3841 28.661L19.6532 27.124C18.8931 25.5257 18.7497 24.8047 19.0707 24.1947C19.1524 24.0396 19.6062 23.4717 20.079 22.9329C20.93 21.963 20.9706 21.8797 21.3682 20.2803C21.561 19.5048 21.87 19.1864 23.0447 18.5525C24.2088 17.9246 24.5971 17.54 24.8994 16.7161C25.0113 16.4114 25.2218 15.8339 25.3675 15.4327C26.1353 13.3155 28.1237 12.3912 31.5513 12.5583C32.2609 12.5929 33.2903 12.5422 33.9998 12.4379C35.7888 12.1749 36.94 12.1818 37.8356 12.4613ZM27.3813 22.6887C28.3283 23.475 28.6643 23.6177 31.4869 24.4337C33.319 24.9634 36.7713 24.3098 38.6685 23.0741C39.6856 22.4116 40.255 22.2168 40.5227 22.4396C40.8144 22.6824 41.3545 23.8081 41.372 24.2104C41.3804 24.4018 41.3413 25.2001 41.2853 25.9842C41.1916 27.2934 41.2054 27.4534 41.4538 27.9417C41.6027 28.2342 42.155 28.8612 42.6812 29.335L43.6377 30.1967L43.6857 31.148C43.7223 31.8742 43.8008 32.1903 44.0174 32.484L44.3012 32.8688L43.9896 33.7873C43.335 35.7161 42.5599 36.9482 41.1319 38.3289C39.766 39.6496 38.4388 40.4192 36.5772 40.97C35.8997 41.1705 35.3331 41.2179 33.6132 41.2177C31.6912 41.2174 31.3647 41.1834 30.215 40.8635C27.1665 40.015 24.4631 38.2486 23.04 36.1754C22.5361 35.4412 21.7612 33.7214 21.7589 33.3319C21.758 33.1739 21.8947 32.9893 22.0905 32.8843C22.5856 32.6187 22.7883 32.1094 22.7883 31.1306C22.7883 30.2698 22.7931 30.2583 23.3304 29.8001C25.1931 28.2121 25.4953 27.6109 25.2528 25.9767C25.0443 24.5713 25.0724 24.1238 25.4151 23.3857C25.7132 22.7442 26.2703 22.1688 26.5933 22.1688C26.6823 22.1688 27.0369 22.4027 27.3813 22.6887ZM19.4382 31.2433C19.4388 32.2248 19.7513 32.8188 20.4126 33.0959C20.9051 33.3022 20.9258 33.3368 21.0388 34.146C21.1094 34.6525 21.0878 34.7052 20.7338 34.8887C20.5241 34.9974 20.116 35.0862 19.8266 35.0862C17.497 35.0862 16.6142 32.0533 18.5733 30.7801C19.3609 30.268 19.4376 30.3091 19.4382 31.2433ZM48.1122 30.9927C49.0505 31.9332 48.9735 33.1778 47.9133 34.2072C47.2269 34.8739 46.4823 35.1591 45.7425 35.0387C45.1112 34.936 45.0566 34.8311 45.2334 34.0629C45.3583 33.5208 45.4577 33.3571 45.7197 33.2624C46.4182 33.0098 46.6356 32.8289 46.9011 32.279C47.1029 31.8613 47.1588 31.5578 47.1115 31.1376C47.0508 30.5972 47.065 30.5651 47.3664 30.5651C47.556 30.5651 47.859 30.7389 48.1122 30.9927ZM31.7365 42.3107C33.4231 42.5458 35.3623 42.4726 36.7472 42.1214C37.1083 42.0298 37.1099 42.0321 37.0249 42.5298C36.7366 44.218 36.3545 44.6936 34.914 45.158C33.1798 45.7169 31.2168 45.3637 29.9728 44.2688C29.4393 43.7992 28.7162 42.4543 28.7162 41.9312V41.5837L29.7297 41.878C30.2871 42.0399 31.1902 42.2345 31.7365 42.3107ZM27.7299 46.5455C27.8877 51.0235 28.5252 57.2501 29.3473 62.341L29.7121 64.6003L29.0031 63.8265C27.3461 62.0182 22.398 55.5129 22.4032 55.1497C22.404 55.0914 22.7665 54.8487 23.2087 54.6103C23.6508 54.3719 24.6674 53.7906 25.4679 53.3185C27.3953 52.1818 27.4872 51.856 26.0826 51.1376C25.7237 50.9541 25.1111 50.7056 24.7213 50.5854C24.2656 50.4449 24.0271 50.3049 24.0533 50.193C24.128 49.8742 27.4861 44.0202 27.5658 44.0697C27.609 44.0965 27.6828 45.2106 27.7299 46.5455ZM29.6275 45.4711C30.0458 45.7863 30.6786 46.1409 31.0341 46.2592C31.3895 46.3776 31.6802 46.5189 31.6802 46.5731C31.6802 46.6275 31.5564 46.7826 31.4051 46.918C31.2538 47.0534 30.6165 47.729 29.9889 48.4194C28.6689 49.8715 28.7965 49.9684 28.591 47.3579C28.5153 46.3987 28.4214 45.2652 28.3821 44.8389L28.3104 44.0639L28.5888 44.481C28.7417 44.7104 29.2092 45.1559 29.6275 45.4711ZM39.146 45.9327C39.4369 46.6053 40.0798 47.888 40.5746 48.7833C41.0694 49.6785 41.4742 50.4466 41.4742 50.4901C41.4742 50.5336 41.0095 50.8173 40.4416 51.1207C39.2411 51.7618 38.8375 52.1341 38.9517 52.4948C38.9999 52.6472 39.6468 53.0762 40.6069 53.5927C41.5372 54.0932 42.1772 54.5154 42.1686 54.6233C42.1609 54.7238 41.1133 56.1675 39.8408 57.8314C38.5683 59.4953 37.2161 61.3066 36.8361 61.8564C36.4561 62.4063 36.1336 62.8423 36.1196 62.8253C35.9807 62.6567 38.4392 44.5301 38.5815 44.6737C38.6011 44.6936 38.8551 45.2601 39.146 45.9327ZM25.8006 44.9358C25.748 45.0247 24.9927 46.2419 24.1221 47.6409C23.2516 49.04 22.5036 50.3267 22.4602 50.5004C22.3512 50.9355 22.7732 51.3027 23.6079 51.4993C24.2186 51.6431 24.9791 51.9538 24.9791 52.0594C24.9791 52.084 24.2874 52.5187 23.442 53.0253C21.5294 54.1717 21.113 54.5147 21.113 54.9439C21.113 55.1493 21.542 55.8862 22.2532 56.9023C22.8803 57.7984 23.8756 59.2581 24.4647 60.1462C25.6593 61.9464 26.4028 62.959 27.3228 64.039C27.6639 64.4393 27.943 64.8027 27.943 64.8463C27.943 65.0807 17.2461 64.8368 16.4223 64.5837C16.191 64.5125 16.1825 64.4026 16.2655 62.5575C16.4142 59.2562 17.1138 54.4716 17.7105 52.6763C18.3326 50.8045 18.9835 50.0818 22.4017 47.467C23.5712 46.5723 24.818 45.6026 25.1724 45.312C25.8758 44.7351 25.9438 44.6944 25.8006 44.9358ZM43.4716 47.5359C48.1293 51.0866 48.5548 51.5124 48.8141 52.8828C49.1916 54.8784 49.5528 63.9946 49.2649 64.2648C49.1666 64.3571 39.6205 64.6726 37.0513 64.6683L36.4299 64.6673L37.4235 63.2141C38.3474 61.8627 39.2823 60.5967 42.3375 56.5605C44.0243 54.3321 43.9803 54.0326 41.8055 52.9451L40.7837 52.434L41.7203 51.9407C43.3663 51.0737 43.3782 50.7709 41.8609 48.3428C40.64 46.389 39.7989 44.9575 39.7989 44.8334C39.7989 44.7337 39.7083 44.667 43.4716 47.5359ZM37.1598 46.9862C36.9784 48.0077 36.797 49.005 36.7568 49.2025C36.686 49.5515 36.6442 49.5209 35.2772 48.1155C34.5036 47.3201 33.8851 46.6602 33.903 46.6492C33.9208 46.6381 34.2426 46.5609 34.6181 46.4777C35.551 46.2706 36.5737 45.7666 37.0307 45.2885C37.2397 45.0699 37.4285 44.9446 37.4503 45.0101C37.472 45.0756 37.3414 45.9648 37.1598 46.9862ZM33.5707 47.8423C33.9933 48.3218 34.3853 48.7921 34.4418 48.8872C34.504 48.9917 34.3485 49.5648 34.0493 50.3346L33.5538 51.6089L32.9713 51.6471L32.389 51.6852L31.5816 50.2037L30.7741 48.7223L31.7105 47.8525C32.2254 47.3741 32.6818 46.9799 32.7245 46.9765C32.7675 46.9732 33.1481 47.3628 33.5707 47.8423ZM30.5812 50.5226C30.7819 51.02 31.0543 51.6098 31.1866 51.8334L31.4271 52.2399L30.7098 54.6752C30.3154 56.0146 29.9469 57.2248 29.8913 57.3641C29.7947 57.6052 29.5121 55.7935 29.0555 52.0082L28.8919 50.6518L29.475 50.039C29.7956 49.702 30.0937 49.4695 30.1373 49.5223C30.1807 49.5751 30.3806 50.0253 30.5812 50.5226ZM36.3817 51.5555C36.3441 51.7684 36.1678 52.96 35.9901 54.2036C35.8122 55.4472 35.6533 56.5109 35.6368 56.5675C35.6202 56.624 35.3045 55.6983 34.9352 54.5103C34.5436 53.2515 34.3087 52.2925 34.372 52.2116C34.4658 52.0916 34.9361 50.9332 35.2145 50.1359C35.2949 49.9058 35.3654 49.947 35.8774 50.5234C36.3567 51.0631 36.439 51.2317 36.3817 51.5555ZM33.93 52.9447C33.9652 53.1046 34.0867 53.8166 34.1998 54.5271C34.3131 55.2375 34.6126 56.6036 34.8653 57.5627L35.3247 59.3065L35.1116 61.1796C34.9944 62.2097 34.8614 63.4014 34.8162 63.8277C34.771 64.2539 34.6703 64.6455 34.5925 64.6977C34.4672 64.7816 31.044 64.8456 31.0304 64.7642C31.0275 64.7465 30.8368 63.6862 30.6065 62.408L30.1879 60.0843L31.1225 56.4014C31.6365 54.3759 32.0593 52.704 32.0619 52.6863C32.0646 52.6686 32.4716 52.654 32.9664 52.654C33.7945 52.654 33.8711 52.6772 33.93 52.9447Z" fill="white"/>
</svg>
