<svg width="28" height="25" viewBox="0 0 28 25" fill="none" xmlns="http://www.w3.org/2000/svg">
<path d="M1 8C1 1 8 1 14 1C20 1 27 1 27 8C27 16 20 7 20 7H8C8 7 1 16 1 8ZM9 10C9 10 4 15 4 24H24C24 15 19 10 19 10H9Z" stroke="#6D3D67" stroke-width="2" stroke-linecap="round" stroke-linejoin="round"/>
<path d="M14 21C16.2091 21 18 19.2091 18 17C18 14.7909 16.2091 13 14 13C11.7909 13 10 14.7909 10 17C10 19.2091 11.7909 21 14 21Z" stroke="#6D3D67" stroke-width="2" stroke-linecap="round" stroke-linejoin="round"/>
</svg>
