<svg width="5" height="8" viewBox="0 0 5 8" fill="none" xmlns="http://www.w3.org/2000/svg">
<path d="M0.999903 7.50003C0.883077 7.50026 0.769859 7.45957 0.679903 7.38503C0.629274 7.34306 0.587423 7.29151 0.556747 7.23333C0.526071 7.17516 0.507173 7.11151 0.501135 7.04602C0.495097 6.98053 0.502038 6.91449 0.52156 6.85169C0.541083 6.78889 0.572802 6.73056 0.614903 6.68003L2.8549 4.00003L0.694904 1.31503C0.653371 1.26389 0.622355 1.20504 0.603639 1.14187C0.584923 1.0787 0.578876 1.01245 0.585846 0.94694C0.592815 0.881426 0.612664 0.817935 0.644251 0.760117C0.675838 0.702298 0.71854 0.651293 0.769903 0.610031C0.821636 0.564513 0.882219 0.530179 0.94785 0.509185C1.01348 0.48819 1.08274 0.480988 1.15129 0.488031C1.21984 0.495073 1.28619 0.516208 1.34618 0.550109C1.40617 0.58401 1.45851 0.629945 1.4999 0.685031L3.9149 3.68503C3.98844 3.7745 4.02865 3.88672 4.02865 4.00253C4.02865 4.11834 3.98844 4.23056 3.9149 4.32003L1.4149 7.32003C1.36474 7.38054 1.30103 7.42837 1.22892 7.45965C1.15682 7.49092 1.07836 7.50476 0.999903 7.50003Z" fill="#6D3D67"/>
</svg>
