<svg width="8" height="5" viewBox="0 0 8 5" fill="none" xmlns="http://www.w3.org/2000/svg">
<path d="M0.50003 0.999972C0.499802 0.883146 0.540489 0.769928 0.61503 0.679972C0.657004 0.629343 0.708555 0.587492 0.766729 0.556816C0.824903 0.52614 0.888556 0.507242 0.954044 0.501204C1.01953 0.495166 1.08557 0.502107 1.14837 0.521629C1.21117 0.541151 1.26951 0.572871 1.32003 0.614972L4.00003 2.85497L6.68503 0.694972C6.73617 0.653439 6.79502 0.622423 6.85819 0.603708C6.92136 0.584992 6.98761 0.578945 7.05312 0.585914C7.11864 0.592884 7.18213 0.612732 7.23994 0.644319C7.29776 0.675906 7.34877 0.718609 7.39003 0.769972C7.43555 0.821705 7.46988 0.882288 7.49088 0.947919C7.51187 1.01355 7.51907 1.08281 7.51203 1.15136C7.50499 1.21991 7.48385 1.28626 7.44995 1.34625C7.41605 1.40624 7.37012 1.45858 7.31503 1.49997L4.31503 3.91497C4.22556 3.98851 4.11334 4.02872 3.99753 4.02872C3.88172 4.02872 3.7695 3.98851 3.68003 3.91497L0.68003 1.41497C0.619522 1.36481 0.57169 1.3011 0.540415 1.22899C0.509141 1.15689 0.495305 1.07843 0.50003 0.999972Z" fill="#6D3D67"/>
</svg>
