<svg width="10" height="10" viewBox="0 0 10 10" fill="none" xmlns="http://www.w3.org/2000/svg">
<path d="M5 0C2.243 0 0 2.243 0 5V7.0715C0 7.5835 0.4485 8 1 8H1.5C1.63261 8 1.75979 7.94732 1.85355 7.85356C1.94732 7.75979 2 7.63261 2 7.5V4.9285C2 4.79589 1.94732 4.66872 1.85355 4.57495C1.75979 4.48118 1.63261 4.4285 1.5 4.4285H1.046C1.324 2.4935 2.989 1 5 1C7.011 1 8.676 2.4935 8.954 4.4285H8.5C8.36739 4.4285 8.24022 4.48118 8.14645 4.57495C8.05268 4.66872 8 4.79589 8 4.9285V8C8 8.5515 7.5515 9 7 9H6V8.5H4V10H7C8.103 10 9 9.103 9 8C9.5515 8 10 7.5835 10 7.0715V5C10 2.243 7.757 0 5 0Z" fill="#757575"/>
</svg>
