<svg width="24" height="18" viewBox="0 0 24 18" fill="none" xmlns="http://www.w3.org/2000/svg">
<path d="M23.5006 3.50701C23.3647 3.02225 23.1 2.58336 22.7346 2.23702C22.3589 1.88002 21.8984 1.62465 21.3966 1.49501C19.5186 1.00001 11.9946 1.00002 11.9946 1.00002C8.85795 0.964328 5.72205 1.12129 2.60462 1.47001C2.10281 1.60923 1.64318 1.8703 1.26662 2.23002C0.896617 2.58601 0.628617 3.02502 0.488617 3.50602C0.15231 5.31776 -0.0110908 7.15736 0.000617183 9.00002C-0.0113828 10.841 0.151617 12.68 0.488617 14.494C0.625617 14.973 0.892617 15.41 1.26362 15.763C1.63462 16.116 2.09662 16.371 2.60462 16.506C4.50762 17 11.9946 17 11.9946 17C15.1353 17.0358 18.2752 16.8788 21.3966 16.53C21.8984 16.4004 22.3589 16.145 22.7346 15.788C23.1046 15.435 23.3676 14.996 23.4996 14.518C23.8447 12.707 24.0125 10.8666 24.0006 9.02302C24.0266 7.17162 23.859 5.32258 23.5006 3.50602V3.50701ZM9.60262 12.424V5.57701L15.8626 9.00102L9.60262 12.424Z" fill="#5C5366"/>
</svg>
