<svg width="40" height="40" viewBox="0 0 40 40" fill="none" xmlns="http://www.w3.org/2000/svg">
<path d="M8.33474 16.6662C8.33397 16.2768 8.4696 15.8994 8.71807 15.5995C8.85798 15.4307 9.02982 15.2912 9.22373 15.189C9.41764 15.0867 9.62982 15.0237 9.84812 15.0036C10.0664 14.9835 10.2865 15.0066 10.4959 15.0717C10.7052 15.1368 10.8997 15.2425 11.0681 15.3828L20.0014 22.8495L28.9514 15.6495C29.1219 15.5111 29.318 15.4077 29.5286 15.3453C29.7392 15.2829 29.96 15.2628 30.1784 15.286C30.3968 15.3092 30.6084 15.3754 30.8011 15.4807C30.9938 15.586 31.1639 15.7283 31.3014 15.8995C31.4531 16.072 31.5676 16.2739 31.6376 16.4927C31.7075 16.7114 31.7315 16.9423 31.7081 17.1708C31.6846 17.3993 31.6141 17.6205 31.5011 17.8204C31.3881 18.0204 31.235 18.1949 31.0514 18.3328L21.0514 26.3828C20.7532 26.628 20.3791 26.762 19.9931 26.762C19.607 26.762 19.233 26.628 18.9347 26.3828L8.93474 18.0495C8.73304 17.8823 8.5736 17.6699 8.46935 17.4296C8.36511 17.1892 8.31898 16.9277 8.33474 16.6662Z" fill="#6D3D67"/>
</svg>
