<svg width="24" height="24" viewBox="0 0 24 24" fill="none" xmlns="http://www.w3.org/2000/svg">
<path d="M14.0002 5.00006C14.2338 4.9996 14.4603 5.08098 14.6402 5.23006C14.7415 5.31401 14.8252 5.41711 14.8865 5.53346C14.9479 5.6498 14.9857 5.77711 14.9977 5.90809C15.0098 6.03906 14.9959 6.17114 14.9569 6.29674C14.9178 6.42234 14.8544 6.53901 14.7702 6.64006L10.2902 12.0001L14.6102 17.3701C14.6933 17.4723 14.7553 17.59 14.7927 17.7164C14.8302 17.8427 14.8422 17.9752 14.8283 18.1062C14.8144 18.2373 14.7747 18.3643 14.7115 18.4799C14.6483 18.5955 14.5629 18.6975 14.4602 18.7801C14.3567 18.8711 14.2356 18.9398 14.1043 18.9818C13.973 19.0237 13.8345 19.0381 13.6974 19.0241C13.5603 19.01 13.4276 18.9677 13.3076 18.8999C13.1877 18.8321 13.083 18.7402 13.0002 18.6301L8.17019 12.6301C8.02311 12.4511 7.94271 12.2267 7.94271 11.9951C7.94271 11.7634 8.02311 11.539 8.17019 11.3601L13.1702 5.36006C13.2705 5.23904 13.3979 5.14338 13.5422 5.08083C13.6864 5.01828 13.8433 4.99061 14.0002 5.00006Z" fill="white"/>
</svg>
