<svg width="305" height="88" viewBox="0 0 305 88" fill="none" xmlns="http://www.w3.org/2000/svg">
<path d="M304.295 78.6213C304.295 83.4175 300.387 87.3025 295.554 87.3025H9.50996C4.67907 87.3025 0.757812 83.4175 0.757812 78.6213V9.39129C0.757812 4.59735 4.67907 0.69873 9.50996 0.69873H295.552C300.387 0.69873 304.292 4.59735 304.292 9.39129L304.295 78.6213Z" fill="black"/>
<path d="M67.5535 43.514C67.4876 36.2623 73.5538 32.7343 73.8312 32.57C70.3956 27.6133 65.0707 26.936 63.1994 26.882C58.7271 26.4163 54.3889 29.5303 52.1107 29.5303C49.787 29.5303 46.2787 26.927 42.4975 27.0035C37.6318 27.0778 33.0799 29.8655 30.5834 34.1945C25.4313 43.0213 29.2738 55.9925 34.2099 63.1273C36.6792 66.6215 39.5645 70.523 43.3411 70.3858C47.0358 70.235 48.4159 68.0548 52.8746 68.0548C57.2924 68.0548 58.5884 70.3858 62.44 70.298C66.4053 70.235 68.9018 66.788 71.2846 63.2623C74.1381 59.2573 75.2841 55.313 75.3295 55.1105C75.2363 55.079 67.6286 52.2058 67.5535 43.514Z" fill="white"/>
<path d="M60.2777 22.1885C62.2649 19.7293 63.6246 16.3835 63.2472 12.9883C60.371 13.1143 56.774 14.957 54.7027 17.3623C52.8701 19.4818 51.233 22.9558 51.6559 26.2228C54.8868 26.4613 58.2041 24.6095 60.2777 22.1885Z" fill="white"/>
<path d="M121.023 69.8839H115.86L113.031 61.0887H103.2L100.506 69.8839H95.4785L105.219 39.9409H111.235L121.023 69.8839ZM112.179 57.3987L109.621 49.5799C109.35 48.7812 108.843 46.9002 108.095 43.9392H108.004C107.706 45.2127 107.227 47.0937 106.567 49.5799L104.055 57.3987H112.179Z" fill="white"/>
<path d="M146.072 58.8233C146.072 62.4953 145.069 65.3978 143.064 67.5286C141.267 69.4253 139.037 70.3726 136.374 70.3726C133.5 70.3726 131.436 69.3511 130.179 67.3081H130.088V78.6819H125.24V55.4011C125.24 53.0926 125.179 50.7233 125.061 48.2933H129.324L129.594 51.7156H129.685C131.302 49.1371 133.755 47.8501 137.047 47.8501C139.621 47.8501 141.77 48.8558 143.489 50.8696C145.212 52.8856 146.072 55.5361 146.072 58.8233ZM141.133 58.9988C141.133 56.8973 140.656 55.1648 139.696 53.8013C138.648 52.3793 137.241 51.6683 135.476 51.6683C134.28 51.6683 133.194 52.0643 132.223 52.8451C131.25 53.6326 130.613 54.6608 130.315 55.9343C130.165 56.5283 130.09 57.0143 130.09 57.3968V60.9968C130.09 62.5673 130.577 63.8926 131.55 64.9748C132.523 66.0571 133.787 66.5971 135.342 66.5971C137.168 66.5971 138.589 65.8996 139.605 64.5091C140.624 63.1163 141.133 61.2803 141.133 58.9988Z" fill="white"/>
<path d="M171.167 58.8233C171.167 62.4953 170.164 65.3978 168.157 67.5286C166.363 69.4253 164.132 70.3726 161.47 70.3726C158.596 70.3726 156.531 69.3511 155.276 67.3081H155.185V78.6819H150.338V55.4011C150.338 53.0926 150.276 50.7233 150.158 48.2933H154.421L154.692 51.7156H154.783C156.397 49.1371 158.851 47.8501 162.145 47.8501C164.717 47.8501 166.865 48.8558 168.589 50.8696C170.305 52.8856 171.167 55.5361 171.167 58.8233ZM166.229 58.9988C166.229 56.8973 165.749 55.1648 164.789 53.8013C163.741 52.3793 162.338 51.6683 160.572 51.6683C159.373 51.6683 158.289 52.0643 157.316 52.8451C156.343 53.6326 155.708 54.6608 155.41 55.9343C155.263 56.5283 155.185 57.0143 155.185 57.3968V60.9968C155.185 62.5673 155.672 63.8926 156.64 64.9748C157.614 66.0548 158.878 66.5971 160.438 66.5971C162.263 66.5971 163.684 65.8996 164.701 64.5091C165.719 63.1163 166.229 61.2803 166.229 58.9988Z" fill="white"/>
<path d="M199.225 61.4872C199.225 64.0342 198.331 66.1064 196.537 67.7062C194.566 69.4544 191.822 70.3274 188.295 70.3274C185.039 70.3274 182.429 69.7064 180.453 68.4622L181.576 64.4639C183.704 65.7374 186.04 66.3764 188.584 66.3764C190.41 66.3764 191.831 65.9669 192.852 65.1524C193.868 64.3379 194.375 63.2444 194.375 61.8809C194.375 60.6659 193.957 59.6422 193.118 58.8119C192.283 57.9817 190.889 57.2099 188.943 56.4967C183.645 54.5414 180.999 51.6772 180.999 47.9107C180.999 45.4492 181.926 43.4309 183.784 41.8604C185.635 40.2877 188.104 39.5024 191.192 39.5024C193.945 39.5024 196.232 39.9772 198.058 40.9244L196.846 44.8349C195.141 43.9169 193.213 43.4579 191.055 43.4579C189.35 43.4579 188.018 43.8742 187.063 44.7022C186.256 45.4424 185.851 46.3447 185.851 47.4134C185.851 48.5969 186.312 49.5757 187.24 50.3452C188.047 51.0562 189.514 51.8257 191.642 52.6559C194.245 53.6932 196.157 54.9059 197.388 56.2964C198.613 57.6824 199.225 59.4172 199.225 61.4872Z" fill="white"/>
<path d="M215.252 51.8928H209.909V62.3756C209.909 65.0418 210.85 66.3738 212.738 66.3738C213.604 66.3738 214.322 66.2996 214.891 66.1511L215.025 69.7938C214.07 70.1471 212.813 70.3248 211.255 70.3248C209.341 70.3248 207.845 69.7466 206.765 68.5923C205.689 67.4358 205.148 65.4963 205.148 62.7716V51.8883H201.965V48.2883H205.148V44.3351L209.909 42.9131V48.2883H215.252V51.8928Z" fill="white"/>
<path d="M239.359 58.9108C239.359 62.2296 238.399 64.9543 236.485 67.085C234.477 69.2788 231.812 70.3723 228.49 70.3723C225.289 70.3723 222.74 69.3215 220.839 67.22C218.939 65.1185 217.988 62.4658 217.988 59.2685C217.988 55.9228 218.966 53.1823 220.928 51.0516C222.886 48.9186 225.528 47.8521 228.85 47.8521C232.051 47.8521 234.627 48.9028 236.571 51.0066C238.431 53.0473 239.359 55.6821 239.359 58.9108ZM234.329 59.066C234.329 57.0748 233.9 55.3671 233.029 53.9428C232.012 52.2193 230.559 51.3598 228.677 51.3598C226.728 51.3598 225.248 52.2216 224.232 53.9428C223.361 55.3693 222.931 57.1041 222.931 59.156C222.931 61.1473 223.361 62.855 224.232 64.277C225.28 66.0005 226.744 66.86 228.634 66.86C230.484 66.86 231.937 65.9825 232.985 64.232C233.879 62.7808 234.329 61.055 234.329 59.066Z" fill="white"/>
<path d="M255.117 52.5121C254.637 52.4243 254.125 52.3793 253.589 52.3793C251.883 52.3793 250.565 53.0161 249.637 54.2918C248.83 55.4168 248.425 56.8388 248.425 58.5556V69.8843H243.58L243.625 55.0928C243.625 52.6043 243.564 50.3386 243.443 48.2956H247.666L247.843 52.4266H247.977C248.489 51.0068 249.296 49.8638 250.401 49.0066C251.481 48.2348 252.647 47.8501 253.905 47.8501C254.353 47.8501 254.757 47.8816 255.117 47.9378V52.5121Z" fill="white"/>
<path d="M276.796 58.0673C276.796 58.9268 276.739 59.6513 276.619 60.2431H262.076C262.133 62.3761 262.836 64.0073 264.186 65.1323C265.412 66.1381 266.997 66.6421 268.943 66.6421C271.096 66.6421 273.061 66.3023 274.827 65.6206L275.587 68.9506C273.522 69.8416 271.085 70.2848 268.272 70.2848C264.889 70.2848 262.233 69.2993 260.301 67.3306C258.373 65.3618 257.406 62.7181 257.406 59.4016C257.406 56.1458 258.304 53.4346 260.103 51.2723C261.985 48.9638 264.53 47.8096 267.731 47.8096C270.876 47.8096 273.256 48.9638 274.873 51.2723C276.153 53.1061 276.796 55.3741 276.796 58.0673ZM272.174 56.8231C272.206 55.4011 271.89 54.1726 271.233 53.1353C270.394 51.8011 269.104 51.1351 267.37 51.1351C265.785 51.1351 264.496 51.7853 263.511 53.0903C262.704 54.1276 262.224 55.3718 262.076 56.8208H272.174V56.8231Z" fill="white"/>
<path d="M110.576 21.5196C110.576 24.1678 109.774 26.1613 108.171 27.5001C106.686 28.7353 104.576 29.3541 101.843 29.3541C100.488 29.3541 99.3283 29.2956 98.3574 29.1786V14.7088C99.6239 14.5063 100.988 14.4028 102.461 14.4028C105.065 14.4028 107.027 14.9631 108.35 16.0836C109.833 17.3503 110.576 19.1616 110.576 21.5196ZM108.064 21.5848C108.064 19.8681 107.605 18.5518 106.686 17.6338C105.767 16.7181 104.426 16.2591 102.659 16.2591C101.909 16.2591 101.27 16.3086 100.74 16.4121V27.4123C101.034 27.4573 101.57 27.4776 102.35 27.4776C104.174 27.4776 105.581 26.9758 106.572 25.9723C107.564 24.9688 108.064 23.5063 108.064 21.5848Z" fill="white"/>
<path d="M123.898 23.8324C123.898 25.4636 123.427 26.8001 122.486 27.8486C121.499 28.9264 120.192 29.4641 118.559 29.4641C116.986 29.4641 115.733 28.9489 114.799 27.9139C113.867 26.8811 113.4 25.5784 113.4 24.0079C113.4 22.3654 113.88 21.0176 114.844 19.9714C115.808 18.9251 117.104 18.4009 118.737 18.4009C120.31 18.4009 121.574 18.9161 122.532 19.9489C123.441 20.9524 123.898 22.2484 123.898 23.8324ZM121.427 23.9089C121.427 22.9301 121.213 22.0909 120.788 21.3911C120.287 20.5451 119.576 20.1221 118.65 20.1221C117.693 20.1221 116.966 20.5451 116.465 21.3911C116.038 22.0909 115.826 22.9436 115.826 23.9516C115.826 24.9304 116.04 25.7696 116.465 26.4694C116.981 27.3154 117.7 27.7384 118.628 27.7384C119.537 27.7384 120.251 27.3086 120.765 26.4469C121.206 25.7336 121.427 24.8876 121.427 23.9089Z" fill="white"/>
<path d="M141.76 18.6174L138.406 29.2239H136.223L134.834 24.6182C134.482 23.4684 134.195 22.3254 133.972 21.1914H133.929C133.722 22.3569 133.436 23.4977 133.067 24.6182L131.592 29.2239H129.384L126.23 18.6174H128.679L129.891 23.6597C130.184 24.8522 130.425 25.9884 130.619 27.0639H130.662C130.839 26.1774 131.133 25.0479 131.546 23.6822L133.067 18.6197H135.009L136.467 23.5742C136.819 24.7824 137.105 25.9457 137.326 27.0662H137.392C137.553 25.9749 137.797 24.8117 138.12 23.5742L139.42 18.6197H141.76V18.6174Z" fill="white"/>
<path d="M154.114 29.2235H151.731V23.1485C151.731 21.2765 151.012 20.3405 149.571 20.3405C148.864 20.3405 148.293 20.597 147.85 21.1123C147.411 21.6275 147.188 22.235 147.188 22.9303V29.2213H144.805V21.6478C144.805 20.7163 144.776 19.706 144.719 18.6125H146.813L146.924 20.2708H146.99C147.268 19.7555 147.681 19.3303 148.225 18.9905C148.87 18.5945 149.594 18.3943 150.385 18.3943C151.385 18.3943 152.217 18.7138 152.879 19.355C153.702 20.1403 154.114 21.3125 154.114 22.8695V29.2235Z" fill="white"/>
<path d="M160.683 29.2237H158.303V13.7505H160.683V29.2237Z" fill="white"/>
<path d="M174.712 23.8324C174.712 25.4636 174.242 26.8001 173.3 27.8486C172.314 28.9264 171.004 29.4641 169.374 29.4641C167.798 29.4641 166.545 28.9489 165.613 27.9139C164.681 26.8811 164.215 25.5784 164.215 24.0079C164.215 22.3654 164.695 21.0176 165.659 19.9714C166.623 18.9251 167.919 18.4009 169.549 18.4009C171.125 18.4009 172.386 18.9161 173.346 19.9489C174.255 20.9524 174.712 22.2484 174.712 23.8324ZM172.239 23.9089C172.239 22.9301 172.025 22.0909 171.6 21.3911C171.102 20.5451 170.388 20.1221 169.465 20.1221C168.505 20.1221 167.778 20.5451 167.28 21.3911C166.852 22.0909 166.641 22.9436 166.641 23.9516C166.641 24.9304 166.855 25.7696 167.28 26.4694C167.796 27.3154 168.514 27.7384 169.442 27.7384C170.352 27.7384 171.063 27.3086 171.577 26.4469C172.02 25.7336 172.239 24.8876 172.239 23.9089Z" fill="white"/>
<path d="M186.244 29.2234H184.105L183.928 28.0016H183.862C183.13 28.9759 182.086 29.4641 180.731 29.4641C179.719 29.4641 178.9 29.1424 178.284 28.5034C177.725 27.9229 177.445 27.2006 177.445 26.3434C177.445 25.0474 177.991 24.0596 179.089 23.3756C180.185 22.6916 181.727 22.3564 183.712 22.3721V22.1741C183.712 20.7769 182.97 20.0794 181.486 20.0794C180.428 20.0794 179.496 20.3426 178.691 20.8646L178.207 19.3166C179.203 18.7069 180.433 18.4009 181.884 18.4009C184.685 18.4009 186.09 19.8634 186.09 22.7884V26.6944C186.09 27.7541 186.142 28.5979 186.244 29.2234ZM183.771 25.5784V23.9426C181.142 23.8976 179.828 24.6109 179.828 26.0801C179.828 26.6336 179.978 27.0476 180.285 27.3244C180.592 27.6011 180.983 27.7384 181.449 27.7384C181.972 27.7384 182.461 27.5741 182.907 27.2479C183.355 26.9194 183.63 26.5031 183.732 25.9924C183.757 25.8776 183.771 25.7381 183.771 25.5784Z" fill="white"/>
<path d="M199.784 29.2237H197.67L197.558 27.5205H197.492C196.817 28.8165 195.667 29.4645 194.05 29.4645C192.759 29.4645 191.683 28.9627 190.831 27.9592C189.978 26.9557 189.553 25.653 189.553 24.0532C189.553 22.3365 190.014 20.946 190.942 19.884C191.84 18.894 192.941 18.399 194.25 18.399C195.689 18.399 196.697 18.8782 197.27 19.839H197.315V13.7505H199.7V26.3662C199.7 27.399 199.727 28.3507 199.784 29.2237ZM197.315 24.7507V22.9822C197.315 22.6762 197.292 22.4287 197.249 22.2397C197.115 21.6727 196.826 21.1957 196.387 20.811C195.944 20.4262 195.41 20.2327 194.794 20.2327C193.905 20.2327 193.209 20.5815 192.697 21.2812C192.19 21.981 191.933 22.8742 191.933 23.9655C191.933 25.014 192.177 25.8645 192.665 26.5192C193.182 27.2167 193.877 27.5655 194.748 27.5655C195.53 27.5655 196.156 27.2752 196.631 26.6925C197.09 26.1547 197.315 25.5067 197.315 24.7507Z" fill="white"/>
<path d="M220.164 23.8324C220.164 25.4636 219.693 26.8001 218.752 27.8486C217.765 28.9264 216.46 29.4641 214.825 29.4641C213.254 29.4641 212.001 28.9489 211.064 27.9139C210.132 26.8811 209.666 25.5784 209.666 24.0079C209.666 22.3654 210.146 21.0176 211.11 19.9714C212.074 18.9251 213.37 18.4009 215.005 18.4009C216.576 18.4009 217.842 18.9161 218.797 19.9489C219.707 20.9524 220.164 22.2484 220.164 23.8324ZM217.694 23.9089C217.694 22.9301 217.481 22.0909 217.055 21.3911C216.553 20.5451 215.844 20.1221 214.916 20.1221C213.961 20.1221 213.233 20.5451 212.731 21.3911C212.303 22.0909 212.092 22.9436 212.092 23.9516C212.092 24.9304 212.306 25.7696 212.731 26.4694C213.247 27.3154 213.966 27.7384 214.893 27.7384C215.803 27.7384 216.519 27.3086 217.033 26.4469C217.472 25.7336 217.694 24.8876 217.694 23.9089Z" fill="white"/>
<path d="M232.977 29.2235H230.596V23.1485C230.596 21.2765 229.878 20.3405 228.434 20.3405C227.727 20.3405 227.156 20.597 226.715 21.1123C226.274 21.6275 226.053 22.235 226.053 22.9303V29.2213H223.668V21.6478C223.668 20.7163 223.641 19.706 223.584 18.6125H225.676L225.787 20.2708H225.853C226.133 19.7555 226.547 19.3303 227.088 18.9905C227.736 18.5945 228.456 18.3943 229.25 18.3943C230.248 18.3943 231.08 18.7138 231.742 19.355C232.567 20.1403 232.977 21.3125 232.977 22.8695V29.2235Z" fill="white"/>
<path d="M249.012 20.3833H246.388V25.5358C246.388 26.8453 246.854 27.5001 247.777 27.5001C248.205 27.5001 248.56 27.4641 248.839 27.3898L248.901 29.1786C248.43 29.3541 247.812 29.4418 247.05 29.4418C246.109 29.4418 245.376 29.1583 244.847 28.5913C244.315 28.0243 244.051 27.0703 244.051 25.7316V20.3833H242.484V18.6171H244.051V16.6731L246.386 15.9756V18.6148H249.01V20.3833H249.012Z" fill="white"/>
<path d="M261.627 29.2237H259.242V23.1937C259.242 21.2925 258.523 20.3407 257.084 20.3407C255.979 20.3407 255.224 20.892 254.81 21.9945C254.74 22.2262 254.699 22.5097 254.699 22.8427V29.2215H252.318V13.7505H254.699V20.1427H254.744C255.495 18.9795 256.57 18.399 257.964 18.399C258.951 18.399 259.767 18.7185 260.415 19.3597C261.222 20.1585 261.627 21.3465 261.627 22.917V29.2237Z" fill="white"/>
<path d="M274.638 23.4186C274.638 23.8416 274.607 24.1971 274.55 24.4874H267.404C267.435 25.5359 267.776 26.3346 268.438 26.8881C269.043 27.3831 269.823 27.6306 270.778 27.6306C271.835 27.6306 272.799 27.4641 273.668 27.1289L274.04 28.7669C273.024 29.2034 271.828 29.4216 270.443 29.4216C268.784 29.4216 267.476 28.9379 266.53 27.9704C265.58 27.0029 265.109 25.7046 265.109 24.0756C265.109 22.4759 265.548 21.1439 266.433 20.0819C267.356 18.9479 268.604 18.3809 270.18 18.3809C271.721 18.3809 272.892 18.9479 273.683 20.0819C274.322 20.9819 274.638 22.0956 274.638 23.4186ZM272.365 22.8089C272.383 22.1091 272.226 21.5061 271.903 20.9976C271.489 20.3429 270.86 20.0144 270.007 20.0144C269.229 20.0144 268.595 20.3339 268.111 20.9751C267.715 21.4859 267.481 22.0956 267.404 22.8089H272.365Z" fill="white"/>
</svg>
