<svg width="76" height="96" viewBox="0 0 76 96" fill="none" xmlns="http://www.w3.org/2000/svg">
<g clip-path="url(#clip0_70_4914)">
<path d="M45.1304 68.6629C44.574 70.1256 43.9843 71.5737 43.4684 73.0511C41.5485 78.5794 39.6839 84.1297 37.7124 89.6397C37.506 90.2153 36.7358 90.9265 36.2015 90.9521C35.7003 90.9741 34.9449 90.2666 34.6795 89.702C32.6233 85.3505 30.6628 80.9513 28.6618 76.5704C27.3831 73.7733 26.0786 70.9835 24.6488 67.8967C22.6773 70.2099 22.154 72.6295 21.8518 75.0894C21.8076 75.4596 22.5741 76.1525 23.0937 76.3285C25.8354 77.278 25.9164 77.5823 24.6082 80.1448C24.2987 80.7533 24.4608 82.0218 24.9178 82.5313C27.8585 85.7978 30.9503 88.9322 33.972 92.1289C34.9522 93.1664 35.8698 94.2625 36.8132 95.333C36.6805 95.5566 36.5479 95.7803 36.4152 96.0039C35.7814 95.7693 34.9707 95.7106 34.5469 95.2744C30.4528 91.0731 26.4066 86.8279 22.3972 82.5497C21.6233 81.7248 21.1259 80.746 22.1171 79.6059C22.2682 79.4336 21.8555 78.3888 21.4759 78.2055C19.276 77.1423 19.0659 76.7024 19.8471 74.3818C20.3925 72.7651 20.89 71.1301 21.3506 69.4877C21.686 68.2889 21.1774 67.7684 20.013 68.2963C16.7812 69.759 13.5051 71.1557 10.3876 72.8311C5.50853 75.4486 3.05796 79.8222 1.96349 85.0939C1.74239 86.157 1.23385 87.1578 0.537372 88.1293C-0.361785 86.212 0.0472574 84.3497 0.493151 82.5057C2.16986 75.6026 7.23314 71.8486 13.2767 69.0735C17.4482 67.1598 21.6676 65.3488 25.8759 63.5268C27.0736 63.0099 27.8474 62.273 28.227 60.9496C29.1446 57.7639 28.2859 54.6991 25.8096 52.5801C24.7004 51.6306 23.6317 50.6115 22.7178 49.4824C22.3198 48.9911 22.3677 48.1479 22.213 47.4661C22.5372 47.2461 22.8652 47.0262 23.1895 46.8062C24.0334 47.9023 24.8183 49.0498 25.7248 50.0909C30.2722 55.293 36.71 55.0327 41.3458 50.9451C45.9964 46.8429 46.5123 43.3198 42.9857 37.9125C42.3113 36.8787 41.7033 35.8705 40.2035 35.8192C39.8386 35.8082 39.1053 34.7047 39.2196 34.5178C40.0855 33.1064 39.2453 32.6371 38.1398 32.2595C37.1375 31.9149 36.2826 31.5703 36.8537 30.1919C36.9901 29.8619 36.7026 29.2277 36.4263 28.8795C35.2102 27.3507 33.9352 25.866 32.6675 24.3776C31.9157 23.4941 31.1677 23.4025 30.4233 24.4253C29.8116 25.2648 29.1151 26.0383 28.5255 26.8925C26.6682 29.576 26.6829 29.5833 28.4923 31.8343C28.4444 31.9442 28.4076 32.1349 28.3375 32.1459C24.7299 32.7691 24.0997 35.8339 23.2448 38.5394C21.6123 43.7011 20.1825 48.9288 18.6716 54.1309C17.9899 56.4844 18.7342 58.574 19.8692 60.6013C20.3299 61.4262 20.7352 62.2804 21.1664 63.1162C17.7319 64.524 14.7691 64.205 11.9906 61.9834C9.03883 59.6262 7.40634 56.7154 7.30316 52.8844C7.19629 48.8702 8.58557 45.2115 9.71688 41.4832C11.4083 35.8889 13.0961 30.2872 14.9055 24.7296C16.0331 21.2652 17.0281 17.6872 18.7158 14.4904C20.8863 10.3772 24.3503 7.39305 29.1446 6.51321C31.0018 6.17227 32.9807 6.20526 34.4806 7.71932C34.7643 8.00527 34.7754 8.5625 34.9117 8.99142C34.4179 9.10873 33.7804 9.48633 33.4524 9.3067C30.1027 7.45903 27.4126 9.05374 24.7999 10.8831C20.6726 13.7646 19.0438 18.1711 17.6803 22.7243C15.6019 29.6677 13.4941 36.6074 11.4599 43.5655C10.7413 46.0217 10.0743 48.5072 9.6137 51.0221C8.76245 55.6926 11.5889 59.3989 15.3477 61.5618C15.8709 61.8624 16.5822 61.8441 17.5919 62.0494C17.146 60.6013 16.7075 59.5529 16.5195 58.4604C16.291 57.1553 16.1031 55.8026 16.2026 54.4901C16.7111 47.7703 19.2317 41.6261 21.7265 35.4526C23.359 31.409 25.1278 27.4644 27.9359 24.1137C28.8719 22.9955 30.2796 22.2147 31.5915 21.4925C31.9858 21.2762 32.9512 21.5878 33.364 21.9691C37.3881 25.6717 40.9478 29.7666 43.4905 34.6387C45.2078 37.9271 47.0282 41.1862 48.4322 44.6103C50.4185 49.4457 51.6088 54.4901 50.8165 59.8022C50.7796 60.0441 50.8533 60.3484 50.7317 60.5207C50.4111 60.9716 50.0057 61.3639 49.6372 61.7781C49.3645 61.3235 48.9039 60.8873 48.8523 60.407C48.5354 57.4486 48.3733 54.4755 48.0158 51.5207C47.8905 50.4685 47.3672 49.464 47.1756 48.8958C45.1341 50.6445 42.7093 52.1366 41.1395 54.2592C39.8276 56.0298 41.2795 58.2588 42.1123 60.1211C43.3468 62.8779 46.1401 63.5195 48.6533 64.425C53.8419 66.291 59.001 68.1276 63.4157 71.636C67.8525 75.159 70.3252 79.7855 71.7587 85.0792C71.9024 85.6144 71.5192 86.289 71.3792 86.8976C70.7969 86.5529 69.9457 86.344 69.6803 85.8344C68.9286 84.379 68.4716 82.777 67.801 81.2776C65.1624 75.3607 60.265 71.8083 54.671 69.0258C53.4697 68.4283 52.2094 67.9187 50.9344 67.4971C50.1789 67.2441 49.3388 67.2405 48.06 67.0608C49.1729 69.8397 50.0831 72.1346 51.0118 74.4222C52.2057 77.3696 52.2094 77.366 49.4825 78.957C49.3277 79.0486 49.195 79.1806 48.915 79.4006C50.3595 81.1676 49.2798 82.546 48.2443 83.9391C45.6242 87.4731 43.0152 91.0145 40.3877 94.5412C40.1334 94.8821 39.8423 95.2707 39.4775 95.421C39.1422 95.5603 38.6263 95.5163 38.3093 95.3403C38.1435 95.2487 38.0919 94.6145 38.2356 94.3689C38.7663 93.4817 39.3817 92.6385 39.9971 91.8027C42.1013 88.9505 44.1797 86.0837 46.3465 83.2792C47.113 82.2857 47.0061 81.6442 46.1291 80.7937C44.3418 79.067 44.585 77.9672 46.9656 77.1423C48.5944 76.5778 49.0992 75.8519 48.2295 74.1912C47.3378 72.4792 46.7297 70.6205 45.9964 68.8242C45.7016 68.7655 45.4178 68.7142 45.1304 68.6629ZM35.4055 74.7228C36.2826 74.6494 37.5686 74.7558 38.7 74.3855C39.7134 74.0556 40.8999 73.3993 41.3901 72.5378C42.2487 71.0311 42.7646 69.2861 43.1626 67.5814C43.3579 66.7529 43.2916 65.4771 42.7793 64.9382C40.5314 62.592 39.1237 59.9305 38.8621 56.7007C38.7663 55.5093 38.1988 55.403 37.1338 55.5826C35.5234 55.8539 33.8615 56.0922 32.2474 55.9749C30.5044 55.8465 30.1174 56.4001 29.9737 58.0791C29.7858 60.2604 29.69 62.9439 28.4039 64.4176C26.5724 66.5109 26.5245 68.069 27.7958 70.1513C28.0796 70.6169 28.3486 71.1154 28.4997 71.6323C29.0746 73.6523 30.5523 74.3892 32.4906 74.5211C33.3456 74.5798 34.2005 74.6421 35.4055 74.7228ZM31.0977 77.1313C32.6528 80.5664 33.9831 83.5285 35.3871 86.454C35.4129 86.5089 36.6547 86.2707 36.7727 85.9554C37.7271 83.4625 38.5857 80.933 39.367 78.3814C39.4628 78.0625 38.9395 77.1973 38.6815 77.1863C36.3784 77.091 34.0715 77.1313 31.0977 77.1313Z" fill="#323232"/>
<path d="M59.1636 47.3268C59.381 52.5985 58.2534 57.423 54.3251 61.2283C53.6692 61.8625 52.6005 62.0788 51.7235 62.4894C52.0367 61.6059 52.1251 60.5244 52.7037 59.8718C56.2377 55.8796 57.4316 51.2897 56.5951 46.1024C55.9429 42.0698 55.6554 37.9345 54.5646 34.0229C52.092 25.1585 48.8122 16.6387 40.8857 10.9344C39.8059 10.1572 38.4904 9.72098 37.348 9.0171C36.8505 8.71283 36.5225 8.1336 36.1172 7.67901C36.8063 7.49938 37.5949 7.0118 38.1698 7.19144C41.2284 8.15926 44.0659 9.567 46.3138 11.9499C50.2752 16.1511 52.9801 21.0342 54.8521 26.4856C57.1921 33.2714 58.9241 40.1378 59.1636 47.3268Z" fill="#323232"/>
<path d="M31.5 46.1429C33.1951 45.8972 34.647 45.6626 36.1063 45.494C36.4085 45.461 36.8212 45.604 37.0313 45.8166C37.1639 45.9522 37.1087 46.4215 36.9723 46.6378C36.0916 48.0345 32.8598 48.3205 31.839 47.0777C31.5884 46.7808 31.5553 46.3078 31.5 46.1429Z" fill="#323232"/>
<path d="M35.1769 40.6145C34.5468 41.0471 34.1746 41.4834 33.9498 41.4174C33.4965 41.2891 33.1243 40.8858 32.7227 40.5926C32.9806 40.3249 33.2644 39.8117 33.4891 39.8374C33.9535 39.8923 34.3883 40.2296 35.1769 40.6145Z" fill="#323232"/>
<path d="M26.4649 36.4096C27.0755 36.4096 27.5704 35.9172 27.5704 35.3098C27.5704 34.7024 27.0755 34.21 26.4649 34.21C25.8543 34.21 25.3594 34.7024 25.3594 35.3098C25.3594 35.9172 25.8543 36.4096 26.4649 36.4096Z" fill="#323232"/>
<path d="M26.4649 36.4096C27.0755 36.4096 27.5704 35.9172 27.5704 35.3098C27.5704 34.7024 27.0755 34.21 26.4649 34.21C25.8543 34.21 25.3594 34.7024 25.3594 35.3098C25.3594 35.9172 25.8543 36.4096 26.4649 36.4096Z" fill="#323232"/>
<path d="M39.7325 36.4096C40.343 36.4096 40.838 35.9172 40.838 35.3098C40.838 34.7024 40.343 34.21 39.7325 34.21C39.1219 34.21 38.627 34.7024 38.627 35.3098C38.627 35.9172 39.1219 36.4096 39.7325 36.4096Z" fill="#323232"/>
</g>
<defs>
<clipPath id="clip0_70_4914">
<rect width="76" height="96" fill="white"/>
</clipPath>
</defs>
</svg>
