<svg width="180" height="180" viewBox="0 0 180 180" fill="none" xmlns="http://www.w3.org/2000/svg">
<path d="M147.729 45.1505C144.025 48.9958 140.433 52.8811 136.951 56.6664C133.469 60.4518 130.057 64.1673 126.646 67.8028L125.801 68.7017L124.794 67.8028L113.644 57.4755L112.336 56.2769L113.644 54.8986C115.415 53.0309 117.166 51.1332 118.978 49.3054L124.513 43.902L135.512 32.9954L135.955 36.1615C131.433 33.672 126.259 32.5963 121.111 33.0753C118.559 33.3174 116.055 33.9194 113.674 34.8631C108.883 36.7943 104.792 40.1195 101.941 44.4014C100.533 46.531 99.4447 48.8525 98.7104 51.293C98.0186 53.7436 97.6798 56.279 97.7041 58.8238C97.7376 61.3705 98.1653 63.8969 98.9721 66.3147L99.3545 67.4832L98.479 68.3522L61.6877 104.728L43.3022 122.886L38.7536 127.4C37.495 128.704 36.5994 130.31 36.1549 132.061C35.7103 133.812 35.7319 135.648 36.2176 137.388C36.9578 140.026 38.7111 142.271 41.1009 143.64C43.4906 145.009 46.3261 145.393 48.998 144.709C50.7694 144.275 52.3962 143.391 53.7176 142.142L58.2864 137.638L76.6719 119.47L113.433 83.1441L114.298 82.2851L115.466 82.6547C117.906 83.4677 120.459 83.899 123.033 83.9331C123.667 83.9331 124.311 83.8632 124.945 83.8432C125.586 83.8322 126.225 83.7755 126.857 83.6734L128.769 83.4337L130.651 83.0242C133.168 82.4063 135.579 81.4236 137.806 80.1078C140.037 78.7454 142.069 77.0853 143.844 75.1738C145.592 73.1906 147.058 70.9794 148.201 68.6019C149.293 66.1693 150.038 63.5977 150.415 60.9612C151.146 55.5426 150.209 50.0314 147.729 45.1505ZM147.729 45.1505C150.685 49.9252 152.09 55.4868 151.754 61.0811C151.571 63.9097 150.981 66.6979 150.003 69.3609C148.958 72.0262 147.549 74.5366 145.816 76.8218C144.006 79.0991 141.886 81.1159 139.517 82.8145C137.101 84.4869 134.454 85.8023 131.658 86.7197C125.952 88.4873 119.83 88.4173 114.168 86.52L116.18 86.0406L79.5097 122.346L61.1242 140.514C59.5744 142.032 58.1052 143.51 56.485 145.078C54.6652 146.806 52.42 148.029 49.9741 148.624C47.5344 149.241 44.975 149.216 42.5474 148.554C40.1113 147.903 37.8881 146.633 36.097 144.869C34.3059 143.106 33.0087 140.909 32.3332 138.496C31.6581 136.085 31.6268 133.541 32.2426 131.113C32.8584 128.686 34.1 126.46 35.8453 124.653C37.4252 123.045 38.9247 121.597 40.4643 120.069L58.8398 101.911L95.6009 65.5656L95.1078 67.5631C94.1921 64.7849 93.7003 61.8863 93.6486 58.9636C93.6283 56.0155 94.0315 53.0795 94.8461 50.2443C95.6988 47.4155 96.9597 44.7241 98.5897 42.2541C101.892 37.3223 106.616 33.4935 112.145 31.2675C114.903 30.1736 117.803 29.4741 120.759 29.19C126.694 28.6561 132.653 29.9017 137.867 32.7656L140.241 33.9941L138.35 35.8619L127.35 46.7386L121.896 52.2119C120.034 53.9897 118.122 55.7276 116.231 57.4755V54.8986L126.676 65.9551H124.855C128.769 62.3395 132.704 58.8138 136.548 55.3481C140.392 51.8823 144.126 48.5564 147.729 45.1505Z" fill="#6F3E68"/>
<path d="M128.21 35.44C124.357 34.865 120.422 35.2287 116.74 36.5C113.116 37.7469 109.859 39.8739 107.26 42.69C106.003 44.0922 104.956 45.6685 104.15 47.37C103.313 49.0542 102.644 50.8159 102.15 52.63C101.208 56.3465 101.045 60.2174 101.67 64H101.48C99.8396 60.2657 99.4061 56.1126 100.24 52.12C101.114 48.0903 103.156 44.4072 106.11 41.53C108.997 38.6979 112.549 36.635 116.44 35.53C120.291 34.4793 124.339 34.3729 128.24 35.22L128.21 35.44Z" fill="#6F3E68"/>
<path d="M121.15 84.89C122.102 84.0042 122.855 82.9273 123.36 81.73C123.499 81.1413 123.669 80.5605 123.87 79.99C124.179 79.3687 124.558 78.7849 125 78.25H125.2C125.684 78.9012 125.893 79.7165 125.78 80.52C125.627 81.2748 125.259 81.9693 124.72 82.52C124.279 83.1199 123.746 83.6463 123.14 84.08C122.558 84.5077 121.914 84.8448 121.23 85.08L121.15 84.89Z" fill="#6F3E68"/>
<path d="M129.17 84.4302C129.84 83.3165 130.263 82.0717 130.41 80.7802C130.37 80.1775 130.37 79.5728 130.41 78.9702C130.533 78.2815 130.737 77.61 131.02 76.9702L131.21 76.9102C131.852 77.398 132.282 78.1141 132.41 78.9102C132.469 79.6819 132.31 80.4548 131.95 81.1402C131.439 82.5171 130.517 83.704 129.31 84.5402L129.17 84.4302Z" fill="#6F3E68"/>
<path d="M137.811 82.0798C137.948 81.4223 138.012 80.7515 138.001 80.0798C137.992 79.45 137.915 78.823 137.771 78.2098C137.536 77.6538 137.338 77.0825 137.181 76.4998C137.069 75.809 137.042 75.1071 137.101 74.4098L137.261 74.2998C137.645 74.4186 138.002 74.6135 138.309 74.8729C138.617 75.1323 138.869 75.4509 139.051 75.8098C139.369 76.5141 139.477 77.2956 139.361 78.0598C139.352 78.8021 139.223 79.5382 138.981 80.2398C138.747 80.9208 138.41 81.5617 137.981 82.1398L137.811 82.0798Z" fill="#6F3E68"/>
<path d="M104.72 80.1201C100.3 85.4001 95.7204 90.4701 90.9604 95.4701C88.6304 97.9801 86.2204 100.47 83.8504 102.9L76.6204 110.22L69.2704 117.43C66.7904 119.79 64.3404 122.19 61.8104 124.51C56.8104 129.19 51.7004 133.8 46.4004 138.2C50.8204 132.92 55.4504 127.85 60.1604 122.85C62.4904 120.33 64.9004 117.85 67.2704 115.41L74.5004 108.1L81.8504 100.9C84.3404 98.5301 86.7904 96.1401 89.3204 93.8101C94.3304 89.1301 99.4204 84.5201 104.72 80.1201Z" fill="#6F3E68"/>
<path d="M131.85 134.03L130 135.87L101.34 107.33L103.18 105.49L131.85 134.03Z" fill="#6E3E68"/>
<path d="M126.809 139.06L124.959 140.9L96.2891 112.35L98.1391 110.51L126.809 139.06Z" fill="#6E3E68"/>
<path d="M93 119.79C96.61 122.79 100.09 125.87 103.58 128.96C107.07 132.05 110.49 135.21 113.89 138.4C115.59 139.99 117.3 141.58 118.97 143.19C119.38 143.57 119.84 144.05 120.2 144.34L120.77 144.83L121.39 145.25C122.212 145.804 123.112 146.233 124.06 146.52C124.998 146.827 125.974 147.002 126.96 147.04C127.945 147.093 128.933 146.998 129.89 146.76C131.81 146.306 133.566 145.326 134.96 143.93L136.37 143.35L134.96 143.93C136.349 142.557 137.332 140.826 137.8 138.93C138.013 137.969 138.08 136.981 138 136C137.962 135.017 137.787 134.045 137.48 133.11C137.192 132.168 136.764 131.275 136.21 130.46L135.79 129.85C135.63 129.65 135.46 129.47 135.3 129.28C135.02 128.92 134.54 128.47 134.16 128.06C132.54 126.4 130.95 124.71 129.37 123.06C126.18 119.69 123.05 116.27 119.92 112.84C116.79 109.41 113.73 105.92 110.76 102.33C114.36 105.33 117.83 108.33 121.31 111.45C124.79 114.57 128.19 117.67 131.57 120.85C133.27 122.43 134.96 124.01 136.63 125.62C137.06 126.04 137.45 126.37 137.92 126.89C138.14 127.13 138.38 127.37 138.59 127.62L139.2 128.41C139.989 129.486 140.615 130.672 141.06 131.93C141.526 133.184 141.793 134.503 141.85 135.84C141.937 137.182 141.826 138.53 141.52 139.84C140.926 142.485 139.603 144.91 137.7 146.84L136.29 147.43L137.7 146.84C135.765 148.735 133.342 150.054 130.7 150.65C129.389 150.949 128.042 151.061 126.7 150.98C126.029 150.941 125.361 150.86 124.7 150.74C124.044 150.599 123.399 150.412 122.77 150.18C121.507 149.734 120.314 149.107 119.23 148.32L118.44 147.71L117.71 147.04C117.18 146.56 116.86 146.18 116.43 145.75C114.81 144.083 113.207 142.397 111.62 140.69C108.42 137.31 105.27 133.87 102.13 130.42C98.99 126.97 95.93 123.39 93 119.79Z" fill="#6E3E68"/>
<path d="M75.4791 78.6898C72.3991 76.4631 69.3758 74.1765 66.4091 71.8298L64.1691 70.0798C63.4042 69.5259 62.6973 68.896 62.0591 68.1998C60.7791 66.8298 59.4191 65.5398 58.0591 64.1998L42.0591 48.2998H44.9991L44.3291 48.9598L42.6591 50.6198L41.2891 48.7098L38.1991 44.3898L38.6591 44.8498L32.6591 40.5998L35.2291 40.3898L30.9391 44.6598L31.1591 42.0698L35.4291 48.0698L34.9591 47.6098L39.2991 50.6898L41.1991 51.9998L39.5191 53.6998L38.8891 54.3298V51.4998L54.7791 67.3198C56.1091 68.6298 57.3991 69.9798 58.7791 71.2498C59.4634 71.8945 60.0831 72.6045 60.6291 73.3698L62.3791 75.5798C64.7191 78.5265 67.0125 81.5265 69.2591 84.5798C66.2591 82.3398 63.2591 80.0598 60.2591 77.7298L57.9991 75.9998C57.2333 75.4543 56.5201 74.8383 55.8691 74.1598C54.5891 72.7998 53.2391 71.5098 51.9191 70.1598L36.0691 54.3298L34.6391 52.9098L36.0691 51.4998L36.6991 50.8698L36.9491 53.8698L32.6091 50.7898L32.3391 50.5998L32.1491 50.3198L27.8691 44.3198L26.8691 42.9398L28.0791 41.7398L32.3591 37.4698L33.5591 36.2798L34.9291 37.2798L40.9291 41.5298L41.1991 41.7298L41.3991 41.9998L44.4891 46.3198L41.4891 46.0698L42.1491 45.3998L43.5591 43.9998L44.9991 45.4598L60.9991 61.3698C62.3391 62.6898 63.6391 64.0398 64.9991 65.3198C65.6984 65.9578 66.3316 66.6647 66.8891 67.4298L68.6491 69.6498C70.9558 72.6098 73.2325 75.6231 75.4791 78.6898Z" fill="#6F3E68"/>
</svg>
