<svg width="24" height="24" viewBox="0 0 24 24" fill="none" xmlns="http://www.w3.org/2000/svg">
<path d="M11.9991 8.87579C10.2788 8.87579 8.87492 10.2797 8.87492 12C8.87492 13.7203 10.2788 15.1242 11.9991 15.1242C13.7194 15.1242 15.1234 13.7203 15.1234 12C15.1234 10.2797 13.7194 8.87579 11.9991 8.87579ZM21.3694 12C21.3694 10.7063 21.3812 9.42423 21.3085 8.13283C21.2359 6.63283 20.8937 5.30158 19.7968 4.2047C18.6976 3.10548 17.3687 2.76564 15.8687 2.69298C14.5749 2.62033 13.2929 2.63204 12.0015 2.63204C10.7077 2.63204 9.4257 2.62033 8.13429 2.69298C6.63429 2.76564 5.30304 3.10783 4.20617 4.2047C3.10695 5.30392 2.7671 6.63283 2.69445 8.13283C2.62179 9.42658 2.63351 10.7086 2.63351 12C2.63351 13.2914 2.62179 14.5758 2.69445 15.8672C2.7671 17.3672 3.10929 18.6985 4.20617 19.7953C5.30538 20.8945 6.63429 21.2344 8.13429 21.307C9.42804 21.3797 10.7101 21.368 12.0015 21.368C13.2952 21.368 14.5773 21.3797 15.8687 21.307C17.3687 21.2344 18.6999 20.8922 19.7968 19.7953C20.896 18.6961 21.2359 17.3672 21.3085 15.8672C21.3835 14.5758 21.3694 13.2938 21.3694 12ZM11.9991 16.807C9.33898 16.807 7.1921 14.6602 7.1921 12C7.1921 9.33986 9.33898 7.19298 11.9991 7.19298C14.6593 7.19298 16.8062 9.33986 16.8062 12C16.8062 14.6602 14.6593 16.807 11.9991 16.807ZM17.003 8.11876C16.3819 8.11876 15.8804 7.6172 15.8804 6.99611C15.8804 6.37501 16.3819 5.87345 17.003 5.87345C17.6241 5.87345 18.1257 6.37501 18.1257 6.99611C18.1259 7.14359 18.097 7.28966 18.0406 7.42595C17.9843 7.56224 17.9016 7.68607 17.7973 7.79036C17.693 7.89464 17.5692 7.97733 17.4329 8.03368C17.2966 8.09004 17.1505 8.11895 17.003 8.11876Z" fill="#6D3D67"/>
</svg>
