<svg width="185" height="95" viewBox="0 0 185 95" fill="none" xmlns="http://www.w3.org/2000/svg">
<path d="M18.9244 82.1444H14.3242V68.4789C14.3242 67.7704 14.4288 67.1124 15.1606 66.6063C15.7356 66.2014 16.3629 66.1508 16.938 66.1508H22.7404C23.5768 66.1508 25.1973 66.252 26.3474 67.4161C27.602 68.6814 27.7065 70.6553 27.7065 71.8194C27.7065 72.8822 27.6543 75.2104 26.7133 76.577C25.5633 78.146 23.6814 78.2472 22.4268 78.2472H19.0289V82.1444H18.9244ZM20.9108 75.0586C21.904 75.0586 22.4268 74.5019 22.6359 74.1476C22.8973 73.692 22.8973 73.0341 22.8973 72.2749C22.8973 71.5663 22.8973 71.0096 22.6882 70.5035C22.27 69.5418 21.329 69.4912 21.0154 69.4912H19.3949C19.2903 69.4912 19.0812 69.5924 19.0289 69.643C18.9244 69.7443 18.8721 69.8961 18.8721 70.0479V75.1092H20.9108V75.0586Z" fill="#6D3D67"/>
<path d="M28.752 71.2626C28.752 70.0985 28.8565 68.4283 30.2156 67.3149C31.5748 66.2014 33.6135 66.1508 34.8158 66.1508H37.9V69.2887H36.2795C35.3908 69.2887 34.5544 69.39 33.9271 70.1492C33.4044 70.8577 33.2998 71.7688 33.2998 72.4773V78.2472H28.752V71.2626Z" fill="#6D3D67"/>
<path d="M51.1261 67.2643C52.6944 68.6308 52.7989 71.0096 52.7989 72.2243C52.7989 73.439 52.6944 75.8178 51.1261 77.1844C49.767 78.3484 47.5714 78.3991 45.585 78.3991C43.5986 78.3991 41.403 78.3484 40.0439 77.1844C38.4756 75.8178 38.3711 73.439 38.3711 72.2243C38.3711 71.0096 38.4756 68.6308 40.0439 67.2643C41.403 66.1002 43.5986 66.0496 45.585 66.0496C47.5192 66.0496 49.767 66.1002 51.1261 67.2643ZM43.494 74.35C43.5986 74.5019 44.1213 75.1598 45.5327 75.1598C46.7873 75.1598 47.3623 74.6537 47.5714 74.35C47.9374 73.8439 48.0419 73.0847 48.0419 72.2243C48.0419 70.959 47.8328 70.4022 47.5714 70.048C47.3101 69.7443 46.7873 69.2888 45.5327 69.2888C44.2781 69.2888 43.7031 69.7443 43.494 70.048C43.3372 70.301 43.0235 70.8072 43.0235 72.2243C43.0758 73.5402 43.3372 74.097 43.494 74.35Z" fill="#6D3D67"/>
<path d="M58.4971 62.3042V66.2014H61.8427C63.1496 66.2014 65.136 66.3026 66.286 68.1753C67.0702 69.4406 67.1224 71.0096 67.1224 72.2243C67.1224 74.2488 66.8088 75.4635 66.286 76.2733C65.1883 78.0954 63.0973 78.2978 61.895 78.2978H56.4584C55.8311 78.2978 55.047 78.2472 54.472 77.5892C54.0538 77.1337 53.9492 76.6782 53.9492 76.1215V62.3548H58.4971V62.3042ZM58.4971 73.9451C58.4971 74.1476 58.4971 74.6031 58.7585 74.8561C59.0199 75.0586 59.3858 75.0586 59.5949 75.0586H60.5358C61.4768 75.0586 61.895 74.7549 62.1563 74.2488C62.3132 73.9451 62.47 73.3884 62.47 72.1737C62.47 71.0096 62.2609 70.5035 62.1563 70.301C61.7381 69.4406 61.0063 69.39 60.6404 69.39H58.5494V73.9451H58.4971Z" fill="#6D3D67"/>
<path d="M68.2715 62.3042H72.8717V78.2472H68.2715V62.3042Z" fill="#6D3D67"/>
<path d="M79.0928 78.2977C77.211 78.2977 75.6427 78.2977 74.6495 76.7288C74.1268 75.8683 74.0222 74.603 74.0222 72.3761C74.0222 70.1491 73.9177 68.3777 75.0154 67.2642C76.1655 66.1001 78.5701 66.1001 80.9225 66.1001C83.4316 66.1001 85.1044 66.1507 86.0977 66.9099C87.3 67.8209 87.4568 69.643 87.4568 70.9589C87.4568 71.7181 87.4045 72.6291 86.7249 73.1859C86.3067 73.4895 85.9408 73.5402 85.5226 73.5402H78.7269C78.7269 73.8438 78.7792 74.2487 78.936 74.5018C79.3542 75.1091 80.1906 75.0585 81.027 75.0585H87.0909V78.2977H79.0928ZM82.0725 70.6552C82.7521 70.6552 82.8043 70.2503 82.8043 69.9973C82.8043 69.6936 82.6475 69.2887 81.968 69.1875C81.602 69.1369 80.9747 69.0862 80.7656 69.0862C80.2429 69.0862 79.511 69.0862 79.1451 69.2887C78.6746 69.5418 78.6224 69.9973 78.6746 70.6552H82.0725Z" fill="#6D3D67"/>
<path d="M88.5547 68.3778C88.5547 68.0235 88.607 67.4667 89.0252 67.0112C89.6525 66.252 90.4889 66.2014 91.4821 66.2014H102.198C103.61 66.2014 105.126 66.5557 106.067 67.4161C106.955 68.2259 107.374 69.5419 107.374 70.6553V78.2472H102.773V71.5664C102.773 71.0602 102.721 70.301 102.303 69.8455C102.042 69.5925 101.519 69.3394 100.839 69.3394H100.316V78.2978H95.664V69.3394H93.8867C93.4685 69.3394 93.364 69.4406 93.2594 69.5418C93.1549 69.6431 93.1549 69.9468 93.1549 70.1492V78.2978H88.5547V68.3778Z" fill="#6D3D67"/>
<path d="M78.5176 49.4991C78.5176 49.0436 78.5176 48.4868 79.0403 48.0313C79.7722 47.3228 80.9745 47.3228 81.7586 47.3228H86.0974C87.5088 47.3228 89.0248 47.424 90.2794 48.3856C91.6908 49.4485 91.8476 50.9163 91.8476 51.9791V59.4192H87.2474V53.2951C87.2474 52.4346 87.1952 51.7767 86.7247 51.2199C86.3065 50.7138 85.7838 50.5114 84.8428 50.5114H84.0064C83.7973 50.5114 83.5359 50.5114 83.3791 50.7138C83.1177 50.9163 83.17 51.1693 83.17 51.4224V59.4698H78.5699V49.4991H78.5176Z" fill="#6D3D67"/>
<path d="M105.753 48.4363C107.321 49.8028 107.426 52.1816 107.426 53.3963C107.426 54.611 107.321 56.9898 105.753 58.3563C104.394 59.5204 102.198 59.571 100.212 59.571C98.2255 59.571 96.03 59.5204 94.6708 58.3563C93.1026 56.9898 92.998 54.611 92.998 53.3963C92.998 52.1816 93.1026 49.8028 94.6708 48.4363C96.03 47.2722 98.2255 47.2216 100.212 47.2216C102.198 47.2216 104.394 47.2722 105.753 48.4363ZM98.121 55.4714C98.2255 55.6233 98.7483 56.2812 100.16 56.2812C101.414 56.2812 101.989 55.7751 102.198 55.4714C102.564 54.9653 102.669 54.2061 102.669 53.3457C102.669 52.0804 102.46 51.5236 102.198 51.1693C101.937 50.8657 101.414 50.4102 100.16 50.4102C98.9051 50.4102 98.3301 50.8657 98.121 51.1693C97.9641 51.4224 97.6505 51.9285 97.6505 53.3457C97.7028 54.7122 97.9641 55.2184 98.121 55.4714Z" fill="#6D3D67"/>
<path d="M156.197 36.0361C156.197 35.7831 156.302 35.5806 156.459 35.3782C156.668 35.2263 156.877 35.1251 157.138 35.1251C157.4 35.1251 157.661 35.2263 157.818 35.3782C158.027 35.53 158.079 35.7325 158.079 36.0361C158.079 36.2892 157.975 36.4917 157.818 36.6435C157.661 36.7953 157.4 36.8966 157.138 36.8966C156.877 36.8966 156.615 36.7953 156.459 36.6435C156.302 36.4917 156.197 36.2892 156.197 36.0361Z" fill="#6D3D67"/>
<path d="M163.83 32.1896C163.62 32.139 163.411 32.139 163.202 32.139C162.575 32.139 162.157 32.3415 161.948 32.797V36.846H160.223V30.6206H161.843L161.895 31.3798C162.261 30.8231 162.732 30.5194 163.307 30.5194C163.516 30.5194 163.673 30.5194 163.83 30.57V32.1896Z" fill="#6D3D67"/>
<path d="M169.058 36.188C168.64 36.6941 168.065 36.9472 167.333 36.9472C166.653 36.9472 166.13 36.7447 165.764 36.3905C165.399 35.9856 165.242 35.4288 165.189 34.7202V30.6712H166.915V34.6696C166.915 35.3276 167.228 35.6313 167.803 35.6313C168.378 35.6313 168.796 35.4288 169.006 35.0239V30.6206H170.731V36.7954H169.11L169.058 36.188Z" fill="#6D3D67"/>
<path d="M129.225 56.1294C129.225 60.0266 132.466 63.1646 136.491 63.1646C140.516 63.1646 143.757 60.0266 143.757 56.1294C143.757 52.2322 140.516 49.0942 136.491 49.0942C132.466 49.0942 129.225 52.2828 129.225 56.1294Z" fill="#6D3D67"/>
<path d="M148.618 62.7597C145.795 67.5679 140.359 70.1997 134.661 69.5418C128.388 68.7826 123.317 63.7719 122.638 57.6984C122.585 57.2429 122.533 56.7368 122.533 56.2813V56.18C122.533 52.8396 123.735 49.651 126.088 47.1204C128.754 44.2861 132.518 42.6158 136.491 42.6158C141.457 42.6158 146.057 45.1971 148.566 49.3473C149.925 51.5743 152.382 52.9914 154.996 52.9914H159.178L159.073 52.2829C157.557 43.8812 151.337 37.3521 143.286 34.9733L147.573 31.6835C149.298 30.3676 150.396 28.4443 150.657 26.3186C150.918 24.1928 150.291 22.0671 148.88 20.3969L148.514 19.9414L132.988 31.886L136.909 23.8385C138.843 19.8401 137.066 15.0319 132.936 13.1087L132.413 12.8556L122.585 32.9994V22.4214C122.585 17.9675 118.874 14.374 114.274 14.374H113.646V56.1294V61.6462V78.2472H136.491C147.625 78.2472 157.087 70.554 159.021 59.9254L159.125 59.2168H154.943C152.33 59.2674 149.873 60.634 148.618 62.7597Z" fill="#6D3D67"/>
</svg>
