<svg width="40" height="61" viewBox="0 0 40 61" fill="none" xmlns="http://www.w3.org/2000/svg">
<path d="M13.6855 40.6962C13.6855 44.2738 16.5329 47.1544 20.069 47.1544C23.6052 47.1544 26.4525 44.2738 26.4525 40.6962C26.4525 37.1187 23.6052 34.238 20.069 34.238C16.5329 34.238 13.6855 37.1651 13.6855 40.6962Z" fill="#6D3D67"/>
<path d="M30.7233 46.7827C28.2434 51.1966 23.4673 53.6126 18.4615 53.0086C12.9506 52.3116 8.49599 47.7119 7.89897 42.1365C7.85305 41.7184 7.80712 41.2538 7.80712 40.8356V40.7427C7.80712 37.6762 8.86338 34.7491 10.93 32.426C13.2721 29.8242 16.5786 28.2909 20.0689 28.2909C24.4317 28.2909 28.473 30.6605 30.6774 34.4703C31.8714 36.5147 34.0299 37.8156 36.3261 37.8156H40L39.9081 37.1651C38.5763 29.4525 33.1114 23.4589 26.039 21.2752L29.8048 18.2552C31.3203 17.0472 32.2847 15.2816 32.5144 13.3303C32.744 11.3789 32.1929 9.42747 30.9529 7.89423L30.6315 7.47608L16.992 18.441L20.4363 11.0536C22.1355 7.38315 20.5741 2.96929 16.946 1.20374L16.4868 0.971436L7.85304 19.4632V9.7527C7.85304 5.66407 4.59243 2.36529 0.551096 2.36529H0V40.6962V45.7605V61H20.0689C29.8507 61 38.163 53.9378 39.8622 44.1808L39.9541 43.5304H36.2801C33.9839 43.5768 31.8255 44.8313 30.7233 46.7827Z" fill="#6D3D67"/>
</svg>
