<svg width="185" height="95" viewBox="0 0 185 95" fill="none" xmlns="http://www.w3.org/2000/svg">
<path d="M18.9244 82.1445H14.3242V68.4791C14.3242 67.7705 14.4288 67.1125 15.1606 66.6064C15.7356 66.2015 16.3629 66.1509 16.938 66.1509H22.7404C23.5768 66.1509 25.1973 66.2521 26.3474 67.4162C27.602 68.6815 27.7065 70.6554 27.7065 71.8195C27.7065 72.8824 27.6543 75.2106 26.7133 76.5771C25.5633 78.1461 23.6814 78.2473 22.4268 78.2473H19.0289V82.1445H18.9244ZM20.9108 75.0587C21.904 75.0587 22.4268 74.502 22.6359 74.1477C22.8973 73.6922 22.8973 73.0342 22.8973 72.275C22.8973 71.5664 22.8973 71.0097 22.6882 70.5036C22.27 69.5419 21.329 69.4913 21.0154 69.4913H19.3949C19.2903 69.4913 19.0812 69.5925 19.0289 69.6432C18.9244 69.7444 18.8721 69.8962 18.8721 70.0481V75.1093H20.9108V75.0587Z" fill="#6D3D67"/>
<path d="M28.752 71.2628C28.752 70.0987 28.8565 68.4285 30.2156 67.315C31.5748 66.2015 33.6135 66.1509 34.8158 66.1509H37.9V69.2889H36.2795C35.3908 69.2889 34.5544 69.3901 33.9271 70.1493C33.4044 70.8579 33.2998 71.7689 33.2998 72.4775V78.2473H28.752V71.2628Z" fill="#6D3D67"/>
<path d="M51.1261 67.264C52.6944 68.6306 52.7989 71.0094 52.7989 72.2241C52.7989 73.4388 52.6944 75.8176 51.1261 77.1841C49.767 78.3482 47.5714 78.3988 45.585 78.3988C43.5986 78.3988 41.403 78.3482 40.0439 77.1841C38.4756 75.8176 38.3711 73.4388 38.3711 72.2241C38.3711 71.0094 38.4756 68.6306 40.0439 67.264C41.403 66.0999 43.5986 66.0493 45.585 66.0493C47.5192 66.0493 49.767 66.0999 51.1261 67.264ZM43.494 74.3498C43.5986 74.5016 44.1213 75.1596 45.5327 75.1596C46.7873 75.1596 47.3623 74.6535 47.5714 74.3498C47.9374 73.8437 48.0419 73.0845 48.0419 72.2241C48.0419 70.9587 47.8328 70.402 47.5714 70.0477C47.3101 69.744 46.7873 69.2885 45.5327 69.2885C44.2781 69.2885 43.7031 69.744 43.494 70.0477C43.3372 70.3008 43.0235 70.8069 43.0235 72.2241C43.0758 73.54 43.3372 74.0967 43.494 74.3498Z" fill="#6D3D67"/>
<path d="M58.4971 62.3042V66.2014H61.8427C63.1496 66.2014 65.136 66.3026 66.286 68.1753C67.0702 69.4406 67.1224 71.0096 67.1224 72.2243C67.1224 74.2488 66.8088 75.4635 66.286 76.2733C65.1883 78.0954 63.0973 78.2978 61.895 78.2978H56.4584C55.8311 78.2978 55.047 78.2472 54.472 77.5892C54.0538 77.1337 53.9492 76.6782 53.9492 76.1215V62.3548H58.4971V62.3042ZM58.4971 73.9451C58.4971 74.1476 58.4971 74.6031 58.7585 74.8561C59.0199 75.0586 59.3858 75.0586 59.5949 75.0586H60.5358C61.4768 75.0586 61.895 74.7549 62.1563 74.2488C62.3132 73.9451 62.47 73.3884 62.47 72.1737C62.47 71.0096 62.2609 70.5035 62.1563 70.301C61.7381 69.4406 61.0063 69.39 60.6404 69.39H58.5494V73.9451H58.4971Z" fill="#6D3D67"/>
<path d="M68.2715 62.3042H72.8717V78.2472H68.2715V62.3042Z" fill="#6D3D67"/>
<path d="M79.0928 78.2977C77.211 78.2977 75.6427 78.2977 74.6495 76.7288C74.1268 75.8683 74.0222 74.603 74.0222 72.3761C74.0222 70.1491 73.9177 68.3777 75.0154 67.2642C76.1655 66.1001 78.5701 66.1001 80.9225 66.1001C83.4316 66.1001 85.1044 66.1507 86.0977 66.9099C87.3 67.8209 87.4568 69.643 87.4568 70.9589C87.4568 71.7181 87.4045 72.6291 86.7249 73.1859C86.3067 73.4895 85.9408 73.5402 85.5226 73.5402H78.7269C78.7269 73.8438 78.7792 74.2487 78.936 74.5018C79.3542 75.1091 80.1906 75.0585 81.027 75.0585H87.0909V78.2977H79.0928ZM82.0725 70.6552C82.7521 70.6552 82.8043 70.2503 82.8043 69.9973C82.8043 69.6936 82.6475 69.2887 81.968 69.1875C81.602 69.1369 80.9747 69.0862 80.7656 69.0862C80.2429 69.0862 79.511 69.0862 79.1451 69.2887C78.6746 69.5418 78.6224 69.9973 78.6746 70.6552H82.0725Z" fill="#6D3D67"/>
<path d="M88.5547 68.3775C88.5547 68.0232 88.607 67.4665 89.0252 67.011C89.6525 66.2518 90.4889 66.2012 91.4821 66.2012H102.198C103.61 66.2012 105.126 66.5555 106.067 67.4159C106.955 68.2257 107.374 69.5416 107.374 70.6551V78.247H102.773V71.5661C102.773 71.06 102.721 70.3008 102.303 69.8453C102.042 69.5922 101.519 69.3392 100.839 69.3392H100.316V78.2976H95.664V69.3392H93.8867C93.4685 69.3392 93.364 69.4404 93.2594 69.5416C93.1549 69.6428 93.1549 69.9465 93.1549 70.149V78.2976H88.5547V68.3775Z" fill="#6D3D67"/>
<path d="M78.5176 49.4991C78.5176 49.0436 78.5176 48.4868 79.0403 48.0313C79.7722 47.3228 80.9745 47.3228 81.7586 47.3228H86.0974C87.5088 47.3228 89.0248 47.424 90.2794 48.3856C91.6908 49.4485 91.8476 50.9163 91.8476 51.9791V59.4192H87.2474V53.2951C87.2474 52.4346 87.1952 51.7767 86.7247 51.2199C86.3065 50.7138 85.7838 50.5114 84.8428 50.5114H84.0064C83.7973 50.5114 83.5359 50.5114 83.3791 50.7138C83.1177 50.9163 83.17 51.1693 83.17 51.4224V59.4698H78.5699V49.4991H78.5176Z" fill="#6D3D67"/>
<path d="M105.753 48.4364C107.321 49.8029 107.426 52.1817 107.426 53.3964C107.426 54.6111 107.321 56.9899 105.753 58.3565C104.394 59.5206 102.198 59.5712 100.212 59.5712C98.2255 59.5712 96.03 59.5206 94.6708 58.3565C93.1026 56.9899 92.998 54.6111 92.998 53.3964C92.998 52.1817 93.1026 49.8029 94.6708 48.4364C96.03 47.2723 98.2255 47.2217 100.212 47.2217C102.198 47.2217 104.394 47.2723 105.753 48.4364ZM98.121 55.4715C98.2255 55.6234 98.7483 56.2813 100.16 56.2813C101.414 56.2813 101.989 55.7752 102.198 55.4715C102.564 54.9654 102.669 54.2062 102.669 53.3458C102.669 52.0805 102.46 51.5238 102.198 51.1695C101.937 50.8658 101.414 50.4103 100.16 50.4103C98.9051 50.4103 98.3301 50.8658 98.121 51.1695C97.9641 51.4225 97.6505 51.9287 97.6505 53.3458C97.7028 54.7124 97.9641 55.2185 98.121 55.4715Z" fill="#6D3D67"/>
<path d="M156.197 36.0365C156.197 35.7835 156.302 35.581 156.459 35.3786C156.668 35.2267 156.877 35.1255 157.138 35.1255C157.4 35.1255 157.661 35.2267 157.818 35.3786C158.027 35.5304 158.079 35.7328 158.079 36.0365C158.079 36.2896 157.975 36.492 157.818 36.6439C157.661 36.7957 157.4 36.8969 157.138 36.8969C156.877 36.8969 156.615 36.7957 156.459 36.6439C156.302 36.492 156.197 36.2896 156.197 36.0365Z" fill="#6D3D67"/>
<path d="M163.83 32.1897C163.62 32.1391 163.411 32.1391 163.202 32.1391C162.575 32.1391 162.157 32.3416 161.948 32.7971V36.8461H160.223V30.6208H161.843L161.895 31.3799C162.261 30.8232 162.732 30.5195 163.307 30.5195C163.516 30.5195 163.673 30.5195 163.83 30.5701V32.1897Z" fill="#6D3D67"/>
<path d="M169.058 36.188C168.64 36.6941 168.065 36.9472 167.333 36.9472C166.653 36.9472 166.13 36.7447 165.764 36.3905C165.399 35.9856 165.242 35.4288 165.189 34.7202V30.6712H166.915V34.6696C166.915 35.3276 167.228 35.6313 167.803 35.6313C168.378 35.6313 168.796 35.4288 169.006 35.0239V30.6206H170.731V36.7954H169.11L169.058 36.188Z" fill="#6D3D67"/>
<path d="M129.225 56.1294C129.225 60.0266 132.466 63.1646 136.491 63.1646C140.516 63.1646 143.757 60.0266 143.757 56.1294C143.757 52.2322 140.516 49.0942 136.491 49.0942C132.466 49.0942 129.225 52.2828 129.225 56.1294Z" fill="#6D3D67"/>
<path d="M148.618 62.7596C145.795 67.5678 140.359 70.1996 134.661 69.5417C128.388 68.7825 123.317 63.7718 122.638 57.6983C122.585 57.2428 122.533 56.7367 122.533 56.2811V56.1799C122.533 52.8395 123.735 49.6509 126.088 47.1203C128.754 44.2859 132.518 42.6157 136.491 42.6157C141.457 42.6157 146.057 45.197 148.566 49.3472C149.925 51.5742 152.382 52.9913 154.996 52.9913H159.178L159.073 52.2827C157.557 43.881 151.337 37.352 143.286 34.9732L147.573 31.6834C149.298 30.3675 150.396 28.4442 150.657 26.3184C150.918 24.1927 150.291 22.067 148.88 20.3968L148.514 19.9412L132.988 31.8858L136.909 23.8384C138.843 19.84 137.066 15.0318 132.936 13.1085L132.413 12.8555L122.585 32.9993V22.4213C122.585 17.9673 118.874 14.3738 114.274 14.3738H113.646V56.1293V61.6461V78.2471H136.491C147.625 78.2471 157.087 70.5539 159.021 59.9253L159.125 59.2167H154.943C152.33 59.2673 149.873 60.6338 148.618 62.7596Z" fill="#6D3D67"/>
</svg>
