<svg width="180" height="180" viewBox="0 0 180 180" fill="none" xmlns="http://www.w3.org/2000/svg">
    <path d="M134.76 62.1364C136.527 60.1596 137.777 57.7754 138.398 55.1971C138.707 53.9373 138.657 52.6574 138.867 51.3975C139.077 50.1377 139.177 48.8478 139.457 47.3979H139.647C140.411 48.6344 140.829 50.0539 140.856 51.5075C140.845 52.954 140.529 54.3819 139.927 55.6971C139.414 57.0225 138.721 58.2708 137.868 59.4067C137.007 60.507 135.998 61.4828 134.87 62.3064L134.76 62.1364Z" fill="#6F3E68"/>
    <path d="M72.2788 121.42C77.1771 122.485 82.001 123.868 86.7199 125.56C90.8874 127.05 95.1547 128.269 99.3522 129.689C103.12 130.969 104.969 131.689 107.347 130.979C109.966 130.249 112.794 127.979 113.284 125.04C113.613 122.96 112.754 120.81 110.445 118.041C105.678 112.391 100.212 110.691 88.0191 105.642C76.0265 100.642 75.9166 100.092 70.7497 98.6426C64.4236 96.9927 59.5666 95.6029 53.2105 96.3628C49.0631 96.8528 45.0755 98.1126 37.4802 101.522C29.8848 104.932 29.2253 105.452 25.8573 106.652C25.0378 106.942 23.139 107.052 22.0197 108.502L21.5 146.497C22.7392 147.197 25.1178 144.308 28.4957 141.848C33.8424 137.918 39.2391 136.849 42.9368 136.159C49.1067 135.074 55.4381 135.34 61.4954 136.938C62.6247 137.228 67.1619 139.208 76.1864 143.138C83.4719 146.318 87.0497 147.877 92.4264 149.077C98.2029 150.377 101.081 150.147 103.51 149.337C106.182 148.373 108.582 146.778 110.505 144.688C110.695 144.508 116.132 139.918 127.005 130.739C134.291 124.58 137.938 121.5 142.995 118.33C146.393 116.201 150.691 113.791 154.848 108.771C158.416 104.472 158.616 102.182 158.466 100.772C158.239 99.2016 157.592 97.7215 156.593 96.4892C155.593 95.2569 154.279 94.3183 152.789 93.7731C149.791 92.6832 147.023 93.7731 145.054 94.553C142.546 95.5529 141.416 96.7028 138.868 98.6826C136.799 100.292 134.051 101.992 128.554 105.402C123.058 108.811 121.908 109.181 117.991 111.861C115.262 113.721 112.304 116.101 110.995 117.181" stroke="#6E3E67" stroke-width="4" stroke-miterlimit="10"/>
    <path d="M108.678 100.042L103.151 95.0429C83.5431 77.1748 70.591 65.4261 70.591 50.9976C70.5616 48.232 71.0843 45.4883 72.1286 42.9274C73.1729 40.3665 74.7177 38.04 76.6724 36.0843C78.6272 34.1286 80.9525 32.583 83.512 31.5382C86.0716 30.4934 88.8139 29.9704 91.5781 29.9998C94.8407 30.0283 98.0592 30.7572 101.016 32.1372C103.973 33.5171 106.599 35.5161 108.718 37.999C110.833 35.5154 113.457 33.5158 116.413 32.1356C119.368 30.7555 122.586 30.0271 125.847 29.9998C128.612 29.969 131.355 30.4911 133.915 31.5354C136.475 32.5798 138.801 34.1253 140.756 36.0813C142.711 38.0373 144.256 40.3643 145.299 42.9258C146.343 45.4873 146.865 48.2316 146.834 50.9976C146.834 65.4261 133.842 77.1748 114.274 95.0429L108.678 100.042Z" stroke="#6F3E67" stroke-width="4" stroke-miterlimit="10"/>
    <path d="M78.5647 54.807C77.3268 53.0272 76.6737 50.9059 76.6959 48.7377C76.6919 46.4837 77.3524 44.2786 78.5947 42.3983C79.2117 41.4519 79.9623 40.5998 80.8233 39.8686C81.6797 39.1587 82.6319 38.573 83.6516 38.1288C85.6296 37.2458 87.8317 36.9944 89.9577 37.4089C88.1358 38.1299 86.4049 39.0629 84.8009 40.1886C84.0908 40.7271 83.4226 41.3187 82.8021 41.9584C82.5123 42.3083 82.1825 42.5983 81.9326 42.9583L81.5129 43.4782L81.1531 44.0282C80.6568 44.7662 80.2382 45.5537 79.9039 46.3779C79.5276 47.22 79.2364 48.0976 79.0344 48.9976C78.6309 50.9061 78.4731 52.8584 78.5647 54.807V54.807Z" fill="#703E67"/>
    <path d="M97.4023 80.2744C98.3693 80.7564 99.2865 81.3326 100.141 81.9944C100.923 82.5808 101.674 83.2084 102.389 83.8744C103.09 84.5339 103.757 85.2281 104.388 85.9544C105.109 86.7568 105.745 87.6314 106.287 88.5644C105.155 88.5923 104.033 88.356 103.009 87.8744C102.016 87.4273 101.105 86.8191 100.311 86.0744C99.512 85.3333 98.8372 84.469 98.3118 83.5144C97.7602 82.5202 97.4488 81.4106 97.4023 80.2744V80.2744Z" fill="#6F3E68"/>
</svg>
