<svg width="309" height="120" viewBox="0 0 309 120" fill="none" xmlns="http://www.w3.org/2000/svg">
<g filter="url(#filter0_d_70_3278)">
<path d="M10.8991 81.1221C10.581 81.0199 10.3439 80.9159 10.188 80.8099C10.0582 80.699 9.97329 80.5387 9.93327 80.3292C9.88325 80.0672 9.91799 79.6805 10.0375 79.169C10.1782 78.6263 10.4235 77.7786 10.7735 76.6258C10.8656 76.2553 11.0518 75.5953 11.332 74.6459C12.296 71.4483 12.753 69.7186 12.7029 69.4566C12.6667 69.4092 12.6386 69.3332 12.6186 69.2284C12.5686 68.9665 12.7331 68.6907 13.1122 68.4011C13.5996 67.6836 13.9747 66.9468 14.2376 66.1908C14.3895 65.5645 14.613 64.816 14.9082 63.9451C15.1984 63.0481 15.5659 61.987 16.0107 60.7618C16.2199 60.1517 16.5389 59.2628 16.9674 58.095C17.6064 56.1812 18.4904 54.0576 19.6195 51.7244C20.0669 50.7974 20.4895 50.3095 20.8874 50.2606C21.3851 50.1656 21.9802 50.2963 22.6726 50.6527C23.3863 50.9779 23.916 51.4062 24.2618 51.9374C24.4016 52.1007 24.529 52.4836 24.6441 53.0861C24.7992 53.8981 24.9701 55.2907 25.1569 57.2641C25.1696 57.6146 25.2197 58.1615 25.3074 58.905C25.4539 60.0987 25.5761 61.3784 25.6741 62.7443C25.9462 65.733 26.1744 68.0649 26.3585 69.7401C26.5427 71.4153 26.7723 72.9732 27.0475 74.4138C27.1875 75.1473 27.3032 75.6817 27.3944 76.0172L27.4469 76.2923L27.5802 77.2034C27.453 77.3906 27.2323 77.5142 26.918 77.5742C26.5513 77.6443 26.1802 77.6201 25.8046 77.5018C25.4341 77.4097 25.2001 77.2507 25.1027 77.025C25.0715 77.0038 25.0273 76.9851 24.9699 76.9689C24.9125 76.9527 24.8638 76.8399 24.8238 76.6303L24.698 75.7584L24.3957 73.5357L23.3766 67.1332L22.8733 67.27C22.3494 67.3701 21.2039 67.6974 19.4365 68.2521C17.6692 68.8068 16.5754 69.1922 16.1551 69.4082C15.9194 69.4532 15.6613 69.6654 15.3808 70.0447C15.1003 70.4241 14.8766 70.8876 14.7097 71.4353C14.6812 71.7122 14.5704 72.1271 14.3773 72.6798C14.1792 73.2063 14.0876 73.5088 14.1026 73.5874C13.9655 73.7222 13.8489 73.8938 13.753 74.1021C13.6782 74.2793 13.6328 74.3966 13.6166 74.454C13.6716 74.7421 13.5366 75.528 13.2117 76.8118C12.9129 78.0905 12.5766 79.1728 12.2028 80.0586L11.6178 81.4735L10.8991 81.1221ZM16.6161 66.9175C16.7683 66.8613 17.0988 66.7439 17.6076 66.5653C18.1115 66.3604 18.5705 66.2049 18.9846 66.0987C20.7854 65.2933 21.8954 64.8505 22.3145 64.7705C22.4979 64.7355 22.6756 64.7422 22.8478 64.7908C22.9464 64.8806 23.04 64.9441 23.1286 64.9815C23.2383 64.9877 23.3063 64.9883 23.3325 64.9833C23.3549 64.8161 23.2419 63.3717 22.9936 60.6499C22.7665 57.897 22.5811 56.0728 22.4372 55.1772L22.1799 53.1902C22.0227 53.2202 21.7397 53.5864 21.3309 54.2889C20.9221 54.9914 20.4828 55.8898 20.0131 56.984C19.5645 58.047 19.1864 59.1237 18.8788 60.2141C18.7069 60.7356 18.53 61.2309 18.3481 61.7C18.1874 62.1379 18.0547 62.3669 17.9499 62.3869C17.8016 62.6053 17.5045 63.395 17.0585 64.7562C16.6126 66.1173 16.4651 66.8377 16.6161 66.9175ZM41.1779 73.9551C40.4233 74.1264 39.817 74.0792 39.3591 73.8138C38.9223 73.5171 38.6832 73.0469 38.6417 72.4033C38.8325 72.1225 39.0588 71.9571 39.3207 71.9071C39.4779 71.8771 39.6818 71.8789 39.9326 71.9124C40.2407 71.9622 40.5519 71.957 40.8663 71.897C41.1806 71.837 41.4456 71.7321 41.6613 71.5823C41.7561 71.5099 41.9083 71.4537 42.1178 71.4137C42.3486 71.3425 42.5138 71.2837 42.6136 71.2375C43.2708 70.8406 43.9735 70.3263 44.7216 69.6947C45.4959 69.0582 46.0663 68.4199 46.4328 67.7798C46.4751 67.7174 46.5237 67.5452 46.5785 67.2633C46.6282 66.9551 46.63 66.7512 46.5838 66.6514C46.348 66.6964 45.9626 66.8107 45.4276 66.9944C44.9187 67.173 44.5015 67.3341 44.176 67.4777C44.0763 67.5239 43.9347 67.5645 43.7514 67.5995C43.3585 67.6746 43.0241 67.6298 42.7484 67.4653C42.4726 67.3008 42.2005 67.0134 41.9321 66.6031C41.8959 66.5557 41.8703 66.4927 41.8553 66.4142C41.8303 66.2832 41.8683 66.1266 41.9693 65.9444C42.0652 65.7361 42.1375 65.5458 42.186 65.3737C42.312 65.3224 42.4798 65.2768 42.6893 65.2368C42.925 65.1918 43.1028 65.1986 43.2226 65.2571C43.3374 65.2895 43.4078 65.3032 43.434 65.2982C43.5126 65.2832 43.5993 65.2395 43.6941 65.1671C43.81 65.0635 43.9254 65.0279 44.0402 65.0603C44.1549 65.0927 44.2541 65.1144 44.3377 65.1256C44.4163 65.1106 44.5971 65.0625 44.8803 64.9813C45.1846 64.8689 45.6722 64.7215 46.3433 64.539C46.6838 64.474 46.8708 64.3161 46.9044 64.0654C46.9541 63.7572 46.939 63.3936 46.8589 62.9745C46.8289 62.8174 46.7177 62.3771 46.5253 61.6537C46.3193 61.2858 46.1383 61.0488 45.9823 60.9429C45.8475 60.8057 45.6316 60.6705 45.3347 60.5372C45.1463 60.546 44.895 60.5804 44.5807 60.6404C43.5067 60.8455 42.8445 61.2163 42.5941 61.7528C42.1664 62.2146 41.7038 62.493 41.2061 62.588C40.8918 62.648 40.704 62.5889 40.6428 62.4105C40.6328 62.3581 40.5585 62.1823 40.4199 61.883C40.3075 61.5787 40.2288 61.3086 40.1837 61.0729C40.1287 60.7848 40.1667 60.6282 40.2977 60.6032C40.441 60.3586 40.5662 60.0904 40.6734 59.7984C40.8067 59.5015 40.955 59.2831 41.1184 59.1433C41.3029 58.9723 41.576 58.8387 41.9377 58.7425C42.5676 58.4865 43.092 58.3185 43.5111 58.2384C44.1398 58.1184 44.8065 58.1268 45.5114 58.2637C45.8145 58.2872 46.2106 58.4423 46.6997 58.729C47.1839 58.9895 47.5058 59.2538 47.6656 59.5219C48.1497 59.7824 48.6965 60.6553 49.306 62.1407C49.398 64.1864 49.2816 65.8511 48.9566 67.1349C48.7935 67.8447 48.6241 68.3793 48.4484 68.7387C48.2727 69.098 48.0047 69.5428 47.6445 70.0732L45.9519 71.6588C45.2611 72.3066 44.7842 72.7234 44.5211 72.9094C44.2579 73.0954 43.8644 73.2384 43.3406 73.3385C43.0039 73.5657 42.5998 73.7243 42.1283 73.8143C41.6518 73.8782 41.335 73.9251 41.1779 73.9551ZM70.5744 64.839C70.6941 64.8976 70.769 65.0055 70.799 65.1626C70.8341 65.346 70.8036 65.5418 70.7076 65.7502C70.6329 65.9274 70.5431 66.026 70.4383 66.046C69.9407 66.141 69.4311 66.1026 68.9096 65.9307C68.4093 65.7276 68.1016 65.3248 67.9865 64.7224L67.5213 62.2864C67.2862 61.0553 67.062 60.3787 66.8486 60.2566C66.4157 60.122 65.8172 60.6843 65.0532 61.9433C64.3153 63.1973 63.6411 64.6428 63.0307 66.2797C62.8326 66.8062 62.6669 67.2179 62.5336 67.5148C62.4002 67.8118 62.2812 67.9703 62.1764 67.9903C62.0978 68.0053 61.9543 67.9648 61.746 67.8689C60.889 67.7882 60.3954 67.4073 60.2654 66.7263C60.2504 66.6477 60.2441 66.4725 60.2464 66.2005C60.3433 65.2861 60.4226 64.2801 60.4845 63.1823C60.5413 62.0583 60.5783 61.1147 60.5954 60.3512C60.4868 60.2091 60.3408 60.1555 60.1575 60.1905C59.8955 60.2406 59.6193 60.429 59.3288 60.756C58.759 61.3263 58.1234 62.5472 57.422 64.4187C56.5137 66.6283 55.8508 67.9902 55.4331 68.5043C55.3098 68.8536 55.1871 69.135 55.0649 69.3484C54.964 69.5305 54.848 69.6341 54.717 69.6591C54.6123 69.6791 54.4008 69.6381 54.0827 69.5359C53.238 69.2357 52.7382 68.6796 52.5831 67.8676C52.5081 67.4747 52.4759 66.6664 52.4865 65.4427C52.4972 64.219 52.549 63.0688 52.642 61.9923C52.7927 61.502 52.9147 61.0036 53.0081 60.4971C53.1226 59.9594 53.1698 59.6381 53.1498 59.5334C53.1495 58.9633 53.168 58.3489 53.2051 57.6903C53.2422 57.0316 53.2925 56.6555 53.3561 56.5619C53.5044 56.3436 53.6965 56.2119 53.9322 56.1669C54.3251 56.0918 54.6532 56.2463 54.9166 56.6304C55.2598 56.8635 55.4739 57.2027 55.5589 57.648C55.654 58.1457 55.6324 58.8149 55.4944 59.6557C55.2342 60.7099 55.0197 62.2169 54.851 64.1767C55.286 63.4692 55.5889 62.9227 55.7596 62.5371C56.2182 61.5265 56.8401 60.3761 57.6253 59.0859C58.2672 58.0403 59.099 57.4199 60.1205 57.2248C61.3654 57.2043 62.2521 58.0801 62.7806 59.8525C62.8406 60.1668 62.8895 60.5647 62.9271 61.0462C62.9598 61.5015 62.9755 61.7971 62.9743 61.9331C63.0491 61.7559 63.246 61.3654 63.5651 60.7615C63.9103 60.1526 64.3447 59.5131 64.8683 58.8429C65.3595 58.2876 65.854 57.9624 66.3516 57.8674C66.7707 57.7873 67.17 57.8876 67.5493 58.1681C68.1594 58.3773 68.6373 58.7476 68.9831 59.2788C69.3239 59.7839 69.5768 60.4686 69.7419 61.3329C69.8269 61.7782 69.8814 62.1343 69.9052 62.4013C69.9529 62.9351 69.9892 63.2676 70.0142 63.3985C70.1092 63.8962 70.296 64.3764 70.5744 64.839ZM76.5492 66.63C76.2349 66.6901 75.976 66.6852 75.7727 66.6155C75.5693 66.5457 75.2699 66.3993 74.8743 66.1762C73.8349 65.4245 73.2426 64.6688 73.0975 63.9092C73.0625 63.7259 73.0506 63.5924 73.0618 63.5088C73.1054 63.3105 73.0965 63.1221 73.0353 62.9437C73.0003 62.7604 72.9778 62.6425 72.9678 62.5901C72.843 62.5054 72.7781 62.4499 72.7731 62.4237C72.7631 62.3713 72.7818 62.327 72.8292 62.2908C72.8716 62.2284 72.9009 62.1685 72.9171 62.1112C73.0742 62.0811 73.0991 61.9271 72.9917 61.649C72.8993 61.4494 72.9165 60.971 73.0434 60.2138C73.1653 59.4303 73.3651 58.6999 73.643 58.0224C73.8411 57.4959 74.1476 56.8265 74.5626 56.0143C75.0038 55.197 75.412 54.5625 75.7873 54.1107C76.3109 53.4406 76.7965 52.9271 77.2441 52.5701C77.6918 52.2131 78.2043 51.9116 78.7818 51.6656C79.2806 51.4346 79.6217 51.3016 79.8051 51.2666C79.9884 51.2316 80.1556 51.2539 80.3066 51.3337C80.4787 51.3823 80.7052 51.5019 80.986 51.6926C81.7532 51.8719 82.3153 52.1854 82.6723 52.633C83.0505 53.0495 83.3371 53.7685 83.5322 54.79C83.8573 56.4926 83.5158 58.4717 82.5078 60.7276C82.0704 61.707 81.6348 62.4825 81.201 63.054C80.7621 63.5993 80.1605 64.2164 79.3962 64.9054C78.9212 65.4033 78.4654 65.789 78.029 66.0624C77.6137 66.3046 77.1204 66.4938 76.5492 66.63ZM79.5257 61.745C80.0193 60.9177 80.3894 60.1548 80.636 59.4561C80.9089 58.7524 81.123 57.8835 81.2785 56.8493C81.3244 56.379 81.2873 55.8295 81.1673 55.2009C81.0172 54.4151 80.8274 53.9898 80.5978 53.9251C80.3109 53.8441 80.0365 53.8287 79.7745 53.8787C79.1983 53.9887 78.6458 54.3657 78.1172 55.0096C77.4827 55.8095 76.9567 56.7516 76.5394 57.8358C76.117 58.8938 75.7266 60.19 75.368 61.7245C75.2112 62.3246 75.1827 62.8866 75.2828 63.4105C75.3578 63.8034 75.5095 64.1002 75.7379 64.3009C75.9924 64.4966 76.29 64.562 76.6305 64.4969C77.4949 64.3319 78.4599 63.4145 79.5257 61.745ZM99.0466 55.6959C98.5227 55.7959 98.0518 55.818 97.6339 55.762C97.2672 55.8321 96.9977 55.8428 96.8256 55.7942C96.6796 55.7406 96.5342 55.6191 96.3894 55.4296C96.1873 55.2238 96.0737 55.0555 96.0486 54.9245C96.0186 54.7674 96.1402 54.622 96.4133 54.4884C96.6814 54.3286 97.1747 54.1394 97.8931 53.9207C98.7698 53.5361 99.5674 53.2345 100.286 53.0158C101.03 52.7922 101.927 52.5803 102.974 52.3802C103.655 52.2502 104.121 52.2019 104.372 52.2355C104.618 52.2428 104.91 52.35 105.248 52.5569C105.622 52.8112 105.837 53.0824 105.892 53.3705C105.937 53.6063 105.865 53.7965 105.675 53.9413C105.512 54.0811 105.255 54.1573 104.904 54.17L102.467 54.8391C102.309 54.8691 101.885 54.991 101.192 55.2046C100.521 55.387 99.8062 55.5508 99.0466 55.6959ZM128.693 42.8263C128.951 42.6141 129.224 42.4805 129.512 42.4254C129.879 42.3554 130.216 42.4133 130.523 42.599C130.851 42.7535 131.048 43.001 131.113 43.3415C131.123 43.3939 131.122 43.5299 131.109 43.7494C131.123 43.3939 130.955 44.0096 130.607 45.5965C130.258 47.1833 130.068 48.0342 130.035 48.149L130.058 48.2668C130.425 48.1968 130.683 48.2696 130.833 48.4854C131.004 48.6699 131.111 48.948 131.155 49.3197C130.929 49.4171 130.724 49.5513 130.539 49.7223C130.355 49.8933 130.197 49.9913 130.066 50.0163C129.988 50.0313 129.903 50.0881 129.814 50.1867C129.724 50.2853 129.676 50.3895 129.67 50.4993C129.637 50.614 129.623 51.0375 129.627 51.7698L129.46 54.7337C129.443 54.9271 129.381 55.1017 129.275 55.2577C129.169 55.4137 129.067 55.5148 128.967 55.561C128.857 55.5548 128.635 55.5293 128.301 55.4846C127.987 55.4086 127.773 55.3545 127.659 55.3221C127.539 55.2635 127.419 55.205 127.299 55.1464L127.254 54.9106C127.184 54.5439 127.177 54.1516 127.233 53.7337C127.323 53.0651 127.365 52.1476 127.359 50.9812C127.135 50.9427 126.618 51.082 125.81 51.3992C124.997 51.6903 124.551 51.8433 124.472 51.8583C124.33 51.9669 124.023 52.0662 123.552 52.1563C122.792 52.3013 122.243 52.3384 121.904 52.2674L121.69 52.4303C121.683 52.6761 121.654 52.953 121.605 53.2611C121.472 54.1282 121.443 54.7581 121.518 55.151C121.535 55.5277 121.54 55.839 121.533 56.0847C121.531 56.3566 121.553 56.7595 121.601 57.2934C121.715 58.0318 121.536 58.4461 121.065 58.5361C120.776 58.5911 120.442 58.5464 120.062 58.4019C119.858 58.3321 119.569 58.1701 119.195 57.9158L119.246 54.7704C119.279 54.5197 119.296 54.1772 119.294 53.7431C119.319 53.304 119.359 52.9435 119.413 52.6616L119.613 51.361C119.752 50.3842 119.898 49.5827 120.05 48.9564C120.05 48.9564 120.177 48.1312 120.432 46.4808C120.476 46.2824 120.551 45.7522 120.658 44.8902C120.786 43.997 120.863 43.4799 120.891 43.3389C120.94 43.0308 121.123 42.8467 121.437 42.7867C121.851 42.6805 122.225 42.7177 122.558 42.8984C122.912 43.0479 123.132 43.2774 123.219 43.5867C123.234 43.6653 123.245 43.7987 123.254 43.9871C123.258 44.1492 123.254 44.2721 123.243 44.3557L122.153 49.7357L122.213 50.05C122.333 50.1086 122.524 50.1129 122.786 50.0628C122.995 50.0228 123.302 49.9235 123.706 49.7649C124.136 49.6013 124.404 49.5095 124.509 49.4895C124.739 49.4182 125.088 49.3245 125.555 49.2083C126.021 49.092 126.49 48.9889 126.961 48.8989C127.328 48.8288 127.527 48.8044 127.558 48.8256L127.75 47.4858C127.924 46.1223 128.172 45.0026 128.493 44.1268C128.505 44.0432 128.53 43.8891 128.568 43.6646C128.602 43.4138 128.643 43.1344 128.693 42.8263ZM135.845 54.451C135.736 54.3089 135.575 54.1767 135.362 54.0546C135.17 53.9013 135.069 53.7984 135.059 53.746C135.004 53.4579 134.896 53.2477 134.735 53.1156C134.672 53.0732 134.624 52.9603 134.589 52.777C134.509 52.3579 134.57 51.6132 134.773 50.5428C134.997 49.4412 135.324 48.2385 135.753 46.9348C135.881 46.7476 136.025 46.4351 136.185 45.9971C136.372 45.5542 136.5 45.2991 136.568 45.2317C136.548 45.1269 136.57 45.0277 136.634 44.9341C136.692 44.8144 136.774 44.7445 136.879 44.7245L136.834 44.4887C136.789 44.253 137.113 43.6073 137.808 42.5516C138.497 41.4698 139.084 40.7061 139.569 40.2605C140.139 39.6902 140.764 39.34 141.445 39.2099C141.917 39.1199 142.348 39.1733 142.738 39.3702C142.899 39.5024 143.609 39.9505 144.868 40.7146L146.57 41.7335L146.238 43.8331C146.137 44.5853 146.142 45.2496 146.252 45.8258C146.442 46.8211 146.913 47.7222 147.664 48.5289C147.85 48.792 148.164 49.017 148.607 49.2039C149.05 49.3908 149.473 49.473 149.876 49.4503C150.472 49.445 150.815 49.6781 150.905 50.1496C151.006 50.6735 150.83 51.0328 150.378 51.2276C150.279 51.2738 150.124 51.3169 149.914 51.357C148.369 51.6521 146.826 50.8202 145.284 48.8612C145.149 48.7241 144.95 48.4635 144.687 48.0794C144.45 47.6903 144.303 47.4197 144.247 47.2675C144.13 47.5071 143.981 47.7934 143.8 48.1266C143.619 48.4597 143.444 48.7511 143.274 49.0006C140.965 52.401 138.985 54.2587 137.334 54.5738C136.811 54.6739 136.314 54.6329 135.845 54.451ZM136.839 51.9807C136.864 52.1116 137.003 52.1259 137.255 52.0235C137.533 51.9161 137.848 51.7201 138.201 51.4355C138.58 51.146 138.947 50.7909 139.301 50.3703C141.183 48.0018 142.485 46.0022 143.205 44.3715L143.799 42.792C143.432 42.292 143.082 41.9516 142.749 41.7709C142.411 41.564 142.124 41.483 141.888 41.5281C141.338 41.6331 140.606 42.4923 139.693 44.1056C138.774 45.6928 138.008 47.5088 137.394 49.5536C137.243 50.0439 137.121 50.5423 137.028 51.0488C136.929 51.5291 136.867 51.8397 136.839 51.9807ZM155.249 51.0305C154.747 50.9634 154.283 50.8077 153.856 50.5634C153.425 50.2929 153.127 49.9426 152.963 49.5123C152.912 49.3863 152.83 49.2392 152.716 49.0708C152.624 48.8713 152.578 48.7035 152.579 48.5675C152.68 47.2452 152.81 46.0801 152.971 45.0721C153.126 44.0379 153.357 43.0436 153.663 42.0892L153.746 41.6663C153.837 40.7257 154.047 39.7626 154.375 38.777C154.428 38.631 154.494 38.3335 154.571 37.8844C154.603 37.7696 154.639 37.5999 154.677 37.3754C154.711 37.1246 154.749 36.968 154.791 36.9057C154.934 36.6611 155.098 36.5213 155.281 36.4863C155.622 36.4213 155.999 36.6207 156.413 37.0845C156.849 37.5171 157.159 37.933 157.344 38.3321C156.806 39.4937 156.307 41.1499 155.849 43.3006C155.386 45.4252 155.104 47.2166 155.003 48.6749C155.221 48.8232 155.566 48.8524 156.037 48.7624C156.43 48.6873 156.774 48.5674 157.068 48.4026C157.33 48.3526 157.739 48.2202 158.295 48.0053C159.03 47.7293 159.622 47.5619 160.073 47.503C160.105 47.3883 160.101 47.2261 160.061 47.0165L160.009 46.7415C159.964 46.5058 159.97 46.328 160.029 46.2082C160.27 45.6193 160.431 44.8284 160.513 43.8354C160.582 43.062 160.699 41.9673 160.863 40.5514C161.027 39.1355 161.159 38.3365 161.26 38.1543C161.371 38.0246 161.574 37.8773 161.868 37.7125C162.181 37.7884 162.385 37.8582 162.478 37.9217C162.598 37.9803 162.712 38.0807 162.821 38.2228C162.929 38.365 163.082 38.5258 163.279 38.7054L163.476 39.5229C163.516 39.7325 163.531 39.879 163.519 39.9626C163.43 40.0612 163.301 40.6694 163.135 41.7872C162.989 42.8737 162.924 43.5243 162.937 43.7388C162.788 44.0932 162.695 44.5317 162.659 45.0544C162.56 45.6706 162.456 46.1247 162.349 46.4167L162.338 46.7853L163.369 46.4256C164.094 46.0971 164.707 45.8985 165.21 45.8297C165.701 45.2743 165.894 44.7216 165.789 44.1716C165.885 43.9632 166.052 43.1305 166.29 41.6734C166.553 40.2113 166.67 39.4017 166.64 39.2445C166.837 38.854 166.943 38.413 166.958 37.9215C166.994 37.3988 167.012 37.0695 167.013 36.9335C167.424 36.6651 167.674 36.4816 167.763 36.383C168.421 36.5561 168.97 36.8721 169.41 37.3309L169.676 38.2981C169.397 39.1116 169.22 39.9599 169.144 40.8431C169.064 41.7001 168.911 42.7474 168.686 43.9849C168.487 45.2175 168.276 46.2486 168.055 47.0782C168.039 47.1356 168.025 47.2061 168.014 47.2897C168.002 47.3732 167.968 47.4749 167.909 47.5947C167.749 47.8967 167.607 48.0732 167.481 48.1244C167.281 48.2168 167.082 48.2413 166.884 48.1977C166.681 48.1279 166.49 48.0557 166.313 47.9809C166.162 47.9012 166.058 47.8532 166.001 47.837L165.961 47.8445C165.83 47.8695 165.575 48.0268 165.196 48.3164C165.06 48.3152 164.901 48.3321 164.717 48.3671C164.56 48.3971 164.395 48.4559 164.221 48.5433C164.069 48.5995 163.915 48.6426 163.757 48.6726C163.207 48.7776 162.041 49.1362 160.257 49.7483C160 49.8245 159.413 50.0181 158.495 50.3292C157.603 50.6352 156.869 50.8433 156.293 50.9533C155.848 51.0383 155.5 51.0641 155.249 51.0305ZM177.888 48.0101C176.762 48.2252 175.752 47.9837 174.859 47.2856C173.965 46.5874 173.398 45.6097 173.158 44.3525C172.918 43.0952 172.931 41.6675 173.196 40.0695C173.482 38.4402 173.955 36.9381 174.616 35.5631C175.276 34.1881 176.025 33.2036 176.861 32.6094C177.33 32.2212 177.892 31.9646 178.547 31.8396C179.044 31.7445 179.635 31.781 180.319 31.9491C180.799 32.0474 181.182 32.2051 181.468 32.422C181.754 32.6389 182.041 33.0049 182.329 33.5199C182.498 33.9764 182.6 34.2963 182.635 34.4796C182.665 34.6368 182.664 34.9898 182.633 35.5387C182.504 36.5679 182.242 37.473 181.849 38.2541C181.476 39.0039 180.929 39.6922 180.207 40.3187C179.838 40.6607 179.339 40.8917 178.71 41.0117C178.16 41.1168 177.619 41.1251 177.086 41.0368C176.575 40.9173 176.15 40.6861 175.813 40.3433L175.478 40.0815L175.421 40.4183C175.141 41.9378 175.096 43.1952 175.286 44.1905C175.416 44.8716 175.652 45.3966 175.994 45.7657C176.232 46.0188 176.705 46.0778 177.412 45.9428C177.936 45.8427 178.306 45.7178 178.522 45.568C178.889 45.362 179.2 45.1398 179.453 44.9014C179.727 44.6319 179.989 44.3648 180.237 44.1002L180.379 43.9916L180.34 43.9991C180.624 43.7819 180.858 43.5879 181.043 43.4169C181.227 43.2459 181.354 43.1267 181.422 43.0593C181.475 43.0493 181.525 43.0262 181.572 42.99C181.62 42.9538 181.662 42.8914 181.699 42.8028C181.915 42.653 182.198 42.6398 182.547 42.7631C182.896 42.8865 183.098 43.0922 183.153 43.3803C183.141 43.5999 182.97 43.9854 182.641 44.5369C182.312 45.0884 182.045 45.3973 181.841 45.4635C181.815 45.4685 181.731 45.5253 181.588 45.6339C181.446 45.7425 181.354 45.828 181.312 45.8904L181.351 45.8829C181.175 46.2422 180.969 46.4444 180.734 46.4894L180.419 46.5494C180.355 46.779 180.041 47.0561 179.479 47.3807C178.942 47.7003 178.412 47.9101 177.888 48.0101ZM178.006 39.0287C178.792 38.8786 179.427 38.2958 179.912 37.2801C180.38 36.3219 180.534 35.4237 180.374 34.5855C180.289 34.1402 180.138 33.8434 179.919 33.6951C179.747 33.6465 179.596 33.6347 179.465 33.6597C179.334 33.6847 179.118 33.7666 178.819 33.9052C178.494 34.0488 178.04 34.5155 177.458 35.3054C176.87 36.0691 176.454 36.7323 176.209 37.295L175.855 38.2176C176.05 38.099 176.239 38.0222 176.422 37.9872C176.627 37.921 176.747 37.9116 176.783 37.959C176.853 38.3257 177.003 38.6094 177.231 38.8101C177.459 39.0109 177.718 39.0837 178.006 39.0287Z" fill="#3D3D3D"/>
<path d="M95.8832 94.7041C95.6948 94.7129 95.5095 94.6668 95.3274 94.5659C95.1714 94.4599 94.9842 94.3328 94.7658 94.1845C94.5737 94.0311 94.4021 93.9146 94.2511 93.8348C94.1449 93.4207 94.1439 92.6336 94.2481 91.4734C94.3473 90.2871 94.4673 89.4226 94.608 88.8799C94.5915 88.3672 94.6641 87.5389 94.8257 86.3949C94.9488 85.4755 95.0134 84.961 95.0196 84.8512C95.0614 83.6487 95.1277 82.6451 95.2184 81.8404C95.2519 81.5897 95.2618 81.3571 95.248 81.1425C95.2603 80.923 95.2852 80.7689 95.3226 80.6803C95.3862 80.5867 95.547 80.4338 95.8051 80.2216C96.1706 80.2876 96.4713 80.298 96.707 80.253C96.9166 80.213 97.1136 80.1075 97.2981 79.9365C97.3717 79.8953 97.4765 79.8753 97.6125 79.8765C97.7696 79.8465 97.9399 79.814 98.1232 79.779L99.0269 79.6064C99.6555 79.4863 100.059 79.3957 100.237 79.3345C100.494 79.2583 100.869 79.2275 101.36 79.2423C101.852 79.257 102.215 79.2419 102.451 79.1968C103.438 79.3885 104.191 79.6382 104.712 79.9461C105.253 80.2227 105.576 80.7041 105.68 81.3901C105.703 81.6571 105.75 82.0419 105.819 82.5445C105.887 83.0472 105.863 83.4863 105.744 83.8618C105.748 84.024 105.669 84.6771 105.508 85.821C105.228 87.3405 105.109 88.3541 105.152 88.8618C105.146 88.9715 105.11 89.1412 105.045 89.3708C104.981 89.6003 104.963 89.7937 104.993 89.9508C105.048 90.239 105.063 90.6026 105.039 91.0417C105.035 91.4496 104.972 91.7602 104.85 91.9736C104.681 92.2231 104.465 92.3729 104.203 92.423C103.836 92.493 103.484 92.4245 103.146 92.2176C102.803 91.9845 102.612 91.6952 102.573 91.3497C102.453 90.7211 102.355 89.9253 102.28 88.9623C102.449 88.7127 102.514 88.4832 102.474 88.2736C102.455 88.0329 102.441 87.8863 102.431 87.8339C102.611 86.9307 102.748 85.8729 102.843 84.6603C102.932 83.4216 102.914 82.4748 102.789 81.82C102.739 81.5581 102.693 81.3903 102.652 81.3167C102.023 81.4368 101.167 81.6411 100.081 81.9298C98.9963 82.2185 98.3883 82.3753 98.2573 82.4003C98.1576 82.4465 98.0784 82.5295 98.0198 82.6493C97.9562 82.7429 97.932 82.829 97.947 82.9076C97.9634 83.4202 97.892 84.1126 97.7328 84.9846C97.7154 85.178 97.6788 85.4836 97.6228 85.9015C97.5619 86.2932 97.5327 86.6381 97.5354 86.9363C97.5342 87.0722 97.4528 87.7122 97.2912 88.8562C96.9777 90.6264 96.8529 91.7498 96.9167 92.2262C96.7772 92.633 96.77 93.1637 96.895 93.8186C96.9088 94.0331 96.8447 94.1947 96.7025 94.3033C96.5554 94.3857 96.2822 94.5193 95.8832 94.7041ZM111.649 99.7157C111.507 99.8243 111.37 99.8911 111.239 99.9161C110.873 99.9861 110.521 99.8497 110.184 99.5068C109.852 99.1901 109.636 98.7698 109.536 98.246C109.491 98.0102 109.48 97.7408 109.504 97.4377C109.51 97.3279 109.528 97.0665 109.558 96.6536C109.618 96.2619 109.637 95.9326 109.613 95.6657C109.611 95.3675 109.668 94.8136 109.785 94.004C109.901 93.1944 110.013 92.6436 110.121 92.3517C110.206 92.0909 110.259 91.7959 110.277 91.4665C110.291 91.111 110.275 90.8154 110.23 90.5797C110.303 89.9684 110.399 89.543 110.516 89.3034C110.589 88.6921 110.7 88.2093 110.85 87.855C110.861 87.7714 110.852 87.5831 110.824 87.2899C110.816 86.9656 110.873 86.7648 110.994 86.6874C111.002 86.3056 111.02 86.0443 111.047 85.9033C111.076 85.0563 111.221 83.9698 111.484 82.6436C111.616 81.9126 111.616 81.2065 111.486 80.5255C111.331 79.7135 111.045 79.2796 110.627 79.2236C110.319 79.1739 110.135 78.9918 110.075 78.6775C110.04 78.4942 110.06 78.3139 110.134 78.1367C110.209 77.9596 110.331 77.8142 110.499 77.7006C110.694 77.582 110.896 77.5027 111.105 77.4627C111.393 77.4076 111.663 77.3969 111.913 77.4305C112.19 77.459 112.321 77.502 112.305 77.5594C112.32 77.638 112.345 77.701 112.381 77.7483C112.413 77.7695 112.467 77.7726 112.546 77.7576C112.605 77.6378 112.844 77.823 113.263 78.313C113.677 78.7768 113.904 79.1135 113.945 79.3231C113.907 79.4117 113.891 79.4691 113.896 79.4952C113.927 79.5164 113.982 79.5195 114.061 79.5045C114.229 79.3909 114.537 79.1556 114.985 78.7987C115.453 78.4105 115.738 78.1253 115.839 77.9432C115.887 77.907 115.971 77.8502 116.092 77.7728C116.208 77.6692 116.298 77.5706 116.361 77.477C116.629 77.3172 116.947 77.2023 117.313 77.1323C117.732 77.0522 118.151 77.0402 118.569 77.0961C118.987 77.152 119.349 77.2729 119.656 77.4586C120.341 78.0608 120.744 78.6762 120.864 79.3048C120.969 79.8549 120.923 80.6102 120.727 81.5708C120.704 81.738 120.594 82.0848 120.396 82.6113C120.219 83.1066 120.093 83.4428 120.018 83.62C119.633 84.5894 119.121 85.461 118.482 86.2347C117.842 87.0084 117.077 87.7653 116.187 88.5055C115.934 88.7438 115.66 88.9454 115.366 89.1102C115.098 89.27 114.859 89.3699 114.649 89.41C114.544 89.43 114.435 89.4238 114.32 89.3914C113.992 89.2369 113.645 88.8416 113.279 88.2056C113.093 89.0826 113.002 89.6702 113.005 89.9683C113.02 90.0469 113.018 90.1829 113.001 90.3762C113.005 90.5384 112.962 90.6688 112.872 90.7674C112.877 90.7936 112.864 90.8641 112.831 90.9788C112.825 91.0886 112.774 91.2477 112.678 91.456C112.495 92.6312 112.376 93.3597 112.322 93.6417C112.116 94.984 112.012 95.8591 112.009 96.267C112.081 96.9318 112.067 97.6404 111.966 98.3926C111.871 99.1711 111.765 99.6121 111.649 99.7157ZM114.186 87.6251C114.397 87.4491 114.951 86.8682 115.849 85.8823C116.741 84.8702 117.289 84.182 117.491 83.8177C117.873 83.1202 118.106 82.492 118.189 81.9331C118.326 81.2283 118.417 80.7087 118.462 80.3744C118.51 80.2022 118.515 80.0113 118.475 79.8018C118.42 79.5137 118.299 79.306 118.111 79.1789C117.949 79.1827 117.613 79.3419 117.103 79.6565C116.614 79.9399 116.093 80.3381 115.539 80.851C115.007 81.3328 114.584 81.8887 114.27 82.5188C113.918 83.2375 113.669 83.991 113.52 84.7795C113.399 85.5629 113.388 86.2166 113.488 86.7404C113.613 87.3953 113.846 87.6902 114.186 87.6251ZM134.403 88.1624C133.659 87.68 133.018 86.8794 132.478 85.7608C132.396 85.6136 132.317 85.3436 132.242 84.9507C132.167 84.5578 132.115 84.2827 132.085 84.1256C132.002 84.5485 131.782 84.9571 131.423 85.3515C130.935 86.069 130.418 86.6293 129.871 87.0325C129.069 87.81 128.38 88.2538 127.804 88.3639C127.28 88.4639 126.727 88.2708 126.145 87.7846C125.75 87.5615 125.433 87.3234 125.195 87.0703C124.982 86.8122 124.836 86.4736 124.756 86.0545C124.701 85.7663 124.681 85.4445 124.694 85.089C124.561 84.1098 124.515 83.155 124.554 82.2244C124.62 81.2888 124.835 80.0668 125.198 78.5585C125.721 76.7483 126.113 75.5331 126.375 74.913C126.496 74.8356 126.661 74.7769 126.871 74.7369C127.133 74.6869 127.357 74.7255 127.545 74.8526C127.758 74.9748 127.903 75.1643 127.979 75.4212C128.077 75.511 128.144 75.6475 128.179 75.8309C128.304 76.4857 128.117 77.6347 127.616 79.2778C127.065 81.935 126.879 83.7351 127.059 84.6781C127.164 85.2282 127.384 85.5256 127.718 85.5703C127.864 85.6239 128.016 85.6357 128.173 85.6056C128.828 85.4806 129.528 84.8852 130.275 83.8196C131.022 82.7539 131.627 81.1588 132.09 79.0343C132.286 78.0737 132.334 77.1144 132.232 76.1564C132.191 76.0828 132.156 75.9675 132.125 75.8103C132.035 75.3388 132.199 74.914 132.615 74.5358C132.69 74.3587 132.811 74.2133 132.98 74.0997C133.143 73.9599 133.261 73.9374 133.333 74.0322L133.955 73.8728C134.028 73.8316 134.122 73.8952 134.235 74.0635C134.344 74.2057 134.442 74.2955 134.531 74.3328C134.744 74.455 134.891 74.7256 134.971 75.1447C135.136 76.0091 135.009 77.4044 134.59 79.3306C134.292 80.4733 134.107 81.3504 134.033 81.9616C133.981 82.5417 133.992 83.0962 134.066 83.625C134.256 84.6204 134.793 85.373 135.678 85.8827C135.975 86.0161 136.17 86.1825 136.262 86.382C136.354 86.5816 136.423 86.8672 136.466 87.2389C136.459 87.4847 136.339 87.7111 136.107 87.9183C135.897 88.0943 135.647 88.2098 135.359 88.2648C135.019 88.3298 134.7 88.2957 134.403 88.1624ZM140.251 85.8645C140.14 85.9943 139.967 86.0817 139.731 86.1267C139.365 86.1967 138.915 86.1876 138.382 86.0993L137.972 85.4446C137.85 85.0879 137.75 84.8491 137.672 84.7281C137.905 84.385 138.022 84.2134 138.022 84.2134L138.886 84.0483C138.96 84.0071 139.05 83.9085 139.156 83.7525C139.262 83.5966 139.38 83.5061 139.511 83.4811C140.318 82.7297 141.016 81.4832 141.607 79.7416C142.218 77.9687 142.806 75.9289 143.37 73.6221L143.581 72.8081L143.505 72.6192C143.357 72.7016 143.158 72.794 142.906 72.8964C142.68 72.9938 142.494 73.0837 142.347 73.1661L142.141 73.3683C141.987 73.5604 141.754 73.6865 141.439 73.7466C141.151 73.8016 140.864 73.7886 140.577 73.7077C140.316 73.6217 140.113 73.484 139.968 73.2945C139.73 73.0413 139.577 72.8805 139.51 72.8119C139.57 72.5562 139.697 72.301 139.893 72.0465C140.084 71.7657 140.292 71.5766 140.518 71.4792C141.767 70.9148 142.89 70.5375 143.885 70.3474C144.854 70.1624 145.83 70.1525 146.812 70.318C146.895 70.3292 147.005 70.3353 147.141 70.3365C147.277 70.3377 147.405 70.3676 147.524 70.4262C148.004 70.6604 148.352 70.8517 148.571 71.0001C148.971 71.2494 149.253 71.5892 149.417 72.0194C149.556 72.3188 149.657 72.6387 149.722 72.9792C149.752 73.1363 149.771 73.3771 149.779 73.7014C149.759 74.1667 149.648 75.5046 149.446 77.7151L149.336 78.632C149.153 80.3772 148.978 82.1618 148.811 83.9856C148.611 84.078 148.459 84.1342 148.354 84.1542C147.857 84.2492 147.366 84.0985 146.883 83.7021C146.719 83.4078 146.606 83.1034 146.546 82.7891C146.476 82.4224 146.498 82.0382 146.611 81.6365C146.66 81.4643 146.685 81.2423 146.688 80.9703C146.716 80.6934 146.733 80.5 146.74 80.3902C146.742 79.5482 146.823 78.9763 146.982 78.6743C147.014 78.5595 147.023 78.4629 147.008 78.3843C146.958 78.1223 147.014 77.1344 147.175 75.4203C147.297 74.0668 147.359 73.2541 147.361 72.9822C147.377 72.9248 147.375 72.8437 147.355 72.7389C147.335 72.6342 147.305 72.545 147.264 72.4714C147.217 72.3716 147.182 72.2563 147.157 72.1253C146.812 72.0282 146.47 72.0121 146.129 72.0771C145.789 72.1422 145.591 72.3157 145.537 72.5976L145.486 72.9737C145.44 73.444 145.315 73.9973 145.111 74.6336C144.781 75.8911 144.581 76.9066 144.512 77.6801C144.516 77.8422 144.483 78.025 144.413 78.2283C144.364 78.4005 144.334 78.5284 144.323 78.612C144.211 78.8777 144.141 79.1491 144.112 79.426C144.122 79.4784 144.119 79.5333 144.103 79.5907C144.082 79.6219 144.06 79.6531 144.039 79.6843C143.986 79.8302 143.766 80.3879 143.381 81.3574C142.889 82.6187 141.846 84.1211 140.251 85.8645ZM157.261 82.3311C156.883 82.4847 156.603 82.579 156.419 82.614C156.262 82.644 156.126 82.6428 156.011 82.6105C155.892 82.5519 155.722 82.4484 155.504 82.3001C154.873 82.122 154.337 81.8036 153.896 81.3447C153.477 80.8547 153.253 80.3951 153.226 79.966C153.101 78.7411 153.188 77.3533 153.49 75.8027C153.817 74.247 154.281 72.8415 154.883 71.5864C155.485 70.3312 156.141 69.5001 156.851 69.0931C157.287 68.8197 157.662 68.653 157.977 68.593C158.605 68.4729 159.101 68.6498 159.463 69.1236C159.716 69.4553 159.86 69.7129 159.895 69.8962C159.955 70.2105 159.812 70.4551 159.465 70.6299C159.387 70.6449 159.303 70.7017 159.213 70.8003C159.123 70.8989 159.086 70.9875 159.101 71.066C159.132 71.0872 159.252 71.0778 159.462 71.0378C159.907 70.9528 160.445 70.7822 161.074 70.5262C161.704 70.2702 162.096 70.0461 162.249 69.8539C162.391 69.7453 162.515 69.681 162.62 69.661L163.185 69.6345C163.655 69.6805 163.908 69.7951 163.943 69.9785C163.963 70.0832 164.022 70.1805 164.12 70.2703C164.214 70.3339 164.313 70.3556 164.418 70.3356C164.58 70.3318 164.574 70.4416 164.399 70.665C164.251 70.8833 163.942 71.2546 163.472 71.7787C163.356 71.8823 163.182 72.0377 162.95 72.2449C162.744 72.4471 162.625 72.6055 162.593 72.7203C162.587 72.8301 162.627 72.9716 162.715 73.145C162.865 73.3607 162.972 73.6388 163.037 73.9794C163.202 74.8437 163.005 75.8723 162.445 77.0651C161.912 78.2529 161.157 79.3473 160.181 80.3482C159.231 81.344 158.258 82.005 157.261 82.3311ZM156.263 80.7299C156.42 80.6999 156.783 80.4677 157.352 80.0333C157.627 79.6277 157.862 79.3657 158.057 79.2471C158.24 79.2121 158.464 79.0336 158.728 78.7116C158.987 78.3635 159.365 77.7078 159.859 76.7445C160.247 76.0732 160.521 75.5186 160.682 75.0807C160.869 74.6378 160.927 74.233 160.857 73.8663C160.827 73.7091 160.791 73.5937 160.75 73.5202C160.709 73.4466 160.605 73.3986 160.438 73.3762C160.292 73.3227 160.148 73.2822 160.007 73.2548C159.772 73.2998 159.539 73.29 159.309 73.2252C159.101 73.1293 158.786 72.9722 158.364 72.7541L157.586 72.0884L157.045 72.8839C156.537 73.6326 156.092 74.7898 155.713 76.3554C155.328 77.8949 155.171 79.0651 155.243 79.8659C155.287 80.2376 155.389 80.4895 155.55 80.6217C155.732 80.7226 155.97 80.7587 156.263 80.7299ZM185.076 66.2277C184.7 66.6794 184.108 67.4169 183.299 68.4402C182.511 69.4323 181.945 70.1648 181.601 70.6377L179.144 73.5504C179.199 73.8385 179.27 74.0692 179.358 74.2426C179.466 74.3847 179.609 74.5612 179.785 74.7719C179.982 74.9514 180.116 75.0886 180.189 75.1834C180.748 75.8367 181.459 76.4339 182.323 76.9749C183.186 77.5158 183.696 77.8393 183.852 77.9452C184.028 78.156 184.021 78.3337 183.832 78.4785C183.642 78.6233 183.395 78.7519 183.091 78.8643C182.782 78.9506 182.566 79.0324 182.445 79.1098C181.828 79.1462 181.068 78.7892 180.164 78.0387C179.287 77.2832 178.668 76.6005 178.307 75.9907C177.819 75.5681 177.453 75.2171 177.21 74.9378C176.993 74.6535 176.719 74.217 176.39 73.6284C176.162 73.9977 175.982 74.48 175.852 75.075C175.817 75.4617 175.734 75.9526 175.603 76.5477C175.418 77.4247 175.365 77.8558 175.443 77.8407L175.557 78.2261C175.597 78.4357 175.591 78.6134 175.537 78.7594C175.505 78.8742 175.393 79.072 175.202 79.3527L174.149 79.5946C173.649 79.3915 173.303 79.1453 173.112 78.856C172.921 78.5667 172.788 78.2256 172.713 77.8327C172.778 77.6031 172.915 77.1153 173.126 76.3693C173.331 75.597 173.448 74.8554 173.475 74.1443C173.318 74.1744 172.95 74.3124 172.373 74.5584C172.161 74.8703 171.957 75.1536 171.761 75.4082C171.592 75.6577 171.42 75.8942 171.245 76.1176C170.436 77.1408 169.767 78.0424 169.237 78.8223C168.327 80.0277 167.693 81.0447 167.336 81.8731C167.218 82.1127 167.003 82.2625 166.688 82.3225C166.505 82.3575 166.178 82.3521 165.708 82.3062L164.588 81.1354C164.503 80.6901 164.64 80.3382 164.998 80.0799C165.288 79.7529 165.693 79.2413 166.211 78.545C166.73 77.8487 167.225 77.1704 167.696 76.5103C167.892 76.2558 168.167 75.9182 168.521 75.4977C168.875 75.0771 169.155 74.7658 169.36 74.5636C169.593 74.2204 169.879 73.8673 170.217 73.5041C170.703 72.9226 171.031 72.507 171.2 72.2575L170.416 71.3485C170.317 71.2587 170.113 71.0399 169.802 70.692C169.512 70.3129 169.209 70.0043 168.892 69.7662C168.726 69.6079 168.258 69.073 167.486 68.1615C167.414 68.0667 167.313 67.9639 167.183 67.8529C167.074 67.7108 166.95 67.558 166.81 67.3947C166.866 66.9767 167.13 66.7228 167.601 66.6327C167.916 66.5727 168.245 66.5913 168.589 66.6884C169.328 67.1446 169.955 67.7986 170.471 68.6503C170.911 69.1091 171.269 69.4888 171.544 69.7893C171.839 70.0586 172.073 70.2855 172.244 70.4701C172.508 70.7182 173.016 71.2456 173.768 72.0523C173.768 71.3463 173.792 70.4731 173.837 69.4327C173.88 68.8002 173.905 68.0081 173.913 67.0563C173.938 66.6172 173.928 66.2798 173.883 66.0441L173.783 65.7373L173.761 65.6194C173.711 65.3574 173.715 65.1666 173.774 65.0468C173.78 64.937 173.815 64.8354 173.878 64.7418C173.942 64.6482 174.039 64.5889 174.17 64.5639C174.249 64.5489 174.376 64.5787 174.554 64.6535C175.851 65.193 176.481 65.8601 176.443 66.6547L176.337 68.8739C176.292 71.0544 176.248 72.1759 176.206 72.2382L176.614 72.2418C177.784 71.1223 178.613 70.2718 179.099 69.6903C179.501 69.2335 180.067 68.501 180.797 67.4928C181.554 66.4795 182.142 65.6478 182.56 64.9977C182.777 64.7119 182.92 64.5354 182.989 64.468C183.057 64.4006 183.23 64.3132 183.509 64.2058C183.863 64.3553 184.201 64.5622 184.523 64.8265C184.84 65.0646 185.05 65.3096 185.152 65.5615L185.175 65.6794C185.215 65.889 185.182 66.0717 185.076 66.2277ZM190.907 76.4758C190.004 76.2953 189.332 75.9757 188.891 75.5169C188.446 75.0318 188.13 74.3047 187.945 73.3356C187.855 72.8641 187.789 72.3066 187.748 71.6629L187.556 70.2335C187.511 69.9977 187.45 69.8194 187.373 69.6984C187.295 69.5774 187.15 69.4559 186.937 69.3337C186.874 69.2914 186.718 69.1854 186.469 69.0159C186.219 68.8464 186.095 68.6936 186.096 68.5576L186.019 68.3687C185.984 68.1853 185.978 68.0101 186 67.8429C186.049 67.6707 186.113 67.5772 186.191 67.5622C186.27 67.5471 186.372 67.514 186.498 67.4628C186.619 67.3854 186.734 67.3498 186.844 67.356C187.211 67.286 187.409 67.3296 187.439 67.4867C187.584 67.6762 187.759 67.6699 187.965 67.4677C188.192 67.2344 188.376 66.8463 188.516 66.3036C188.773 65.6574 189.195 64.9524 189.782 64.1887C190.39 63.3938 190.905 62.8203 191.327 62.4684C191.49 62.3286 191.774 62.1794 192.178 62.0208C192.577 61.836 192.934 61.7135 193.248 61.6535C193.72 61.5635 194.146 61.5907 194.526 61.7352C194.933 61.8748 195.357 62.1059 195.799 62.4288C196.366 62.7005 196.725 63.2292 196.875 64.015C196.98 64.5651 196.957 65.1532 196.805 65.7795C196.775 66.1924 196.451 66.7701 195.833 67.5126C195.241 68.2501 194.666 68.7943 194.109 69.1451C193.41 69.4685 192.59 69.7202 191.647 69.9003C191.018 70.0204 190.602 70.0455 190.399 69.9758C190.049 69.8524 189.962 70.6022 190.136 72.225C190.145 72.4133 190.179 72.6647 190.239 72.979C190.324 73.4243 190.457 73.7654 190.638 74.0023C190.669 74.0235 190.781 74.1108 190.973 74.2641C191.16 74.3912 191.384 74.4978 191.645 74.5837C191.901 74.6435 192.16 74.6484 192.422 74.5983C192.657 74.5533 192.836 74.4921 192.957 74.4147C193.23 74.2811 193.477 74.0845 193.699 73.8249C193.916 73.5392 194.215 73.1155 194.597 72.554C194.936 72.0549 195.182 71.7092 195.335 71.5171C195.421 71.2563 195.661 71.0884 196.054 71.0134C196.158 70.9934 196.347 70.9846 196.619 70.9869C196.889 71.1253 197.045 71.2992 197.085 71.5088C197.125 71.7183 197.069 72.1362 196.917 72.7625C196.836 73.0494 196.579 73.4787 196.145 74.0502C195.732 74.5905 195.354 75.0292 195.012 75.3661C194.285 75.9665 193.515 76.3442 192.703 76.4993C192.205 76.5943 191.607 76.5865 190.907 76.4758ZM191.702 68.0572C191.954 67.9548 192.321 67.8168 192.804 67.6432C193.286 67.4696 193.66 67.2218 193.924 66.8998C194.21 66.5467 194.51 65.9871 194.825 65.221C194.864 64.9964 194.863 64.7794 194.823 64.5698C194.748 64.1769 194.617 63.9169 194.43 63.7898C194.211 63.6414 193.984 63.5898 193.749 63.6348C193.382 63.7048 193.032 63.9345 192.699 64.3239C192.452 64.4525 192.114 64.8156 191.686 65.4133C191.283 66.0061 190.946 66.5863 190.674 67.154C190.397 67.6955 190.332 67.993 190.478 68.0466C190.441 68.1352 190.584 68.1757 190.909 68.168C191.228 68.1342 191.492 68.0973 191.702 68.0572ZM210.618 73.241C210.398 73.2286 210.166 73.2187 209.92 73.2114C209.669 73.1778 209.405 73.1467 209.128 73.1182C208.864 72.8701 208.686 72.5103 208.596 72.0388C208.521 71.6459 208.512 71.1725 208.57 70.6186C208.622 70.0386 208.689 69.4691 208.773 68.9102C208.795 68.743 208.829 68.4243 208.875 67.954C208.947 67.4787 208.969 67.0945 208.94 66.8014C208.899 66.7278 208.855 66.7091 208.807 66.7453C208.76 66.7815 208.741 66.8258 208.751 66.8782C208.544 67.2163 208.008 67.5359 207.142 67.837C206.051 68.2354 205.109 68.6325 204.316 69.0283L203.73 68.733C203.52 68.773 203.382 69.0438 203.315 69.5452C203.248 70.0467 203.211 70.7054 203.204 71.5212C203.196 72.337 203.171 72.8441 203.128 73.0425L202.475 73.2486C202.239 73.2936 201.842 73.2745 201.283 73.1912C200.977 72.8695 200.797 72.5646 200.742 72.2764C200.702 72.0669 200.696 71.8237 200.724 71.5467C200.742 71.3534 200.75 70.9716 200.75 70.4016C200.776 69.8265 200.86 69.1996 201.002 68.521C201.029 68.38 201.089 68.1243 201.181 67.7537C201.268 67.357 201.279 66.9884 201.214 66.6479C201.352 66.3771 201.439 66.0484 201.474 65.6617C201.503 65.2488 201.538 64.93 201.576 64.7055L201.994 62.6302C202.126 61.8992 202.226 61.2829 202.293 60.7814C202.386 60.2749 202.416 59.862 202.382 59.5427C202.338 59.171 202.5 58.9501 202.866 58.8801C203.233 58.81 203.63 58.8972 204.057 59.1415C204.509 59.3807 204.773 59.6968 204.848 60.0897C204.868 60.1945 204.867 60.3305 204.845 60.4976C204.785 60.7534 204.733 61.0484 204.688 61.3828C204.643 61.7171 204.577 62.0826 204.49 62.4793C204.213 64.2969 204.02 65.4197 203.912 65.8476C203.901 65.9312 203.866 66.0329 203.807 66.1527C203.744 66.2463 203.722 66.3454 203.742 66.4502C203.867 66.535 204.099 66.5448 204.44 66.4798C204.911 66.3898 205.289 66.2362 205.574 66.019L207.892 65.5763C208.33 65.737 208.698 66.0331 208.998 66.4645L209.287 64.7804C209.765 62.1643 209.989 60.4927 209.958 59.7655C209.957 59.3314 210.164 58.9252 210.581 58.5471C210.753 58.5956 210.993 58.6448 211.301 58.6945C211.636 58.7393 211.912 58.8358 212.13 58.9842C212.344 59.1063 212.504 59.3064 212.611 59.5846C212.635 59.8515 212.622 60.139 212.573 60.4472C212.518 60.7291 212.485 60.9119 212.474 60.9955C212.44 61.2462 212.292 62.0346 212.029 63.3608C211.991 63.5853 211.881 64.1492 211.701 65.0524C211.542 65.9244 211.412 66.7366 211.311 67.4888C211.232 68.2098 211.203 68.8398 211.224 69.3787C211.211 69.7342 211.172 70.2438 211.109 70.9074C211.067 71.5399 211.031 71.9946 211.003 72.2715C211.068 72.612 210.939 72.9352 210.618 73.241ZM226.259 70.6205C225.515 70.1381 224.873 69.3376 224.334 68.2189C224.252 68.0718 224.173 67.8017 224.098 67.4088C224.023 67.0159 223.97 66.7409 223.94 66.5837C223.858 67.0067 223.637 67.4153 223.278 67.8096C222.791 68.5271 222.274 69.0875 221.726 69.4907C220.924 70.2682 220.235 70.712 219.659 70.822C219.135 70.9221 218.583 70.729 218.001 70.2428C217.606 70.0197 217.289 69.7816 217.05 69.5284C216.838 69.2703 216.692 68.9317 216.612 68.5126C216.557 68.2245 216.536 67.9027 216.55 67.5472C216.417 66.568 216.37 65.6131 216.41 64.6825C216.476 63.747 216.69 62.525 217.054 61.0167C217.577 59.2065 217.969 57.9913 218.231 57.3712C218.352 57.2938 218.517 57.2351 218.726 57.1951C218.988 57.1451 219.213 57.1836 219.4 57.3108C219.614 57.4329 219.758 57.6225 219.835 57.8794C219.933 57.9691 220 58.1057 220.035 58.2891C220.16 58.9439 219.972 60.0929 219.472 61.7359C218.92 64.3932 218.735 66.1933 218.915 67.1363C219.02 67.6863 219.239 67.9837 219.574 68.0285C219.72 68.082 219.871 68.0938 220.028 68.0638C220.683 67.9387 221.384 67.3434 222.131 66.2777C222.877 65.2121 223.482 63.617 223.945 61.4924C224.142 60.5318 224.189 59.5725 224.088 58.6146C224.047 58.541 224.011 58.4256 223.981 58.2685C223.891 57.797 224.054 57.3722 224.471 56.994C224.546 56.8168 224.667 56.6714 224.835 56.5579C224.999 56.4181 225.117 56.3956 225.189 56.4903L225.81 56.331C225.884 56.2898 225.977 56.3534 226.091 56.5217C226.2 56.6639 226.298 56.7536 226.387 56.791C226.6 56.9131 226.747 57.1838 226.827 57.6029C226.992 58.4672 226.865 59.8625 226.445 61.7887C226.148 62.9315 225.962 63.8085 225.889 64.4198C225.837 64.9999 225.848 65.5543 225.921 66.0832C226.112 67.0786 226.649 67.8311 227.534 68.3409C227.831 68.4742 228.025 68.6407 228.118 68.8402C228.21 69.0397 228.278 69.3254 228.322 69.6971C228.315 69.9428 228.195 70.1693 227.963 70.3765C227.752 70.5524 227.503 70.6679 227.215 70.723C226.874 70.788 226.556 70.7538 226.259 70.6205ZM235.22 69.1128C234.093 69.3279 233.083 69.0864 232.19 68.3883C231.296 67.6902 230.73 66.7125 230.489 65.4552C230.249 64.1979 230.262 62.7702 230.527 61.1722C230.813 59.5429 231.286 58.0408 231.947 56.6658C232.607 55.2909 233.356 54.3063 234.192 53.7121C234.661 53.324 235.223 53.0674 235.878 52.9423C236.376 52.8473 236.966 52.8838 237.65 53.0518C238.13 53.1502 238.513 53.3078 238.799 53.5247C239.085 53.7416 239.372 54.1076 239.66 54.6226C239.829 55.0791 239.931 55.399 239.966 55.5824C239.996 55.7395 239.995 56.0925 239.964 56.6414C239.835 57.6706 239.574 58.5757 239.18 59.3568C238.807 60.1067 238.26 60.7949 237.538 61.4214C237.169 61.7634 236.67 61.9944 236.041 62.1145C235.491 62.2195 234.95 62.2279 234.417 62.1396C233.906 62.0201 233.481 61.7889 233.145 61.446L232.809 61.1842L232.752 61.521C232.472 63.0405 232.427 64.2979 232.617 65.2933C232.747 65.9743 232.983 66.4993 233.325 66.8684C233.563 67.1215 234.036 67.1805 234.743 67.0455C235.267 66.9454 235.637 66.8205 235.853 66.6707C236.221 66.4647 236.531 66.2425 236.784 66.0042C237.058 65.7346 237.32 65.4675 237.568 65.2029L237.71 65.0944L237.671 65.1019C237.955 64.8847 238.189 64.6906 238.374 64.5196C238.558 64.3486 238.685 64.2294 238.754 64.162C238.806 64.152 238.856 64.1289 238.903 64.0927C238.951 64.0565 238.993 63.9941 239.03 63.9056C239.246 63.7558 239.529 63.7425 239.878 63.8659C240.227 63.9892 240.429 64.1949 240.485 64.483C240.472 64.7026 240.301 65.0881 239.972 65.6396C239.643 66.1912 239.377 66.5 239.172 66.5662C239.146 66.5712 239.062 66.628 238.919 66.7366C238.777 66.8452 238.685 66.9307 238.643 66.9931L238.682 66.9856C238.506 67.3449 238.3 67.5471 238.065 67.5921L237.75 67.6522C237.686 67.8817 237.372 68.1588 236.81 68.4834C236.273 68.803 235.743 69.0128 235.22 69.1128ZM235.337 60.1314C236.123 59.9813 236.758 59.3985 237.243 58.3829C237.711 57.4246 237.865 56.5264 237.705 55.6882C237.62 55.2429 237.469 54.9461 237.25 54.7978C237.078 54.7492 236.927 54.7375 236.796 54.7625C236.665 54.7875 236.45 54.8693 236.15 55.0079C235.825 55.1515 235.371 55.6182 234.789 56.4081C234.202 57.1718 233.785 57.835 233.54 58.3977L233.187 59.3204C233.381 59.2018 233.57 59.125 233.753 59.0899C233.958 59.0237 234.078 59.0143 234.114 59.0617C234.185 59.4284 234.334 59.7121 234.562 59.9129C234.79 60.1136 235.049 60.1864 235.337 60.1314ZM246.738 59.8681C246.26 60.068 245.84 59.9989 245.476 59.6611C245.113 59.3232 244.859 58.7744 244.714 58.0148C244.584 57.3338 244.552 56.5255 244.617 55.5899C244.844 54.7865 244.922 54.2014 244.852 53.8347C244.898 53.3644 245 52.7612 245.158 52.0252C245.311 51.2629 245.445 50.6809 245.558 50.2792C245.663 50.2592 245.75 50.1475 245.82 49.9442C245.916 49.7358 245.946 49.5399 245.911 49.3566C245.866 49.1208 245.86 48.8776 245.894 48.6269C245.949 48.3449 246.019 48.1416 246.103 48.0168C246.088 47.9382 246.116 47.7972 246.185 47.5939C246.25 47.3643 246.275 47.2102 246.26 47.1317C246.25 47.0793 246.261 46.9957 246.294 46.8809C246.347 46.7349 246.366 46.6227 246.351 46.5441C246.673 45.6682 247.071 44.0583 247.547 41.7141C248.022 39.37 248.24 38.0252 248.201 37.6797C248.195 37.2194 248.396 36.991 248.804 36.9946C248.915 36.8648 249.114 36.7724 249.402 36.7174L250.072 37.241C250.291 37.3893 250.433 37.5657 250.499 37.7703C250.587 37.9436 250.668 38.2267 250.743 38.6196C250.792 39.0175 250.756 39.4722 250.637 39.9837C250.512 40.4691 250.354 40.9881 250.161 41.5407C249.967 42.0934 249.839 42.4846 249.774 42.7141L249.443 43.7546C249.164 44.5681 249.037 45.0403 249.062 45.1712C249.082 45.276 249.054 45.485 248.978 45.7981C248.897 46.0851 248.835 46.3277 248.791 46.5261C248.631 46.964 248.464 47.5117 248.291 48.1692C248.113 48.8004 248.034 49.1685 248.054 49.2732C248.037 49.3306 248.016 49.4298 247.988 49.5708C247.987 49.7067 247.944 49.8371 247.859 49.9619C247.781 49.9769 247.741 50.0524 247.74 50.1884C247.733 50.2981 247.735 50.3792 247.745 50.4316C247.77 50.5626 247.755 50.837 247.699 51.2549C247.643 51.6728 247.542 52.14 247.397 52.6565C246.991 55.3674 246.852 57.2672 246.978 58.3562C247.046 58.9948 247.064 59.3715 247.031 59.4863C247.025 59.5961 246.927 59.7234 246.738 59.8681ZM245.817 66.5597C245.354 66.8381 244.992 67.0023 244.73 67.0523C244.389 67.1174 243.966 67.0352 243.461 66.806C243.024 66.5093 242.771 66.1776 242.701 65.8109C242.591 65.2346 242.923 64.5602 243.699 63.7877C244.163 63.3734 244.513 63.1437 244.748 63.0987C244.879 63.0736 245.211 63.1053 245.744 63.1936C246.531 63.4776 246.977 63.8947 247.082 64.4447C247.142 64.7591 247.058 65.1009 246.83 65.4702C246.628 65.8346 246.29 66.1977 245.817 66.5597Z" fill="#3D3D3D"/>
</g>
<defs>
<filter id="filter0_d_70_3278" x="-3" y="0" width="316" height="128" filterUnits="userSpaceOnUse" color-interpolation-filters="sRGB">
<feFlood flood-opacity="0" result="BackgroundImageFix"/>
<feColorMatrix in="SourceAlpha" type="matrix" values="0 0 0 0 0 0 0 0 0 0 0 0 0 0 0 0 0 0 127 0" result="hardAlpha"/>
<feOffset dy="4"/>
<feGaussianBlur stdDeviation="2"/>
<feComposite in2="hardAlpha" operator="out"/>
<feColorMatrix type="matrix" values="0 0 0 0 0 0 0 0 0 0 0 0 0 0 0 0 0 0 0.25 0"/>
<feBlend mode="normal" in2="BackgroundImageFix" result="effect1_dropShadow_70_3278"/>
<feBlend mode="normal" in="SourceGraphic" in2="effect1_dropShadow_70_3278" result="shape"/>
</filter>
</defs>
</svg>
