<svg width="307" height="90" viewBox="0 0 307 90" fill="none" xmlns="http://www.w3.org/2000/svg">
<path d="M295.579 90H11.3684C5.11863 90 0 84.9347 0 78.75V11.25C0 5.06533 5.11863 1.89289e-05 11.3684 1.89289e-05H295.579C301.829 1.89289e-05 306.947 5.06533 306.947 11.25V78.75C306.947 84.9347 301.829 90 295.579 90Z" fill="black"/>
<path d="M107.813 23.0482C107.813 24.927 107.245 26.4317 106.125 27.5539C104.838 28.8842 103.161 29.5535 101.106 29.5535C99.1421 29.5535 97.4652 28.8729 96.0896 27.5314C94.7112 26.1701 94.0234 24.4995 94.0234 22.4998C94.0234 20.5001 94.7112 18.8295 96.0896 17.4795C97.4652 16.1267 99.1421 15.446 101.106 15.446C102.084 15.446 103.016 15.6457 103.905 16.017C104.792 16.391 105.514 16.8973 106.037 17.5217L104.849 18.7085C103.937 17.6426 102.695 17.1167 101.106 17.1167C99.6735 17.1167 98.4315 17.6117 97.3771 18.6101C96.3341 19.6114 95.8111 20.9079 95.8111 22.4998C95.8111 24.0917 96.3341 25.3995 97.3771 26.4007C98.4315 27.3879 99.6735 27.8942 101.106 27.8942C102.626 27.8942 103.905 27.3879 104.914 26.3895C105.579 25.7285 105.957 24.8173 106.057 23.6529H101.106V22.0273H107.711C107.791 22.3789 107.813 22.7192 107.813 23.0482Z" fill="white"/>
<path d="M118.291 17.4127H112.087V21.6877H117.68V23.3133H112.087V27.5883H118.291V29.2448H110.33V15.7561H118.291V17.4127Z" fill="white"/>
<path d="M125.687 29.2448H123.931V17.4127H120.125V15.7561H129.495V17.4127H125.687V29.2448Z" fill="white"/>
<path d="M136.275 29.2448V15.7561H138.029V29.2448H136.275Z" fill="white"/>
<path d="M145.802 29.2448H144.06V17.4127H140.24V15.7561H149.622V17.4127H145.802V29.2448Z" fill="white"/>
<path d="M167.363 27.5089C166.019 28.8729 164.353 29.5535 162.367 29.5535C160.369 29.5535 158.703 28.8729 157.359 27.5089C156.018 26.1476 155.35 24.477 155.35 22.4998C155.35 20.5226 156.018 18.852 157.359 17.4907C158.703 16.1267 160.369 15.446 162.367 15.446C164.342 15.446 166.008 16.1267 167.352 17.502C168.705 18.8745 169.373 20.5339 169.373 22.4998C169.373 24.477 168.705 26.1476 167.363 27.5089ZM158.658 26.3782C159.67 27.3879 160.9 27.8942 162.367 27.8942C163.822 27.8942 165.064 27.3879 166.064 26.3782C167.073 25.3685 167.585 24.072 167.585 22.4998C167.585 20.9276 167.073 19.631 166.064 18.6214C165.064 17.6117 163.822 17.1054 162.367 17.1054C160.9 17.1054 159.67 17.6117 158.658 18.6214C157.649 19.631 157.137 20.9276 157.137 22.4998C157.137 24.072 157.649 25.3685 158.658 26.3782Z" fill="white"/>
<path d="M171.836 29.2448V15.7561H173.968L180.595 26.2467H180.672L180.595 23.6536V15.7561H182.349V29.2448H180.519L173.578 18.2367H173.501L173.578 20.8411V29.2448H171.836Z" fill="white"/>
<path d="M154.918 48.9433C149.578 48.9433 145.215 52.9652 145.215 58.5143C145.215 64.0183 149.578 68.0824 154.918 68.0824C160.27 68.0824 164.632 64.0183 164.632 58.5143C164.632 52.9652 160.27 48.9433 154.918 48.9433ZM154.918 64.3136C151.988 64.3136 149.467 61.9202 149.467 58.5143C149.467 55.0633 151.988 52.7121 154.918 52.7121C157.848 52.7121 160.38 55.0633 160.38 58.5143C160.38 61.9202 157.848 64.3136 154.918 64.3136ZM133.747 48.9433C128.395 48.9433 124.044 52.9652 124.044 58.5143C124.044 64.0183 128.395 68.0824 133.747 68.0824C139.096 68.0824 143.45 64.0183 143.45 58.5143C143.45 52.9652 139.096 48.9433 133.747 48.9433ZM133.747 64.3136C130.814 64.3136 128.285 61.9202 128.285 58.5143C128.285 55.0633 130.814 52.7121 133.747 52.7121C136.677 52.7121 139.198 55.0633 139.198 58.5143C139.198 61.9202 136.677 64.3136 133.747 64.3136ZM108.555 51.8768V55.9436H118.368C118.081 58.2161 117.314 59.8868 116.137 61.0511C114.705 62.4574 112.474 64.0183 108.555 64.0183C102.515 64.0183 97.786 59.1949 97.786 53.2183C97.786 47.2418 102.515 42.4183 108.555 42.4183C111.82 42.4183 114.196 43.6811 115.95 45.318L118.846 42.4521C116.393 40.1346 113.13 38.3543 108.555 38.3543C100.273 38.3543 93.3125 45.0227 93.3125 53.2183C93.3125 61.4139 100.273 68.0824 108.555 68.0824C113.031 68.0824 116.393 66.6311 119.036 63.9086C121.745 61.2283 122.589 57.4596 122.589 54.4164C122.589 53.4714 122.509 52.6024 122.367 51.8768H108.555ZM211.57 55.0296C210.771 52.8893 208.307 48.9433 203.288 48.9433C198.314 48.9433 194.173 52.8218 194.173 58.5143C194.173 63.8749 198.271 68.0824 203.765 68.0824C208.207 68.0824 210.771 65.4021 211.825 63.8411L208.529 61.6671C207.429 63.2589 205.931 64.3136 203.765 64.3136C201.614 64.3136 200.07 63.3377 199.081 61.4139L212.016 56.118L211.57 55.0296ZM198.382 58.2161C198.271 54.5261 201.278 52.6361 203.433 52.6361C205.121 52.6361 206.553 53.4714 207.031 54.6668L198.382 58.2161ZM187.869 67.5002H192.121V39.3752H187.869V67.5002ZM180.906 51.0752H180.764C179.809 49.9558 177.987 48.9433 175.68 48.9433C170.837 48.9433 166.409 53.1508 166.409 58.5452C166.409 63.9086 170.837 68.0824 175.68 68.0824C177.987 68.0824 179.809 67.0614 180.764 65.9083H180.906V67.2808C180.906 70.9399 178.931 72.9058 175.745 72.9058C173.147 72.9058 171.536 71.0496 170.871 69.4886L167.173 71.0158C168.239 73.5527 171.061 76.6746 175.745 76.6746C180.73 76.6746 184.936 73.7721 184.936 66.7099V49.5255H180.906V51.0752ZM176.043 64.3136C173.113 64.3136 170.66 61.8864 170.66 58.5452C170.66 55.173 173.113 52.7121 176.043 52.7121C178.931 52.7121 181.207 55.173 181.207 58.5452C181.207 61.8864 178.931 64.3136 176.043 64.3136ZM231.476 39.3752H221.307V67.5002H225.547V56.8436H231.476C236.185 56.8436 240.803 53.4714 240.803 48.108C240.803 42.7474 236.174 39.3752 231.476 39.3752ZM231.587 52.9314H225.547V43.2874H231.587C234.753 43.2874 236.56 45.8889 236.56 48.108C236.56 50.2849 234.753 52.9314 231.587 52.9314ZM257.799 48.8899C254.735 48.8899 251.549 50.2286 250.239 53.1958L254.002 54.7568C254.812 53.1958 256.301 52.6896 257.876 52.6896C260.076 52.6896 262.307 53.9974 262.341 56.3064V56.6018C261.574 56.163 259.931 55.5133 257.91 55.5133C253.857 55.5133 249.728 57.7211 249.728 61.8414C249.728 65.6102 253.047 68.0374 256.779 68.0374C259.632 68.0374 261.207 66.7633 262.196 65.2811H262.341V67.4552H266.436V56.6664C266.436 51.6799 262.673 48.8899 257.799 48.8899ZM257.288 64.3024C255.901 64.3024 253.968 63.6218 253.968 61.9202C253.968 59.7433 256.378 58.908 258.464 58.908C260.332 58.908 261.207 59.3158 262.341 59.853C262.008 62.4574 259.743 64.3024 257.288 64.3024ZM281.357 49.5058L276.483 61.698H276.338L271.299 49.5058H266.726L274.298 66.5439L269.978 76.0249H274.409L286.075 49.5058H281.357ZM243.134 67.5002H247.386V39.3752H243.134V67.5002Z" fill="white"/>
<path d="M23.7263 16.9624C23.0584 17.6543 22.6719 18.7315 22.6719 20.1265V69.8852C22.6719 71.2802 23.0584 72.3574 23.7263 73.0493L23.8911 73.2012L52.0678 45.3293V44.6712L23.8911 16.7993L23.7263 16.9624Z" fill="url(#paint0_linear_70_3625)"/>
<path d="M61.4482 54.624L52.0664 45.3287V44.6706L61.4596 35.3753L61.6699 35.4962L72.7939 41.7597C75.9685 43.5372 75.9685 46.4622 72.7939 48.2509L61.6699 54.5031L61.4482 54.624Z" fill="url(#paint1_linear_70_3625)"/>
<path d="M61.6715 54.5033L52.068 44.9999L23.7266 73.0489C24.781 74.1458 26.5005 74.278 28.4558 73.1811L61.6715 54.5033Z" fill="url(#paint2_linear_70_3625)"/>
<path d="M61.6715 35.4966L28.4558 16.8188C26.5005 15.7331 24.781 15.8653 23.7266 16.9622L52.068 45L61.6715 35.4966Z" fill="url(#paint3_linear_70_3625)"/>
<defs>
<linearGradient id="paint0_linear_70_3625" x1="49.566" y1="70.4034" x2="11.8077" y2="32.2476" gradientUnits="userSpaceOnUse">
<stop stop-color="#00A0FF"/>
<stop offset="0.0066" stop-color="#00A1FF"/>
<stop offset="0.2601" stop-color="#00BEFF"/>
<stop offset="0.5122" stop-color="#00D2FF"/>
<stop offset="0.7604" stop-color="#00DFFF"/>
<stop offset="1" stop-color="#00E3FF"/>
</linearGradient>
<linearGradient id="paint1_linear_70_3625" x1="76.9278" y1="44.9965" x2="21.9117" y2="44.9965" gradientUnits="userSpaceOnUse">
<stop stop-color="#FFE000"/>
<stop offset="0.4087" stop-color="#FFBD00"/>
<stop offset="0.7754" stop-color="#FFA500"/>
<stop offset="1" stop-color="#FF9C00"/>
</linearGradient>
<linearGradient id="paint2_linear_70_3625" x1="56.4494" y1="39.8337" x2="5.24606" y2="-11.9087" gradientUnits="userSpaceOnUse">
<stop stop-color="#FF3A44"/>
<stop offset="1" stop-color="#C31162"/>
</linearGradient>
<linearGradient id="paint3_linear_70_3625" x1="16.5924" y1="89.6036" x2="39.457" y2="66.4985" gradientUnits="userSpaceOnUse">
<stop stop-color="#32A071"/>
<stop offset="0.0685" stop-color="#2DA771"/>
<stop offset="0.4762" stop-color="#15CF74"/>
<stop offset="0.8009" stop-color="#06E775"/>
<stop offset="1" stop-color="#00F076"/>
</linearGradient>
</defs>
</svg>
