<svg width="25" height="25" viewBox="0 0 25 25" fill="none" xmlns="http://www.w3.org/2000/svg">
<path d="M21.885 19.1654C23.3752 17.8373 24.219 16.067 24.219 14.2299C24.219 12.2776 23.305 10.4517 21.6454 9.08833C20.0302 7.76187 17.8922 7.03125 15.625 7.03125C13.3578 7.03125 11.2198 7.76187 9.60483 9.08843C7.94521 10.4517 7.03125 12.2776 7.03125 14.2299C7.03125 16.1823 7.94521 18.0082 9.60483 19.3715C11.2198 20.6981 13.3578 21.4287 15.625 21.4287C15.9271 21.4287 16.2311 21.4153 16.5325 21.3888L17.0474 21.8352C18.8214 23.3724 21.0901 24.2187 23.4375 24.2188H24.2188V22.5558L23.9899 22.3271C23.0873 21.4218 22.372 20.3474 21.885 19.1654ZM18.0708 20.6543L17.0375 19.7587L16.693 19.801C16.3386 19.8443 15.982 19.866 15.625 19.8661C11.748 19.8661 8.59375 17.3377 8.59375 14.2299C8.59375 11.1222 11.748 8.59375 15.625 8.59375C19.502 8.59375 22.6562 11.1221 22.6562 14.2299C22.6562 15.7783 21.8838 17.2238 20.4812 18.3001L20.0312 18.6454L20.2388 19.2331C20.6643 20.4332 21.2897 21.5528 22.0885 22.5444C20.6009 22.2961 19.2106 21.6421 18.0708 20.6543Z" fill="#6D3D67"/>
<path d="M2.93872 15.5018C3.67003 14.576 4.24422 13.5364 4.63833 12.4245L4.84438 11.8397L4.39482 11.4947C3.07217 10.4798 2.34375 9.11758 2.34375 7.65903C2.34375 4.72817 5.32271 2.34375 8.98438 2.34375C11.6781 2.34375 14.0023 3.63428 15.0428 5.4834C15.236 5.47402 15.4301 5.46875 15.625 5.46875C16.0165 5.46875 16.4044 5.48774 16.7888 5.52573C16.3867 4.48398 15.6883 3.53301 14.7282 2.74443C13.1871 1.47847 11.1475 0.78125 8.98438 0.78125C6.82129 0.78125 4.78164 1.47847 3.24043 2.74443C1.65459 4.04712 0.78125 5.79248 0.78125 7.65903C0.78125 9.40708 1.57969 11.0914 2.99072 12.3584C2.53024 13.4665 1.8574 14.4739 1.01011 15.3237L0.78125 15.5525V17.1875H1.5625C3.00718 17.1873 4.43199 16.8509 5.72417 16.2048C5.58248 15.6678 5.49946 15.117 5.47656 14.562C4.69227 15.0217 3.83323 15.3398 2.93872 15.5018Z" fill="#6D3D67"/>
</svg>
