<svg width="70" height="79" viewBox="0 0 70 79" fill="none" xmlns="http://www.w3.org/2000/svg">
<path fill-rule="evenodd" clip-rule="evenodd" d="M37.1045 0.103399C29.1236 0.682782 23.8284 1.50223 20.5303 2.66864C20.2595 2.76442 19.2257 3.04881 18.2328 3.30069C14.0816 4.35394 10.5979 6.97203 9.68809 9.72223C9.24797 11.0527 9.13835 20.6848 9.5317 23.4704C9.68087 24.5265 9.8435 25.5392 9.89322 25.721C9.97543 26.0216 9.91636 26.0418 9.24092 25.9437C8.33278 25.812 6.87047 26.1876 5.8432 26.8169C5.43705 27.0658 4.53728 27.8753 3.84379 28.6159C2.79535 29.7357 2.44499 30.2655 1.7643 31.7615C1.314 32.751 0.792489 34.2195 0.605249 35.0251C-0.192283 38.4579 -0.203934 45.7894 0.583916 48.4232C1.44578 51.3041 3.6275 53.2244 8.38677 55.2909C9.19907 55.6436 9.92276 55.991 9.9948 56.0627C10.067 56.1345 10.0508 57.0068 9.95853 58.0011C9.57339 62.1613 9.42175 66.3397 9.61326 67.5197C9.97346 69.739 10.8821 71.2998 12.6193 72.6834C16.0048 75.3798 24.0565 77.8936 32.0994 78.765C35.7835 79.1642 43.1807 79.038 46.809 78.514C52.6021 77.6774 59.7884 75.7501 63.3471 74.0784C64.8137 73.3895 66.9435 71.8177 67.7905 70.7992C69.6986 68.5043 70.216 66.19 69.8671 61.5101C69.4326 55.6824 69.1366 54.0491 68.1004 51.762C67.3433 50.0907 65.7745 48.3196 64.3898 47.573C63.8238 47.2679 63.5453 47.1532 63.771 47.3179C63.9966 47.4827 64.7042 48.1709 65.3435 48.8473C67.0438 50.646 67.819 52.5661 68.1234 55.733L68.2329 56.8719L66.9455 57.9228C59.2309 64.2203 48.2763 66.3976 31.2116 65.025C24.8888 64.5164 21.1822 63.5598 12.955 60.3136L10.7951 59.4615L10.7321 57.8101C10.6975 56.9018 10.6752 56.1429 10.6825 56.1234C10.6901 56.1039 11.4318 56.3186 12.3311 56.6004C15.9937 57.748 22.7005 58.9362 28.0686 59.3885C31.1379 59.647 37.8753 59.5005 40.4487 59.1192C48.4208 57.9379 54.7257 55.054 59.202 50.5417C60.7531 48.9782 61.2328 48.2881 61.5599 47.15C61.6746 46.7507 61.8552 46.4457 61.9614 46.4719C62.0676 46.4982 62.1096 46.4429 62.0548 46.349C62.0001 46.2553 61.8595 46.2174 61.7425 46.265C61.5761 46.3327 61.5318 45.9605 61.5398 44.5625C61.5505 42.7124 61.2264 37.2677 61.0016 35.522L60.8736 34.5282L62.0351 33.8917C63.9339 32.8511 66.3985 31.0443 67.4757 29.9033C69.5844 27.6695 69.9932 25.9675 69.9999 19.3932C70.0061 13.4269 69.7014 12.0392 67.7957 9.35388C64.544 4.77166 57.7988 1.51439 49.1659 0.357716C46.7 0.0272609 40.0772 -0.112326 37.1045 0.103399ZM46.7865 1.83963C51.6685 2.37208 57.7962 4.00871 61.0321 5.64465C64.4836 7.38957 66.921 10.0376 67.8846 13.0895L68.2271 14.1737L67.8945 14.6686C67.7115 14.9407 67.0966 15.596 66.5279 16.1248C62.4335 19.9324 56.8606 22.4589 50.807 23.2525C48.5643 23.5464 39.4592 23.5427 35.9558 23.2467C25.9415 22.4002 19.7439 20.8822 12.9939 17.6229L10.7662 16.5472L10.7695 14.3632C10.7736 11.557 10.9952 9.95551 11.5072 9.03003C12.1207 7.92098 13.5965 6.62975 15.6893 5.37103C18.5579 3.64558 20.3722 2.90401 22.4174 2.62118C29.3412 1.66372 41.5749 1.27138 46.7865 1.83963ZM68.1564 20.4362C68.0709 24.5084 67.9216 25.5088 67.2158 26.7383L66.9064 27.277L66.9992 25.7254C67.1157 23.7734 66.8305 21.2654 66.3024 19.5992L65.8951 18.3141L67.0074 17.0694C67.9298 16.0372 68.1298 15.8844 68.1792 16.1749C68.2119 16.3675 68.2017 18.285 68.1564 20.4362ZM12.4791 18.3638C13.0151 18.7427 13.4811 19.082 13.5148 19.1177C13.5484 19.1535 13.4053 19.7581 13.1967 20.4612C12.8774 21.5381 12.8182 22.1104 12.8221 24.0867C12.8265 26.3062 12.9345 27.0441 13.502 28.7302C13.5727 28.9402 13.436 28.8726 13.0799 28.5211C12.4133 27.8633 11.6635 26.2427 11.349 24.7804C11.0575 23.4254 10.6021 19.2206 10.6021 17.8845V16.9305L11.0534 17.3025C11.3017 17.5071 11.9432 17.9846 12.4791 18.3638ZM65.3212 27.1287C65.4689 27.7024 65.6049 28.2847 65.6238 28.4227C65.6512 28.6226 63.9428 29.946 63.6069 29.9851C63.5617 29.9905 63.5105 28.9979 63.4931 27.7796C63.4595 25.4337 63.1241 23.5935 62.4682 22.1552C62.0531 21.2456 62.0517 21.1812 62.4422 21.05C62.614 20.9921 63.2234 20.5681 63.7961 20.1075L64.8376 19.2701L64.9453 22.6779C65.0176 24.9677 65.141 26.428 65.3212 27.1287ZM15.6935 20.2646C16.2323 20.5527 17.0864 20.9523 17.5917 21.1526C18.4513 21.4933 18.5034 21.5463 18.4004 21.976C18.3397 22.2286 18.2504 23.5095 18.202 24.8225C18.0932 27.7643 18.3476 30.2701 18.8799 31.5018L19.2683 32.4005L18.3843 32.0784C17.8982 31.9011 16.9268 31.4401 16.2256 31.0539L14.9508 30.3516L14.9968 28.4794C15.022 27.4498 14.948 25.0624 14.8323 23.1741C14.7166 21.2857 14.6426 19.7409 14.6679 19.7409C14.6933 19.7409 15.1548 19.9766 15.6935 20.2646ZM61.3606 25.1731C61.4427 27.9219 61.6668 29.8139 62.0354 30.8661C62.0997 31.0499 61.8383 31.2911 61.1501 31.6835L60.1735 32.2401L60.2702 30.2928C60.3816 28.0464 60.1796 26.3526 59.5652 24.3799C59.3327 23.6328 59.1682 23.006 59.2002 22.9867C59.4861 22.8139 61.0861 22.0195 61.1645 22.0113C61.2202 22.0054 61.3085 23.4284 61.3606 25.1731ZM21.6084 22.7866C23.1326 23.2698 25.2355 23.8106 26.3148 23.9968C26.6985 24.063 27.0123 24.1374 27.0123 24.1621C27.0123 24.1868 26.9017 24.4418 26.7666 24.7286C25.9553 26.4513 26.0526 31.1886 26.9458 33.4529C27.075 33.7804 27.1496 34.0815 27.1115 34.1218C26.9158 34.3292 20.8637 33.0023 20.3525 32.6399C20.2324 32.5547 20.23 31.7304 20.3445 29.9302C20.4988 27.5044 20.3402 24.0429 20.0151 22.7395C19.8935 22.2517 19.9246 22.2527 21.6084 22.7866ZM58.0757 26.4769C58.162 29.0348 58.4802 31.8398 58.7769 32.6589C58.8553 32.8755 58.5479 33.0392 57.2681 33.463C56.3843 33.7556 55.6212 33.9951 55.5725 33.9951C55.5237 33.9951 55.4751 32.4892 55.4643 30.6488C55.4517 28.4798 55.3576 26.8132 55.1972 25.9119C55.0609 25.147 54.959 24.5105 54.9705 24.4973C55.0168 24.4446 57.6295 23.5994 57.7973 23.5829C57.9179 23.5711 58.0098 24.5251 58.0757 26.4769ZM31.2617 24.8062L33.8474 25.1797L33.6964 26.1542C33.5218 27.2807 33.6571 33.0121 33.8856 34.1689C33.9706 34.5992 34.024 34.9686 34.0045 34.9896C33.9531 35.0449 29.3016 34.5342 28.849 34.4236C28.5428 34.3489 28.4934 34.2576 28.5901 33.9459C28.8028 33.261 28.661 29.1036 28.3459 26.7811C28.1774 25.5382 28.0742 24.4573 28.1168 24.3791C28.1593 24.3008 28.3026 24.2808 28.435 24.3347C28.5676 24.3886 29.8396 24.6007 31.2617 24.8062ZM53.6795 25.1731C53.6137 25.3883 53.5286 26.6594 53.4903 27.9979C53.4345 29.9429 53.4825 30.7283 53.7286 31.9091C53.8981 32.7218 54.0916 33.5188 54.1587 33.6803C54.3048 34.0325 53.8948 34.1251 51.7916 34.2153L50.3967 34.2753L50.3662 31.4843C50.3494 29.9492 50.2333 27.8913 50.1079 26.9114L49.8799 25.1297L51.1228 25.1092C51.8065 25.0979 52.5875 25.0288 52.8582 24.9558C53.7209 24.7232 53.8098 24.7469 53.6795 25.1731ZM38.2532 25.5032L40.7147 25.7092L40.657 28.5432C40.6051 31.0886 40.7275 32.9408 41.0621 34.6753L41.1767 35.2688L38.3354 35.1551C36.7727 35.0925 35.4771 35.0211 35.4566 34.9964C35.4361 34.9715 35.4906 34.4427 35.5779 33.8213C35.8191 32.104 35.5729 27.5786 35.1253 25.4982C35.0473 25.1356 35.0829 25.0975 35.4139 25.1909C35.6217 25.2493 36.8994 25.3899 38.2532 25.5032ZM48.0622 27.9657C47.9723 30.2372 48.1529 32.4377 48.5463 33.8658C48.6452 34.2249 48.6905 34.5566 48.6469 34.6028C48.6034 34.6491 47.613 34.7655 46.4463 34.8618C45.2795 34.9581 44.0202 35.0736 43.6479 35.1182L42.9706 35.1994L42.8815 31.5987C42.8036 28.4457 42.699 27.39 42.3401 26.1346C42.2633 25.8653 42.4545 25.8304 44.2746 25.781C45.3854 25.7509 46.7126 25.7094 47.224 25.6887L48.1538 25.6512L48.0622 27.9657ZM10.6031 27.8675C11.9273 30.4682 13.5028 31.9865 16.4277 33.4797C19.8571 35.2305 25.6637 36.6201 32.5097 37.3282C35.6876 37.6569 43.7603 37.6171 48.3454 37.2499C54.1846 36.7823 55.8472 36.4677 58.7491 35.2811C59.5522 34.9527 60.2356 34.7118 60.2676 34.7455C60.4354 34.9234 56.4235 38.7651 55.08 39.713C53.0217 41.1652 48.9539 43.2637 47.1147 43.822C45.3496 44.3579 41.0273 45.0274 37.5147 45.309C34.1922 45.5753 23.9875 45.4197 20.9382 45.0562C17.6966 44.6698 14.2687 43.8432 11.3946 42.7554C8.47145 41.6489 4.36973 39.2106 2.54329 37.4936L1.8516 36.8432L2.12844 35.2404C2.49209 33.1345 2.91186 31.9887 3.8835 30.4498C5.19926 28.3661 6.8178 27.0594 8.52707 26.7009C9.87517 26.4185 9.86138 26.4106 10.6031 27.8675ZM60.5086 43.7568C60.3339 46.4366 60.1039 47.1815 59.0765 48.3964L58.4377 49.1517L58.4324 47.0927C58.4263 44.7659 58.0415 42.9628 57.1987 41.3129L56.719 40.3737L57.9065 39.0468C58.5598 38.3169 59.4264 37.1936 59.8325 36.5503L60.571 35.3807L60.6173 38.3819C60.6427 40.0325 60.5938 42.4512 60.5086 43.7568ZM5.37797 41.174L6.47154 42.0008L6.08771 42.7349C5.14987 44.5279 4.90618 47.7266 5.515 50.2484C5.69551 50.9961 5.8432 51.6318 5.8432 51.661C5.8432 51.8171 4.58306 50.8907 3.86496 50.2069C2.23888 48.6582 1.91363 47.3305 1.78793 41.7306L1.69833 37.7325L2.99128 39.0399C3.70233 39.759 4.77638 40.7195 5.37797 41.174ZM56.0142 44.1212C56.4675 47.618 56.7706 50.5092 56.692 50.5869C56.6593 50.6192 55.931 51.125 55.0736 51.7112L53.5146 52.777L53.4173 50.5566C53.3138 48.1923 52.8904 46.439 52.0244 44.7897C51.8034 44.3689 51.6422 44.0092 51.666 43.9906C51.69 43.972 52.4601 43.4721 53.3776 42.8795C54.2949 42.2869 55.1348 41.6882 55.2438 41.549C55.3527 41.4099 55.4883 41.2962 55.5449 41.2964C55.6017 41.2966 55.8127 42.5678 56.0142 44.1212ZM10.7434 45.5692C10.2409 46.7725 9.94688 49.6383 10.1179 51.6658C10.1973 52.6071 10.2649 53.4704 10.268 53.5839C10.2716 53.7078 9.61031 53.5008 8.61454 53.0662L6.95498 52.342L7.0541 51.4691C7.10858 50.9889 7.15387 48.8263 7.15453 46.6631L7.15601 42.7303L9.11062 43.7643L11.0654 44.7983L10.7434 45.5692ZM51.3139 49.6855C51.6645 52.1444 51.7973 53.5278 51.6933 53.638C51.5523 53.7873 48.6789 54.9808 47.753 55.2746C47.4189 55.3806 47.4037 55.3161 47.3106 53.4248C47.2112 51.404 46.8538 49.815 45.9871 47.5425C45.7544 46.932 45.6176 46.3845 45.6829 46.3255C45.7484 46.2666 46.2819 46.0839 46.8685 45.9198C47.4552 45.7557 48.5259 45.3599 49.248 45.0406L50.5608 44.46L50.6676 45.1812C50.7264 45.5781 51.0172 47.6049 51.3139 49.6855ZM14.8688 45.8293C15.997 46.2318 17.0009 46.5821 17.0999 46.6073C17.2212 46.6384 17.1754 47.0688 16.9593 47.9293C16.5702 49.4792 16.5424 52.8183 16.9054 54.419C17.0352 54.9918 17.1212 55.4821 17.0963 55.5084C17.0283 55.5805 14.7969 55.0669 13.3282 54.641L12.0338 54.2658L12.1376 52.6047C12.1947 51.6912 12.2418 49.5852 12.2423 47.9248C12.2431 45.1294 12.2645 44.913 12.5303 45.0015C12.6884 45.054 13.7406 45.4265 14.8688 45.8293ZM44.3811 47.5975C45.0467 51.8063 45.6028 55.7321 45.5426 55.7961C45.3951 55.9522 42.0663 56.5889 40.8227 56.6988L39.5309 56.813L39.7693 55.6167C40.1274 53.8196 39.9626 51.6671 39.3186 49.7269C39.0328 48.8664 38.6986 47.9954 38.5757 47.7913C38.2885 47.3141 38.4027 47.209 39.2242 47.1947C39.5926 47.1884 40.7804 47.0419 41.8634 46.8691C42.9465 46.6965 43.9173 46.5453 44.0209 46.5331C44.129 46.5204 44.2825 46.9738 44.3811 47.5975ZM22.39 47.4085L24.578 47.6263L24.4815 48.1551C24.4285 48.4459 24.3387 49.5508 24.2821 50.6102C24.1649 52.803 24.3656 54.3792 24.9589 55.9259C25.3051 56.8285 25.3178 56.9409 25.0726 56.9403C24.921 56.9399 23.4413 56.7443 21.7845 56.5057C20.1277 56.267 18.7586 56.0718 18.7422 56.0718C18.7258 56.0718 18.7012 54.0284 18.6876 51.5308L18.6628 46.9896L19.4324 47.0901C19.8558 47.1453 21.1867 47.2886 22.39 47.4085ZM37.6244 49.5107C37.6396 50.5856 37.7533 52.7168 37.8774 54.2465C38.0326 56.1641 38.0495 57.0675 37.9317 57.1556C37.8379 57.2259 36.8193 57.2844 35.6686 57.286L33.5763 57.2886V56.0129C33.5763 54.5273 33.1506 49.5988 32.9342 48.5782C32.7555 47.7353 32.7261 47.7517 34.5609 47.6795C35.3281 47.6494 36.325 47.6093 36.7763 47.5905L37.5968 47.5561L37.6244 49.5107ZM31.345 49.2489C31.2935 49.9897 31.2216 50.6971 31.1855 50.8207C30.9825 51.5143 31.6376 55.5661 32.1819 56.9844C32.2863 57.2566 32.1803 57.2884 31.1734 57.2877C30.5546 57.2872 29.3368 57.237 28.4672 57.176L26.8864 57.0651L26.7825 56.2642C26.7254 55.8237 26.6061 54.0944 26.5175 52.4213C26.4289 50.7482 26.3207 49.0467 26.2773 48.6405L26.198 47.9017H28.8184H31.4387L31.345 49.2489ZM68.4452 61.4661C68.5865 64.2986 68.3776 66.1454 67.7732 67.4088C67.3656 68.2609 65.8655 69.9759 65.1955 70.3557C64.9121 70.5164 64.8985 70.4837 65.0265 69.9502C65.1031 69.631 65.1638 68.3139 65.1614 67.0232C65.1574 65.0379 65.101 64.5181 64.7948 63.6477C64.5957 63.0821 64.282 62.449 64.0977 62.2413L63.7626 61.8633L64.6284 61.2544C65.7398 60.4725 67.2177 59.041 67.724 58.2558L68.1196 57.6422L68.224 58.3834C68.2814 58.7912 68.3809 60.1784 68.4452 61.4661ZM11.5597 60.4864C11.9023 60.7155 12.7904 61.2266 13.5331 61.6222L14.8837 62.3416L14.564 62.7723C13.7429 63.8781 13.5589 67.6396 14.1996 70.2235C14.3871 70.9796 14.5406 71.6343 14.5406 71.6783C14.5406 71.8231 13.3233 70.8094 12.5394 70.0119C11.5774 69.0332 11.122 67.9315 10.9234 66.1017C10.7602 64.5977 10.7062 60.0699 10.8516 60.0699C10.8985 60.0699 11.2172 60.2573 11.5597 60.4864ZM63.1026 64.8503C63.0379 66.2844 63.0246 68.3231 63.0732 69.3809L63.1615 71.3042L61.7021 71.8719C60.8995 72.1841 60.1689 72.4626 60.0787 72.4906C59.9743 72.5231 59.9136 71.5531 59.9119 69.8259C59.9095 67.4126 59.8671 66.994 59.5312 66.0671C58.952 64.4686 58.9528 64.4658 60.1607 63.9153C60.7474 63.6479 61.6668 63.1455 62.2041 62.7987C62.7412 62.4519 63.1897 62.1849 63.2005 62.2055C63.2115 62.226 63.1674 63.4162 63.1026 64.8503ZM20.3662 64.7584C20.998 64.9779 21.5657 65.1879 21.6279 65.2249C21.6901 65.2619 21.5817 65.7403 21.387 66.2881C21.0679 67.1859 21.0326 67.6304 21.0278 70.8041C21.0249 72.7402 20.9856 74.3216 20.9405 74.3184C20.8954 74.3151 19.8246 73.9436 18.561 73.4927L16.2636 72.6728L16.2224 71.8036C16.1154 69.5401 15.662 63.9132 15.5421 63.3566L15.4073 62.7322L17.3124 63.5455C18.3602 63.993 19.7344 64.5386 20.3662 64.7584ZM58.0834 67.4143C58.1421 68.7767 58.1905 70.6869 58.1909 71.6593L58.1915 73.427L57.412 73.6963C56.9832 73.8444 55.9875 74.1116 55.199 74.2901L53.7655 74.6146L53.8862 73.9045C54.2209 71.9355 53.8372 68.7188 53.0804 67.1472C52.9004 66.7736 52.7768 66.4449 52.8057 66.4164C52.8346 66.388 53.8901 66.0783 55.1514 65.728C56.4127 65.3775 57.4773 65.0565 57.5172 65.0141C57.5571 64.9718 57.6767 64.9372 57.7831 64.9372C57.9173 64.9372 58.009 65.6937 58.0834 67.4143ZM25.4021 66.2568C26.5134 66.5149 27.4419 66.7418 27.4655 66.7609C27.489 66.7798 27.4394 67.3747 27.3552 68.0827C27.2711 68.7907 27.1206 70.1131 27.0208 71.0213C26.7587 73.4055 26.4911 75.541 26.4543 75.541C26.3593 75.541 23.2724 74.8171 23.0154 74.7346C22.7423 74.6468 22.7232 74.5176 22.8298 73.4809C22.8951 72.8452 22.9406 70.8112 22.9306 68.9607C22.9151 66.1094 22.9481 65.611 23.147 65.6918C23.2762 65.7443 24.291 65.9985 25.4021 66.2568ZM51.8222 68.2353C51.7835 69.0932 51.839 70.9398 51.9456 72.339C52.0522 73.738 52.1073 74.9169 52.0679 74.9586C51.9685 75.064 48.3942 75.7148 47.9153 75.7148C47.7007 75.7148 47.5249 75.6766 47.5249 75.6298C47.5249 75.5831 47.6867 74.9378 47.8845 74.1957C48.1661 73.1393 48.2448 72.3752 48.2476 70.6737C48.2496 69.4786 48.1687 68.2121 48.0681 67.8593L47.885 67.2179L48.8126 67.0974C49.3228 67.0312 50.0726 66.9184 50.4787 66.8468C51.9998 66.5784 51.9017 66.4769 51.8222 68.2353ZM31.1148 67.1927C34.9436 67.6083 34.5629 67.5167 34.3958 67.9819C34.2488 68.3918 34.1924 68.8259 33.6308 73.8625L33.343 76.4428L32.2699 76.3338C30.0644 76.1099 28.161 75.8429 28.161 75.7574C28.161 75.7089 28.3925 74.9559 28.6756 74.0841C29.4195 71.7925 29.4987 68.8271 28.863 67.0724C28.7924 66.8777 28.8489 66.8348 29.0798 66.9074C29.2513 66.9615 30.1671 67.0898 31.1148 67.1927ZM39.0324 67.5447H40.8324L40.6914 68.0227C40.614 68.2856 40.5506 70.2608 40.5506 72.412V76.3232L39.2378 76.4623C37.8899 76.605 35.1146 76.533 34.9426 76.3509C34.8896 76.2947 35.0006 75.8353 35.1891 75.33C35.9133 73.3895 36.0825 72.279 35.9779 70.1522C35.924 69.0527 35.8298 67.9649 35.7687 67.7345C35.6599 67.3241 35.6729 67.3182 36.4451 67.4303C36.878 67.4933 38.0423 67.5447 39.0324 67.5447ZM46.5259 68.1097C46.2663 69.053 45.763 72.2098 45.5441 74.2703L45.3373 76.2155L44.749 76.3043C44.4255 76.353 43.647 76.4439 43.0192 76.5061C42.0423 76.6031 41.9056 76.5836 42.0715 76.3717C42.4841 75.8454 42.8078 73.9367 42.6987 72.6761C42.5765 71.2651 42.115 69.2552 41.7399 68.5008L41.4806 67.9793L43.5593 67.7876C46.9476 67.4748 46.7079 67.4489 46.5259 68.1097Z" fill="#757575"/>
</svg>
