<svg width="20" height="20" viewBox="0 0 20 20" fill="none" xmlns="http://www.w3.org/2000/svg">
<path d="M15 1.16406C12.5 1.16406 11.2422 2.24219 10 3.66406C8.75781 2.24219 7.5 1.16406 5 1.16406C2.5 1.16406 0 2.83203 0 7.83204C0 10.332 2.5 15.332 10 19.5C17.5 15.332 20 10.332 20 7.83204C20 2.83203 17.5 1.16406 15 1.16406ZM10 17.5781C3.19141 13.5391 1.66797 9.20704 1.66797 7.83204C1.66797 5.55078 2.24609 2.83203 5 2.83203C6.75 2.83203 7.60156 3.45313 8.74609 4.76172L10 6.16407L11.2539 4.76172C12.3984 3.45313 13.25 2.83203 15 2.83203C17.7539 2.83203 18.332 5.55078 18.332 7.83204C18.332 9.20704 16.8086 13.5391 10 17.5781Z" fill="#6D3D67"/>
</svg>
