<svg width="19" height="19" viewBox="0 0 19 19" fill="none" xmlns="http://www.w3.org/2000/svg">
<g clip-path="url(#clip0_70_4683)">
<path d="M5.54167 4.74984H18.2083C18.4183 4.74984 18.6197 4.66643 18.7681 4.51796C18.9166 4.3695 19 4.16813 19 3.95817C19 3.74821 18.9166 3.54684 18.7681 3.39838C18.6197 3.24991 18.4183 3.1665 18.2083 3.1665H5.54167C5.3317 3.1665 5.13034 3.24991 4.98187 3.39838C4.83341 3.54684 4.75 3.74821 4.75 3.95817C4.75 4.16813 4.83341 4.3695 4.98187 4.51796C5.13034 4.66643 5.3317 4.74984 5.54167 4.74984Z" fill="black"/>
<path d="M18.2083 8.7085H5.54167C5.3317 8.7085 5.13034 8.7919 4.98187 8.94037C4.83341 9.08884 4.75 9.2902 4.75 9.50016C4.75 9.71013 4.83341 9.91149 4.98187 10.06C5.13034 10.2084 5.3317 10.2918 5.54167 10.2918H18.2083C18.4183 10.2918 18.6197 10.2084 18.7681 10.06C18.9166 9.91149 19 9.71013 19 9.50016C19 9.2902 18.9166 9.08884 18.7681 8.94037C18.6197 8.7919 18.4183 8.7085 18.2083 8.7085Z" fill="black"/>
<path d="M18.2083 14.25H5.54167C5.3317 14.25 5.13034 14.3334 4.98187 14.4819C4.83341 14.6303 4.75 14.8317 4.75 15.0417C4.75 15.2516 4.83341 15.453 4.98187 15.6015C5.13034 15.7499 5.3317 15.8333 5.54167 15.8333H18.2083C18.4183 15.8333 18.6197 15.7499 18.7681 15.6015C18.9166 15.453 19 15.2516 19 15.0417C19 14.8317 18.9166 14.6303 18.7681 14.4819C18.6197 14.3334 18.4183 14.25 18.2083 14.25Z" fill="black"/>
<path d="M1.58333 5.54167C2.45778 5.54167 3.16667 4.83278 3.16667 3.95833C3.16667 3.08388 2.45778 2.375 1.58333 2.375C0.708882 2.375 0 3.08388 0 3.95833C0 4.83278 0.708882 5.54167 1.58333 5.54167Z" fill="black"/>
<path d="M1.58333 11.0832C2.45778 11.0832 3.16667 10.3743 3.16667 9.49984C3.16667 8.62539 2.45778 7.9165 1.58333 7.9165C0.708882 7.9165 0 8.62539 0 9.49984C0 10.3743 0.708882 11.0832 1.58333 11.0832Z" fill="black"/>
<path d="M1.58333 16.6252C2.45778 16.6252 3.16667 15.9163 3.16667 15.0418C3.16667 14.1674 2.45778 13.4585 1.58333 13.4585C0.708882 13.4585 0 14.1674 0 15.0418C0 15.9163 0.708882 16.6252 1.58333 16.6252Z" fill="black"/>
</g>
<defs>
<clipPath id="clip0_70_4683">
<rect width="19" height="19" fill="white"/>
</clipPath>
</defs>
</svg>
