<svg width="180" height="180" viewBox="0 0 180 180" fill="none" xmlns="http://www.w3.org/2000/svg">
<path d="M72.2096 142.197C71.8118 143.437 71.6865 144.75 71.8424 146.045C72.0102 146.622 72.1428 147.21 72.2393 147.804C72.2762 148.504 72.2262 149.206 72.0905 149.893L71.9218 149.993C71.1867 149.659 70.61 149.049 70.3143 148.294C70.0814 147.555 70.0608 146.765 70.2548 146.015C70.3431 145.277 70.5474 144.559 70.8601 143.886C71.1656 143.235 71.5634 142.632 72.0409 142.097L72.2096 142.197Z" fill="#6F3E68"/>
<path d="M84.3432 139.428C84.4631 140.085 84.6596 140.726 84.9287 141.337C85.1731 141.918 85.4792 142.471 85.8416 142.986C86.2087 143.496 86.7545 143.816 87.0323 144.345C87.3946 144.941 87.6845 145.579 87.8956 146.244L87.7964 146.414C86.9904 146.478 86.1919 146.219 85.5737 145.695C85.0144 145.151 84.6217 144.457 84.4425 143.696C84.1697 143.002 84.0056 142.271 83.9562 141.527C83.9136 140.808 83.9771 140.087 84.1448 139.388L84.3432 139.428Z" fill="#6F3E68"/>
<path d="M119.093 87.9724C122.424 91.3982 125.577 94.9945 128.54 98.7472C131.548 102.527 134.258 106.537 136.647 110.742C137.22 111.835 137.717 112.967 138.135 114.13C138.582 115.289 138.989 116.469 139.356 117.688C139.727 118.927 139.999 120.194 140.17 121.476C140.387 122.86 140.387 124.27 140.17 125.654C139.914 127.261 139.144 128.739 137.977 129.862C136.781 130.93 135.294 131.609 133.71 131.811C131.056 132.04 128.384 131.699 125.871 130.812C121.234 129.241 116.795 127.131 112.644 124.525C108.532 122.013 104.557 119.28 100.736 116.339C93.155 110.526 85.9834 104.191 79.273 97.3779C72.5185 90.5686 66.2577 83.28 60.5386 75.5683C57.6627 71.6879 55.0122 67.643 52.6004 63.4541C50.0499 59.1956 48.1185 54.591 46.865 49.7806C46.5667 48.4689 46.4136 47.1281 46.4085 45.7825C46.3966 44.2717 46.7364 42.7791 47.4008 41.4246C48.1636 39.9363 49.4311 38.773 50.973 38.1461C52.3448 37.6167 53.8131 37.3884 55.2795 37.4764C57.8386 37.6612 60.3548 38.2375 62.7415 39.1856C63.9124 39.6054 65.0436 40.0952 66.1649 40.585C67.2964 41.0458 68.394 41.5869 69.4494 42.2042C73.5551 44.7347 77.4808 47.5501 81.198 50.6302C83.0437 52.1494 84.8596 53.7087 86.6258 55.3079C88.3921 56.9072 90.0988 58.5764 91.7956 60.2456C87.9257 57.4869 83.9864 54.8382 79.9676 52.3793C76.002 49.8995 71.8784 47.6857 67.6236 45.7525C66.5717 45.2927 65.5596 44.753 64.5376 44.2532C63.5155 43.7534 62.4538 43.3336 61.4019 42.9438C59.3878 42.1494 57.2676 41.661 55.1108 41.4945C54.2084 41.4249 53.3015 41.551 52.4515 41.8643C51.782 42.1331 51.232 42.6374 50.9036 43.2837C50.209 44.633 50.2983 46.842 50.7547 48.931C51.9318 53.3407 53.7154 57.5629 56.0535 61.475C58.3921 65.5259 60.9563 69.4403 63.7338 73.1994C69.336 80.7539 75.471 87.8923 82.0911 94.5592C88.6579 101.283 95.6839 107.535 103.118 113.27C106.815 116.139 110.66 118.808 114.638 121.266C118.518 123.699 122.664 125.675 126.992 127.154C128.956 127.843 131.039 128.125 133.114 127.983C133.895 127.948 134.637 127.634 135.208 127.097C135.779 126.56 136.141 125.836 136.23 125.055C136.443 122.99 136.21 120.903 135.546 118.938C135.226 117.859 134.852 116.798 134.424 115.759C133.978 114.76 133.432 113.69 133.035 112.621C131.234 108.293 129.128 104.101 126.734 100.077C125.553 98.0775 124.313 96.0085 123.033 94.0195C121.753 92.0304 120.443 89.9714 119.093 87.9724Z" fill="#6F3E68"/>
<path d="M92.2429 67.492L85.2969 75.858L104.011 94.699L112.317 87.7023C123.669 85.1635 136.558 77.987 142.383 72.1198C144.658 69.8273 146.462 67.106 147.692 64.1113C148.923 61.1166 149.555 57.9071 149.554 54.666C149.554 51.4249 148.919 48.2158 147.687 45.2218C146.455 42.2278 144.649 39.5075 142.373 37.2164C140.097 34.9253 137.396 33.1081 134.423 31.8687C131.45 30.6292 128.263 29.9917 125.046 29.9927C118.548 29.9946 112.316 32.5966 107.723 37.2264C101.888 43.0936 94.7633 56.0774 92.2429 67.492Z" stroke="#6F3E68" stroke-width="4" stroke-miterlimit="10"/>
<path d="M63.6248 76.3882C58.2306 77.6572 53.2709 80.3546 49.2584 84.2012C45.2459 88.0479 42.3263 92.9044 40.8013 98.2684C39.2763 103.633 39.2014 109.31 40.5843 114.713C41.9672 120.116 44.7577 125.048 48.6673 129.001C52.5769 132.954 57.4636 135.783 62.8223 137.196C68.1811 138.609 73.8172 138.555 79.1481 137.039C84.4789 135.523 89.311 132.6 93.1447 128.572C96.9785 124.545 99.6746 119.559 100.955 114.13" stroke="#6F3E68" stroke-width="4" stroke-miterlimit="10"/>
<path d="M57.463 67.6221C50.8474 69.8882 44.9135 73.8135 40.2203 79.0283C35.5271 84.243 32.2291 90.5754 30.6371 97.429C29.0452 104.282 29.2116 111.431 31.1207 118.202C33.0298 124.973 36.6188 131.143 41.5495 136.13C46.4802 141.118 52.5902 144.759 59.304 146.71C66.0177 148.661 73.1141 148.859 79.9246 147.284C86.7351 145.709 93.0354 142.413 98.2319 137.708C103.428 133.002 107.35 127.041 109.627 120.387" stroke="#6F3E68" stroke-width="4" stroke-miterlimit="10"/>
<path d="M111.811 41.9148C113.259 40.3014 114.971 38.9492 116.871 37.9167C118.823 36.8588 120.947 36.1614 123.142 35.8576C125.366 35.3906 127.669 35.4799 129.85 36.1175C132.014 36.8038 133.921 38.1351 135.318 39.9357L135.159 40.1856C132.976 39.7658 131.061 39.306 129.116 39.0261C127.214 38.6141 125.283 38.3534 123.341 38.2465C122.342 38.2572 121.346 38.3541 120.364 38.5364C119.372 38.7024 118.396 38.9532 117.447 39.286C115.494 39.9541 113.654 40.9181 111.989 42.1446L111.811 41.9148Z" fill="#6F3E68"/>
<path d="M138.871 67.9818C140.629 66.0108 141.874 63.6306 142.493 61.0551C142.801 59.7957 142.751 58.5063 142.959 57.2569C143.168 56.0075 143.267 54.6981 143.545 53.2588H143.743C144.497 54.5008 144.911 55.9215 144.944 57.3768C144.928 58.8233 144.61 60.2501 144.011 61.5648C143.495 62.8851 142.804 64.1291 141.957 65.2631C141.108 66.3678 140.105 67.3439 138.98 68.1617L138.871 67.9818Z" fill="#6F3E68"/>
<path d="M132.579 74.319C131.698 75.4508 130.643 76.4328 129.453 77.2276C128.876 77.6518 128.241 77.9886 127.567 78.2271C126.872 78.4651 126.135 78.5503 125.404 78.477V78.3871C125.99 77.9977 126.603 77.6535 127.24 77.3575C127.835 77.0277 128.5 76.8478 129.106 76.5379C130.343 75.9168 131.503 75.1483 132.559 74.249L132.579 74.319Z" fill="#6F3E68"/>
<path d="M54.8027 46.3321C55.9638 45.7411 57.2346 45.4006 58.5337 45.3326C59.8344 45.2619 61.138 45.4037 62.3937 45.7524C63.6537 46.1016 64.8474 46.6589 65.9263 47.4016C67.0087 48.1237 67.9283 49.067 68.6253 50.1703C67.4147 49.6905 66.3132 49.1708 65.2019 48.791C64.0905 48.4111 62.9891 47.9913 61.8678 47.6915C60.7403 47.3741 59.5978 47.1139 58.4444 46.9118C57.2834 46.692 56.0828 46.542 54.8027 46.3321Z" fill="#6F3E68"/>
<path d="M121.932 121.696C122.924 122.176 123.916 122.636 124.839 123.026C125.754 123.416 126.692 123.75 127.647 124.025C128.603 124.297 129.574 124.51 130.555 124.665C131.547 124.835 132.539 124.935 133.72 125.075C132.769 125.72 131.675 126.118 130.535 126.234C128.213 126.493 125.884 125.826 124.045 124.375C123.135 123.668 122.41 122.749 121.932 121.696Z" fill="#6F3E68"/>
</svg>
