<svg width="180" height="180" viewBox="0 0 180 180" fill="none" xmlns="http://www.w3.org/2000/svg">
<path d="M52.9993 93C51.9993 95.7 50.8093 98.3 49.5693 100.86C48.3293 103.42 46.9993 105.96 45.6393 108.46C44.2793 110.96 42.8493 113.46 41.3293 115.85C39.8093 118.24 38.2693 120.66 36.5293 122.96C37.5293 120.26 38.7193 117.66 39.9693 115.09C41.2193 112.52 42.5293 110 43.8893 107.5C45.2493 105 46.6893 102.5 48.1993 100.12C49.7093 97.74 51.2393 95.27 52.9993 93Z" fill="#6F3E68"/>
<path d="M52.0002 105.09C50.8627 107.903 49.5501 110.641 48.0702 113.29C46.6231 115.958 45.01 118.533 43.2402 121C44.3797 118.188 45.6922 115.449 47.1702 112.8C48.6219 110.134 50.2349 107.559 52.0002 105.09Z" fill="#6F3E68"/>
<path d="M104.089 49.1899C105.247 49.6306 106.255 50.3899 106.999 51.3799C107.423 51.866 107.734 52.4397 107.909 53.0599C108.061 53.6895 108.027 54.3498 107.809 54.9599H107.709C107.399 54.3899 107.189 53.8699 106.959 53.3599C106.729 52.8499 106.599 52.3599 106.329 51.8199C105.777 50.8014 104.988 49.9304 104.029 49.2799L104.089 49.1899Z" fill="#6F3E68"/>
<path d="M109.159 51.2202C110.324 51.6576 111.34 52.4172 112.089 53.4102C112.513 53.8926 112.824 54.463 112.999 55.0802C113.153 55.7137 113.115 56.3786 112.889 56.9902H112.789C112.489 56.4202 112.279 55.9002 112.039 55.3902C111.799 54.8802 111.689 54.3902 111.419 53.8502C110.861 52.8303 110.069 51.9566 109.109 51.3002L109.159 51.2202Z" fill="#6F3E68"/>
<path d="M78.69 70.7398C75.7342 72.0386 73.0271 73.8422 70.69 76.0698C69.53 77.1698 68.69 78.4698 67.55 79.6098C66.41 80.7498 65.43 81.9998 64.18 83.1198L64 82.9998C64.3271 81.3217 65.009 79.7329 66 78.3398C67.0219 76.9759 68.2619 75.7899 69.67 74.8298C71.0293 73.8247 72.4789 72.9476 74 72.2098C75.5 71.5 77.068 70.9439 78.68 70.5498L78.69 70.7398Z" fill="#6E3E67"/>
<path d="M82.2793 42.0498L117.629 60.5998L125.239 46.7598L94.4293 30.5898C93.2159 29.9634 91.8063 29.8345 90.4994 30.2303C89.1925 30.6261 88.0913 31.5155 87.4293 32.7098L82.2793 42.0498Z" stroke="#6F3E67" stroke-width="4" stroke-miterlimit="10"/>
<path d="M129.211 59.2301L122.221 55.5601L126.021 48.6401L133.011 52.3101L129.211 59.2301Z" fill="#6F3E67"/>
<path d="M108.48 72.2202L112.35 74.2202L118.42 63.2202L110.88 59.2202L106.81 66.6302C106.535 67.1028 106.36 67.6267 106.296 68.1696C106.231 68.7125 106.278 69.2629 106.435 69.7868C106.591 70.3106 106.854 70.7968 107.205 71.2154C107.557 71.6339 107.991 71.9759 108.48 72.2202Z" fill="#6F3E67"/>
<path d="M65.2498 147.76L29.4698 129C28.8302 128.668 28.2637 128.211 27.8037 127.657C27.3438 127.102 26.9996 126.461 26.7917 125.771C26.5838 125.081 26.5164 124.357 26.5933 123.64C26.6703 122.924 26.8901 122.23 27.2398 121.6L49.3598 81.3301L94.9198 105.24L72.7998 145.49C72.0853 146.778 70.8964 147.736 69.4862 148.16C68.0759 148.584 66.5559 148.44 65.2498 147.76V147.76Z" stroke="#6F3E67" stroke-width="4" stroke-linecap="round" stroke-linejoin="round"/>
<path d="M94.9194 105.23L96.9894 64.39L82.9594 57.02L49.3594 81.33L94.9194 105.23Z" stroke="#6F3E67" stroke-width="4" stroke-linecap="round" stroke-linejoin="round"/>
<path d="M143.163 57.5101C144.062 57.2394 144.575 56.304 144.309 55.4209C144.043 54.5377 143.099 54.0413 142.2 54.312C141.301 54.5828 140.788 55.5182 141.054 56.4013C141.32 57.2844 142.264 57.7809 143.163 57.5101Z" fill="#6F3E67"/>
<path d="M150.38 61.2973C151.279 61.0265 151.792 60.0911 151.526 59.208C151.26 58.3248 150.316 57.8284 149.417 58.0991C148.518 58.3699 148.005 59.3053 148.271 60.1884C148.537 61.0716 149.481 61.568 150.38 61.2973Z" fill="#6F3E67"/>
<path d="M139.351 64.4252C140.25 64.1544 140.763 63.219 140.497 62.3359C140.231 61.4528 139.287 60.9563 138.388 61.2271C137.489 61.4978 136.975 62.4332 137.241 63.3163C137.507 64.1995 138.452 64.6959 139.351 64.4252Z" fill="#6F3E67"/>
<path d="M145.546 70.077C146.445 69.8063 146.958 68.8709 146.692 67.9878C146.426 67.1046 145.482 66.6082 144.583 66.8789C143.684 67.1497 143.171 68.0851 143.437 68.9682C143.703 69.8513 144.647 70.3478 145.546 70.077Z" fill="#6F3E67"/>
<path d="M135.558 71.3471C136.457 71.0763 136.97 70.1409 136.704 69.2578C136.438 68.3746 135.494 67.8782 134.595 68.1489C133.696 68.4197 133.182 69.3551 133.448 70.2382C133.714 71.1214 134.659 71.6178 135.558 71.3471Z" fill="#6F3E67"/>
<path d="M140.735 78.8637C141.634 78.5929 142.148 77.6575 141.882 76.7744C141.616 75.8912 140.671 75.3948 139.772 75.6655C138.873 75.9363 138.36 76.8717 138.626 77.7548C138.892 78.638 139.836 79.1344 140.735 78.8637Z" fill="#6F3E67"/>
<path d="M157.692 65.1268C158.591 64.8561 159.105 63.9207 158.839 63.0376C158.573 62.1544 157.628 61.658 156.729 61.9287C155.83 62.1995 155.317 63.1349 155.583 64.018C155.849 64.9011 156.793 65.3976 157.692 65.1268Z" fill="#6F3E67"/>
<path d="M151.898 75.6688C152.797 75.3981 153.31 74.4627 153.044 73.5796C152.778 72.6964 151.833 72.2 150.934 72.4707C150.035 72.7415 149.522 73.6769 149.788 74.56C150.054 75.4431 150.999 75.9396 151.898 75.6688Z" fill="#6F3E67"/>
<path d="M146.11 86.2011C147.009 85.9303 147.523 84.9949 147.257 84.1118C146.991 83.2286 146.046 82.7322 145.147 83.0029C144.248 83.2737 143.735 84.2091 144.001 85.0922C144.267 85.9754 145.211 86.4718 146.11 86.2011Z" fill="#6F3E67"/>
<path d="M89.2009 45.6699L103.231 53.0399L96.9909 64.3899L82.9609 57.0199L89.2009 45.6699Z" stroke="#6F3E67" stroke-width="4" stroke-linecap="round" stroke-linejoin="round"/>
</svg>
