<svg width="24" height="24" viewBox="0 0 24 24" fill="none" xmlns="http://www.w3.org/2000/svg">
<g clip-path="url(#clip0_70_3995)">
<path d="M23.5006 6.50695C23.3647 6.02219 23.1 5.5833 22.7346 5.23695C22.3589 4.87996 21.8984 4.62459 21.3966 4.49495C19.5186 3.99995 11.9946 3.99995 11.9946 3.99995C8.85795 3.96427 5.72205 4.12123 2.60462 4.46995C2.10281 4.60917 1.64318 4.87024 1.26662 5.22995C0.896617 5.58595 0.628617 6.02495 0.488617 6.50595C0.15231 8.3177 -0.0110908 10.1573 0.000617183 12C-0.0113828 13.841 0.151617 15.68 0.488617 17.494C0.625617 17.973 0.892617 18.41 1.26362 18.763C1.63462 19.116 2.09662 19.371 2.60462 19.506C4.50762 20 11.9946 20 11.9946 20C15.1353 20.0357 18.2752 19.8787 21.3966 19.53C21.8984 19.4003 22.3589 19.145 22.7346 18.788C23.1046 18.435 23.3676 17.996 23.4996 17.518C23.8447 15.7069 24.0125 13.8665 24.0006 12.023C24.0266 10.1716 23.859 8.32252 23.5006 6.50595V6.50695ZM9.60262 15.424V8.57695L15.8626 12.001L9.60262 15.424Z" fill="#6D3D67"/>
</g>
<defs>
<clipPath id="clip0_70_3995">
<rect width="24" height="24" fill="white"/>
</clipPath>
</defs>
</svg>
