<svg width="138" height="394" viewBox="0 0 138 394" fill="none" xmlns="http://www.w3.org/2000/svg">
<path d="M3.30274 306.438C3.79673 305.773 3.65807 304.833 2.99304 304.339C2.32801 303.845 1.38844 303.984 0.894447 304.649C0.400458 305.314 0.539114 306.253 1.20414 306.747C1.86918 307.241 2.80875 307.103 3.30274 306.438Z" fill="#6D3D67"/>
<path d="M14.0361 291.988C14.5301 291.323 14.3915 290.383 13.7264 289.889C13.0614 289.395 12.1218 289.534 11.6278 290.199C11.1339 290.864 11.2725 291.803 11.9375 292.297C12.6026 292.791 13.5421 292.653 14.0361 291.988Z" fill="#6D3D67"/>
<path d="M24.7694 277.538C25.2634 276.873 25.1247 275.933 24.4597 275.439C23.7947 274.945 22.8551 275.084 22.3611 275.749C21.8671 276.414 22.0058 277.354 22.6708 277.848C23.3359 278.342 24.2754 278.203 24.7694 277.538Z" fill="#6D3D67"/>
<path d="M35.5028 263.088C35.9968 262.423 35.8581 261.484 35.1931 260.99C34.5281 260.496 33.5885 260.634 33.0945 261.299C32.6005 261.964 32.7392 262.904 33.4042 263.398C34.0692 263.892 35.0088 263.753 35.5028 263.088Z" fill="#6D3D67"/>
<path d="M46.2362 248.639C46.7302 247.974 46.5915 247.034 45.9265 246.54C45.2615 246.046 44.3219 246.185 43.8279 246.85C43.3339 247.515 43.4726 248.454 44.1376 248.948C44.8026 249.442 45.7422 249.304 46.2362 248.639Z" fill="#6D3D67"/>
<path d="M56.9696 234.189C57.4636 233.524 57.3249 232.584 56.6599 232.09C55.9949 231.596 55.0553 231.735 54.5613 232.4C54.0673 233.065 54.206 234.005 54.871 234.499C55.536 234.993 56.4756 234.854 56.9696 234.189Z" fill="#6D3D67"/>
<path d="M67.7029 219.739C68.1969 219.074 68.0582 218.135 67.3932 217.641C66.7282 217.147 65.7886 217.285 65.2946 217.95C64.8006 218.615 64.9393 219.555 65.6043 220.049C66.2693 220.543 67.2089 220.404 67.7029 219.739Z" fill="#6D3D67"/>
<path d="M78.4363 205.289C78.9303 204.624 78.7916 203.685 78.1266 203.191C77.4616 202.697 76.522 202.835 76.028 203.5C75.534 204.165 75.6727 205.105 76.3377 205.599C77.0027 206.093 77.9423 205.954 78.4363 205.289Z" fill="#6D3D67"/>
<path d="M89.1697 190.84C89.6637 190.175 89.525 189.235 88.86 188.741C88.195 188.247 87.2554 188.386 86.7614 189.051C86.2674 189.716 86.4061 190.655 87.0711 191.149C87.7361 191.643 88.6757 191.505 89.1697 190.84Z" fill="#6D3D67"/>
<path d="M99.903 176.39C100.397 175.725 100.258 174.785 99.5933 174.291C98.9282 173.797 97.9887 173.936 97.4947 174.601C97.0007 175.266 97.1393 176.206 97.8044 176.7C98.4694 177.194 99.409 177.055 99.903 176.39Z" fill="#6D3D67"/>
<path d="M110.636 161.94C111.13 161.275 110.992 160.336 110.327 159.842C109.662 159.348 108.722 159.486 108.228 160.151C107.734 160.816 107.873 161.756 108.538 162.25C109.203 162.744 110.142 162.605 110.636 161.94Z" fill="#6D3D67"/>
<path d="M121.37 147.49C121.864 146.825 121.725 145.886 121.06 145.392C120.395 144.898 119.455 145.036 118.961 145.701C118.467 146.367 118.606 147.306 119.271 147.8C119.936 148.294 120.876 148.155 121.37 147.49Z" fill="#6D3D67"/>
<path d="M132.103 133.041C132.597 132.376 132.458 131.436 131.793 130.942C131.128 130.448 130.189 130.587 129.695 131.252C129.201 131.917 129.34 132.856 130.005 133.35C130.67 133.844 131.609 133.706 132.103 133.041Z" fill="#6D3D67"/>
<path d="M17.7524 317.171C18.2464 316.506 18.1078 315.566 17.4427 315.072C16.7777 314.578 15.8381 314.717 15.3442 315.382C14.8502 316.047 14.9888 316.987 15.6539 317.481C16.3189 317.975 17.2585 317.836 17.7524 317.171Z" fill="#6D3D67"/>
<path d="M28.4858 302.721C28.9798 302.056 28.8412 301.117 28.1761 300.623C27.5111 300.129 26.5715 300.267 26.0776 300.932C25.5836 301.597 25.7222 302.537 26.3873 303.031C27.0523 303.525 27.9919 303.386 28.4858 302.721Z" fill="#6D3D67"/>
<path d="M39.2192 288.271C39.7132 287.606 39.5746 286.667 38.9095 286.173C38.2445 285.679 37.3049 285.817 36.811 286.483C36.317 287.148 36.4556 288.087 37.1206 288.581C37.7857 289.075 38.7253 288.936 39.2192 288.271Z" fill="#6D3D67"/>
<path d="M49.9525 273.822C50.4465 273.157 50.3078 272.217 49.6428 271.723C48.9778 271.229 48.0382 271.368 47.5442 272.033C47.0502 272.698 47.1889 273.637 47.8539 274.131C48.519 274.625 49.4585 274.487 49.9525 273.822Z" fill="#6D3D67"/>
<path d="M60.6859 259.372C61.1799 258.707 61.0412 257.767 60.3762 257.273C59.7112 256.779 58.7716 256.918 58.2776 257.583C57.7836 258.248 57.9223 259.188 58.5873 259.682C59.2524 260.176 60.1919 260.037 60.6859 259.372Z" fill="#6D3D67"/>
<path d="M71.4193 244.922C71.9133 244.257 71.7746 243.318 71.1096 242.824C70.4446 242.33 69.505 242.468 69.011 243.133C68.517 243.798 68.6557 244.738 69.3207 245.232C69.9858 245.726 70.9253 245.587 71.4193 244.922Z" fill="#6D3D67"/>
<path d="M82.1527 230.472C82.6467 229.807 82.508 228.868 81.843 228.374C81.178 227.88 80.2384 228.019 79.7444 228.684C79.2504 229.349 79.3891 230.288 80.0541 230.782C80.7192 231.276 81.6587 231.137 82.1527 230.472Z" fill="#6D3D67"/>
<path d="M92.886 216.023C93.38 215.358 93.2413 214.418 92.5763 213.924C91.9113 213.43 90.9717 213.569 90.4777 214.234C89.9837 214.899 90.1224 215.838 90.7874 216.332C91.4524 216.826 92.392 216.688 92.886 216.023Z" fill="#6D3D67"/>
<path d="M103.619 201.573C104.113 200.908 103.975 199.968 103.31 199.474C102.645 198.98 101.705 199.119 101.211 199.784C100.717 200.449 100.856 201.389 101.521 201.883C102.186 202.377 103.125 202.238 103.619 201.573Z" fill="#6D3D67"/>
<path d="M114.353 187.123C114.847 186.458 114.708 185.519 114.043 185.025C113.378 184.531 112.438 184.669 111.944 185.334C111.451 185.999 111.589 186.939 112.254 187.433C112.919 187.927 113.859 187.788 114.353 187.123Z" fill="#6D3D67"/>
<path d="M125.086 172.673C125.58 172.008 125.441 171.069 124.776 170.575C124.111 170.081 123.172 170.22 122.678 170.885C122.184 171.55 122.322 172.489 122.987 172.983C123.653 173.477 124.592 173.339 125.086 172.673Z" fill="#6D3D67"/>
<path d="M135.819 158.224C136.313 157.559 136.175 156.619 135.51 156.125C134.845 155.631 133.905 155.77 133.411 156.435C132.917 157.1 133.056 158.039 133.721 158.533C134.386 159.027 135.325 158.889 135.819 158.224Z" fill="#6D3D67"/>
<path d="M32.2023 327.904C32.6963 327.239 32.5576 326.3 31.8926 325.806C31.2275 325.312 30.288 325.45 29.794 326.115C29.3 326.78 29.4387 327.72 30.1037 328.214C30.7687 328.708 31.7083 328.569 32.2023 327.904Z" fill="#6D3D67"/>
<path d="M42.9355 313.455C43.4295 312.789 43.2909 311.85 42.6259 311.356C41.9608 310.862 41.0212 311.001 40.5273 311.666C40.0333 312.331 40.1719 313.27 40.837 313.764C41.502 314.258 42.4416 314.12 42.9355 313.455Z" fill="#6D3D67"/>
<path d="M53.6689 299.005C54.1629 298.34 54.0243 297.4 53.3592 296.906C52.6942 296.412 51.7546 296.551 51.2607 297.216C50.7667 297.881 50.9053 298.821 51.5704 299.314C52.2354 299.808 53.175 299.67 53.6689 299.005Z" fill="#6D3D67"/>
<path d="M64.4023 284.555C64.8963 283.89 64.7577 282.95 64.0926 282.456C63.4276 281.962 62.488 282.101 61.9941 282.766C61.5001 283.431 61.6387 284.371 62.3038 284.865C62.9688 285.359 63.9084 285.22 64.4023 284.555Z" fill="#6D3D67"/>
<path d="M75.1356 270.105C75.6296 269.44 75.491 268.501 74.8259 268.007C74.1609 267.513 73.2213 267.651 72.7273 268.316C72.2333 268.981 72.372 269.921 73.037 270.415C73.7021 270.909 74.6416 270.77 75.1356 270.105Z" fill="#6D3D67"/>
<path d="M85.869 255.656C86.363 254.991 86.2244 254.051 85.5593 253.557C84.8943 253.063 83.9547 253.202 83.4607 253.867C82.9667 254.532 83.1054 255.471 83.7704 255.965C84.4355 256.459 85.375 256.321 85.869 255.656Z" fill="#6D3D67"/>
<path d="M96.6024 241.206C97.0964 240.541 96.9578 239.601 96.2927 239.107C95.6277 238.613 94.6881 238.752 94.1941 239.417C93.7001 240.082 93.8388 241.022 94.5038 241.516C95.1689 242.01 96.1084 241.871 96.6024 241.206Z" fill="#6D3D67"/>
<path d="M107.336 226.756C107.83 226.091 107.691 225.151 107.026 224.657C106.361 224.163 105.422 224.302 104.928 224.967C104.434 225.632 104.572 226.572 105.237 227.066C105.902 227.56 106.842 227.421 107.336 226.756Z" fill="#6D3D67"/>
<path d="M118.069 212.306C118.563 211.641 118.424 210.702 117.759 210.208C117.094 209.714 116.155 209.852 115.661 210.517C115.167 211.183 115.305 212.122 115.971 212.616C116.636 213.11 117.575 212.971 118.069 212.306Z" fill="#6D3D67"/>
<path d="M128.802 197.857C129.296 197.192 129.158 196.252 128.493 195.758C127.828 195.264 126.888 195.403 126.394 196.068C125.9 196.733 126.039 197.672 126.704 198.166C127.369 198.66 128.309 198.522 128.802 197.857Z" fill="#6D3D67"/>
<path d="M139.536 183.407C140.03 182.742 139.891 181.802 139.226 181.308C138.561 180.814 137.622 180.953 137.128 181.618C136.634 182.283 136.772 183.223 137.437 183.717C138.102 184.211 139.042 184.072 139.536 183.407Z" fill="#6D3D67"/>
<path d="M46.652 338.638C47.146 337.973 47.0073 337.033 46.3423 336.539C45.6773 336.045 44.7377 336.184 44.2437 336.849C43.7497 337.514 43.8884 338.453 44.5534 338.947C45.2184 339.441 46.158 339.303 46.652 338.638Z" fill="#6D3D67"/>
<path d="M57.3853 324.188C57.8792 323.523 57.7406 322.583 57.0756 322.089C56.4105 321.595 55.471 321.734 54.977 322.399C54.483 323.064 54.6216 324.004 55.2867 324.498C55.9517 324.992 56.8913 324.853 57.3853 324.188Z" fill="#6D3D67"/>
<path d="M68.1187 309.738C68.6126 309.073 68.474 308.134 67.809 307.64C67.1439 307.146 66.2044 307.284 65.7104 307.949C65.2164 308.614 65.355 309.554 66.0201 310.048C66.6851 310.542 67.6247 310.403 68.1187 309.738Z" fill="#6D3D67"/>
<path d="M78.8521 295.288C79.346 294.623 79.2074 293.684 78.5424 293.19C77.8773 292.696 76.9378 292.834 76.4438 293.5C75.9498 294.165 76.0884 295.104 76.7535 295.598C77.4185 296.092 78.3581 295.953 78.8521 295.288Z" fill="#6D3D67"/>
<path d="M89.5855 280.839C90.0794 280.174 89.9408 279.234 89.2758 278.74C88.6107 278.246 87.6712 278.385 87.1772 279.05C86.6832 279.715 86.8218 280.654 87.4869 281.148C88.1519 281.642 89.0915 281.504 89.5855 280.839Z" fill="#6D3D67"/>
<path d="M100.319 266.389C100.813 265.724 100.674 264.784 100.009 264.29C99.344 263.796 98.4044 263.935 97.9104 264.6C97.4164 265.265 97.5551 266.205 98.2201 266.699C98.8852 267.193 99.8247 267.054 100.319 266.389Z" fill="#6D3D67"/>
<path d="M111.052 251.939C111.546 251.274 111.407 250.335 110.742 249.841C110.077 249.347 109.138 249.485 108.644 250.15C108.15 250.815 108.289 251.755 108.954 252.249C109.619 252.743 110.558 252.604 111.052 251.939Z" fill="#6D3D67"/>
<path d="M121.786 237.489C122.28 236.824 122.141 235.885 121.476 235.391C120.811 234.897 119.871 235.036 119.377 235.701C118.883 236.366 119.022 237.305 119.687 237.799C120.352 238.293 121.292 238.155 121.786 237.489Z" fill="#6D3D67"/>
<path d="M132.519 223.04C133.013 222.375 132.874 221.435 132.209 220.941C131.544 220.447 130.605 220.586 130.111 221.251C129.617 221.916 129.755 222.855 130.42 223.349C131.085 223.843 132.025 223.705 132.519 223.04Z" fill="#6D3D67"/>
<path d="M61.1017 349.371C61.5957 348.706 61.457 347.766 60.792 347.272C60.127 346.778 59.1874 346.917 58.6934 347.582C58.1994 348.247 58.3381 349.187 59.0031 349.681C59.6681 350.175 60.6077 350.036 61.1017 349.371Z" fill="#6D3D67"/>
<path d="M71.8351 334.921C72.3291 334.256 72.1904 333.317 71.5254 332.823C70.8604 332.329 69.9208 332.467 69.4268 333.132C68.9328 333.797 69.0715 334.737 69.7365 335.231C70.4015 335.725 71.3411 335.586 71.8351 334.921Z" fill="#6D3D67"/>
<path d="M82.5684 320.472C83.0624 319.806 82.9237 318.867 82.2587 318.373C81.5936 317.879 80.6541 318.018 80.1601 318.683C79.6661 319.348 79.8047 320.287 80.4698 320.781C81.1348 321.275 82.0744 321.137 82.5684 320.472Z" fill="#6D3D67"/>
<path d="M93.3018 306.022C93.7957 305.357 93.6571 304.417 92.9921 303.923C92.327 303.429 91.3875 303.568 90.8935 304.233C90.3995 304.898 90.5381 305.837 91.2032 306.331C91.8682 306.825 92.8078 306.687 93.3018 306.022Z" fill="#6D3D67"/>
<path d="M104.035 291.572C104.529 290.907 104.39 289.967 103.725 289.473C103.06 288.979 102.121 289.118 101.627 289.783C101.133 290.448 101.272 291.388 101.937 291.882C102.602 292.376 103.541 292.237 104.035 291.572Z" fill="#6D3D67"/>
<path d="M114.769 277.122C115.263 276.457 115.124 275.518 114.459 275.024C113.794 274.53 112.854 274.668 112.36 275.333C111.866 275.998 112.005 276.938 112.67 277.432C113.335 277.926 114.275 277.787 114.769 277.122Z" fill="#6D3D67"/>
<path d="M125.502 262.673C125.996 262.008 125.857 261.068 125.192 260.574C124.527 260.08 123.588 260.219 123.094 260.884C122.6 261.549 122.738 262.488 123.403 262.982C124.068 263.476 125.008 263.338 125.502 262.673Z" fill="#6D3D67"/>
<path d="M136.235 248.223C136.729 247.558 136.591 246.618 135.926 246.124C135.261 245.63 134.321 245.769 133.827 246.434C133.333 247.099 133.472 248.039 134.137 248.533C134.802 249.026 135.741 248.888 136.235 248.223Z" fill="#6D3D67"/>
<path d="M75.5514 360.104C76.0454 359.439 75.9067 358.5 75.2417 358.006C74.5767 357.512 73.6371 357.65 73.1431 358.315C72.6491 358.98 72.7878 359.92 73.4528 360.414C74.1178 360.908 75.0574 360.769 75.5514 360.104Z" fill="#6D3D67"/>
<path d="M86.2848 345.655C86.7788 344.99 86.6401 344.05 85.9751 343.556C85.3101 343.062 84.3705 343.201 83.8765 343.866C83.3825 344.531 83.5212 345.47 84.1862 345.964C84.8512 346.458 85.7908 346.32 86.2848 345.655Z" fill="#6D3D67"/>
<path d="M97.0182 331.205C97.5122 330.54 97.3735 329.6 96.7085 329.106C96.0435 328.612 95.1039 328.751 94.6099 329.416C94.1159 330.081 94.2546 331.021 94.9196 331.515C95.5846 332.009 96.5242 331.87 97.0182 331.205Z" fill="#6D3D67"/>
<path d="M107.751 316.755C108.245 316.09 108.107 315.151 107.442 314.657C106.777 314.163 105.837 314.301 105.343 314.966C104.849 315.631 104.988 316.571 105.653 317.065C106.318 317.559 107.257 317.42 107.751 316.755Z" fill="#6D3D67"/>
<path d="M118.485 302.305C118.979 301.64 118.84 300.701 118.175 300.207C117.51 299.713 116.571 299.851 116.077 300.516C115.583 301.182 115.721 302.121 116.386 302.615C117.051 303.109 117.991 302.97 118.485 302.305Z" fill="#6D3D67"/>
<path d="M129.218 287.856C129.712 287.191 129.574 286.251 128.909 285.757C128.244 285.263 127.304 285.402 126.81 286.067C126.316 286.732 126.455 287.671 127.12 288.165C127.785 288.659 128.724 288.521 129.218 287.856Z" fill="#6D3D67"/>
<path d="M139.952 273.406C140.446 272.741 140.307 271.801 139.642 271.307C138.977 270.813 138.037 270.952 137.543 271.617C137.049 272.282 137.188 273.222 137.853 273.716C138.518 274.21 139.458 274.071 139.952 273.406Z" fill="#6D3D67"/>
<path d="M90.0012 370.838C90.4952 370.173 90.3566 369.233 89.6915 368.739C89.0265 368.245 88.0869 368.384 87.5929 369.049C87.0989 369.714 87.2376 370.653 87.9026 371.147C88.5677 371.641 89.5072 371.503 90.0012 370.838Z" fill="#6D3D67"/>
<path d="M100.734 356.388C101.228 355.723 101.09 354.783 100.425 354.289C99.7598 353.795 98.8202 353.934 98.3262 354.599C97.8322 355.264 97.9709 356.204 98.6359 356.698C99.3009 357.192 100.241 357.053 100.734 356.388Z" fill="#6D3D67"/>
<path d="M111.468 341.938C111.962 341.273 111.823 340.334 111.158 339.84C110.493 339.346 109.554 339.484 109.06 340.149C108.566 340.814 108.704 341.754 109.369 342.248C110.034 342.742 110.974 342.603 111.468 341.938Z" fill="#6D3D67"/>
<path d="M122.201 327.488C122.695 326.823 122.557 325.884 121.892 325.39C121.227 324.896 120.287 325.035 119.793 325.7C119.299 326.365 119.438 327.304 120.103 327.798C120.768 328.292 121.707 328.154 122.201 327.488Z" fill="#6D3D67"/>
<path d="M132.935 313.039C133.429 312.374 133.29 311.434 132.625 310.94C131.96 310.446 131.02 310.585 130.526 311.25C130.032 311.915 130.171 312.854 130.836 313.348C131.501 313.842 132.441 313.704 132.935 313.039Z" fill="#6D3D67"/>
<path d="M104.451 381.571C104.945 380.906 104.806 379.966 104.141 379.472C103.476 378.978 102.537 379.117 102.043 379.782C101.549 380.447 101.687 381.387 102.352 381.881C103.017 382.375 103.957 382.236 104.451 381.571Z" fill="#6D3D67"/>
<path d="M115.184 367.121C115.678 366.456 115.54 365.517 114.875 365.023C114.209 364.529 113.27 364.667 112.776 365.332C112.282 365.998 112.421 366.937 113.086 367.431C113.751 367.925 114.69 367.786 115.184 367.121Z" fill="#6D3D67"/>
<path d="M125.918 352.672C126.412 352.007 126.273 351.067 125.608 350.573C124.943 350.079 124.003 350.218 123.509 350.883C123.015 351.548 123.154 352.487 123.819 352.981C124.484 353.475 125.424 353.337 125.918 352.672Z" fill="#6D3D67"/>
<path d="M136.651 338.222C137.145 337.557 137.006 336.617 136.341 336.123C135.676 335.629 134.737 335.768 134.243 336.433C133.749 337.098 133.887 338.038 134.552 338.532C135.217 339.026 136.157 338.887 136.651 338.222Z" fill="#6D3D67"/>
<path d="M118.901 392.304C119.395 391.639 119.256 390.7 118.591 390.206C117.926 389.712 116.986 389.85 116.492 390.516C115.998 391.181 116.137 392.12 116.802 392.614C117.467 393.108 118.407 392.969 118.901 392.304Z" fill="#6D3D67"/>
<path d="M129.634 377.855C130.128 377.19 129.989 376.25 129.324 375.756C128.659 375.262 127.72 375.401 127.226 376.066C126.732 376.731 126.87 377.67 127.535 378.164C128.2 378.658 129.14 378.52 129.634 377.855Z" fill="#6D3D67"/>
<path d="M140.367 363.405C140.861 362.74 140.723 361.8 140.058 361.306C139.393 360.812 138.453 360.951 137.959 361.616C137.465 362.281 137.604 363.221 138.269 363.715C138.934 364.209 139.873 364.07 140.367 363.405Z" fill="#6D3D67"/>
</svg>
