<svg width="32" height="32" viewBox="0 0 32 32" fill="none" xmlns="http://www.w3.org/2000/svg">
<path d="M27.5 5.75H22.25V3.75C22.25 3.6125 22.1375 3.5 22 3.5H20.25C20.1125 3.5 20 3.6125 20 3.75V5.75H12V3.75C12 3.6125 11.8875 3.5 11.75 3.5H10C9.8625 3.5 9.75 3.6125 9.75 3.75V5.75H4.5C3.94687 5.75 3.5 6.19688 3.5 6.75V27.5C3.5 28.0531 3.94687 28.5 4.5 28.5H27.5C28.0531 28.5 28.5 28.0531 28.5 27.5V6.75C28.5 6.19688 28.0531 5.75 27.5 5.75ZM26.25 26.25H5.75V14.375H26.25V26.25ZM5.75 12.25V8H9.75V9.5C9.75 9.6375 9.8625 9.75 10 9.75H11.75C11.8875 9.75 12 9.6375 12 9.5V8H20V9.5C20 9.6375 20.1125 9.75 20.25 9.75H22C22.1375 9.75 22.25 9.6375 22.25 9.5V8H26.25V12.25H5.75Z" fill="#6D3D67"/>
</svg>
