<svg width="307" height="90" viewBox="0 0 307 90" fill="none" xmlns="http://www.w3.org/2000/svg">
<path d="M305.295 79.6213C305.295 84.4175 301.387 88.3025 296.554 88.3025H10.51C5.67913 88.3025 1.75787 84.4175 1.75787 79.6213V10.3913C1.75787 5.59735 5.67913 1.69873 10.51 1.69873H296.552C301.387 1.69873 305.292 5.59735 305.292 10.3913L305.295 79.6213Z" fill="black"/>
<path d="M295.632 1.80282C300.895 1.80282 305.178 6.04126 305.178 11.25V78.75C305.178 83.9588 300.895 88.1972 295.632 88.1972H11.421C6.15745 88.1972 1.8744 83.9588 1.8744 78.75V11.25C1.8744 6.04126 6.15745 1.80282 11.421 1.80282H295.632ZM295.632 9.48061e-06H11.421C5.17124 9.48061e-06 0.0526123 5.06532 0.0526123 11.25V78.75C0.0526123 84.9347 5.17124 90 11.421 90H295.632C301.881 90 307 84.9347 307 78.75V11.25C307 5.06532 301.881 9.48061e-06 295.632 9.48061e-06Z" fill="white"/>
<path d="M68.5543 44.5139C68.4883 37.2622 74.5545 33.7342 74.8319 33.5699C71.3964 28.6132 66.0714 27.9359 64.2002 27.8819C59.7278 27.4162 55.3896 30.5302 53.1114 30.5302C50.7877 30.5302 47.2794 27.9269 43.4983 28.0034C38.6326 28.0777 34.0807 30.8654 31.5842 35.1944C26.432 44.0212 30.2745 56.9924 35.2107 64.1272C37.6799 67.6214 40.5652 71.5229 44.3418 71.3857C48.0365 71.2349 49.4167 69.0546 53.8754 69.0546C58.2931 69.0546 59.5891 71.3857 63.4407 71.2979C67.406 71.2349 69.9025 67.7879 72.2854 64.2622C75.1388 60.2572 76.2848 56.3129 76.3303 56.1104C76.237 56.0789 68.6293 53.2057 68.5543 44.5139Z" fill="white"/>
<path d="M61.2785 23.1884C63.2657 20.7292 64.6253 17.3834 64.2479 13.9882C61.3717 14.1142 57.7747 15.9569 55.7034 18.3622C53.8708 20.4817 52.2338 23.9557 52.6567 27.2227C55.8876 27.4612 59.2049 25.6094 61.2785 23.1884Z" fill="white"/>
<path d="M122.024 70.884H116.861L114.032 62.0888H104.201L101.507 70.884H96.4795L106.22 40.941H112.236L122.024 70.884ZM113.18 58.3988L110.622 50.58C110.351 49.7813 109.844 47.9003 109.096 44.9393H109.005C108.707 46.2128 108.228 48.0938 107.568 50.58L105.056 58.3988H113.18Z" fill="white"/>
<path d="M147.074 59.8235C147.074 63.4955 146.071 66.398 144.065 68.5287C142.269 70.4255 140.039 71.3727 137.376 71.3727C134.502 71.3727 132.438 70.3512 131.181 68.3082H131.09V79.682H126.242V56.4012C126.242 54.0927 126.181 51.7235 126.062 49.2935H130.326L130.596 52.7157H130.687C132.304 50.1372 134.757 48.8502 138.049 48.8502C140.623 48.8502 142.772 49.856 144.491 51.8697C146.214 53.8857 147.074 56.5362 147.074 59.8235ZM142.135 59.999C142.135 57.8975 141.658 56.165 140.698 54.8015C139.65 53.3795 138.243 52.6685 136.478 52.6685C135.282 52.6685 134.195 53.0645 133.225 53.8452C132.251 54.6327 131.615 55.661 131.317 56.9345C131.167 57.5285 131.092 58.0145 131.092 58.397V61.997C131.092 63.5675 131.578 64.8927 132.552 65.975C133.525 67.0572 134.789 67.5972 136.344 67.5972C138.17 67.5972 139.591 66.8997 140.607 65.5092C141.626 64.1165 142.135 62.2805 142.135 59.999Z" fill="white"/>
<path d="M172.168 59.8235C172.168 63.4955 171.166 66.398 169.158 68.5287C167.364 70.4255 165.134 71.3727 162.471 71.3727C159.597 71.3727 157.533 70.3512 156.278 68.3082H156.187V79.682H151.339V56.4012C151.339 54.0927 151.278 51.7235 151.16 49.2935H155.423L155.693 52.7157H155.784C157.399 50.1372 159.852 48.8502 163.146 48.8502C165.718 48.8502 167.867 49.856 169.59 51.8697C171.307 53.8857 172.168 56.5362 172.168 59.8235ZM167.23 59.999C167.23 57.8975 166.75 56.165 165.791 54.8015C164.743 53.3795 163.34 52.6685 161.573 52.6685C160.375 52.6685 159.29 53.0645 158.317 53.8452C157.344 54.6327 156.71 55.661 156.412 56.9345C156.264 57.5285 156.187 58.0145 156.187 58.397V61.997C156.187 63.5675 156.673 64.8927 157.642 65.975C158.615 67.055 159.879 67.5972 161.439 67.5972C163.265 67.5972 164.686 66.8997 165.702 65.5092C166.721 64.1165 167.23 62.2805 167.23 59.999Z" fill="white"/>
<path d="M200.226 62.4872C200.226 65.0342 199.332 67.1064 197.538 68.7062C195.567 70.4544 192.822 71.3274 189.296 71.3274C186.04 71.3274 183.43 70.7064 181.454 69.4622L182.577 65.4639C184.705 66.7374 187.04 67.3764 189.585 67.3764C191.41 67.3764 192.831 66.9669 193.852 66.1524C194.869 65.3379 195.376 64.2444 195.376 62.8809C195.376 61.6659 194.957 60.6422 194.118 59.8119C193.284 58.9817 191.89 58.2099 189.944 57.4967C184.646 55.5414 182 52.6772 182 48.9107C182 46.4492 182.927 44.4309 184.785 42.8604C186.636 41.2877 189.105 40.5024 192.193 40.5024C194.946 40.5024 197.233 40.9772 199.059 41.9244L197.847 45.8349C196.142 44.9169 194.214 44.4579 192.056 44.4579C190.351 44.4579 189.019 44.8742 188.064 45.7022C187.256 46.4424 186.852 47.3447 186.852 48.4134C186.852 49.5969 187.313 50.5757 188.241 51.3452C189.048 52.0562 190.515 52.8257 192.643 53.6559C195.246 54.6932 197.158 55.9059 198.388 57.2964C199.614 58.6824 200.226 60.4172 200.226 62.4872Z" fill="white"/>
<path d="M216.253 52.893H210.909V63.3757C210.909 66.042 211.851 67.374 213.738 67.374C214.604 67.374 215.323 67.2997 215.891 67.1512L216.025 70.794C215.07 71.1472 213.813 71.325 212.255 71.325C210.341 71.325 208.845 70.7467 207.765 69.5925C206.69 68.436 206.148 66.4965 206.148 63.7717V52.8885H202.965V49.2885H206.148V45.3352L210.909 43.9132V49.2885H216.253V52.893Z" fill="white"/>
<path d="M240.36 59.9108C240.36 63.2296 239.401 65.9543 237.487 68.085C235.479 70.2788 232.814 71.3723 229.492 71.3723C226.291 71.3723 223.742 70.3215 221.841 68.22C219.941 66.1185 218.99 63.4658 218.99 60.2685C218.99 56.9228 219.968 54.1823 221.93 52.0516C223.888 49.9186 226.53 48.8521 229.851 48.8521C233.053 48.8521 235.629 49.9028 237.573 52.0066C239.433 54.0473 240.36 56.6821 240.36 59.9108ZM235.331 60.066C235.331 58.0748 234.901 56.3671 234.031 54.9428C233.014 53.2193 231.561 52.3598 229.679 52.3598C227.73 52.3598 226.25 53.2216 225.234 54.9428C224.363 56.3693 223.933 58.1041 223.933 60.156C223.933 62.1473 224.363 63.855 225.234 65.277C226.282 67.0005 227.746 67.86 229.635 67.86C231.486 67.86 232.939 66.9825 233.987 65.232C234.881 63.7808 235.331 62.055 235.331 60.066Z" fill="white"/>
<path d="M256.117 53.5122C255.637 53.4245 255.126 53.3795 254.589 53.3795C252.884 53.3795 251.565 54.0162 250.638 55.292C249.83 56.417 249.426 57.839 249.426 59.5557V70.8845H244.58L244.626 56.093C244.626 53.6045 244.564 51.3387 244.444 49.2957H248.666L248.844 53.4267H248.978C249.489 52.007 250.296 50.864 251.401 50.0067C252.481 49.235 253.648 48.8502 254.905 48.8502C255.353 48.8502 255.758 48.8817 256.117 48.938V53.5122Z" fill="white"/>
<path d="M277.797 59.0674C277.797 59.9269 277.74 60.6514 277.619 61.2432H263.077C263.134 63.3762 263.836 65.0074 265.187 66.1324C266.412 67.1382 267.997 67.6422 269.944 67.6422C272.097 67.6422 274.061 67.3024 275.828 66.6207L276.587 69.9507C274.523 70.8417 272.085 71.2849 269.273 71.2849C265.89 71.2849 263.234 70.2994 261.301 68.3307C259.373 66.3619 258.407 63.7182 258.407 60.4017C258.407 57.1459 259.305 54.4347 261.103 52.2724C262.986 49.9639 265.53 48.8097 268.732 48.8097C271.876 48.8097 274.257 49.9639 275.873 52.2724C277.153 54.1062 277.797 56.3742 277.797 59.0674ZM273.174 57.8232C273.206 56.4012 272.89 55.1727 272.233 54.1354C271.394 52.8012 270.105 52.1352 268.37 52.1352C266.785 52.1352 265.496 52.7854 264.512 54.0904C263.705 55.1277 263.225 56.3719 263.077 57.8209H273.174V57.8232Z" fill="white"/>
<path d="M111.577 22.5196C111.577 25.1678 110.774 27.1613 109.171 28.5001C107.686 29.7353 105.576 30.3541 102.843 30.3541C101.488 30.3541 100.329 30.2956 99.3579 30.1786V15.7088C100.624 15.5063 101.989 15.4028 103.462 15.4028C106.065 15.4028 108.027 15.9631 109.351 17.0836C110.833 18.3503 111.577 20.1616 111.577 22.5196ZM109.064 22.5848C109.064 20.8681 108.605 19.5518 107.686 18.6338C106.768 17.7181 105.426 17.2591 103.66 17.2591C102.909 17.2591 102.271 17.3086 101.741 17.4121V28.4123C102.034 28.4573 102.571 28.4776 103.351 28.4776C105.174 28.4776 106.581 27.9758 107.573 26.9723C108.564 25.9688 109.064 24.5063 109.064 22.5848Z" fill="white"/>
<path d="M124.898 24.8325C124.898 26.4637 124.428 27.8002 123.486 28.8487C122.5 29.9265 121.192 30.4642 119.56 30.4642C117.986 30.4642 116.734 29.949 115.799 28.914C114.867 27.8812 114.401 26.5785 114.401 25.008C114.401 23.3655 114.881 22.0178 115.845 20.9715C116.809 19.9253 118.105 19.401 119.737 19.401C121.31 19.401 122.575 19.9163 123.532 20.949C124.441 21.9525 124.898 23.2485 124.898 24.8325ZM122.427 24.909C122.427 23.9302 122.213 23.091 121.788 22.3912C121.288 21.5452 120.576 21.1222 119.651 21.1222C118.693 21.1222 117.966 21.5452 117.466 22.3912C117.038 23.091 116.827 23.9437 116.827 24.9517C116.827 25.9305 117.041 26.7697 117.466 27.4695C117.982 28.3155 118.7 28.7385 119.628 28.7385C120.537 28.7385 121.251 28.3087 121.765 27.447C122.206 26.7337 122.427 25.8877 122.427 24.909Z" fill="white"/>
<path d="M142.76 19.6174L139.407 30.2239H137.224L135.835 25.6182C135.482 24.4684 135.196 23.3254 134.973 22.1914H134.93C134.723 23.3569 134.437 24.4977 134.068 25.6182L132.593 30.2239H130.385L127.231 19.6174H129.68L130.892 24.6597C131.185 25.8522 131.426 26.9884 131.619 28.0639H131.663C131.84 27.1774 132.133 26.0479 132.547 24.6822L134.068 19.6197H136.01L137.467 24.5742C137.82 25.7824 138.106 26.9457 138.327 28.0662H138.393C138.554 26.9749 138.797 25.8117 139.12 24.5742L140.421 19.6197H142.76V19.6174Z" fill="white"/>
<path d="M155.113 30.2235H152.731V24.1485C152.731 22.2765 152.012 21.3405 150.571 21.3405C149.863 21.3405 149.293 21.597 148.849 22.1123C148.411 22.6275 148.188 23.235 148.188 23.9303V30.2213H145.805V22.6478C145.805 21.7163 145.775 20.706 145.719 19.6125H147.813L147.924 21.2708H147.99C148.267 20.7555 148.681 20.3303 149.225 19.9905C149.87 19.5945 150.593 19.3943 151.385 19.3943C152.385 19.3943 153.217 19.7138 153.879 20.355C154.702 21.1403 155.113 22.3125 155.113 23.8695V30.2235Z" fill="white"/>
<path d="M161.684 30.2237H159.304V14.7505H161.684V30.2237Z" fill="white"/>
<path d="M175.713 24.8325C175.713 26.4637 175.242 27.8002 174.301 28.8487C173.314 29.9265 172.005 30.4642 170.374 30.4642C168.799 30.4642 167.546 29.949 166.614 28.914C165.682 27.8812 165.215 26.5785 165.215 25.008C165.215 23.3655 165.695 22.0178 166.659 20.9715C167.623 19.9253 168.919 19.401 170.55 19.401C172.125 19.401 173.387 19.9163 174.347 20.949C175.256 21.9525 175.713 23.2485 175.713 24.8325ZM173.239 24.909C173.239 23.9302 173.026 23.091 172.6 22.3912C172.102 21.5452 171.389 21.1222 170.465 21.1222C169.506 21.1222 168.778 21.5452 168.28 22.3912C167.853 23.091 167.641 23.9437 167.641 24.9517C167.641 25.9305 167.855 26.7697 168.28 27.4695C168.797 28.3155 169.515 28.7385 170.443 28.7385C171.352 28.7385 172.064 28.3087 172.578 27.447C173.021 26.7337 173.239 25.8877 173.239 24.909Z" fill="white"/>
<path d="M187.245 30.2235H185.105L184.928 29.0017H184.862C184.13 29.976 183.086 30.4642 181.731 30.4642C180.719 30.4642 179.901 30.1425 179.285 29.5035C178.725 28.923 178.446 28.2007 178.446 27.3435C178.446 26.0475 178.991 25.0597 180.09 24.3757C181.186 23.6917 182.727 23.3565 184.712 23.3722V23.1743C184.712 21.777 183.971 21.0795 182.486 21.0795C181.429 21.0795 180.497 21.3428 179.692 21.8648L179.207 20.3167C180.203 19.707 181.433 19.401 182.884 19.401C185.685 19.401 187.09 20.8635 187.09 23.7885V27.6945C187.09 28.7542 187.143 29.598 187.245 30.2235ZM184.771 26.5785V24.9428C182.143 24.8978 180.829 25.611 180.829 27.0802C180.829 27.6337 180.979 28.0477 181.286 28.3245C181.593 28.6012 181.984 28.7385 182.45 28.7385C182.973 28.7385 183.462 28.5742 183.907 28.248C184.355 27.9195 184.63 27.5032 184.733 26.9925C184.758 26.8777 184.771 26.7382 184.771 26.5785Z" fill="white"/>
<path d="M200.785 30.2237H198.67L198.559 28.5205H198.493C197.818 29.8165 196.667 30.4645 195.051 30.4645C193.759 30.4645 192.684 29.9627 191.831 28.9592C190.979 27.9557 190.553 26.653 190.553 25.0532C190.553 23.3365 191.015 21.946 191.943 20.884C192.841 19.894 193.941 19.399 195.251 19.399C196.69 19.399 197.697 19.8782 198.27 20.839H198.316V14.7505H200.701V27.3662C200.701 28.399 200.728 29.3507 200.785 30.2237ZM198.316 25.7507V23.9822C198.316 23.6762 198.293 23.4287 198.25 23.2397C198.116 22.6727 197.827 22.1957 197.388 21.811C196.945 21.4262 196.41 21.2327 195.794 21.2327C194.905 21.2327 194.209 21.5815 193.698 22.2812C193.191 22.981 192.934 23.8742 192.934 24.9655C192.934 26.014 193.177 26.8645 193.666 27.5192C194.182 28.2167 194.878 28.5655 195.749 28.5655C196.531 28.5655 197.156 28.2752 197.631 27.6925C198.091 27.1547 198.316 26.5067 198.316 25.7507Z" fill="white"/>
<path d="M221.164 24.8325C221.164 26.4637 220.693 27.8002 219.752 28.8487C218.765 29.9265 217.46 30.4642 215.825 30.4642C214.254 30.4642 213.001 29.949 212.065 28.914C211.132 27.8812 210.666 26.5785 210.666 25.008C210.666 23.3655 211.146 22.0178 212.11 20.9715C213.074 19.9253 214.37 19.401 216.005 19.401C217.576 19.401 218.843 19.9163 219.798 20.949C220.707 21.9525 221.164 23.2485 221.164 24.8325ZM218.695 24.909C218.695 23.9302 218.481 23.091 218.056 22.3912C217.553 21.5452 216.844 21.1222 215.916 21.1222C214.961 21.1222 214.234 21.5452 213.731 22.3912C213.304 23.091 213.092 23.9437 213.092 24.9517C213.092 25.9305 213.306 26.7697 213.731 27.4695C214.247 28.3155 214.966 28.7385 215.894 28.7385C216.803 28.7385 217.519 28.3087 218.033 27.447C218.472 26.7337 218.695 25.8877 218.695 24.909Z" fill="white"/>
<path d="M233.976 30.2235H231.596V24.1485C231.596 22.2765 230.877 21.3405 229.433 21.3405C228.726 21.3405 228.156 21.597 227.714 22.1123C227.273 22.6275 227.053 23.235 227.053 23.9303V30.2213H224.668V22.6478C224.668 21.7163 224.64 20.706 224.584 19.6125H226.675L226.787 21.2708H226.853C227.132 20.7555 227.546 20.3303 228.087 19.9905C228.735 19.5945 229.456 19.3943 230.25 19.3943C231.248 19.3943 232.08 19.7138 232.742 20.355C233.567 21.1403 233.976 22.3125 233.976 23.8695V30.2235Z" fill="white"/>
<path d="M250.012 21.3833H247.389V26.5358C247.389 27.8453 247.855 28.5001 248.778 28.5001C249.205 28.5001 249.56 28.4641 249.84 28.3898L249.901 30.1786C249.43 30.3541 248.812 30.4418 248.05 30.4418C247.109 30.4418 246.377 30.1583 245.847 29.5913C245.315 29.0243 245.051 28.0703 245.051 26.7316V21.3833H243.485V19.6171H245.051V17.6731L247.386 16.9756V19.6148H250.01V21.3833H250.012Z" fill="white"/>
<path d="M262.627 30.2237H260.242V24.1937C260.242 22.2925 259.523 21.3407 258.084 21.3407C256.979 21.3407 256.224 21.892 255.81 22.9945C255.74 23.2262 255.699 23.5097 255.699 23.8427V30.2215H253.318V14.7505H255.699V21.1427H255.744C256.495 19.9795 257.57 19.399 258.964 19.399C259.951 19.399 260.767 19.7185 261.415 20.3597C262.222 21.1585 262.627 22.3465 262.627 23.917V30.2237Z" fill="white"/>
<path d="M275.639 24.4185C275.639 24.8415 275.607 25.197 275.55 25.4872H268.404C268.436 26.5357 268.777 27.3345 269.439 27.888C270.044 28.383 270.823 28.6305 271.778 28.6305C272.836 28.6305 273.8 28.464 274.668 28.1287L275.041 29.7667C274.025 30.2032 272.829 30.4215 271.444 30.4215C269.784 30.4215 268.477 29.9377 267.531 28.9702C266.581 28.0027 266.11 26.7045 266.11 25.0755C266.11 23.4757 266.549 22.1437 267.433 21.0817C268.357 19.9477 269.605 19.3807 271.18 19.3807C272.722 19.3807 273.893 19.9477 274.684 21.0817C275.323 21.9817 275.639 23.0955 275.639 24.4185ZM273.365 23.8087C273.384 23.109 273.227 22.506 272.904 21.9975C272.49 21.3427 271.86 21.0142 271.008 21.0142C270.23 21.0142 269.596 21.3337 269.111 21.975C268.716 22.4857 268.482 23.0955 268.404 23.8087H273.365Z" fill="white"/>
</svg>
