<svg width="255" height="77" viewBox="0 0 255 77" fill="none" xmlns="http://www.w3.org/2000/svg">
<path d="M253.587 68.1204C253.587 72.2239 250.348 75.5477 246.343 75.5477H9.29737C5.29399 75.5477 2.04443 72.2239 2.04443 68.1204V8.89034C2.04443 4.78886 5.29399 1.45337 9.29737 1.45337H246.341C250.348 1.45337 253.585 4.78886 253.585 8.89034L253.587 68.1204Z" fill="black"/>
<path d="M245.579 1.54241C249.941 1.54241 253.49 5.16863 253.49 9.62501V67.375C253.49 71.8314 249.941 75.4576 245.579 75.4576H10.0525C5.69057 75.4576 2.14119 71.8314 2.14119 67.375V9.62501C2.14119 5.16863 5.69057 1.54241 10.0525 1.54241H245.579ZM245.579 6.43149e-06H10.0525C4.8733 6.43149e-06 0.63147 4.33366 0.63147 9.62501V67.375C0.63147 72.6663 4.8733 77 10.0525 77H245.579C250.758 77 255 72.6663 255 67.375V9.62501C255 4.33366 250.758 6.43149e-06 245.579 6.43149e-06Z" fill="white"/>
<path d="M57.3992 38.0842C57.3446 31.88 62.3717 28.8616 62.6015 28.721C59.7545 24.4803 55.3417 23.9008 53.791 23.8546C50.0847 23.4562 46.4897 26.1204 44.6017 26.1204C42.676 26.1204 39.7687 23.8931 36.6352 23.9586C32.603 24.0221 28.8308 26.4072 26.762 30.1109C22.4923 37.6627 25.6767 48.7603 29.7673 54.8645C31.8135 57.854 34.2046 61.1919 37.3343 61.0745C40.3961 60.9455 41.5398 59.0802 45.2348 59.0802C48.8958 59.0802 49.9698 61.0745 53.1616 60.9994C56.4477 60.9455 58.5166 57.9964 60.4912 54.98C62.8559 51.5535 63.8055 48.1789 63.8432 48.0057C63.766 47.9787 57.4614 45.5205 57.3992 38.0842Z" fill="white"/>
<path d="M51.3698 19.8391C53.0166 17.7351 54.1433 14.8726 53.8305 11.9678C51.447 12.0756 48.4662 13.6521 46.7497 15.71C45.231 17.5233 43.8744 20.4955 44.2248 23.2906C46.9023 23.4947 49.6514 21.9104 51.3698 19.8391Z" fill="white"/>
<path d="M101.71 60.6452H97.4306L95.0866 53.1204H86.9393L84.7065 60.6452H80.5405L88.6125 35.0273H93.5981L101.71 60.6452ZM94.3801 49.9634L92.2603 43.274C92.0361 42.5907 91.6159 40.9814 90.996 38.4481H90.9206C90.6738 39.5376 90.2762 41.1469 89.7298 43.274L87.6478 49.9634H94.3801Z" fill="white"/>
<path d="M122.468 51.1822C122.468 54.3238 121.637 56.807 119.975 58.63C118.487 60.2528 116.638 61.0632 114.432 61.0632C112.05 61.0632 110.339 60.1892 109.298 58.4413H109.222V68.1722H105.205V48.2542C105.205 46.2792 105.154 44.2522 105.056 42.1732H108.589L108.813 45.1011H108.889C110.228 42.895 112.261 41.7939 114.99 41.7939C117.123 41.7939 118.903 42.6544 120.328 44.3773C121.756 46.1021 122.468 48.3697 122.468 51.1822ZM118.376 51.3323C118.376 49.5344 117.98 48.0521 117.185 46.8856C116.316 45.669 115.15 45.0607 113.688 45.0607C112.697 45.0607 111.796 45.3995 110.991 46.0674C110.185 46.7412 109.657 47.6209 109.411 48.7105C109.286 49.2187 109.224 49.6345 109.224 49.9617V53.0417C109.224 54.3854 109.627 55.5192 110.434 56.4451C111.24 57.371 112.288 57.833 113.577 57.833C115.09 57.833 116.267 57.2363 117.109 56.0466C117.954 54.8551 118.376 53.2843 118.376 51.3323Z" fill="white"/>
<path d="M143.264 51.1822C143.264 54.3238 142.433 56.807 140.769 58.63C139.283 60.2528 137.434 61.0632 135.228 61.0632C132.846 61.0632 131.135 60.1892 130.095 58.4413H130.02V68.1722H126.003V48.2542C126.003 46.2792 125.952 44.2522 125.854 42.1732H129.387L129.611 45.1011H129.686C131.024 42.895 133.057 41.7939 135.787 41.7939C137.918 41.7939 139.699 42.6544 141.127 44.3773C142.55 46.1021 143.264 48.3697 143.264 51.1822ZM139.171 51.3323C139.171 49.5344 138.774 48.0521 137.979 46.8856C137.11 45.669 135.947 45.0607 134.483 45.0607C133.49 45.0607 132.592 45.3995 131.785 46.0674C130.979 46.7412 130.453 47.6209 130.206 48.7105C130.084 49.2187 130.02 49.6345 130.02 49.9617V53.0417C130.02 54.3854 130.423 55.5192 131.226 56.4451C132.032 57.3691 133.08 57.833 134.372 57.833C135.885 57.833 137.063 57.2363 137.905 56.0466C138.749 54.8551 139.171 53.2843 139.171 51.3323Z" fill="white"/>
<path d="M166.515 53.4613C166.515 55.6404 165.775 57.4133 164.288 58.782C162.655 60.2777 160.38 61.0246 157.458 61.0246C154.76 61.0246 152.597 60.4933 150.959 59.4288L151.89 56.0081C153.654 57.0976 155.589 57.6443 157.697 57.6443C159.21 57.6443 160.388 57.294 161.234 56.5971C162.076 55.9003 162.496 54.9647 162.496 53.7982C162.496 52.7587 162.15 51.8828 161.454 51.1725C160.763 50.4621 159.608 49.8019 157.995 49.1916C153.605 47.5188 151.411 45.0683 151.411 41.8458C151.411 39.7399 152.18 38.0132 153.72 36.6695C155.253 35.3239 157.3 34.6521 159.858 34.6521C162.14 34.6521 164.036 35.0583 165.549 35.8687L164.544 39.2144C163.131 38.429 161.533 38.0363 159.745 38.0363C158.332 38.0363 157.228 38.3924 156.437 39.1008C155.768 39.7341 155.432 40.506 155.432 41.4204C155.432 42.433 155.815 43.2703 156.584 43.9287C157.252 44.537 158.468 45.1953 160.231 45.9057C162.389 46.7931 163.973 47.8307 164.993 49.0203C166.008 50.2061 166.515 51.6903 166.515 53.4613Z" fill="white"/>
<path d="M179.797 45.2527H175.369V54.2213C175.369 56.5024 176.149 57.642 177.713 57.642C178.431 57.642 179.026 57.5785 179.497 57.4515L179.608 60.568C178.817 60.8703 177.775 61.0223 176.484 61.0223C174.898 61.0223 173.658 60.5276 172.763 59.5401C171.872 58.5506 171.423 56.8913 171.423 54.5601V45.2489H168.785V42.1689H171.423V38.7867L175.369 37.5701V42.1689H179.797V45.2527Z" fill="white"/>
<path d="M199.775 51.257C199.775 54.0964 198.98 56.4276 197.394 58.2506C195.73 60.1274 193.522 61.063 190.769 61.063C188.116 61.063 186.004 60.164 184.428 58.3661C182.853 56.5681 182.066 54.2985 182.066 51.5631C182.066 48.7006 182.876 46.356 184.502 44.533C186.124 42.7081 188.314 41.7957 191.067 41.7957C193.72 41.7957 195.854 42.6946 197.465 44.4945C199.007 46.2405 199.775 48.4947 199.775 51.257ZM195.607 51.3899C195.607 49.6862 195.251 48.2252 194.53 47.0066C193.687 45.5321 192.483 44.7967 190.923 44.7967C189.309 44.7967 188.082 45.534 187.24 47.0066C186.518 48.2271 186.162 49.7113 186.162 51.4669C186.162 53.1705 186.518 54.6316 187.24 55.8482C188.108 57.3227 189.322 58.0581 190.888 58.0581C192.421 58.0581 193.625 57.3073 194.494 55.8097C195.234 54.568 195.607 53.0916 195.607 51.3899Z" fill="white"/>
<path d="M212.833 45.7825C212.435 45.7075 212.011 45.669 211.567 45.669C210.154 45.669 209.061 46.2137 208.292 47.3052C207.623 48.2677 207.288 49.4843 207.288 50.9531V60.6455H203.272L203.31 47.9905C203.31 45.8615 203.259 43.923 203.159 42.1751H206.658L206.805 45.7094H206.917C207.341 44.4947 208.009 43.5168 208.925 42.7834C209.82 42.1231 210.787 41.7939 211.829 41.7939C212.2 41.7939 212.535 41.8209 212.833 41.869V45.7825Z" fill="white"/>
<path d="M230.799 50.5354C230.799 51.2707 230.752 51.8905 230.652 52.3968H218.601C218.648 54.2217 219.23 55.6173 220.349 56.5799C221.365 57.4403 222.678 57.8715 224.291 57.8715C226.076 57.8715 227.703 57.5808 229.168 56.9976L229.797 59.8466C228.086 60.6089 226.066 60.9881 223.735 60.9881C220.932 60.9881 218.731 60.1449 217.129 58.4606C215.532 56.7762 214.731 54.5143 214.731 51.6769C214.731 48.8914 215.475 46.5718 216.965 44.7219C218.526 42.7468 220.634 41.7593 223.287 41.7593C225.893 41.7593 227.866 42.7468 229.205 44.7219C230.266 46.2907 230.799 48.2311 230.799 50.5354ZM226.969 49.4708C226.995 48.2542 226.733 47.2032 226.189 46.3157C225.493 45.1742 224.425 44.6044 222.987 44.6044C221.674 44.6044 220.606 45.1608 219.79 46.2773C219.121 47.1647 218.723 48.2292 218.601 49.4689H226.969V49.4708Z" fill="white"/>
<path d="M93.052 19.2668C93.052 21.5325 92.3869 23.238 91.0585 24.3834C89.8281 25.4402 88.0796 25.9696 85.8148 25.9696C84.6918 25.9696 83.7308 25.9196 82.9263 25.8195V13.4398C83.9758 13.2665 85.1063 13.178 86.3273 13.178C88.4847 13.178 90.1108 13.6573 91.2074 14.616C92.4359 15.6997 93.052 17.2494 93.052 19.2668ZM90.97 19.3226C90.97 17.8538 90.5894 16.7277 89.8281 15.9423C89.0669 15.1588 87.9552 14.7661 86.4912 14.7661C85.8694 14.7661 85.3399 14.8085 84.9009 14.897V24.3083C85.144 24.3468 85.5887 24.3642 86.2349 24.3642C87.7461 24.3642 88.9124 23.9349 89.7339 23.0763C90.5554 22.2178 90.97 20.9665 90.97 19.3226Z" fill="white"/>
<path d="M104.092 21.2456C104.092 22.6412 103.702 23.7847 102.922 24.6817C102.104 25.6038 101.02 26.0639 99.6676 26.0639C98.3637 26.0639 97.3255 25.623 96.5511 24.7375C95.7786 23.854 95.3923 22.7394 95.3923 21.3957C95.3923 19.9905 95.7899 18.8374 96.5888 17.9423C97.3877 17.0472 98.4617 16.5986 99.8146 16.5986C101.118 16.5986 102.166 17.0395 102.959 17.923C103.713 18.7816 104.092 19.8904 104.092 21.2456ZM102.044 21.311C102.044 20.4737 101.866 19.7556 101.514 19.157C101.1 18.4332 100.51 18.0713 99.743 18.0713C98.9497 18.0713 98.3468 18.4332 97.9323 19.157C97.578 19.7556 97.4028 20.4852 97.4028 21.3476C97.4028 22.185 97.5799 22.903 97.9323 23.5017C98.36 24.2255 98.9554 24.5874 99.7241 24.5874C100.478 24.5874 101.069 24.2197 101.495 23.4824C101.861 22.8722 102.044 22.1484 102.044 21.311Z" fill="white"/>
<path d="M118.894 16.7837L116.115 25.8581H114.306L113.155 21.9177C112.862 20.934 112.625 19.9561 112.44 18.9859H112.405C112.233 19.983 111.996 20.959 111.69 21.9177L110.468 25.8581H108.638L106.025 16.7837H108.054L109.058 21.0976C109.301 22.1179 109.501 23.09 109.661 24.0101H109.697C109.844 23.2517 110.087 22.2853 110.43 21.1169L111.69 16.7856H113.3L114.507 21.0245C114.799 22.0582 115.037 23.0534 115.22 24.0121H115.274C115.408 23.0784 115.61 22.0832 115.877 21.0245L116.955 16.7856H118.894V16.7837Z" fill="white"/>
<path d="M129.131 25.858H127.156V20.6605C127.156 19.0589 126.561 18.2581 125.366 18.2581C124.78 18.2581 124.307 18.4776 123.94 18.9184C123.576 19.3592 123.391 19.879 123.391 20.4738V25.8561H121.417V19.3766C121.417 18.5796 121.392 17.7153 121.345 16.7797H123.081L123.173 18.1985H123.228C123.457 17.7576 123.8 17.3938 124.251 17.1031C124.786 16.7643 125.385 16.593 126.041 16.593C126.87 16.593 127.559 16.8664 128.108 17.415C128.79 18.0868 129.131 19.0897 129.131 20.4218V25.858Z" fill="white"/>
<path d="M134.577 25.8581H132.604V12.6199H134.577V25.8581Z" fill="white"/>
<path d="M146.202 21.2456C146.202 22.6412 145.812 23.7847 145.032 24.6817C144.214 25.6038 143.129 26.0639 141.778 26.0639C140.472 26.0639 139.434 25.623 138.661 24.7375C137.889 23.854 137.502 22.7394 137.502 21.3957C137.502 19.9905 137.9 18.8374 138.699 17.9423C139.498 17.0472 140.572 16.5986 141.923 16.5986C143.229 16.5986 144.274 17.0395 145.069 17.923C145.823 18.7816 146.202 19.8904 146.202 21.2456ZM144.152 21.311C144.152 20.4737 143.975 19.7556 143.622 19.157C143.21 18.4332 142.618 18.0713 141.853 18.0713C141.058 18.0713 140.455 18.4332 140.042 19.157C139.688 19.7556 139.513 20.4852 139.513 21.3476C139.513 22.185 139.69 22.903 140.042 23.5017C140.47 24.2255 141.065 24.5874 141.834 24.5874C142.588 24.5874 143.178 24.2197 143.604 23.4824C143.971 22.8722 144.152 22.1484 144.152 21.311Z" fill="white"/>
<path d="M155.759 25.8579H153.986L153.839 24.8126H153.784C153.177 25.6461 152.312 26.0639 151.189 26.0639C150.351 26.0639 149.673 25.7886 149.162 25.2419C148.699 24.7452 148.467 24.1273 148.467 23.3939C148.467 22.2851 148.919 21.44 149.829 20.8548C150.737 20.2696 152.015 19.9828 153.66 19.9963V19.8269C153.66 18.6314 153.045 18.0347 151.815 18.0347C150.939 18.0347 150.166 18.2599 149.499 18.7065L149.098 17.3821C149.923 16.8604 150.943 16.5986 152.145 16.5986C154.466 16.5986 155.631 17.8499 155.631 20.3524V23.6942C155.631 24.6009 155.674 25.3227 155.759 25.8579ZM153.709 22.7394V21.3399C151.531 21.3014 150.441 21.9116 150.441 23.1687C150.441 23.6422 150.566 23.9964 150.82 24.2332C151.075 24.47 151.399 24.5874 151.785 24.5874C152.218 24.5874 152.623 24.4469 152.993 24.1677C153.364 23.8867 153.592 23.5306 153.677 23.0936C153.697 22.9954 153.709 22.8761 153.709 22.7394Z" fill="white"/>
<path d="M166.979 25.8581H165.227L165.135 24.4009H165.08C164.52 25.5097 163.567 26.0641 162.227 26.0641C161.157 26.0641 160.266 25.6348 159.559 24.7762C158.853 23.9177 158.5 22.8031 158.5 21.4344C158.5 19.9657 158.883 18.776 159.651 17.8674C160.396 17.0204 161.308 16.5969 162.393 16.5969C163.586 16.5969 164.42 17.0069 164.895 17.8289H164.933V12.6199H166.909V23.4133C166.909 24.2969 166.932 25.1112 166.979 25.8581ZM164.933 22.0312V20.5181C164.933 20.2563 164.914 20.0446 164.878 19.8829C164.767 19.3978 164.528 18.9897 164.164 18.6605C163.797 18.3313 163.354 18.1658 162.843 18.1658C162.107 18.1658 161.53 18.4642 161.106 19.0628C160.686 19.6615 160.473 20.4257 160.473 21.3594C160.473 22.2564 160.675 22.9841 161.08 23.5442C161.507 24.141 162.084 24.4394 162.806 24.4394C163.454 24.4394 163.972 24.191 164.366 23.6925C164.746 23.2324 164.933 22.678 164.933 22.0312Z" fill="white"/>
<path d="M183.868 21.2456C183.868 22.6412 183.478 23.7847 182.698 24.6817C181.88 25.6038 180.798 26.0639 179.443 26.0639C178.142 26.0639 177.103 25.623 176.327 24.7375C175.554 23.854 175.168 22.7394 175.168 21.3957C175.168 19.9905 175.566 18.8374 176.365 17.9423C177.164 17.0472 178.238 16.5986 179.592 16.5986C180.894 16.5986 181.944 17.0395 182.735 17.923C183.489 18.7816 183.868 19.8904 183.868 21.2456ZM181.821 21.311C181.821 20.4737 181.644 19.7556 181.292 19.157C180.875 18.4332 180.288 18.0713 179.519 18.0713C178.727 18.0713 178.125 18.4332 177.708 19.157C177.354 19.7556 177.179 20.4852 177.179 21.3476C177.179 22.185 177.356 22.903 177.708 23.5017C178.136 24.2255 178.731 24.5874 179.5 24.5874C180.254 24.5874 180.847 24.2197 181.273 23.4824C181.637 22.8722 181.821 22.1484 181.821 21.311Z" fill="white"/>
<path d="M194.485 25.858H192.512V20.6605C192.512 19.0589 191.917 18.2581 190.72 18.2581C190.134 18.2581 189.661 18.4776 189.296 18.9184C188.93 19.3592 188.747 19.879 188.747 20.4738V25.8561H186.771V19.3766C186.771 18.5796 186.748 17.7153 186.701 16.7797H188.435L188.527 18.1985H188.582C188.813 17.7576 189.156 17.3938 189.605 17.1031C190.142 16.7643 190.739 16.593 191.397 16.593C192.224 16.593 192.913 16.8664 193.462 17.415C194.146 18.0868 194.485 19.0897 194.485 20.4218V25.858Z" fill="white"/>
<path d="M207.774 18.2948H205.6V22.703C205.6 23.8234 205.986 24.3835 206.751 24.3835C207.105 24.3835 207.399 24.3527 207.631 24.2892L207.682 25.8196C207.292 25.9697 206.779 26.0448 206.148 26.0448C205.368 26.0448 204.761 25.8023 204.322 25.3172C203.882 24.8321 203.663 24.0159 203.663 22.8705V18.2948H202.365V16.7836H203.663V15.1204L205.598 14.5237V16.7817H207.772V18.2948H207.774Z" fill="white"/>
<path d="M218.227 25.8581H216.251V20.6991C216.251 19.0725 215.655 18.2582 214.463 18.2582C213.547 18.2582 212.921 18.7298 212.579 19.6731C212.52 19.8713 212.486 20.1139 212.486 20.3988V25.8562H210.513V12.6199H212.486V18.0888H212.524C213.146 17.0936 214.037 16.5969 215.192 16.5969C216.01 16.5969 216.686 16.8703 217.223 17.4189C217.892 18.1023 218.227 19.1187 218.227 20.4623V25.8581Z" fill="white"/>
<path d="M229.011 20.8914C229.011 21.2533 228.985 21.5574 228.937 21.8057H223.015C223.042 22.7028 223.324 23.3862 223.873 23.8597C224.374 24.2832 225.02 24.495 225.812 24.495C226.688 24.495 227.487 24.3525 228.206 24.0657L228.515 25.4671C227.673 25.8405 226.682 26.0273 225.535 26.0273C224.159 26.0273 223.076 25.6134 222.292 24.7856C221.504 23.9579 221.114 22.8472 221.114 21.4535C221.114 20.0848 221.478 18.9452 222.211 18.0366C222.976 17.0664 224.01 16.5813 225.316 16.5813C226.594 16.5813 227.564 17.0664 228.22 18.0366C228.749 18.8066 229.011 19.7595 229.011 20.8914ZM227.127 20.3697C227.142 19.771 227.012 19.2551 226.744 18.8201C226.401 18.2599 225.879 17.9788 225.173 17.9788C224.528 17.9788 224.003 18.2522 223.601 18.8008C223.274 19.2378 223.079 19.7595 223.015 20.3697H227.127Z" fill="white"/>
</svg>
