<svg width="106" height="63" viewBox="0 0 106 63" fill="none" xmlns="http://www.w3.org/2000/svg">
<path fill-rule="evenodd" clip-rule="evenodd" d="M39.7798 0.11051C37.391 0.398677 34.8573 1.25919 28.668 3.88395C25.4417 5.25222 22.0346 6.56742 21.0967 6.80693C16.1484 8.0695 10.9518 7.88683 3.24833 6.17901C2.23888 5.95523 1.12122 5.77213 0.764942 5.77213C0.200842 5.77213 0.157745 5.81513 0.431894 6.10434C1.18826 6.90257 6.62263 8.80502 9.39381 9.24167C10.6068 9.43273 10.8445 9.5548 10.437 9.77648C9.71297 10.1704 10.4294 14.553 11.3679 15.4721C12.731 16.807 14.0431 14.3937 13.2513 12.0078C12.9745 11.1743 12.6154 10.6561 11.9684 10.1573C11.4742 9.77627 11.2429 9.52208 11.4546 9.59255C12.3585 9.89372 16.2102 9.99334 18.0971 9.7641C21.7387 9.32221 23.9704 8.60389 30.8229 5.66916C34.4443 4.11821 38.0537 2.6887 38.8439 2.4924C40.7699 2.01422 43.7127 2.02449 45.6387 2.51631C47.0545 2.87788 50.4187 4.58066 50.8083 5.13288C50.91 5.27696 50.3531 5.87553 49.4227 6.62216C47.5173 8.15171 46.9323 9.01055 45.8147 11.9201C44.6527 14.9448 44.2656 15.5616 42.4028 17.3546C40.2395 19.4368 39.5871 20.3848 38.6976 22.7369C38.2781 23.8455 37.5201 25.5216 37.0127 26.4619C35.5608 29.1525 35.7461 30.4477 37.8229 32.1245C39.3357 33.346 41.0416 33.7736 44.3508 33.7606C46.7027 33.7516 47.1768 33.683 48.7827 33.1209C51.0953 32.3116 53.2327 31.0335 54.6885 29.5897C55.3237 28.9597 57.1913 26.6712 58.8385 24.5042C62.5423 19.632 62.6299 19.5756 66.7376 19.4104L69.4911 19.2996L68.2939 18.8802C67.4071 18.5696 66.5382 18.4607 64.9419 18.4607C61.6464 18.4607 61.1112 18.7604 58.0863 22.3015C55.0155 25.8958 51.596 28.9274 49.5632 29.8578C48.1058 30.5245 45.5207 31.1384 44.1384 31.1457L43.4472 31.1493L44.5744 30.0937C45.967 28.7898 46.5998 27.5732 46.7839 25.8469C46.9855 23.9564 46.4341 22.4074 45.2173 21.4443C44.704 21.0381 44.0561 20.6425 43.7771 20.5649C43.3188 20.4374 43.4256 20.2904 44.8974 19.023C46.6996 17.4712 47.6198 16.0937 48.7654 13.2324C50.2511 9.52208 51.494 8.20771 54.8398 6.8084C57.2722 5.79101 59.7994 5.23124 63.451 4.90176C68.0674 4.48482 71.4626 4.92902 78.8289 6.91326C82.4994 7.90213 88.3796 9.18966 91.7582 9.7446C96.9268 10.5934 101.746 10.6687 104.568 9.94489C105.62 9.67518 105.567 9.66532 102.293 9.52774C96.6972 9.29243 92.2993 8.40234 81.2575 5.26983C77.4196 4.18134 73.1161 3.0939 71.6936 2.85355C65.8716 1.86971 57.9486 2.59391 53.5311 4.51376L52.1251 5.1247L51.5562 4.34724C49.2833 1.24137 44.5419 -0.464356 39.7798 0.11051ZM5.9278 9.80941C5.93115 10.2998 6.05015 11.1255 6.19237 11.6445C6.3346 12.1636 6.467 13.7873 6.48664 15.2527C6.52614 18.1889 6.69973 18.6235 7.65482 18.1757C10.2 16.9825 10.3149 12.013 7.8502 9.74334C7.34811 9.28089 6.72702 8.91806 6.43803 8.91806C5.98981 8.91806 5.92277 9.03488 5.9278 9.80941ZM15.0197 10.4919C14.7999 10.7236 14.7487 11.5992 14.8263 13.7951C14.9604 17.5897 15.3947 18.416 16.6433 17.2518C17.3563 16.587 17.8936 15.3685 17.8936 14.4159C17.8936 13.1705 17.2062 11.4296 16.4544 10.771C15.6813 10.0938 15.4411 10.047 15.0197 10.4919ZM19.2179 10.5751C19.0082 11.1544 19.7217 13.4367 20.603 15.0058C21.4918 16.5885 22.1419 16.8559 22.8381 15.9251C24.1612 14.1562 22.1742 10.1764 19.9678 10.1764C19.5833 10.1764 19.3099 10.3218 19.2179 10.5751ZM91.156 10.9143C90.4495 11.6601 91.6119 15.0214 93.0289 16.3297C94.5801 17.7623 96.7171 18.3961 98.1841 17.8592C99.2256 17.4781 99.2792 17.2325 98.4278 16.7437C97.403 16.1556 95.3262 14.2473 93.801 12.4923C92.613 11.125 91.9787 10.5959 91.5286 10.5959C91.4896 10.5959 91.322 10.7391 91.156 10.9143ZM97.5445 11.9942C96.9651 12.5017 97.8426 14.5279 99.0925 15.5679C100.338 16.6052 102.685 17.1952 103.583 16.6973C104.213 16.3475 103.639 15.5319 101.795 14.1613C98.7757 11.9168 98.0531 11.5485 97.5445 11.9942ZM62.1884 21.1777C62.1884 21.2304 63.9394 22.5271 66.0792 24.0594C75.9107 31.0998 81.4816 36.0091 86.9231 42.4287C89.3845 45.3322 89.6311 46.2091 88.4622 47.8993C87.8133 48.8374 86.8769 49.1442 83.9274 49.3856C82.5717 49.4963 81.2472 49.6425 80.9838 49.7101C80.3823 49.8646 78.4583 48.1954 74.4569 44.0476C71.2947 40.77 70.6511 40.425 70.739 42.0552C70.772 42.668 71.1317 43.6034 71.7645 44.7225C72.9267 46.7778 75.8523 49.6195 78.0036 50.7826C79.5451 51.6161 79.5482 51.6337 78.4032 53.1196C76.9034 55.0663 75.3672 55.6336 71.3917 55.7083L68.5801 55.7613L66.0926 53.1553C61.6614 48.5127 61.6092 48.4651 61.1266 48.6274C60.7487 48.7543 60.7049 48.9378 60.8203 49.9156C61.0926 52.2266 63.4957 55.2855 66.0821 56.6131L67.2064 57.1902L66.8399 57.9587C66.0596 59.5946 65.6554 59.9784 63.8525 60.7957C62.2117 61.5396 61.9586 61.5945 60.6934 61.4807C59.9371 61.4125 58.8328 61.2497 58.2395 61.1189L57.1606 60.881L57.8571 60.1862C58.5998 59.4452 59.3153 57.6405 59.3153 56.508C59.3153 55.4518 58.6355 53.5785 57.9139 52.6465C56.6303 50.9881 53.974 49.8611 51.9697 50.1245L50.9352 50.2604V48.9026C50.9352 47.7789 50.8008 47.3189 50.157 46.2359C49.0527 44.3785 47.9679 43.6695 46.0692 43.5635C44.7178 43.4882 43.7881 43.6831 42.5347 44.3045C42.4578 44.3427 42.2639 43.8614 42.1037 43.2347C41.6955 41.6361 40.6197 40.2983 39.2902 39.7343C37.9448 39.1639 35.7626 39.2484 34.2372 39.93C33.6868 40.176 33.1883 40.3773 33.1296 40.3773C33.0709 40.3773 32.8526 39.9394 32.6443 39.4042C31.478 36.4059 28.719 34.3309 25.4182 33.9697C23.5217 33.7621 21.3817 34.7013 20.3114 36.2109L19.9199 36.7633L18.0088 35.4225C15.8544 33.9108 14.3199 33.3248 11.6088 32.9787C9.00761 32.6465 3.67092 33.3454 1.41979 34.313C0.589679 34.6698 -0.0479269 35.0714 0.00283258 35.2052C0.0679579 35.3774 1.91182 35.4846 6.3006 35.571C13.2956 35.7088 13.4021 35.7289 16.923 37.5787L18.7316 38.529L18.78 39.8455C18.8983 43.0606 21.4748 46.1929 24.7313 47.0805C25.9026 47.3999 26.6939 47.4951 27.411 47.4033L28.4286 47.2726V48.0203C28.4286 48.4315 28.6441 49.1201 28.9075 49.5507C29.1708 49.981 29.3863 50.4563 29.3863 50.6069C29.3863 51.1777 30.3438 52.4879 31.3616 53.3098C32.5734 54.2882 33.8072 54.7138 35.1162 54.6043C36.0004 54.5305 36.0459 54.5604 36.6952 55.6468C37.5251 57.0352 39.9608 59.2498 41.2382 59.777C42.404 60.2584 44.3233 60.2779 45.3368 59.8185L46.0711 59.4861L47.2242 60.5115C49.4471 62.4884 52.4251 63.0326 54.9437 61.9225L56.1988 61.3693L58.0099 62.1226C59.3433 62.6774 60.2435 62.9022 61.4237 62.9754C64.4815 63.165 66.3275 62.2745 68.0531 59.7772L69.0675 58.3091L71.7935 58.284C74.7804 58.2563 76.217 57.9161 78.0642 56.7987C79.0887 56.1789 80.8191 54.2786 81.3164 53.2272C81.6114 52.6033 81.6188 52.6014 84.15 52.4579C87.2871 52.2803 88.6219 51.8227 90.0441 50.4372C91.8968 48.6323 92.1679 46.2493 90.8307 43.5233C90.721 43.2999 90.9863 43.0648 91.7465 42.712C92.5107 42.3574 93.1381 41.7995 93.9416 40.7599C94.5605 39.9594 95.4536 39.0221 95.9265 38.6773C97.1576 37.7797 99.8026 36.6956 102.252 36.0848C106.014 35.1467 106.941 34.4624 105.046 34.0224C102.888 33.5211 98.1501 34.268 95.7847 35.4823C94.2828 36.2532 92.5131 38.0582 91.8763 39.4684C91.3679 40.5936 90.5673 41.6357 90.2108 41.6357C90.1298 41.6357 89.152 40.6213 88.0379 39.3811C86.9236 38.141 84.1802 35.5129 81.9415 33.5406C78.0745 30.1336 77.9174 29.9637 78.7954 30.1386C79.8589 30.3506 81.9336 29.9608 83.5246 29.2498C86.2005 28.0539 88.0762 24.9677 85.8948 25.3499C84.9785 25.5103 78.7578 28.1103 78.1559 28.5843C77.9023 28.784 77.6251 29.1109 77.5396 29.311C77.4112 29.612 76.9307 29.3483 74.7622 27.7867C70.4692 24.6951 63.9988 21.0922 62.7272 21.0853C62.4307 21.0836 62.1884 21.1253 62.1884 21.1777ZM43.9907 23.6997C44.5213 25.9388 43.3083 28.8389 41.3112 30.1061C40.4244 30.6688 40.2682 30.7045 39.8217 30.4463C39.1092 30.0346 39.0869 29.2403 39.7554 28.073C40.0746 27.5155 40.6877 26.2102 41.1182 25.172C41.5485 24.1339 42.1152 22.9111 42.3776 22.455L42.8543 21.6255L43.2877 22.0945C43.5262 22.3524 43.8425 23.0749 43.9907 23.6997ZM25.9866 37.145C28.2373 38.1276 29.6258 40.099 29.6258 42.3127C29.6258 43.7515 29.1364 44.4608 27.8451 44.8926C26.4112 45.3722 25.1589 45.1891 22.6734 44.1363L20.7002 43.3005L20.8252 41.5441C20.9813 39.3539 21.7846 37.6586 22.9655 37.028C24.0046 36.473 24.49 36.4917 25.9866 37.145ZM37.8811 42.3463C39.0591 43.3781 38.9892 45.7208 37.6905 48.7313C37.2263 49.8078 36.5585 51.0695 36.2065 51.5353C35.5998 52.3386 35.5177 52.3761 34.6047 52.2687C33.3125 52.1169 32.2152 51.3923 30.9242 49.838C29.8855 48.588 29.8587 48.5175 30.1097 47.7011C30.2526 47.2369 30.6232 46.6635 30.9333 46.4274C31.2436 46.191 31.7794 45.4473 32.1242 44.7745C33.3705 42.3417 36.4117 41.0592 37.8811 42.3463ZM46.2672 45.5356C47.1447 46.0392 47.7083 47.4297 47.6609 48.9735C47.6073 50.7205 46.7588 54.2649 46.1156 55.4287C45.4879 56.5646 44.3154 57.3654 43.2798 57.3654C42.2831 57.3654 40.4332 56.4388 38.6624 55.0525L37.2837 53.973L38.2577 53.0036C39.5377 51.73 41.3067 48.5773 41.6615 46.9374C41.9529 45.5904 42.1188 45.4377 43.6325 45.126C44.3355 44.9813 45.6602 45.1873 46.2672 45.5356ZM52.559 51.8182C54.4766 52.5187 56.201 54.702 56.195 56.4216C56.1844 59.4362 53.2078 60.6795 49.2067 59.3402L47.5877 58.7982L48.317 57.8698C49.3063 56.6103 49.6192 55.8899 50.0854 53.8C50.3043 52.8195 50.5276 51.8994 50.582 51.7551C50.7154 51.4007 51.4832 51.4252 52.559 51.8182Z" fill="#6D3D67"/>
</svg>
