<svg width="61" height="34" viewBox="0 0 61 34" fill="none" xmlns="http://www.w3.org/2000/svg">
<path d="M53.8516 5.3125H7.14844C6.88633 5.3125 6.67188 5.43203 6.67188 5.57812V7.70312C6.67188 7.84922 6.88633 7.96875 7.14844 7.96875H53.8516C54.1137 7.96875 54.3281 7.84922 54.3281 7.70312V5.57812C54.3281 5.43203 54.1137 5.3125 53.8516 5.3125ZM53.8516 26.0312H7.14844C6.88633 26.0312 6.67188 26.1508 6.67188 26.2969V28.4219C6.67188 28.568 6.88633 28.6875 7.14844 28.6875H53.8516C54.1137 28.6875 54.3281 28.568 54.3281 28.4219V26.2969C54.3281 26.1508 54.1137 26.0312 53.8516 26.0312ZM53.8516 15.6719H7.14844C6.88633 15.6719 6.67188 15.7914 6.67188 15.9375V18.0625C6.67188 18.2086 6.88633 18.3281 7.14844 18.3281H53.8516C54.1137 18.3281 54.3281 18.2086 54.3281 18.0625V15.9375C54.3281 15.7914 54.1137 15.6719 53.8516 15.6719Z" fill="#5C5366"/>
</svg>
