<svg width="20" height="20" viewBox="0 0 20 20" fill="none" xmlns="http://www.w3.org/2000/svg">
<path d="M10.0003 1.66667C5.40533 1.66667 1.66699 5.40501 1.66699 10V13.4525C1.66699 14.3058 2.41449 15 3.33366 15H4.16699C4.38801 15 4.59997 14.9122 4.75625 14.7559C4.91253 14.5996 5.00033 14.3877 5.00033 14.1667V9.88084C5.00033 9.65983 4.91253 9.44786 4.75625 9.29158C4.59997 9.1353 4.38801 9.04751 4.16699 9.04751H3.41033C3.87366 5.82251 6.64866 3.33334 10.0003 3.33334C13.352 3.33334 16.127 5.82251 16.5903 9.04751H15.8337C15.6126 9.04751 15.4007 9.1353 15.2444 9.29158C15.0881 9.44786 15.0003 9.65983 15.0003 9.88084V15C15.0003 15.9192 14.2528 16.6667 13.3337 16.6667H11.667V15.8333H8.33366V18.3333H13.3337C15.172 18.3333 16.667 16.8383 16.667 15C17.5862 15 18.3337 14.3058 18.3337 13.4525V10C18.3337 5.40501 14.5953 1.66667 10.0003 1.66667Z" fill="black" fill-opacity="0.8"/>
</svg>
