<svg width="32" height="32" viewBox="0 0 32 32" fill="none" xmlns="http://www.w3.org/2000/svg">
<path d="M3 12C3 5 10 5 16 5C22 5 29 5 29 12C29 20 22 11 22 11H10C10 11 3 20 3 12ZM11 14C11 14 6 19 6 28H26C26 19 21 14 21 14H11Z" stroke="#6D3D67" stroke-width="2" stroke-linecap="round" stroke-linejoin="round"/>
<path d="M16 25C18.2091 25 20 23.2091 20 21C20 18.7909 18.2091 17 16 17C13.7909 17 12 18.7909 12 21C12 23.2091 13.7909 25 16 25Z" stroke="#6D3D67" stroke-width="2" stroke-linecap="round" stroke-linejoin="round"/>
</svg>
