<svg width="10" height="7" viewBox="0 0 10 7" fill="none" xmlns="http://www.w3.org/2000/svg">
<path d="M0.333699 1.3332C0.333394 1.13849 0.387645 0.949791 0.487032 0.799864C0.542998 0.715482 0.611732 0.645731 0.689298 0.594604C0.766862 0.543477 0.851733 0.511981 0.939051 0.501917C1.02637 0.491854 1.11442 0.503422 1.19815 0.53596C1.28189 0.568497 1.35967 0.621362 1.42703 0.691531L5.00037 4.42486L8.58037 0.824865C8.64856 0.755643 8.72702 0.70395 8.81125 0.672757C8.89547 0.641564 8.9838 0.631486 9.07115 0.643102C9.15851 0.654718 9.24316 0.687798 9.32025 0.740443C9.39734 0.793088 9.46535 0.864259 9.52037 0.949864C9.58106 1.03609 9.62683 1.13706 9.65483 1.24644C9.68282 1.35583 9.69242 1.47127 9.68303 1.58551C9.67364 1.69975 9.64546 1.81034 9.60026 1.91032C9.55506 2.01031 9.49381 2.09754 9.42037 2.16653L5.42037 6.19153C5.30108 6.3141 5.15145 6.3811 4.99703 6.3811C4.84262 6.3811 4.69299 6.3141 4.5737 6.19153L0.573699 2.02486C0.493021 1.94127 0.429245 1.83507 0.387546 1.7149C0.345846 1.59472 0.327398 1.46395 0.333699 1.3332Z" fill="black"/>
</svg>
