<svg width="286" height="394" viewBox="0 0 286 394" fill="none" xmlns="http://www.w3.org/2000/svg">
<path d="M3.30274 306.438C3.79673 305.773 3.65807 304.833 2.99304 304.339C2.32801 303.845 1.38844 303.984 0.894447 304.649C0.400458 305.314 0.539114 306.253 1.20414 306.747C1.86918 307.241 2.80875 307.103 3.30274 306.438Z" fill="#6D3D67"/>
<path d="M14.0361 291.988C14.5301 291.323 14.3915 290.383 13.7264 289.889C13.0614 289.395 12.1218 289.534 11.6278 290.199C11.1339 290.864 11.2725 291.803 11.9375 292.297C12.6026 292.791 13.5421 292.653 14.0361 291.988Z" fill="#6D3D67"/>
<path d="M24.7694 277.538C25.2634 276.873 25.1247 275.933 24.4597 275.439C23.7947 274.945 22.8551 275.084 22.3611 275.749C21.8671 276.414 22.0058 277.354 22.6708 277.848C23.3359 278.342 24.2754 278.203 24.7694 277.538Z" fill="#6D3D67"/>
<path d="M35.5028 263.088C35.9968 262.423 35.8581 261.484 35.1931 260.99C34.5281 260.496 33.5885 260.634 33.0945 261.299C32.6005 261.964 32.7392 262.904 33.4042 263.398C34.0692 263.892 35.0088 263.753 35.5028 263.088Z" fill="#6D3D67"/>
<path d="M46.2362 248.639C46.7302 247.974 46.5915 247.034 45.9265 246.54C45.2615 246.046 44.3219 246.185 43.8279 246.85C43.3339 247.515 43.4726 248.454 44.1376 248.948C44.8026 249.442 45.7422 249.304 46.2362 248.639Z" fill="#6D3D67"/>
<path d="M56.9696 234.189C57.4636 233.524 57.3249 232.584 56.6599 232.09C55.9949 231.596 55.0553 231.735 54.5613 232.4C54.0673 233.065 54.206 234.005 54.871 234.499C55.536 234.993 56.4756 234.854 56.9696 234.189Z" fill="#6D3D67"/>
<path d="M67.7029 219.739C68.1969 219.074 68.0582 218.135 67.3932 217.641C66.7282 217.147 65.7886 217.285 65.2946 217.95C64.8006 218.615 64.9393 219.555 65.6043 220.049C66.2693 220.543 67.2089 220.404 67.7029 219.739Z" fill="#6D3D67"/>
<path d="M78.4363 205.289C78.9303 204.624 78.7916 203.685 78.1266 203.191C77.4616 202.697 76.522 202.835 76.028 203.5C75.534 204.165 75.6727 205.105 76.3377 205.599C77.0027 206.093 77.9423 205.954 78.4363 205.289Z" fill="#6D3D67"/>
<path d="M89.1697 190.84C89.6637 190.175 89.525 189.235 88.86 188.741C88.195 188.247 87.2554 188.386 86.7614 189.051C86.2674 189.716 86.4061 190.655 87.0711 191.149C87.7361 191.643 88.6757 191.505 89.1697 190.84Z" fill="#6D3D67"/>
<path d="M99.903 176.39C100.397 175.725 100.258 174.785 99.5933 174.291C98.9282 173.797 97.9887 173.936 97.4947 174.601C97.0007 175.266 97.1393 176.206 97.8044 176.7C98.4694 177.194 99.409 177.055 99.903 176.39Z" fill="#6D3D67"/>
<path d="M110.636 161.94C111.13 161.275 110.992 160.336 110.327 159.842C109.662 159.348 108.722 159.486 108.228 160.151C107.734 160.816 107.873 161.756 108.538 162.25C109.203 162.744 110.142 162.605 110.636 161.94Z" fill="#6D3D67"/>
<path d="M121.37 147.49C121.864 146.825 121.725 145.886 121.06 145.392C120.395 144.898 119.455 145.036 118.961 145.701C118.467 146.367 118.606 147.306 119.271 147.8C119.936 148.294 120.876 148.155 121.37 147.49Z" fill="#6D3D67"/>
<path d="M132.103 133.041C132.597 132.376 132.458 131.436 131.793 130.942C131.128 130.448 130.189 130.587 129.695 131.252C129.201 131.917 129.34 132.856 130.005 133.35C130.67 133.844 131.609 133.706 132.103 133.041Z" fill="#6D3D67"/>
<path d="M142.836 118.591C143.33 117.926 143.192 116.986 142.527 116.492C141.862 115.998 140.922 116.137 140.428 116.802C139.934 117.467 140.073 118.407 140.738 118.901C141.403 119.395 142.342 119.256 142.836 118.591Z" fill="#6D3D67"/>
<path d="M153.57 104.141C154.064 103.476 153.925 102.537 153.26 102.043C152.595 101.549 151.656 101.687 151.162 102.352C150.668 103.017 150.806 103.957 151.471 104.451C152.136 104.945 153.076 104.806 153.57 104.141Z" fill="#6D3D67"/>
<path d="M164.303 89.6914C164.797 89.0264 164.659 88.0868 163.994 87.5928C163.328 87.0989 162.389 87.2375 161.895 87.9025C161.401 88.5676 161.54 89.5071 162.205 90.0011C162.87 90.4951 163.809 90.3565 164.303 89.6914Z" fill="#6D3D67"/>
<path d="M175.037 75.2417C175.53 74.5767 175.392 73.6371 174.727 73.1431C174.062 72.6492 173.122 72.7878 172.628 73.4528C172.134 74.1179 172.273 75.0574 172.938 75.5514C173.603 76.0454 174.543 75.9068 175.037 75.2417Z" fill="#6D3D67"/>
<path d="M185.77 60.792C186.264 60.1269 186.125 59.1874 185.46 58.6934C184.795 58.1994 183.856 58.338 183.362 59.0031C182.868 59.6681 183.006 60.6077 183.671 61.1017C184.336 61.5957 185.276 61.457 185.77 60.792Z" fill="#6D3D67"/>
<path d="M196.503 46.3423C196.997 45.6772 196.859 44.7377 196.194 44.2437C195.529 43.7497 194.589 43.8883 194.095 44.5534C193.601 45.2184 193.74 46.158 194.405 46.652C195.07 47.1459 196.009 47.0073 196.503 46.3423Z" fill="#6D3D67"/>
<path d="M207.237 31.8925C207.731 31.2275 207.592 30.2879 206.927 29.7939C206.262 29.2999 205.322 29.4386 204.828 30.1036C204.334 30.7686 204.473 31.7082 205.138 32.2022C205.803 32.6962 206.743 32.5575 207.237 31.8925Z" fill="#6D3D67"/>
<path d="M217.97 17.4428C218.464 16.7778 218.325 15.8382 217.66 15.3442C216.995 14.8502 216.056 14.9889 215.562 15.6539C215.068 16.3189 215.206 17.2585 215.871 17.7525C216.536 18.2465 217.476 18.1078 217.97 17.4428Z" fill="#6D3D67"/>
<path d="M228.703 2.99301C229.197 2.32798 229.059 1.38841 228.394 0.894421C227.729 0.400432 226.789 0.539089 226.295 1.20412C225.801 1.86915 225.94 2.80872 226.605 3.30271C227.27 3.7967 228.209 3.65804 228.703 2.99301Z" fill="#6D3D67"/>
<path d="M17.7524 317.171C18.2464 316.506 18.1078 315.566 17.4427 315.072C16.7777 314.578 15.8381 314.717 15.3442 315.382C14.8502 316.047 14.9888 316.987 15.6539 317.481C16.3189 317.975 17.2585 317.836 17.7524 317.171Z" fill="#6D3D67"/>
<path d="M28.4858 302.721C28.9798 302.056 28.8412 301.117 28.1761 300.623C27.5111 300.129 26.5715 300.267 26.0776 300.932C25.5836 301.597 25.7222 302.537 26.3873 303.031C27.0523 303.525 27.9919 303.386 28.4858 302.721Z" fill="#6D3D67"/>
<path d="M39.2192 288.271C39.7132 287.606 39.5746 286.667 38.9095 286.173C38.2445 285.679 37.3049 285.817 36.811 286.483C36.317 287.148 36.4556 288.087 37.1206 288.581C37.7857 289.075 38.7253 288.936 39.2192 288.271Z" fill="#6D3D67"/>
<path d="M49.9525 273.822C50.4465 273.157 50.3078 272.217 49.6428 271.723C48.9778 271.229 48.0382 271.368 47.5442 272.033C47.0502 272.698 47.1889 273.637 47.8539 274.131C48.519 274.625 49.4585 274.487 49.9525 273.822Z" fill="#6D3D67"/>
<path d="M60.6859 259.372C61.1799 258.707 61.0412 257.767 60.3762 257.273C59.7112 256.779 58.7716 256.918 58.2776 257.583C57.7836 258.248 57.9223 259.188 58.5873 259.682C59.2524 260.176 60.1919 260.037 60.6859 259.372Z" fill="#6D3D67"/>
<path d="M71.4193 244.922C71.9133 244.257 71.7746 243.318 71.1096 242.824C70.4446 242.33 69.505 242.468 69.011 243.133C68.517 243.798 68.6557 244.738 69.3207 245.232C69.9858 245.726 70.9253 245.587 71.4193 244.922Z" fill="#6D3D67"/>
<path d="M82.1527 230.472C82.6467 229.807 82.508 228.868 81.843 228.374C81.178 227.88 80.2384 228.019 79.7444 228.684C79.2504 229.349 79.3891 230.288 80.0541 230.782C80.7192 231.276 81.6587 231.137 82.1527 230.472Z" fill="#6D3D67"/>
<path d="M92.886 216.023C93.38 215.358 93.2413 214.418 92.5763 213.924C91.9113 213.43 90.9717 213.569 90.4777 214.234C89.9837 214.899 90.1224 215.838 90.7874 216.332C91.4524 216.826 92.392 216.688 92.886 216.023Z" fill="#6D3D67"/>
<path d="M103.619 201.573C104.113 200.908 103.975 199.968 103.31 199.474C102.645 198.98 101.705 199.119 101.211 199.784C100.717 200.449 100.856 201.389 101.521 201.883C102.186 202.377 103.125 202.238 103.619 201.573Z" fill="#6D3D67"/>
<path d="M114.353 187.123C114.847 186.458 114.708 185.519 114.043 185.025C113.378 184.531 112.438 184.669 111.944 185.334C111.451 185.999 111.589 186.939 112.254 187.433C112.919 187.927 113.859 187.788 114.353 187.123Z" fill="#6D3D67"/>
<path d="M125.086 172.673C125.58 172.008 125.441 171.069 124.776 170.575C124.111 170.081 123.172 170.22 122.678 170.885C122.184 171.55 122.322 172.489 122.987 172.983C123.653 173.477 124.592 173.339 125.086 172.673Z" fill="#6D3D67"/>
<path d="M135.819 158.224C136.313 157.559 136.175 156.619 135.51 156.125C134.845 155.631 133.905 155.77 133.411 156.435C132.917 157.1 133.056 158.039 133.721 158.533C134.386 159.027 135.325 158.889 135.819 158.224Z" fill="#6D3D67"/>
<path d="M146.553 143.774C147.047 143.109 146.908 142.169 146.243 141.675C145.578 141.181 144.639 141.32 144.145 141.985C143.651 142.65 143.789 143.59 144.454 144.084C145.119 144.578 146.059 144.439 146.553 143.774Z" fill="#6D3D67"/>
<path d="M157.286 129.324C157.78 128.659 157.642 127.72 156.977 127.226C156.312 126.732 155.372 126.87 154.878 127.535C154.384 128.2 154.523 129.14 155.188 129.634C155.853 130.128 156.792 129.989 157.286 129.324Z" fill="#6D3D67"/>
<path d="M168.02 114.875C168.514 114.21 168.375 113.27 167.71 112.776C167.045 112.282 166.105 112.421 165.611 113.086C165.117 113.751 165.256 114.69 165.921 115.184C166.586 115.678 167.526 115.54 168.02 114.875Z" fill="#6D3D67"/>
<path d="M178.753 100.425C179.247 99.7598 179.108 98.8202 178.443 98.3262C177.778 97.8323 176.839 97.9709 176.345 98.6359C175.851 99.301 175.989 100.241 176.654 100.735C177.319 101.229 178.259 101.09 178.753 100.425Z" fill="#6D3D67"/>
<path d="M189.486 85.9751C189.98 85.31 189.842 84.3705 189.177 83.8765C188.512 83.3825 187.572 83.5211 187.078 84.1862C186.584 84.8512 186.723 85.7908 187.388 86.2848C188.053 86.7788 188.992 86.6401 189.486 85.9751Z" fill="#6D3D67"/>
<path d="M200.22 71.5254C200.714 70.8603 200.575 69.9208 199.91 69.4268C199.245 68.9328 198.305 69.0714 197.811 69.7365C197.317 70.4015 197.456 71.3411 198.121 71.8351C198.786 72.329 199.726 72.1904 200.22 71.5254Z" fill="#6D3D67"/>
<path d="M210.953 57.0756C211.447 56.4106 211.308 55.471 210.643 54.977C209.978 54.483 209.039 54.6217 208.545 55.2867C208.051 55.9517 208.189 56.8913 208.854 57.3853C209.519 57.8793 210.459 57.7406 210.953 57.0756Z" fill="#6D3D67"/>
<path d="M221.686 42.6259C222.18 41.9609 222.042 41.0213 221.377 40.5273C220.712 40.0333 219.772 40.172 219.278 40.837C218.784 41.502 218.923 42.4416 219.588 42.9356C220.253 43.4296 221.192 43.2909 221.686 42.6259Z" fill="#6D3D67"/>
<path d="M232.42 28.1761C232.914 27.5111 232.775 26.5715 232.11 26.0775C231.445 25.5835 230.506 25.7222 230.012 26.3872C229.518 27.0523 229.656 27.9918 230.321 28.4858C230.986 28.9798 231.926 28.8411 232.42 28.1761Z" fill="#6D3D67"/>
<path d="M243.153 13.7264C243.647 13.0614 243.508 12.1218 242.843 11.6278C242.178 11.1338 241.239 11.2725 240.745 11.9375C240.251 12.6025 240.389 13.5421 241.054 14.0361C241.72 14.5301 242.659 14.3914 243.153 13.7264Z" fill="#6D3D67"/>
<path d="M32.2023 327.904C32.6963 327.239 32.5576 326.3 31.8926 325.806C31.2275 325.312 30.288 325.45 29.794 326.115C29.3 326.78 29.4387 327.72 30.1037 328.214C30.7687 328.708 31.7083 328.569 32.2023 327.904Z" fill="#6D3D67"/>
<path d="M42.9355 313.455C43.4295 312.789 43.2909 311.85 42.6259 311.356C41.9608 310.862 41.0212 311.001 40.5273 311.666C40.0333 312.331 40.1719 313.27 40.837 313.764C41.502 314.258 42.4416 314.12 42.9355 313.455Z" fill="#6D3D67"/>
<path d="M53.6689 299.005C54.1629 298.34 54.0243 297.4 53.3592 296.906C52.6942 296.412 51.7546 296.551 51.2607 297.216C50.7667 297.881 50.9053 298.821 51.5704 299.314C52.2354 299.808 53.175 299.67 53.6689 299.005Z" fill="#6D3D67"/>
<path d="M64.4023 284.555C64.8963 283.89 64.7577 282.95 64.0926 282.456C63.4276 281.962 62.488 282.101 61.9941 282.766C61.5001 283.431 61.6387 284.371 62.3038 284.865C62.9688 285.359 63.9084 285.22 64.4023 284.555Z" fill="#6D3D67"/>
<path d="M75.1356 270.105C75.6296 269.44 75.491 268.501 74.8259 268.007C74.1609 267.513 73.2213 267.651 72.7273 268.316C72.2333 268.981 72.372 269.921 73.037 270.415C73.7021 270.909 74.6416 270.77 75.1356 270.105Z" fill="#6D3D67"/>
<path d="M85.869 255.656C86.363 254.991 86.2244 254.051 85.5593 253.557C84.8943 253.063 83.9547 253.202 83.4607 253.867C82.9667 254.532 83.1054 255.471 83.7704 255.965C84.4355 256.459 85.375 256.321 85.869 255.656Z" fill="#6D3D67"/>
<path d="M96.6024 241.206C97.0964 240.541 96.9578 239.601 96.2927 239.107C95.6277 238.613 94.6881 238.752 94.1941 239.417C93.7001 240.082 93.8388 241.022 94.5038 241.516C95.1689 242.01 96.1084 241.871 96.6024 241.206Z" fill="#6D3D67"/>
<path d="M107.336 226.756C107.83 226.091 107.691 225.151 107.026 224.657C106.361 224.163 105.422 224.302 104.928 224.967C104.434 225.632 104.572 226.572 105.237 227.066C105.902 227.56 106.842 227.421 107.336 226.756Z" fill="#6D3D67"/>
<path d="M118.069 212.306C118.563 211.641 118.424 210.702 117.759 210.208C117.094 209.714 116.155 209.852 115.661 210.517C115.167 211.183 115.305 212.122 115.971 212.616C116.636 213.11 117.575 212.971 118.069 212.306Z" fill="#6D3D67"/>
<path d="M128.802 197.857C129.296 197.192 129.158 196.252 128.493 195.758C127.828 195.264 126.888 195.403 126.394 196.068C125.9 196.733 126.039 197.672 126.704 198.166C127.369 198.66 128.309 198.522 128.802 197.857Z" fill="#6D3D67"/>
<path d="M139.536 183.407C140.03 182.742 139.891 181.802 139.226 181.308C138.561 180.814 137.622 180.953 137.128 181.618C136.634 182.283 136.772 183.223 137.437 183.717C138.102 184.211 139.042 184.072 139.536 183.407Z" fill="#6D3D67"/>
<path d="M150.269 168.957C150.763 168.292 150.625 167.353 149.959 166.859C149.294 166.365 148.355 166.503 147.861 167.168C147.367 167.833 147.506 168.773 148.171 169.267C148.836 169.761 149.775 169.622 150.269 168.957Z" fill="#6D3D67"/>
<path d="M161.003 154.507C161.497 153.842 161.358 152.903 160.693 152.409C160.028 151.915 159.088 152.053 158.594 152.719C158.1 153.384 158.239 154.323 158.904 154.817C159.569 155.311 160.509 155.172 161.003 154.507Z" fill="#6D3D67"/>
<path d="M171.736 140.058C172.23 139.393 172.091 138.453 171.426 137.959C170.761 137.465 169.822 137.604 169.328 138.269C168.834 138.934 168.972 139.873 169.637 140.367C170.302 140.861 171.242 140.723 171.736 140.058Z" fill="#6D3D67"/>
<path d="M182.469 125.608C182.963 124.943 182.825 124.003 182.16 123.509C181.495 123.015 180.555 123.154 180.061 123.819C179.567 124.484 179.706 125.424 180.371 125.918C181.036 126.412 181.975 126.273 182.469 125.608Z" fill="#6D3D67"/>
<path d="M193.203 111.158C193.697 110.493 193.558 109.554 192.893 109.06C192.228 108.566 191.288 108.704 190.794 109.369C190.3 110.034 190.439 110.974 191.104 111.468C191.769 111.962 192.709 111.823 193.203 111.158Z" fill="#6D3D67"/>
<path d="M203.936 96.7085C204.43 96.0434 204.291 95.1039 203.626 94.6099C202.961 94.1159 202.022 94.2545 201.528 94.9196C201.034 95.5846 201.172 96.5242 201.837 97.0182C202.502 97.5122 203.442 97.3735 203.936 96.7085Z" fill="#6D3D67"/>
<path d="M214.669 82.2587C215.163 81.5937 215.025 80.6541 214.36 80.1601C213.695 79.6661 212.755 79.8048 212.261 80.4698C211.767 81.1348 211.906 82.0744 212.571 82.5684C213.236 83.0624 214.175 82.9237 214.669 82.2587Z" fill="#6D3D67"/>
<path d="M225.403 67.809C225.897 67.144 225.758 66.2044 225.093 65.7104C224.428 65.2164 223.488 65.3551 222.994 66.0201C222.5 66.6851 222.639 67.6247 223.304 68.1187C223.969 68.6127 224.909 68.474 225.403 67.809Z" fill="#6D3D67"/>
<path d="M236.136 53.3592C236.63 52.6942 236.491 51.7546 235.826 51.2606C235.161 50.7666 234.222 50.9053 233.728 51.5703C233.234 52.2354 233.372 53.1749 234.038 53.6689C234.703 54.1629 235.642 54.0243 236.136 53.3592Z" fill="#6D3D67"/>
<path d="M246.87 38.9095C247.363 38.2445 247.225 37.3049 246.56 36.8109C245.895 36.3169 244.955 36.4556 244.461 37.1206C243.967 37.7857 244.106 38.7252 244.771 39.2192C245.436 39.7132 246.376 39.5745 246.87 38.9095Z" fill="#6D3D67"/>
<path d="M257.603 24.4597C258.097 23.7947 257.958 22.8551 257.293 22.3612C256.628 21.8672 255.689 22.0058 255.195 22.6709C254.701 23.3359 254.839 24.2755 255.504 24.7694C256.169 25.2634 257.109 25.1248 257.603 24.4597Z" fill="#6D3D67"/>
<path d="M46.652 338.638C47.146 337.973 47.0073 337.033 46.3423 336.539C45.6773 336.045 44.7377 336.184 44.2437 336.849C43.7497 337.514 43.8884 338.453 44.5534 338.947C45.2184 339.441 46.158 339.303 46.652 338.638Z" fill="#6D3D67"/>
<path d="M57.3853 324.188C57.8792 323.523 57.7406 322.583 57.0756 322.089C56.4105 321.595 55.471 321.734 54.977 322.399C54.483 323.064 54.6216 324.004 55.2867 324.498C55.9517 324.992 56.8913 324.853 57.3853 324.188Z" fill="#6D3D67"/>
<path d="M68.1187 309.738C68.6126 309.073 68.474 308.134 67.809 307.64C67.1439 307.146 66.2044 307.284 65.7104 307.949C65.2164 308.614 65.355 309.554 66.0201 310.048C66.6851 310.542 67.6247 310.403 68.1187 309.738Z" fill="#6D3D67"/>
<path d="M78.8521 295.288C79.346 294.623 79.2074 293.684 78.5424 293.19C77.8773 292.696 76.9378 292.834 76.4438 293.5C75.9498 294.165 76.0884 295.104 76.7535 295.598C77.4185 296.092 78.3581 295.953 78.8521 295.288Z" fill="#6D3D67"/>
<path d="M89.5855 280.839C90.0794 280.174 89.9408 279.234 89.2758 278.74C88.6107 278.246 87.6712 278.385 87.1772 279.05C86.6832 279.715 86.8218 280.654 87.4869 281.148C88.1519 281.642 89.0915 281.504 89.5855 280.839Z" fill="#6D3D67"/>
<path d="M100.319 266.389C100.813 265.724 100.674 264.784 100.009 264.29C99.344 263.796 98.4044 263.935 97.9104 264.6C97.4164 265.265 97.5551 266.205 98.2201 266.699C98.8852 267.193 99.8247 267.054 100.319 266.389Z" fill="#6D3D67"/>
<path d="M111.052 251.939C111.546 251.274 111.407 250.335 110.742 249.841C110.077 249.347 109.138 249.485 108.644 250.15C108.15 250.815 108.289 251.755 108.954 252.249C109.619 252.743 110.558 252.604 111.052 251.939Z" fill="#6D3D67"/>
<path d="M121.786 237.489C122.28 236.824 122.141 235.885 121.476 235.391C120.811 234.897 119.871 235.036 119.377 235.701C118.883 236.366 119.022 237.305 119.687 237.799C120.352 238.293 121.292 238.155 121.786 237.489Z" fill="#6D3D67"/>
<path d="M132.519 223.04C133.013 222.375 132.874 221.435 132.209 220.941C131.544 220.447 130.605 220.586 130.111 221.251C129.617 221.916 129.755 222.855 130.42 223.349C131.085 223.843 132.025 223.705 132.519 223.04Z" fill="#6D3D67"/>
<path d="M143.252 208.59C143.746 207.925 143.608 206.985 142.943 206.491C142.277 205.997 141.338 206.136 140.844 206.801C140.35 207.466 140.489 208.406 141.154 208.9C141.819 209.394 142.758 209.255 143.252 208.59Z" fill="#6D3D67"/>
<path d="M153.986 194.14C154.48 193.475 154.341 192.536 153.676 192.042C153.011 191.548 152.071 191.686 151.577 192.351C151.083 193.016 151.222 193.956 151.887 194.45C152.552 194.944 153.492 194.805 153.986 194.14Z" fill="#6D3D67"/>
<path d="M164.719 179.691C165.213 179.025 165.074 178.086 164.409 177.592C163.744 177.098 162.805 177.237 162.311 177.902C161.817 178.567 161.955 179.506 162.62 180C163.285 180.494 164.225 180.356 164.719 179.691Z" fill="#6D3D67"/>
<path d="M175.452 165.241C175.946 164.576 175.808 163.636 175.143 163.142C174.478 162.648 173.538 162.787 173.044 163.452C172.55 164.117 172.689 165.056 173.354 165.55C174.019 166.044 174.958 165.906 175.452 165.241Z" fill="#6D3D67"/>
<path d="M186.186 150.791C186.68 150.126 186.541 149.186 185.876 148.692C185.211 148.198 184.271 148.337 183.777 149.002C183.283 149.667 183.422 150.607 184.087 151.101C184.752 151.595 185.692 151.456 186.186 150.791Z" fill="#6D3D67"/>
<path d="M196.919 136.341C197.413 135.676 197.274 134.737 196.609 134.243C195.944 133.749 195.005 133.887 194.511 134.552C194.017 135.217 194.155 136.157 194.82 136.651C195.486 137.145 196.425 137.006 196.919 136.341Z" fill="#6D3D67"/>
<path d="M207.652 121.892C208.146 121.227 208.008 120.287 207.343 119.793C206.678 119.299 205.738 119.438 205.244 120.103C204.75 120.768 204.889 121.707 205.554 122.201C206.219 122.695 207.158 122.557 207.652 121.892Z" fill="#6D3D67"/>
<path d="M218.386 107.442C218.88 106.777 218.741 105.837 218.076 105.343C217.411 104.849 216.471 104.988 215.977 105.653C215.483 106.318 215.622 107.258 216.287 107.752C216.952 108.245 217.892 108.107 218.386 107.442Z" fill="#6D3D67"/>
<path d="M229.119 92.9921C229.613 92.3271 229.474 91.3875 228.809 90.8935C228.144 90.3995 227.205 90.5382 226.711 91.2032C226.217 91.8682 226.356 92.8078 227.021 93.3018C227.686 93.7958 228.625 93.6571 229.119 92.9921Z" fill="#6D3D67"/>
<path d="M239.853 78.5423C240.347 77.8773 240.208 76.9377 239.543 76.4437C238.878 75.9497 237.938 76.0884 237.444 76.7534C236.95 77.4185 237.089 78.358 237.754 78.852C238.419 79.346 239.359 79.2074 239.853 78.5423Z" fill="#6D3D67"/>
<path d="M250.586 64.0926C251.08 63.4276 250.941 62.488 250.276 61.994C249.611 61.5 248.672 61.6387 248.178 62.3037C247.684 62.9688 247.822 63.9083 248.487 64.4023C249.152 64.8963 250.092 64.7577 250.586 64.0926Z" fill="#6D3D67"/>
<path d="M261.319 49.6429C261.813 48.9778 261.675 48.0383 261.01 47.5443C260.344 47.0503 259.405 47.1889 258.911 47.854C258.417 48.519 258.556 49.4586 259.221 49.9526C259.886 50.4465 260.825 50.3079 261.319 49.6429Z" fill="#6D3D67"/>
<path d="M272.053 35.1931C272.547 34.5281 272.408 33.5885 271.743 33.0946C271.078 32.6006 270.138 32.7392 269.644 33.4043C269.15 34.0693 269.289 35.0089 269.954 35.5028C270.619 35.9968 271.559 35.8582 272.053 35.1931Z" fill="#6D3D67"/>
<path d="M61.1017 349.371C61.5957 348.706 61.457 347.766 60.792 347.272C60.127 346.778 59.1874 346.917 58.6934 347.582C58.1994 348.247 58.3381 349.187 59.0031 349.681C59.6681 350.175 60.6077 350.036 61.1017 349.371Z" fill="#6D3D67"/>
<path d="M71.8351 334.921C72.3291 334.256 72.1904 333.317 71.5254 332.823C70.8604 332.329 69.9208 332.467 69.4268 333.132C68.9328 333.797 69.0715 334.737 69.7365 335.231C70.4015 335.725 71.3411 335.586 71.8351 334.921Z" fill="#6D3D67"/>
<path d="M82.5684 320.472C83.0624 319.806 82.9237 318.867 82.2587 318.373C81.5936 317.879 80.6541 318.018 80.1601 318.683C79.6661 319.348 79.8047 320.287 80.4698 320.781C81.1348 321.275 82.0744 321.137 82.5684 320.472Z" fill="#6D3D67"/>
<path d="M93.3018 306.022C93.7957 305.357 93.6571 304.417 92.9921 303.923C92.327 303.429 91.3875 303.568 90.8935 304.233C90.3995 304.898 90.5381 305.837 91.2032 306.331C91.8682 306.825 92.8078 306.687 93.3018 306.022Z" fill="#6D3D67"/>
<path d="M104.035 291.572C104.529 290.907 104.39 289.967 103.725 289.473C103.06 288.979 102.121 289.118 101.627 289.783C101.133 290.448 101.272 291.388 101.937 291.882C102.602 292.376 103.541 292.237 104.035 291.572Z" fill="#6D3D67"/>
<path d="M114.769 277.122C115.263 276.457 115.124 275.518 114.459 275.024C113.794 274.53 112.854 274.668 112.36 275.333C111.866 275.998 112.005 276.938 112.67 277.432C113.335 277.926 114.275 277.787 114.769 277.122Z" fill="#6D3D67"/>
<path d="M125.502 262.673C125.996 262.008 125.857 261.068 125.192 260.574C124.527 260.08 123.588 260.219 123.094 260.884C122.6 261.549 122.738 262.488 123.403 262.982C124.068 263.476 125.008 263.338 125.502 262.673Z" fill="#6D3D67"/>
<path d="M136.235 248.223C136.729 247.558 136.591 246.618 135.926 246.124C135.261 245.63 134.321 245.769 133.827 246.434C133.333 247.099 133.472 248.039 134.137 248.533C134.802 249.026 135.741 248.888 136.235 248.223Z" fill="#6D3D67"/>
<path d="M146.969 233.773C147.463 233.108 147.324 232.169 146.659 231.675C145.994 231.181 145.054 231.319 144.56 231.984C144.066 232.649 144.205 233.589 144.87 234.083C145.535 234.577 146.475 234.438 146.969 233.773Z" fill="#6D3D67"/>
<path d="M157.702 219.323C158.196 218.658 158.057 217.719 157.392 217.225C156.727 216.731 155.788 216.869 155.294 217.534C154.8 218.199 154.938 219.139 155.603 219.633C156.268 220.127 157.208 219.988 157.702 219.323Z" fill="#6D3D67"/>
<path d="M168.435 204.874C168.929 204.209 168.791 203.269 168.126 202.775C167.461 202.281 166.521 202.42 166.027 203.085C165.533 203.75 165.672 204.689 166.337 205.183C167.002 205.677 167.941 205.539 168.435 204.874Z" fill="#6D3D67"/>
<path d="M179.169 190.424C179.663 189.759 179.524 188.819 178.859 188.325C178.194 187.831 177.254 187.97 176.76 188.635C176.266 189.3 176.405 190.24 177.07 190.734C177.735 191.228 178.675 191.089 179.169 190.424Z" fill="#6D3D67"/>
<path d="M189.902 175.974C190.396 175.309 190.257 174.37 189.592 173.876C188.927 173.382 187.988 173.52 187.494 174.185C187 174.85 187.138 175.79 187.804 176.284C188.469 176.778 189.408 176.639 189.902 175.974Z" fill="#6D3D67"/>
<path d="M200.635 161.524C201.129 160.859 200.991 159.92 200.326 159.426C199.661 158.932 198.721 159.07 198.227 159.735C197.733 160.401 197.872 161.34 198.537 161.834C199.202 162.328 200.141 162.189 200.635 161.524Z" fill="#6D3D67"/>
<path d="M211.369 147.075C211.863 146.41 211.724 145.47 211.059 144.976C210.394 144.482 209.454 144.621 208.96 145.286C208.466 145.951 208.605 146.89 209.27 147.384C209.935 147.878 210.875 147.74 211.369 147.075Z" fill="#6D3D67"/>
<path d="M222.102 132.625C222.596 131.96 222.458 131.02 221.792 130.526C221.127 130.032 220.188 130.171 219.694 130.836C219.2 131.501 219.339 132.441 220.004 132.935C220.669 133.429 221.608 133.29 222.102 132.625Z" fill="#6D3D67"/>
<path d="M232.835 118.175C233.329 117.51 233.191 116.571 232.526 116.077C231.861 115.583 230.921 115.721 230.427 116.386C229.933 117.051 230.072 117.991 230.737 118.485C231.402 118.979 232.341 118.84 232.835 118.175Z" fill="#6D3D67"/>
<path d="M243.569 103.725C244.063 103.06 243.924 102.121 243.259 101.627C242.594 101.133 241.655 101.272 241.161 101.937C240.667 102.602 240.805 103.541 241.47 104.035C242.135 104.529 243.075 104.39 243.569 103.725Z" fill="#6D3D67"/>
<path d="M254.302 89.2757C254.796 88.6107 254.658 87.6711 253.993 87.1771C253.328 86.6831 252.388 86.8218 251.894 87.4868C251.4 88.1519 251.539 89.0914 252.204 89.5854C252.869 90.0794 253.808 89.9408 254.302 89.2757Z" fill="#6D3D67"/>
<path d="M265.036 74.826C265.53 74.1609 265.391 73.2214 264.726 72.7274C264.061 72.2334 263.121 72.372 262.627 73.0371C262.133 73.7021 262.272 74.6417 262.937 75.1357C263.602 75.6296 264.542 75.491 265.036 74.826Z" fill="#6D3D67"/>
<path d="M275.769 60.3763C276.263 59.7112 276.124 58.7717 275.459 58.2777C274.794 57.7837 273.855 57.9223 273.361 58.5874C272.867 59.2524 273.005 60.192 273.67 60.686C274.335 61.1799 275.275 61.0413 275.769 60.3763Z" fill="#6D3D67"/>
<path d="M286.502 45.9265C286.996 45.2615 286.858 44.3219 286.193 43.8279C285.528 43.3339 284.588 43.4726 284.094 44.1376C283.6 44.8026 283.739 45.7422 284.404 46.2362C285.069 46.7302 286.008 46.5915 286.502 45.9265Z" fill="#6D3D67"/>
<path d="M75.5514 360.104C76.0454 359.439 75.9067 358.5 75.2417 358.006C74.5767 357.512 73.6371 357.65 73.1431 358.315C72.6491 358.98 72.7878 359.92 73.4528 360.414C74.1178 360.908 75.0574 360.769 75.5514 360.104Z" fill="#6D3D67"/>
<path d="M86.2848 345.655C86.7788 344.99 86.6401 344.05 85.9751 343.556C85.3101 343.062 84.3705 343.201 83.8765 343.866C83.3825 344.531 83.5212 345.47 84.1862 345.964C84.8512 346.458 85.7908 346.32 86.2848 345.655Z" fill="#6D3D67"/>
<path d="M97.0182 331.205C97.5122 330.54 97.3735 329.6 96.7085 329.106C96.0435 328.612 95.1039 328.751 94.6099 329.416C94.1159 330.081 94.2546 331.021 94.9196 331.515C95.5846 332.009 96.5242 331.87 97.0182 331.205Z" fill="#6D3D67"/>
<path d="M107.751 316.755C108.245 316.09 108.107 315.151 107.442 314.657C106.777 314.163 105.837 314.301 105.343 314.966C104.849 315.631 104.988 316.571 105.653 317.065C106.318 317.559 107.257 317.42 107.751 316.755Z" fill="#6D3D67"/>
<path d="M118.485 302.305C118.979 301.64 118.84 300.701 118.175 300.207C117.51 299.713 116.571 299.851 116.077 300.516C115.583 301.182 115.721 302.121 116.386 302.615C117.051 303.109 117.991 302.97 118.485 302.305Z" fill="#6D3D67"/>
<path d="M129.218 287.856C129.712 287.191 129.574 286.251 128.909 285.757C128.244 285.263 127.304 285.402 126.81 286.067C126.316 286.732 126.455 287.671 127.12 288.165C127.785 288.659 128.724 288.521 129.218 287.856Z" fill="#6D3D67"/>
<path d="M139.952 273.406C140.446 272.741 140.307 271.801 139.642 271.307C138.977 270.813 138.037 270.952 137.543 271.617C137.049 272.282 137.188 273.222 137.853 273.716C138.518 274.21 139.458 274.071 139.952 273.406Z" fill="#6D3D67"/>
<path d="M150.685 258.956C151.179 258.291 151.04 257.352 150.375 256.858C149.71 256.364 148.771 256.502 148.277 257.167C147.783 257.832 147.921 258.772 148.586 259.266C149.251 259.76 150.191 259.621 150.685 258.956Z" fill="#6D3D67"/>
<path d="M161.418 244.506C161.912 243.841 161.774 242.902 161.109 242.408C160.444 241.914 159.504 242.053 159.01 242.718C158.516 243.383 158.655 244.322 159.32 244.816C159.985 245.31 160.924 245.171 161.418 244.506Z" fill="#6D3D67"/>
<path d="M172.152 230.057C172.646 229.392 172.507 228.452 171.842 227.958C171.177 227.464 170.237 227.603 169.743 228.268C169.249 228.933 169.388 229.872 170.053 230.366C170.718 230.86 171.658 230.722 172.152 230.057Z" fill="#6D3D67"/>
<path d="M182.885 215.607C183.379 214.942 183.24 214.002 182.575 213.508C181.91 213.014 180.971 213.153 180.477 213.818C179.983 214.483 180.121 215.423 180.786 215.917C181.451 216.411 182.391 216.272 182.885 215.607Z" fill="#6D3D67"/>
<path d="M193.618 201.157C194.112 200.492 193.974 199.553 193.309 199.059C192.644 198.565 191.704 198.703 191.21 199.368C190.716 200.033 190.855 200.973 191.52 201.467C192.185 201.961 193.124 201.822 193.618 201.157Z" fill="#6D3D67"/>
<path d="M204.352 186.707C204.846 186.042 204.707 185.103 204.042 184.609C203.377 184.115 202.438 184.254 201.944 184.919C201.45 185.584 201.588 186.523 202.253 187.017C202.918 187.511 203.858 187.373 204.352 186.707Z" fill="#6D3D67"/>
<path d="M215.085 172.258C215.579 171.593 215.441 170.653 214.776 170.159C214.11 169.665 213.171 169.804 212.677 170.469C212.183 171.134 212.322 172.073 212.987 172.567C213.652 173.061 214.591 172.923 215.085 172.258Z" fill="#6D3D67"/>
<path d="M225.818 157.808C226.312 157.143 226.174 156.203 225.509 155.709C224.844 155.215 223.904 155.354 223.41 156.019C222.916 156.684 223.055 157.624 223.72 158.118C224.385 158.612 225.324 158.473 225.818 157.808Z" fill="#6D3D67"/>
<path d="M236.552 143.358C237.046 142.693 236.907 141.754 236.242 141.26C235.577 140.766 234.638 140.904 234.144 141.569C233.65 142.234 233.788 143.174 234.453 143.668C235.118 144.162 236.058 144.023 236.552 143.358Z" fill="#6D3D67"/>
<path d="M247.285 128.909C247.779 128.244 247.641 127.304 246.976 126.81C246.311 126.316 245.371 126.455 244.877 127.12C244.383 127.785 244.522 128.724 245.187 129.218C245.852 129.712 246.791 129.574 247.285 128.909Z" fill="#6D3D67"/>
<path d="M258.019 114.459C258.513 113.794 258.374 112.854 257.709 112.36C257.044 111.866 256.104 112.005 255.61 112.67C255.116 113.335 255.255 114.275 255.92 114.769C256.585 115.263 257.525 115.124 258.019 114.459Z" fill="#6D3D67"/>
<path d="M268.752 100.009C269.246 99.344 269.107 98.4045 268.442 97.9105C267.777 97.4165 266.838 97.5551 266.344 98.2202C265.85 98.8852 265.988 99.8248 266.653 100.319C267.318 100.813 268.258 100.674 268.752 100.009Z" fill="#6D3D67"/>
<path d="M279.485 85.5594C279.979 84.8943 279.841 83.9548 279.176 83.4608C278.511 82.9668 277.571 83.1054 277.077 83.7705C276.583 84.4355 276.722 85.3751 277.387 85.8691C278.052 86.363 278.991 86.2244 279.485 85.5594Z" fill="#6D3D67"/>
<path d="M90.0012 370.838C90.4952 370.173 90.3566 369.233 89.6915 368.739C89.0265 368.245 88.0869 368.384 87.5929 369.049C87.0989 369.714 87.2376 370.653 87.9026 371.147C88.5677 371.641 89.5072 371.503 90.0012 370.838Z" fill="#6D3D67"/>
<path d="M100.734 356.388C101.228 355.723 101.09 354.783 100.425 354.289C99.7598 353.795 98.8202 353.934 98.3262 354.599C97.8322 355.264 97.9709 356.204 98.6359 356.698C99.3009 357.192 100.241 357.053 100.734 356.388Z" fill="#6D3D67"/>
<path d="M111.468 341.938C111.962 341.273 111.823 340.334 111.158 339.84C110.493 339.346 109.554 339.484 109.06 340.149C108.566 340.814 108.704 341.754 109.369 342.248C110.034 342.742 110.974 342.603 111.468 341.938Z" fill="#6D3D67"/>
<path d="M122.201 327.488C122.695 326.823 122.557 325.884 121.892 325.39C121.227 324.896 120.287 325.035 119.793 325.7C119.299 326.365 119.438 327.304 120.103 327.798C120.768 328.292 121.707 328.154 122.201 327.488Z" fill="#6D3D67"/>
<path d="M132.935 313.039C133.429 312.374 133.29 311.434 132.625 310.94C131.96 310.446 131.02 310.585 130.526 311.25C130.032 311.915 130.171 312.854 130.836 313.348C131.501 313.842 132.441 313.704 132.935 313.039Z" fill="#6D3D67"/>
<path d="M143.668 298.589C144.162 297.924 144.023 296.984 143.358 296.49C142.693 295.996 141.754 296.135 141.26 296.8C140.766 297.465 140.904 298.405 141.569 298.899C142.234 299.393 143.174 299.254 143.668 298.589Z" fill="#6D3D67"/>
<path d="M154.401 284.139C154.895 283.474 154.757 282.535 154.092 282.041C153.427 281.547 152.487 281.685 151.993 282.35C151.499 283.015 151.638 283.955 152.303 284.449C152.968 284.943 153.907 284.804 154.401 284.139Z" fill="#6D3D67"/>
<path d="M165.135 269.69C165.629 269.025 165.49 268.085 164.825 267.591C164.16 267.097 163.22 267.236 162.726 267.901C162.232 268.566 162.371 269.505 163.036 269.999C163.701 270.493 164.641 270.355 165.135 269.69Z" fill="#6D3D67"/>
<path d="M175.868 255.24C176.362 254.575 176.223 253.635 175.558 253.141C174.893 252.647 173.954 252.786 173.46 253.451C172.966 254.116 173.104 255.056 173.769 255.55C174.434 256.044 175.374 255.905 175.868 255.24Z" fill="#6D3D67"/>
<path d="M186.601 240.79C187.095 240.125 186.957 239.185 186.292 238.691C185.627 238.197 184.687 238.336 184.193 239.001C183.699 239.666 183.838 240.606 184.503 241.1C185.168 241.594 186.107 241.455 186.601 240.79Z" fill="#6D3D67"/>
<path d="M197.335 226.34C197.829 225.675 197.69 224.736 197.025 224.242C196.36 223.748 195.421 223.886 194.927 224.551C194.433 225.217 194.571 226.156 195.236 226.65C195.901 227.144 196.841 227.005 197.335 226.34Z" fill="#6D3D67"/>
<path d="M208.068 211.891C208.562 211.226 208.423 210.286 207.758 209.792C207.093 209.298 206.154 209.437 205.66 210.102C205.166 210.767 205.304 211.706 205.97 212.2C206.635 212.694 207.574 212.556 208.068 211.891Z" fill="#6D3D67"/>
<path d="M218.802 197.441C219.296 196.776 219.157 195.836 218.492 195.342C217.827 194.848 216.887 194.987 216.393 195.652C215.899 196.317 216.038 197.257 216.703 197.751C217.368 198.245 218.308 198.106 218.802 197.441Z" fill="#6D3D67"/>
<path d="M229.535 182.991C230.029 182.326 229.89 181.387 229.225 180.893C228.56 180.399 227.621 180.537 227.127 181.202C226.633 181.867 226.771 182.807 227.436 183.301C228.101 183.795 229.041 183.656 229.535 182.991Z" fill="#6D3D67"/>
<path d="M240.268 168.541C240.762 167.876 240.624 166.937 239.959 166.443C239.294 165.949 238.354 166.087 237.86 166.752C237.366 167.417 237.505 168.357 238.17 168.851C238.835 169.345 239.774 169.206 240.268 168.541Z" fill="#6D3D67"/>
<path d="M251.002 154.092C251.496 153.427 251.357 152.487 250.692 151.993C250.027 151.499 249.087 151.638 248.593 152.303C248.099 152.968 248.238 153.907 248.903 154.401C249.568 154.895 250.508 154.757 251.002 154.092Z" fill="#6D3D67"/>
<path d="M261.735 139.642C262.229 138.977 262.09 138.037 261.425 137.543C260.76 137.049 259.821 137.188 259.327 137.853C258.833 138.518 258.971 139.458 259.636 139.952C260.301 140.446 261.241 140.307 261.735 139.642Z" fill="#6D3D67"/>
<path d="M272.468 125.192C272.962 124.527 272.824 123.588 272.159 123.094C271.494 122.6 270.554 122.738 270.06 123.403C269.566 124.068 269.705 125.008 270.37 125.502C271.035 125.996 271.974 125.857 272.468 125.192Z" fill="#6D3D67"/>
<path d="M283.202 110.742C283.696 110.077 283.557 109.138 282.892 108.644C282.227 108.15 281.287 108.288 280.793 108.954C280.299 109.619 280.438 110.558 281.103 111.052C281.768 111.546 282.708 111.407 283.202 110.742Z" fill="#6D3D67"/>
<path d="M104.451 381.571C104.945 380.906 104.806 379.966 104.141 379.472C103.476 378.978 102.537 379.117 102.043 379.782C101.549 380.447 101.687 381.387 102.352 381.881C103.017 382.375 103.957 382.236 104.451 381.571Z" fill="#6D3D67"/>
<path d="M115.184 367.121C115.678 366.456 115.54 365.517 114.875 365.023C114.209 364.529 113.27 364.667 112.776 365.332C112.282 365.998 112.421 366.937 113.086 367.431C113.751 367.925 114.69 367.786 115.184 367.121Z" fill="#6D3D67"/>
<path d="M125.918 352.672C126.412 352.007 126.273 351.067 125.608 350.573C124.943 350.079 124.003 350.218 123.509 350.883C123.015 351.548 123.154 352.487 123.819 352.981C124.484 353.475 125.424 353.337 125.918 352.672Z" fill="#6D3D67"/>
<path d="M136.651 338.222C137.145 337.557 137.006 336.617 136.341 336.123C135.676 335.629 134.737 335.768 134.243 336.433C133.749 337.098 133.887 338.038 134.552 338.532C135.217 339.026 136.157 338.887 136.651 338.222Z" fill="#6D3D67"/>
<path d="M147.384 323.772C147.878 323.107 147.74 322.168 147.075 321.674C146.41 321.18 145.47 321.318 144.976 321.983C144.482 322.648 144.621 323.588 145.286 324.082C145.951 324.576 146.89 324.437 147.384 323.772Z" fill="#6D3D67"/>
<path d="M158.118 309.322C158.612 308.657 158.473 307.718 157.808 307.224C157.143 306.73 156.203 306.868 155.709 307.533C155.215 308.198 155.354 309.138 156.019 309.632C156.684 310.126 157.624 309.987 158.118 309.322Z" fill="#6D3D67"/>
<path d="M168.851 294.873C169.345 294.208 169.206 293.268 168.541 292.774C167.876 292.28 166.937 292.419 166.443 293.084C165.949 293.749 166.087 294.688 166.752 295.182C167.418 295.676 168.357 295.538 168.851 294.873Z" fill="#6D3D67"/>
<path d="M179.584 280.423C180.078 279.758 179.94 278.818 179.275 278.324C178.61 277.83 177.67 277.969 177.176 278.634C176.682 279.299 176.821 280.239 177.486 280.733C178.151 281.227 179.09 281.088 179.584 280.423Z" fill="#6D3D67"/>
<path d="M190.318 265.973C190.812 265.308 190.673 264.369 190.008 263.875C189.343 263.381 188.403 263.519 187.909 264.184C187.415 264.849 187.554 265.789 188.219 266.283C188.884 266.777 189.824 266.638 190.318 265.973Z" fill="#6D3D67"/>
<path d="M201.051 251.523C201.545 250.858 201.406 249.919 200.741 249.425C200.076 248.931 199.137 249.069 198.643 249.735C198.149 250.4 198.288 251.339 198.953 251.833C199.618 252.327 200.557 252.188 201.051 251.523Z" fill="#6D3D67"/>
<path d="M211.785 237.074C212.279 236.409 212.14 235.469 211.475 234.975C210.81 234.481 209.87 234.62 209.376 235.285C208.882 235.95 209.021 236.889 209.686 237.383C210.351 237.877 211.291 237.739 211.785 237.074Z" fill="#6D3D67"/>
<path d="M222.518 222.624C223.012 221.959 222.873 221.019 222.208 220.525C221.543 220.031 220.604 220.17 220.11 220.835C219.616 221.5 219.754 222.44 220.419 222.934C221.084 223.428 222.024 223.289 222.518 222.624Z" fill="#6D3D67"/>
<path d="M233.251 208.174C233.745 207.509 233.607 206.57 232.942 206.076C232.276 205.582 231.337 205.72 230.843 206.385C230.349 207.05 230.488 207.99 231.153 208.484C231.818 208.978 232.757 208.839 233.251 208.174Z" fill="#6D3D67"/>
<path d="M243.985 193.724C244.479 193.059 244.34 192.12 243.675 191.626C243.01 191.132 242.07 191.271 241.576 191.936C241.082 192.601 241.221 193.54 241.886 194.034C242.551 194.528 243.491 194.389 243.985 193.724Z" fill="#6D3D67"/>
<path d="M254.718 179.275C255.212 178.61 255.073 177.67 254.408 177.176C253.743 176.682 252.804 176.821 252.31 177.486C251.816 178.151 251.954 179.09 252.619 179.584C253.284 180.078 254.224 179.94 254.718 179.275Z" fill="#6D3D67"/>
<path d="M265.451 164.825C265.945 164.16 265.807 163.22 265.142 162.726C264.477 162.232 263.537 162.371 263.043 163.036C262.549 163.701 262.688 164.641 263.353 165.135C264.018 165.629 264.957 165.49 265.451 164.825Z" fill="#6D3D67"/>
<path d="M276.185 150.375C276.679 149.71 276.54 148.771 275.875 148.277C275.21 147.783 274.27 147.921 273.776 148.586C273.282 149.251 273.421 150.191 274.086 150.685C274.751 151.179 275.691 151.04 276.185 150.375Z" fill="#6D3D67"/>
<path d="M286.918 135.926C287.412 135.26 287.273 134.321 286.608 133.827C285.943 133.333 285.004 133.472 284.51 134.137C284.016 134.802 284.154 135.741 284.82 136.235C285.485 136.729 286.424 136.591 286.918 135.926Z" fill="#6D3D67"/>
<path d="M118.901 392.304C119.395 391.639 119.256 390.7 118.591 390.206C117.926 389.712 116.986 389.85 116.492 390.516C115.998 391.181 116.137 392.12 116.802 392.614C117.467 393.108 118.407 392.969 118.901 392.304Z" fill="#6D3D67"/>
<path d="M129.634 377.855C130.128 377.19 129.989 376.25 129.324 375.756C128.659 375.262 127.72 375.401 127.226 376.066C126.732 376.731 126.87 377.67 127.535 378.164C128.2 378.658 129.14 378.52 129.634 377.855Z" fill="#6D3D67"/>
<path d="M140.367 363.405C140.861 362.74 140.723 361.8 140.058 361.306C139.393 360.812 138.453 360.951 137.959 361.616C137.465 362.281 137.604 363.221 138.269 363.715C138.934 364.209 139.873 364.07 140.367 363.405Z" fill="#6D3D67"/>
<path d="M151.101 348.955C151.595 348.29 151.456 347.351 150.791 346.857C150.126 346.363 149.186 346.501 148.692 347.166C148.198 347.831 148.337 348.771 149.002 349.265C149.667 349.759 150.607 349.62 151.101 348.955Z" fill="#6D3D67"/>
<path d="M161.834 334.505C162.328 333.84 162.189 332.901 161.524 332.407C160.859 331.913 159.92 332.052 159.426 332.717C158.932 333.382 159.07 334.321 159.736 334.815C160.401 335.309 161.34 335.17 161.834 334.505Z" fill="#6D3D67"/>
<path d="M172.568 320.056C173.061 319.391 172.923 318.451 172.258 317.957C171.593 317.463 170.653 317.602 170.159 318.267C169.665 318.932 169.804 319.871 170.469 320.365C171.134 320.859 172.074 320.721 172.568 320.056Z" fill="#6D3D67"/>
<path d="M183.301 305.606C183.795 304.941 183.656 304.001 182.991 303.507C182.326 303.013 181.386 303.152 180.892 303.817C180.399 304.482 180.537 305.422 181.202 305.916C181.867 306.41 182.807 306.271 183.301 305.606Z" fill="#6D3D67"/>
<path d="M194.034 291.156C194.528 290.491 194.39 289.552 193.724 289.058C193.059 288.564 192.12 288.702 191.626 289.367C191.132 290.032 191.271 290.972 191.936 291.466C192.601 291.96 193.54 291.821 194.034 291.156Z" fill="#6D3D67"/>
<path d="M204.768 276.707C205.262 276.041 205.123 275.102 204.458 274.608C203.793 274.114 202.853 274.253 202.359 274.918C201.865 275.583 202.004 276.522 202.669 277.016C203.334 277.51 204.274 277.372 204.768 276.707Z" fill="#6D3D67"/>
<path d="M215.501 262.257C215.995 261.592 215.856 260.652 215.191 260.158C214.526 259.664 213.587 259.803 213.093 260.468C212.599 261.133 212.737 262.073 213.402 262.567C214.067 263.06 215.007 262.922 215.501 262.257Z" fill="#6D3D67"/>
<path d="M226.234 247.807C226.728 247.142 226.59 246.202 225.925 245.708C225.26 245.214 224.32 245.353 223.826 246.018C223.332 246.683 223.471 247.623 224.136 248.117C224.801 248.611 225.74 248.472 226.234 247.807Z" fill="#6D3D67"/>
<path d="M236.968 233.357C237.462 232.692 237.323 231.753 236.658 231.259C235.993 230.765 235.053 230.903 234.559 231.568C234.065 232.233 234.204 233.173 234.869 233.667C235.534 234.161 236.474 234.022 236.968 233.357Z" fill="#6D3D67"/>
<path d="M247.701 218.908C248.195 218.243 248.056 217.303 247.391 216.809C246.726 216.315 245.787 216.454 245.293 217.119C244.799 217.784 244.937 218.723 245.602 219.217C246.267 219.711 247.207 219.573 247.701 218.908Z" fill="#6D3D67"/>
<path d="M258.434 204.458C258.928 203.793 258.79 202.853 258.125 202.359C257.46 201.865 256.52 202.004 256.026 202.669C255.532 203.334 255.671 204.274 256.336 204.768C257.001 205.262 257.94 205.123 258.434 204.458Z" fill="#6D3D67"/>
<path d="M269.168 190.008C269.662 189.343 269.523 188.403 268.858 187.909C268.193 187.416 267.253 187.554 266.759 188.219C266.265 188.884 266.404 189.824 267.069 190.318C267.734 190.812 268.674 190.673 269.168 190.008Z" fill="#6D3D67"/>
<path d="M279.901 175.558C280.395 174.893 280.256 173.954 279.591 173.46C278.926 172.966 277.987 173.104 277.493 173.769C276.999 174.435 277.138 175.374 277.803 175.868C278.468 176.362 279.407 176.223 279.901 175.558Z" fill="#6D3D67"/>
</svg>
