<svg width="100" height="98" viewBox="0 0 100 98" fill="none" xmlns="http://www.w3.org/2000/svg">
<path d="M48.0003 39.6667C43.4053 39.6667 39.667 43.405 39.667 48V51.4525C39.667 52.3058 40.4145 53 41.3337 53H42.167C42.388 53 42.6 52.9122 42.7562 52.7559C42.9125 52.5996 43.0003 52.3877 43.0003 52.1667V47.8808C43.0003 47.6598 42.9125 47.4479 42.7562 47.2916C42.6 47.1353 42.388 47.0475 42.167 47.0475H41.4103C41.8737 43.8225 44.6487 41.3333 48.0003 41.3333C51.352 41.3333 54.127 43.8225 54.5903 47.0475H53.8337C53.6126 47.0475 53.4007 47.1353 53.2444 47.2916C53.0881 47.4479 53.0003 47.6598 53.0003 47.8808V53C53.0003 53.9192 52.2528 54.6667 51.3337 54.6667H49.667V53.8333H46.3337V56.3333H51.3337C53.172 56.3333 54.667 54.8383 54.667 53C55.5862 53 56.3337 52.3058 56.3337 51.4525V48C56.3337 43.405 52.5953 39.6667 48.0003 39.6667Z" fill="black" fill-opacity="0.8"/>
</svg>
