<svg width="73" height="66" viewBox="0 0 73 66" fill="none" xmlns="http://www.w3.org/2000/svg">
<path fill-rule="evenodd" clip-rule="evenodd" d="M44.3912 0.141416C43.0451 0.460871 41.7689 1.44879 41.0006 2.76624C40.2023 4.13492 39.9805 5.44785 39.8774 9.41567C39.7332 14.9565 40.2091 19.7434 41.5625 26.3731C41.8215 27.6423 42.0132 28.6973 41.9885 28.7176C41.9638 28.7378 41.38 28.5295 40.6913 28.2547C39.2424 27.6767 38.1056 27.4119 36.2641 27.223C34.1971 27.0112 32.9229 27.1751 29.1873 28.1334C25.5906 29.0559 24.528 29.0572 20.4127 28.1441C16.7202 27.3249 16.4813 27.2954 13.5357 27.2976C11.2049 27.2994 10.5984 27.3428 9.46627 27.5888C5.0835 28.541 1.71386 31.0405 0.431206 34.2908C-0.225067 35.9536 -0.161521 37.1464 0.824375 41.6838C2.72777 50.4423 3.42552 52.5971 5.03889 54.7C7.15687 57.4601 10.9886 59.0135 15.1763 58.8097C17.0263 58.7196 17.7666 58.5533 20.56 57.6009C22.8674 56.8141 23.9803 56.6486 25.2261 56.9069C25.64 56.9927 27.0705 57.4913 28.4048 58.0148C29.7391 58.5384 31.0421 59.0041 31.3003 59.0496C32.3649 59.2377 32.3214 59.1988 32.0555 59.7236C31.5518 60.7178 32.1477 61.9263 33.5645 62.7839C35.4045 63.8978 37.6519 64.748 40.2133 65.2993C42.9072 65.879 44.4225 66.0157 47.9693 65.9986C51.6451 65.9809 53.2362 65.7977 55.7951 65.0972C57.977 64.5 59.5247 63.7561 60.6504 62.7638L61.5576 61.9641L62.3561 62.2142C64.4242 62.8623 66.6309 62.2249 67.4709 60.7371C67.676 60.3739 67.843 59.8734 67.8419 59.6249C67.8397 59.1113 67.3975 58.2273 67.0108 57.9635C66.64 57.7104 66.6805 57.603 67.3237 57.1374C69.6412 55.4593 68.1889 52.8401 64.8895 52.747C63.9351 52.72 63.9174 52.7131 64.0122 52.3968C64.1963 51.7827 64.2835 50.5968 64.1783 50.1348C64.1198 49.8772 63.8286 49.448 63.5239 49.1699C61.936 47.7205 59.3009 47.7782 57.2906 49.3063C56.4307 49.9599 56.4581 50.1153 56.8907 47.0403C57.2438 44.53 57.2714 43.7106 57.0375 42.6676C56.5375 40.437 54.6842 38.7309 51.6744 37.7301L50.4207 37.3132L50.4567 36.493C50.5205 35.0411 49.7068 33.6801 48.3531 32.9745C47.9698 32.7747 47.6563 32.5623 47.6563 32.5022C47.6563 32.4423 47.8305 30.897 48.0433 29.0683C48.8758 21.9167 49.2429 13.8278 49.0671 6.51153C48.9724 2.5685 48.9514 2.35049 48.6054 1.70268C47.8569 0.301724 46.24 -0.297301 44.3912 0.141416ZM46.4938 1.21517C46.9041 1.35651 47.1299 1.56083 47.3857 2.02187C47.7001 2.58889 47.7348 2.90318 47.8104 5.86617C47.9497 11.3262 47.6488 21.3807 47.2536 24.47L47.1687 25.1328L46.4342 24.9448C45.7076 24.7588 43.6185 24.7721 42.8687 24.9675C42.5537 25.0496 42.5271 24.9608 42.1286 22.4938C41.4498 18.2907 41.2219 15.9884 41.128 12.3843C40.9339 4.93156 41.6424 2.4291 44.2506 1.35728C45.1703 0.979355 45.7101 0.945151 46.4938 1.21517ZM46.4616 25.4993L47.2008 25.7071L47.1158 26.2414C47.0692 26.5355 46.9239 27.7633 46.7929 28.9702C46.6621 30.177 46.5165 31.4258 46.4694 31.7452L46.3838 32.326H45.2611H44.1383L43.4809 29.3574C43.1195 27.7246 42.7814 26.2022 42.7298 25.9741C42.643 25.5916 42.6754 25.5503 43.1505 25.4373C43.9733 25.2416 45.6566 25.2731 46.4616 25.4993ZM36.2346 28.2645C38.2016 28.4624 40.3698 29.0982 41.3814 29.7736L41.7554 30.0234L41.0748 30.0455C40.5921 30.0611 40.2322 29.9799 39.8383 29.7667C39.1078 29.3712 38.4583 29.1945 37.3638 29.0932C36.199 28.9855 34.9229 29.1822 32.3177 29.8712C29.3043 30.6682 28.7112 30.7607 26.5895 30.7645C24.576 30.7681 24.0868 30.649 23.7057 30.0619C23.5416 29.8089 23.5653 29.8016 24.2931 29.8813C25.3594 29.9978 27.1999 29.7389 29.4088 29.1613C31.9641 28.4932 32.5506 28.3686 33.6481 28.2596C34.1646 28.2084 34.6595 28.1586 34.7477 28.1489C34.8362 28.1392 35.5053 28.1912 36.2346 28.2645ZM18.2312 28.7522C20.4687 29.2305 21.2945 29.6052 22.7212 30.7896C23.6096 31.5271 23.9935 31.9768 24.5479 32.9283C25.7119 34.9262 26.2342 37.2485 25.9105 38.9861C25.5627 40.8535 24.1716 42.5392 22.7196 42.853C22.3601 42.9307 20.7628 43.3394 19.1703 43.7616C15.5422 44.7231 14.8606 44.8305 12.4401 44.821C10.1729 44.8121 8.75741 44.5544 6.92085 43.816C3.01107 42.2437 0.655181 38.8163 1.31881 35.6662C1.99058 32.4776 5.02168 29.7949 9.10002 28.7794C10.8845 28.335 11.5894 28.2701 14.0835 28.3202C16.0608 28.3599 16.7153 28.4281 18.2312 28.7522ZM38.0623 29.723C38.5046 29.8176 39.0469 29.9927 39.2676 30.1118L39.6689 30.3286L39.1236 30.9177C38.8237 31.2417 38.5772 31.575 38.576 31.6584C38.5694 32.068 38.3306 32.1417 37.7065 31.9267C37.2705 31.7765 36.8283 31.7349 36.1816 31.7833C34.7074 31.8935 33.6532 32.6249 33.2594 33.8104L33.1093 34.2621H31.7833H30.4573L30.2977 33.7397C30.0652 32.9794 29.5177 32.3868 28.7323 32.0452C27.8546 31.6635 27.2234 31.666 26.3365 32.0549L25.6303 32.3645L25.3391 31.8935C25.1789 31.6345 25.0263 31.3886 25.0002 31.347C24.9739 31.3055 25.7822 31.2682 26.7961 31.264C28.8688 31.2555 29.8923 31.0924 32.7185 30.3199C35.6155 29.5281 36.6245 29.4155 38.0623 29.723ZM11.4547 30.0012C8.18425 30.5579 5.53223 32.0713 4.3161 34.0749C3.56764 35.3083 3.29577 36.3118 3.40877 37.4245C3.71289 40.4195 6.6928 42.7441 11.1097 43.4321C12.963 43.7208 16.3378 43.6304 18.1282 43.2439C20.8953 42.6467 22.917 41.3924 23.9035 39.6606C24.3422 38.8904 24.413 38.6154 24.4655 37.4735C24.5355 35.9576 24.2979 35.0959 23.4718 33.8683C22.5046 32.4311 20.5094 31.0432 18.3094 30.2772C17.2847 29.9203 17.062 29.8932 14.8661 29.8579C13.2925 29.8326 12.1676 29.8799 11.4547 30.0012ZM16.1373 31.1967C15.9368 32.0435 15.4167 35.0135 15.2614 36.1982C15.0049 38.1555 15.071 38.0442 14.1625 38.05C13.7317 38.0527 13.3792 38.0387 13.3792 38.0189C13.3792 37.999 13.2062 37.2037 12.9951 36.2515C12.6295 34.6043 12.1271 31.6865 12.1271 31.211C12.1271 30.9268 12.4402 30.881 14.5263 30.8593L16.2214 30.8417L16.1373 31.1967ZM18.0728 31.3152C19.0955 31.6605 20.1385 32.2875 20.0563 32.5071C20.0139 32.6206 19.6276 33.3522 19.1978 34.1331C18.768 34.914 18.152 36.1918 17.8288 36.9727C17.5054 37.7535 17.2325 38.4042 17.222 38.4184C17.2115 38.4327 16.8532 38.3708 16.4258 38.2808C15.6676 38.1211 15.6499 38.1064 15.6972 37.674C15.8689 36.1049 16.4896 32.3929 16.7595 31.3207C16.8578 30.9301 16.9318 30.9297 18.0728 31.3152ZM11.7243 32.8746C11.8766 33.8508 12.1643 35.4044 12.3637 36.3273C12.5631 37.2502 12.6794 38.0402 12.6223 38.0831C12.4791 38.1902 11.0349 38.5045 10.9701 38.4425C10.9413 38.415 10.5908 37.5793 10.1914 36.5854C9.79183 35.5916 9.18658 34.1976 8.84631 33.4877L8.22744 32.197L8.57303 31.9757C8.95384 31.7319 10.8095 31.1183 11.2003 31.107C11.4011 31.1011 11.4994 31.4329 11.7243 32.8746ZM42.3338 31.2285C42.52 31.3108 42.6903 31.615 42.805 32.0711L42.9849 32.785L42.2151 33.3558C41.7141 33.7273 41.2865 34.2103 40.9901 34.7397C40.5986 35.4388 40.5348 35.7089 40.5351 36.6659L40.5356 37.7787L39.7257 38.1284C37.8225 38.9502 36.0329 41.0342 35.2797 43.306C35.0932 43.8691 34.8609 44.3725 34.7637 44.4247C34.6667 44.4768 34.1444 44.5203 33.6031 44.5215C32.8232 44.523 32.0281 44.365 29.7685 43.7594C28.2007 43.3393 26.6361 42.9572 26.2918 42.9104C25.2463 42.7684 25.2491 42.7733 25.816 42.0788C27.396 40.1424 27.6801 37.4652 26.6244 34.4594L26.2578 33.4154L26.7172 33.0966C27.6336 32.4607 28.6456 32.842 29.1006 33.9947C29.1548 34.1316 29.0814 34.552 28.9375 34.9289C28.7262 35.4829 28.7139 35.6516 28.8727 35.8093C29.1538 36.0888 29.3935 36.0548 30.2299 35.6174C30.7597 35.3403 31.1637 35.2302 31.6503 35.2302C32.3004 35.2302 33.4396 35.5974 33.6466 35.8737C33.7914 36.0668 34.2857 36.0328 34.5053 35.8146C34.656 35.6648 34.6555 35.4926 34.5031 35.0019C34.3306 34.447 34.3436 34.3157 34.6228 33.7952C35.1146 32.8782 36.2181 32.5542 37.4285 32.9714C38.3057 33.2736 38.9699 33.223 39.3495 32.8249C39.5279 32.6379 39.6739 32.3707 39.6739 32.2312C39.6739 32.0917 39.9134 31.7801 40.2061 31.5387C40.6409 31.1801 40.8575 31.0999 41.3903 31.0999C41.7489 31.0999 42.1735 31.1578 42.3338 31.2285ZM68.7717 32.3267C68.3765 32.4305 67.7309 32.7494 67.3371 33.0353C65.0762 34.6765 65.6794 37.0474 68.4839 37.5434C69.8725 37.7889 71.1888 37.4131 72.1361 36.5005C73.2702 35.4078 73.2897 33.9064 72.1827 32.9287C71.4123 32.2482 70.0113 32.0009 68.7717 32.3267ZM8.44531 34.0746C8.85085 34.9297 9.44874 36.3217 9.77367 37.1679L10.3647 38.7065L9.64157 39.0956L8.91846 39.4849L8.64988 39.0032C8.50229 38.7382 7.78638 37.4919 7.05905 36.2335L5.73664 33.9455L6.58731 33.2325C7.05529 32.8404 7.49886 32.5197 7.57305 32.5197C7.64724 32.5197 8.03978 33.2194 8.44531 34.0746ZM21.4035 33.278C22.0538 33.8716 22.6637 34.7209 22.9217 35.3922L23.1079 35.8767L21.5695 37.4359C20.7234 38.2933 19.9225 39.1092 19.7896 39.249C19.5523 39.4983 19.5328 39.4953 18.6824 39.0731L17.8169 38.6431L18.0432 38.066C18.8568 35.992 20.4958 32.7778 20.74 32.7778C20.8035 32.7778 21.1022 33.0029 21.4035 33.278ZM71.0148 33.4439C71.8027 33.7794 71.9496 34.9827 71.2953 35.7407C70.4668 36.7001 68.5656 36.8672 67.5941 36.0661C66.6611 35.2967 67.6372 33.731 69.3338 33.2755C69.6908 33.1796 70.6103 33.2718 71.0148 33.4439ZM47.3082 33.6666C48.554 34.1908 49.2972 35.3176 49.1929 36.5248C49.1554 36.9598 49.0854 37.0902 48.9084 37.0551C48.7793 37.0295 47.758 36.979 46.6389 36.9428C45.1365 36.8943 44.253 36.9319 43.2616 37.0862C42.5232 37.2012 41.8616 37.2953 41.7911 37.2953C41.7209 37.2953 41.7065 36.9146 41.7592 36.4493C41.872 35.4521 42.4629 34.4561 43.2262 33.976C44.3492 33.2696 46.0568 33.1401 47.3082 33.6666ZM5.93683 35.4561C6.1835 35.8643 6.83226 37.0042 7.37834 37.9892L8.37144 39.7802L7.79374 40.3125C7.47585 40.6053 7.16783 40.8617 7.10913 40.8823C6.95731 40.9356 5.57934 39.6472 5.28306 39.175C4.93152 38.6147 4.61818 37.5784 4.61692 36.9727C4.61552 36.2318 5.13045 34.7139 5.38323 34.7139C5.44098 34.7139 5.69 35.0478 5.93683 35.4561ZM35.9576 36.2169C35.4481 36.424 34.8219 37.1013 34.8219 37.4452C34.8219 37.5536 34.5369 37.6919 34.1268 37.7823C32.9915 38.0327 32.2471 38.9543 32.5481 39.7365C32.6376 39.9688 32.587 40.0059 32.1818 40.0059C31.9234 40.0059 31.5385 40.0602 31.3266 40.1267C30.9652 40.24 30.9305 40.2124 30.7692 39.6849C30.5551 38.9834 29.9832 38.5861 29.1876 38.5861C28.4985 38.5861 27.7787 39.0897 27.7787 39.5717C27.7787 39.9914 28.1825 39.9608 28.4364 39.5218C28.5832 39.2681 28.7776 39.1559 29.1182 39.1283C29.9871 39.0581 30.457 39.9007 29.9687 40.6533C29.8701 40.8052 29.8269 41.0103 29.8729 41.109C29.9383 41.2499 30.1526 41.2034 30.8632 40.8945C31.6918 40.5343 31.8542 40.5077 32.7481 40.586C33.548 40.6561 33.7263 40.6375 33.7263 40.4837C33.7263 40.3803 33.6252 40.2265 33.5016 40.1418C33.1815 39.9227 33.0599 39.336 33.2492 38.9249C33.425 38.544 34.3768 38.1294 34.7817 38.2576C35.1282 38.3672 35.448 38.0902 35.448 37.6804C35.448 37.4638 35.627 37.1645 35.902 36.9218C36.2694 36.5974 36.4807 36.5209 37.008 36.5209C37.3664 36.5209 37.8036 36.5844 37.9793 36.662C38.2141 36.7655 38.3464 36.763 38.4777 36.6528C38.6124 36.5397 38.5653 36.441 38.287 36.2536C37.8269 35.9434 36.6749 35.9254 35.9576 36.2169ZM23.2075 37.6503C23.1273 38.7571 22.7977 39.4276 21.8702 40.3706L21.321 40.9291L20.7151 40.4412C20.382 40.173 20.1094 39.906 20.1094 39.8479C20.1094 39.7361 23.1079 36.65 23.2165 36.65C23.2515 36.65 23.2474 37.1002 23.2075 37.6503ZM45.487 38.8805C45.8106 39.4707 45.8543 39.7378 45.8401 41.0384C45.8263 42.3046 45.7364 42.8073 45.2282 44.4589C44.7291 46.0811 44.6317 46.6146 44.6275 47.7502C44.6214 49.4261 44.91 50.2653 46.4121 52.9365C48.6846 56.9775 49.7218 60.0379 50.0863 63.7774L50.1956 64.8967L49.4435 64.9897C48.1585 65.1487 42.8138 64.8406 42.5138 64.5903C42.4584 64.5441 42.4224 63.9743 42.4338 63.324C42.4513 62.3275 42.5682 61.8231 43.1783 60.1137C44.4826 56.4596 44.4848 55.3868 43.194 52.3584C42.8248 51.4922 42.1647 49.9412 41.7273 48.9119C41.29 47.8825 40.8517 46.5901 40.7534 46.04C40.3393 43.7185 41.4491 41.1559 43.9368 38.6909C44.821 37.8149 44.9086 37.8256 45.487 38.8805ZM47.0768 38.6183C48.069 39.583 48.7027 40.5805 49.0643 41.7462C49.488 43.1125 49.4578 43.9023 48.9065 45.8708C47.9826 49.1698 48.1279 49.6875 51.3704 54.6556C52.8953 56.9922 53.5432 58.2283 54.1547 59.9686C54.617 61.284 54.9045 63.0772 54.7712 63.8111L54.6727 64.3522L53.3949 64.5622C52.692 64.6776 51.8288 64.8082 51.4767 64.8523L50.8362 64.9326L50.6525 63.2854C50.2767 59.9165 49.2545 56.8072 47.4761 53.623C44.8676 48.9525 44.764 48.3612 45.8756 44.4888C46.7342 41.4969 46.7502 39.6782 45.9286 38.4141L45.6209 37.9407H46.0005C46.2655 37.9407 46.5902 38.1452 47.0768 38.6183ZM49.1432 38.4252C51.1992 39.3004 52.3256 40.1293 53.0955 41.3336C53.4929 41.9552 53.5255 42.1197 53.5239 43.4908C53.5225 44.7542 53.4327 45.2923 52.9204 47.1049C52.3828 49.0071 52.3266 49.3656 52.3939 50.4607C52.5047 52.2621 53.201 53.5518 55.324 55.8873C57.3592 58.1262 58.1147 59.2233 58.5501 60.5722C58.7749 61.2681 58.8293 62.2012 58.6731 62.6812C58.5883 62.9422 57.2078 63.6033 55.9125 64.0032L55.4821 64.136L55.4811 63.5261C55.4794 62.4034 55.0235 60.4013 54.4372 58.9415C53.878 57.5494 53.3267 56.5908 50.7476 52.5259C48.8589 49.5492 48.7329 48.846 49.5514 45.8514C49.9563 44.3697 50.0233 43.8988 49.9519 43.0391C49.8163 41.4063 48.9671 39.6255 47.8026 38.5316C47.55 38.2944 47.3432 38.0658 47.3432 38.0237C47.3432 37.8695 48.3817 38.1013 49.1432 38.4252ZM42.8255 39.0146C40.6345 41.4019 39.7286 43.7858 40.1372 46.0898C40.369 47.3973 40.6965 48.2803 41.9525 50.9835C42.5516 52.273 43.0815 53.6792 43.2895 54.5313C43.7132 56.2671 43.6069 57.1566 42.6709 59.7131C41.9586 61.6582 41.6473 63.0591 41.7321 63.9379L41.7908 64.5468L41.2411 64.4645C40.4944 64.3526 38.2288 63.7199 37.1427 63.3199L36.2548 62.9929L36.4699 62.2447C36.5882 61.8332 37.0703 60.7628 37.5414 59.8661C39.7279 55.7034 39.9885 53.3702 38.8281 48.3464C38.2071 45.6574 38.1272 44.3695 38.5068 43.1675C39.0882 41.3269 40.6342 39.5933 42.5063 38.6829C43.0536 38.4167 43.5178 38.1988 43.5379 38.1988C43.5579 38.1988 43.2373 38.5659 42.8255 39.0146ZM16.3636 38.7919C16.8313 38.9053 17.6072 39.1696 18.0881 39.3795C18.9588 39.7596 20.5789 40.9176 20.5789 41.16C20.5789 41.2301 20.4282 41.354 20.2441 41.4352C19.9532 41.5636 19.8612 41.5322 19.5411 41.1949C18.989 40.6133 17.596 39.9052 16.5707 39.685C15.4972 39.4543 14.0339 39.4334 12.8782 39.6322C11.9029 39.8 9.78463 40.5872 8.79012 41.1515C8.15858 41.5098 8.06952 41.5285 7.88201 41.3422C7.42232 40.8855 10.4243 39.0776 12.2186 38.7305C13.2341 38.534 15.4338 38.5667 16.3636 38.7919ZM53.0597 39.494C53.9537 39.9979 54.9894 40.9623 55.3417 41.6193C55.9571 42.7666 56.0244 43.9479 55.64 46.8494C55.2335 49.9163 55.2832 51.1807 55.8598 52.4438C56.3155 53.4427 56.6685 53.9121 58.4269 55.8584C60.6567 58.3266 61.2161 59.7545 60.4947 61.1374C60.3064 61.4984 59.9819 61.9257 59.7736 62.0871L59.395 62.3805V61.8042C59.395 61.0896 59.0305 59.9056 58.5349 59.0108C58.1665 58.3455 57.067 56.97 55.26 54.9137C52.8254 52.1433 52.5103 50.5945 53.6191 46.8467C54.0509 45.3874 54.136 44.8525 54.1431 43.5554C54.1512 42.0781 54.129 41.9678 53.6621 41.1675C53.1584 40.3044 52.5822 39.7302 51.4909 39.0041L50.8649 38.5876L51.6474 38.8633C52.0779 39.015 52.7133 39.2988 53.0597 39.494ZM40.6245 39.1737C39.7051 39.8587 38.624 41.2443 38.1603 42.3321C37.4703 43.9505 37.4766 45.3388 38.1872 48.3956C38.9109 51.5084 39.0546 53.5709 38.668 55.301C38.3349 56.7925 38.1135 57.3595 37.0025 59.5666C36.5006 60.5638 36.0013 61.6528 35.893 61.9867C35.7847 62.3204 35.6335 62.5936 35.5571 62.5936C35.3486 62.5936 34.5053 62.095 33.8506 61.5847C32.945 60.8787 32.9465 60.6017 33.8655 59.0722C35.4065 56.5069 35.5832 55.7023 35.756 50.4607C35.8923 46.325 36.0125 45.209 36.4865 43.6844C37.1545 41.5351 38.4703 39.9384 40.3 39.0569C41.2598 38.5946 41.3555 38.629 40.6245 39.1737ZM17.2336 40.443C17.7609 40.64 18.4603 41.0275 18.7878 41.3039L19.383 41.8067L18.8463 41.9895C17.7183 42.3736 16.4017 42.5171 14.0052 42.5171C11.6293 42.5172 10.6929 42.4046 9.2315 41.9427L8.76195 41.7943L9.38801 41.4743C11.609 40.339 12.927 39.9957 14.8661 40.0474C16.0076 40.0779 16.4566 40.1529 17.2336 40.443ZM63.1919 40.7285C62.2932 41.0014 61.1879 41.9097 60.9467 42.5734C60.7974 42.9845 60.7955 43.2174 60.9382 43.6103C61.1242 44.1224 61.8922 44.7816 62.3026 44.7816C62.441 44.7816 62.5256 44.9159 62.5263 45.1365C62.5311 47.1367 65.1133 48.3467 67.4567 47.4468C70.2001 46.3931 70.8213 43.1964 68.5889 41.6207C67.2875 40.702 64.6926 40.273 63.1919 40.7285ZM65.9455 41.6918C67.0285 41.8832 68.0425 42.4468 68.3969 43.0539C68.945 43.9927 68.6345 45.4328 67.7405 46.0996C67.3044 46.4248 66.3669 46.7176 65.7621 46.7176C65.1468 46.7176 64.2627 46.2698 63.9708 45.8103C63.779 45.5085 63.7875 45.2413 64.0182 44.3224C64.1522 43.7887 63.7842 43.5172 63.216 43.7306C62.3859 44.0425 61.8581 43.4215 62.3003 42.6531C62.8365 41.7212 64.1515 41.3746 65.9455 41.6918ZM4.93027 44.0733C7.15343 45.2922 9.56722 45.8487 12.6749 45.8589C15.096 45.867 15.7247 45.7657 19.4051 44.7756C22.5573 43.9276 24.0076 43.6904 25.2744 43.8154C25.7479 43.8623 27.4383 44.2527 29.0308 44.6832C31.4211 45.3293 32.1654 45.4766 33.2959 45.5268L34.6654 45.5876V46.021C34.6654 46.5585 34.3461 46.6477 32.7367 46.5603C31.8674 46.5131 31.1519 46.3489 29.573 45.8348C28.4509 45.4692 27.1224 45.1077 26.6208 45.0312C25.3417 44.8363 23.8686 45.0628 21.7528 45.7799C18.6104 46.845 18.2287 46.9586 17.0126 47.1904C15.3339 47.5105 12.166 47.5096 10.4836 47.1886C8.06514 46.7272 5.8257 45.8042 3.78645 44.4283C2.5736 43.6101 2.50286 43.524 2.35511 42.6833L2.24711 42.0695L3.06992 42.787C3.5224 43.1816 4.35961 43.7605 4.93027 44.0733ZM65.5774 42.6076C65.4052 42.685 65.1764 42.8395 65.0687 42.9507C64.804 43.2243 64.821 43.9399 65.0964 44.1283C65.2478 44.232 65.2914 44.4252 65.232 44.728C65.1125 45.3348 65.5013 45.6851 66.2946 45.6851C66.7461 45.6851 66.9615 45.605 67.2094 45.345C67.5736 44.9632 67.6207 44.712 67.3537 44.5759C67.2498 44.5229 67.0455 44.6289 66.871 44.8265C66.7048 45.0147 66.4315 45.1688 66.2637 45.1688C65.8516 45.1688 65.6921 44.7859 66.0216 44.5873C66.385 44.3681 66.3457 44.0915 65.9296 43.9409C65.4071 43.7519 65.3825 43.2709 65.8859 43.0818C66.1103 42.9975 66.2736 42.842 66.2487 42.7364C66.1884 42.4802 65.9582 42.436 65.5774 42.6076ZM4.9273 45.7748C8.14261 47.5654 12.4097 48.3432 16.1716 47.8244C17.9069 47.5851 19.1523 47.2636 21.205 46.5248C23.0929 45.8454 23.6166 45.7022 24.769 45.5504C26.1035 45.3746 26.9981 45.5302 29.5004 46.373C31.3513 46.9964 31.5412 47.0337 33.022 47.0641L34.5872 47.0961L34.5784 47.4877C34.5737 47.7031 34.556 48.4821 34.5393 49.2187L34.5089 50.5579L31.9655 51.3626C29.0784 52.276 28.3725 52.3941 27.6482 52.0853C27.013 51.8145 26.9881 51.3045 27.5596 50.2751C28.0457 49.3996 27.9825 48.8046 27.3605 48.4011C26.8257 48.0542 26.5964 48.0661 24.9296 48.5266C20.9208 49.6342 16.8759 51.809 11.9201 55.5218C10.8978 56.2877 9.97651 56.9144 9.87274 56.9144C9.53639 56.9144 8.21164 56.1503 7.42843 55.5043C6.07456 54.3879 5.14 52.9499 4.36008 50.7834C4.03531 49.8811 2.73607 44.8556 2.73607 44.5013C2.73607 44.4293 3.0707 44.598 3.47952 44.8764C3.88834 45.1548 4.53992 45.5591 4.9273 45.7748ZM27.0633 48.8565C27.4007 49.1349 27.3717 49.377 26.9028 50.2026C26.2381 51.3726 26.4298 52.1488 27.496 52.6033C28.1908 52.8997 29.2482 52.7811 31.0655 52.2031C31.8833 51.9429 33.0035 51.589 33.5549 51.4164L34.5574 51.1026L34.4566 52.8146C34.3446 54.7174 34.0907 55.8743 33.4789 57.2693C33.1422 58.037 33.0081 58.2048 32.7323 58.2035C32.0006 58.2002 30.6145 57.7948 28.9984 57.1115C25.9271 55.8129 24.225 55.5106 22.3789 55.9363C21.9485 56.0354 20.6541 56.4373 19.5026 56.8293C17.0542 57.6627 15.7346 57.8811 13.7708 57.778C12.3872 57.7055 10.7184 57.3861 10.7184 57.1941C10.7184 57.0734 13.7476 54.8398 15.6487 53.5587C18.6157 51.5593 22.3305 49.7804 25.1179 49.0244C26.6886 48.5985 26.7444 48.5936 27.0633 48.8565ZM61.8407 49.38C63.0814 49.8655 63.3367 50.8841 62.595 52.3893C62.3751 52.8357 62.2167 53.3249 62.2428 53.4764C62.288 53.7373 62.3787 53.7525 63.934 53.7605C65.7305 53.7695 66.3014 53.9203 66.894 54.5414C67.5661 55.2461 67.1773 56.0013 65.7003 56.8596C64.5434 57.5319 64.4735 57.8167 65.365 58.2237C66.6516 58.8111 66.9089 59.7892 66.0089 60.6713C65.2382 61.4265 63.8261 61.649 62.6369 61.2027L62.0442 60.9802L62.0015 59.8683C61.9633 58.8719 61.8932 58.6443 61.3264 57.6741C60.9785 57.0788 60.0233 55.8579 59.2037 54.9611C57.7104 53.3273 56.8907 52.1417 56.8907 51.6154C56.8907 51.0333 58.1534 49.9101 59.4733 49.3182C59.9417 49.1082 61.2322 49.1419 61.8407 49.38ZM57.9233 51.5326C57.5404 51.7636 57.7417 52.0558 58.2163 51.9576C58.8192 51.8328 59.1231 52.2563 59.0588 53.1315C59.0037 53.8806 59.004 53.8812 59.4733 53.9243C60.3615 54.0057 60.7428 54.6068 60.3195 55.2588C60.194 55.4524 60.197 55.5614 60.3307 55.6697C60.4678 55.7809 60.5875 55.742 60.8148 55.5125C61.4036 54.9183 61.1187 53.9364 60.2594 53.5984C59.7426 53.3952 59.708 53.3431 59.708 52.7674C59.708 52.3127 59.6165 52.0686 59.3559 51.828C58.9134 51.4198 58.3147 51.2962 57.9233 51.5326ZM61.7396 56.0785C61.4806 56.336 61.6537 56.4626 62.265 56.4626C62.7113 56.4626 62.7649 56.5048 62.8099 56.8906C62.8454 57.1955 62.744 57.4437 62.4577 57.7532C61.9764 58.2738 61.9509 58.4632 62.3622 58.4632C62.7804 58.4632 63.4644 57.4782 63.4644 56.8758C63.4644 56.079 62.287 55.5347 61.7396 56.0785Z" fill="white"/>
</svg>
