<svg width="81" height="70" viewBox="0 0 81 70" fill="none" xmlns="http://www.w3.org/2000/svg">
<path fill-rule="evenodd" clip-rule="evenodd" d="M78.0012 0.19864C77.6825 0.309404 77.112 0.578292 76.7333 0.796118C75.5387 1.48322 68.5858 7.60856 64.7532 11.3505C62.7268 13.3288 61.0406 14.9475 61.0062 14.9475C60.972 14.9475 60.8251 14.6584 60.6797 14.3052C60.3149 13.4177 59.2206 11.8056 58.2546 10.7326C55.7281 7.92666 51.0724 4.90071 46.6063 3.16181C36.9651 -0.591979 25.3577 0.45565 16.386 5.88941C13.6056 7.57355 10.029 10.6061 7.92143 13.0667C4.79734 16.714 2.20339 21.6793 1.00111 26.313C0.184116 29.4619 -0.0154189 31.1789 0.000905232 34.9251C0.0137427 37.8815 0.0677866 38.5875 0.421053 40.4016C1.77247 47.344 3.33689 51.4074 6.21184 55.4427C10.8905 62.0096 17.8573 66.8003 25.7253 68.861C38.856 72.3003 53.2616 67.7913 62.0643 57.4874C65.725 53.2023 68.4075 47.8529 69.6873 42.2865C69.8964 41.3771 70.1167 40.2747 70.1767 39.8367C70.3105 38.8617 70.0209 36.8567 69.6162 35.9552C69.3732 35.4142 69.249 35.2977 68.957 35.3381C68.5066 35.4004 68.2399 35.9391 67.2243 38.838C64.5009 46.6111 60.8022 52.2315 55.4806 56.6832C50.8227 60.5798 45.962 62.8363 39.9891 63.875C38.1228 64.1995 32.2274 64.1533 30.2422 63.7984C25.6632 62.9801 21.2885 61.1852 17.801 58.694C11.4568 54.1626 7.42046 48.0248 5.8218 40.4788C5.47345 38.8344 5.38311 37.925 5.32035 35.4281C5.23715 32.1252 5.366 30.8124 6.01104 28.3964C7.62934 22.3335 11.7755 16.3052 16.842 12.6486C27.8774 4.68412 42.5945 4.80985 53.6539 12.963C54.3756 13.4951 55.6869 14.489 56.568 15.1717C57.449 15.8545 58.3733 16.5573 58.6218 16.7335L59.0738 17.054L54.4049 21.8724C50.4677 25.9358 49.3388 27.001 47.2003 28.6702C44.1182 31.0757 41.3656 33.4317 38.0239 36.5244L35.5041 38.8565L33.0316 36.5082C31.6718 35.2166 29.2105 32.8049 27.5622 31.1487C25.9138 29.4925 24.3459 28.016 24.0779 27.8674C23.81 27.719 23.2881 27.5974 22.9184 27.5974C22.3715 27.5974 22.1962 27.6713 21.9797 27.993C21.7496 28.3348 21.7388 28.4973 21.8998 29.1886C22.2043 30.4954 24.1733 34.1384 25.6675 36.1593C27.7705 39.0037 33.3971 45.1966 34.3223 45.6853C34.9572 46.0207 35.89 46.0321 36.5256 45.7121C37.6066 45.168 47.9388 35.7337 53.8881 29.8582C56.4859 27.2928 60.109 23.8356 61.9395 22.1754C68.8966 15.866 77.8139 6.85512 79.8522 4.07476C81.1825 2.26012 81.3649 0.884667 80.3551 0.285339C79.7718 -0.0606829 78.8453 -0.0949303 78.0012 0.19864Z" fill="#AD6A29"/>
</svg>
