<svg width="10" height="10" viewBox="0 0 10 10" fill="none" xmlns="http://www.w3.org/2000/svg">
<mask id="path-1-inside-1_141_506" fill="white">
<path d="M0.899952 4.06863C0.898712 4.14465 0.920606 4.21925 0.962731 4.28254C1.00486 4.34582 1.06522 4.39481 1.13583 4.42301L4.7362 5.86338L6.17658 9.46413C6.2044 9.53378 6.25247 9.59348 6.31457 9.63553C6.37667 9.67758 6.44996 9.70004 6.52495 9.70001H6.53095C6.6069 9.69881 6.6807 9.67458 6.74257 9.63052C6.80445 9.58646 6.85148 9.52464 6.87745 9.45326L9.87745 1.20326C9.90201 1.13614 9.90688 1.06341 9.89148 0.993619C9.87609 0.92383 9.84107 0.859893 9.79056 0.809338C9.74004 0.758784 9.67613 0.723717 9.60635 0.708267C9.53658 0.692818 9.46384 0.697629 9.3967 0.722135L1.1467 3.72213C1.07529 3.74817 1.01346 3.79527 0.969403 3.85721C0.925343 3.91915 0.901125 3.99301 0.899952 4.06901V4.06863Z"/>
</mask>
<path d="M0.899952 4.06863H1.89995L-0.0999147 4.05232L0.899952 4.06863ZM1.13583 4.42301L1.50727 3.49455L1.50669 3.49432L1.13583 4.42301ZM4.7362 5.86338L5.66467 5.49198L5.50551 5.0941L5.10764 4.93493L4.7362 5.86338ZM6.17658 9.46413L7.10521 9.09313L7.10505 9.09273L6.17658 9.46413ZM6.52495 9.70001V8.70001H6.52459L6.52495 9.70001ZM6.53095 9.70001V10.7H6.53883L6.5467 10.6999L6.53095 9.70001ZM6.87745 9.45326L7.8172 9.79513L7.81725 9.795L6.87745 9.45326ZM9.87745 1.20326L8.93834 0.859633L8.93766 0.861516L9.87745 1.20326ZM9.3967 0.722135L9.73845 1.66193L9.7396 1.66151L9.3967 0.722135ZM1.1467 3.72213L0.804959 2.78234L0.804164 2.78263L1.1467 3.72213ZM0.899952 4.06901H-0.100048L1.89983 4.08444L0.899952 4.06901ZM-0.0999147 4.05232C-0.104462 4.33105 -0.0241844 4.60457 0.130275 4.83663L1.79519 3.72845C1.8654 3.83393 1.90189 3.95825 1.89982 4.08495L-0.0999147 4.05232ZM0.130275 4.83663C0.284733 5.06868 0.506077 5.24831 0.76496 5.3517L1.50669 3.49432C1.62437 3.54132 1.72498 3.62297 1.79519 3.72845L0.130275 4.83663ZM0.764387 5.35147L4.36476 6.79184L5.10764 4.93493L1.50727 3.49455L0.764387 5.35147ZM3.80773 6.23479L5.24811 9.83554L7.10505 9.09273L5.66467 5.49198L3.80773 6.23479ZM5.24794 9.83513C5.34997 10.0905 5.52622 10.3094 5.75392 10.4636L6.87522 8.80748C6.97872 8.87755 7.05884 8.97706 7.10521 9.09313L5.24794 9.83513ZM5.75392 10.4636C5.98163 10.6178 6.25033 10.7001 6.52532 10.7L6.52459 8.70001C6.64958 8.69996 6.77172 8.7374 6.87522 8.80748L5.75392 10.4636ZM6.52495 10.7H6.53095V8.70001H6.52495V10.7ZM6.5467 10.6999C6.82519 10.6955 7.09578 10.6066 7.32264 10.4451L6.1625 8.81595C6.26562 8.74252 6.38862 8.70213 6.51521 8.70013L6.5467 10.6999ZM7.32264 10.4451C7.54951 10.2835 7.72198 10.0569 7.8172 9.79513L5.93771 9.11138C5.98099 8.99241 6.05938 8.88939 6.1625 8.81595L7.32264 10.4451ZM7.81725 9.795L10.8172 1.545L8.93766 0.861516L5.93766 9.11152L7.81725 9.795ZM10.8166 1.54689C10.9066 1.30079 10.9245 1.03409 10.868 0.778205L8.91496 1.20903C8.8893 1.09272 8.89742 0.971498 8.93835 0.859634L10.8166 1.54689ZM10.868 0.778205C10.8116 0.52231 10.6832 0.287874 10.4979 0.102507L9.08317 1.51617C8.99898 1.43191 8.94062 1.32535 8.91496 1.20903L10.868 0.778205ZM10.4979 0.102507C10.3127 -0.082858 10.0784 -0.211438 9.82253 -0.268087L9.39018 1.68462C9.27388 1.65887 9.16736 1.60043 9.08317 1.51617L10.4979 0.102507ZM9.82253 -0.268087C9.56668 -0.324736 9.29997 -0.307094 9.05381 -0.21724L9.7396 1.66151C9.62771 1.70235 9.50647 1.71037 9.39018 1.68462L9.82253 -0.268087ZM9.05496 -0.217659L0.804959 2.78234L1.48845 4.66193L9.73845 1.66193L9.05496 -0.217659ZM0.804164 2.78263C0.542509 2.87803 0.315978 3.05061 0.154541 3.27756L1.78427 4.43687C1.71095 4.53993 1.60807 4.61831 1.48924 4.66164L0.804164 2.78263ZM0.154541 3.27756C-0.00689656 3.5045 -0.095632 3.77511 -0.0999287 4.05358L1.89983 4.08444C1.89788 4.2109 1.85758 4.3338 1.78427 4.43687L0.154541 3.27756ZM1.89995 4.06901V4.06863H-0.100048V4.06901H1.89995Z" fill="black" mask="url(#path-1-inside-1_141_506)"/>
</svg>
