<svg width="20" height="20" viewBox="0 0 20 20" fill="none" xmlns="http://www.w3.org/2000/svg">
<path d="M9.99967 18.3333C10.9163 18.3333 11.6663 17.5833 11.6663 16.6667H8.33301C8.33301 17.5833 9.08301 18.3333 9.99967 18.3333ZM14.9997 13.3333V9.16666C14.9997 6.60833 13.6413 4.46666 11.2497 3.89999V3.33333C11.2497 2.64166 10.6913 2.08333 9.99967 2.08333C9.30801 2.08333 8.74967 2.64166 8.74967 3.33333V3.89999C6.36634 4.46666 4.99967 6.59999 4.99967 9.16666V13.3333L3.33301 15V15.8333H16.6663V15L14.9997 13.3333ZM13.333 14.1667H6.66634V9.16666C6.66634 7.09999 7.92467 5.41666 9.99967 5.41666C12.0747 5.41666 13.333 7.09999 13.333 9.16666V14.1667Z" fill="black" fill-opacity="0.8"/>
</svg>
