<svg width="185" height="95" viewBox="0 0 185 95" fill="none" xmlns="http://www.w3.org/2000/svg">
<path d="M18.9234 82.1444H14.3232V68.4789C14.3232 67.7704 14.4278 67.1124 15.1596 66.6063C15.7347 66.2014 16.362 66.1508 16.937 66.1508H22.7395C23.5759 66.1508 25.1964 66.252 26.3464 67.4161C27.601 68.6814 27.7056 70.6553 27.7056 71.8194C27.7056 72.8822 27.6533 75.2104 26.7123 76.577C25.5623 78.146 23.6804 78.2472 22.4258 78.2472H19.028V82.1444H18.9234ZM20.9098 75.0586C21.9031 75.0586 22.4258 74.5019 22.6349 74.1476C22.8963 73.692 22.8963 73.0341 22.8963 72.2749C22.8963 71.5663 22.8963 71.0096 22.6872 70.5035C22.269 69.5418 21.328 69.4912 21.0144 69.4912H19.3939C19.2893 69.4912 19.0802 69.5924 19.028 69.643C18.9234 69.7443 18.8711 69.8961 18.8711 70.0479V75.1092H20.9098V75.0586Z" fill="#6D3D67"/>
<path d="M28.7511 71.2626C28.7511 70.0985 28.8556 68.4283 30.2148 67.3149C31.5739 66.2014 33.6126 66.1508 34.815 66.1508H37.8992V69.2887H36.2787C35.39 69.2887 34.5536 69.39 33.9263 70.1492C33.4035 70.8577 33.299 71.7688 33.299 72.4773V78.2472H28.7511V71.2626Z" fill="#6D3D67"/>
<path d="M51.1247 67.2642C52.6929 68.6308 52.7974 71.0096 52.7974 72.2243C52.7974 73.439 52.6929 75.8178 51.1247 77.1843C49.7655 78.3484 47.57 78.399 45.5835 78.399C43.5971 78.399 41.4016 78.3484 40.0424 77.1843C38.4742 75.8178 38.3696 73.439 38.3696 72.2243C38.3696 71.0096 38.4742 68.6308 40.0424 67.2642C41.4016 66.1001 43.5971 66.0495 45.5835 66.0495C47.5177 66.0495 49.7655 66.1001 51.1247 67.2642ZM43.4925 74.35C43.5971 74.5018 44.1198 75.1598 45.5313 75.1598C46.7859 75.1598 47.3609 74.6537 47.57 74.35C47.9359 73.8439 48.0404 73.0847 48.0404 72.2243C48.0404 70.959 47.8313 70.4022 47.57 70.0479C47.3086 69.7443 46.7859 69.2887 45.5313 69.2887C44.2767 69.2887 43.7016 69.7443 43.4925 70.0479C43.3357 70.301 43.0221 70.8071 43.0221 72.2243C43.0744 73.5402 43.3357 74.0969 43.4925 74.35Z" fill="#6D3D67"/>
<path d="M58.4953 62.3042V66.2014H61.8409C63.1477 66.2014 65.1342 66.3026 66.2842 68.1753C67.0683 69.4406 67.1206 71.0096 67.1206 72.2243C67.1206 74.2488 66.807 75.4635 66.2842 76.2733C65.1864 78.0954 63.0955 78.2978 61.8931 78.2978H56.4566C55.8293 78.2978 55.0452 78.2472 54.4701 77.5892C54.0519 77.1337 53.9474 76.6782 53.9474 76.1215V62.3548H58.4953V62.3042ZM58.4953 73.9451C58.4953 74.1476 58.4953 74.6031 58.7567 74.8561C59.018 75.0586 59.384 75.0586 59.5931 75.0586H60.534C61.4749 75.0586 61.8931 74.7549 62.1545 74.2488C62.3113 73.9451 62.4682 73.3884 62.4682 72.1737C62.4682 71.0096 62.2591 70.5035 62.1545 70.301C61.7363 69.4406 61.0045 69.39 60.6385 69.39H58.5476V73.9451H58.4953Z" fill="#6D3D67"/>
<path d="M68.2708 62.3042H72.8709V78.2472H68.2708V62.3042Z" fill="#6D3D67"/>
<path d="M79.0915 78.2978C77.2096 78.2978 75.6414 78.2978 74.6482 76.7288C74.1254 75.8684 74.0209 74.6031 74.0209 72.3761C74.0209 70.1492 73.9163 68.3777 75.0141 67.2642C76.1641 66.1002 78.5688 66.1002 80.9211 66.1002C83.4303 66.1002 85.1031 66.1508 86.0963 66.91C87.2986 67.821 87.4555 69.643 87.4555 70.959C87.4555 71.7182 87.4032 72.6292 86.7236 73.1859C86.3054 73.4896 85.9395 73.5402 85.5213 73.5402H78.7256C78.7256 73.8439 78.7779 74.2488 78.9347 74.5019C79.3529 75.1092 80.1893 75.0586 81.0257 75.0586H87.0895V78.2978H79.0915ZM82.0712 70.6553C82.7507 70.6553 82.803 70.2504 82.803 69.9973C82.803 69.6937 82.6462 69.2888 81.9666 69.1875C81.6007 69.1369 80.9734 69.0863 80.7643 69.0863C80.2415 69.0863 79.5097 69.0863 79.1438 69.2888C78.6733 69.5418 78.621 69.9973 78.6733 70.6553H82.0712Z" fill="#6D3D67"/>
<path d="M88.5532 68.3777C88.5532 68.0234 88.6055 67.4667 89.0237 67.0112C89.651 66.252 90.4874 66.2014 91.4806 66.2014H102.197C103.608 66.2014 105.124 66.5557 106.065 67.4161C106.954 68.2259 107.372 69.5418 107.372 70.6553V78.2472H102.772V71.5663C102.772 71.0602 102.72 70.301 102.301 69.8455C102.04 69.5924 101.517 69.3394 100.838 69.3394H100.315V78.2978H95.6626V69.3394H93.8852C93.467 69.3394 93.3625 69.4406 93.2579 69.5418C93.1534 69.643 93.1534 69.9467 93.1534 70.1492V78.2978H88.5532V68.3777Z" fill="#6D3D67"/>
<path d="M78.5165 49.4992C78.5165 49.0437 78.5165 48.487 79.0392 48.0315C79.7711 47.3229 80.9734 47.3229 81.7575 47.3229H86.0963C87.5077 47.3229 89.0237 47.4241 90.2783 48.3857C91.6897 49.4486 91.8465 50.9164 91.8465 51.9792V59.4193H87.2463V53.2952C87.2463 52.4348 87.1941 51.7768 86.7236 51.2201C86.3054 50.7139 85.7827 50.5115 84.8417 50.5115H84.0053C83.7962 50.5115 83.5348 50.5115 83.378 50.7139C83.1166 50.9164 83.1689 51.1694 83.1689 51.4225V59.4699H78.5688V49.4992H78.5165Z" fill="#6D3D67"/>
<path d="M105.752 48.4363C107.32 49.8029 107.424 52.1817 107.424 53.3964C107.424 54.6111 107.32 56.9899 105.752 58.3564C104.392 59.5205 102.197 59.5711 100.21 59.5711C98.224 59.5711 96.0285 59.5205 94.6694 58.3564C93.1011 56.9899 92.9966 54.6111 92.9966 53.3964C92.9966 52.1817 93.1011 49.8029 94.6694 48.4363C96.0285 47.2723 98.224 47.2216 100.21 47.2216C102.197 47.2216 104.392 47.2723 105.752 48.4363ZM98.1195 55.4715C98.224 55.6233 98.7468 56.2813 100.158 56.2813C101.413 56.2813 101.988 55.7752 102.197 55.4715C102.563 54.9654 102.667 54.2062 102.667 53.3458C102.667 52.0805 102.458 51.5237 102.197 51.1694C101.936 50.8658 101.413 50.4102 100.158 50.4102C98.9036 50.4102 98.3286 50.8658 98.1195 51.1694C97.9627 51.4225 97.649 51.9286 97.649 53.3458C97.7013 54.7123 97.9627 55.2184 98.1195 55.4715Z" fill="#6D3D67"/>
<path d="M156.197 36.0362C156.197 35.7831 156.301 35.5807 156.458 35.3782C156.667 35.2264 156.876 35.1252 157.138 35.1252C157.399 35.1252 157.66 35.2264 157.817 35.3782C158.026 35.5301 158.079 35.7325 158.079 36.0362C158.079 36.2893 157.974 36.4917 157.817 36.6436C157.66 36.7954 157.399 36.8966 157.138 36.8966C156.876 36.8966 156.615 36.7954 156.458 36.6436C156.301 36.4917 156.197 36.2893 156.197 36.0362Z" fill="#6D3D67"/>
<path d="M163.829 32.1897C163.62 32.139 163.411 32.139 163.201 32.139C162.574 32.139 162.156 32.3415 161.947 32.797V36.846H160.222V30.6207H161.842L161.895 31.3799C162.261 30.8231 162.731 30.5194 163.306 30.5194C163.515 30.5194 163.672 30.5194 163.829 30.5701V32.1897Z" fill="#6D3D67"/>
<path d="M169.056 36.1881C168.638 36.6942 168.063 36.9473 167.331 36.9473C166.652 36.9473 166.129 36.7448 165.763 36.3905C165.397 35.9856 165.24 35.4289 165.188 34.7203V30.6713H166.913V34.6697C166.913 35.3276 167.227 35.6313 167.802 35.6313C168.377 35.6313 168.795 35.4289 169.004 35.024V30.6207H170.729V36.7954H169.108L169.056 36.1881Z" fill="#6D3D67"/>
<path d="M129.223 56.1295C129.223 60.0266 132.464 63.1646 136.489 63.1646C140.514 63.1646 143.755 60.0266 143.755 56.1295C143.755 52.2323 140.514 49.0943 136.489 49.0943C132.464 49.0943 129.223 52.2829 129.223 56.1295Z" fill="#6D3D67"/>
<path d="M148.617 62.7597C145.794 67.5679 140.357 70.1998 134.659 69.5418C128.386 68.7826 123.316 63.772 122.636 57.6985C122.584 57.2429 122.532 56.7368 122.532 56.2813V56.1801C122.532 52.8396 123.734 49.651 126.086 47.1204C128.752 44.2861 132.516 42.6159 136.489 42.6159C141.455 42.6159 146.055 45.1971 148.564 49.3474C149.924 51.5743 152.381 52.9915 154.994 52.9915H159.176L159.072 52.2829C157.556 43.8812 151.335 37.3522 143.285 34.9734L147.571 31.6835C149.296 30.3676 150.394 28.4443 150.655 26.3186C150.917 24.1929 150.29 22.0671 148.878 20.3969L148.512 19.9414L132.987 31.886L136.907 23.8386C138.841 19.8402 137.064 15.032 132.934 13.1087L132.412 12.8556L122.584 32.9995V22.4214C122.584 17.9675 118.872 14.374 114.272 14.374H113.645V56.1295V61.6462V78.2472H136.489C147.624 78.2472 157.085 70.5541 159.019 59.9254L159.124 59.2168H154.942C152.328 59.2674 149.871 60.634 148.617 62.7597Z" fill="#6D3D67"/>
</svg>
