<svg width="40" height="58" viewBox="0 0 40 58" fill="none" xmlns="http://www.w3.org/2000/svg">
<path d="M13.6855 38.3824C13.6855 41.839 16.5328 44.6223 20.069 44.6223C23.6052 44.6223 26.4525 41.839 26.4525 38.3824C26.4525 34.9257 23.6052 32.1424 20.069 32.1424C16.5328 32.1424 13.6855 34.9706 13.6855 38.3824Z" fill="#6D3D67"/>
<path d="M30.7233 44.2632C28.2434 48.5279 23.4673 50.8622 18.4615 50.2786C12.9506 49.6053 8.49599 45.161 7.89897 39.774C7.85305 39.37 7.80712 38.921 7.80712 38.517V38.4272C7.80712 35.4644 8.86338 32.6362 10.93 30.3916C13.2721 27.8777 16.5786 26.3963 20.0689 26.3963C24.4317 26.3963 28.473 28.6858 30.6774 32.3669C31.8714 34.3421 34.0299 35.5991 36.3261 35.5991H40L39.9081 34.9706C38.5763 27.5186 33.1114 21.7276 26.039 19.6176L29.8048 16.6997C31.3203 15.5325 32.2847 13.8266 32.5144 11.9412C32.744 10.0557 32.1929 8.17028 30.9529 6.68885L30.6315 6.28483L16.992 16.8793L20.4363 9.74148C22.1355 6.19505 20.5741 1.93034 16.946 0.224458L16.4868 0L7.85304 17.8669V8.48452C7.85304 4.53406 4.59243 1.34675 0.551096 1.34675H0V38.3824V43.2755V58H20.0689C29.8507 58 38.163 51.1765 39.8622 41.7492L39.9541 41.1207H36.2801C33.9839 41.1656 31.8255 42.3777 30.7233 44.2632Z" fill="#6D3D67"/>
</svg>
