<svg width="26" height="36" viewBox="0 0 26 36" fill="none" xmlns="http://www.w3.org/2000/svg">
<path d="M8.89563 23.8235C8.89563 25.969 10.7464 27.6966 13.0449 27.6966C15.3434 27.6966 17.1941 25.969 17.1941 23.8235C17.1941 21.678 15.3434 19.9505 13.0449 19.9505C10.7464 19.9505 8.89563 21.7059 8.89563 23.8235Z" fill="#6D3D67"/>
<path d="M19.9701 27.4737C18.3582 30.1207 15.2537 31.5697 12 31.2074C8.41791 30.7895 5.52239 28.031 5.13433 24.6873C5.10448 24.4365 5.07463 24.1579 5.07463 23.9071V23.8514C5.07463 22.0124 5.76119 20.257 7.10448 18.8638C8.62687 17.3034 10.7761 16.3839 13.0448 16.3839C15.8806 16.3839 18.5075 17.805 19.9403 20.0898C20.7164 21.3158 22.1194 22.096 23.6119 22.096H26L25.9403 21.7059C25.0746 17.0805 21.5224 13.4861 16.9254 12.1765L19.3731 10.3653C20.3582 9.64087 20.9851 8.58204 21.1343 7.41176C21.2836 6.24149 20.9254 5.07121 20.1194 4.1517L19.9104 3.90093L11.0448 10.4768L13.2836 6.04644C14.3881 3.8452 13.3731 1.19814 11.0149 0.139319L10.7164 0L5.10448 11.0898V5.26625C5.10448 2.81424 2.98508 0.835913 0.358213 0.835913H0V23.8235V26.8607V36H13.0448C19.403 36 24.806 31.7647 25.9105 25.9133L25.9701 25.5232H23.5821C22.0896 25.5511 20.6866 26.3034 19.9701 27.4737Z" fill="#6D3D67"/>
</svg>
