<svg width="62" height="66" viewBox="0 0 62 66" fill="none" xmlns="http://www.w3.org/2000/svg">
<path fill-rule="evenodd" clip-rule="evenodd" d="M39.7409 0.727668C39.7425 0.583883 41.3861 3.49931 39.7409 0.727668C39.7393 0.871307 39.4829 0.487541 39.7409 1.52809L40.088 2.40474C40.4 3.19284 39.8192 4.04738 38.9716 4.04738C38.6499 4.04738 38.3363 4.172 38.1353 4.42322C37.4484 5.28179 36.8543 6.59175 35.9116 9.25129C34.7452 12.5425 34.396 13.3113 33.8352 13.8229C32.9618 14.6195 33.3346 15.4554 34.9841 16.3995L35.009 16.4137C35.3119 16.587 35.3445 17.0111 35.0718 17.2286C33.9213 18.1459 32.8067 19.4782 32.1877 20.6756C31.6678 21.681 29.8083 27.1607 29.8083 27.6868C29.8083 27.9902 29.7181 28.0838 29.3495 28.1628C28.9172 28.2555 28.7745 28.1507 26.8531 26.3279C25.7325 25.2645 24.6879 24.2805 24.5318 24.1409C24.2536 23.892 23.2064 23.8877 23.5477 23.128C23.8188 22.5249 23.4699 22.0326 23.5477 20.672C23.6581 18.7384 23.9325 16.7138 23.3286 14.8737C22.9555 13.7367 22.2153 13.1661 20.0459 12.5222C19.3914 12.4153 19.2318 12.1616 18.63 11.5334C18.2422 11.1285 18.0811 10.8514 17.6201 10.6303C16.8828 10.2768 16.9168 9.90247 16.4689 9.90268C15.2141 9.90326 15.4435 9.54889 14.7549 9.90268C13.6276 10.482 13.0838 10.4994 12.5194 11.5334C12.0995 12.3024 11.8272 12.454 11.7736 13.4535C11.7008 14.8052 11.5242 14.8605 12.2213 15.859C12.4991 16.2567 13.1033 17.2865 13.1586 17.7573C13.2064 18.1635 14.3093 20.0798 14.4563 20.3809C14.7084 20.8971 12.2742 19.9703 12.0323 20.1024C10.3677 21.012 7.90105 23.0305 6.40439 24.7079C4.66271 26.6597 3.09019 29.3537 2.23903 31.8437C1.3187 34.5355 1.24851 35.2049 0.602717 47.4432C0.271103 53.7265 -0.000148979 58.985 6.13882e-08 59.1287C0.000149101 59.2725 0.164987 59.5507 0.366191 59.7472C0.726719 60.0994 0.769195 60.1045 3.34699 60.1045L4.15171 60.1223C5.53015 60.1528 6.63168 61.279 6.63168 62.6578C6.63168 65.1749 6.56968 65.2164 6.93036 65.5684C7.41429 66.0411 7.11651 66.0411 7.60044 65.5684C7.96112 65.2164 7.60044 65.1749 7.60044 62.6578C7.60044 61.258 8.73521 60.1045 10.135 60.1045L10.2582 60.1079C11.6641 60.1471 12.807 61.2539 12.8914 62.6578C12.8914 65.1749 12.5307 65.2164 12.8914 65.5684C13.3753 66.0411 13.0781 66.0411 13.562 65.5684C13.9227 65.2164 13.7856 65.1684 13.7856 62.6512V62.4155C13.7856 61.1391 14.8203 60.1045 16.0966 60.1045L16.1498 60.106C17.5306 60.1457 18.6294 61.2764 18.6294 62.6578C18.6294 65.1749 18.4178 65.3554 18.7784 65.7074C19.2624 66.1801 18.9658 66.0411 19.4497 65.5684C19.8104 65.2164 19.4497 65.1684 19.4497 62.6512V62.3471C19.4497 61.1085 20.4538 60.1045 21.6923 60.1045C23.0042 60.1045 23.1435 60.0767 23.4808 59.7472C23.7148 59.5188 23.8467 59.2057 23.8467 58.8787V49.5719V40.3444C23.8467 39.9779 24.0385 39.638 24.3524 39.4486C24.6305 39.2808 25.0356 38.9163 25.2524 38.6387C25.7218 38.0378 26.3768 36.7048 26.3789 36.3465C26.3808 36.0126 26.4264 36.0211 27.1496 36.4884C27.638 36.804 27.9797 36.8964 28.823 36.9413C29.6275 36.984 29.9488 37.0657 30.1569 37.2801C30.3076 37.4355 31.3207 38.2151 32.4086 39.0125C34.0578 40.2217 34.3766 40.5164 34.3288 40.7875C34.1963 41.5376 32.1929 56.5523 32.1929 56.7955C32.1929 56.9419 32.3576 57.2222 32.5588 57.4187C32.9111 57.7629 32.9986 57.776 34.9434 57.776C36.434 57.776 37.6424 58.9843 37.6424 60.4749V61.4936V65.076C37.6424 65.1632 37.6106 65.2474 37.553 65.3129C37.4269 65.4561 37.4334 65.6785 37.5996 65.7723C37.7748 65.8711 37.9678 65.9257 38.1545 65.9257C38.3181 65.9257 38.4865 65.8838 38.6436 65.8069C38.8397 65.7109 38.8241 65.45 38.6499 65.3184C38.5607 65.2509 38.5082 65.1455 38.5082 65.0336V61.4936V60.9992C38.5082 59.2191 39.9513 57.776 41.7315 57.776C43.2505 57.776 44.482 59.0074 44.482 60.5265V61.4936V65.2113C44.482 65.4397 44.5677 65.6708 44.7681 65.7804C44.9394 65.8741 45.1269 65.9257 45.3084 65.9257C45.4828 65.9257 45.6626 65.8781 45.8284 65.7913C46.0103 65.696 46.0038 65.4527 45.8499 65.3167C45.774 65.2497 45.7305 65.1533 45.7305 65.052V61.4936V60.9308C45.7305 59.1884 47.143 57.776 48.8854 57.776C50.5588 57.776 51.9154 59.1325 51.9154 60.8059V61.4936V65.0853C51.9154 65.1669 51.888 65.2462 51.8377 65.3105C51.7229 65.4573 51.7342 65.6734 51.8954 65.7669C52.2569 65.9768 52.6781 65.9749 53.0386 65.7615C53.196 65.6682 53.2129 65.4583 53.1092 65.3076C53.066 65.2449 53.0429 65.1705 53.0429 65.0944V61.4936V60.0734C53.0429 58.6689 54.2817 57.5869 55.6734 57.776C57.6182 57.776 57.7057 57.7629 58.058 57.4187C58.2593 57.2222 58.4239 56.9367 58.4239 56.7842C58.4239 56.6316 58.0552 54.091 57.6045 51.1383C57.1538 48.1854 56.29 44.9388 56.2898 44.8419C56.2887 43.885 58.5063 45.6697 59.4229 45.3953C59.9484 45.238 60.4055 44.9407 60.9013 44.4684C61.6659 43.74 61.9981 43.0546 62 42.2016C62.001 41.738 59.6714 25.3811 59.451 24.3037C59.1909 23.0333 58.4895 21.4043 57.6911 20.2169C56.8888 19.0236 55.0766 17.2472 54.1137 16.7101C53.7804 16.5244 53.5074 16.3321 53.5068 16.2829C53.5061 16.2337 53.7721 16.0133 54.0978 15.7929C55.0531 15.1463 56.0393 14.0345 56.0393 13.6038C56.0393 13.0367 55.7753 12.6604 55.2181 12.4329C54.6599 12.2053 54.3952 11.7371 53.0429 8.58636C51.8967 5.91619 50.9873 4.53734 49.7741 3.67097C49.6021 3.54814 49.3981 3.48027 49.1879 3.4582C48.2754 3.36242 47.7112 2.41645 48.0605 1.56804L48.077 1.52809C48.4963 -0.0938104 48.5474 0.544578 48.3448 0.750345C48.227 0.869977 48.1754 0.63095 48.2952 0.513278C48.4865 0.325332 48.3534 1.13089e-06 48.0852 1.7842e-06L44.1461 1.13807e-05H40.4686C40.0667 1.13807e-05 39.7409 0.325794 39.7409 0.727668ZM47.0343 1.99699L46.88 2.59643C46.773 3.01241 46.4565 3.34228 46.0453 3.46642C45.1682 3.73129 42.8639 3.73798 42.1127 3.47792C41.5325 3.27694 41.5213 3.25889 41.1982 2.00107C41.0325 1.35591 41.5197 0.727668 42.1858 0.727668H44.1161H46.0504C46.7143 0.727668 47.1999 1.35404 47.0343 1.99699ZM43.9548 4.51148C45.0589 4.51221 46.5435 4.72178 47.3612 4.51148C48.7028 4.16628 48.9405 4.5518 49.6239 5.3119C50.3175 6.08322 51.3128 7.36068 52.4029 9.90268C52.5152 10.1646 52.6282 10.4236 52.7285 10.6765C53.0564 11.503 55.6544 13.3879 54.8321 13.7262C54.5962 13.8233 54.3031 13.9417 54.1386 14.1366C52.3421 16.2643 50.0471 16.0652 49.7056 15.859C49.6371 15.8177 47.3533 15.7491 47.4665 15.4841C47.8136 14.6732 48.9258 13.9815 48.7278 12.5222C48.7253 12.5036 48.7228 12.4852 48.7202 12.4671C48.5398 11.1994 47.1162 10.2486 46.0453 9.54672C44.4684 8.5133 45.5463 8.58636 44.8595 8.58636C44.2294 8.58636 44.1508 8.12852 42.8019 9.31402C42.6543 9.44372 42.509 9.57599 42.3672 9.70588C41.733 10.2869 41.3154 10.5838 40.6623 11.1436C40.4961 11.2861 40.2485 11.796 40.2596 12.0147C40.3939 14.6513 39.8943 13.5154 40.2402 14.4804C40.4748 15.1348 39.5965 15.7212 39.4048 15.7929C38.9534 15.9622 37.9506 16.2199 37.209 15.859L35.6655 15.2683C35.1287 15.0628 34.8265 14.4921 34.9583 13.9327C34.9755 13.8597 34.9998 13.7888 35.0293 13.7198C35.3002 13.0844 36.1309 10.9184 36.5918 9.60508C37.5117 6.98377 38.4824 5.799 38.9471 5.3119C39.2105 5.03598 39.8686 4.23003 40.8711 4.51148C41.5894 4.71319 42.8485 4.51061 43.9548 4.51148ZM45.3967 9.98317C45.9587 10.3511 46.6642 10.7482 46.9646 10.8655C47.382 11.0287 47.5321 11.1838 47.6019 11.5245C47.7499 12.2473 47.7078 12.8749 47.4665 13.5426C47.1319 14.4689 46.6043 15.0589 45.7305 15.4841C44.4376 16.1131 43.1691 15.9328 42.0963 14.9672C41.4024 14.3426 41.0486 13.6162 40.8578 12.4237L40.8553 12.4084C40.786 11.9748 41.011 11.5474 41.4078 11.3592C42.0963 11.0325 43.6036 9.95988 43.9548 9.54672C44.0636 9.4188 44.2025 9.31402 44.2637 9.31402C44.3248 9.31402 44.8346 9.61512 45.3967 9.98317ZM16.6972 11.5334C17.0639 11.7143 17.5089 12.0889 17.6913 12.3702C18.3935 13.4526 18.3598 13.4317 19.6014 13.5615C21.9595 13.8082 22.9608 14.6271 23.0766 16.404C23.1349 17.2968 22.9884 18.7773 22.6257 18.7773C22.0364 18.7773 21.0999 18.2394 20.1198 17.6158C19.1406 16.9929 19.0579 16.5589 18.809 16.8925C18.4214 17.4123 18.4025 18.1459 18.0464 18.6877C17.9005 18.9096 17.7132 19.101 17.5196 19.2772C17.1373 19.6249 16.628 19.8113 16.1112 19.8113H15.9829C15.6044 19.8113 15.2376 19.68 14.9451 19.4396C14.2613 18.8778 14.0019 18.2291 14.1087 17.3479C14.1969 16.621 14.1832 16.5869 13.513 15.859C12.7693 15.0513 12.5854 14.5025 12.7064 13.4535C12.9104 11.6859 14.984 10.6883 16.6972 11.5334ZM50.2985 17.1872C50.9086 17.2235 49.7262 18.2066 49.5075 18.7773C49.1114 19.8112 47.9557 21.8048 47.005 22.8331C46.8165 23.0369 46.5775 23.1838 46.3224 23.2934L46.1289 23.3765C45.4114 23.6846 44.5844 23.59 43.9548 23.128C42.7771 22.3089 41.244 19.8123 40.8011 18.44C40.7555 18.2988 40.6892 18.1655 40.5946 18.0512C39.9585 17.2831 40.7055 16.1566 41.6606 16.4438L42.7622 16.775C43.8404 17.2407 44.4994 17.4674 45.7305 17.0949C46.2922 16.9249 47.041 17.4767 47.2459 17.3131C47.5415 17.0772 47.7548 17.0321 48.2775 17.0949C48.4811 17.1193 49.8079 17.158 50.2985 17.1872ZM39.2567 18.2248C39.4212 19.0297 40.6271 21.2732 41.3899 22.1935C42.1831 23.1506 44.4349 24.9944 44.9709 25.1257C45.6008 25.2801 46.0195 25.0359 47.532 23.6317C49.2298 22.0553 50.2762 20.6201 50.9174 18.9885C51.2158 18.2293 52.0045 17.7434 52.8117 17.861C53.0591 17.897 53.3058 17.9665 53.5452 18.0673C54.3241 18.3952 55.0476 18.8793 55.7578 19.3372C57.6067 20.5293 58.9675 22.9127 58.9573 25.3199C58.9546 25.9481 59.2018 26.5672 59.4694 27.1355C59.8973 28.0444 59.8138 29.136 59.1087 29.207C58.4838 29.27 56.8861 28.6553 56.2581 28.6446C56.1577 28.6429 55.8882 28.6578 55.7954 28.6962L55.6818 28.7431C54.8226 29.0985 53.8779 28.4669 53.8779 27.5371V26.7196C53.8779 26.624 53.8705 26.5281 53.8556 26.4337C53.6032 24.8327 53.5038 24.5088 53.2195 24.2838C52.2838 23.5443 52.1353 25.0109 52.6735 26.0751C52.8962 26.5155 53.0986 27.0925 53.2195 27.8627C53.5397 29.9038 52.5886 31.0478 52.4029 31.3984C52.1264 31.9204 50.3166 32.6325 49.7056 32.5197C48.1619 32.2349 48.4776 30.9465 48.077 31.3377C47.5813 31.8217 47.5676 32.4897 48.0438 32.9547C48.732 33.6268 50.833 33.7757 51.9154 33.229C52.1495 33.1109 52.3689 33.0413 52.4029 33.0746C52.4292 33.1003 54.2022 40.2907 55.2556 43.7666C55.6175 44.9607 56.0147 46.3001 56.2915 47.5167C56.8188 49.8346 57.7046 53.2979 57.3247 54.5815C57.2262 54.9142 57.0237 55.4653 57.2078 55.7594C57.3861 56.0443 57.1934 56.4161 56.8578 56.4346L50.5239 56.7842L45.7305 56.3934H40.1657H34.5688C34.4363 56.3934 34.3288 56.2859 34.3288 56.1534C34.3288 55.9242 34.0285 55.8294 33.8778 56.0021C31.2685 58.9928 33.8901 51.4424 34.3288 48.1709C34.7904 44.7291 35.1509 41.4296 35.1754 41.4037C35.1996 41.3779 36.8939 42.1073 37.209 42.1927C38.6565 42.5851 40.0904 42.2195 41.1459 41.1889C42.3552 40.008 42.6189 38.5271 41.8838 37.0443C41.6119 36.4961 41.1474 36.0641 39.4048 34.7395C38.2253 33.843 37.2603 33.0273 37.2603 32.9271C37.2603 32.7016 37.5047 32.6877 37.6424 32.9051C37.6982 32.9933 38.0877 33.2219 38.5082 33.413C39.7403 33.9733 42.0179 33.8385 42.7622 33.1612C43.1523 32.8064 43.1719 32.023 42.8019 31.5768C42.5062 31.2203 42.4704 32.349 40.8578 32.5197C38.869 32.7304 35.6844 31.9437 36.6354 30.1843C36.9979 29.5137 37.4244 28.7548 37.6424 28.111C38.1405 26.64 39.8115 25.9928 39.7409 25.7179C39.4658 24.6474 38.0322 25.5525 37.7174 26.6119C37.6948 26.6879 37.6699 26.7673 37.6424 26.8505C37.2057 28.1714 36.7118 29.114 35.3266 28.9852C33.5801 28.8229 31.4042 27.8423 31.4468 27.7071C32.8389 23.2874 33.2735 20.1858 34.7282 18.7773C35.7091 17.8276 38.7663 17.5117 39.0468 17.6809C39.1087 17.7182 39.2032 17.9629 39.2567 18.2248ZM20.4817 19.1227C20.9799 19.3146 21.6805 19.5182 22.0388 19.575C22.4088 19.6336 22.6747 19.9624 22.6546 20.3365L22.6257 20.8743C22.5763 21.7948 22.8909 22.9453 22.6257 23.3643C21.9903 24.3684 20.4001 24.8349 18.9793 24.702C17.5034 24.5641 16.272 23.428 15.9473 21.9818C15.8508 21.5533 16.1714 21.3206 16.9168 20.672C17.3611 20.2853 18.6579 19.9211 18.9389 19.5165C19.22 19.1121 19.4783 18.7794 19.5129 18.7773C19.5473 18.7753 19.9833 18.9307 20.4817 19.1227ZM15.127 21.9818C15.127 22.5492 15.0281 23.5086 15.7307 24.1409C16.8345 25.1344 17.435 25.6218 18.9389 25.6201C19.9268 25.619 20.532 25.6515 21.0885 25.4018C22.0476 25.0048 23.1524 25.3806 23.6705 26.2801L23.7607 26.4368C23.8179 26.5361 23.8726 26.6391 23.8958 26.7513C24.141 27.9416 22.077 29.0695 20.8189 29.5336C20.236 29.7487 18.5325 30.045 17.9587 29.8095C17.6269 29.6733 17.3131 29.4307 17.0459 29.1307C16.397 28.4023 16.6453 26.9254 15.7307 26.586C14.9861 26.3095 14.6405 27.2705 14.7263 28.0601C14.7972 28.711 15.0274 29.4267 15.7307 30.069C17.054 31.2778 19.1966 30.8352 20.9601 30.515C21.4542 30.4254 21.9925 30.3171 22.594 30.1347C22.7319 30.0928 22.8303 30.033 22.9569 29.964C23.6688 29.5756 25.3321 30.7045 25.5208 31.4932C25.7935 32.6334 25.9018 34.0269 25.8578 34.4909C25.7419 35.7133 24.9186 37.6033 24.5318 38.1336C24.1412 38.6691 22.8791 39.0084 22.0579 39.0125C21.5068 39.0152 20.6235 38.6355 20.1198 38.1336C19.0764 37.0941 18.2542 38.2646 19.5021 39.047C19.7699 39.2149 20.0981 39.3934 20.5026 39.597C20.7112 39.7019 20.9059 39.8344 21.0772 39.9931L21.2218 40.1272C21.3801 40.2738 21.5683 40.3844 21.7734 40.4514C22.3875 40.6519 22.8031 41.2246 22.8031 41.8707V42.4952V44.8419V49.2624V54.2104V56.6294C22.8031 56.9058 22.7472 57.1794 22.6387 57.4336C22.292 58.2461 21.4636 58.7449 20.5832 58.6712L19.7172 58.5988C19.5392 58.5839 19.3602 58.5837 19.1822 58.5981L16.767 58.7947H11.9235H6.93036H3.79709H1.68898C1.62046 58.7947 1.56492 58.7391 1.56492 58.6706C1.56492 58.5192 1.42593 56.5444 1.42625 56.393C1.43049 54.3968 1.59703 50.1036 1.78788 46.431C1.33674 40.3563 2.39328 35.7263 2.53308 35.0068C2.79509 33.6583 3.78532 30.6707 4.39608 29.4892C6.02553 26.3373 8.92451 23.1003 12.0323 21.3269C13.0423 20.7507 15.127 21.4523 15.127 21.9818ZM8.02697 27.5563C7.7133 27.6551 7.71031 28.0526 7.94304 28.285C8.05395 28.3957 8.11627 28.546 8.11627 28.7027V32.5197L8.46219 35.7972C8.48319 35.9961 8.56401 36.1695 8.69876 36.3174C9.01811 36.6679 9.35587 37.3475 9.37277 37.8213C9.38648 38.2058 9.38892 38.7686 9.38892 39.5845C9.24951 41.0018 9.61916 42.4225 10.4317 43.5921L10.7312 44.0232C12.404 46.4837 12.777 46.4195 13.9142 46.7883C16.0582 47.4837 17.2651 46.6972 17.5861 44.8419C17.7447 43.9256 17.4916 44.0959 15.9881 42.1313L15.4257 41.2385C14.9759 40.5246 14.9178 39.6316 15.2712 38.8654C15.4222 38.538 15.5162 38.1781 15.4444 37.8248C15.2379 36.8086 14.5394 36.105 14.7046 36.105C14.8313 36.105 15.6709 36.1427 15.8722 35.9462C16.2166 35.6099 15.5004 35.3557 15.5004 33.836C15.5004 32.3164 16.6376 32.856 16.2932 32.5197C15.8093 32.047 15.4618 32.3446 14.9779 32.8173C14.7028 33.0858 14.3699 33.1609 14.3157 33.6806C14.3051 33.7829 14.3251 33.8857 14.3582 33.9831C14.6101 34.7218 13.9012 35.4266 13.1639 35.1705L12.0868 34.7962C11.9783 34.7585 11.8658 34.7335 11.7515 34.7216L11.3143 34.676C10.2614 34.5663 9.40627 33.7767 9.21308 32.7359C9.18639 32.5921 9.17297 32.4451 9.17293 32.2988C9.17208 29.3295 9.14993 28.2113 8.79276 27.8627C8.56219 27.6374 8.63686 27.5054 8.34653 27.5054C8.24057 27.5054 8.13259 27.523 8.02697 27.5563ZM27.7709 29.3186C28.3279 29.7585 28.6684 30.6156 29.3495 30.4164C29.5791 30.3492 30.5629 30.9992 30.6148 31.2327C30.6956 31.5959 30.2854 32.002 30.1569 32.5197C29.9505 33.352 29.7513 34.2684 29.7512 34.4909C29.7512 34.7136 28.2761 35.7582 28.1627 35.8007C28.0088 35.8583 27.374 33.9452 26.8545 33.5379C26.8282 33.5173 26.7464 32.6677 26.6725 31.6499C26.5987 30.632 26.4935 29.6596 26.4388 29.4892C26.3662 29.263 27.1828 28.7861 27.7208 29.2758C27.7393 29.2926 27.7559 29.3068 27.7709 29.3186ZM35.2855 30.069C35.47 30.1171 35.6208 30.1716 35.6208 30.1899C35.6208 30.2081 35.4204 30.8723 35.1754 31.6657C34.7954 32.8967 35.3552 33.3449 36.5292 33.8755C36.9136 34.0493 37.3758 34.3215 37.9301 34.7395C40.8433 36.9369 41.79 40.7216 38.2052 41.4037C37.9823 41.4461 37.7898 41.4494 37.6424 41.4037C35.8536 41.1128 35.0859 39.5575 33.4589 38.3685C30.9086 36.5048 30.8265 36.2424 30.7016 35.8007C30.5653 35.3187 31.6746 32.8042 32.4981 29.8095C32.5785 29.5173 32.8844 29.3491 33.1742 29.4378L33.7975 29.6286C34.4315 29.8226 35.101 30.0208 35.2855 30.069ZM60.9013 36.4884C61.7432 42.4514 60.7335 44.1177 60.0625 44.4684C59.6568 44.6805 56.7615 44.2036 56.2898 43.9639C55.3139 43.468 54.9261 42.4981 54.0978 36.9413C53.8153 35.0463 53.5189 33.1392 53.7642 32.1286C53.86 31.7338 54.0106 30.8087 53.7219 30.5228C53.4597 30.2633 53.6284 29.8158 53.9967 29.794L56.7848 29.6286C58.2853 29.4301 59.6828 30.4286 59.9812 31.9125L60.9013 36.4884ZM14.3501 37.0926C14.7245 37.7476 14.7671 38.541 14.465 39.2324L14.4445 39.2795C14.0449 40.1939 14.2302 41.2586 14.9152 41.9843L15.202 42.2881C15.332 42.4259 15.4493 42.5752 15.5522 42.7342L16.3383 43.9484C16.6961 44.5011 16.7311 45.2029 16.4299 45.7883C16.3394 45.9644 16.2199 46.1313 16.0313 46.1915C15.3114 46.4211 13.6184 46.3079 13.1158 46.0541C12.8824 45.9362 12.4472 45.1248 11.819 44.1245C11.4996 43.616 11.1999 43.0943 10.9482 42.5491L10.817 42.2649C10.3659 41.2876 10.0898 40.2386 10.0014 39.1658L9.9092 38.0467C9.89745 37.904 9.8651 37.7639 9.81316 37.6305L9.69862 37.3363C9.22142 36.1109 10.5711 34.9787 11.6949 35.6618C11.8459 35.7535 12.0131 35.8154 12.1875 35.8439L12.663 35.9216C13.3731 36.0376 13.993 36.4679 14.3501 37.0926Z" fill="white"/>
</svg>
