<svg width="308" height="120" viewBox="0 0 308 120" fill="none" xmlns="http://www.w3.org/2000/svg">
<path d="M9.89915 81.1221C9.58101 81.0199 9.34395 80.9159 9.18797 80.8099C9.05819 80.699 8.97329 80.5387 8.93327 80.3292C8.88325 80.0672 8.91799 79.6805 9.0375 79.169C9.17819 78.6263 9.42353 77.7786 9.7735 76.6258C9.86563 76.2553 10.0518 75.5953 10.332 74.6459C11.296 71.4483 11.753 69.7186 11.7029 69.4566C11.6667 69.4092 11.6386 69.3332 11.6186 69.2284C11.5686 68.9665 11.7331 68.6907 12.1122 68.4011C12.5996 67.6836 12.9747 66.9468 13.2376 66.1908C13.3895 65.5645 13.613 64.816 13.9082 63.9451C14.1984 63.0481 14.5659 61.987 15.0107 60.7618C15.2199 60.1517 15.5389 59.2628 15.9674 58.095C16.6064 56.1812 17.4904 54.0576 18.6195 51.7244C19.0669 50.7974 19.4895 50.3095 19.8874 50.2606C20.3851 50.1656 20.9802 50.2963 21.6726 50.6527C22.3863 50.9779 22.916 51.4062 23.2618 51.9374C23.4016 52.1007 23.529 52.4836 23.6441 53.0861C23.7992 53.8981 23.9701 55.2907 24.1569 57.2641C24.1696 57.6146 24.2197 58.1615 24.3074 58.905C24.4539 60.0987 24.5761 61.3784 24.6741 62.7443C24.9462 65.733 25.1744 68.0649 25.3585 69.7401C25.5427 71.4153 25.7723 72.9732 26.0475 74.4138C26.1875 75.1473 26.3032 75.6817 26.3944 76.0172L26.4469 76.2923L26.5802 77.2034C26.453 77.3906 26.2323 77.5142 25.918 77.5742C25.5513 77.6443 25.1802 77.6201 24.8046 77.5018C24.4341 77.4097 24.2001 77.2507 24.1027 77.025C24.0715 77.0038 24.0273 76.9851 23.9699 76.9689C23.9125 76.9527 23.8638 76.8399 23.8238 76.6303L23.698 75.7584L23.3957 73.5357L22.3766 67.1332L21.8733 67.27C21.3494 67.3701 20.2039 67.6974 18.4365 68.2521C16.6692 68.8068 15.5754 69.1922 15.1551 69.4082C14.9194 69.4532 14.6613 69.6654 14.3808 70.0447C14.1003 70.4241 13.8766 70.8876 13.7097 71.4353C13.6812 71.7122 13.5704 72.1271 13.3773 72.6798C13.1792 73.2063 13.0876 73.5088 13.1026 73.5874C12.9655 73.7222 12.8489 73.8938 12.753 74.1021C12.6782 74.2793 12.6328 74.3966 12.6166 74.454C12.6716 74.7421 12.5366 75.528 12.2117 76.8118C11.9129 78.0905 11.5766 79.1728 11.2028 80.0586L10.6178 81.4735L9.89915 81.1221ZM15.6161 66.9175C15.7683 66.8613 16.0988 66.7439 16.6076 66.5653C17.1115 66.3604 17.5705 66.2049 17.9846 66.0987C19.7854 65.2933 20.8954 64.8505 21.3145 64.7705C21.4979 64.7355 21.6756 64.7422 21.8478 64.7908C21.9464 64.8806 22.04 64.9441 22.1286 64.9815C22.2383 64.9877 22.3063 64.9883 22.3325 64.9833C22.3549 64.8161 22.2419 63.3717 21.9936 60.6499C21.7665 57.897 21.5811 56.0728 21.4372 55.1772L21.1799 53.1902C21.0227 53.2202 20.7397 53.5864 20.3309 54.2889C19.9221 54.9914 19.4828 55.8898 19.0131 56.984C18.5645 58.047 18.1864 59.1237 17.8788 60.2141C17.7069 60.7356 17.53 61.2309 17.3481 61.7C17.1874 62.1379 17.0547 62.3669 16.9499 62.3869C16.8016 62.6053 16.5045 63.395 16.0585 64.7562C15.6126 66.1173 15.4651 66.8377 15.6161 66.9175ZM40.1779 73.9551C39.4233 74.1264 38.817 74.0792 38.3591 73.8138C37.9223 73.5171 37.6832 73.0469 37.6417 72.4033C37.8325 72.1225 38.0588 71.9571 38.3207 71.9071C38.4779 71.8771 38.6818 71.8789 38.9326 71.9124C39.2407 71.9622 39.5519 71.957 39.8663 71.897C40.1806 71.837 40.4456 71.7321 40.6613 71.5823C40.7561 71.5099 40.9083 71.4537 41.1178 71.4137C41.3486 71.3425 41.5138 71.2837 41.6136 71.2375C42.2708 70.8406 42.9735 70.3263 43.7216 69.6947C44.4959 69.0582 45.0663 68.4199 45.4328 67.7798C45.4751 67.7174 45.5237 67.5452 45.5785 67.2633C45.6282 66.9551 45.63 66.7512 45.5838 66.6514C45.348 66.6964 44.9626 66.8107 44.4276 66.9944C43.9187 67.173 43.5015 67.3341 43.176 67.4777C43.0763 67.5239 42.9347 67.5645 42.7514 67.5995C42.3585 67.6746 42.0241 67.6298 41.7484 67.4653C41.4726 67.3008 41.2005 67.0134 40.9321 66.6031C40.8959 66.5557 40.8703 66.4927 40.8553 66.4142C40.8303 66.2832 40.8683 66.1266 40.9693 65.9444C41.0652 65.7361 41.1375 65.5458 41.186 65.3737C41.312 65.3224 41.4798 65.2768 41.6893 65.2368C41.925 65.1918 42.1028 65.1986 42.2226 65.2571C42.3374 65.2895 42.4078 65.3032 42.434 65.2982C42.5126 65.2832 42.5993 65.2395 42.6941 65.1671C42.81 65.0635 42.9254 65.0279 43.0402 65.0603C43.1549 65.0927 43.2541 65.1144 43.3377 65.1256C43.4163 65.1106 43.5971 65.0625 43.8803 64.9813C44.1846 64.8689 44.6722 64.7215 45.3433 64.539C45.6838 64.474 45.8708 64.3161 45.9044 64.0654C45.9541 63.7572 45.939 63.3936 45.8589 62.9745C45.8289 62.8174 45.7177 62.3771 45.5253 61.6537C45.3193 61.2858 45.1383 61.0488 44.9823 60.9429C44.8475 60.8057 44.6316 60.6705 44.3347 60.5372C44.1463 60.546 43.895 60.5804 43.5807 60.6404C42.5067 60.8455 41.8445 61.2163 41.5941 61.7528C41.1664 62.2146 40.7038 62.493 40.2061 62.588C39.8918 62.648 39.704 62.5889 39.6428 62.4105C39.6328 62.3581 39.5585 62.1823 39.4199 61.883C39.3075 61.5787 39.2288 61.3086 39.1837 61.0729C39.1287 60.7848 39.1667 60.6282 39.2977 60.6032C39.441 60.3586 39.5662 60.0904 39.6734 59.7984C39.8067 59.5015 39.955 59.2831 40.1184 59.1433C40.3029 58.9723 40.576 58.8387 40.9377 58.7425C41.5676 58.4865 42.092 58.3185 42.5111 58.2384C43.1398 58.1184 43.8065 58.1268 44.5114 58.2637C44.8145 58.2872 45.2106 58.4423 45.6997 58.729C46.1839 58.9895 46.5058 59.2538 46.6656 59.5219C47.1497 59.7824 47.6965 60.6553 48.306 62.1407C48.398 64.1864 48.2816 65.8511 47.9566 67.1349C47.7935 67.8447 47.6241 68.3793 47.4484 68.7387C47.2727 69.098 47.0047 69.5428 46.6445 70.0732L44.9519 71.6588C44.2611 72.3066 43.7842 72.7234 43.5211 72.9094C43.2579 73.0954 42.8644 73.2384 42.3406 73.3385C42.0039 73.5657 41.5998 73.7243 41.1283 73.8143C40.6518 73.8782 40.335 73.9251 40.1779 73.9551ZM69.5744 64.839C69.6941 64.8976 69.769 65.0055 69.799 65.1626C69.8341 65.346 69.8036 65.5418 69.7076 65.7502C69.6329 65.9274 69.5431 66.026 69.4383 66.046C68.9407 66.141 68.4311 66.1026 67.9096 65.9307C67.4093 65.7276 67.1016 65.3248 66.9865 64.7224L66.5213 62.2864C66.2862 61.0553 66.062 60.3787 65.8486 60.2566C65.4157 60.122 64.8172 60.6843 64.0532 61.9433C63.3153 63.1973 62.6411 64.6428 62.0307 66.2797C61.8326 66.8062 61.6669 67.2179 61.5336 67.5148C61.4002 67.8118 61.2812 67.9703 61.1764 67.9903C61.0978 68.0053 60.9543 67.9648 60.746 67.8689C59.889 67.7882 59.3954 67.4073 59.2654 66.7263C59.2504 66.6477 59.2441 66.4725 59.2464 66.2005C59.3433 65.2861 59.4226 64.2801 59.4845 63.1823C59.5413 62.0583 59.5783 61.1147 59.5954 60.3512C59.4868 60.2091 59.3408 60.1555 59.1575 60.1905C58.8955 60.2406 58.6193 60.429 58.3288 60.756C57.759 61.3263 57.1234 62.5472 56.422 64.4187C55.5137 66.6283 54.8508 67.9902 54.4331 68.5043C54.3098 68.8536 54.1871 69.135 54.0649 69.3484C53.964 69.5305 53.848 69.6341 53.717 69.6591C53.6123 69.6791 53.4008 69.6381 53.0827 69.5359C52.238 69.2357 51.7382 68.6796 51.5831 67.8676C51.5081 67.4747 51.4759 66.6664 51.4865 65.4427C51.4972 64.219 51.549 63.0688 51.642 61.9923C51.7927 61.502 51.9147 61.0036 52.0081 60.4971C52.1226 59.9594 52.1698 59.6381 52.1498 59.5334C52.1495 58.9633 52.168 58.3489 52.2051 57.6903C52.2422 57.0316 52.2925 56.6555 52.3561 56.5619C52.5044 56.3436 52.6965 56.2119 52.9322 56.1669C53.3251 56.0918 53.6532 56.2463 53.9166 56.6304C54.2598 56.8635 54.4739 57.2027 54.5589 57.648C54.654 58.1457 54.6324 58.8149 54.4944 59.6557C54.2342 60.7099 54.0197 62.2169 53.851 64.1767C54.286 63.4692 54.5889 62.9227 54.7596 62.5371C55.2182 61.5265 55.8401 60.3761 56.6253 59.0859C57.2672 58.0403 58.099 57.4199 59.1205 57.2248C60.3654 57.2043 61.2521 58.0801 61.7806 59.8525C61.8406 60.1668 61.8895 60.5647 61.9271 61.0462C61.9598 61.5015 61.9755 61.7971 61.9743 61.9331C62.0491 61.7559 62.246 61.3654 62.5651 60.7615C62.9103 60.1526 63.3447 59.5131 63.8683 58.8429C64.3595 58.2876 64.854 57.9624 65.3516 57.8674C65.7707 57.7873 66.17 57.8876 66.5493 58.1681C67.1594 58.3773 67.6373 58.7476 67.9831 59.2788C68.3239 59.7839 68.5768 60.4686 68.7419 61.3329C68.8269 61.7782 68.8814 62.1343 68.9052 62.4013C68.9529 62.9351 68.9892 63.2676 69.0142 63.3985C69.1092 63.8962 69.296 64.3764 69.5744 64.839ZM75.5492 66.63C75.2349 66.6901 74.976 66.6852 74.7727 66.6155C74.5693 66.5457 74.2699 66.3993 73.8743 66.1762C72.8349 65.4245 72.2426 64.6688 72.0975 63.9092C72.0625 63.7259 72.0506 63.5924 72.0618 63.5088C72.1054 63.3105 72.0965 63.1221 72.0353 62.9437C72.0003 62.7604 71.9778 62.6425 71.9678 62.5901C71.843 62.5054 71.7781 62.4499 71.7731 62.4237C71.7631 62.3713 71.7818 62.327 71.8292 62.2908C71.8716 62.2284 71.9009 62.1685 71.9171 62.1112C72.0742 62.0811 72.0991 61.9271 71.9917 61.649C71.8993 61.4494 71.9165 60.971 72.0434 60.2138C72.1653 59.4303 72.3651 58.6999 72.643 58.0224C72.8411 57.4959 73.1476 56.8265 73.5626 56.0143C74.0038 55.197 74.412 54.5625 74.7873 54.1107C75.3109 53.4406 75.7965 52.9271 76.2441 52.5701C76.6918 52.2131 77.2043 51.9116 77.7818 51.6656C78.2806 51.4346 78.6217 51.3016 78.8051 51.2666C78.9884 51.2316 79.1556 51.2539 79.3066 51.3337C79.4787 51.3823 79.7052 51.5019 79.986 51.6926C80.7532 51.8719 81.3153 52.1854 81.6723 52.633C82.0505 53.0495 82.3371 53.7685 82.5322 54.79C82.8573 56.4926 82.5158 58.4717 81.5078 60.7276C81.0704 61.707 80.6348 62.4825 80.201 63.054C79.7621 63.5993 79.1605 64.2164 78.3962 64.9054C77.9212 65.4033 77.4654 65.789 77.029 66.0624C76.6137 66.3046 76.1204 66.4938 75.5492 66.63ZM78.5257 61.745C79.0193 60.9177 79.3894 60.1548 79.636 59.4561C79.9089 58.7524 80.123 57.8835 80.2785 56.8493C80.3244 56.379 80.2873 55.8295 80.1673 55.2009C80.0172 54.4151 79.8274 53.9898 79.5978 53.9251C79.3109 53.8441 79.0365 53.8287 78.7745 53.8787C78.1983 53.9887 77.6458 54.3657 77.1172 55.0096C76.4827 55.8095 75.9567 56.7516 75.5394 57.8358C75.117 58.8938 74.7266 60.19 74.368 61.7245C74.2112 62.3246 74.1827 62.8866 74.2828 63.4105C74.3578 63.8034 74.5095 64.1002 74.7379 64.3009C74.9924 64.4966 75.29 64.562 75.6305 64.4969C76.4949 64.3319 77.4599 63.4145 78.5257 61.745ZM98.0466 55.6959C97.5227 55.7959 97.0518 55.818 96.6339 55.762C96.2672 55.8321 95.9977 55.8428 95.8256 55.7942C95.6796 55.7406 95.5342 55.6191 95.3894 55.4296C95.1873 55.2238 95.0737 55.0555 95.0486 54.9245C95.0186 54.7674 95.1402 54.622 95.4133 54.4884C95.6814 54.3286 96.1747 54.1394 96.8931 53.9207C97.7698 53.5361 98.5674 53.2345 99.2858 53.0158C100.03 52.7922 100.927 52.5803 101.974 52.3802C102.655 52.2502 103.121 52.2019 103.372 52.2355C103.618 52.2428 103.91 52.35 104.248 52.5569C104.622 52.8112 104.837 53.0824 104.892 53.3705C104.937 53.6063 104.865 53.7965 104.675 53.9413C104.512 54.0811 104.255 54.1573 103.904 54.17L101.467 54.8391C101.309 54.8691 100.885 54.991 100.192 55.2046C99.5215 55.387 98.8062 55.5508 98.0466 55.6959ZM127.693 42.8263C127.951 42.6141 128.224 42.4805 128.512 42.4254C128.879 42.3554 129.216 42.4133 129.523 42.599C129.851 42.7535 130.048 43.001 130.113 43.3415C130.123 43.3939 130.122 43.5299 130.109 43.7494C130.123 43.3939 129.955 44.0096 129.607 45.5965C129.258 47.1833 129.068 48.0342 129.035 48.149L129.058 48.2668C129.425 48.1968 129.683 48.2696 129.833 48.4854C130.004 48.6699 130.111 48.948 130.155 49.3197C129.929 49.4171 129.724 49.5513 129.539 49.7223C129.355 49.8933 129.197 49.9913 129.066 50.0163C128.988 50.0313 128.903 50.0881 128.814 50.1867C128.724 50.2853 128.676 50.3895 128.67 50.4993C128.637 50.614 128.623 51.0375 128.627 51.7698L128.46 54.7337C128.443 54.9271 128.381 55.1017 128.275 55.2577C128.169 55.4137 128.067 55.5148 127.967 55.561C127.857 55.5548 127.635 55.5293 127.301 55.4846C126.987 55.4086 126.773 55.3545 126.659 55.3221C126.539 55.2635 126.419 55.205 126.299 55.1464L126.254 54.9106C126.184 54.5439 126.177 54.1516 126.233 53.7337C126.323 53.0651 126.365 52.1476 126.359 50.9812C126.135 50.9427 125.618 51.082 124.81 51.3992C123.997 51.6903 123.551 51.8433 123.472 51.8583C123.33 51.9669 123.023 52.0662 122.552 52.1563C121.792 52.3013 121.243 52.3384 120.904 52.2674L120.69 52.4303C120.683 52.6761 120.654 52.953 120.605 53.2611C120.472 54.1282 120.443 54.7581 120.518 55.151C120.535 55.5277 120.54 55.839 120.533 56.0847C120.531 56.3566 120.553 56.7595 120.601 57.2934C120.715 58.0318 120.536 58.4461 120.065 58.5361C119.776 58.5911 119.442 58.5464 119.062 58.4019C118.858 58.3321 118.569 58.1701 118.195 57.9158L118.246 54.7704C118.279 54.5197 118.296 54.1772 118.294 53.7431C118.319 53.304 118.359 52.9435 118.413 52.6616L118.613 51.361C118.752 50.3842 118.898 49.5827 119.05 48.9564C119.05 48.9564 119.177 48.1312 119.432 46.4808C119.476 46.2824 119.551 45.7522 119.658 44.8902C119.786 43.997 119.863 43.4799 119.891 43.3389C119.94 43.0308 120.123 42.8467 120.437 42.7867C120.851 42.6805 121.225 42.7177 121.558 42.8984C121.912 43.0479 122.132 43.2774 122.219 43.5867C122.234 43.6653 122.245 43.7987 122.254 43.9871C122.258 44.1492 122.254 44.2721 122.243 44.3557L121.153 49.7357L121.213 50.05C121.333 50.1086 121.524 50.1129 121.786 50.0628C121.995 50.0228 122.302 49.9235 122.706 49.7649C123.136 49.6013 123.404 49.5095 123.509 49.4895C123.739 49.4182 124.088 49.3245 124.555 49.2083C125.021 49.092 125.49 48.9889 125.961 48.8989C126.328 48.8288 126.527 48.8044 126.558 48.8256L126.75 47.4858C126.924 46.1223 127.172 45.0026 127.493 44.1268C127.505 44.0432 127.53 43.8891 127.568 43.6646C127.602 43.4138 127.643 43.1344 127.693 42.8263ZM134.845 54.451C134.736 54.3089 134.575 54.1767 134.362 54.0546C134.17 53.9013 134.069 53.7984 134.059 53.746C134.004 53.4579 133.896 53.2477 133.735 53.1156C133.672 53.0732 133.624 52.9603 133.589 52.777C133.509 52.3579 133.57 51.6132 133.773 50.5428C133.997 49.4412 134.324 48.2385 134.753 46.9348C134.881 46.7476 135.025 46.4351 135.185 45.9971C135.372 45.5542 135.5 45.2991 135.568 45.2317C135.548 45.1269 135.57 45.0277 135.634 44.9341C135.692 44.8144 135.774 44.7445 135.879 44.7245L135.834 44.4887C135.789 44.253 136.113 43.6073 136.808 42.5516C137.497 41.4698 138.084 40.7061 138.569 40.2605C139.139 39.6902 139.764 39.34 140.445 39.2099C140.917 39.1199 141.348 39.1733 141.738 39.3702C141.899 39.5024 142.609 39.9505 143.868 40.7146L145.57 41.7335L145.238 43.8331C145.137 44.5853 145.142 45.2496 145.252 45.8258C145.442 46.8211 145.913 47.7222 146.664 48.5289C146.85 48.792 147.164 49.017 147.607 49.2039C148.05 49.3908 148.473 49.473 148.876 49.4503C149.472 49.445 149.815 49.6781 149.905 50.1496C150.006 50.6735 149.83 51.0328 149.378 51.2276C149.279 51.2738 149.124 51.3169 148.914 51.357C147.369 51.6521 145.826 50.8202 144.284 48.8612C144.149 48.7241 143.95 48.4635 143.687 48.0794C143.45 47.6903 143.303 47.4197 143.247 47.2675C143.13 47.5071 142.981 47.7934 142.8 48.1266C142.619 48.4597 142.444 48.7511 142.274 49.0006C139.965 52.401 137.985 54.2587 136.334 54.5738C135.811 54.6739 135.314 54.6329 134.845 54.451ZM135.839 51.9807C135.864 52.1116 136.003 52.1259 136.255 52.0235C136.533 51.9161 136.848 51.7201 137.201 51.4355C137.58 51.146 137.947 50.7909 138.301 50.3703C140.183 48.0018 141.485 46.0022 142.205 44.3715L142.799 42.792C142.432 42.292 142.082 41.9516 141.749 41.7709C141.411 41.564 141.124 41.483 140.888 41.5281C140.338 41.6331 139.606 42.4923 138.693 44.1056C137.774 45.6928 137.008 47.5088 136.394 49.5536C136.243 50.0439 136.121 50.5423 136.028 51.0488C135.929 51.5291 135.867 51.8397 135.839 51.9807ZM154.249 51.0305C153.747 50.9634 153.283 50.8077 152.856 50.5634C152.425 50.2929 152.127 49.9426 151.963 49.5123C151.912 49.3863 151.83 49.2392 151.716 49.0708C151.624 48.8713 151.578 48.7035 151.579 48.5675C151.68 47.2452 151.81 46.0801 151.971 45.0721C152.126 44.0379 152.357 43.0436 152.663 42.0892L152.746 41.6663C152.837 40.7257 153.047 39.7626 153.375 38.777C153.428 38.631 153.494 38.3335 153.571 37.8844C153.603 37.7696 153.639 37.5999 153.677 37.3754C153.711 37.1246 153.749 36.968 153.791 36.9057C153.934 36.6611 154.098 36.5213 154.281 36.4863C154.622 36.4213 154.999 36.6207 155.413 37.0845C155.849 37.5171 156.159 37.933 156.344 38.3321C155.806 39.4937 155.307 41.1499 154.849 43.3006C154.386 45.4252 154.104 47.2166 154.003 48.6749C154.221 48.8232 154.566 48.8524 155.037 48.7624C155.43 48.6873 155.774 48.5674 156.068 48.4026C156.33 48.3526 156.739 48.2202 157.295 48.0053C158.03 47.7293 158.622 47.5619 159.073 47.503C159.105 47.3883 159.101 47.2261 159.061 47.0165L159.009 46.7415C158.964 46.5058 158.97 46.328 159.029 46.2082C159.27 45.6193 159.431 44.8284 159.513 43.8354C159.582 43.062 159.699 41.9673 159.863 40.5514C160.027 39.1355 160.159 38.3365 160.26 38.1543C160.371 38.0246 160.574 37.8773 160.868 37.7125C161.181 37.7884 161.385 37.8582 161.478 37.9217C161.598 37.9803 161.712 38.0807 161.821 38.2228C161.929 38.365 162.082 38.5258 162.279 38.7054L162.476 39.5229C162.516 39.7325 162.531 39.879 162.519 39.9626C162.43 40.0612 162.301 40.6694 162.135 41.7872C161.989 42.8737 161.924 43.5243 161.937 43.7388C161.788 44.0932 161.695 44.5317 161.659 45.0544C161.56 45.6706 161.456 46.1247 161.349 46.4167L161.338 46.7853L162.369 46.4256C163.094 46.0971 163.707 45.8985 164.21 45.8297C164.701 45.2743 164.894 44.7216 164.789 44.1716C164.885 43.9632 165.052 43.1305 165.29 41.6734C165.553 40.2113 165.67 39.4017 165.64 39.2445C165.837 38.854 165.943 38.413 165.958 37.9215C165.994 37.3988 166.012 37.0695 166.013 36.9335C166.424 36.6651 166.674 36.4816 166.763 36.383C167.421 36.5561 167.97 36.8721 168.41 37.3309L168.676 38.2981C168.397 39.1116 168.22 39.9599 168.144 40.8431C168.064 41.7001 167.911 42.7474 167.686 43.9849C167.487 45.2175 167.276 46.2486 167.055 47.0782C167.039 47.1356 167.025 47.2061 167.014 47.2897C167.002 47.3732 166.968 47.4749 166.909 47.5947C166.749 47.8967 166.607 48.0732 166.481 48.1244C166.281 48.2168 166.082 48.2413 165.884 48.1977C165.681 48.1279 165.49 48.0557 165.313 47.9809C165.162 47.9012 165.058 47.8532 165.001 47.837L164.961 47.8445C164.83 47.8695 164.575 48.0268 164.196 48.3164C164.06 48.3152 163.901 48.3321 163.717 48.3671C163.56 48.3971 163.395 48.4559 163.221 48.5433C163.069 48.5995 162.915 48.6426 162.757 48.6726C162.207 48.7776 161.041 49.1362 159.257 49.7483C159 49.8245 158.413 50.0181 157.495 50.3292C156.603 50.6352 155.869 50.8433 155.293 50.9533C154.848 51.0383 154.5 51.0641 154.249 51.0305ZM176.888 48.0101C175.762 48.2252 174.752 47.9837 173.859 47.2856C172.965 46.5874 172.398 45.6097 172.158 44.3525C171.918 43.0952 171.931 41.6675 172.196 40.0695C172.482 38.4402 172.955 36.9381 173.616 35.5631C174.276 34.1881 175.025 33.2036 175.861 32.6094C176.33 32.2212 176.892 31.9646 177.547 31.8396C178.044 31.7445 178.635 31.781 179.319 31.9491C179.799 32.0474 180.182 32.2051 180.468 32.422C180.754 32.6389 181.041 33.0049 181.329 33.5199C181.498 33.9764 181.6 34.2963 181.635 34.4796C181.665 34.6368 181.664 34.9898 181.633 35.5387C181.504 36.5679 181.242 37.473 180.849 38.2541C180.476 39.0039 179.929 39.6922 179.207 40.3187C178.838 40.6607 178.339 40.8917 177.71 41.0117C177.16 41.1168 176.619 41.1251 176.086 41.0368C175.575 40.9173 175.15 40.6861 174.813 40.3433L174.478 40.0815L174.421 40.4183C174.141 41.9378 174.096 43.1952 174.286 44.1905C174.416 44.8716 174.652 45.3966 174.994 45.7657C175.232 46.0188 175.705 46.0778 176.412 45.9428C176.936 45.8427 177.306 45.7178 177.522 45.568C177.889 45.362 178.2 45.1398 178.453 44.9014C178.727 44.6319 178.989 44.3648 179.237 44.1002L179.379 43.9916L179.34 43.9991C179.624 43.7819 179.858 43.5879 180.043 43.4169C180.227 43.2459 180.354 43.1267 180.422 43.0593C180.475 43.0493 180.525 43.0262 180.572 42.99C180.62 42.9538 180.662 42.8914 180.699 42.8028C180.915 42.653 181.198 42.6398 181.547 42.7631C181.896 42.8865 182.098 43.0922 182.153 43.3803C182.141 43.5999 181.97 43.9854 181.641 44.5369C181.312 45.0884 181.045 45.3973 180.841 45.4635C180.815 45.4685 180.731 45.5253 180.588 45.6339C180.446 45.7425 180.354 45.828 180.312 45.8904L180.351 45.8829C180.175 46.2422 179.969 46.4444 179.734 46.4894L179.419 46.5494C179.355 46.779 179.041 47.0561 178.479 47.3807C177.942 47.7003 177.412 47.9101 176.888 48.0101ZM177.006 39.0287C177.792 38.8786 178.427 38.2958 178.912 37.2801C179.38 36.3219 179.534 35.4237 179.374 34.5855C179.289 34.1402 179.138 33.8434 178.919 33.6951C178.747 33.6465 178.596 33.6347 178.465 33.6597C178.334 33.6847 178.118 33.7666 177.819 33.9052C177.494 34.0488 177.04 34.5155 176.458 35.3054C175.87 36.0691 175.454 36.7323 175.209 37.295L174.855 38.2176C175.05 38.099 175.239 38.0222 175.422 37.9872C175.627 37.921 175.747 37.9116 175.783 37.959C175.853 38.3257 176.003 38.6094 176.231 38.8101C176.459 39.0109 176.718 39.0837 177.006 39.0287Z" fill="#3D3D3D"/>
<path d="M94.8832 94.7041C94.6948 94.7129 94.5095 94.6668 94.3274 94.5659C94.1714 94.4599 93.9842 94.3328 93.7658 94.1845C93.5737 94.0311 93.4021 93.9146 93.2511 93.8348C93.1449 93.4207 93.1439 92.6336 93.2481 91.4734C93.3473 90.2871 93.4673 89.4226 93.608 88.8799C93.5915 88.3672 93.6641 87.5389 93.8257 86.3949C93.9488 85.4755 94.0134 84.961 94.0196 84.8512C94.0614 83.6487 94.1277 82.6451 94.2184 81.8404C94.2519 81.5897 94.2618 81.3571 94.248 81.1425C94.2603 80.923 94.2852 80.7689 94.3226 80.6803C94.3862 80.5867 94.547 80.4338 94.8051 80.2216C95.1706 80.2876 95.4713 80.298 95.707 80.253C95.9166 80.213 96.1136 80.1075 96.2981 79.9365C96.3717 79.8953 96.4765 79.8753 96.6125 79.8765C96.7696 79.8465 96.9399 79.814 97.1232 79.779L98.0269 79.6064C98.6555 79.4863 99.059 79.3957 99.2374 79.3345C99.4943 79.2583 99.8685 79.2275 100.36 79.2423C100.852 79.257 101.215 79.2419 101.451 79.1968C102.438 79.3885 103.191 79.6382 103.712 79.9461C104.253 80.2227 104.576 80.7041 104.68 81.3901C104.703 81.6571 104.75 82.0419 104.819 82.5445C104.887 83.0472 104.863 83.4863 104.744 83.8618C104.748 84.024 104.669 84.6771 104.508 85.821C104.228 87.3405 104.109 88.3541 104.152 88.8618C104.146 88.9715 104.11 89.1412 104.045 89.3708C103.981 89.6003 103.963 89.7937 103.993 89.9508C104.048 90.239 104.063 90.6026 104.039 91.0417C104.035 91.4496 103.972 91.7602 103.85 91.9736C103.681 92.2231 103.465 92.3729 103.203 92.423C102.836 92.493 102.484 92.4245 102.146 92.2176C101.803 91.9845 101.612 91.6952 101.573 91.3497C101.453 90.7211 101.355 89.9253 101.28 88.9623C101.449 88.7127 101.514 88.4832 101.474 88.2736C101.455 88.0329 101.441 87.8863 101.431 87.8339C101.611 86.9307 101.748 85.8729 101.843 84.6603C101.932 83.4216 101.914 82.4748 101.789 81.82C101.739 81.5581 101.693 81.3903 101.652 81.3167C101.023 81.4368 100.167 81.6411 99.0815 81.9298C97.9963 82.2185 97.3883 82.3753 97.2573 82.4003C97.1576 82.4465 97.0784 82.5295 97.0198 82.6493C96.9562 82.7429 96.932 82.829 96.947 82.9076C96.9634 83.4202 96.892 84.1126 96.7328 84.9846C96.7154 85.178 96.6788 85.4836 96.6228 85.9015C96.5619 86.2932 96.5327 86.6381 96.5354 86.9363C96.5342 87.0722 96.4528 87.7122 96.2912 88.8562C95.9777 90.6264 95.8529 91.7498 95.9167 92.2262C95.7772 92.633 95.77 93.1637 95.895 93.8186C95.9088 94.0331 95.8447 94.1947 95.7025 94.3033C95.5554 94.3857 95.2822 94.5193 94.8832 94.7041ZM110.649 99.7157C110.507 99.8243 110.37 99.8911 110.239 99.9161C109.873 99.9861 109.521 99.8497 109.184 99.5068C108.852 99.1901 108.636 98.7698 108.536 98.246C108.491 98.0102 108.48 97.7408 108.504 97.4377C108.51 97.3279 108.528 97.0665 108.558 96.6536C108.618 96.2619 108.637 95.9326 108.613 95.6657C108.611 95.3675 108.668 94.8136 108.785 94.004C108.901 93.1944 109.013 92.6436 109.121 92.3517C109.206 92.0909 109.259 91.7959 109.277 91.4665C109.291 91.111 109.275 90.8154 109.23 90.5797C109.303 89.9684 109.399 89.543 109.516 89.3034C109.589 88.6921 109.7 88.2093 109.85 87.855C109.861 87.7714 109.852 87.5831 109.824 87.2899C109.816 86.9656 109.873 86.7648 109.994 86.6874C110.002 86.3056 110.02 86.0443 110.047 85.9033C110.076 85.0563 110.221 83.9698 110.484 82.6436C110.616 81.9126 110.616 81.2065 110.486 80.5255C110.331 79.7135 110.045 79.2796 109.627 79.2236C109.319 79.1739 109.135 78.9918 109.075 78.6775C109.04 78.4942 109.06 78.3139 109.134 78.1367C109.209 77.9596 109.331 77.8142 109.499 77.7006C109.694 77.582 109.896 77.5027 110.105 77.4627C110.393 77.4076 110.663 77.3969 110.913 77.4305C111.19 77.459 111.321 77.502 111.305 77.5594C111.32 77.638 111.345 77.701 111.381 77.7483C111.413 77.7695 111.467 77.7726 111.546 77.7576C111.605 77.6378 111.844 77.823 112.263 78.313C112.677 78.7768 112.904 79.1135 112.945 79.3231C112.907 79.4117 112.891 79.4691 112.896 79.4952C112.927 79.5164 112.982 79.5195 113.061 79.5045C113.229 79.3909 113.537 79.1556 113.985 78.7987C114.453 78.4105 114.738 78.1253 114.839 77.9432C114.887 77.907 114.971 77.8502 115.092 77.7728C115.208 77.6692 115.298 77.5706 115.361 77.477C115.629 77.3172 115.947 77.2023 116.313 77.1323C116.732 77.0522 117.151 77.0402 117.569 77.0961C117.987 77.152 118.349 77.2729 118.656 77.4586C119.341 78.0608 119.744 78.6762 119.864 79.3048C119.969 79.8549 119.923 80.6102 119.727 81.5708C119.704 81.738 119.594 82.0848 119.396 82.6113C119.219 83.1066 119.093 83.4428 119.018 83.62C118.633 84.5894 118.121 85.461 117.482 86.2347C116.842 87.0084 116.077 87.7653 115.187 88.5055C114.934 88.7438 114.66 88.9454 114.366 89.1102C114.098 89.27 113.859 89.3699 113.649 89.41C113.544 89.43 113.435 89.4238 113.32 89.3914C112.992 89.2369 112.645 88.8416 112.279 88.2056C112.093 89.0826 112.002 89.6702 112.005 89.9683C112.02 90.0469 112.018 90.1829 112.001 90.3762C112.005 90.5384 111.962 90.6688 111.872 90.7674C111.877 90.7936 111.864 90.8641 111.831 90.9788C111.825 91.0886 111.774 91.2477 111.678 91.456C111.495 92.6312 111.376 93.3597 111.322 93.6417C111.116 94.984 111.012 95.8591 111.009 96.267C111.081 96.9318 111.067 97.6404 110.966 98.3926C110.871 99.1711 110.765 99.6121 110.649 99.7157ZM113.186 87.6251C113.397 87.4491 113.951 86.8682 114.849 85.8823C115.741 84.8702 116.289 84.182 116.491 83.8177C116.873 83.1202 117.106 82.492 117.189 81.9331C117.326 81.2283 117.417 80.7087 117.462 80.3744C117.51 80.2022 117.515 80.0113 117.475 79.8018C117.42 79.5137 117.299 79.306 117.111 79.1789C116.949 79.1827 116.613 79.3419 116.103 79.6565C115.614 79.9399 115.093 80.3381 114.539 80.851C114.007 81.3328 113.584 81.8887 113.27 82.5188C112.918 83.2375 112.669 83.991 112.52 84.7795C112.399 85.5629 112.388 86.2166 112.488 86.7404C112.613 87.3953 112.846 87.6902 113.186 87.6251ZM133.403 88.1624C132.659 87.68 132.018 86.8794 131.478 85.7608C131.396 85.6136 131.317 85.3436 131.242 84.9507C131.167 84.5578 131.115 84.2827 131.085 84.1256C131.002 84.5485 130.782 84.9571 130.423 85.3515C129.935 86.069 129.418 86.6293 128.871 87.0325C128.069 87.81 127.38 88.2538 126.804 88.3639C126.28 88.4639 125.727 88.2708 125.145 87.7846C124.75 87.5615 124.433 87.3234 124.195 87.0703C123.982 86.8122 123.836 86.4736 123.756 86.0545C123.701 85.7663 123.681 85.4445 123.694 85.089C123.561 84.1098 123.515 83.155 123.554 82.2244C123.62 81.2888 123.835 80.0668 124.198 78.5585C124.721 76.7483 125.113 75.5331 125.375 74.913C125.496 74.8356 125.661 74.7769 125.871 74.7369C126.133 74.6869 126.357 74.7255 126.545 74.8526C126.758 74.9748 126.903 75.1643 126.979 75.4212C127.077 75.511 127.144 75.6475 127.179 75.8309C127.304 76.4857 127.117 77.6347 126.616 79.2778C126.065 81.935 125.879 83.7351 126.059 84.6781C126.164 85.2282 126.384 85.5256 126.718 85.5703C126.864 85.6239 127.016 85.6357 127.173 85.6056C127.828 85.4806 128.528 84.8852 129.275 83.8196C130.022 82.7539 130.627 81.1588 131.09 79.0343C131.286 78.0737 131.334 77.1144 131.232 76.1564C131.191 76.0828 131.156 75.9675 131.125 75.8103C131.035 75.3388 131.199 74.914 131.615 74.5358C131.69 74.3587 131.811 74.2133 131.98 74.0997C132.143 73.9599 132.261 73.9374 132.333 74.0322L132.955 73.8728C133.028 73.8316 133.122 73.8952 133.235 74.0635C133.344 74.2057 133.442 74.2955 133.531 74.3328C133.744 74.455 133.891 74.7256 133.971 75.1447C134.136 76.0091 134.009 77.4044 133.59 79.3306C133.292 80.4733 133.107 81.3504 133.033 81.9616C132.981 82.5417 132.992 83.0962 133.066 83.625C133.256 84.6204 133.793 85.373 134.678 85.8827C134.975 86.0161 135.17 86.1825 135.262 86.382C135.354 86.5816 135.423 86.8672 135.466 87.2389C135.459 87.4847 135.339 87.7111 135.107 87.9183C134.897 88.0943 134.647 88.2098 134.359 88.2648C134.019 88.3298 133.7 88.2957 133.403 88.1624ZM139.251 85.8645C139.14 85.9943 138.967 86.0817 138.731 86.1267C138.365 86.1967 137.915 86.1876 137.382 86.0993L136.972 85.4446C136.85 85.0879 136.75 84.8491 136.672 84.7281C136.905 84.385 137.022 84.2134 137.022 84.2134L137.886 84.0483C137.96 84.0071 138.05 83.9085 138.156 83.7525C138.262 83.5966 138.38 83.5061 138.511 83.4811C139.318 82.7297 140.016 81.4832 140.607 79.7416C141.218 77.9687 141.806 75.9289 142.37 73.6221L142.581 72.8081L142.505 72.6192C142.357 72.7016 142.158 72.794 141.906 72.8964C141.68 72.9938 141.494 73.0837 141.347 73.1661L141.141 73.3683C140.987 73.5604 140.754 73.6865 140.439 73.7466C140.151 73.8016 139.864 73.7886 139.577 73.7077C139.316 73.6217 139.113 73.484 138.968 73.2945C138.73 73.0413 138.577 72.8805 138.51 72.8119C138.57 72.5562 138.697 72.301 138.893 72.0465C139.084 71.7657 139.292 71.5766 139.518 71.4792C140.767 70.9148 141.89 70.5375 142.885 70.3474C143.854 70.1624 144.83 70.1525 145.812 70.318C145.895 70.3292 146.005 70.3353 146.141 70.3365C146.277 70.3377 146.405 70.3676 146.524 70.4262C147.004 70.6604 147.352 70.8517 147.571 71.0001C147.971 71.2494 148.253 71.5892 148.417 72.0194C148.556 72.3188 148.657 72.6387 148.722 72.9792C148.752 73.1363 148.771 73.3771 148.779 73.7014C148.759 74.1667 148.648 75.5046 148.446 77.7151L148.336 78.632C148.153 80.3772 147.978 82.1618 147.811 83.9856C147.611 84.078 147.459 84.1342 147.354 84.1542C146.857 84.2492 146.366 84.0985 145.883 83.7021C145.719 83.4078 145.606 83.1034 145.546 82.7891C145.476 82.4224 145.498 82.0382 145.611 81.6365C145.66 81.4643 145.685 81.2423 145.688 80.9703C145.716 80.6934 145.733 80.5 145.74 80.3902C145.742 79.5482 145.823 78.9763 145.982 78.6743C146.014 78.5595 146.023 78.4629 146.008 78.3843C145.958 78.1223 146.014 77.1344 146.175 75.4203C146.297 74.0668 146.359 73.2541 146.361 72.9822C146.377 72.9248 146.375 72.8437 146.355 72.7389C146.335 72.6342 146.305 72.545 146.264 72.4714C146.217 72.3716 146.182 72.2563 146.157 72.1253C145.812 72.0282 145.47 72.0121 145.129 72.0771C144.789 72.1422 144.591 72.3157 144.537 72.5976L144.486 72.9737C144.44 73.444 144.315 73.9973 144.111 74.6336C143.781 75.8911 143.581 76.9066 143.512 77.6801C143.516 77.8422 143.483 78.025 143.413 78.2283C143.364 78.4005 143.334 78.5284 143.323 78.612C143.211 78.8777 143.141 79.1491 143.112 79.426C143.122 79.4784 143.119 79.5333 143.103 79.5907C143.082 79.6219 143.06 79.6531 143.039 79.6843C142.986 79.8302 142.766 80.3879 142.381 81.3574C141.889 82.6187 140.846 84.1211 139.251 85.8645ZM156.261 82.3311C155.883 82.4847 155.603 82.579 155.419 82.614C155.262 82.644 155.126 82.6428 155.011 82.6105C154.892 82.5519 154.722 82.4484 154.504 82.3001C153.873 82.122 153.337 81.8036 152.896 81.3447C152.477 80.8547 152.253 80.3951 152.226 79.966C152.101 78.7411 152.188 77.3533 152.49 75.8027C152.817 74.247 153.281 72.8415 153.883 71.5864C154.485 70.3312 155.141 69.5001 155.851 69.0931C156.287 68.8197 156.662 68.653 156.977 68.593C157.605 68.4729 158.101 68.6498 158.463 69.1236C158.716 69.4553 158.86 69.7129 158.895 69.8962C158.955 70.2105 158.812 70.4551 158.465 70.6299C158.387 70.6449 158.303 70.7017 158.213 70.8003C158.123 70.8989 158.086 70.9875 158.101 71.066C158.132 71.0872 158.252 71.0778 158.462 71.0378C158.907 70.9528 159.445 70.7822 160.074 70.5262C160.704 70.2702 161.096 70.0461 161.249 69.8539C161.391 69.7453 161.515 69.681 161.62 69.661L162.185 69.6345C162.655 69.6805 162.908 69.7951 162.943 69.9785C162.963 70.0832 163.022 70.1805 163.12 70.2703C163.214 70.3339 163.313 70.3556 163.418 70.3356C163.58 70.3318 163.574 70.4416 163.399 70.665C163.251 70.8833 162.942 71.2546 162.472 71.7787C162.356 71.8823 162.182 72.0377 161.95 72.2449C161.744 72.4471 161.625 72.6055 161.593 72.7203C161.587 72.8301 161.627 72.9716 161.715 73.145C161.865 73.3607 161.972 73.6388 162.037 73.9794C162.202 74.8437 162.005 75.8723 161.445 77.0651C160.912 78.2529 160.157 79.3473 159.181 80.3482C158.231 81.344 157.258 82.005 156.261 82.3311ZM155.263 80.7299C155.42 80.6999 155.783 80.4677 156.352 80.0333C156.627 79.6277 156.862 79.3657 157.057 79.2471C157.24 79.2121 157.464 79.0336 157.728 78.7116C157.987 78.3635 158.365 77.7078 158.859 76.7445C159.247 76.0732 159.521 75.5186 159.682 75.0807C159.869 74.6378 159.927 74.233 159.857 73.8663C159.827 73.7091 159.791 73.5937 159.75 73.5202C159.709 73.4466 159.605 73.3986 159.438 73.3762C159.292 73.3227 159.148 73.2822 159.007 73.2548C158.772 73.2998 158.539 73.29 158.309 73.2252C158.101 73.1293 157.786 72.9722 157.364 72.7541L156.586 72.0884L156.045 72.8839C155.537 73.6326 155.092 74.7898 154.713 76.3554C154.328 77.8949 154.171 79.0651 154.243 79.8659C154.287 80.2376 154.389 80.4895 154.55 80.6217C154.732 80.7226 154.97 80.7587 155.263 80.7299ZM184.076 66.2277C183.7 66.6794 183.108 67.4169 182.299 68.4402C181.511 69.4323 180.945 70.1648 180.601 70.6377L178.144 73.5504C178.199 73.8385 178.27 74.0692 178.358 74.2426C178.466 74.3847 178.609 74.5612 178.785 74.7719C178.982 74.9514 179.116 75.0886 179.189 75.1834C179.748 75.8367 180.459 76.4339 181.323 76.9749C182.186 77.5158 182.696 77.8393 182.852 77.9452C183.028 78.156 183.021 78.3337 182.832 78.4785C182.642 78.6233 182.395 78.7519 182.091 78.8643C181.782 78.9506 181.566 79.0324 181.445 79.1098C180.828 79.1462 180.068 78.7892 179.164 78.0387C178.287 77.2832 177.668 76.6005 177.307 75.9907C176.819 75.5681 176.453 75.2171 176.21 74.9378C175.993 74.6535 175.719 74.217 175.39 73.6284C175.162 73.9977 174.982 74.48 174.852 75.075C174.817 75.4617 174.734 75.9526 174.603 76.5477C174.418 77.4247 174.365 77.8558 174.443 77.8407L174.557 78.2261C174.597 78.4357 174.591 78.6134 174.537 78.7594C174.505 78.8742 174.393 79.072 174.202 79.3527L173.149 79.5946C172.649 79.3915 172.303 79.1453 172.112 78.856C171.921 78.5667 171.788 78.2256 171.713 77.8327C171.778 77.6031 171.915 77.1153 172.126 76.3693C172.331 75.597 172.448 74.8554 172.475 74.1443C172.318 74.1744 171.95 74.3124 171.373 74.5584C171.161 74.8703 170.957 75.1536 170.761 75.4082C170.592 75.6577 170.42 75.8942 170.245 76.1176C169.436 77.1408 168.767 78.0424 168.237 78.8223C167.327 80.0277 166.693 81.0447 166.336 81.8731C166.218 82.1127 166.003 82.2625 165.688 82.3225C165.505 82.3575 165.178 82.3521 164.708 82.3062L163.588 81.1354C163.503 80.6901 163.64 80.3382 163.998 80.0799C164.288 79.7529 164.693 79.2413 165.211 78.545C165.73 77.8487 166.225 77.1704 166.696 76.5103C166.892 76.2558 167.167 75.9182 167.521 75.4977C167.875 75.0771 168.155 74.7658 168.36 74.5636C168.593 74.2204 168.879 73.8673 169.217 73.5041C169.703 72.9226 170.031 72.507 170.2 72.2575L169.416 71.3485C169.317 71.2587 169.113 71.0399 168.802 70.692C168.512 70.3129 168.209 70.0043 167.892 69.7662C167.726 69.6079 167.258 69.073 166.486 68.1615C166.414 68.0667 166.313 67.9639 166.183 67.8529C166.074 67.7108 165.95 67.558 165.81 67.3947C165.866 66.9767 166.13 66.7228 166.601 66.6327C166.916 66.5727 167.245 66.5913 167.589 66.6884C168.328 67.1446 168.955 67.7986 169.471 68.6503C169.911 69.1091 170.269 69.4888 170.544 69.7893C170.839 70.0586 171.073 70.2855 171.244 70.4701C171.508 70.7182 172.016 71.2456 172.768 72.0523C172.768 71.3463 172.792 70.4731 172.837 69.4327C172.88 68.8002 172.905 68.0081 172.913 67.0563C172.938 66.6172 172.928 66.2798 172.883 66.0441L172.783 65.7373L172.761 65.6194C172.711 65.3574 172.715 65.1666 172.774 65.0468C172.78 64.937 172.815 64.8354 172.878 64.7418C172.942 64.6482 173.039 64.5889 173.17 64.5639C173.249 64.5489 173.376 64.5787 173.554 64.6535C174.851 65.193 175.481 65.8601 175.443 66.6547L175.337 68.8739C175.292 71.0544 175.248 72.1759 175.206 72.2382L175.614 72.2418C176.784 71.1223 177.613 70.2718 178.099 69.6903C178.501 69.2335 179.067 68.501 179.797 67.4928C180.554 66.4795 181.142 65.6478 181.56 64.9977C181.777 64.7119 181.92 64.5354 181.989 64.468C182.057 64.4006 182.23 64.3132 182.509 64.2058C182.863 64.3553 183.201 64.5622 183.523 64.8265C183.84 65.0646 184.05 65.3096 184.152 65.5615L184.175 65.6794C184.215 65.889 184.182 66.0717 184.076 66.2277ZM189.907 76.4758C189.004 76.2953 188.332 75.9757 187.891 75.5169C187.446 75.0318 187.13 74.3047 186.945 73.3356C186.855 72.8641 186.789 72.3066 186.748 71.6629L186.556 70.2335C186.511 69.9977 186.45 69.8194 186.373 69.6984C186.295 69.5774 186.15 69.4559 185.937 69.3337C185.874 69.2914 185.718 69.1854 185.469 69.0159C185.219 68.8464 185.095 68.6936 185.096 68.5576L185.019 68.3687C184.984 68.1853 184.978 68.0101 185 67.8429C185.049 67.6707 185.113 67.5772 185.191 67.5622C185.27 67.5471 185.372 67.514 185.498 67.4628C185.619 67.3854 185.734 67.3498 185.844 67.356C186.211 67.286 186.409 67.3296 186.439 67.4867C186.584 67.6762 186.759 67.6699 186.965 67.4677C187.192 67.2344 187.376 66.8463 187.516 66.3036C187.773 65.6574 188.195 64.9524 188.782 64.1887C189.39 63.3938 189.905 62.8203 190.327 62.4684C190.49 62.3286 190.774 62.1794 191.178 62.0208C191.577 61.836 191.934 61.7135 192.248 61.6535C192.72 61.5635 193.146 61.5907 193.526 61.7352C193.933 61.8748 194.357 62.1059 194.799 62.4288C195.366 62.7005 195.725 63.2292 195.875 64.015C195.98 64.5651 195.957 65.1532 195.805 65.7795C195.775 66.1924 195.451 66.7701 194.833 67.5126C194.241 68.2501 193.666 68.7943 193.109 69.1451C192.41 69.4685 191.59 69.7202 190.647 69.9003C190.018 70.0204 189.602 70.0455 189.399 69.9758C189.049 69.8524 188.962 70.6022 189.136 72.225C189.145 72.4133 189.179 72.6647 189.239 72.979C189.324 73.4243 189.457 73.7654 189.638 74.0023C189.669 74.0235 189.781 74.1108 189.973 74.2641C190.16 74.3912 190.384 74.4978 190.645 74.5837C190.901 74.6435 191.16 74.6484 191.422 74.5983C191.657 74.5533 191.836 74.4921 191.957 74.4147C192.23 74.2811 192.477 74.0845 192.699 73.8249C192.916 73.5392 193.215 73.1155 193.597 72.554C193.936 72.0549 194.182 71.7092 194.335 71.5171C194.421 71.2563 194.661 71.0884 195.054 71.0134C195.158 70.9934 195.347 70.9846 195.619 70.9869C195.889 71.1253 196.045 71.2992 196.085 71.5088C196.125 71.7183 196.069 72.1362 195.917 72.7625C195.836 73.0494 195.579 73.4787 195.145 74.0502C194.732 74.5905 194.354 75.0292 194.012 75.3661C193.285 75.9665 192.515 76.3442 191.703 76.4993C191.205 76.5943 190.607 76.5865 189.907 76.4758ZM190.702 68.0572C190.954 67.9548 191.321 67.8168 191.804 67.6432C192.286 67.4696 192.66 67.2218 192.924 66.8998C193.21 66.5467 193.51 65.9871 193.825 65.221C193.864 64.9964 193.863 64.7794 193.823 64.5698C193.748 64.1769 193.617 63.9169 193.43 63.7898C193.211 63.6414 192.984 63.5898 192.749 63.6348C192.382 63.7048 192.032 63.9345 191.699 64.3239C191.452 64.4525 191.114 64.8156 190.686 65.4133C190.283 66.0061 189.946 66.5863 189.674 67.154C189.397 67.6955 189.332 67.993 189.478 68.0466C189.441 68.1352 189.584 68.1757 189.909 68.168C190.228 68.1342 190.492 68.0973 190.702 68.0572ZM209.618 73.241C209.398 73.2286 209.166 73.2187 208.92 73.2114C208.669 73.1778 208.405 73.1467 208.128 73.1182C207.864 72.8701 207.686 72.5103 207.596 72.0388C207.521 71.6459 207.512 71.1725 207.57 70.6186C207.622 70.0386 207.689 69.4691 207.773 68.9102C207.795 68.743 207.829 68.4243 207.875 67.954C207.947 67.4787 207.969 67.0945 207.94 66.8014C207.899 66.7278 207.855 66.7091 207.807 66.7453C207.76 66.7815 207.741 66.8258 207.751 66.8782C207.544 67.2163 207.008 67.5359 206.142 67.837C205.051 68.2354 204.109 68.6325 203.316 69.0283L202.73 68.733C202.52 68.773 202.382 69.0438 202.315 69.5452C202.248 70.0467 202.211 70.7054 202.204 71.5212C202.196 72.337 202.171 72.8441 202.128 73.0425L201.475 73.2486C201.239 73.2936 200.842 73.2745 200.283 73.1912C199.977 72.8695 199.797 72.5646 199.742 72.2764C199.702 72.0669 199.696 71.8237 199.724 71.5467C199.742 71.3534 199.75 70.9716 199.75 70.4016C199.776 69.8265 199.86 69.1996 200.002 68.521C200.029 68.38 200.089 68.1243 200.181 67.7537C200.268 67.357 200.279 66.9884 200.214 66.6479C200.352 66.3771 200.439 66.0484 200.474 65.6617C200.503 65.2488 200.538 64.93 200.576 64.7055L200.994 62.6302C201.126 61.8992 201.226 61.2829 201.293 60.7814C201.386 60.2749 201.416 59.862 201.382 59.5427C201.338 59.171 201.5 58.9501 201.866 58.8801C202.233 58.81 202.63 58.8972 203.057 59.1415C203.509 59.3807 203.773 59.6968 203.848 60.0897C203.868 60.1945 203.867 60.3305 203.845 60.4976C203.785 60.7534 203.733 61.0484 203.688 61.3828C203.643 61.7171 203.577 62.0826 203.49 62.4793C203.213 64.2969 203.02 65.4197 202.912 65.8476C202.901 65.9312 202.866 66.0329 202.807 66.1527C202.744 66.2463 202.722 66.3454 202.742 66.4502C202.867 66.535 203.099 66.5448 203.44 66.4798C203.911 66.3898 204.289 66.2362 204.574 66.019L206.892 65.5763C207.33 65.737 207.698 66.0331 207.998 66.4645L208.287 64.7804C208.765 62.1643 208.989 60.4927 208.958 59.7655C208.957 59.3314 209.164 58.9252 209.581 58.5471C209.753 58.5956 209.993 58.6448 210.301 58.6945C210.636 58.7393 210.912 58.8358 211.13 58.9842C211.344 59.1063 211.504 59.3064 211.611 59.5846C211.635 59.8515 211.622 60.139 211.573 60.4472C211.518 60.7291 211.485 60.9119 211.474 60.9955C211.44 61.2462 211.292 62.0346 211.029 63.3608C210.991 63.5853 210.881 64.1492 210.701 65.0524C210.542 65.9244 210.412 66.7366 210.311 67.4888C210.232 68.2098 210.203 68.8398 210.224 69.3787C210.211 69.7342 210.172 70.2438 210.109 70.9074C210.067 71.5399 210.031 71.9946 210.003 72.2715C210.068 72.612 209.939 72.9352 209.618 73.241ZM225.259 70.6205C224.515 70.1381 223.873 69.3376 223.334 68.2189C223.252 68.0718 223.173 67.8017 223.098 67.4088C223.023 67.0159 222.97 66.7409 222.94 66.5837C222.858 67.0067 222.637 67.4153 222.278 67.8096C221.791 68.5271 221.274 69.0875 220.726 69.4907C219.924 70.2682 219.235 70.712 218.659 70.822C218.135 70.9221 217.583 70.729 217.001 70.2428C216.606 70.0197 216.289 69.7816 216.05 69.5284C215.838 69.2703 215.692 68.9317 215.612 68.5126C215.557 68.2245 215.536 67.9027 215.55 67.5472C215.417 66.568 215.37 65.6131 215.41 64.6825C215.476 63.747 215.69 62.525 216.054 61.0167C216.577 59.2065 216.969 57.9913 217.231 57.3712C217.352 57.2938 217.517 57.2351 217.726 57.1951C217.988 57.1451 218.213 57.1836 218.4 57.3108C218.614 57.4329 218.758 57.6225 218.835 57.8794C218.933 57.9691 219 58.1057 219.035 58.2891C219.16 58.9439 218.972 60.0929 218.472 61.7359C217.92 64.3932 217.735 66.1933 217.915 67.1363C218.02 67.6863 218.239 67.9837 218.574 68.0285C218.72 68.082 218.871 68.0938 219.028 68.0638C219.683 67.9387 220.384 67.3434 221.131 66.2777C221.877 65.2121 222.482 63.617 222.945 61.4924C223.142 60.5318 223.189 59.5725 223.088 58.6146C223.047 58.541 223.011 58.4256 222.981 58.2685C222.891 57.797 223.054 57.3722 223.471 56.994C223.546 56.8168 223.667 56.6714 223.835 56.5579C223.999 56.4181 224.117 56.3956 224.189 56.4903L224.81 56.331C224.884 56.2898 224.977 56.3534 225.091 56.5217C225.2 56.6639 225.298 56.7536 225.387 56.791C225.6 56.9131 225.747 57.1838 225.827 57.6029C225.992 58.4672 225.865 59.8625 225.445 61.7887C225.148 62.9315 224.962 63.8085 224.889 64.4198C224.837 64.9999 224.848 65.5543 224.921 66.0832C225.112 67.0786 225.649 67.8311 226.534 68.3409C226.831 68.4742 227.025 68.6407 227.118 68.8402C227.21 69.0397 227.278 69.3254 227.322 69.6971C227.315 69.9428 227.195 70.1693 226.963 70.3765C226.752 70.5524 226.503 70.6679 226.215 70.723C225.874 70.788 225.556 70.7538 225.259 70.6205ZM234.22 69.1128C233.093 69.3279 232.083 69.0864 231.19 68.3883C230.296 67.6902 229.73 66.7125 229.489 65.4552C229.249 64.1979 229.262 62.7702 229.527 61.1722C229.813 59.5429 230.286 58.0408 230.947 56.6658C231.607 55.2909 232.356 54.3063 233.192 53.7121C233.661 53.324 234.223 53.0674 234.878 52.9423C235.376 52.8473 235.966 52.8838 236.65 53.0518C237.13 53.1502 237.513 53.3078 237.799 53.5247C238.085 53.7416 238.372 54.1076 238.66 54.6226C238.829 55.0791 238.931 55.399 238.966 55.5824C238.996 55.7395 238.995 56.0925 238.964 56.6414C238.835 57.6706 238.574 58.5757 238.18 59.3568C237.807 60.1067 237.26 60.7949 236.538 61.4214C236.169 61.7634 235.67 61.9944 235.041 62.1145C234.491 62.2195 233.95 62.2279 233.417 62.1396C232.906 62.0201 232.481 61.7889 232.145 61.446L231.809 61.1842L231.752 61.521C231.472 63.0405 231.427 64.2979 231.617 65.2933C231.747 65.9743 231.983 66.4993 232.325 66.8684C232.563 67.1215 233.036 67.1805 233.743 67.0455C234.267 66.9454 234.637 66.8205 234.853 66.6707C235.221 66.4647 235.531 66.2425 235.784 66.0042C236.058 65.7346 236.32 65.4675 236.568 65.2029L236.71 65.0944L236.671 65.1019C236.955 64.8847 237.189 64.6906 237.374 64.5196C237.558 64.3486 237.685 64.2294 237.754 64.162C237.806 64.152 237.856 64.1289 237.903 64.0927C237.951 64.0565 237.993 63.9941 238.03 63.9056C238.246 63.7558 238.529 63.7425 238.878 63.8659C239.227 63.9892 239.429 64.1949 239.485 64.483C239.472 64.7026 239.301 65.0881 238.972 65.6396C238.643 66.1912 238.377 66.5 238.172 66.5662C238.146 66.5712 238.062 66.628 237.919 66.7366C237.777 66.8452 237.685 66.9307 237.643 66.9931L237.682 66.9856C237.506 67.3449 237.3 67.5471 237.065 67.5921L236.75 67.6522C236.686 67.8817 236.372 68.1588 235.81 68.4834C235.273 68.803 234.743 69.0128 234.22 69.1128ZM234.337 60.1314C235.123 59.9813 235.758 59.3985 236.243 58.3829C236.711 57.4246 236.865 56.5264 236.705 55.6882C236.62 55.2429 236.469 54.9461 236.25 54.7978C236.078 54.7492 235.927 54.7375 235.796 54.7625C235.665 54.7875 235.45 54.8693 235.15 55.0079C234.825 55.1515 234.371 55.6182 233.789 56.4081C233.202 57.1718 232.785 57.835 232.54 58.3977L232.187 59.3204C232.381 59.2018 232.57 59.125 232.753 59.0899C232.958 59.0237 233.078 59.0143 233.114 59.0617C233.185 59.4284 233.334 59.7121 233.562 59.9129C233.79 60.1136 234.049 60.1864 234.337 60.1314ZM245.738 59.8681C245.26 60.068 244.84 59.9989 244.476 59.6611C244.113 59.3232 243.859 58.7744 243.714 58.0148C243.584 57.3338 243.552 56.5255 243.617 55.5899C243.844 54.7865 243.922 54.2014 243.852 53.8347C243.898 53.3644 244 52.7612 244.158 52.0252C244.311 51.2629 244.445 50.6809 244.558 50.2792C244.663 50.2592 244.75 50.1475 244.82 49.9442C244.916 49.7358 244.946 49.5399 244.911 49.3566C244.866 49.1208 244.86 48.8776 244.894 48.6269C244.949 48.3449 245.019 48.1416 245.103 48.0168C245.088 47.9382 245.116 47.7972 245.185 47.5939C245.25 47.3643 245.275 47.2102 245.26 47.1317C245.25 47.0793 245.261 46.9957 245.294 46.8809C245.347 46.7349 245.366 46.6227 245.351 46.5441C245.673 45.6682 246.071 44.0583 246.547 41.7141C247.022 39.37 247.24 38.0252 247.201 37.6797C247.195 37.2194 247.396 36.991 247.804 36.9946C247.915 36.8648 248.114 36.7724 248.402 36.7174L249.072 37.241C249.291 37.3893 249.433 37.5657 249.499 37.7703C249.587 37.9436 249.668 38.2267 249.743 38.6196C249.792 39.0175 249.756 39.4722 249.637 39.9837C249.512 40.4691 249.354 40.9881 249.161 41.5407C248.967 42.0934 248.839 42.4846 248.774 42.7141L248.443 43.7546C248.164 44.5681 248.037 45.0403 248.062 45.1712C248.082 45.276 248.054 45.485 247.978 45.7981C247.897 46.0851 247.835 46.3277 247.791 46.5261C247.631 46.964 247.464 47.5117 247.291 48.1692C247.113 48.8004 247.034 49.1685 247.054 49.2732C247.037 49.3306 247.016 49.4298 246.988 49.5708C246.987 49.7067 246.944 49.8371 246.859 49.9619C246.781 49.9769 246.741 50.0524 246.74 50.1884C246.733 50.2981 246.735 50.3792 246.745 50.4316C246.77 50.5626 246.755 50.837 246.699 51.2549C246.643 51.6728 246.542 52.14 246.397 52.6565C245.991 55.3674 245.852 57.2672 245.978 58.3562C246.046 58.9948 246.064 59.3715 246.031 59.4863C246.025 59.5961 245.927 59.7234 245.738 59.8681ZM244.817 66.5597C244.354 66.8381 243.992 67.0023 243.73 67.0523C243.389 67.1174 242.966 67.0352 242.461 66.806C242.024 66.5093 241.771 66.1776 241.701 65.8109C241.591 65.2346 241.923 64.5602 242.699 63.7877C243.163 63.3734 243.513 63.1437 243.748 63.0987C243.879 63.0736 244.211 63.1053 244.744 63.1936C245.531 63.4776 245.977 63.8947 246.082 64.4447C246.142 64.7591 246.058 65.1009 245.83 65.4702C245.628 65.8346 245.29 66.1977 244.817 66.5597Z" fill="#3D3D3D"/>
</svg>
