<svg width="18" height="18" viewBox="0 0 18 18" fill="none" xmlns="http://www.w3.org/2000/svg">
<g clip-path="url(#clip0_124_176)">
<path d="M2.26971 17.1479L6.7144 11.9465C7.95107 12.7934 9.32161 13.1496 10.826 13.015C11.9569 12.9138 12.9752 12.5472 13.8808 11.9153C14.7864 11.2833 15.4744 10.47 15.945 9.4754C16.4155 8.48078 16.6011 7.42928 16.5019 6.32089C16.4027 5.2125 16.0336 4.21322 15.3944 3.32306C14.7552 2.4329 13.9339 1.75727 12.9305 1.29615C11.927 0.835038 10.8599 0.655084 9.72898 0.756288C8.59808 0.857492 7.57983 1.22407 6.67422 1.85602C5.76861 2.48798 5.08032 3.29871 4.60935 4.28822C4.13838 5.27772 3.95272 6.32923 4.05237 7.44273C4.18859 8.96485 4.81673 10.2576 5.9368 11.321L1.50631 16.5057C1.4117 16.6172 1.37034 16.7393 1.38222 16.8721C1.3941 17.0049 1.45367 17.1154 1.56092 17.2037C1.66817 17.2919 1.79183 17.3297 1.93189 17.3172C2.07196 17.3047 2.18456 17.2482 2.26971 17.1479ZM5.03283 7.35499C4.94872 6.41515 5.10728 5.52826 5.5085 4.6943C5.90972 3.86035 6.4918 3.17754 7.25474 2.64589C8.01768 2.11423 8.87123 1.80615 9.81537 1.72166C10.7595 1.63717 11.6542 1.7888 12.4994 2.17654C13.3446 2.56428 14.0387 3.13289 14.5816 3.88235C15.1245 4.63181 15.4378 5.47391 15.5215 6.40863C15.6051 7.34336 15.4463 8.2277 15.0451 9.06165C14.6439 9.89561 14.0618 10.5784 13.2989 11.1101C12.5359 11.6417 11.6824 11.9498 10.7382 12.0343C10.3336 12.0705 9.93006 12.0603 9.52757 12.0036C9.12508 11.947 8.74511 11.8497 8.38764 11.7118C8.03018 11.5738 7.6879 11.4011 7.3608 11.1935C7.03371 10.986 6.73759 10.7447 6.47245 10.4698C6.2073 10.1949 5.97406 9.89659 5.7727 9.5748C5.57134 9.253 5.4066 8.90219 5.27848 8.52235C5.15037 8.14252 5.06848 7.75339 5.03283 7.35499Z" fill="white"/>
</g>
<defs>
<clipPath id="clip0_124_176">
<rect width="16" height="16" fill="white" transform="translate(15.9363) rotate(84.8862)"/>
</clipPath>
</defs>
</svg>
