<svg width="16" height="16" viewBox="0 0 16 16" fill="none" xmlns="http://www.w3.org/2000/svg">
<path d="M13.9688 7.11111H4.44434V8H13.9688C14.0867 8 14.1997 7.95318 14.2831 7.86983C14.3664 7.78648 14.4132 7.67343 14.4132 7.55556C14.4132 7.43768 14.3664 7.32464 14.2831 7.24129C14.1997 7.15794 14.0867 7.11111 13.9688 7.11111Z" fill="black"/>
<path d="M13.9688 10.6667H4.44434V11.5556H13.9688C14.0867 11.5556 14.1997 11.5087 14.2831 11.4254C14.3664 11.342 14.4132 11.229 14.4132 11.1111C14.4132 10.9932 14.3664 10.8802 14.2831 10.7968C14.1997 10.7135 14.0867 10.6667 13.9688 10.6667Z" fill="black"/>
<path d="M6.8667 4.44445H13.9778C14.0957 4.44445 14.2087 4.39762 14.2921 4.31427C14.3754 4.23092 14.4223 4.11788 14.4223 4C14.4223 3.88213 14.3754 3.76908 14.2921 3.68573C14.2087 3.60238 14.0957 3.55556 13.9778 3.55556H7.75559L6.8667 4.44445Z" fill="black"/>
<path d="M7.77782 1.52001C7.73277 1.47446 7.67913 1.43829 7.62 1.41361C7.56088 1.38893 7.49745 1.37622 7.43338 1.37622C7.36931 1.37622 7.30587 1.38893 7.24675 1.41361C7.18763 1.43829 7.13398 1.47446 7.08893 1.52001L3.50671 5.10223L2.00449 3.48446C1.91608 3.38957 1.7936 3.33368 1.66399 3.3291C1.53439 3.32452 1.40827 3.37161 1.31338 3.46001C1.21849 3.54842 1.1626 3.6709 1.15802 3.80051C1.15344 3.93011 1.20053 4.05623 1.28893 4.15112L3.48449 6.50668L7.77782 2.22223C7.82486 2.17666 7.86227 2.12209 7.88781 2.06177C7.91335 2.00146 7.92651 1.93662 7.92651 1.87112C7.92651 1.80562 7.91335 1.74079 7.88781 1.68047C7.86227 1.62016 7.82486 1.56559 7.77782 1.52001Z" fill="black"/>
</svg>
