<svg width="22" height="22" viewBox="0 0 22 22" fill="none" xmlns="http://www.w3.org/2000/svg">
<g clip-path="url(#clip0_29_246)">
<path d="M2.8369 21.4349L8.39276 14.9331C9.93859 15.9918 11.6518 16.437 13.5323 16.2687C14.9459 16.1422 16.2187 15.684 17.3507 14.8941C18.4827 14.1041 19.3428 13.0875 19.9309 11.8443C20.5191 10.601 20.7512 9.28661 20.6272 7.90112C20.5032 6.51563 20.0417 5.26653 19.2427 4.15383C18.4438 3.04113 17.4171 2.19659 16.1628 1.62019C14.9086 1.0438 13.5746 0.818859 12.161 0.945364C10.7474 1.07187 9.47454 1.53009 8.34253 2.32004C7.21052 3.10998 6.35016 4.12339 5.76145 5.36028C5.17274 6.59716 4.94066 7.91154 5.06522 9.30341C5.23549 11.2061 6.02067 12.822 7.42076 14.1512L1.88264 20.6322C1.76438 20.7715 1.71268 20.9241 1.72753 21.0901C1.74239 21.2561 1.81685 21.3943 1.95091 21.5046C2.08497 21.6149 2.23954 21.6622 2.41462 21.6465C2.5897 21.6308 2.73046 21.5603 2.8369 21.4349ZM6.29079 9.19374C6.18566 8.01894 6.38386 6.91033 6.88538 5.86788C7.38691 4.82544 8.11451 3.97193 9.06819 3.30736C10.0219 2.64279 11.0888 2.25769 12.269 2.15208C13.4491 2.04647 14.5675 2.236 15.624 2.72068C16.6805 3.20536 17.5481 3.91611 18.2268 4.85294C18.9054 5.78977 19.297 6.84239 19.4016 8.01079C19.5062 9.1792 19.3077 10.2846 18.8062 11.3271C18.3046 12.3695 17.577 13.223 16.6233 13.8876C15.6697 14.5522 14.6027 14.9373 13.4226 15.0429C12.9168 15.0881 12.4123 15.0754 11.9092 15.0045C11.4061 14.9337 10.9311 14.8121 10.4843 14.6397C10.0375 14.4673 9.60963 14.2514 9.20076 13.9919C8.79189 13.7325 8.42174 13.4309 8.09032 13.0873C7.75889 12.7437 7.46733 12.3707 7.21563 11.9685C6.96393 11.5663 6.75801 11.1277 6.59786 10.6529C6.43772 10.1781 6.33536 9.69175 6.29079 9.19374Z" fill="white"/>
</g>
<defs>
<clipPath id="clip0_29_246">
<rect width="20" height="20" fill="white" transform="translate(19.9199) rotate(84.8862)"/>
</clipPath>
</defs>
</svg>
