<svg width="25" height="25" viewBox="0 0 25 25" fill="none" xmlns="http://www.w3.org/2000/svg">
<path d="M12.5003 22.9167C13.6462 22.9167 14.5837 21.9792 14.5837 20.8333H10.417C10.417 21.9792 11.3545 22.9167 12.5003 22.9167ZM18.7503 16.6667V11.4583C18.7503 8.26041 17.0524 5.58332 14.0628 4.87499V4.16666C14.0628 3.30207 13.3649 2.60416 12.5003 2.60416C11.6357 2.60416 10.9378 3.30207 10.9378 4.16666V4.87499C7.95866 5.58332 6.25033 8.24999 6.25033 11.4583V16.6667L4.16699 18.75V19.7917H20.8337V18.75L18.7503 16.6667ZM16.667 17.7083H8.33366V11.4583C8.33366 8.87499 9.90658 6.77082 12.5003 6.77082C15.0941 6.77082 16.667 8.87499 16.667 11.4583V17.7083Z" fill="#33BE41"/>
</svg>
