<svg width="16" height="16" viewBox="0 0 16 16" fill="none" xmlns="http://www.w3.org/2000/svg">
<path d="M13.5 4.625H3.5C3.33424 4.625 3.17527 4.55915 3.05806 4.44194C2.94085 4.32473 2.875 4.16576 2.875 4C2.875 3.83424 2.94085 3.67527 3.05806 3.55806C3.17527 3.44085 3.33424 3.375 3.5 3.375H12C12.0995 3.375 12.1948 3.33549 12.2652 3.26517C12.3355 3.19484 12.375 3.09946 12.375 3C12.375 2.90054 12.3355 2.80516 12.2652 2.73483C12.1948 2.66451 12.0995 2.625 12 2.625H3.5C3.13545 2.62541 2.78596 2.77041 2.52818 3.02818C2.27041 3.28596 2.12541 3.63545 2.125 4V12C2.12541 12.3645 2.27041 12.714 2.52818 12.9718C2.78596 13.2296 3.13545 13.3746 3.5 13.375H13.5C13.732 13.3747 13.9544 13.2825 14.1184 13.1184C14.2825 12.9544 14.3747 12.732 14.375 12.5V5.5C14.3747 5.26802 14.2825 5.04561 14.1184 4.88157C13.9544 4.71754 13.732 4.62526 13.5 4.625ZM13.625 12.5C13.625 12.5331 13.6118 12.5649 13.5883 12.5883C13.5649 12.6118 13.5331 12.625 13.5 12.625H3.5C3.3343 12.6248 3.17544 12.5589 3.05828 12.4417C2.94111 12.3246 2.8752 12.1657 2.875 12V5.22456C3.0684 5.32371 3.28267 5.37529 3.5 5.375H13.5C13.5331 5.37505 13.5649 5.38824 13.5883 5.41167C13.6118 5.4351 13.625 5.46686 13.625 5.5V12.5ZM11.875 9C11.875 9.12361 11.8383 9.24445 11.7697 9.34723C11.701 9.45001 11.6034 9.53012 11.4892 9.57743C11.375 9.62473 11.2493 9.63711 11.1281 9.61299C11.0068 9.58887 10.8955 9.52935 10.8081 9.44194C10.7206 9.35453 10.6611 9.24317 10.637 9.12193C10.6129 9.00069 10.6253 8.87503 10.6726 8.76082C10.7199 8.64662 10.8 8.54901 10.9028 8.48033C11.0055 8.41166 11.1264 8.375 11.25 8.375C11.4158 8.375 11.5747 8.44085 11.6919 8.55806C11.8092 8.67527 11.875 8.83424 11.875 9Z" fill="black"/>
</svg>
