<svg width="37" height="221" viewBox="0 0 37 221" fill="none" xmlns="http://www.w3.org/2000/svg">
<path d="M7.77812 18.9144C9.38053 19.0429 10.7976 17.6753 10.9433 15.8596C11.089 14.044 9.90812 12.4678 8.30571 12.3393C6.70331 12.2107 5.28619 13.5783 5.1405 15.394C4.99481 17.2097 6.17571 18.7858 7.77812 18.9144Z" fill="#E5CBB2"/>
<path d="M32.9246 20.9319C34.527 21.0605 35.9441 19.6929 36.0898 17.8772C36.2355 16.0615 35.0546 14.4854 33.4522 14.3568C31.8498 14.2283 30.4327 15.5959 30.287 17.4116C30.1413 19.2272 31.3222 20.8034 32.9246 20.9319Z" fill="#E5CBB2"/>
<path d="M5.49296 47.4063C7.09537 47.5349 8.51249 46.1672 8.65818 44.3516C8.80387 42.5359 7.62297 40.9598 6.02056 40.8312C4.41815 40.7026 3.00103 42.0703 2.85534 43.8859C2.70965 45.7016 3.89055 47.2777 5.49296 47.4063Z" fill="#E5CBB2"/>
<path d="M30.6375 49.4241C32.2399 49.5527 33.657 48.1851 33.8027 46.3694C33.9484 44.5537 32.7675 42.9776 31.1651 42.849C29.5627 42.7204 28.1456 44.0881 27.9999 45.9038C27.8542 47.7194 29.0351 49.2956 30.6375 49.4241Z" fill="#E5CBB2"/>
<path d="M3.20585 75.8985C4.80826 76.0271 6.22538 74.6594 6.37107 72.8438C6.51676 71.0281 5.33586 69.452 3.73345 69.3234C2.13104 69.1948 0.713924 70.5625 0.568232 72.3781C0.42254 74.1938 1.60344 75.7699 3.20585 75.8985Z" fill="#E5CBB2"/>
<path d="M28.3523 77.9163C29.9547 78.0449 31.3718 76.6772 31.5175 74.8616C31.6632 73.0459 30.4823 71.4698 28.8799 71.3412C27.2775 71.2126 25.8604 72.5803 25.7147 74.396C25.569 76.2116 26.7499 77.7877 28.3523 77.9163Z" fill="#E5CBB2"/>
<path d="M0.918742 104.391C2.52115 104.519 3.93827 103.152 4.08396 101.336C4.22965 99.5203 3.04875 97.9442 1.44634 97.8156C-0.156069 97.687 -1.57318 99.0547 -1.71888 100.87C-1.86457 102.686 -0.683667 104.262 0.918742 104.391Z" fill="#E5CBB2"/>
<path d="M26.0652 106.408C27.6676 106.537 29.0847 105.169 29.2304 103.354C29.3761 101.538 28.1952 99.9617 26.5928 99.8332C24.9904 99.7046 23.5733 101.072 23.4276 102.888C23.2819 104.704 24.4628 106.28 26.0652 106.408Z" fill="#E5CBB2"/>
<path d="M-1.36641 132.883C0.235995 133.011 1.65311 131.644 1.7988 129.828C1.94449 128.012 0.763593 126.436 -0.838816 126.308C-2.44123 126.179 -3.85834 127.547 -4.00403 129.363C-4.14973 131.178 -2.96882 132.754 -1.36641 132.883Z" fill="#E5CBB2"/>
<path d="M23.7781 134.9C25.3805 135.029 26.7976 133.661 26.9433 131.846C27.089 130.03 25.9081 128.454 24.3057 128.325C22.7033 128.197 21.2862 129.564 21.1405 131.38C20.9948 133.196 22.1757 134.772 23.7781 134.9Z" fill="#E5CBB2"/>
<path d="M21.493 163.393C23.0954 163.521 24.5125 162.154 24.6582 160.338C24.8039 158.522 23.623 156.946 22.0206 156.818C20.4181 156.689 19.001 158.057 18.8553 159.872C18.7096 161.688 19.8905 163.264 21.493 163.393Z" fill="#E5CBB2"/>
<path d="M19.2058 191.885C20.8082 192.013 22.2254 190.646 22.3711 188.83C22.5167 187.014 21.3358 185.438 19.7334 185.31C18.131 185.181 16.7139 186.549 16.5682 188.364C16.4225 190.18 17.6034 191.756 19.2058 191.885Z" fill="#E5CBB2"/>
<path d="M16.9207 220.377C18.5231 220.506 19.9402 219.138 20.0859 217.322C20.2316 215.507 19.0507 213.93 17.4483 213.802C15.8459 213.673 14.4288 215.041 14.2831 216.857C14.1374 218.672 15.3183 220.248 16.9207 220.377Z" fill="#E5CBB2"/>
</svg>
