<svg width="291" height="294" viewBox="0 0 291 294" fill="none" xmlns="http://www.w3.org/2000/svg">
<g clip-path="url(#clip0_70_3421)" filter="url(#filter0_d_70_3421)">
<path d="M138.083 6.95049C139.329 7.9671 141.272 7.64737 142.424 6.23635C143.576 4.82533 143.5 2.85735 142.255 1.84074C141.01 0.824126 139.066 1.14386 137.914 2.55488C136.762 3.96589 136.838 5.93388 138.083 6.95049Z" fill="#E5CBB2"/>
<path d="M157.624 22.9036C158.87 23.9202 160.813 23.6005 161.965 22.1895C163.117 20.7785 163.041 18.8105 161.796 17.7939C160.551 16.7773 158.607 17.097 157.455 18.508C156.303 19.919 156.379 21.887 157.624 22.9036Z" fill="#E5CBB2"/>
<path d="M177.167 38.8567C178.413 39.8733 180.356 39.5536 181.508 38.1426C182.66 36.7316 182.584 34.7636 181.339 33.747C180.093 32.7304 178.15 33.0501 176.998 34.4611C175.846 35.8721 175.922 37.8401 177.167 38.8567Z" fill="#E5CBB2"/>
<path d="M196.708 54.8099C197.954 55.8265 199.897 55.5067 201.049 54.0957C202.201 52.6847 202.125 50.7167 200.88 49.7001C199.635 48.6835 197.691 49.0032 196.539 50.4143C195.387 51.8253 195.463 53.7933 196.708 54.8099Z" fill="#E5CBB2"/>
<path d="M216.249 70.7625C217.495 71.7791 219.438 71.4594 220.59 70.0484C221.742 68.6373 221.666 66.6694 220.421 65.6527C219.176 64.6361 217.232 64.9559 216.08 66.3669C214.928 67.7779 215.004 69.7459 216.249 70.7625Z" fill="#E5CBB2"/>
<path d="M235.79 86.7156C237.036 87.7322 238.979 87.4125 240.131 86.0015C241.283 84.5905 241.207 82.6225 239.962 81.6059C238.717 80.5893 236.773 80.909 235.621 82.32C234.469 83.731 234.545 85.699 235.79 86.7156Z" fill="#E5CBB2"/>
<path d="M255.333 102.669C256.579 103.685 258.522 103.366 259.674 101.955C260.826 100.544 260.75 98.5756 259.505 97.559C258.26 96.5424 256.316 96.8621 255.164 98.2731C254.012 99.6842 254.088 101.652 255.333 102.669Z" fill="#E5CBB2"/>
<path d="M274.874 118.622C276.12 119.638 278.063 119.319 279.215 117.908C280.367 116.497 280.291 114.529 279.046 113.512C277.801 112.496 275.857 112.815 274.705 114.226C273.553 115.637 273.629 117.605 274.874 118.622Z" fill="#E5CBB2"/>
<path d="M120.007 29.0926C121.252 30.1092 123.196 29.7895 124.348 28.3784C125.5 26.9674 125.424 24.9994 124.179 23.9828C122.933 22.9662 120.99 23.2859 119.838 24.697C118.686 26.108 118.762 28.076 120.007 29.0926Z" fill="#E5CBB2"/>
<path d="M139.548 45.0457C140.793 46.0623 142.737 45.7426 143.889 44.3316C145.041 42.9205 144.965 40.9526 143.72 39.936C142.474 38.9193 140.531 39.2391 139.379 40.6501C138.227 42.0611 138.303 44.0291 139.548 45.0457Z" fill="#E5CBB2"/>
<path d="M159.091 60.9988C160.336 62.0154 162.28 61.6957 163.432 60.2847C164.584 58.8737 164.508 56.9057 163.263 55.8891C162.017 54.8725 160.074 55.1922 158.922 56.6032C157.77 58.0142 157.846 59.9822 159.091 60.9988Z" fill="#E5CBB2"/>
<path d="M178.632 76.952C179.877 77.9686 181.821 77.6488 182.973 76.2378C184.125 74.8268 184.049 72.8588 182.804 71.8422C181.558 70.8256 179.615 71.1453 178.463 72.5563C177.311 73.9674 177.387 75.9353 178.632 76.952Z" fill="#E5CBB2"/>
<path d="M198.173 92.9051C199.418 93.9217 201.362 93.602 202.514 92.1909C203.666 90.7799 203.59 88.8119 202.345 87.7953C201.099 86.7787 199.156 87.0984 198.004 88.5095C196.852 89.9205 196.928 91.8885 198.173 92.9051Z" fill="#E5CBB2"/>
<path d="M217.714 108.858C218.96 109.875 220.903 109.555 222.055 108.144C223.207 106.733 223.131 104.765 221.886 103.748C220.64 102.732 218.697 103.052 217.545 104.463C216.393 105.874 216.469 107.842 217.714 108.858Z" fill="#E5CBB2"/>
<path d="M237.257 124.811C238.502 125.827 240.446 125.508 241.598 124.097C242.75 122.686 242.674 120.718 241.429 119.701C240.183 118.684 238.24 119.004 237.088 120.415C235.936 121.826 236.012 123.794 237.257 124.811Z" fill="#E5CBB2"/>
<path d="M256.798 140.764C258.043 141.781 259.987 141.461 261.139 140.05C262.291 138.639 262.215 136.671 260.97 135.654C259.724 134.638 257.781 134.957 256.629 136.368C255.477 137.779 255.553 139.747 256.798 140.764Z" fill="#E5CBB2"/>
<path d="M101.931 51.2352C103.176 52.2518 105.12 51.932 106.272 50.521C107.423 49.11 107.348 47.142 106.102 46.1254C104.857 45.1088 102.914 45.4285 101.762 46.8395C100.61 48.2506 100.686 50.2185 101.931 51.2352Z" fill="#E5CBB2"/>
<path d="M121.472 67.1883C122.717 68.2049 124.661 67.8852 125.813 66.4741C126.964 65.0631 126.889 63.0951 125.643 62.0785C124.398 61.0619 122.455 61.3816 121.303 62.7927C120.151 64.2037 120.227 66.1717 121.472 67.1883Z" fill="#E5CBB2"/>
<path d="M141.013 83.1409C142.258 84.1575 144.202 83.8378 145.354 82.4268C146.505 81.0158 146.43 79.0478 145.184 78.0312C143.939 77.0146 141.996 77.3343 140.844 78.7453C139.692 80.1563 139.768 82.1243 141.013 83.1409Z" fill="#E5CBB2"/>
<path d="M160.556 99.094C161.801 100.111 163.745 99.7909 164.897 98.3799C166.048 96.9689 165.973 95.0009 164.727 93.9843C163.482 92.9677 161.539 93.2874 160.387 94.6984C159.235 96.1094 159.311 98.0774 160.556 99.094Z" fill="#E5CBB2"/>
<path d="M180.097 115.047C181.342 116.064 183.286 115.744 184.438 114.333C185.589 112.922 185.514 110.954 184.268 109.937C183.023 108.921 181.08 109.241 179.928 110.652C178.776 112.063 178.852 114.031 180.097 115.047Z" fill="#E5CBB2"/>
<path d="M199.638 131C200.883 132.017 202.827 131.697 203.979 130.286C205.13 128.875 205.055 126.907 203.809 125.891C202.564 124.874 200.621 125.194 199.469 126.605C198.317 128.016 198.393 129.984 199.638 131Z" fill="#E5CBB2"/>
<path d="M219.181 146.953C220.426 147.97 222.37 147.65 223.522 146.239C224.673 144.828 224.598 142.86 223.352 141.844C222.107 140.827 220.164 141.147 219.012 142.558C217.86 143.969 217.936 145.937 219.181 146.953Z" fill="#E5CBB2"/>
<path d="M238.722 162.907C239.967 163.923 241.911 163.603 243.063 162.192C244.214 160.781 244.139 158.813 242.893 157.797C241.648 156.78 239.705 157.1 238.553 158.511C237.401 159.922 237.477 161.89 238.722 162.907Z" fill="#E5CBB2"/>
<path d="M83.8548 73.3772C85.1001 74.3939 87.0434 74.0741 88.1953 72.6631C89.3473 71.2521 89.2716 69.2841 88.0263 68.2675C86.781 67.2509 84.8377 67.5706 83.6858 68.9816C82.5339 70.3927 82.6096 72.3606 83.8548 73.3772Z" fill="#E5CBB2"/>
<path d="M103.396 89.3304C104.641 90.347 106.584 90.0273 107.736 88.6162C108.888 87.2052 108.813 85.2372 107.567 84.2206C106.322 83.204 104.379 83.5237 103.227 84.9348C102.075 86.3458 102.151 88.3138 103.396 89.3304Z" fill="#E5CBB2"/>
<path d="M122.937 105.283C124.182 106.3 126.125 105.98 127.277 104.569C128.429 103.158 128.354 101.19 127.108 100.174C125.863 99.1571 123.92 99.4769 122.768 100.888C121.616 102.299 121.692 104.267 122.937 105.283Z" fill="#E5CBB2"/>
<path d="M142.48 121.237C143.725 122.253 145.668 121.934 146.82 120.522C147.972 119.111 147.897 117.143 146.651 116.127C145.406 115.11 143.463 115.43 142.311 116.841C141.159 118.252 141.235 120.22 142.48 121.237Z" fill="#E5CBB2"/>
<path d="M162.021 137.189C163.266 138.206 165.209 137.886 166.361 136.475C167.513 135.064 167.438 133.096 166.192 132.08C164.947 131.063 163.004 131.383 161.852 132.794C160.7 134.205 160.776 136.173 162.021 137.189Z" fill="#E5CBB2"/>
<path d="M181.562 153.142C182.807 154.159 184.75 153.839 185.902 152.428C187.054 151.017 186.979 149.049 185.733 148.033C184.488 147.016 182.545 147.336 181.393 148.747C180.241 150.158 180.317 152.126 181.562 153.142Z" fill="#E5CBB2"/>
<path d="M201.105 169.096C202.35 170.112 204.293 169.792 205.445 168.381C206.597 166.97 206.522 165.002 205.276 163.986C204.031 162.969 202.088 163.289 200.936 164.7C199.784 166.111 199.86 168.079 201.105 169.096Z" fill="#E5CBB2"/>
<path d="M220.646 185.049C221.891 186.065 223.834 185.746 224.986 184.334C226.138 182.923 226.063 180.955 224.817 179.939C223.572 178.922 221.629 179.242 220.477 180.653C219.325 182.064 219.401 184.032 220.646 185.049Z" fill="#E5CBB2"/>
<path d="M65.7787 95.5193C67.024 96.5359 68.9673 96.2162 70.1192 94.8052C71.2711 93.3942 71.1954 91.4262 69.9501 90.4096C68.7048 89.393 66.7615 89.7127 65.6096 91.1237C64.4577 92.5347 64.5334 94.5027 65.7787 95.5193Z" fill="#E5CBB2"/>
<path d="M85.3197 111.472C86.565 112.489 88.5083 112.169 89.6602 110.758C90.8121 109.347 90.7364 107.379 89.4911 106.363C88.2458 105.346 86.3025 105.666 85.1506 107.077C83.9987 108.488 84.0744 110.456 85.3197 111.472Z" fill="#E5CBB2"/>
<path d="M104.861 127.426C106.106 128.442 108.049 128.122 109.201 126.711C110.353 125.3 110.277 123.332 109.032 122.316C107.787 121.299 105.844 121.619 104.692 123.03C103.54 124.441 103.615 126.409 104.861 127.426Z" fill="#E5CBB2"/>
<path d="M124.404 143.379C125.649 144.395 127.592 144.076 128.744 142.665C129.896 141.254 129.82 139.286 128.575 138.269C127.33 137.252 125.387 137.572 124.235 138.983C123.083 140.394 123.158 142.362 124.404 143.379Z" fill="#E5CBB2"/>
<path d="M143.945 159.332C145.19 160.348 147.133 160.029 148.285 158.618C149.437 157.207 149.361 155.239 148.116 154.222C146.871 153.205 144.928 153.525 143.776 154.936C142.624 156.347 142.699 158.315 143.945 159.332Z" fill="#E5CBB2"/>
<path d="M163.486 175.285C164.731 176.302 166.674 175.982 167.826 174.571C168.978 173.16 168.902 171.192 167.657 170.175C166.412 169.159 164.469 169.478 163.317 170.889C162.165 172.3 162.24 174.268 163.486 175.285Z" fill="#E5CBB2"/>
<path d="M183.027 191.238C184.272 192.254 186.215 191.934 187.367 190.523C188.519 189.112 188.443 187.144 187.198 186.128C185.953 185.111 184.01 185.431 182.858 186.842C181.706 188.253 181.781 190.221 183.027 191.238Z" fill="#E5CBB2"/>
<path d="M202.57 207.191C203.815 208.207 205.758 207.888 206.91 206.477C208.062 205.066 207.986 203.098 206.741 202.081C205.496 201.064 203.553 201.384 202.401 202.795C201.249 204.206 201.324 206.174 202.57 207.191Z" fill="#E5CBB2"/>
<path d="M47.7025 117.662C48.9478 118.679 50.8911 118.359 52.043 116.948C53.1949 115.537 53.1192 113.569 51.8739 112.552C50.6286 111.536 48.6853 111.855 47.5334 113.266C46.3815 114.677 46.4572 116.645 47.7025 117.662Z" fill="#E5CBB2"/>
<path d="M67.2435 133.615C68.4888 134.631 70.4321 134.311 71.584 132.9C72.7359 131.489 72.6602 129.521 71.4149 128.505C70.1697 127.488 68.2263 127.808 67.0744 129.219C65.9225 130.63 65.9982 132.598 67.2435 133.615Z" fill="#E5CBB2"/>
<path d="M86.7845 149.568C88.0298 150.584 89.9731 150.265 91.125 148.854C92.2769 147.443 92.2012 145.475 90.956 144.458C89.7107 143.441 87.7674 143.761 86.6154 145.172C85.4635 146.583 85.5392 148.551 86.7845 149.568Z" fill="#E5CBB2"/>
<path d="M106.327 165.521C107.573 166.537 109.516 166.218 110.668 164.807C111.82 163.396 111.744 161.428 110.499 160.411C109.254 159.394 107.31 159.714 106.158 161.125C105.007 162.536 105.082 164.504 106.327 165.521Z" fill="#E5CBB2"/>
<path d="M125.869 181.474C127.114 182.491 129.057 182.171 130.209 180.76C131.361 179.349 131.285 177.381 130.04 176.364C128.795 175.348 126.851 175.667 125.699 177.078C124.548 178.489 124.623 180.457 125.869 181.474Z" fill="#E5CBB2"/>
<path d="M145.41 197.427C146.655 198.444 148.598 198.124 149.75 196.713C150.902 195.302 150.826 193.334 149.581 192.317C148.336 191.301 146.392 191.62 145.24 193.031C144.089 194.442 144.164 196.41 145.41 197.427Z" fill="#E5CBB2"/>
<path d="M164.951 213.38C166.196 214.397 168.139 214.077 169.291 212.666C170.443 211.255 170.367 209.287 169.122 208.27C167.877 207.254 165.933 207.574 164.781 208.985C163.63 210.396 163.705 212.364 164.951 213.38Z" fill="#E5CBB2"/>
<path d="M184.493 229.333C185.739 230.35 187.682 230.03 188.834 228.619C189.986 227.208 189.91 225.24 188.665 224.224C187.42 223.207 185.476 223.527 184.324 224.938C183.173 226.349 183.248 228.317 184.493 229.333Z" fill="#E5CBB2"/>
<path d="M29.6263 139.804C30.8716 140.821 32.8149 140.501 33.9668 139.09C35.1187 137.679 35.043 135.711 33.7978 134.694C32.5525 133.678 30.6092 133.997 29.4572 135.408C28.3053 136.819 28.381 138.787 29.6263 139.804Z" fill="#E5CBB2"/>
<path d="M49.1673 155.757C50.4126 156.774 52.3559 156.454 53.5078 155.043C54.6598 153.632 54.5841 151.664 53.3388 150.647C52.0935 149.631 50.1502 149.95 48.9983 151.362C47.8464 152.773 47.9221 154.741 49.1673 155.757Z" fill="#E5CBB2"/>
<path d="M68.7084 171.71C69.9536 172.727 71.8969 172.407 73.0489 170.996C74.2008 169.585 74.1251 167.617 72.8798 166.601C71.6345 165.584 69.6912 165.904 68.5393 167.315C67.3874 168.726 67.4631 170.694 68.7084 171.71Z" fill="#E5CBB2"/>
<path d="M88.2513 187.663C89.4966 188.68 91.4399 188.36 92.5918 186.949C93.7437 185.538 93.668 183.57 92.4228 182.554C91.1775 181.537 89.2342 181.857 88.0822 183.268C86.9303 184.679 87.006 186.647 88.2513 187.663Z" fill="#E5CBB2"/>
<path d="M107.792 203.616C109.038 204.633 110.981 204.313 112.133 202.902C113.285 201.491 113.209 199.523 111.964 198.506C110.718 197.49 108.775 197.809 107.623 199.22C106.471 200.631 106.547 202.599 107.792 203.616Z" fill="#E5CBB2"/>
<path d="M127.333 219.569C128.579 220.586 130.522 220.266 131.674 218.855C132.826 217.444 132.75 215.476 131.505 214.459C130.26 213.443 128.316 213.763 127.164 215.174C126.012 216.585 126.088 218.553 127.333 219.569Z" fill="#E5CBB2"/>
<path d="M146.874 235.522C148.12 236.539 150.063 236.219 151.215 234.808C152.367 233.397 152.291 231.429 151.046 230.413C149.801 229.396 147.857 229.716 146.705 231.127C145.553 232.538 145.629 234.506 146.874 235.522Z" fill="#E5CBB2"/>
<path d="M166.417 251.475C167.663 252.492 169.606 252.172 170.758 250.761C171.91 249.35 171.834 247.382 170.589 246.366C169.343 245.349 167.4 245.669 166.248 247.08C165.096 248.491 165.172 250.459 166.417 251.475Z" fill="#E5CBB2"/>
<path d="M11.5502 161.946C12.7954 162.963 14.7388 162.643 15.8907 161.232C17.0426 159.821 16.9669 157.853 15.7216 156.836C14.4763 155.82 12.533 156.139 11.3811 157.55C10.2292 158.961 10.3049 160.929 11.5502 161.946Z" fill="#E5CBB2"/>
<path d="M31.0912 177.899C32.3365 178.916 34.2798 178.596 35.4317 177.185C36.5836 175.774 36.5079 173.806 35.2626 172.789C34.0173 171.773 32.074 172.093 30.9221 173.504C29.7702 174.915 29.8459 176.883 31.0912 177.899Z" fill="#E5CBB2"/>
<path d="M50.6322 193.852C51.8775 194.869 53.8208 194.549 54.9727 193.138C56.1246 191.727 56.0489 189.759 54.8036 188.743C53.5583 187.726 51.615 188.046 50.4631 189.457C49.3112 190.868 49.3869 192.836 50.6322 193.852Z" fill="#E5CBB2"/>
<path d="M70.1752 209.805C71.4204 210.822 73.3638 210.502 74.5157 209.091C75.6676 207.68 75.5919 205.712 74.3466 204.696C73.1013 203.679 71.158 203.999 70.0061 205.41C68.8542 206.821 68.9299 208.789 70.1752 209.805Z" fill="#E5CBB2"/>
<path d="M89.7162 225.759C90.9615 226.775 92.9048 226.455 94.0567 225.044C95.2086 223.633 95.1329 221.665 93.8876 220.649C92.6423 219.632 90.699 219.952 89.5471 221.363C88.3952 222.774 88.4709 224.742 89.7162 225.759Z" fill="#E5CBB2"/>
<path d="M109.257 241.712C110.502 242.728 112.446 242.409 113.598 240.998C114.75 239.587 114.674 237.619 113.429 236.602C112.183 235.585 110.24 235.905 109.088 237.316C107.936 238.727 108.012 240.695 109.257 241.712Z" fill="#E5CBB2"/>
<path d="M128.798 257.664C130.044 258.681 131.987 258.361 133.139 256.95C134.291 255.539 134.215 253.571 132.97 252.555C131.724 251.538 129.781 251.858 128.629 253.269C127.477 254.68 127.553 256.648 128.798 257.664Z" fill="#E5CBB2"/>
<path d="M148.341 273.617C149.586 274.634 151.53 274.314 152.682 272.903C153.834 271.492 153.758 269.524 152.513 268.508C151.267 267.491 149.324 267.811 148.172 269.222C147.02 270.633 147.096 272.601 148.341 273.617Z" fill="#E5CBB2"/>
</g>
<defs>
<filter id="filter0_d_70_3421" x="-3.04688" y="0" width="297.367" height="301.041" filterUnits="userSpaceOnUse" color-interpolation-filters="sRGB">
<feFlood flood-opacity="0" result="BackgroundImageFix"/>
<feColorMatrix in="SourceAlpha" type="matrix" values="0 0 0 0 0 0 0 0 0 0 0 0 0 0 0 0 0 0 127 0" result="hardAlpha"/>
<feOffset dy="4"/>
<feGaussianBlur stdDeviation="2"/>
<feComposite in2="hardAlpha" operator="out"/>
<feColorMatrix type="matrix" values="0 0 0 0 0 0 0 0 0 0 0 0 0 0 0 0 0 0 0.25 0"/>
<feBlend mode="normal" in2="BackgroundImageFix" result="effect1_dropShadow_70_3421"/>
<feBlend mode="normal" in="SourceGraphic" in2="effect1_dropShadow_70_3421" result="shape"/>
</filter>
<clipPath id="clip0_70_3421">
<rect width="194.049" height="219.875" fill="white" transform="translate(140) rotate(39.2271)"/>
</clipPath>
</defs>
</svg>
